<?xml version="1.0" encoding="utf-8"?><svg xmlns="http://www.w3.org/2000/svg" xmlns:xlink="http://www.w3.org/1999/xlink"><symbol viewBox="0 0 30 18" id="burger" xmlns="http://www.w3.org/2000/svg"><path d="M0 0h30v2H0zm10 8h20v2H10zm5 8h15v2H15z"/></symbol><symbol viewBox="0 -54 395.68 395" id="car" xmlns="http://www.w3.org/2000/svg"><path d="M374.934 81.926h-29.141C336.148 35.41 294.863.34 245.527.34h-95.375c-49.336 0-90.62 35.07-100.265 81.586h-27.14C10.206 81.926 0 92.133 0 104.676v18.21a6.825 6.825 0 0 0 6.828 6.829h27.04v21.347c-11.766 3.032-20.481 13.739-20.481 26.438v81.922c0 15.058 12.246 27.305 27.308 27.305h13.653c15.058 0 27.304-12.247 27.304-27.305h232.11c0 15.058 12.246 27.305 27.304 27.305h13.653c15.062 0 27.308-12.247 27.308-27.305V177.5c0-12.7-8.71-23.406-20.48-26.438v-21.347h27.308a6.822 6.822 0 0 0 6.825-6.828v-20.215c0-11.438-9.305-20.746-20.746-20.746zm-224.782-67.93h95.375c48.817 0 88.54 39.625 88.73 88.395l-.007 6.843H61.406v-6.492c0-48.933 39.813-88.746 88.746-88.746zm231.875 102.067H354.72a6.818 6.818 0 0 0-6.824 6.824v34.133a6.822 6.822 0 0 0 6.824 6.828c7.527 0 13.656 6.125 13.656 13.652v81.922c0 7.523-6.129 13.652-13.656 13.652h-13.653c-7.527 0-13.652-6.129-13.652-13.652h6.828c3.774 0 6.824-3.055 6.824-6.828s-3.05-6.828-6.824-6.828H54.348c-3.774 0-6.828 3.054-6.828 6.828s3.054 6.828 6.828 6.828H68c0 7.523-6.125 13.652-13.652 13.652H40.695c-7.527 0-13.656-6.129-13.656-13.652V177.5c0-7.527 6.129-13.652 13.656-13.652a6.822 6.822 0 0 0 6.825-6.828v-34.133a6.818 6.818 0 0 0-6.825-6.825H13.652v-11.386c0-5.016 4.082-9.094 9.094-9.094h24.945L47.52 116a6.837 6.837 0 0 0 6.824 6.89h286.754a6.825 6.825 0 0 0 6.828-6.828v-13.32c0-.105-.016-.203-.016-.308l.008-6.852h27.016c3.914 0 7.09 3.18 7.09 7.09v13.39zm0 0"/><path d="M231.84 204.809h-61.438a6.822 6.822 0 0 0-6.828 6.824 6.825 6.825 0 0 0 6.828 6.828h61.438a6.825 6.825 0 0 0 6.828-6.828 6.822 6.822 0 0 0-6.828-6.824zM341.098 177.5h-47.75a6.84 6.84 0 0 0-5.594 2.914l-23.879 34.133a6.812 6.812 0 0 0-.46 7.066 6.819 6.819 0 0 0 6.054 3.676h47.75a6.84 6.84 0 0 0 5.594-2.914l23.878-34.133a6.82 6.82 0 0 0 .461-7.07 6.814 6.814 0 0 0-6.054-3.672zm-27.43 34.133h-31.094l14.324-20.48h31.094zm-197.781-31.219a6.829 6.829 0 0 0-5.594-2.914H62.539a6.817 6.817 0 0 0-6.05 3.672c-1.18 2.254-1 4.98.46 7.07l23.871 34.133a6.829 6.829 0 0 0 5.594 2.914h47.754a6.813 6.813 0 0 0 6.05-3.676c1.18-2.25 1-4.98-.46-7.066zm-25.918 31.219l-14.324-20.48h31.093l14.325 20.48zm53.133-116.051c1.492 0 3-.488 4.257-1.496l34.133-27.305a6.836 6.836 0 0 0 1.067-9.601 6.828 6.828 0 0 0-9.598-1.067l-34.133 27.309a6.832 6.832 0 0 0-1.066 9.598 6.814 6.814 0 0 0 5.34 2.562zm47.785 0a6.79 6.79 0 0 0 4.187-1.441l61.442-47.786a6.827 6.827 0 0 0-8.387-10.773l-61.442 47.785a6.822 6.822 0 0 0-1.19 9.582 6.814 6.814 0 0 0 5.39 2.633zm0 0"/></symbol><symbol viewBox="0 0 47.971 47.971" id="close" xmlns="http://www.w3.org/2000/svg"><path d="M28.228 23.986L47.092 5.122a2.998 2.998 0 0 0 0-4.242 2.998 2.998 0 0 0-4.242 0L23.986 19.744 5.121.88a2.998 2.998 0 0 0-4.242 0 2.998 2.998 0 0 0 0 4.242l18.865 18.864L.879 42.85a2.998 2.998 0 1 0 4.242 4.241l18.865-18.864L42.85 47.091c.586.586 1.354.879 2.121.879s1.535-.293 2.121-.879a2.998 2.998 0 0 0 0-4.242L28.228 23.986z"/></symbol><symbol viewBox="0 0 53 53" id="menu" xmlns="http://www.w3.org/2000/svg"><path d="M2 13.5h49a2 2 0 0 0 0-4H2a2 2 0 0 0 0 4zm0 15h49a2 2 0 0 0 0-4H2a2 2 0 0 0 0 4zm0 15h49a2 2 0 0 0 0-4H2a2 2 0 0 0 0 4z"/></symbol><symbol viewBox="0 0 35.393 35.393" id="notebook" xmlns="http://www.w3.org/2000/svg"><path d="M34.69 4.579H.821V25.26H34.69V4.579zm-1.457 19.104H2.279V6.157h30.954v17.526zm2.133 5.489l-.676-2.858H.688l-.661 2.858H0v1.643h35.393v-1.643z"/></symbol><symbol viewBox="0 0 512 512" id="user" xmlns="http://www.w3.org/2000/svg"><path d="M437.02 330.98c-27.883-27.882-61.071-48.523-97.281-61.018C378.521 243.251 404 198.548 404 148 404 66.393 337.607 0 256 0S108 66.393 108 148c0 50.548 25.479 95.251 64.262 121.962-36.21 12.495-69.398 33.136-97.281 61.018C26.629 379.333 0 443.62 0 512h40c0-119.103 96.897-216 216-216s216 96.897 216 216h40c0-68.38-26.629-132.667-74.98-181.02zM256 256c-59.551 0-108-48.448-108-108S196.449 40 256 40s108 48.448 108 108-48.449 108-108 108z"/></symbol></svg>