<?xml version="1.0" encoding="utf-8"?>
<!-- Generator: Adobe Illustrator 21.0.0, SVG Export Plug-In . SVG Version: 6.00 Build 0)  -->
<svg version="1.1" id="Layer_1" xmlns="http://www.w3.org/2000/svg" xmlns:xlink="http://www.w3.org/1999/xlink" x="0px" y="0px"
	 viewBox="0 0 29 23" style="enable-background:new 0 0 29 23;" xml:space="preserve">
<path d="M0.3,12.6C0.1,12.4,0,12.1,0,11.8c0-0.2,0.1-0.6,0.3-0.8l1.6-1.6C2.3,9,3,9,3.5,9.4l0.1,0.1l6.1,6.8c0.2,0.2,0.6,0.2,0.8,0
	l14.9-16h0.1c0.4-0.5,1.1-0.5,1.6,0L28.7,2c0.4,0.5,0.4,1.1,0,1.6L10.8,22.7C10.6,22.9,10.4,23,10,23c-0.3,0-0.6-0.1-0.8-0.3L0.6,13
	L0.3,12.6L0.3,12.6z"/>
</svg>
