<?xml version="1.0" encoding="utf-8"?><svg xmlns="http://www.w3.org/2000/svg" xmlns:xlink="http://www.w3.org/1999/xlink"><symbol viewBox="0 0 284.929 284.929" id="angle-double-left" xmlns="http://www.w3.org/2000/svg"><path d="M165.304 142.468L277.517 30.267c1.902-1.903 2.847-4.093 2.847-6.567 0-2.475-.951-4.665-2.847-6.567L263.239 2.857C261.337.955 259.146 0 256.676 0c-2.478 0-4.665.955-6.571 2.857L117.057 135.9c-1.903 1.903-2.853 4.093-2.853 6.567 0 2.475.95 4.664 2.853 6.567l133.048 133.043c1.903 1.906 4.086 2.851 6.564 2.851 2.478 0 4.66-.947 6.563-2.851l14.277-14.267c1.902-1.903 2.851-4.094 2.851-6.57 0-2.472-.948-4.661-2.851-6.564L165.304 142.468z"/><path d="M55.668 142.468L167.87 30.267c1.903-1.903 2.851-4.093 2.851-6.567 0-2.475-.947-4.665-2.851-6.567L153.6 2.857C151.697.955 149.507 0 147.036 0c-2.478 0-4.668.955-6.57 2.857L7.417 135.9c-1.903 1.903-2.853 4.093-2.853 6.567 0 2.475.95 4.664 2.853 6.567l133.048 133.043c1.902 1.906 4.09 2.851 6.57 2.851 2.471 0 4.661-.947 6.563-2.851l14.271-14.267c1.903-1.903 2.851-4.094 2.851-6.57 0-2.472-.947-4.661-2.851-6.564L55.668 142.468z"/></symbol><symbol viewBox="0 0 284.936 284.936" id="angle-double-right" xmlns="http://www.w3.org/2000/svg"><path d="M277.515 135.9L144.464 2.857C142.565.955 140.375 0 137.9 0c-2.472 0-4.659.955-6.562 2.857l-14.277 14.275c-1.903 1.903-2.853 4.089-2.853 6.567 0 2.478.95 4.664 2.853 6.567L229.268 142.47 117.062 254.677c-1.903 1.903-2.853 4.093-2.853 6.564 0 2.477.95 4.667 2.853 6.57l14.277 14.271c1.902 1.905 4.089 2.854 6.562 2.854 2.478 0 4.665-.951 6.563-2.854l133.051-133.044c1.902-1.902 2.851-4.093 2.851-6.567s-.949-4.664-2.851-6.571z"/><path d="M170.732 142.471c0-2.474-.947-4.665-2.857-6.571L34.833 2.857C32.931.955 30.741 0 28.267 0S23.602.955 21.7 2.857L7.426 17.133C5.52 19.036 4.57 21.222 4.57 23.7c0 2.478.95 4.664 2.856 6.567L119.63 142.471 7.426 254.677c-1.906 1.903-2.856 4.093-2.856 6.564 0 2.477.95 4.667 2.856 6.57l14.273 14.271c1.903 1.905 4.093 2.854 6.567 2.854s4.664-.951 6.567-2.854l133.042-133.044c1.91-1.902 2.857-4.093 2.857-6.567z"/></symbol><symbol class="acsvg-inline--fa acfa-angle-left acfa-w-8" viewBox="0 0 256 512" id="angle-left" xmlns="http://www.w3.org/2000/svg"><path d="M31.7 239l136-136c9.4-9.4 24.6-9.4 33.9 0l22.6 22.6c9.4 9.4 9.4 24.6 0 33.9L127.9 256l96.4 96.4c9.4 9.4 9.4 24.6 0 33.9L201.7 409c-9.4 9.4-24.6 9.4-33.9 0l-136-136c-9.5-9.4-9.5-24.6-.1-34z"/></symbol><symbol class="adsvg-inline--fa adfa-angle-right adfa-w-8" viewBox="0 0 256 512" id="angle-right" xmlns="http://www.w3.org/2000/svg"><path d="M224.3 273l-136 136c-9.4 9.4-24.6 9.4-33.9 0l-22.6-22.6c-9.4-9.4-9.4-24.6 0-33.9l96.4-96.4-96.4-96.4c-9.4-9.4-9.4-24.6 0-33.9L54.3 103c9.4-9.4 24.6-9.4 33.9 0l136 136c9.5 9.4 9.5 24.6.1 34z"/></symbol><symbol class="aesvg-inline--fa aefa-calendar-alt aefa-w-14" viewBox="0 0 448 512" id="calendar" xmlns="http://www.w3.org/2000/svg"><path d="M400 64h-48V16c0-8.8-7.2-16-16-16h-32c-8.8 0-16 7.2-16 16v48H160V16c0-8.8-7.2-16-16-16h-32c-8.8 0-16 7.2-16 16v48H48C21.5 64 0 85.5 0 112v352c0 26.5 21.5 48 48 48h352c26.5 0 48-21.5 48-48V112c0-26.5-21.5-48-48-48zm0 96v80h-96v-80h96zM176 352v-80h96v80h-96zm96 32v80h-96v-80h96zm-128-32H48v-80h96v80zm32-112v-80h96v80h-96zm128 32h96v80h-96v-80zM144 160v80H48v-80h96zM48 458v-74h96v80H54c-3.3 0-6-2.7-6-6zm346 6h-90v-80h96v74c0 3.3-2.7 6-6 6z"/></symbol><symbol viewBox="0 0 307.054 180.331" id="caret-bottom" xmlns="http://www.w3.org/2000/svg"><path d="M4.609 37.904l137.815 137.829c6.136 6.13 16.074 6.13 22.203 0l137.83-137.829c6.129-6.132 6.129-16.069 0-22.201L291.356 4.602c-6.129-6.136-16.076-6.136-22.209 0l-115.62 115.626L37.903 4.602c-6.128-6.136-16.07-6.136-22.201 0L4.601 15.703c-6.136 6.139-6.136 16.069.008 22.201z"/></symbol><symbol viewBox="0 0 180.331 307.054" id="caret-left" xmlns="http://www.w3.org/2000/svg"><path d="M142.427 4.609L4.597 142.424c-6.13 6.136-6.13 16.074 0 22.203l137.83 137.83c6.132 6.129 16.069 6.129 22.2 0l11.102-11.101c6.136-6.129 6.136-16.076 0-22.209L60.103 153.527 175.729 37.903c6.136-6.128 6.136-16.07 0-22.201L164.628 4.601c-6.14-6.136-16.07-6.136-22.201.008z"/></symbol><symbol viewBox="0 0 180.331 307.054" id="caret-right" xmlns="http://www.w3.org/2000/svg"><path d="M37.904 302.445L175.733 164.63c6.13-6.136 6.13-16.074 0-22.203L37.904 4.597c-6.132-6.13-16.069-6.13-22.201 0l-11.101 11.1c-6.136 6.13-6.136 16.077 0 22.21l115.626 115.62L4.602 269.15c-6.136 6.128-6.136 16.07 0 22.2l11.101 11.102c6.139 6.136 16.069 6.136 22.201-.008z"/></symbol><symbol viewBox="0 0 307.054 180.331" id="caret-top" xmlns="http://www.w3.org/2000/svg"><path d="M302.445 142.427L164.63 4.596c-6.136-6.13-16.074-6.13-22.203 0L4.597 142.428c-6.13 6.132-6.13 16.069 0 22.2l11.1 11.101c6.13 6.136 16.077 6.136 22.21 0l115.62-115.626L269.15 175.728c6.128 6.136 16.07 6.136 22.2 0l11.102-11.1c6.136-6.14 6.136-16.07-.008-22.201z"/></symbol><symbol viewBox="-21 -21 682.667 682.667" id="check-circle" xmlns="http://www.w3.org/2000/svg"><path d="M322.82 387.934L602.77 80.66l36.957 33.672-314.34 345.023-171.364-162.902 34.454-36.238zm297.493-178.868l-38.989 42.93C586.984 273.73 590 296.52 590 320c0 148.875-121.125 270-270 270S50 468.875 50 320 171.125 50 320 50c68.969 0 131.969 26.008 179.746 68.71l33.707-37.112C474.691 28.859 399.566 0 320 0 234.527 0 154.164 33.285 93.727 93.727 33.285 154.164 0 234.527 0 320s33.285 165.836 93.727 226.273C154.164 606.715 234.527 640 320 640s165.836-33.285 226.273-93.727C606.715 485.836 640 405.473 640 320c0-38.469-6.762-75.89-19.688-110.934zm0 0"/></symbol><symbol viewBox="0 0 26 26" id="checked" xmlns="http://www.w3.org/2000/svg"><path fill-rule="evenodd" clip-rule="evenodd" d="M0 13C0 5.79 5.79 0 13 0s13 5.79 13 13-5.79 13-13 13S0 20.21 0 13zm11.05 5.732l9.454-9.81c.237-.236.237-.59 0-.767l-.827-.828a.571.571 0 0 0-.827 0h-.06l-7.917 8.214a.286.286 0 0 1-.414 0l-3.25-3.486-.059-.06a.571.571 0 0 0-.827 0l-.828.828a.638.638 0 0 0-.177.413c0 .118.06.296.177.414l.119.118 4.609 4.964c.059.118.236.177.413.177a.536.536 0 0 0 .414-.177z"/></symbol><symbol viewBox="0 0 46.3 46.3" id="circle" xmlns="http://www.w3.org/2000/svg"><path d="M8.7 38.8l5.4-5.4c2.5 2.2 5.7 3.4 9 3.4 3.4 0 6.5-1.2 9-3.4l5.4 5.4c-3.9 3.6-9 5.6-14.4 5.6-5.4.1-10.4-1.9-14.4-5.6M7.4 8.7l5.4 5.4c-2.2 2.5-3.4 5.7-3.4 9s1.2 6.5 3.4 9l-5.4 5.4C0 29.4 0 16.9 7.4 8.7m30.1-1.2l-5.4 5.4c-2.5-2.2-5.7-3.4-9-3.4-3.4 0-6.5 1.2-9 3.4L8.7 7.5c3.9-3.6 9-5.6 14.4-5.6 5.4-.1 10.5 1.9 14.4 5.6M14.7 31.6c-2.3-2.3-3.5-5.2-3.5-8.4s1.2-6.2 3.5-8.4c2.3-2.3 5.2-3.5 8.4-3.5s6.2 1.2 8.4 3.5c2.3 2.3 3.5 5.2 3.5 8.4s-1.2 6.2-3.5 8.4c-2.3 2.3-5.2 3.5-8.4 3.5s-6.1-1.3-8.4-3.5m24.1 5.9l-5.4-5.4c2.2-2.5 3.4-5.7 3.4-9s-1.2-6.5-3.4-9l5.4-5.4c7.5 8.2 7.5 20.7 0 28.8m.7-30.7C35.1 2.4 29.3 0 23.1 0s-12 2.4-16.4 6.8c-9 9-9 23.7 0 32.7 4.4 4.4 10.2 6.8 16.4 6.8 6.2 0 12-2.4 16.4-6.8 9-9 9-23.7 0-32.7"/></symbol><symbol viewBox="0 0 212.982 212.982" id="close" xmlns="http://www.w3.org/2000/svg"><path d="M131.804 106.491l75.936-75.936c6.99-6.99 6.99-18.323 0-25.312-6.99-6.99-18.322-6.99-25.312 0L106.491 81.18 30.554 5.242c-6.99-6.99-18.322-6.99-25.312 0-6.989 6.99-6.989 18.323 0 25.312l75.937 75.936-75.937 75.937c-6.989 6.99-6.989 18.323 0 25.312 6.99 6.99 18.322 6.99 25.312 0l75.937-75.937 75.937 75.937c6.989 6.99 18.322 6.99 25.312 0 6.99-6.99 6.99-18.322 0-25.312l-75.936-75.936z" fill-rule="evenodd" clip-rule="evenodd"/></symbol><symbol viewBox="0 0 32 32" id="cog" xmlns="http://www.w3.org/2000/svg"><path d="M13.188 3l-.157.813-.594 2.968a9.939 9.939 0 0 0-2.593 1.532l-2.906-1-.782-.25-.406.718-2 3.438-.406.719.594.53 2.25 1.97C6.104 14.948 6 15.46 6 16s.105 1.05.188 1.563l-2.25 1.968-.594.532.406.718 2 3.438.406.718.782-.25 2.906-1a9.939 9.939 0 0 0 2.594 1.532l.593 2.968.156.813h5.626l.156-.813.593-2.968a9.939 9.939 0 0 0 2.594-1.532l2.907 1 .78.25.407-.718 2-3.438.406-.718-.593-.532-2.25-1.968C25.895 17.05 26 16.538 26 16c0-.54-.105-1.05-.188-1.563l2.25-1.968.594-.531-.406-.72-2-3.437-.406-.718-.782.25-2.906 1a9.939 9.939 0 0 0-2.593-1.532l-.594-2.968L18.812 3zm1.624 2h2.376l.5 2.594.125.593.562.188a8.017 8.017 0 0 1 3.031 1.75l.438.406.562-.187 2.532-.875 1.187 2.031-2 1.781-.469.375.157.594c.128.57.187 1.152.187 1.75 0 .598-.059 1.18-.188 1.75l-.125.594.438.375 2 1.781-1.188 2.031-2.53-.875-.563-.187-.438.406a8.017 8.017 0 0 1-3.031 1.75l-.563.188-.125.593-.5 2.594h-2.375l-.5-2.594-.124-.593-.563-.188a8.017 8.017 0 0 1-3.031-1.75l-.438-.406-.562.187-2.531.875L5.875 20.5l2-1.781.469-.375-.156-.594A7.901 7.901 0 0 1 8 16c0-.598.059-1.18.188-1.75l.156-.594-.469-.375-2-1.781 1.188-2.031 2.53.875.563.187.438-.406a8.017 8.017 0 0 1 3.031-1.75l.563-.188.124-.593zM16 11c-2.75 0-5 2.25-5 5s2.25 5 5 5 5-2.25 5-5-2.25-5-5-5zm0 2c1.668 0 3 1.332 3 3s-1.332 3-3 3-3-1.332-3-3 1.332-3 3-3z"/></symbol><symbol viewBox="0 0 43.4 29.7" id="credits" xmlns="http://www.w3.org/2000/svg"><path d="M41.6 27.5c0 .2-.2.4-.4.4H6.5c-.2 0-.4-.2-.4-.4v-2.4h30.6c1.3 0 2.4-1.1 2.4-2.4V6.5h2.1c.2 0 .4.2.4.4v20.6zM1.8 22.6V12.5h35.5v10.1c0 .3-.3.6-.6.6H2.4c-.3 0-.6-.2-.6-.6m.6-20.8h34.2c.3 0 .6.3.6.6v4H1.8v-4c0-.3.3-.6.6-.6m-.6 6.4h35.5v2.4H1.8V8.2zm39.4-3.6h-2.1V2.4C39.1 1.1 38 0 36.7 0H2.4C1.1 0 0 1.1 0 2.4v20.2C0 23.9 1.1 25 2.4 25h1.9v2.4c0 1.2 1 2.2 2.2 2.2h34.7c1.2 0 2.2-1 2.2-2.2V6.8c0-1.2-1-2.2-2.2-2.2"/></symbol><symbol viewBox="0 0 37.7 46" id="document" xmlns="http://www.w3.org/2000/svg"><path d="M35.236 44.168h-32.8c-.3 0-.6-.3-.6-.6v-41.1c0-.3.3-.6.6-.6h22.1v8.9c0 1.3 1.1 2.4 2.4 2.4h8.9v30.4c0 .3-.3.6-.6.6m-.7-32.8h-7.6c-.3 0-.6-.3-.6-.6v-7.7l8.2 8.3zm3.1.9V11.968c0-.1-.1-.1-.1-.2 0 0 0-.1-.1-.1l-11.4-11.4c-.1-.1-.2-.1-.3-.2H2.335c-1.3 0-2.4 1.1-2.4 2.4v41.1c0 1.3 1.1 2.4 2.4 2.4h32.9c1.3 0 2.4-1.1 2.4-2.4v-31.3"/><path d="M6.432 10.262h12.4c.5 0 .9-.4.9-.9s-.4-.9-.9-.9h-12.4c-.5 0-.9.4-.9.9s.4.9.9.9m19.031 7.498h-19c-.5 0-.9.4-.9.9s.4.9.9.9h19c.5 0 .9-.4.9-.9s-.4-.9-.9-.9M6.432 27.795h12.4c.5 0 .9-.4.9-.9s-.4-.9-.9-.9h-12.4c-.5 0-.9.4-.9.9s.4.9.9.9m19.031 7.497h-19c-.5 0-.9.4-.9.9s.4.9.9.9h19c.5 0 .9-.4.9-.9s-.4-.9-.9-.9"/></symbol><symbol viewBox="0 0 4 16" id="dots" xmlns="http://www.w3.org/2000/svg"><defs id="aqdefs4"><style id="aqstyle2">.aqcls-1{fill:#d6d6d6}</style></defs><g id="aqdots" transform="translate(-1483 -31)" fill-opacity="1"><circle id="aqEllipse_2" data-name="Ellipse 2" class="aqcls-1" cx="2" cy="2" r="2" transform="translate(1483 31)" fill-opacity="1"/><circle id="aqEllipse_3" data-name="Ellipse 3" class="aqcls-1" cx="2" cy="2" r="2" transform="translate(1483 37)" fill-opacity="1"/><circle id="aqEllipse_4" data-name="Ellipse 4" class="aqcls-1" cx="2" cy="2" r="2" transform="translate(1483 43)" fill-opacity="1"/></g></symbol><symbol viewBox="0 0 54 54" id="download" xmlns="http://www.w3.org/2000/svg"><path d="M27 47a1 1 0 0 1-1-1V1a1 1 0 0 1 2 0v45a1 1 0 0 1-1 1z"/><path d="M27 47a.997.997 0 0 1-.707-.293l-16-16a.999.999 0 1 1 1.414-1.414l16 16A.999.999 0 0 1 27 47z"/><path d="M27 47a.999.999 0 0 1-.707-1.707l16-16a.999.999 0 1 1 1.414 1.414l-16 16A.997.997 0 0 1 27 47zm16 7H11a1 1 0 0 1 0-2h32a1 1 0 0 1 0 2z"/></symbol><symbol viewBox="0 0 32 32" id="edit" xmlns="http://www.w3.org/2000/svg"><path d="M23.906 3.969A4.097 4.097 0 0 0 21 5.188L5.187 21l-.062.313-1.094 5.5-.312 1.468 1.469-.312 5.5-1.094.312-.063L26.813 11a4.075 4.075 0 0 0 0-5.813 4.097 4.097 0 0 0-2.907-1.218zm0 1.906c.504 0 1.012.23 1.5.719.973.972.973 2.027 0 3l-.718.687-2.97-2.969.688-.718c.489-.489.996-.719 1.5-.719zm-3.593 2.844l2.968 2.969L11.188 23.78a6.813 6.813 0 0 0-2.97-2.968zM6.938 22.438a4.734 4.734 0 0 1 2.625 2.625l-3.282.656z"/></symbol><symbol viewBox="0 0 46.9 31.4" id="envelope" xmlns="http://www.w3.org/2000/svg"><path d="M44.5 29.6H2.4c-.3 0-.6-.3-.6-.6V4.9L22.9 21s.1 0 .1.1h.1c.1 0 .2.1.4.1.1 0 .2 0 .4-.1h.1s.1 0 .1-.1l21-16.1V29c0 .4-.3.6-.6.6M2.4 1.8h42.1c.3 0 .6.3.6.6v.2L23.5 19.2 1.8 2.6v-.2c0-.3.3-.6.6-.6M44.5 0H2.4C1.1 0 0 1.1 0 2.4V29c0 1.3 1.1 2.4 2.4 2.4h42.1c1.3 0 2.4-1.1 2.4-2.4V2.4c0-1.3-1-2.4-2.4-2.4"/></symbol><symbol viewBox="0 0 23 15" id="envelope-new" xmlns="http://www.w3.org/2000/svg"><path fill-rule="evenodd" clip-rule="evenodd" d="M1.132.661A2.966 2.966 0 0 1 2.875.1h17.25c.657 0 1.26.213 1.743.562l-9.9 8.821c-.223.198-.713.198-.935 0L1.132.662zM0 2.826c0-.49.14-.95.377-1.347l7.359 6.563-7.233 5.54-.027.017a2.622 2.622 0 0 1-.476-1.5V2.826zm22.623-1.347l-7.359 6.563 7.233 5.54.027.016c.298-.43.476-.944.476-1.5V2.826c0-.49-.14-.95-.377-1.347zM1.293 14.374L8.58 8.792l1.662 1.483a1.918 1.918 0 0 0 2.516 0l1.662-1.483 7.286 5.582a2.98 2.98 0 0 1-1.581.452H2.875a2.98 2.98 0 0 1-1.581-.452z"/></symbol><symbol class="avsvg-inline--fa avfa-envelope-open avfa-w-16" viewBox="0 0 512 512" id="envelope-open" xmlns="http://www.w3.org/2000/svg"><path d="M494.586 164.516c-4.697-3.883-111.723-89.95-135.251-108.657C337.231 38.191 299.437 0 256 0c-43.205 0-80.636 37.717-103.335 55.859-24.463 19.45-131.07 105.195-135.15 108.549A48.004 48.004 0 0 0 0 201.485V464c0 26.51 21.49 48 48 48h416c26.51 0 48-21.49 48-48V201.509a48 48 0 0 0-17.414-36.993zM464 458a6 6 0 0 1-6 6H54a6 6 0 0 1-6-6V204.347c0-1.813.816-3.526 2.226-4.665 15.87-12.814 108.793-87.554 132.364-106.293C200.755 78.88 232.398 48 256 48c23.693 0 55.857 31.369 73.41 45.389 23.573 18.741 116.503 93.493 132.366 106.316a5.99 5.99 0 0 1 2.224 4.663V458zm-31.991-187.704c4.249 5.159 3.465 12.795-1.745 16.981-28.975 23.283-59.274 47.597-70.929 56.863C336.636 362.283 299.205 400 256 400c-43.452 0-81.287-38.237-103.335-55.86-11.279-8.967-41.744-33.413-70.927-56.865-5.21-4.187-5.993-11.822-1.745-16.981l15.258-18.528c4.178-5.073 11.657-5.843 16.779-1.726 28.618 23.001 58.566 47.035 70.56 56.571C200.143 320.631 232.307 352 256 352c23.602 0 55.246-30.88 73.41-45.389 11.994-9.535 41.944-33.57 70.563-56.568 5.122-4.116 12.601-3.346 16.778 1.727l15.258 18.526z"/></symbol><symbol class="awsvg-inline--fa awfa-eye awfa-w-18" viewBox="0 0 576 512" id="eye" xmlns="http://www.w3.org/2000/svg"><path d="M569.354 231.631C512.97 135.949 407.81 72 288 72 168.14 72 63.004 135.994 6.646 231.631a47.999 47.999 0 0 0 0 48.739C63.031 376.051 168.19 440 288 440c119.86 0 224.996-63.994 281.354-159.631a47.997 47.997 0 0 0 0-48.738zM288 392c-102.556 0-192.091-54.701-240-136 44.157-74.933 123.677-127.27 216.162-135.007C273.958 131.078 280 144.83 280 160c0 30.928-25.072 56-56 56s-56-25.072-56-56l.001-.042C157.794 179.043 152 200.844 152 224c0 75.111 60.889 136 136 136s136-60.889 136-136c0-31.031-10.4-59.629-27.895-82.515C451.704 164.638 498.009 205.106 528 256c-47.908 81.299-137.444 136-240 136z"/></symbol><symbol viewBox="0 0 512 512" id="feedback" xmlns="http://www.w3.org/2000/svg"><path d="M111 238h290c11.046 0 20-8.954 20-20s-8.954-20-20-20H111c-11.046 0-20 8.954-20 20s8.954 20 20 20zm0-92h290c11.046 0 20-8.954 20-20s-8.954-20-20-20H111c-11.046 0-20 8.954-20 20s8.954 20 20 20zm0 184h290c11.046 0 20-8.954 20-20s-8.954-20-20-20H111c-11.046 0-20 8.954-20 20s8.954 20 20 20z"/><path d="M492 0H20C8.954 0 0 8.954 0 20v396c0 11.046 8.954 20 20 20h176.977l42.114 66.68a20 20 0 0 0 33.82 0L315.023 436H492c11.046 0 20-8.954 20-20V20c0-11.046-8.954-20-20-20zm-20 396H304a20.004 20.004 0 0 0-16.91 9.32L256 454.546l-31.09-49.226A20 20 0 0 0 208 396H40V40h432v356z"/></symbol><symbol viewBox="0 0 30.7 30.7" id="flower" xmlns="http://www.w3.org/2000/svg"><path d="M15.147 13.5c-.5 0-1.1.1-1.6.5-.4.4-.7.9-.7 1.5s.3 1 .7 1.4c.8.8 2.1 1 3 0 .4-.4.7-.8.7-1.5 0-.5-.1-1.1-.7-1.5-.4-.2-.9-.4-1.4-.4m0 5.4c-1 0-1.9-.4-2.4-1-.7-.6-1.1-1.5-1.1-2.4s.4-1.6 1.1-2.4c.6-.7 1.6-1 2.4-1 .9 0 1.7.4 2.4.9.7.7 1.1 1.5 1.1 2.4 0 1.1-.4 1.9-1.1 2.4-.7.9-1.5 1.1-2.4 1.1m-7.2 2.6c.3 0 .4.1.5.3.1.3.1.5 0 .8l-.8 1.2-.1.4c-.4 1.1-.3 2 .3 3.1.3.3.5.7.8 1.1.4.3.8.5 1.6.8 1.1.1 2.2.1 3.1-.4.9-.5 1.6-1.3 2-2.4v-.1c0-.3.3-.4.5-.5.3-.1.5 0 .7.1.8.8 1.5 1.3 2 1.5.8.3 1.3.1 1.9-.3.5-.4.9-.9 1.2-1.6.1-.8.1-1.6 0-2.5 0-.3 0-.5.3-.7.3-.1.5-.1.8 0 .4.3.7.4 1.2.5 1.3.4 2.3.3 3.2-.1.9-.5 1.6-1.3 2-2.5.3-1.1.1-2.1-.4-3.1v-.3c-.3-.5-.5-.8-.9-1.1-.4-.3-.8-.4-1.2-.7-.3-.1-.5-.3-.5-.6s.2-.5.5-.7c1.2-.5 2-1.3 2.3-2.3.3-.7.1-1.2-.1-1.9 0 0 0-.1-.1-.1-.4-.7-.9-1.1-1.7-1.2-.4-.1-1.1-.1-1.7 0l-1.3.3c-.3 0-.5 0-.7-.3-.1-.1-.1-.4-.1-.7l.1-1c.4-1.1.3-2.1-.4-3.2l-.1-.1c-.5-.9-1.3-1.5-2.4-1.7-1.2-.3-2.1-.2-3.2.4-1.1.5-1.7 1.3-2 2.4v.4c0 .3-.3.5-.5.5s-.6-.1-.7-.4l-.5-1.1c-.6-.8-1.2-1.3-2.2-1.6-.9-.1-1.6-.1-2.3.3s-1.1 1.1-1.2 2c-.1 1.1 0 2 .5 3.1l.4.4c.1.1.1.5 0 .8-.2.1-.4.2-.8.1l-.9-.3c-1-.2-2.2-.1-3.3.4-.9.5-1.6 1.3-2.1 2.4-.4.9-.4 1.9.1 2.7.2.3.4.7.8.9.4.4.9.7 1.6.8l.4.2c.3.1.4.3.4.5s0 .5-.3.7l-.7.5c-.4.4-.8.8-.9 1.5-.1.5-.1 1 .3 1.6.2.2.3.4.6.5.4.3.6.4.9.4 1.1.3 1.9.1 2.7-.1h.4zm3.7 9.2c-.5 0-1.1-.1-1.7-.3-.9-.3-1.6-.7-2.1-1.1-.5-.5-.8-.9-1.1-1.3-.8-1.5-.9-2.8-.4-4.3l.3-.7c-.5 0-1.2 0-1.7-.1-.6 0-1.2-.2-1.7-.6-.4-.3-.7-.7-.9-1-.5-.9-.7-1.9-.4-2.8.2-.6.5-1.3 1-1.7-.5-.1-.9-.4-1.3-.8s-.8-.8-1.1-1.2c-.6-1.2-.8-2.5-.2-3.9.5-1.3 1.5-2.4 2.8-3.1 1.2-.6 2.4-.7 3.6-.6-.3-1.1-.3-2-.1-3.1.3-1.3.9-2.4 1.9-2.9 1.1-.5 1.9-.5 3.1-.4 1.2.3 2.1.9 2.8 2 .5-.9 1.3-1.7 2.3-2.1 1.3-.7 2.7-.8 4.1-.5 1.5.4 2.5 1.1 3.2 2.3l.1.1c.8 1.3.9 2.8.5 4.3h.1c.9-.1 1.6 0 2.3.1 1.2.4 2.1.9 2.7 2 0 .1.1.1.1.3.3.8.5 1.6.1 2.7-.4.9-.9 1.7-1.9 2.4.1.1.3.1.4.3.5.4.9.9 1.3 1.5l.3.4c.7 1.3.8 2.7.4 4.1-.4 1.5-1.3 2.7-2.7 3.3-1.3.7-2.7.8-4.3.3-.1 0-.3 0-.4-.1 0 .7 0 1.2-.1 1.9-.3 1.1-.9 1.9-1.7 2.4-.8.4-1.9.6-2.9.3-.7-.1-1.2-.5-1.9-1.1-.5 1.1-1.3 1.9-2.4 2.5-.7.2-1.6.5-2.4.5"/><path d="M7.947 22.8c-.3 0-.4-.1-.5-.3-.3-.3-.1-.7.1-.9l5.7-4.3c.3-.3.7-.1.9.1.3.3.1.7-.1.9l-5.7 4.3c-.2.2-.3.2-.4.2m8.2 4.3c-.4 0-.7-.3-.7-.5l-.8-7.7c0-.4.3-.7.5-.7.4 0 .7.3.7.5l.8 7.7c.2.4-.1.7-.5.7m-11.7-10c-.4 0-.7-.3-.7-.7s.3-.7.7-.7l7.6-.7c.4 0 .7.3.7.7 0 .4-.3.7-.7.7l-7.6.7zm9.2-3.2c-.1 0-.3 0-.4-.1l-5.5-5.1c-.3-.1-.4-.7-.1-.9.3-.3.7-.3.9 0l5.5 4.9c.3.3.3.7 0 .9 0 .3-.3.3-.4.3"/><path d="M14.447 13.3c-.4 0-.7-.3-.7-.7V4.1c0-.4.3-.7.7-.7s.7.3.7.7v8.5c0 .5-.3.7-.7.7m2.8.6c-.1 0-.4-.2-.5-.3-.3-.3-.3-.7.1-.9l6.3-5.3c.3-.3.7-.3.9.1.3.3.3.7-.1.9l-6.3 5.3c0 .2-.1.2-.4.2m.899 2.1c-.4 0-.6-.3-.6-.5 0-.4.3-.7.5-.8l8.4-.9c.4 0 .7.3.8.5 0 .4-.3.7-.5.8l-8.6.9c.2 0 .2 0 0 0m4.601 7.7c-.1 0-.4 0-.5-.1l-5.5-5.3c-.3-.3-.3-.7 0-.9s.7-.3.9 0l5.5 5.3c.3.3.3.7 0 .9 0 0-.2.1-.4.1"/></symbol><symbol viewBox="0 0 45 33" id="folder" xmlns="http://www.w3.org/2000/svg"><path d="M43.1 31.2H1.8V7.3h41.4v23.9zM1.8 1.8h17l1.7 3.7H1.8V1.8zm41.5 3.7H22.5L20.4 1c-.3-.6-.9-1-1.5-1H1.7C.7 0 0 .7 0 1.7v29.7c0 .9.7 1.6 1.7 1.6h41.6c.9 0 1.7-.7 1.7-1.7V7.2c0-.9-.8-1.7-1.7-1.7"/></symbol><symbol class="basvg-inline--fa bafa-google bafa-w-16" viewBox="0 0 488 512" id="google" xmlns="http://www.w3.org/2000/svg"><path d="M488 261.8C488 403.3 391.1 504 248 504 110.8 504 0 393.2 0 256S110.8 8 248 8c66.8 0 123 24.5 166.3 64.9l-67.5 64.9C258.5 52.6 94.3 116.6 94.3 256c0 86.5 69.1 156.6 153.7 156.6 98.2 0 135-70.4 140.8-106.9H248v-85.3h236.1c2.3 12.7 3.9 24.9 3.9 41.4z"/></symbol><symbol class="bbsvg-inline--fa bbfa-info-circle bbfa-w-16" viewBox="0 0 512 512" id="info-circle" xmlns="http://www.w3.org/2000/svg"><path d="M256 8C119.043 8 8 119.083 8 256c0 136.997 111.043 248 248 248s248-111.003 248-248C504 119.083 392.957 8 256 8zm0 110c23.196 0 42 18.804 42 42s-18.804 42-42 42-42-18.804-42-42 18.804-42 42-42zm56 254c0 6.627-5.373 12-12 12h-88c-6.627 0-12-5.373-12-12v-24c0-6.627 5.373-12 12-12h12v-64h-12c-6.627 0-12-5.373-12-12v-24c0-6.627 5.373-12 12-12h64c6.627 0 12 5.373 12 12v100h12c6.627 0 12 5.373 12 12v24z"/></symbol><symbol viewBox="0 0 512 512" id="logout" xmlns="http://www.w3.org/2000/svg"><path d="M360.233 121.189c11.046 0 20-8.954 20-20V49.378C380.233 22.151 357.837 0 330.31 0H90.923C63.396 0 41 22.151 41 49.378v413.244C41 489.849 63.396 512 90.923 512H330.31c27.527 0 49.923-22.151 49.923-49.378v-51.811c0-11.045-8.955-19.999-20-19.999-11.046 0-20 8.954-20 20v51.811c0 5.171-4.451 9.378-9.923 9.378H90.923c-5.472 0-9.923-4.207-9.923-9.378V49.378C81 44.207 85.451 40 90.923 40H330.31c5.472 0 9.923 4.207 9.923 9.378v51.811c0 11.046 8.954 20 20 20z"/><path d="M464.963 241.682L358.521 137.881c-7.908-7.713-20.571-7.554-28.281.355-7.712 7.907-7.553 20.57.355 28.281L401.845 236H210.616c-11.046 0-20 8.954-20 20s8.954 20 20 20h191.229l-71.25 69.482c-7.908 7.711-8.067 20.374-.355 28.281 7.709 7.907 20.373 8.07 28.281.355l106.442-103.801c8.098-7.881 8-20.848 0-28.635z"/></symbol><symbol viewBox="0 0 24 24" id="menu" xmlns="http://www.w3.org/2000/svg"><path d="M24 3c0-.6-.4-1-1-1H1c-.6 0-1 .4-1 1v2c0 .6.4 1 1 1h22c.6 0 1-.4 1-1V3zm0 8c0-.6-.4-1-1-1H1c-.6 0-1 .4-1 1v2c0 .6.4 1 1 1h22c.6 0 1-.4 1-1v-2zm0 8c0-.6-.4-1-1-1H1c-.6 0-1 .4-1 1v2c0 .6.4 1 1 1h22c.6 0 1-.4 1-1v-2z"/></symbol><symbol viewBox="0 0 45.5 43.8" id="message" xmlns="http://www.w3.org/2000/svg"><path d="M22.774 37.545c-3.5 0-6.9-.7-10-2.1-.4-.2-.8-.1-1.1.2l-4.4 5.3-4.7-16.1c-.6-1.6-.9-3.4-.9-5.1 0-9.9 9.4-17.9 20.9-17.9 11.5 0 20.9 8 20.9 17.9.2 9.8-9.2 17.8-20.7 17.8m0-37.5c-12.6 0-22.8 8.8-22.8 19.7 0 1.9.3 3.8 1 5.7l5.1 17.7c.1.3.4.6.7.6h.2c.3 0 .5-.1.7-.3l5-6.1c3.1 1.3 6.6 2 10.1 2 12.6 0 22.8-8.8 22.8-19.7s-10.3-19.6-22.8-19.6"/><path d="M22.73 21.117c-.8 0-1.5-.7-1.5-1.5s.7-1.5 1.5-1.5 1.5.7 1.5 1.5-.7 1.5-1.5 1.5m0-4.8c-1.8 0-3.3 1.5-3.3 3.3s1.5 3.3 3.3 3.3c1.8 0 3.3-1.5 3.3-3.3s-1.5-3.3-3.3-3.3m7.992 4.8c-.8 0-1.5-.7-1.5-1.5s.7-1.5 1.5-1.5 1.5.7 1.5 1.5-.7 1.5-1.5 1.5m0-4.8c-1.8 0-3.3 1.5-3.3 3.3s1.5 3.3 3.3 3.3c1.8 0 3.3-1.5 3.3-3.3s-1.5-3.3-3.3-3.3m-15.897 4.8c-.8 0-1.5-.7-1.5-1.5s.7-1.5 1.5-1.5 1.5.7 1.5 1.5-.7 1.5-1.5 1.5m0-4.8c-1.8 0-3.3 1.5-3.3 3.3s1.5 3.3 3.3 3.3 3.3-1.5 3.3-3.3-1.5-3.3-3.3-3.3"/></symbol><symbol viewBox="0 0 512 512" id="money-paper" xmlns="http://www.w3.org/2000/svg"><path d="M0 432h448V144H0v288zm32-192c35.344 0 64-28.656 64-64h256c0 35.344 28.656 64 64 64v96c-35.344 0-64 28.656-64 64H96c0-35.344-28.656-64-64-64v-96zm112 48c0-44.188 35.813-80 80-80 44.188 0 80 35.813 80 80 0 44.188-35.812 80-80 80-44.187 0-80-35.812-80-80zM512 80v320h-32V112H32V80h480z"/></symbol><symbol class="bgsvg-inline--fa bgfa-paper-plane bgfa-w-16" viewBox="0 0 512 512" id="paper-plane" xmlns="http://www.w3.org/2000/svg"><path d="M440 6.5L24 246.4c-34.4 19.9-31.1 70.8 5.7 85.9L144 379.6V464c0 46.4 59.2 65.5 86.6 28.6l43.8-59.1 111.9 46.2c5.9 2.4 12.1 3.6 18.3 3.6 8.2 0 16.3-2.1 23.6-6.2 12.8-7.2 21.6-20 23.9-34.5l59.4-387.2c6.1-40.1-36.9-68.8-71.5-48.9zM192 464v-64.6l36.6 15.1L192 464zm212.6-28.7l-153.8-63.5L391 169.5c10.7-15.5-9.5-33.5-23.7-21.2L155.8 332.6 48 288 464 48l-59.4 387.3z"/></symbol><symbol viewBox="0 0 45.1 44.1" id="peoples" xmlns="http://www.w3.org/2000/svg"><path stroke-miterlimit="10" d="M43.3 30.5c0 .3-.2.5-.5.5h-15l-2.6-1.5c-.6-.3-1-1-1-1.7v-.4c0-.6.3-1.2.8-1.6 2.9-2.1 4.6-5.4 4.6-9v-6.2c0-3.1-1.4-5.6-4-7.2.7-.6 1.6-1.1 2.7-1.4 1.5-.4 3-.4 4.4 0 2.3.6 4.8 2 4.8 5.2v4.7c0 2.2-1.1 4.3-2.9 5.5-.8.6-1.3 1.5-1.3 2.5v.3c0 1.1.6 2.1 1.5 2.6l7.9 4.6c.4.2.6.6.6 1.1v2zm-7.6 8.4v3c0 .3-.2.5-.5.5H2.3c-.3 0-.5-.2-.5-.5v-3.1c0-.7.4-1.3 1-1.7l10.3-5.9c1.2-.7 1.9-1.9 1.9-3.3v-.4c0-1.2-.6-2.4-1.6-3.1-2.4-1.7-3.9-4.5-3.9-7.5v-6.2c0-4.4 3.4-6.2 6.2-7 1-.3 2-.4 3-.4s2 .1 3 .4c2.3.6 6.2 2.3 6.2 7v6.2c0 3-1.4 5.8-3.9 7.5-1 .7-1.6 1.9-1.6 3.1v.4c0 1.3.7 2.6 1.9 3.2l10.4 6.1c.6.3 1 1 1 1.7M43.6 26l-7.9-4.6c-.4-.2-.6-.6-.6-1.1V20c0-.4.2-.8.5-1 2.3-1.6 3.7-4.2 3.7-7V7.2c0-3.4-2.2-5.9-5.9-6.8-1.8-.5-3.6-.5-5.3 0-1.7.4-2.9 1.2-4 2.2-.6-.2-1.2-.5-1.9-.6-1.1-.3-2.3-.4-3.4-.4s-2.3.1-3.4.4c-4.8 1.2-7.6 4.4-7.6 8.7v6.2c0 3.6 1.7 6.9 4.6 9 .5.4.8 1 .8 1.6v.4c0 .7-.4 1.3-1 1.7L1.9 35.4c-1.2.7-1.9 2-1.9 3.3v3.1c0 1.3 1 2.3 2.3 2.3h32.9c1.3 0 2.3-1 2.3-2.3v-3c0-1.3-.7-2.6-1.9-3.3l-4.7-2.8h11.9c1.3 0 2.3-1 2.3-2.3v-1.9c.1-1-.5-2-1.5-2.5"/></symbol><symbol viewBox="0 0 20 20" id="phone" xmlns="http://www.w3.org/2000/svg"><path d="M19.91 15.946l-.105-.303c-.233-.704-.998-1.431-1.711-1.629l-2.63-.715c-.712-.195-1.73.067-2.248.591l-.959.948a10.085 10.085 0 0 1-7.09-7.097l.947-.952c.517-.52.778-1.536.59-2.252l-.72-2.624C5.792 1.199 5.058.429 4.364.188l-.3-.095c-.698-.24-1.709.003-2.22.525L.41 2.04c-.246.254-.409.972-.409.976A16.763 16.763 0 0 0 4.92 15.08 16.79 16.79 0 0 0 16.937 20c.028 0 .77-.163 1.028-.414l1.42-1.423c.525-.52.757-1.52.525-2.216z"/></symbol><symbol viewBox="0 0 15.32 10.833" id="select" xmlns="http://www.w3.org/2000/svg"><path data-name="Path 63" d="M15.049.272a.927.927 0 0 0-1.311 0L5.417 8.594 1.584 4.761A.927.927 0 1 0 .273 6.072l4.484 4.489a.927.927 0 0 0 1.311 0l8.977-8.978a.927.927 0 0 0 .004-1.311z"/></symbol><symbol viewBox="0 0 45.3 45.3" id="settings" xmlns="http://www.w3.org/2000/svg"><path stroke-miterlimit="10" d="M22.8 31.1c-4.5 0-8.1-3.7-8.1-8.1 0-4.5 3.7-8.1 8.1-8.1s8.1 3.7 8.1 8.1c0 4.4-3.6 8.1-8.1 8.1m0-18.1c-5.5 0-10 4.5-10 10s4.5 10 10 10 10-4.5 10-10-4.5-10-10-10"/><path stroke-miterlimit="10" d="M43.4 26.1c0 .7-.6 1.2-1.2 1.2h-.9c-1.3 0-2.3.7-2.8 1.9s-.2 2.4.7 3.3l.7.7c.5.5.5 1.3 0 1.8l-5 5c-.2.2-.5.4-.9.4s-.6-.1-.9-.4l-.5-.5c-.6-.6-1.3-.9-2.2-.9-1.7 0-3.1 1.4-3.1 3.1v.5c0 .7-.6 1.2-1.2 1.2h-7c-.7 0-1.2-.6-1.2-1.2v-.7c0-1.7-1.4-3.1-3.1-3.1-.8 0-1.6.3-2.2.9l-.5.5c-.2.2-.5.4-.9.4s-.6-.1-.9-.4l-5-5c-.2-.2-.4-.5-.4-.9 0-.3.1-.6.4-.9l.5-.5c.9-.9 1.1-2.2.7-3.3-.5-1.2-1.6-1.9-2.8-1.9h-.6c-.7 0-1.2-.6-1.2-1.2v-7c0-.7.6-1.2 1.2-1.2h.5c1.3 0 2.3-.7 2.8-1.9s.2-2.4-.7-3.3l-.3-.3c-.2-.2-.4-.5-.4-.9 0-.3.1-.6.4-.9l5-5c.2-.2.5-.4.9-.4s.6.1.9.4l.5.5c.5.6 1.3.9 2.1.9 1.7 0 3.1-1.4 3.1-3.1v-.8c0-.7.6-1.2 1.2-1.2h7c.7 0 1.2.6 1.2 1.2v.7c0 .9.3 1.7 1 2.2.6.5 1.3.8 2.1.8s1.6-.3 2.2-.9l.5-.5c.2-.2.5-.4.9-.4s.6.1.9.4l5 5c.5.5.5 1.3 0 1.8l-.5.5c-.9.9-1.1 2.2-.7 3.3.5 1.2 1.6 1.9 2.8 1.9h.7c.7 0 1.2.6 1.2 1.2v7zm-1.2-10h-.7c-.8 0-1.1-.6-1.1-.8-.1-.2-.3-.8.3-1.4l.5-.5c1.2-1.2 1.2-3.1 0-4.3l-5-5c-.6-.6-1.3-.9-2.2-.9-.8 0-1.6.3-2.2.9l-.5.5c-.3.3-.6.4-.8.4-.3 0-.6-.1-.9-.3-.2-.2-.4-.4-.4-.9v-.7c0-1.7-1.4-3.1-3.1-3.1h-7C17.4 0 16 1.4 16 3.1V4c0 .8-.6 1.2-1.3 1.2-.2 0-.6-.1-.9-.4l-.5-.5c-.6-.6-1.3-.9-2.2-.9-.8 0-1.6.3-2.2.9l-5 5c-.6.6-.9 1.3-.9 2.2 0 .8.3 1.6.9 2.2l.3.3c.5.5.3 1.2.3 1.4-.1.2-.4.8-1.1.8h-.3c-1.7 0-3.1 1.4-3.1 3.1v7c0 1.7 1.4 3.1 3.1 3.1h.7c.8 0 1.1.6 1.1.8s.3.8-.3 1.4l-.5.5c-.6.6-.9 1.3-.9 2.2 0 .8.3 1.6.9 2.2l5 5c.6.6 1.3.9 2.2.9.8 0 1.6-.3 2.2-.9l.5-.5c.3-.3.6-.4.9-.4.6 0 1.3.5 1.3 1.2v.7c0 1.7 1.4 3.1 3.1 3.1h7c1.7 0 3.1-1.4 3.1-3.1V42c0-.8.6-1.2 1.3-1.2.2 0 .6.1.9.4l.5.5c.6.6 1.3.9 2.2.9.8 0 1.6-.3 2.2-.9l5-5c1.2-1.2 1.2-3.1 0-4.3l-.7-.7c-.5-.5-.3-1.2-.3-1.4.1-.2.4-.8 1.1-.8h.9c1.7 0 3.1-1.4 3.1-3.1v-7c-.3-2-1.7-3.3-3.4-3.3"/></symbol><symbol viewBox="0 0 648.5 653.9" id="skype" xmlns="http://www.w3.org/2000/svg"><path d="M185.906 26.66c-42.5 0-82.5 16.6-112.6 46.6-30.1 30.1-46.6 70-46.6 112.6 0 26.7 6.7 53.1 19.5 76.4l4.4 8-1.4 9c-2.3 14.4-3.4 29.1-3.4 43.7 0 37.3 7.3 73.4 21.7 107.4 13.9 32.8 33.8 62.4 59.1 87.7 25.3 25.3 54.9 45.2 87.7 59.1 34 14.4 70.1 21.7 107.4 21.7 11.7 0 23.5-.7 35.1-2.2l9.8-1.2 8.3 5.5c26.1 17.3 56.5 26.5 87.9 26.5 42.5 0 82.5-16.6 112.6-46.6 30.1-30.1 46.6-70.1 46.6-112.6 0-29.8-8.3-58.9-24-84.1l-5.3-8.4 1.5-9.8c2.2-14.1 3.3-28.5 3.3-42.9 0-37.3-7.3-73.4-21.7-107.4-13.9-32.8-33.8-62.4-59.1-87.7-25.3-25.3-54.9-45.2-87.7-59.1-34-14.4-70.1-21.7-107.4-21.7-13.7 0-27.5 1-41 3l-9 1.3-8-4.5c-23.7-13.3-50.5-20.3-77.7-20.3m0-26.7c33 0 63.9 8.6 90.8 23.7 14.7-2.2 29.7-3.3 44.9-3.3 167.1 0 302.6 135.5 302.6 302.6 0 16-1.2 31.7-3.6 47 17.8 28.5 28.1 62.1 28.1 98.2 0 102.7-83.2 185.9-185.9 185.9-37.9 0-73.2-11.4-102.6-30.9-12.6 1.6-25.4 2.4-38.5 2.4-167.3-.1-302.7-135.6-302.7-302.7 0-16.3 1.3-32.3 3.8-47.8-14.5-26.5-22.8-56.9-22.8-89.2 0-102.6 83.2-185.9 185.9-185.9"/><path d="M305.072 279.71l63.1 14.2c57.7 13.2 86.5 44.9 86.5 95.1 0 31.2-11.3 56.1-34 74.4-23.9 19.9-57.8 29.9-101.9 29.9-43.7 0-78.6-9.5-104.6-28.5-22.3-15.9-33.4-34.3-33.4-55.1 0-9.2 3-16.7 8.9-22.5 6-5.8 13.5-8.7 22.7-8.7 10.7 0 20.3 5.2 28.9 15.6 13.7 16.9 22.1 26.4 25.2 28.5 13.1 10.4 30.5 15.6 52.2 15.6 18.6 0 33.6-4.6 44.9-13.8 10.4-8.3 15.6-18.2 15.6-29.9 0-17.5-10.7-28.9-32.2-34.5l-85.2-21.5c-54-13.8-81-44-81-90.5 0-34 14-60 41.9-78.1 23.9-15.3 54-23 90.2-23 31.3 0 60.1 7.4 86.5 22.1 27.9 15.6 41.9 34 41.9 55.1 0 9.2-3.4 16.5-10.1 21.8-6.8 5.4-14.9 8-24.4 8-9.2 0-17.8-4.3-25.8-12.9-12.3-13.2-20.3-21-23.9-23.4-12.6-8.6-29-12.9-49.3-12.9-17.2 0-30.5 3.6-40.1 10.8-9.5 7.2-14.3 16.6-14.3 28.3.1 16.3 17.3 28.2 51.7 35.9"/></symbol><symbol viewBox="0 0 30.6 30.5" id="statistic" xmlns="http://www.w3.org/2000/svg"><path d="M11.4 0H2.2C1 0 0 1 0 2.2v9.2c0 1.2 1 2.2 2.2 2.2h9.2c1.2 0 2.2-1 2.2-2.2V2.2C13.5 1 12.5 0 11.4 0m.7 11.4c0 .4-.4.8-.8.8H2.2c-.4 0-.8-.4-.8-.8V2.2c0-.4.4-.8.8-.8h9.2c.4 0 .8.4.8.8v9.2zm-.7 5.5H2.2c-1.2 0-2.2 1-2.2 2.2v9.2c0 1.2 1 2.2 2.2 2.2h9.2c1.2 0 2.2-1 2.2-2.2v-9.2c-.1-1.2-1.1-2.2-2.2-2.2m.7 11.4c0 .4-.4.8-.8.8H2.2c-.4 0-.8-.4-.8-.8v-9.2c0-.4.4-.8.8-.8h9.2c.4 0 .8.4.8.8v9.2zM28.4 0h-9.2C18 0 17 1 17 2.2v9.2c0 1.2 1 2.2 2.2 2.2h9.2c1.2 0 2.2-1 2.2-2.2V2.2c0-1.2-1-2.2-2.2-2.2m.8 11.4c0 .4-.4.8-.8.8h-9.2c-.4 0-.8-.4-.8-.8V2.2c0-.4.4-.8.8-.8h9.2c.4 0 .8.4.8.8v9.2zm-.8 5.5h-9.2c-1.2 0-2.2 1-2.2 2.2v9.2c0 1.2 1 2.2 2.2 2.2h9.2c1.2 0 2.2-1 2.2-2.2v-9.2c0-1.2-1-2.2-2.2-2.2m.8 11.4c0 .4-.4.8-.8.8h-9.2c-.4 0-.8-.4-.8-.8v-9.2c0-.4.4-.8.8-.8h9.2c.4 0 .8.4.8.8v9.2z"/></symbol><symbol viewBox="0 0 50.7 34.6" id="stock-exchange" xmlns="http://www.w3.org/2000/svg"><path d="M46.1 16.4c0 .1-.1.1 0 0-.1.1-.1.1-.1 0L34.2 4.7v-.1h.1l14.5-2.8h.1v.1l-2.8 14.5zM50.3.7c-.4-.4-.9-.7-1.5-.7h-.4L33.9 2.8c-.7.1-1.2.6-1.5 1.3-.2.7 0 1.4.5 1.9l5.4 5.4-15.1 15.1-7.6-7.6c-.1-.1-.2-.2-.3-.2-.3-.1-.7-.1-1 .2L.3 33c-.4.4-.4.9 0 1.3.2.2.4.3.6.3.2 0 .5-.1.6-.3L15 20.9l7.6 7.6c.2.2.4.3.6.3s.5-.1.6-.3l15.8-15.8 5.1 5.1c.4.4.8.6 1.3.6.9 0 1.7-.6 1.9-1.5l2.8-14.5c.1-.7-.1-1.3-.4-1.7"/></symbol><symbol viewBox="0 0 26 22" id="telegram" xmlns="http://www.w3.org/2000/svg"><path fill-rule="evenodd" clip-rule="evenodd" d="M6.45 12.722L.46 10.549a.68.68 0 0 1-.008-1.284L25.04.047c.521-.196 1.06.248.946.78l-4.413 20.626c-.104.487-.691.708-1.106.415l-6.023-4.25a1.02 1.02 0 0 0-1.214.033l-3.34 2.646c-.388.308-.972.137-1.12-.328l-2.32-7.247zm13.654-8.165L8.395 11.565c-.448.27-.66.796-.515 1.29l1.266 4.322c.09.306.548.275.591-.042l.33-2.37a1.93 1.93 0 0 1 .62-1.165l9.663-8.73c.18-.162-.036-.439-.246-.313z"/></symbol><symbol viewBox="0 0 438.529 438.529" id="trash" xmlns="http://www.w3.org/2000/svg"><path d="M417.689 75.654c-1.711-1.709-3.901-2.568-6.563-2.568h-88.224L302.917 25.41c-2.854-7.044-7.994-13.04-15.413-17.989C280.078 2.473 272.556 0 264.945 0h-91.363c-7.611 0-15.131 2.473-22.554 7.421-7.424 4.949-12.563 10.944-15.419 17.989l-19.985 47.676h-88.22c-2.667 0-4.853.859-6.567 2.568-1.709 1.713-2.568 3.903-2.568 6.567v18.274c0 2.664.855 4.854 2.568 6.564 1.714 1.712 3.904 2.568 6.567 2.568H54.81v271.8c0 15.803 4.473 29.266 13.418 40.398 8.947 11.139 19.701 16.703 32.264 16.703h237.542c12.566 0 23.319-5.756 32.265-17.268 8.945-11.52 13.415-25.174 13.415-40.971V109.627h27.411c2.662 0 4.853-.856 6.563-2.568 1.708-1.709 2.57-3.9 2.57-6.564V82.221c.002-2.664-.861-4.854-2.569-6.567zM169.301 39.678c1.331-1.712 2.95-2.762 4.853-3.14h90.504c1.903.381 3.525 1.43 4.854 3.14l13.709 33.404h-127.91l13.99-33.404zm177.872 340.613c0 4.186-.664 8.042-1.999 11.561-1.334 3.518-2.717 6.088-4.141 7.706-1.431 1.622-2.423 2.427-2.998 2.427H100.493c-.571 0-1.565-.805-2.996-2.427-1.429-1.618-2.81-4.188-4.143-7.706-1.331-3.519-1.997-7.379-1.997-11.561V109.627h255.815v270.664z"/><path d="M137.04 347.172h18.271c2.667 0 4.858-.855 6.567-2.567 1.709-1.718 2.568-3.901 2.568-6.57V173.581c0-2.663-.859-4.853-2.568-6.567-1.714-1.709-3.899-2.565-6.567-2.565H137.04c-2.667 0-4.854.855-6.567 2.565-1.711 1.714-2.568 3.904-2.568 6.567v164.454c0 2.669.854 4.853 2.568 6.57 1.713 1.711 3.9 2.567 6.567 2.567zm73.089 0H228.4c2.666 0 4.856-.855 6.564-2.567 1.718-1.718 2.569-3.901 2.569-6.57V173.581c0-2.663-.852-4.853-2.569-6.567-1.708-1.709-3.898-2.565-6.564-2.565h-18.271c-2.664 0-4.854.855-6.567 2.565-1.714 1.714-2.568 3.904-2.568 6.567v164.454c0 2.669.854 4.853 2.568 6.57 1.712 1.711 3.903 2.567 6.567 2.567zm73.091 0h18.268c2.669 0 4.859-.855 6.57-2.567 1.711-1.718 2.562-3.901 2.562-6.57V173.581c0-2.663-.852-4.853-2.562-6.567-1.711-1.709-3.901-2.565-6.57-2.565H283.22c-2.67 0-4.853.855-6.571 2.565-1.711 1.714-2.566 3.904-2.566 6.567v164.454c0 2.669.855 4.853 2.566 6.57 1.718 1.711 3.901 2.567 6.571 2.567z"/></symbol><symbol viewBox="0 0 485.001 485.002" id="two-cogs" xmlns="http://www.w3.org/2000/svg"><path d="M49.183 399.806l-17.668 17.668 37.274 37.273 17.668-17.668a143.535 143.535 0 0 0 55.375 22.931v24.992h52.714V460.01a143.489 143.489 0 0 0 55.372-22.931l17.667 17.668 37.274-37.273-17.668-17.668a143.572 143.572 0 0 0 22.931-55.374h24.993v-52.716h-24.993a143.567 143.567 0 0 0-22.931-55.374l17.668-17.667-37.275-37.274-17.667 17.667a143.55 143.55 0 0 0-55.372-22.931v-24.993h-52.714v24.993a143.58 143.58 0 0 0-55.375 22.931l-17.667-17.667-37.274 37.276 17.668 17.667a143.546 143.546 0 0 0-22.93 55.374H1.259v52.716h24.992a143.61 143.61 0 0 0 22.932 55.372zm119.005-188.328c58.873 0 106.597 47.725 106.597 106.599 0 58.873-47.724 106.598-106.597 106.598-58.874 0-106.598-47.725-106.598-106.598-.004-58.874 47.724-106.599 106.598-106.599zM467.533 94.713l15.719-6.702-16.591-38.896-15.717 6.705a97.29 97.29 0 0 0-24.704-24.197l6.376-15.85L393.384 0l-6.375 15.85a98.299 98.299 0 0 0-34.576.363L345.729.494 306.833 17.08l6.705 15.719a97.156 97.156 0 0 0-24.198 24.702l-15.851-6.375-15.774 39.233 15.851 6.373a97.304 97.304 0 0 0 .365 34.578l-15.717 6.702 16.587 38.896 15.716-6.704a97.333 97.333 0 0 0 24.702 24.197l-6.373 15.85 39.231 15.773 6.372-15.85a98.406 98.406 0 0 0 34.578-.363l6.705 15.718 38.896-16.586-6.706-15.718a97.234 97.234 0 0 0 24.197-24.702l15.851 6.375 15.772-39.233-15.849-6.373a97.286 97.286 0 0 0-.36-34.579zm-70.899 79.036c-8.263 3.525-16.968 5.312-25.871 5.312a65.98 65.98 0 0 1-60.771-40.146c-14.281-33.491 1.344-72.357 34.836-86.639 8.263-3.525 16.965-5.312 25.868-5.312a65.976 65.976 0 0 1 60.771 40.145c14.282 33.49-1.343 72.358-34.833 86.64z"/></symbol><symbol viewBox="0 0 46.3 46.3" id="user" xmlns="http://www.w3.org/2000/svg"><path d="M21.1 44.4c-.2 0-.4-.1-.7-.1-.4-.1-.9-.1-1.3-.2-.3-.1-.5-.1-.8-.2l-1.2-.3c-.3-.1-.5-.2-.8-.3-.4-.1-.7-.2-1.1-.4-.3-.1-.5-.2-.8-.4-.3-.1-.7-.3-1-.5-.3-.1-.5-.3-.8-.4-.3-.2-.6-.3-.9-.5-.3-.2-.5-.3-.8-.5L10 40c-.2-.2-.5-.4-.7-.6-.2-.2-.5-.4-.7-.6v-1.3c0-.5.3-1.1.8-1.3l8.9-5.1c1-.6 1.7-1.7 1.7-2.9v-.3c0-1.1-.5-2.1-1.4-2.7-2.1-1.5-3.3-3.8-3.3-6.4v-5.3c0-3.7 2.9-5.2 5.3-5.9 1.7-.4 3.4-.4 5.1 0 2.4.6 5.3 2.1 5.3 5.9v5.3c0 2.5-1.2 4.9-3.3 6.4-.9.6-1.4 1.7-1.4 2.7v.3c0 1.2.6 2.3 1.7 2.9l8.9 5.3c.5.3.8.8.8 1.3v1.1c-.2.2-.5.4-.7.6-.2.2-.5.4-.7.6l-.9.6c-.3.2-.5.4-.8.5-.3.2-.6.4-.9.5-.3.1-.5.3-.8.4-.3.2-.7.3-1 .5-.3.1-.5.3-.8.4-.3.1-.7.2-1.1.4-.3.1-.5.2-.8.3-.4.1-.8.2-1.1.3-.3.1-.5.1-.8.2-.4.1-.9.1-1.3.2-.2 0-.5.1-.7.1-.7.1-1.3.1-2 .1-.8 0-1.5-.1-2.2-.1m2-42.6c11.8 0 21.3 9.6 21.3 21.3 0 5.2-1.8 10-5.2 13.9-.2-.9-.7-1.8-1.6-2.2l-8.9-5.3c-.5-.3-.8-.8-.8-1.3v-.3c0-.5.2-1 .7-1.3 2.5-1.8 4-4.7 4-7.8v-5.3c0-3.8-2.4-6.5-6.6-7.6-2-.5-4-.5-6 0-4.2 1.1-6.6 3.9-6.6 7.6v5.3c0 3.1 1.5 6 4.1 7.8.4.3.7.8.7 1.3v.3c0 .5-.3 1.1-.8 1.3l-8.9 5.1C7.7 35.2 7.1 36 7 37c-3.3-3.9-5.1-8.7-5.1-13.9-.1-11.7 9.5-21.3 21.2-21.3m0-1.8C10.4 0 0 10.4 0 23.1c0 6.4 2.6 12.3 7.2 16.8 4.3 4.1 10 6.4 16 6.4s11.6-2.3 16-6.4c4.6-4.4 7.2-10.4 7.2-16.8C46.3 10.4 35.9 0 23.1 0"/></symbol><symbol viewBox="0 0 297 297" id="wait" xmlns="http://www.w3.org/2000/svg"><path d="M250.929 276.619h-17.463v-31.301c0-31.668-17.379-60.777-48.936-81.967-3.924-2.635-6.363-8.324-6.363-14.852s2.439-12.215 6.365-14.852c31.555-21.188 48.934-50.297 48.936-81.965V20.381h17.461c5.627 0 10.189-4.562 10.189-10.191 0-5.629-4.562-10.19-10.189-10.19H46.071c-5.627 0-10.19 4.561-10.19 10.189 0 5.629 4.563 10.191 10.19 10.191h17.463v31.303c0 31.668 17.377 60.777 48.936 81.965 3.924 2.637 6.363 8.324 6.363 14.852 0 6.529-2.439 12.217-6.365 14.854-31.557 21.188-48.934 50.297-48.934 81.965v31.301H46.071c-5.627 0-10.19 4.563-10.19 10.191 0 5.629 4.563 10.19 10.19 10.19h204.857c5.627 0 10.189-4.56 10.189-10.19.001-5.629-4.561-10.192-10.188-10.192zM83.915 245.318c0-33.275 25.006-55.035 39.914-65.043 9.633-6.467 15.385-18.346 15.385-31.775 0-13.428-5.752-25.307-15.385-31.773-14.908-10.008-39.914-31.768-39.914-65.043V20.381h129.17l-.002 31.303c0 33.275-25.006 55.035-39.912 65.041-9.635 6.469-15.387 18.348-15.387 31.775 0 13.43 5.752 25.307 15.385 31.775 14.908 10.008 39.914 31.768 39.916 65.043v31.301H83.915v-31.301z"/></symbol></svg>