<svg version="1.1" id="Слой_1" xmlns="http://www.w3.org/2000/svg" x="0" y="0" viewBox="0 0 759.2 451.7" xml:space="preserve"><style>.st0{fill:#fbdcce}.st4{fill:#dfdfee}</style><path class="st0" d="M579.3 336.7c-2.9-.8-5.2-2.6-7.5-6.2-11.8-18.1-23.9-36.1-39.5-51.4-11.1 10.1-22 20.6-30.1 33.4-1.7 3.7-4.2 7.1-4.5 11.3 6.5 7.4 15.5 11.2 23.6 16 4.5 2.7 8.3 5.8 9.9 10.9 8.3-9.6 18.9-12.6 31.3-11.7 5.4.4 10.9.5 16.3.6.1-.9.3-1.9.5-2.9z"/><linearGradient id="SVGID_1_" gradientUnits="userSpaceOnUse" x1="0" y1="144.081" x2="284.716" y2="144.081" gradientTransform="matrix(1 0 0 -1 0 472.2)"><stop offset="0" stop-color="#31508f"/><stop offset="1" stop-color="#244164"/></linearGradient><path d="M283 450.8c-2 .1-4 .2-6 .2-68.5 0-137 .1-205.4-.1-17.1 0-33.4-3.9-48.2-12.6C4.3 427-3.2 408.9 1.2 387.2c3-14.7 9.7-27.9 15.5-41.5 19.5-45.6 39.1-91.1 58.6-136.6 1.4-3.3 3-4.9 6.6-3.2 10.6 2 20.5 6.1 30.7 9.4 4.2 1.3 6 3.8 4.4 8.2v.2c-.8 3.6-.7 7.3-1.9 10.8v.2c-1.1 4.4-1.3 9-2 13.5-1.1 13.6-4.1 26.9-6.6 40.3-2.7 14.7-4.9 29.5-7.7 44.3-.6 3.1-1.5 6.1-2 9.3-.6 3.3.4 5.2 4 5 21.1-1.1 42 3.4 63 2.1 4.1-.3 8.1-.9 12.1-1.7 11.3-2.4 21.6-7.3 31.7-12.5 8.6-4.4 17.7-7.4 27.5-7.8 3.7-.6 4.1 1.4 2.9 4.1-1.9 4.5-3.4 9-4.3 13.8-2.4 12.3-3 24.3 3.2 35.9 3.1 5.8 7.3 10.4 12.9 13.5 8.6 4.9 17.9 8 28 7.8 2.2-.1 4.8-.3 6.1 2.3 1.4 6.9.5 13.8.6 20.7.2 6.3.1 12.5 0 18.8.1 2.4.3 4.8-1.5 6.7z" fill="url(#SVGID_1_)"/><linearGradient id="SVGID_2_" gradientUnits="userSpaceOnUse" x1="139.382" y1="166.434" x2="99.871" y2="95.893" gradientTransform="matrix(1 0 0 -1 0 472.2)"><stop offset="0" stop-color="#26446c"/><stop offset="1" stop-color="#274165"/></linearGradient><path d="M175.8 347.6c-3.1 1.9-6.6 1.9-10 2.1-22.6.9-45.1-1.6-67.7-.9-2.8.1-3.9-.7-3.2-3.8 2-10 4-20.1 5.5-30.2 1.2-7.8 3.1-15.5 3.8-23.4.6-6.4 2.7-12.6 3.8-18.9 1.5-8.2 2.6-16.4 3.9-24.6 12.1-16.1 20.5-27.6 23.6-32.8.5-.9 1.9-3.4 4.5-3.9 2.8-.6 5.5 1.5 6.9 2.9 7.9 4.7 16 9.4 24.3 14 1.6.9 3.2 1.8 4.9 2.7-14.1 37.8-28.2 75.7-42.5 113.4-1.8 4.7-.2 4.8 3.5 4.8 12.8-.3 25.8 0 38.7-1.4z" fill="url(#SVGID_2_)"/><path d="M164.1 182.5c-1.5-2-2.9-4.2-2.3-6.9 2.3-10.4-1.1-20.5-1.6-30.7-.4-7.5-.9-15 .6-22.4.9-4.2 2.7-7.6 7.5-8.1 3.2-.9 5 1.3 6.8 3.2 3 3.2 5 7 6.6 11 6.3 15.8 9.4 32.5 12.4 49.1.2 1.3.2 2.6-.1 4-1.1 2.6 0 6-3.1 7.9-2.9 0-3.2-2.9-4.7-4.4-4.8-4.8-6-5-12.4-1.8-3.3 1.8-6.8 2.7-9.7-.9zM127.4 167c-1 2.6 1.3 6.1-2.3 8-2.9-.9-4.4-3.5-6.5-5.3-3.1-2.6-5.9-3-9.4-.4-2.9 2.1-5.9 5.3-10.1 2.2-3.7-2.5-4.8-5.9-4.1-10.4 1-7.3-2.4-13.9-3.6-20.9-1.5-8.8-3.5-17.6-3.2-26.6.1-5 1.6-9.1 6.6-11.3 5.1-.8 8 2.5 10.6 6 4.4 6.1 7.4 13 10.4 19.8 4.9 11.3 8.2 23.2 11.7 34.9.2 1.4.4 2.7-.1 4z" fill="#6b697f"/><path class="st0" d="M99.1 171.4c3.4.8 6.1-.6 8.7-2.6 5.2-4 7.6-3.9 12.4.6 1.8 1.7 3.3 3.7 4.9 5.5-.8 6-1.2 12-2.4 17.9-1.9 9.3-4.4 18.5-4.6 28.1 0 1-.1 2-1.1 2.6.8-4.2-1-6-5-7.2-10.1-3.2-20.1-6.9-30.1-10.4 5 1.4 6.3-1 7.4-5.6 2.2-9.3 5.2-18.3 8-27.4.1-.6 1.2-1 1.8-1.5zm65 11.1c3.2 1.5 6.2 1.7 9.4-.2 6.6-4 8.7-3.6 13.8 2.2 1.4 1.6 2.5 3.4 3.8 5.1-4.3 14-9.8 27.5-15.1 41.1l-24.6-13.8c-1.6-.9-3-1.9-4.5-2.9 5.1-3.7 5.9-10.1 9-15.1 3.1-5.3 5.5-10.9 8.2-16.4z"/><path class="st4" d="M677.1 214.4H650c-3.3 0-6.5-.5-6.7-4.3s3-5 6.2-5c18.2-.1 36.5-.1 54.7 0 3.1 0 6.4.9 6.2 5-.3 4-3.5 4.3-6.7 4.2-8.9 0-17.7.1-26.6.1zm-51.5 61.5h-27.1c-3.3 0-6.3-.5-6.3-4.6 0-3.9 3-4.5 6-4.5 18.4-.1 36.8 0 55.2 0 3 0 5.4 1.1 5.4 4.5.1 3.7-2.5 4.7-5.7 4.7-9.1-.1-18.3-.1-27.5-.1zm27.2-41h-27.1c-3.3 0-5.8-1-5.7-4.6.1-3.4 2.7-4.2 5.6-4.2h55.7c2.9 0 5.5.8 5.4 4.3-.1 3.7-2.6 4.5-5.8 4.5-9.4-.1-18.8 0-28.1 0z"/><path d="M127.4 167c-4.5-12.3-7.4-25.1-12.5-37.2-2.5-6.1-5.3-12.1-8.8-17.7-2.8-4.6-6.2-8.2-11.5-9.7 5.1-5 7.6-5.1 12.4 0 6.7 7 10.3 15.8 13.6 24.6 3.8 10.1 6.5 20.5 10.1 30.7 1.6 4.3.9 7.3-3.3 9.3zm66.7 14.7c-2.6-6.2-2.7-12.9-4.2-19.3-2.8-12.1-5.4-24.3-10.5-35.7-2.4-5.2-5.3-10-11-12.3 4.6-4.7 6.7-4.8 11-.2 6.8 7.5 9.1 17.1 11.9 26.4 3.3 11.1 5.1 22.6 7.4 33.9.8 4-1.3 6-4.6 7.2z" fill="#9492af"/><path class="st4" d="M582.5 270.5v-10.6c0-1.8 1-3.1 2.9-3.1 1.6 0 2.5 1.4 2.6 2.9.1 7.4 0 14.8 0 22.2 0 1.6-.8 2.8-2.5 2.8-1.9 0-2.8-1.3-2.9-3.1-.2-3.7-.1-7.4-.1-11.1zm43.3-64.8c1.9 0 3.9-.1 5.8 0 2.2.2 3.5 1.6 3.6 3.9.1 2.4-.9 4.4-3.4 4.6-4.1.3-8.2.3-12.2 0-2.4-.2-3.8-1.9-3.6-4.4.1-2.5 1.5-4 3.9-4.1 2-.2 3.9-.1 5.9 0 0-.1 0-.1 0 0zm28.8 49.6c-1.8 0-3.6.1-5.3 0-2.6-.2-4.4-1.7-4.4-4.4 0-2.6 1.8-4.2 4.4-4.4 3.5-.2 7.1-.1 10.6 0 2.7.1 4.3 1.7 4.3 4.4 0 2.8-1.7 4.2-4.3 4.3-1.7.2-3.5.1-5.3.1zm-296.2-65.8c-4.8-1.2-9.8-2.2-14.3-4.8-1.4-.8-2.5-1.8-1.5-3.6.9-1.4 2.2-1.3 3.5-.7 4.2 2 8.6 3.4 13.2 4.3 1.5.3 3 1.1 2.8 2.9-.3 2-2 2-3.7 1.9zm-34.7-34.3c1.4 0 2 1 2.5 2.1 1.8 4.5 3.7 8.9 6.7 12.7.9 1.2 1.1 2.6-.1 3.6-1.3 1-2.5.3-3.5-.8-3.7-4.2-5.9-9.2-7.7-14.4-.7-1.7.4-2.8 2.1-3.2z"/><linearGradient id="SVGID_3_" gradientUnits="userSpaceOnUse" x1="283.022" y1="53.46" x2="411.223" y2="53.46" gradientTransform="matrix(1 0 0 -1 0 472.2)"><stop offset="0" stop-color="#f1f3f5"/><stop offset="1" stop-color="#cfeefb"/></linearGradient><path d="M383.9 448.8c-13.2-3.2-26.1-7.2-35.9-17.8-12.1-13-18.9-39.7-19.2-44.2 0-.1 0-.6-.4-.9-1.9-1.4-9.9 8.2-18.1 13.3-5.3 3.2-13.8 6.3-27.2 5.1 0 15.5 0 31-.1 46.5.6.3 1.3.6 2.1.7 1.2.2 2.1 0 2.2-.1 3.3-.6 123.9.7 123.9.2.1-.1-11.9 1-27.3-2.8z" fill="url(#SVGID_3_)"/><linearGradient id="SVGID_4_" gradientUnits="userSpaceOnUse" x1="367.722" y1="135.138" x2="538.522" y2="135.138" gradientTransform="matrix(1 0 0 -1 0 472.2)"><stop offset="0" stop-color="#f1f3f5"/><stop offset="1" stop-color="#cfeefb"/></linearGradient><path d="M505 260.5c-4.4-1.7-10.8-3.7-18.9-4.7-.4.4-.7.9-.7 1.4.3 12 0 24 .1 35.9 0 1.8-.1 3.6.4 5.4 0 2.4 0 4.7.1 7.1.1 3.7-1.3 4.9-4.7 4.1-1-.2-2-.5-2.9-.7-2.6-.7-5.2-1.3-7.5-2.9-11-6.4-19.5-15.2-25.3-26.6-4.4-8.6-7.5-17.7-10.2-26.9-.5-1.6-.5-3.3-2.2-4.3-4-.1-7.9.3-11.8 1.1-22.8 4.7-40.1 17.5-53.7 35.9 2.9 2.2 8.2 6.3 15 11.3 24.7 17.9 41.4 26.6 39.6 34.6-.1.6-.3 1-.5 1.4-.3.2-.7.5-1.1.9-4.4 3.6-27 22.3-25.5 46.7 1.4 23.8 24.8 37.6 26.9 38.9 4.8 2.5 18.9 8.9 37 6 3.1-.5 21.5-3.8 35-19.4 11.4-13.3 13.5-28.9 16.9-53.4 2.1-15 .6-16.4 2.9-25.4 4.6-18.7 15.7-32.2 24.6-40.9-1.5-2-3.8-5-6.9-8.1-2.9-3.1-11.9-11.7-26.6-17.4z" fill="url(#SVGID_4_)"/><linearGradient id="SVGID_5_" gradientUnits="userSpaceOnUse" x1="503.322" y1="88.25" x2="759.222" y2="88.25" gradientTransform="matrix(1 0 0 -1 0 472.2)"><stop offset="0" stop-color="#315090"/><stop offset="1" stop-color="#29426b"/></linearGradient><path d="M715.4 451H512.7c-6.3 0-10.8-6-9-12l34.4-115.4c1.2-4 4.8-6.7 9-6.7h202.7c6.3 0 10.8 6 9 12l-34.4 115.4c-1.2 4-4.8 6.7-9 6.7z" fill="url(#SVGID_5_)"/><path class="st0" d="M568.2 431.2c-10.3-6.9-21.7-6.6-33.2-4.6-7.7 1.3-15.2 3.5-23 4.2-3.4.3-4.7-.7-4-4.1-27.8 2.9-49.8-.2-64-3.2-26.7-5.7-34.8-13.5-39-19.2-1.9-2.6-7.6-10.4-7.8-20.9-.2-13.6 8.9-26.7 25.3-50.2 0 0 .8-1.3 2.3-3.8 1.6-2.8 2.5-4.3 2.3-5.6-.3-2.4-2.5-4.1-3.7-4.9-10.4-7.1-35.9-18.5-51.7-30.4-1.9-1.4-3.4-2.6-4.1-3.3-6.7 7.6-16.8 20.3-24.7 38.1-6.1 13.7-29.6 66.4-2.8 101.2 3.7 4.8 17.8 21.6 50.3 26.1 4.5.3 9 1 13.5 1 57.4.1 114.7 0 172.1.1 2.7 0 5.3-.2 7.8-1-3.4-7.9-8.3-14.6-15.6-19.5z"/><linearGradient id="SVGID_6_" gradientUnits="userSpaceOnUse" x1="227.13" y1="207.431" x2="546.975" y2="207.431" gradientTransform="matrix(1 0 0 -1 0 472.2)"><stop offset="0" stop-color="#335292"/><stop offset="1" stop-color="#274165"/></linearGradient><path d="M546.5 168.7c-1.7-7-6.1-11.7-12.6-14.4-2.7-1.1-4.2-2.7-5.3-5.4-7-15.9-21.8-24.9-39.2-23.4-19.5 1.7-32.6 12.9-41.6 29.5-5.9 11-12.2 21.7-19.8 31.6-5.6 7.2-11.3 14.4-20.1 18.2-12.1 1.5-24.2.5-36.4.7-19.4.3-38.6 1.8-57 8.2-15.3 5.3-28.1 13.6-33.5 30-3 9.1-2.3 18.4-1.8 27.7.6 12-1 19.4-5.9 25.7-7.5 9.8-17.8 6.7-29.8 18.6-4.3 4.3-6.9 8.6-8.5 11.6-.7 1.2-16.1 29.4-1.9 52.9 7.6 12.6 20.4 18.2 24 19.7 10.1 4.3 18.8 4.3 25.9 4.3 8.4 0 19.6 0 31.1-6.8 6.5-3.9 10.9-8.6 13.5-12 2.6-14.8 12.3-64.2 41.5-100 7.9-9.6 19.6-23.8 40.1-31.4 7.9-2.9 16-4 24.2-5.1 16.8-5.3 28-16 32.2-33.5 1-4.1.3-7.5-3.3-10.1-1.9-1.3-3.4-3.2-4.7-5.2-1.8-2.7-3.6-5.7-1.3-8.7 2.1-2.8 5.2-1.2 7.8-.4 1.1.4 2.2.8 3.3 1 12.1 2.3 23.2 1 31.6-9.4 2.6-3.2 4-7.1 5.9-10.7 2.4 4.9 5.5 9.2 10.6 11s6.4 4.9 6.1 9.9c-.1 2.2-1.1 5 1.4 6.7 0 0 0 .1-.1.1-2.4 2.9-1.9 6.6-2.5 10-1.3 8.1-2.9 16.1-7.3 23.1-4.4 7.1-10.7 10.8-19.1 10.4-10.4-.5-10.8-.2-9.5 10.1.1.8.3 1.6.8 2.3.5.5 1 .9 1.7 1 11.8 1.6 22.3 6.6 32.2 12.9 1.3.8 2.6 1.6 4.2 1.1 4.4-9.7 7.4-19.9 9.3-30.4 2.4-14.1 4.1-28.3 3.1-42.6 0-2.7.3-5.4-.1-8-.6-4.2.4-6.6 4.8-8.3 5.6-1.8 7.4-6.8 6-12.5z" fill="url(#SVGID_6_)"/><path class="st0" d="M470 307.7c-19.4-10.5-28.1-28.6-34.1-48.4-1-3.3-1.8-6.6-2.7-10 11.9-4.7 22-11.6 27.9-23.4 1.1-2.2 1.9-4.6 2.7-6.9 1.7-5.1 1.6-9.6-3.6-13-2-1.3-3.4-3.6-4.7-5.7-1.8-3-2.6-6.3 0-9.2 2.4-2.8 5.5-1.6 8.3-.4 6.3 2.7 12.9 3.1 19.5 1.7 9.8-2 15.8-8.6 19.6-17.5.6-1.3.5-3 2.5-3.6 3.3 6.2 7.7 11.4 15 13.3 2.1.6 2.8 2.1 2.7 4.1 0 4 0 8 .1 12-1.1 11.5-2.2 23.1-8.3 33.4-5.1 8.8-12.8 12.6-22.9 11.3-6.5-.8-6.5-.8-6.1 5.5.1 2 .2 4 .3 5.9 0 .4 0 .8.1 1.2.5 11.4.1 22.9.2 34.3 0 4.2.3 8.2.9 12.4.8 6-1.7 8.1-7.5 6.4-3.4-1-6.8-1.8-9.9-3.4z"/><linearGradient id="SVGID_7_" gradientUnits="userSpaceOnUse" x1="280.222" y1="398.35" x2="376.024" y2="398.35" gradientTransform="matrix(1 0 0 -1 0 472.2)"><stop offset="0" stop-color="#335292"/><stop offset="1" stop-color="#274165"/></linearGradient><path d="M369 110.9h-81.8c-3.9 0-7-3.2-7-7V43.8c0-3.9 3.2-7 7-7H369c3.9 0 7 3.2 7 7v60.1c.1 3.8-3.1 7-7 7z" fill="url(#SVGID_7_)"/><circle cx="372.4" cy="38.8" r="38.8" fill="#ecf2f8"/></svg>