<svg width="517" height="717" fill="none" xmlns="http://www.w3.org/2000/svg"><path d="M463.8 12.3V166c0 6.3-5.2 11.5-11.5 11.5H260V72.6c0-6.3-5.2-11.5-11.5-11.5h-39.4V12.3C209.1 6 214.3.8 220.6.8h231.7c6.3.1 11.5 5.2 11.5 11.5z" fill="#D7DDEB"/><path d="M458.8 41.3v60.6c0 4.2-3.5 7.7-7.7 7.7H260V75.5c0-7.9-6.5-14.3-14.3-14.3h-31.5V41.4c0-4.2 3.5-7.7 7.7-7.7h229.4c4.1-.1 7.5 3.4 7.5 7.6zm0 82.3V137c0 4.2-3.5 7.7-7.7 7.7H260V116h191.2c4.2 0 7.6 3.4 7.6 7.6zm-137.1 35.6c0 1.1-.5 2.1-1.2 2.9-.7.7-1.8 1.2-2.9 1.2H260v-8.2h57.7c2.2 0 4 1.8 4 4.1zm128.1 9H406c-5 0-9-4.1-9-9 0-5 4.1-9 9-9h43.8c5 0 9 4.1 9 9 0 5-4 9-9 9z" fill="#fff"/><path d="M244.6 242.4H10c-5.5 0-10-4.5-10-10V75.9c0-5.5 4.5-10 10-10h234.6c5.5 0 10 4.5 10 10v156.6c0 5.4-4.5 9.9-10 9.9z" fill="#D7DDEB"/><path d="M240.8 176.9h-227c-4.9 0-8.8-4-8.8-8.8v-58.3c0-4.9 4-8.8 8.8-8.8h227.1c4.9 0 8.8 4 8.8 8.8V168c0 4.9-4 8.9-8.9 8.9zm0 35.1h-227c-4.9 0-8.8-4-8.8-8.8v-11c0-4.9 4-8.8 8.8-8.8h227.1c4.9 0 8.8 4 8.8 8.8v11c0 4.8-4 8.8-8.9 8.8z" fill="#fff"/><path d="M36.1 123.5c12.482 0 22.6-10.118 22.6-22.6 0-12.482-10.118-22.6-22.6-22.6-12.482 0-22.6 10.118-22.6 22.6 0 12.482 10.118 22.6 22.6 22.6zm204.3-67.3c12.482 0 22.6-10.118 22.6-22.6 0-12.482-10.118-22.6-22.6-22.6-12.482 0-22.6 10.118-22.6 22.6 0 12.482 10.118 22.6 22.6 22.6z" fill="#A1AFC9"/><path d="M108.5 230.6H9c-2.2 0-4.1-1.8-4.1-4.1 0-2.2 1.8-4.1 4.1-4.1h99.5c2.2 0 4.1 1.8 4.1 4.1 0 2.2-1.9 4.1-4.1 4.1zm132.1 4.9h-43.8c-5 0-9-4.1-9-9 0-5 4.1-9 9-9h43.8c5 0 9 4.1 9 9 .1 5-4 9-9 9z" fill="#fff"/><path d="M506.5 362H271.9c-5.5 0-10-4.5-10-10V195.4c0-5.5 4.5-10 10-10h234.6c5.5 0 10 4.5 10 10V352c0 5.5-4.5 10-10 10z" fill="#D7DDEB"/><path d="M502.7 296.4H275.6c-4.9 0-8.8-4-8.8-8.8v-58.3c0-4.9 4-8.8 8.8-8.8h227.1c4.9 0 8.8 4 8.8 8.8v58.3c0 4.9-3.9 8.8-8.8 8.8zm0 35.1H275.6c-4.9 0-8.8-4-8.8-8.8v-11c0-4.9 4-8.8 8.8-8.8h227.1c4.9 0 8.8 4 8.8 8.8v11c0 4.9-3.9 8.8-8.8 8.8z" fill="#fff"/><path d="M298 243.1c12.482 0 22.6-10.118 22.6-22.6 0-12.482-10.118-22.6-22.6-22.6-12.482 0-22.6 10.118-22.6 22.6 0 12.482 10.118 22.6 22.6 22.6z" fill="#A1AFC9"/><path d="M370.4 350.1h-99.5c-2.2 0-4.1-1.8-4.1-4.1 0-2.2 1.8-4.1 4.1-4.1h99.5c2.2 0 4.1 1.8 4.1 4.1s-1.9 4.1-4.1 4.1zm132.1 5h-43.8c-5 0-9-4.1-9-9 0-5 4.1-9 9-9h43.8c5 0 9 4.1 9 9s-4 9-9 9z" fill="#fff"/><path d="M359 243.1c12.482 0 22.6-10.118 22.6-22.6 0-12.482-10.118-22.6-22.6-22.6-12.482 0-22.6 10.118-22.6 22.6 0 12.482 10.118 22.6 22.6 22.6z" fill="url(#paint0_linear)"/><path d="M420 243.1c12.482 0 22.6-10.118 22.6-22.6 0-12.482-10.118-22.6-22.6-22.6-12.482 0-22.6 10.118-22.6 22.6 0 12.482 10.118 22.6 22.6 22.6z" fill="#A1AFC9"/><path d="M196.6 456c-.8 1.9-.5 3.8-.6 5.7-.1.4-.2.8-.2 1.3v1.2c-6.1-5.3-10.5-10.3-13.5-14-4.7-5.8-10.7-13.4-14.6-24.7-1.3-3.7-2.7-7.4-2.8-11.5 2.7 2.1 4.5 4.8 5.4 8.3 1.5 6.2 4.2 11.9 8.6 16.6 5 5.5 11.2 8 18.6 7.4.9 1.1.5 2.3.4 3.4-.3 2.2-.2 4.4-1.3 6.3z" fill="#EDC796"/><path d="M200.4 562c-.1 1.8.5 3.7-.4 5.4.1-1.8-.2-3.6.4-5.4z" fill="#745340"/><path d="M305.5 712.6c.4 1.6-.3 2.2-1.8 2.2-4.3 0-8.6.2-12.9 0-5.4-.3-10.8-.4-16.2-1.2-4.8-.7-4.8-.7-5.1-5.5.1-1.1.2-1.9.2-2.5.1-.8.1-1.2.3-1.4.6-.6 1.9-.1 2.2.1 6.7 2.3 13.5 3.1 20.5.9.7-.2 1.4-.2 2.2-.1 4 1.8 7.9 3.8 10.6 7.5z" fill="#162862"/><path d="M283.6 694.1c-.1.5-.2 1.3 0 2.3.3 1.7 1.2 2.7 1.8 3.4 2.5 2.8 6.3 3.7 7.4 4 .7.4 1.3.9 2 1.3-7.7 3.2-15.4 2.6-23-.2-.2-.1-1.1-.5-1.6-.2-.4.2-.5.7-.5 1 .4-3.1.8-6.2 1.2-9.2 1.6.4 5.4 1.3 9.5-.4 1.3-.7 2.4-1.4 3.2-2z" fill="#E8B476"/><path d="M218 707.6c1.6 1 2.3 2.6 2.7 4.4.3 1.2-.1 1.8-1.4 2-2.9.4-5.9 1-8.8 1.4-4.2.1-8.4.9-12.7.6-.8-.1-1.6-.1-2.3-.5-1.5-3.1-.5-6.2-.3-9.3.7-1.5 1.9-1.6 3.2-1.2 1.7.5 3.3 1.3 4.8 2.3 4.2 2.9 8.4 3.5 12.9.8.6-.3 1.2-.5 1.9-.5z" fill="#162862"/><path d="M348.3 253.5c-.9-.1-1.8-.1-2.7-.1-2.9 0-2.9 0-2.3-2.8.4-2.3 1.1-4.6 1-7 0-1-.3-2-1.4-2.3-1.2-.4-2 .4-2.6 1.3-.7 1-1 2.2-1.3 3.4-1.2 5.6-1.7 11.2-2 16.9-.3 5.1-1.1 10.1-1.8 15.2-2.5 17.2-8.3 29.5-11.8 37.1-2.6 5.5-5.4 10.5-10.4 15.3-2.3 2.1-4.4 3.7-5.8 4.6-.5.6-.7 1.2-.6 2 .5 2.3.4 4.6.4 7 0 1 .1 2.1-.2 3.1-.2 1-.5 2-.6 3-1.4 4-2.7 8.1-4.1 12.1 0 .1.1.2.1.3.2 1.6-2.7 3.2-4.5 5.1-.2.2-.7.7-.7 1.4 0 .2 0 .4.1.6 2.7 0 6.4-.2 10.7-1.3 11.4-2.9 18.5-9.8 21.1-12.3 0 0 24.3-23.5 22.1-78-.1-3.2-1-6.7.7-11 .8-2.1 1.4-4.3 1.7-6.6.4-3.9-1.6-6.5-5.1-7z" fill="#EDC796"/><path d="M245.2 509.1c-.5-2.7-1.2-4.7-1.5-5.6-2.2-7.6-4.4-15.2-8.2-22.2-.4-.8-.6-1.9-1.9-2.1-4.2 43.7-7 75.7-7.4 81.9-.1 1.9-.1 4.4.4 7.4.6 3.7 1.7 6.4 2.7 8.8.8 1.9 1.9 4.3 3.5 6.9-.3-7.5.4-13.3 1-17.1 2.7-17.3 12.8-48 12-54.6-.2-1.7-.6-3.4-.6-3.4z" fill="url(#paint1_linear)"/><path d="M292 517.2c.6 4.6.4 9.2.3 13.7-.8-1.9-.3-3.8-.3-5.7-.1-2.6 0-5.3 0-8z" fill="#705041"/><path d="M248.1 443.8c-1.8 1-1.8-.1-1.9-1.6-.2-3.4-.2-3.3 3.2-3.8 6.1-.8 12.1-1.7 18.1-2.6 2.5-.4 4.9-.8 7.4-1.2.8-.1 1.4 0 1.5 1 .1 1 .5 1.9.5 2.9 0 .9-.3 1.3-1.3 1.4-8 1.1-16.1 2.3-24.1 3.4-1.1.3-2.2.7-3.4.5z" fill="#855D3D"/><path d="M288.6 464.1c.4.7.4 1.4.3 2.1-.7-.7-1.9-.2-2.6-.8.3-1.4 2.3.5 2.3-1.3z" fill="#664841"/><path d="M196.3 642.5c-.1 2.4.1 4.8-.2 7.3 0 .3 0 .6.1.9-.1 1.3-.1 2.7-.2 4-.1 8.3 0 16.7.2 25.3.1 6.5.3 13 .5 19.3.3.3.6.6 1 .7 3.3.8 6.6 1.1 9.9 1.3.4 0 .8-.2 1-.5 0-.2.1-.7.2-1.2 3.2-17.3 6.6-25 10.2-41.4.3-1.4.6-3.4 1.6-7.3 1.1-4.2 2-8.5 2.9-12.8 2.5-11.5 5.2-22.5 7.3-35.7 2.2-13.8 2.5-18.6 1.5-21.9-.1-.3-.4-.9-.7-1.9-1.8-5.1-2.2-9.4-2.3-12.7-.8-24.3 2.3-54.3 2.3-54.3.7-7 1.8-17.6 2.8-30.7 4.1 8.3 7.7 17.7 10.1 28.2.3 1.1.5 2.2.7 3.3.4 1.2.7 2.3 1 3.5.4 1.3 1.1 2.5 1.3 3.9 1.6 6 3.5 13.9 5.5 23.3 1.5 7.4 2.5 13.1 3.1 16.9 1.9 11.2 3 19.5 4.5 31.5 1.3 9.8 2.1 17 2.8 23.3 1.3 11.6 1.9 17.6 2.1 20.4.2 2.2.4 5.1.9 10.9 1.1 13 1.6 19.6 1.7 20.8.6 11.4 1.3 15.2 1.7 24.7.1 1.8 0 3.7.9 5.4 2.5.7 5.1.3 7.6 0 1.7-.3 3.6.3 5-1.2 1.1-3.9 1.7-7.8 1.1-11.9.2-2.6.3-5.3.6-7.9.5-4.3.5-8.7 1.4-12.9.6-7.5 1.2-15 1.7-22.5.4-6.1 1.1-12.2 1.2-18.4 1.8-32.5 3-67.5 3.2-104.7 0 0 .1-24.4-7.6-83.1-.3-2.4-1.4-6.2-2.7-10.9-.4-1.6-.5-3.4-2-4.5-.8-.3-1.6.1-2.3.4-8.9 3.7-18.1 6.4-27.8 6.7-1.3.2-2.6.2-3.9.2-6.3.4-12.6-.9-18.9-.7-2.1.3-3.8 1.4-5.5 2.5-4.8 2.9-8.3 7.1-11.4 11.6-.9.8-1.9 1.7-3.1 2.6-3.7 2.6-7.4 3.8-10.1 4.3-.6 2.6-1.3 6.4-1.7 11-.1 1.4-.3 3.6-.2 10.8.2 15.6 1 24.7 1.2 27.2.2 1.6.3 2.7.3 3.3.9 8.6 1.7 33.3 1.7 93.1" fill="url(#paint2_linear)"/><path d="M307 347c.1-1-.4-2.1.5-2.9-.1 1 .4 2.1-.5 2.9z" fill="#E6B0AC"/><path d="M196.7 699.3l12 1.5c.2.4.5.7.5 1.1.4 2.2 1.9 3.1 4 3.4 1.8.3 3.6.8 4.8 2.3-4.6 3.6-8.7 3.9-13.6 1.1-2-1.1-3.8-2.4-6-3.1-1.2-.4-2.2-.3-3.1.6.3-2.4.6-4.7 1.4-6.9z" fill="#E8B476"/><path d="M307.1 334.9c-4 1-7.8.5-11.6-1.2-7.6-3.4-13.2-9.3-18.5-15.3-.8-.8-1.9-1.5-2-2.9-1.3.9-2.7 1.8-4 2.7-.9.5-14.2 7.6-17.4 14.5-1.1 2.4-1.2 4.6-1.2 4.6 0 1.4.3 3.5 2.3 6.9 2.8 4.6 3.9 4.2 5.8 6.9 1.7 2.5 2.1 5.7-.3 17.8-.2 1-.3 2.7-1.1 4.8-.5 1.4-1.1 2.3-2.1 3.9-1.2 2-3 5-3.5 5.8-2.7 4.7-3.5 10.6.5 24.4 0 .1.2 1.8.8 4 1.4 5.1.1 7.8-4.9 9.6-3.4 1.2-7 1.6-10.6 2-4 .5-8.1.1-11.8 1.9 2.2.4 5.3.9 9 1.2 12.4 1 21.9-.8 25.4-1.5 4.8-1 11.2-2.8 18.3-6-1.3-4.3-2.7-8.6-3.5-13.1-.4-2.2-.4-3.9-.4-4.8-.2-4.9.5-7.4 2.5-20.2.4-2.4.7-4.4.9-7.2.2-2.9.1-5.3 0-6.9 5.3 3.3 11.1 3.5 17 2.5 4.1-3.8 6.4-7.7 7.6-10.2 4-8.1 3.6-15.6 3.5-18.5-.1-2.3-.4-4.3-.7-5.7z" fill="#E6E9F7"/><path d="M278.8 358.7c-.8-.7-.4-1.6-.5-2.4.8.6.4 1.6.5 2.4z" fill="#E4ABA8"/><path d="M289.7 276.9c-.1-.2-.5-1.1-1.1-2.4-6.5-12.4-15.2-11.9-17.6-20.3-.8-2.6-.4-4.5-2.1-8.5-.5-1.1-1.3-3.4-3.2-5.7-6.1-7-14.1-10.1-23.1-10-12.7.2-21.6 6.8-26.9 18.2-1.2 2.1-1.9 4.5-2.5 6.8-2.1 7.6-1.8 15.6-2.8 23.3-1.2 6.7-5.7 9.9-12 11.7-6.3 1.8-12.2 4.8-17.4 8.9-1.1 1.1-2.3 2.2-3.4 3.3l-1.5 1.5c-6 7-8.2 15.4-8.5 24.4-.3 6.2 1 12.2 1.3 18.3-.1 1-.3 1.9-.4 2.9-.9 8.6-5.1 13.1-13.6 13.9-4.8.5-7.8 3-9.6 7-2.4 5.3-2.4 10.8-.8 16.3 2.7 9.3 8.6 16.4 15.9 22.5 1.7 1.5 3.4 3 4.7 4.9.4.8.7 1.6 1.4 2.2 1.7 1.4 2.5 3.3 3 5.4.9 3.9 2.4 7.5 4.3 11 5.2 9.4 12.6 15 23.8 14.2 2.3-.4 4.5-1.1 6.7-2 2.6-1.3 4.7-3 6.7-5.1.9-.8 1.5-1.9 2.3-2.8 4-5 8.6-9.4 15-11.3.4-.1 4.1-.6 11.5-1.6 8.8-1.1 11.4-1.4 13.8-3.7 2.7-2.5 3.3-5.9 3.5-6.9.7-5.1-2.2-8.9-3.5-11.5-7.3-15 15.9-35 8.1-50.8-.9-1.8-1.9-3-2.3-3.5-1.2-1-2.2-1.1-3.3-2.4-.4-.5-.8-1.2-1.3-2.2 0 0-1.9-4.1-1.2-9.2 1.2-7.8 20.8-9.1 31.2-23.1 6.9-9.2 9.2-23.4 4.9-33.7z" fill="url(#paint3_linear)"/><path d="M220.1 427.6c-8.6-4-16.1-9.3-21.2-17.5-3-4.9-4.4-10.2-3.5-16 .7-4.4 3-7.6 7.4-9.3 8-3.1 10.9-8.5 9.5-17-.2-1-.3-1.9-.4-2.9-1.9-5.8-4.7-11.3-6.1-17.3-2-8.8-2.1-17.4 1.8-25.8.3-.6.7-1.3 1.1-1.9.8-1.4 1.6-2.7 2.4-4.1 3.9-5.3 8.8-9.8 14.4-13.2 5.6-3.4 9.1-7.6 8.5-14.4-1.1-7.8-3.4-15.3-3.4-23.3 0-2.4 0-4.9.6-7.2 2.1-12.5 8.9-21.1 21.1-24.7 1-.3 1.9-.5 2.9-.7-3.9-1.7-8.2-2.4-12.7-2.3-12.7.2-21.6 6.8-26.9 18.2-1.2 2.1-1.9 4.5-2.5 6.8-2.1 7.6-1.8 15.6-2.8 23.3-1.2 6.7-5.7 9.9-12 11.7-6.3 1.8-12.2 4.8-17.4 8.9-1.1 1.1-2.3 2.2-3.4 3.3l-1.5 1.5c-6 7-8.2 15.4-8.5 24.4-.3 6.2 1 12.2 1.3 18.3-.1 1-.3 1.9-.4 2.9-.9 8.6-5.1 13.1-13.6 13.9-4.8.5-7.8 3-9.6 7-2.4 5.3-2.4 10.8-.8 16.3 2.7 9.3 8.6 16.4 15.9 22.5 1.7 1.5 3.4 3 4.7 4.9.4.8.7 1.6 1.4 2.2 1.7 1.4 2.5 3.3 3 5.4.9 3.9 2.4 7.5 4.3 11 5.2 9.4 12.6 15 23.8 14.2 2.3-.4 4.5-1.1 6.7-2 2.6-1.3 4.7-3 6.7-5.1.9-.8 1.5-1.9 2.3-2.8 2.6-3.3 5.4-6.2 8.8-8.4-.6-.2-1.2-.5-1.9-.8z" fill="url(#paint4_linear)"/><defs><linearGradient id="paint0_linear" x1="336.393" y1="220.475" x2="381.627" y2="220.475" gradientUnits="userSpaceOnUse"><stop stop-color="#ECBE37"/><stop offset="1" stop-color="#F2D139"/></linearGradient><linearGradient id="paint1_linear" x1="226.2" y1="531.818" x2="245.82" y2="531.818" gradientUnits="userSpaceOnUse"><stop stop-color="#1B2F6A"/><stop offset="1" stop-color="#43608E"/></linearGradient><linearGradient id="paint2_linear" x1="173.873" y1="686.314" x2="316.363" y2="439.514" gradientUnits="userSpaceOnUse"><stop stop-color="#1A2D66"/><stop offset="1" stop-color="#1A2A42"/></linearGradient><linearGradient id="paint3_linear" x1="143.257" y1="338.487" x2="291.88" y2="338.487" gradientUnits="userSpaceOnUse"><stop stop-color="#9FACFC"/><stop offset="1" stop-color="#7384F3"/></linearGradient><linearGradient id="paint4_linear" x1="143.257" y1="338.487" x2="255.191" y2="338.487" gradientUnits="userSpaceOnUse"><stop stop-color="#9FACFC"/><stop offset="1" stop-color="#7384F3"/></linearGradient></defs></svg>