<svg width="651" height="380" fill="none" xmlns="http://www.w3.org/2000/svg"><path d="M567.7 66.5c0-6.8-5.1-12.4-11.5-12.4H95c-6.3 0-11.5 5.5-11.5 12.4v296.7h484.2V66.5z" fill="url(#paint0_linear)"/><path d="M103.2 75.3V342H548V75.3H103.2z" fill="#fff"/><path d="M548 75.3V342H103.2V75.3H548zm3.7-4H99.5V346h452.2V71.3z" fill="url(#paint1_linear)"/><path opacity=".8" d="M400.6 149.2H176.8V285h223.8V149.2z" fill="url(#paint2_linear)"/><path d="M202.8 163.2c0 3.8-3.1 6.9-7 6.9-3.8 0-6.9-3.1-6.9-6.9 0-3.8 3.1-6.9 6.9-6.9 3.9 0 7 3.1 7 6.9z" fill="#EAC862"/><path d="M199.5 161.5l-1.6.9v-.8c0-.3-.2-.5-.5-.5h-4.8c-.3 0-.5.2-.5.5v3.1c0 .3.2.5.5.5h4.8c.3 0 .5-.2.5-.5v-.8l1.6.9v-3.3z" fill="#EEF1FC"/><path d="M202.8 186.8c0 3.8-3.1 6.9-7 6.9-3.8 0-6.9-3.1-6.9-6.9 0-3.8 3.1-6.9 6.9-6.9 3.9-.1 7 3 7 6.9z" fill="#EAC862"/><path d="M194.5 185.1c.2-.1.2-.3.1-.5-.2-.3-.3-.7-.4-1-.1-.2-.2-.3-.4-.2-.2.1-.5.1-.7.2-.5.1-.7.8-.5 1.4 1 2.3 2.8 4.1 5.1 5.1.6.3 1.3 0 1.4-.5.1-.2.1-.5.2-.7 0-.2-.1-.4-.2-.4-.4-.1-.7-.3-1-.4-.2-.1-.4 0-.5.1-.1.2-.2.4-.4.7-1.4-.8-2.6-1.9-3.3-3.3.1-.3.3-.4.6-.5z" fill="#EEF1FC"/><path d="M202.8 210.3c0 3.8-3.1 6.9-7 6.9-3.8 0-6.9-3.1-6.9-6.9 0-3.8 3.1-6.9 6.9-6.9 3.9 0 7 3.1 7 6.9z" fill="#EAC862"/><path d="M193.7 213.4v-6.2l6.2 3.1-6.2 3.1z" fill="#EEF1FC"/><path d="M295.8 215.6h-14.3V247h14.3v-31.4z" fill="#D0BAA8"/><path opacity=".1" d="M295.8 237.7l-14.3-17.4 14.3-4.7v22.1z" fill="#000"/><path d="M290.1 181h-2.8c-12.6.9-12.6 13.4-12.6 13.4.7 7.1 1.2 13.8 2.1 18.1 1.9 3.5 5.2 6.6 8.7 9.5 0 0 .9.6 3.2.5 2.3.1 3.2-.5 3.2-.5 3.5-2.9 6.8-6 8.7-9.5.9-4.4 1.4-11 2.1-18.1 0-.1-.4-12.6-12.6-13.4z" fill="#D0BAA8"/><path d="M276.5 209.2h-.2c-.1 0-.3-.1-.4-.1-1.2-.7-2.4-3.6-2.7-4.8-.1-.4-.2-1.3-.2-2.3 0-1.1.1-2.3.6-2.7.9-.8 1.3 0 1.5.5.1.2.1.4.1.4l.2 1.1.1.7 1 7.2zm25.6-9.1s.3-2 1.6-.9c.9.8.6 4.2.4 5-.4 1.4-1.9 5.2-3.3 5l1.3-9.1z" fill="#C2A895"/><path d="M303.1 189.6l-.8 9.8-.8 9.6-.3 3.1c-.2 1.3-4.1 7.3-7.4 10.1-3.2 2.8-5.2 2.6-5.2 2.6s-2 .2-5.2-2.6c-3.3-2.8-7.2-8.8-7.3-10.1l-.3-3.1-.6-7.1-.2-2.2-.2-1.9-.7-8.1v-.1s.4-3 2.6-4.8c.2.4.5.7.7 1.1 1 1.4 2 2.7 2 2.7l-.2 1.4-.9 5.3s-.4.9-.8 1.9c-.3.6-.5 1.2-.7 1.7l.1 2.9.1 1.8c0 .5.2.9.4 1.3.5.8 1.6 2.4 2.7 5.1.3.6.5 1.2.8 1.9 0 .1.1.2.1.3.7 1.8 5.2 2.5 6.1 2.1.4-.2.5-1.2.6-2h1.8c0 .8.2 1.9.5 2 1 .4 5.5-.3 6.1-2.1 0-.1.1-.2.1-.3.3-.7.5-1.3.8-1.9 1.1-2.6 2.2-4.3 2.7-5.1.3-.4.4-.8.4-1.3l.2-4.7c-.6-1.3-1.6-3.6-1.6-3.6l-1.1-6.7s.7-1.6 1.5-3.1c.2-.4.4-.7.7-1.1 2.9 1.6 3.3 5.2 3.3 5.2z" fill="#2F1E65"/><path d="M297.3 210.4c.1-2.6-6-2.9-6-2.9l-2.6 1.1-2.6-1.1s-6 .4-6 2.9l.9 1.5c-.2-.5 0-2.2 1.8-2.2-.1.7 2 .8 5.9.8 3.9 0 6-.2 5.9-.8 1.7-.1 1.9 1.7 1.8 2.2l.9-1.5zm2.7-26.1c0 .5-.1 1-.3 1.5-.3 1-1 2-1.9 2.7-.8.7-1.8 1.2-3 1.4-.2 0-.4.1-.6.1l-5.4.5h-.1l-9.2-.5-3.8-.2-1.3-.1h-.6c-.1-.9 1.7-6.2 6.2-9.6 3.6-2.7 9.7-3.8 14.6-2.2 1 .3 2 .8 2.9 1.4.1 0 .2.1.2.2 1.7 1.1 2.4 3 2.3 4.8z" fill="#2F1E65"/><path opacity=".2" d="M294.5 177.8c-.1.6-.2 1.1-.3 1.6-.5 2.3-1.3 4.5-2.4 6.6-.9 1.6-2 3.1-3.2 4.4-2.9 3.2-6.7 5.6-11 6.8l-2.7.6-.7-8.1h-.6c-.1-.9 1.7-6.2 6.2-9.6 3.7-2.8 9.8-3.9 14.7-2.3z" fill="#F1F1F1"/><path opacity=".3" d="M300.3 200.5c-.1 2.1-.6 4.7-1.4 5.3-1.4 1.2-4.9 1.3-6.3.3-.7-.5-1.4-1.8-1.9-3.6-.5-1.6-.6-2.9-.4-3.2.4-.7 1.4-1.2 2.9-1.4.8-.1 1.7-.2 2.6-.2 1.7 0 3.4.4 4.3 1.1.1.1.2.6.2 1.7zm-23.2 0c.1 2.1.6 4.7 1.4 5.3 1.4 1.2 4.9 1.3 6.3.3.7-.5 1.4-1.8 1.9-3.6.5-1.6.6-2.9.4-3.2-.4-.7-1.4-1.2-2.9-1.4-.8-.1-1.7-.2-2.6-.2-1.7 0-3.4.4-4.3 1.1-.1.1-.2.6-.2 1.7z" fill="#F1F1F1"/><path d="M300.6 199.4c0-.2 0-.4-.1-.5 0-.2-.1-.3-.2-.3-1.5-1.2-4.8-1.4-7.2-1-1.6.3-2.7.9-3.1 1.6-.1.2-.1.6-.1 1.1-.4-.2-.9-.3-1.2-.3-.4 0-.8.1-1.2.3 0-.5 0-.9-.1-1.1-.4-.7-1.5-1.3-3.1-1.6-2.4-.4-5.7-.2-7.2 1-.1.1-.1.2-.2.3 0 .1-.1.3-.1.5v1.1c0 1.8.6 4.8 1.5 5.5.8.7 2.3 1 3.7 1h.2c1.1 0 2.1-.3 2.8-.7 1.1-.8 2.1-3.5 2.4-5.3.4-.3.9-.4 1.3-.4s.9.1 1.3.4c.3 1.9 1.3 4.5 2.4 5.3.6.5 1.7.7 2.8.7h.2c1.4 0 2.9-.4 3.7-1 .9-.8 1.4-3.8 1.5-5.5v-1.1zm-13.9 3.1c-.5 1.8-1.2 3.1-1.9 3.6-1.4 1-4.9.9-6.3-.3-.7-.6-1.3-3.2-1.4-5.3 0-1.1.1-1.6.2-1.7.9-.7 2.6-1.1 4.3-1.1.9 0 1.8 0 2.6.2 1.5.3 2.5.8 2.9 1.4.2.2.1 1.6-.4 3.2zm12.2 3.3c-1.4 1.2-4.9 1.3-6.3.3-.7-.5-1.4-1.8-1.9-3.6-.5-1.6-.6-2.9-.4-3.2.4-.7 1.4-1.2 2.9-1.4.8-.1 1.7-.2 2.6-.2 1.7 0 3.4.4 4.3 1.1.1.1.2.6.2 1.7 0 2-.6 4.6-1.4 5.3z" fill="#2F1E65"/><path d="M339.4 284.9l-14.2-42.8c-1-3.1-3.5-5.3-6.5-6.1l-20.4-6.2-1.1-6.2-7.1 1.6-1.6 11.2-1.6-11.2-6.8-1.5-1.3 6.1-20.4 6.2c-2.9.8-5.3 3-6.3 6l-14.2 42.8H255l5.1-12.6.6 12.6h56l.6-12.9 5.2 12.9h16.9v.1z" fill="#BEC8FA"/><path d="M287 225.2l-1.6 8.9-6.5-4.3.8-6.8 7.3 2.2zm3.2 0l1.7 8.9 6.4-4.3-.8-6.8-7.3 2.2z" fill="#F9F2FC"/><path opacity=".1" d="M288.4 270.8c-.1 4.7-.1 9.4-.2 14.1h.7c0-4.7-.1-9.4-.2-14.1-.1-2.9-.1-5.8-.1-8.6 0-2.9.1-5.8.2-8.6.1-5.8 0-11.5-.3-17.3h-.1c-.2 5.8-.3 11.5-.2 17.3 0 2.9.2 5.8.2 8.6.1 2.8.1 5.7 0 8.6z" fill="#000"/><path d="M394.3 268.8H184.4v1.3h209.9v-1.3z" fill="#EEF1FC"/><path d="M376 279.6h-10.5v-6.9H376v6.9zm-9.7-.9h8.9v-5.3h-8.9v5.3zm16.6-3v-2.2h2.2v-.8h-3v3h.8zm3-2.2h2.3v2.2h.8v-3h-3.1v.8zm2.3 3v2.2h-2.3v.9h3.1v-3.1h-.8zm-3.1 2.2h-2.2v-2.2h-.8v3.1h3v-.9z" fill="#F1F1F1"/><path d="M198.4 279.5v-6.6l6.5 3.3-6.5 3.3z" fill="#F9F2FC"/><path d="M205.6 272.9h-.8v6.6h.8v-6.6zm-17.8 0h-1.1v6.6h1.1v-6.6zm2.5 0h-1.1v6.6h1.1v-6.6z" fill="#F1F1F1"/><path d="M151.5 75.3h-48.3V342h48.3V75.3z" fill="#F5F7FB"/><path d="M393.6 295.1h-217v6.1h217v-6.1zm-156.2 12h-60.8v6.1h60.8v-6.1zm102.8 0h-60.8v6.1h60.8v-6.1zm28 0h-25.5v6.1h25.5v-6.1zm16.8 0h-14.9v6.1H385v-6.1zm8.8 4.5c0 .8-.6 1.4-1.4 1.4-.8 0-1.4-.6-1.4-1.4 0-.8.6-1.4 1.4-1.4.7 0 1.4.6 1.4 1.4zm3.7 0c0 .8-.6 1.4-1.4 1.4-.8 0-1.4-.6-1.4-1.4 0-.8.6-1.4 1.4-1.4.8 0 1.4.6 1.4 1.4zm3.8 0c0 .8-.6 1.4-1.4 1.4-.8 0-1.4-.6-1.4-1.4 0-.8.6-1.4 1.4-1.4.8 0 1.4.6 1.4 1.4z" fill="#E4E8F5"/><path d="M612 379.8H39.1c-11.1 0-34.5-6.5-38.7-16.5h650.3c-4.2 9.9-27.5 16.5-38.7 16.5z" fill="url(#paint3_linear)"/><path d="M127.8 322.1c6.738 0 12.2-5.462 12.2-12.2 0-6.738-5.462-12.2-12.2-12.2-6.738 0-12.2 5.462-12.2 12.2 0 6.738 5.462 12.2 12.2 12.2zm0-39.1c6.738 0 12.2-5.462 12.2-12.2 0-6.738-5.462-12.2-12.2-12.2-6.738 0-12.2 5.462-12.2 12.2 0 6.738 5.462 12.2 12.2 12.2zm0-39.2c6.738 0 12.2-5.462 12.2-12.2 0-6.738-5.462-12.2-12.2-12.2-6.738 0-12.2 5.462-12.2 12.2 0 6.738 5.462 12.2 12.2 12.2zm0-39.1c6.738 0 12.2-5.462 12.2-12.2 0-6.738-5.462-12.2-12.2-12.2-6.738 0-12.2 5.462-12.2 12.2 0 6.738 5.462 12.2 12.2 12.2zm0-39.2c6.738 0 12.2-5.462 12.2-12.2 0-6.738-5.462-12.2-12.2-12.2-6.738 0-12.2 5.462-12.2 12.2 0 6.738 5.462 12.2 12.2 12.2zm0-39.1c6.738 0 12.2-5.462 12.2-12.2 0-6.738-5.462-12.2-12.2-12.2-6.738 0-12.2 5.462-12.2 12.2 0 6.738 5.462 12.2 12.2 12.2z" fill="#fff"/><path d="M399.3 103.1H176.8v7.4h222.5v-7.4zm-51 14.1H176.8v5.7h171.5v-5.7z" fill="#E3E7F4"/><path d="M522.3 103h-46.4v17h46.4v-17z" fill="#F4F6FB"/><path d="M470.6 103h-46.4v17h46.4v-17z" fill="#E4E9F4"/><path d="M202.8 129.8l-21.9-18.3H97.3c-30.6 0-55.4-24.8-55.4-55.4C41.9 25.5 66.7.7 97.3.7h50.2c30.6 0 55.4 24.8 55.4 55.4v73.7h-.1z" fill="url(#paint4_linear)"/><path d="M522.4 149.3h-98.2v163.9h98.2V149.3z" fill="#F4F6FA"/><defs><linearGradient id="paint0_linear" x1="83.469" y1="208.693" x2="567.689" y2="208.693" gradientUnits="userSpaceOnUse"><stop stop-color="#DAE0F4"/><stop offset="1" stop-color="#E2E7F5"/></linearGradient><linearGradient id="paint1_linear" x1="99.425" y1="208.682" x2="551.728" y2="208.682" gradientUnits="userSpaceOnUse"><stop stop-color="#DEE3FC" stop-opacity=".36"/><stop offset="1" stop-color="#DBE1F4"/></linearGradient><linearGradient id="paint2_linear" x1="176.785" y1="217.136" x2="400.553" y2="217.136" gradientUnits="userSpaceOnUse"><stop stop-color="#687CF7"/><stop offset="1" stop-color="#A2AEF9"/></linearGradient><linearGradient id="paint3_linear" x1=".448" y1="371.5" x2="650.71" y2="371.5" gradientUnits="userSpaceOnUse"><stop stop-color="#E9ECF8"/><stop offset="1" stop-color="#F1F3FA"/></linearGradient><linearGradient id="paint4_linear" x1="41.793" y1="65.216" x2="202.801" y2="65.216" gradientUnits="userSpaceOnUse"><stop stop-color="#EDBC37"/><stop offset="1" stop-color="#F5DB3F"/></linearGradient></defs></svg>