<svg width="334" height="320" fill="none" xmlns="http://www.w3.org/2000/svg"><path d="M135.1 163.9c-1 8.8-6 39.5-2.3 48.9 2.5 6.3 6.8 11.9 11.5 16.8 3.2-1.3 12.4-23.5 15.5-24.8-1.2-12.4-2.3-24.9-3.5-37.3-6.4-1.2-14.6-2.4-21.2-3.6zm114.7.3c1.1 9.2 5.3 40.9.6 49.8-3.1 6-11.1 14.2-16.3 18.5-3-1.7-9.3-28.5-12.4-30.1 2.4-12.3 4.9-24.5 7.3-36.8 6.7-.4 14.2-.9 20.8-1.4z" fill="#FF9D82"/><path d="M225.4 231.3H157s-8.6-57.4 3.8-70.4c13.4-14.1 54-13.4 63.7-1.5 11.2 14 .9 71.9.9 71.9z" fill="#7790FB"/><path d="M127.5 235.7c13.7 2.7 34.4 5.9 59.7 5.5 39.4-.6 60.2-9.1 62.4-2.3 2.6 7.8-19.7 31.6-45.7 36.8-11.1 2.2-25.4-2.9-54.1-13.1-8.3-3-18.4-7-21.6-17.3-1.1-3.7-1-7.2-.7-9.6z" fill="#C7CEE0"/><path d="M134.6 166.2c-.3-3 1.6-15.2 6.5-22 5.8-4.2 12-6.8 25.1-10.5 13.8-3.8 27.5-3.4 33.2-2.9 21.1 1.8 36 8.3 43.4 13.5 4.6 5.9 7 15 7.5 20.9.9 8.8-115.1 6.5-115.7 1z" fill="#7992FB"/><path d="M139 240.1c.1 1.6 1.5 3 3.2 3l99.5-.3c1.6 0 3.1-1.4 3.1-3l2.9-57.8c0-1.6-1.3-3-2.9-3l-106.8.3c-1.7 0-2.9 1.4-2.9 3l3.9 57.8z" fill="#fff"/><path d="M217.4 94.2H165v40.5h52.4V94.2z" fill="url(#paint0_linear)"/><path d="M205.7 118.7c-1 6.9-3.4 14.8-.9 22-6 .5-14.6-1-20.6-.5.2-6.7-.2-14.8-3.3-22.8 8.6.7 16.2.6 24.8 1.3z" fill="#FF9D82"/><path d="M215.4 99.7c0 15.6-9.9 28.2-22.2 28.2-12.2 0-22.2-12.6-22.2-28.2s9.9-28.2 22.2-28.2c12.2 0 22.2 12.6 22.2 28.2z" fill="#FFAF92"/><path d="M199.5 130.8c-5.3-.5-17.2-.8-29.8 2 .1 8 10.4 14.4 23 14.4 12.3 0 22.3-6 23-13.7-4.9-1.2-10.3-2.2-16.2-2.7z" fill="#FF9D82"/><path d="M199.2 73c-.6 3.4-1.9 6.7-5.2 10.1-8.2 8.4-15.3 9.8-20 15.7-4.1 5.2-3.9 20.5 6.6 43-9.4 5.4-18-.3-20.1-1.8-8.4-5.9-6.1-35.2 0-52.9 3.6-10.6 7.9-22.9 20-28.4 1.3-.6 12.8-5.5 23.7-.4 10.8 5.1 15 17.1 19.5 34 2.8 10.3 5.7 36.5 2.5 43.1-3.7 7.6-12.5 8.2-18.7 6.5 9.7-9.4 8.9-38.1 7.8-46.5-1-5.7-4.1-17.1-16.1-22.4z" fill="url(#paint1_linear)"/><path d="M198.5 208.6c0 3.8-3.1 6.9-6.9 6.9-3.8 0-6.9-3.1-6.9-6.9 0-3.8 3.1-6.9 6.9-6.9 3.8.1 6.9 3.2 6.9 6.9z" fill="#B1BEE8"/><path d="M193.6 292.3c0 .8.5 2.8 2.5 5.2 2.8 3.4 7.7 3.8 8.9 4.7 3.8 2.9 11.9 8.3 31.2 15.4 2.1.8 12.8 4 16.2-4 3.3-7.7-4.7-13.6-13.8-17.5-8.8-3.7-13.3-2.8-19-6.4-2.6-1.6-4.4-4.5-6-4.7-1.5-.2-3.1 0-4.2 1.7" fill="#FF9D82"/><path d="M166.9 254.3c-7-6.1-17.3-15.7-31.9-21.6-10.6-4.3-18.7-5.5-26.7-5-5.2 2.2-10.5 8.4-10.7 15.2-.3 12.7 18.5 31 36.3 38.3 25.7 10.6 66.4 22.9 71.2 21.7 6.2-1.5 10.4-14 10.4-14-21.9-13.9-37.9-25.1-48.6-34.6z" fill="#E0E4F0"/><path d="M183.4 296.5c-.1.8-.7 2.7-2.9 5-3.1 3.2-8 3.1-9.3 3.9-4.1 2.6-12.6 7.3-32.4 12.7-2.2.6-13.1 2.9-15.8-5.4-2.6-8 5.8-13.2 15.2-16.3 9-2.9 13.5-1.7 19.5-4.8 2.7-1.4 4.7-4.1 6.4-4.2 1.5-.1 3.1.3 4 2" fill="#FF9D82"/><path d="M274.6 227.8c-8-.5-16.1.7-26.7 5-14.6 5.9-24.9 15.4-31.9 21.6-10.8 9.5-24.5 21.9-47.6 35.4 0 0 1.7 15.7 8.7 14.5 10.9-1.8 46.3-12.5 72-23.1 17.7-7.3 36.6-25.6 36.3-38.3-.2-6.7-5.6-13-10.8-15.1z" fill="#E0E4F0"/><path d="M138.8 318.2c1.8-.5 3.4-1 5-1.4-4.1-2.6-6.9-7.2-6.9-12.5 0-3 .9-5.7 2.4-8.1-.4.1-.8.2-1.2.4-9.4 3-17.8 8.3-15.2 16.3 2.8 8.2 13.7 5.9 15.9 5.3zm105.7-19c-1.6-.9-3.2-1.7-4.7-2.4 1.2 4.8 0 10-3.6 13.8-2 2.2-4.6 3.6-7.3 4.2.4.2.7.4 1.1.6 8.9 4.3 18.7 6.3 22.2-1.3 3.8-8-5.7-13.9-7.7-14.9z" fill="#002560"/><path d="M256.7 136.3c.3-.4.6-.9 1.1-1.5.2-.2.3-.4.3-.4 4.4-6.6 8.6-13.2 13.1-19.8 2.1-3 4.1-6 7-8.5 7.9-6.8 18.8-7 26.9-2.1 6.1 3.7 12 7.7 17.9 11.7 12.2 8.4 14 25.4 3.4 35.7-7.7 7.5-19.2 8.9-28.6 2.8-8.7-5.6-17.3-11.4-26-17.2-.2-.2-.7-.4-1.3-.7-2.2-1-4.2-.8-6.6-.6-1.8.3-4.1.4-7.2.6zm-154.2 55.1c-.2-.4-.6-1-1.1-1.7-.2-.2-.3-.4-.3-.4-4.3-7.2-8.6-14.5-13-21.7-2-3.3-4.1-6.6-7-9.4-8.1-7.6-19.7-8.4-28.6-3.5-6.7 3.7-13.2 7.6-19.6 11.7-13.5 8.4-16.2 26.4-5.4 38 7.8 8.4 20 10.4 30.5 4.4 9.6-5.6 19.1-11.3 28.6-17.1.3-.2.7-.4 1.4-.7 2.4-.9 4.6-.6 7.1-.3 1.6.1 4.2.4 7.4.7z" fill="#DBE3ED"/><path d="M250.6 72.1c.2-.3.6-.8 1-1.4.1-.2.3-.3.3-.3 3.9-5.8 7.6-11.7 11.5-17.5 1.8-2.7 3.6-5.3 6.2-7.5 7-6 16.6-6.2 23.7-1.9 5.4 3.3 10.6 6.8 15.8 10.4 10.8 7.5 12.4 22.4 3 31.6-6.8 6.7-16.9 7.9-25.3 2.5-7.7-5-15.3-10.1-23-15.2-.2-.1-.6-.4-1.2-.6-2-.9-3.7-.7-5.9-.5-1.3.1-3.4.3-6.1.4zm-131.2 33.5l-23.1 13.3c-8.4 4.8-19 2-23.9-6.4l-.6-1c-4.8-8.4-2-19 6.4-23.9l23.1-13.3c8.4-4.8 19-2 23.9 6.4l.6 1c4.8 8.4 1.9 19.1-6.4 23.9z" fill="#B4B5DC"/><path d="M114.1 57c-.3-.6-.8-1.4-1.5-2.4l-.4-.6c-5.7-10.2-11.3-20.5-17.1-30.6-2.7-4.7-5.4-9.3-9.4-13.3C74.7-.7 58.7-2.3 46.2 4c-9.4 4.8-18.6 10-27.7 15.4-19 11.1-23.5 36-9 52.4 10.5 12 27.3 15.3 42 7.3 13.5-7.4 26.9-15 40.3-22.5.4-.2 1.1-.6 2-.9 3.4-1.2 6.3-.7 9.8-.1 2.5.3 6 .9 10.5 1.4z" fill="url(#paint2_linear)"/><path d="M270.3 59.4l1.1-1.7c.4 1 1.1 1.7 2 2.3 1.1.7 2.3.8 2.9-.2.6-.9.2-2-1-2.8-.7-.5-1.5-.8-2.4-1l3.8-4.5 4.7 3.1-1 1.6L277 54l-1.2 1.4c.3.1.6.3.9.5 1 .6 1.6 1.4 1.9 2.4.3 1 .1 1.9-.5 2.8-.6 1-1.5 1.5-2.6 1.6-1.1.1-2.1-.2-3.2-.9-.9-.7-1.6-1.5-2-2.4zm9.3 6.1c-.6-1.7-.2-3.5.8-5.1.5-.8 1.2-1.5 1.9-2 1.5-1 3.4-1.2 5-.1 1.2.8 1.8 1.8 1.9 3.2.1 1.4-.3 2.7-1.1 3.9-.8 1.3-1.9 2.1-3.2 2.6-1.3.5-2.5.3-3.7-.5-.8-.5-1.3-1.2-1.6-2zm2.7.3c.6.4 1.3.4 2 .1.7-.3 1.4-.9 1.9-1.7.5-.8.8-1.6.8-2.4 0-.8-.3-1.4-.9-1.8-.6-.4-1.3-.4-2-.1-.7.3-1.4.9-1.9 1.7-.5.8-.8 1.6-.8 2.4 0 .8.3 1.4.9 1.8zm6.2 5.6c-.6-1.7-.2-3.5.8-5.1.5-.8 1.2-1.5 1.9-2 1.5-1 3.4-1.2 5-.1 1.2.8 1.8 1.8 1.9 3.2.1 1.4-.3 2.7-1.1 3.9-.8 1.3-1.9 2.1-3.2 2.6-1.3.5-2.5.3-3.7-.5-.7-.5-1.3-1.2-1.6-2zm2.8.3c.6.4 1.3.4 2 .1.7-.3 1.4-.9 1.9-1.7.5-.8.8-1.6.8-2.4 0-.8-.3-1.4-.9-1.8-.6-.4-1.3-.4-2-.1-.7.3-1.4.9-1.9 1.7-.5.8-.8 1.6-.8 2.4 0 .8.3 1.4.9 1.8zm5.6 7.9l.8-1.3c-1-.8-1.6-1.7-2-2.6l1.3-1.9c.2.6.5 1.2.9 1.8.5.6 1 1.2 1.6 1.5 1 .6 1.9.8 2.4.1.2-.3.2-.7 0-1-.1-.2-.2-.3-.4-.6l-.2-.3-.6-.7-.5-.7c-.1-.1-.3-.3-.5-.6s-.3-.5-.4-.6c-.1-.3-.4-.9-.3-1.3 0-.4.2-.9.5-1.4.9-1.4 2.4-1.6 4.1-.8l.8-1.3 1.7 1.1-.8 1.3c.6.5 1.2 1.2 1.6 2.1l-1.2 1.8c-.5-1.2-1.3-2.1-2.3-2.7-1-.7-1.7-.7-2.1-.1-.2.3-.1.6.1.9.1.2.3.5.5.7.2.2.6.6.8.9.7.8 1 1.4 1.3 2.2.3.8.2 1.6-.3 2.4-.9 1.4-2.7 1.7-4.4.9l-.8 1.3-1.6-1.1zM86.2 110.5l-.6-9.7-4.3 2.5-1-1.7 6.5-3.7.8 1.5.6 10-2 1.1zm8.3-5.5c-1.7-.2-3.2-1.4-4.2-3.1-.5-.9-.8-1.7-.9-2.6-.2-1.8.5-3.5 2.1-4.5 1.2-.7 2.4-.8 3.7-.2 1.3.5 2.3 1.5 3 2.8.8 1.3 1.1 2.7.9 4-.2 1.3-.9 2.4-2.1 3.1-.8.4-1.6.6-2.5.5zm1.5-2.3c.6-.4 1-.9 1-1.7 0-.8-.2-1.6-.7-2.5-.5-.8-1.1-1.5-1.8-1.8-.7-.4-1.4-.4-2 0-.6.4-1 .9-1 1.7 0 .8.2 1.6.7 2.5.5.8 1.1 1.5 1.8 1.8.7.3 1.4.3 2 0zm7.8-3c-1.7-.2-3.2-1.4-4.2-3.1-.5-.9-.8-1.7-.9-2.6-.2-1.8.5-3.5 2.1-4.5 1.2-.7 2.4-.8 3.7-.2 1.3.5 2.3 1.5 3 2.8.8 1.3 1.1 2.7.9 4-.2 1.3-.9 2.4-2.1 3.1-.8.4-1.7.6-2.5.5zm1.5-2.3c.6-.4 1-.9 1-1.7 0-.8-.2-1.6-.7-2.5-.5-.9-1.1-1.5-1.8-1.8-.7-.4-1.4-.4-2 0-.6.4-1 .9-1 1.7 0 .8.2 1.6.7 2.5.5.8 1.1 1.5 1.8 1.8.7.3 1.3.3 2 0zm9.5-1.5l-.7-1.3c-1.1.5-2.2.7-3.2.6l-1.1-2c.6.1 1.2.1 2 0s1.5-.4 2.1-.7c1-.6 1.6-1.4 1.2-2.1-.2-.3-.5-.5-.9-.5-.2 0-.3 0-.7.1l-.4.1-.9.2-.8.2c-.2 0-.4.1-.7.1-.3.1-.6.1-.7.1-.3 0-1-.1-1.3-.3-.3-.2-.8-.6-1.1-1.1-.8-1.4-.4-2.9 1.1-4.1l-.8-1.3 1.7-1 .7 1.3c.8-.3 1.6-.5 2.6-.5l1.1 1.8c-1.3 0-2.4.2-3.5.8-1 .6-1.4 1.2-1 1.8.2.3.5.4.8.4.2 0 .6-.1.9-.2.3-.1.8-.2 1.2-.3 1-.2 1.7-.3 2.5-.2.9.1 1.5.6 2 1.4.9 1.5.3 3.2-1.2 4.4l.8 1.3-1.7 1z" fill="#fff"/><defs><linearGradient id="paint0_linear" x1="165" y1="114.45" x2="217.4" y2="114.45" gradientUnits="userSpaceOnUse"><stop stop-color="#102743"/><stop offset="1" stop-color="#162C5D"/></linearGradient><linearGradient id="paint1_linear" x1="154.868" y1="100.041" x2="227.441" y2="100.041" gradientUnits="userSpaceOnUse"><stop stop-color="#1D3760"/><stop offset="1" stop-color="#1A3167"/></linearGradient><linearGradient id="paint2_linear" x1=".745" y1="43.222" x2="113.625" y2="40.059" gradientUnits="userSpaceOnUse"><stop stop-color="#FDBE20"/><stop offset="1" stop-color="#FDDD22"/></linearGradient></defs></svg>