<svg width="1050" height="1000" fill="none" xmlns="http://www.w3.org/2000/svg"><path d="M937.682 51.688c-377.183-155.651-795.994 56.65-921.42 417.182-94.657 272.57 247.595 351.663 435.643 75.11 132.123-194.564 199.089-90.314 420.983-120.72 261.532-35.836 189.132-320.352 64.794-371.572z" fill="url(#paint0_linear)"/><path d="M693.305 55.955l-14.941 54.081 15.526 4.29 14.941-54.082-15.526-4.29zm18.844 22.687L701.686 116.5l15.527 4.292 10.463-37.857-15.527-4.291z" fill="#E5F1F6"/><path d="M731.355 98.966l-6.554 23.726 15.526 4.289 6.555-23.726-15.527-4.29z" fill="#83A9FF"/><path d="M108.283 582.231l-15.106 5.592 19.417 52.448 15.107-5.593-19.418-52.447zm28.234 7.305l-15.106 5.593 13.636 36.832 15.106-5.593-13.636-36.832zm27.755 5.282l-15.106 5.592 8.546 23.084 15.106-5.593-8.546-23.083z" fill="#E5F0FB"/><path d="M953.428 198.29c-17.737-10.679-40.904-4.887-51.763 13.031-10.679 17.918-5.068 41.085 12.669 51.763 17.737 10.678 40.904 4.887 51.763-13.031 10.86-17.918 5.068-41.085-12.669-51.763zm-4.887 41.265c-4.887 8.145-15.384 10.679-23.529 5.973-8.144-4.887-10.678-15.384-5.791-23.529 4.887-8.144 15.384-10.678 23.529-5.972 8.144 4.886 10.678 15.384 5.791 23.528z" fill="#AEC7EF"/><path d="M953.428 198.29c-12.488-7.602-27.692-6.878-39.275.362l10.859 17.556c5.249-3.258 12.127-3.62 17.738-.181 1.99 1.267 3.619 2.715 4.886 4.525l16.651-12.308c-2.714-3.801-6.515-7.239-10.859-9.954z" fill="#fff"/><path d="M121.78 371.497c-17.013 11.764-21.357 35.293-9.593 52.487 11.765 17.194 35.293 21.538 52.306 9.774 17.013-11.765 21.357-35.293 9.593-52.487-11.765-17.014-35.112-21.538-52.306-9.774zm31.13 45.247c-7.783 5.43-18.461 3.258-23.71-4.524-5.429-7.783-3.439-18.461 4.344-23.71 7.783-5.43 18.461-3.258 23.71 4.525 5.248 7.782 3.439 18.461-4.344 23.709z" fill="#DFEFF6"/><path d="M160.15 400.455c.724 6.154-1.81 12.489-7.24 16.289-1.991 1.267-3.982 2.172-6.154 2.715l4.344 20.09c4.706-.905 9.412-2.896 13.574-5.791 11.946-8.326 17.737-22.262 15.927-35.836l-20.451 2.533z" fill="#fff"/><path d="M484.302 797.366H347.655l-9.049 47.6 4.163 34.931-109.861-28.053s-31.312 1.448-46.877 2.534c-67.69 4.525-70.767 39.999-2.353 50.315 23.167 3.439 80.36 8.507 80.36 8.507l204.518 85.97h274.019l-78.912-145.878-179.361-55.926z" fill="url(#paint1_linear)"/><path d="M523.758 785.24c-.181 16.47-23.166 16.108-38.369 12.126-13.937-3.62-20.09 8.869-12.489 20.814 19.728 31.13 32.94 15.746 76.74 29.863 16.651 5.43 31.13-7.058 29.863-14.117-1.81-10.497-7.239-30.949-6.696-44.885.362-14.842-49.049-3.801-49.049-3.801z" fill="#fff"/><path d="M527.74 765.331l-10.316 17.737c26.243 34.207 61.174 15.927 64.251 5.973 3.077-10.136-53.935-23.71-53.935-23.71z" fill="#95BDE5"/><path d="M570.273 839.175c-6.878 4.705-30.225.905-38.732-3.982-8.507-4.887-14.66-7.24-32.035-5.249-17.556 1.991-36.017-22.081-26.787-30.044l-21.176 17.375 16.47 25.339 96.468 18.822 27.873-15.022-12.67-24.795c.181 0 1.81 9.954-9.411 17.556z" fill="#91BEFF"/><path d="M527.74 765.331l-10.316 17.737c26.243 34.207 61.174 15.927 64.251 5.973 3.077-10.136-53.935-23.71-53.935-23.71z" fill="#77A9E5"/><path d="M310.009 819.809c-13.574 13.574-48.324 13.936-73.482 13.755-15.022 0-16.289 12.488-11.04 16.832 22.443 18.642 63.708 22.805 105.336 36.379 15.746 5.068 22.262-7.601 21.176-14.298-1.629-9.955 1.448-28.597 2.172-41.809.905-14.298-36.017-19.004-44.162-10.859z" fill="#fff"/><path d="M347.655 873.02c-5.249 5.973-25.701 5.973-33.664 1.267-7.964-4.706-19.185-11.765-36.017-10.136-16.832 1.81-60.994-13.574-51.582-27.691l-17.918 8.325 24.614 26.787 104.432 26.967 27.148-14.117-11.583-23.528c-.181-.181-.181 5.972-5.43 12.126z" fill="#91BEFF"/><path d="M339.149 799.538s-31.312 23.167-29.14 27.691c2.715 5.973 19.366 17.195 28.778 17.737 14.66 1.086 23.347-11.402 23.709-17.556 0-9.954-23.347-27.872-23.347-27.872zm188.591-34.207l-10.316 17.737c26.243 34.207 61.174 15.927 64.251 5.973 3.077-10.136-53.935-23.71-53.935-23.71z" fill="#95BDE5"/><path d="M339.149 799.538s-31.312 23.167-29.14 27.691c2.715 5.973 19.366 17.195 28.778 17.737 14.66 1.086 23.347-11.402 23.709-17.556 0-9.954-23.347-27.872-23.347-27.872z" fill="#95BDE5"/><path d="M784.61 686.681c-59.183 7.601-209.224-95.925-214.292-62.623-11.402 74.387-18.642 35.655-28.053 155.289-1.81 21.719-54.116 15.385-54.116 2.534 0-48.505-3.62-207.052 1.991-230.038 4.344-18.099 21.176-34.026 41.084-35.293 15.385-.905 36.741-1.448 62.804 4.706 74.387 17.375 176.465 53.392 219.36 64.975 49.772 13.212 30.406 92.848-28.778 100.45z" fill="#D1E5F4"/><path d="M559.413 705.061l.181 227.143 182.981 66.785-.181-226.961-182.981-66.967z" fill="url(#paint2_linear)"/><path d="M742.394 772.028l.181 226.961 180.447-65.88-.181-225.876-180.447 64.795z" fill="url(#paint3_linear)"/><path d="M559.413 705.061l183.162 66.967 180.447-64.795-182.981-66.966-180.628 64.794z" fill="#fff"/><path d="M867.916 571.209c.905 15.746 35.474 126.15-45.067 135.199-11.583 1.267-23.166 8.869-37.645 12.127-41.809 9.592-107.689-3.077-179.542-32.759-75.654-31.131-84.342-34.931-96.106-26.968-10.316 6.878-15.022 34.388-48.324 77.464-28.959 37.465-27.33 32.578-101.174 106.241-12.669 12.669-56.83-25.158-43.618-38.913 42.894-44.704 60.993-92.848 113.661-182.619 25.701-43.618 34.751-67.328 100.631-56.288 74.206 12.308 125.607 21.538 177.551 33.665 108.413 25.338 159.633-27.149 159.633-27.149z" fill="#D1E5F4"/><path fill-rule="evenodd" clip-rule="evenodd" d="M820.286 627.637c20.637-5.708 41.646-11.519 48.077-32.799a296.332 296.332 0 0 1 2.369-7.476c4.933 26.055 12.552 74.033-10.012 100.63-7.509-1.934-14.193-2.63-19.505-1.573-35.655 7.059-79.455 3.439-65.156-31.673 6.826-16.765 25.371-21.894 44.227-27.109z" fill="#DEEAF3"/><path fill-rule="evenodd" clip-rule="evenodd" d="M731.249 602.733l7.887 2.241s59.003 11.04-10.497 19.185c-35.293 4.163-177.551-30.768-203.614-40.18-19.3-7.103-29.568 1.872-46.459 16.636-5.918 5.173-12.65 11.057-20.869 17.209-11.847 8.779-36.899 47.459-64.987 90.827-25.335 39.118-53.141 82.051-75.955 110.294-3.236-5.904-3.966-11.544-.315-15.345 29.714-30.967 47.529-63.585 73.179-110.547 11.378-20.832 24.298-44.486 40.482-72.072 1.585-2.689 3.106-5.302 4.581-7.837 22.452-38.573 34.231-58.81 96.05-48.45 74.206 12.307 125.607 21.537 177.551 33.664a276.434 276.434 0 0 0 22.966 4.375z" fill="#EDF5FB"/><path opacity=".92" d="M57.347 507.42l318 115.834 520.888-189.677-317.999-115.653L57.347 507.42z" fill="url(#paint4_linear)"/><path opacity=".7" d="M57.347 522.081l318 115.833v-14.66l-318-115.834v14.661z" fill="url(#paint5_linear)"/><path opacity=".7" d="M375.346 637.914l520.889-189.677v-14.66L375.346 623.254v14.66z" fill="url(#paint6_linear)"/><path d="M609.728 427.604c-16.651-3.62-16.651 11.945-16.651 11.945s17.194-.724 19.728-.724c2.534 0 13.575-7.601-3.077-11.221z" fill="url(#paint7_linear)"/><path d="M584.209 409.686c-7.421-2.353-20.09.543-30.225 6.516-5.249 3.076-4.525 8.868-1.629 9.954l29.682 11.221c7.602 2.896 15.927 2.896 23.529.181l4.524-1.629c2.896-1.085.362-8.144-1.809-11.221-4.525-5.611-10.136-10.859-24.072-15.022z" fill="url(#paint8_linear)"/><path d="M575.34 445.884c9.774 3.62 34.75 7.239 41.99 14.66 7.239 7.24 89.047 39.637 89.047 39.637l31.311-11.402-163.977-55.745c-6.515 2.533-7.963 9.411 1.629 12.85z" fill="url(#paint9_linear)"/><path d="M560.137 415.659c-1.448 5.429.905 6.515 6.697 6.153 5.791-.362 17.556-1.81 19.909 6.878 2.353 8.687 2.533 10.497 2.533 10.497s16.471-3.077 16.833-2.715c.362.362-22.443-31.492-22.443-31.492l-23.529 10.679z" fill="url(#paint10_linear)"/><path d="M839.586 336.385c-24.072.362-34.931 33.483-55.383 67.147-20.452 33.664-37.103 47.058-37.103 47.058s-11.583 2.715-49.591-6.516c-36.741-8.868-19.728-3.62-70.405-14.66-12.127-2.715-7.602 21.538-7.602 21.538 77.102 35.655 83.074 39.636 140.629 45.609 9.05.905 15.203-12.85 29.14-27.51 23.166-24.434 35.474-33.665 49.953-60.089 23.166-41.99 24.071-72.758.362-72.577z" fill="#FBE2D8"/><path d="M623.122 422.898c-3.982-6.696-8.326-19.185-15.384-21.719-6.878-2.533-16.651-3.8-20.633-3.8-3.982 0-10.136 3.619-19.547 7.058-9.412 3.439-10.498 11.041-6.154 12.669 4.344 1.629 9.412-7.42 17.556-4.343 8.145 2.896 18.823 21.719 16.832 23.528-1.81 1.81-9.411 0-14.841-1.99-5.43-1.991-12.126-4.344-7.963 3.257 4.162 7.783 32.035 13.394 48.505 13.394l12.85-19.909c.181 0-7.239-1.448-11.221-8.145z" fill="#FBE2D8"/><path d="M696.423 355.57c1.267-3.258 3.619-5.973 6.877-7.964 32.397-19.728 87.237-48.143 116.739-46.152 14.841 1.086 42.894 32.216 41.627 65.518-1.086 28.416-7.42 78.912-7.42 133.752 0 40.541 16.47 44.704 21.537 96.648 4.887 50.135-174.836 63.709-152.212 22.262 19.728-36.379 19.366-92.124-16.832-136.466-14.298-17.737-11.945-51.944-6.878-72.758 5.43-22.443-6.153-47.782-3.438-54.84z" fill="#E6F2F7"/><path d="M745.833 332.765c14.66 1.81 35.112 8.145 50.134 24.796 14.841 16.651 43.618 5.43 40.541-18.823-3.619-28.597-12.669-35.655-22.623-37.284-10.136-1.81-23.167-34.026-28.778-44.524-5.61-10.497-40.179-.181-42.532 13.032-2.353 13.212 7.782 43.256 3.258 49.953-4.525 6.697-12.127 10.497-12.127 10.497l12.127 2.353z" fill="#FBE2D8"/><path d="M779.497 240.641h-23.71l-18.641 16.108 12.126 26.787c10.316 16.832 6.515 32.397-3.62 49.048-10.135 16.651 84.16 50.315 84.16 50.315l24.796-45.066-25.701-60.632-49.41-36.56z" fill="#FBE2D8"/><path d="M732.801 261.817c-7.058-2.896 8.869-32.759-14.66-42.532-27.51-11.222-18.461-37.465-7.421-48.506 12.67-12.669 56.107-37.103 95.563-11.945 39.275 25.158 38.913 87.961.905 120.358-20.452 17.375 47.419-7.601 79.455 34.207 17.556 22.986-3.62 25.882-6.697 49.592-3.077 23.709 21.538 19.184 24.977 50.315 3.8 34.026-27.511 51.401-52.307 45.609-24.795-5.972-23.709-21.9-53.934-23.348-30.226-1.447-44.705-21.899-36.741-42.17 7.963-20.09 16.651-17.375 17.556-28.054.904-10.497-13.213-16.108-21.9-32.578-11.584-22.442 20.271-30.225 19.909-45.066-.362-13.936-26.063-22.986-30.588-30.407-5.067-8.687-6.334 7.964-14.117 4.525z" fill="url(#paint11_linear)"/><path d="M616.787 348.511a26.966 26.966 0 0 0-18.461 0L368.107 432.31l-163.796 59.726c-3.439 1.267-3.439 5.973 0 7.24l1.81.724c5.792 2.172 12.126 2.172 18.099.181l89.228-30.588 99.363-1.266 41.085-49.592 163.072-62.803c3.258-1.448 3.258-6.154-.181-7.421z" fill="url(#paint12_linear)"/><path d="M751.262 236.117c2.896 7.058 5.611 19.004-.181 26.605 9.774 9.774 10.679 25.882 9.593 26.244-16.651 6.696-20.814 7.601-26.968 7.782-13.212.362-19.908-39.999-20.813-47.419-1.448-11.945 3.981-13.574 5.429-25.158.724-6.696-4.705-19.004-4.705-19.004 9.592-4.524 11.221-3.257 21.718 23.71 2.534 6.516 7.059-14.298 15.927 7.24z" fill="#FBE2D8"/><path d="M739.86 243.175c.181 3.077 1.448 9.774 4.706 11.403 7.782 3.619 3.981-15.747 1.629-19.909-2.534-4.344-7.059-3.439-6.335 8.506z" fill="#FBE2D8"/><path d="M807.007 279.192c-8.325 6.878-20.995 4.525-32.035 1.267-2.353.905-4.706 9.955 1.267 12.307 5.791 2.353 24.614 4.163 34.569-2.895 4.344-2.896-.181-13.575-3.801-10.679z" fill="#27347F"/><path d="M508.555 426.88c-9.955-3.62-26.425-9.592-26.425-9.592-9.592-2.715-16.832-11.041-13.212-23.529l12.85-53.573-72.938 26.605h-30.226s-17.918 65.7-18.28 66.424c-2.172 4.524-1.991 14.298.724 15.384l30.949 11.221 10.136 4.525c6.696 2.353 16.289 1.81 25.338-1.448l81.265-32.216c.724-.181.905-.724 1.086-1.267.362-1.086-.181-2.172-1.267-2.534z" fill="url(#paint13_linear)"/><path d="M508.917 430.5l-83.798 30.225c-9.05 3.258-17.013 4.344-23.71 1.991l-9.411-3.077-22.986-8.325c-5.611-1.81-11.583-9.231-7.602-20.271 0 0 12.67-45.248 12.851-45.791l34.388-18.642-39.637 10.86-13.031 54.84c-3.439 12.669 3.8 20.994 13.212 23.528 0 0 23.71 8.688 31.492 11.403 6.154 2.172 15.022 1.629 24.072-1.629l79.635-29.321c3.801-1.266 5.611-2.171 5.611-5.429v-2.353c0 .362 0 1.629-1.086 1.991z" fill="url(#paint14_linear)"/><path d="M614.072 5.355L214.808 150.689c-10.678 3.982-18.28 14.299-18.28 25.52v252.843c0 10.678 10.86 18.099 21.176 14.298l398.54-145.878c10.678-3.982 18.28-14.298 18.28-25.519V17.843c0-11.402-10.136-16.29-20.452-12.488z" fill="url(#paint15_linear)"/><path d="M618.235 6.079L218.971 151.413c-10.678 3.982-18.28 14.299-18.28 25.52v252.843c0 10.678 10.136 17.556 20.452 13.755l399.264-145.335c10.678-3.982 18.28-14.298 18.28-25.519V19.834c0-10.679-10.136-17.556-20.452-13.755z" fill="url(#paint16_linear)"/><path d="M215.351 428.69l408.675-148.774V18.748L215.351 167.522V428.69z" fill="#27347F"/><path d="M529.912 89.696c-20.452 7.058-37.103 32.035-37.103 55.745 0 23.528 16.651 37.103 37.103 29.863 20.451-7.059 37.102-32.035 37.102-55.745s-16.651-37.103-37.102-29.863zm0 81.445c-18.461 6.516-33.484-5.61-33.484-26.967s15.023-43.981 33.484-50.315c18.46-6.516 33.483 5.61 33.483 26.967s-15.023 43.8-33.483 50.315z" fill="#B7CFF5"/><path d="M565.205 122.093c-.905.181-1.81 1.448-1.991 2.534-1.81 21.9-18.28 43.256-36.56 47.6-.905.181-1.81 1.448-1.991 2.534-.181 1.086.543 1.991 1.629 1.629 1.267-.362 2.353-.724 3.62-1.086 18.823-6.516 34.931-28.777 36.922-51.582 0-1.086-.724-1.991-1.629-1.629z" fill="#0168FF"/><path d="M529.912 88.067c-1.81.543-3.258 2.715-3.258 4.887 0 1.99 1.448 3.258 3.258 2.534 17.737-6.154 32.035 5.429 32.035 25.881 0 10.679-3.982 22.262-10.86 31.673-1.266 1.81-1.448 4.163-.362 5.249.724.543 1.448.724 2.353.362.724-.181 1.448-.905 2.172-1.629 8.326-11.402 13.212-25.158 13.212-38.008-.181-24.433-17.375-38.37-38.55-30.949z" fill="#E3F0F6"/><path d="M536.97 169.512l-.724.543 8.507 20.814 7.963-2.715v-.905l-7.601 2.534-8.145-20.271z" fill="#0168FF"/><path d="M557.965 98.383l.724.181 11.221-25.52 8.326-3.076v-.724l-8.869 3.077-11.402 26.062z" fill="#E3F0F6"/><path d="M479.416 114.672v.724l8.687-3.076 9.23 13.574.724-.724-9.592-13.755-9.049 3.257zm-35.836 17.375l30.225-10.497v-9.954l-30.225 10.678v9.773z" fill="#B7CFF5"/><path d="M585.295 72.14l30.225-10.498v-9.954l-30.225 10.678v9.774z" fill="#E3F0F6"/><path d="M558.327 190.688l30.406-10.678v-9.774l-30.406 10.498v9.954z" fill="#0168FF"/><path d="M240.147 402.627v-3.62l-1.448 3.439-.362.181-1.448-2.353v3.439l-.905.362v-5.43l.724-.181 1.81 2.896 1.81-4.162.724-.181v5.429l-.905.181zm1.99-2.715c0-1.267.724-2.353 1.81-2.715 1.086-.361 1.81.181 1.81 1.448s-.724 2.353-1.81 2.715c-1.086.362-1.81-.181-1.81-1.448zm2.896-1.086c0-.724-.543-1.085-1.086-.905-.543.181-1.086.905-1.086 1.629s.362 1.086 1.086.905c.724-.181 1.086-.724 1.086-1.629zm5.249-2.171v2.352l-.905.362v-2.171c0-.724-.362-.905-.905-.724-.543.181-.905.724-.905 1.629v1.99l-.905.362v-4.162l.724-.362v.543c.362-.543.724-.905 1.267-1.086 1.086-.362 1.629 0 1.629 1.267zm17.194-8.507l-1.629.543v-.905l3.982-1.448v.905l-1.629.543v4.525l-.905.362v-4.525h.181zm6.154-1.629v4.163l-.724.362v-.543c-.181.543-.724.905-1.086.905-.905.362-1.448 0-1.448-1.267v-2.353l.905-.362v2.172c0 .724.362.905.905.724.543-.181.905-.724.905-1.629V386.7l.543-.181zm4.524.543l-2.714 1.086c.181.543.542.724 1.085.543.362-.181.724-.362.905-.724l.362.362c-.362.543-.905.905-1.448 1.267-1.266.362-1.99-.181-1.99-1.448s.723-2.353 1.809-2.715c1.086-.362 1.81.181 1.81 1.448.181 0 .181.181.181.181zm-2.714.543l1.99-.724c0-.543-.543-.905-1.086-.543-.542 0-.904.543-.904 1.267zm30.768-14.298l-1.629 5.973-.905.362-1.086-3.62-1.086 4.344-.905.362-1.628-4.887.904-.362 1.086 3.62 1.267-4.525.724-.362 1.267 3.62 1.267-4.525h.724zm3.982 2.172l-2.715 1.086c.181.543.543.724 1.086.543.362-.181.724-.362.905-.724l.362.362c-.362.543-.905.905-1.448 1.267-1.267.362-1.991-.181-1.991-1.448s.724-2.353 1.81-2.715c1.086-.362 1.809.181 1.809 1.448.181 0 .182 0 .182.181zm-2.715.362l1.991-.724c0-.543-.543-.905-1.086-.543a1.361 1.361 0 0 0-.905 1.267zm7.239-5.973v5.611l-.724.362v-.543c-.362.543-.724.905-1.267 1.086-1.085.362-1.809-.181-1.809-1.448s.724-2.353 1.809-2.715c.543-.181.905-.181 1.086.181v-2.172l.905-.362zm-.724 3.982c0-.724-.543-1.086-1.085-.905-.543.181-1.086.905-1.086 1.629s.543 1.086 1.086.905c.542-.181 1.085-.905 1.085-1.629zm17.014-8.688l-1.629.543v-.905l3.982-1.448v.905l-1.629.543v4.525l-.905.362v-4.525h.181zm6.697-.181v2.353l-.905.362v-2.172c0-.724-.362-.905-.905-.724-.543.181-.905.724-.905 1.629v1.991l-.905.362v-5.61l.905-.362v1.99c.362-.362.724-.723 1.267-.904.724-.543 1.448-.182 1.448 1.085zm4.524-3.438v4.162l-.724.362v-.543c-.181.543-.724.905-1.086.905-.905.362-1.448 0-1.448-1.267v-2.353l.905-.362v2.172c0 .724.362.905.905.724.543-.181.905-.724.905-1.629v-1.99l.543-.181zm21.9-8.507v1.629l2.172-.905v.905l-2.172.905v1.991l-.905.362v-5.43l3.438-1.267v.905l-2.533.905zm5.248-1.448v.905h-.181c-.724.181-1.086.724-1.086 1.629v1.991l-.905.362v-4.163l.724-.362v.543c.543-.362.905-.724 1.448-.905zm.724-1.448c0-.362.181-.724.543-.724.362-.181.543 0 .543.362s-.181.724-.543.724c-.181 0-.543-.181-.543-.362zm.181 1.086l.905-.362v4.163l-.905.362v-4.163zm23.891-5.068l.362-.905c.362.181.905.181 1.629 0s1.086-.724 1.086-1.085c0-1.086-2.715.542-2.715-1.448 0-.905.543-1.81 1.81-2.353a2.511 2.511 0 0 1 1.629 0l-.362.905a1.546 1.546 0 0 0-1.267 0c-.724.181-1.086.724-1.086 1.086 0 1.086 2.715-.543 2.715 1.448 0 .904-.543 1.809-1.81 2.352-.905.181-1.629.181-1.991 0zm7.601-4.705v2.353l-.724.362v-.543c-.181.362-.542.724-1.085.905-.724.362-1.267-.001-1.267-.724 0-.724.362-1.448 1.448-1.81l.904-.362c0-.543-.362-.724-.904-.543-.362.181-.724.362-1.086.724l-.362-.543a2.815 2.815 0 0 1 1.448-1.086c1.085-.181 1.628.181 1.628 1.267zm-.904 1.448v-.543l-.905.362c-.543.181-.724.543-.724.724 0 .362.181.543.724.362.543 0 .905-.362.905-.905zm4.162-.362c-.181.181-.542.543-.723.543-.724.362-1.267 0-1.267-.905v-1.991l-.543.181v-.724l.543-.181v-.905l.905-.362v.905l.904-.362v.724l-.904.362v1.991c0 .362.18.543.542.362.181 0 .362-.181.543-.362v.724zm19.004-7.24l.362-.905c.362.181.905.181 1.629 0s1.086-.724 1.086-1.086c0-1.086-2.715.543-2.715-1.448 0-.905.543-1.81 1.81-2.353a2.511 2.511 0 0 1 1.629 0l-.362.905a1.546 1.546 0 0 0-1.267 0c-.724.181-1.086.724-1.086 1.086 0 1.086 2.715-.543 2.715 1.448 0 .905-.543 1.81-1.81 2.353-.905.181-1.629.181-1.991 0zm7.964-6.516v4.163l-.724.362v-.543c-.181.543-.724.905-1.086.905-.905.362-1.448 0-1.448-1.267v-2.353l.905-.362v2.172c0 .724.362.905.905.724.543-.181.905-.724.905-1.629v-1.991l.543-.181zm4.705 0v2.353l-.905.362v-2.172c0-.724-.362-.905-.905-.724-.543.181-.905.724-.905 1.629v1.991l-.904.362v-4.163l.724-.362v.543c.362-.542.724-.905 1.266-1.086 1.086-.181 1.629 0 1.629 1.267z" fill="#97B6E6"/><path d="M243.043 332.765c-1.086.362-1.991 1.81-1.991 3.077v45.79c0 1.267.905 2.172 1.991 1.81 1.086-.362 1.991-1.81 1.991-3.076v-45.791c0-1.448-.905-2.172-1.991-1.81z" fill="url(#paint17_linear)"/><path d="M274.173 340.005c-1.086.362-1.991 1.81-1.991 3.077v27.148c0 1.267.905 2.172 1.991 1.81 1.086-.362 1.991-1.81 1.991-3.077v-27.148c0-1.448-.905-2.172-1.991-1.81z" fill="url(#paint18_linear)"/><path d="M305.303 336.023c-1.086.362-1.991 1.81-1.991 3.077v19.728c0 1.267.905 2.172 1.991 1.81 1.086-.362 1.991-1.81 1.991-3.077v-19.728c0-1.448-.905-2.172-1.991-1.81z" fill="url(#paint19_linear)"/><path d="M336.433 301.816c-1.086.362-1.991 1.81-1.991 3.077v42.532c0 1.267.905 2.172 1.991 1.81 1.086-.362 1.991-1.81 1.991-3.077v-42.532c0-1.448-.905-2.172-1.991-1.81z" fill="url(#paint20_linear)"/><path d="M367.744 280.459c-1.086.362-1.991 1.81-1.991 3.077v52.668c0 1.267.905 2.172 1.991 1.81 1.086-.362 1.991-1.81 1.991-3.077v-52.668c-.181-1.448-.905-2.172-1.991-1.81z" fill="url(#paint21_linear)"/><path d="M398.874 248.062c-1.085.362-1.99 1.81-1.99 3.077v73.844c0 1.267.905 2.172 1.99 1.81 1.086-.362 1.991-1.81 1.991-3.077v-73.844c0-1.448-.905-2.353-1.991-1.81z" fill="url(#paint22_linear)"/><path d="M430.005 245.528c-1.086.362-1.991 1.81-1.991 3.077v64.975c0 1.267.905 2.172 1.991 1.81 1.086-.362 1.991-1.81 1.991-3.077v-64.975c0-1.448-.905-2.172-1.991-1.81z" fill="url(#paint23_linear)"/><path d="M408.649 202.091c-7.964-9.412-18.28-1.991-28.235 5.248-9.773 7.059-19.185 13.936-26.605 6.516-9.231-9.231-16.832-13.574-23.529-13.031-5.792.362-9.593 4.343-12.307 7.782-2.353 3.077-3.439 6.878-4.706 11.041-1.81 5.972-3.439 12.307-9.231 15.746-5.248 3.258-8.506-1.086-12.669-6.516-3.077-3.982-6.516-8.506-11.221-10.678-4.887-2.172-9.412-2.534-13.213-.905-4.886 2.172-8.687 7.42-11.402 15.746-1.267 3.62-2.172 9.411-3.439 16.108-2.534 14.479-5.61 32.397-11.945 36.379-1.267.724-2.534.905-3.982.543l-.362 1.267c.543.181 1.267.181 1.81.181 1.086 0 2.172-.362 3.258-.905 6.878-4.344 9.954-22.443 12.488-37.103 1.086-6.697 2.172-12.488 3.258-15.927 2.534-7.964 6.154-12.85 10.678-14.841 3.439-1.629 7.602-1.267 12.127.724 4.525 1.99 7.782 6.334 10.859 10.135 4.163 5.43 8.145 10.678 14.298 6.878 5.973-3.801 7.964-10.317 9.593-16.47 1.086-3.982 2.172-7.964 4.525-10.679 2.533-3.258 5.972-6.877 11.402-7.239 6.154-.362 13.755 3.8 22.624 12.669 8.144 8.144 18.28.724 28.053-6.335 9.955-7.239 19.366-14.117 26.606-5.429 10.859 13.031 28.415 11.583 28.596 11.583l-.181-1.267c.362 0-16.651 1.267-27.148-11.221z" fill="#fff"/><path d="M410.82 199.557c-4.706 9.049-11.583 14.66-18.28 14.841h-.181c-4.706 0-8.687-2.896-11.764-8.326-5.249-9.773-7.059-10.497-11.583-10.859-1.81-.181-4.344-.362-7.783-1.81-5.973-2.353-7.421-4.344-9.773-7.602-1.991-2.714-4.525-6.153-10.498-10.859-3.258-2.534-6.516-3.439-9.773-3.077-7.783 1.086-14.299 10.136-18.642 15.927-.905 1.086-1.629 2.172-2.353 3.077-2.172 2.896-5.249 1.629-10.136-.362-4.705-2.172-10.135-4.525-15.384-1.267-5.791 3.62-6.696 10.498-7.782 17.737-.724 5.43-1.448 11.041-4.344 15.746-2.896 4.706-5.068 6.516-7.24 8.145-2.896 2.172-5.248 4.163-7.782 11.945-4.344 13.213-12.308 13.755-24.615 10.317l-.362 1.629c3.982 1.085 7.783 1.809 11.041 1.809 7.058 0 12.488-3.438 15.746-13.212 2.353-7.239 4.524-9.049 7.239-11.221 2.172-1.629 4.525-3.62 7.602-8.507 3.077-4.886 3.801-10.678 4.525-16.289.905-6.877 1.809-13.393 6.877-16.651 4.525-2.896 9.231-.724 13.755 1.267 4.344 1.991 8.869 3.982 12.127 0 .724-.905 1.448-1.991 2.353-3.077 4.162-5.791 10.316-14.298 17.556-15.384 2.895-.362 5.791.543 8.687 2.715 5.792 4.525 8.326 7.783 10.136 10.497 2.352 3.258 4.162 5.611 10.497 8.145 3.801 1.448 6.335 1.81 8.326 1.991 3.8.362 5.067.543 10.316 9.954 3.258 5.973 7.964 9.231 13.212 9.05 7.24 0 14.66-6.154 19.728-15.746 7.964-15.565 20.995-18.461 21.176-18.461l-.362-1.629c-.362.543-13.755 3.439-22.262 19.547z" fill="#0168FF"/><path d="M585.657 491.312c0-.543-1.086 2.353-1.629 2.172l-53.211-19.366c-3.982-1.448-8.507-1.448-12.488 0l-185.696 63.347c-2.172 1.448-1.629 2.896-1.629 6.334 0 1.086.362 2.172 1.629 2.715l53.211 19.366c3.982 1.448 8.507 1.448 12.488 0l185.696-67.69c1.267-.362 1.81-1.448 1.629-2.534v-4.344z" fill="url(#paint24_linear)"/><path d="M584.027 489.322l-53.211-19.366c-3.981-1.448-8.506-1.448-12.488 0l-185.695 67.69c-2.172.724-2.172 3.982 0 4.706l53.211 19.365c3.981 1.448 8.506 1.448 12.488 0l185.695-67.69c2.172-.724 2.172-3.982 0-4.705z" fill="url(#paint25_linear)"/><path d="M709.273 348.511c-25.882 7.059-28.416 45.61-40.904 87.056-12.488 41.447-26.787 60.632-26.787 60.632s-11.945 6.154-55.563 6.878c-42.171.905-22.262 1.628-80.36 3.981-13.936.543-1.991 24.977-1.991 24.977 93.572 16.47 101.173 19.004 165.425 9.23 9.954-1.447 12.85-17.918 23.71-37.464 18.099-32.398 28.777-45.791 36.921-78.007 13.032-51.22 5.249-84.16-20.451-77.283z" fill="#FBE2D8"/><path d="M478.33 494.027c-1.81 3.077-.181 8.145 1.629 9.955 1.81 1.809-14.66 1.628-26.063 1.447-11.221-.181-26.424 9.593-27.148 12.127-.905 2.353 3.439 6.877 15.022 0 0 0-4.887 7.42-7.059 12.488-2.171 5.068 9.774 18.823 17.194 14.117 7.421-4.705 20.09-5.791 28.416-6.877 8.325-1.086 23.348-4.887 23.348-4.887l1.99-24.977c-10.678-1.448-25.519-16.47-27.329-13.393z" fill="#FBE2D8"/><defs><linearGradient id="paint0_linear" x1="1191.92" y1="-515.21" x2="-607.182" y2="1876.27" gradientUnits="userSpaceOnUse"><stop stop-color="#E7EFF9"/><stop offset="1" stop-color="#FBFDFE" stop-opacity="0"/></linearGradient><linearGradient id="paint1_linear" x1="98.421" y1="881.405" x2="739.93" y2="909.948" gradientUnits="userSpaceOnUse"><stop stop-color="#E6E7E7"/><stop offset="1" stop-color="#E3E5E9"/></linearGradient><linearGradient id="paint2_linear" x1="1438.01" y1="403.636" x2="435.962" y2="974.635" gradientUnits="userSpaceOnUse"><stop offset=".564" stop-color="#ECF0FD"/><stop offset=".89" stop-color="#DEE2E7"/></linearGradient><linearGradient id="paint3_linear" x1="692.361" y1="748.529" x2="1080.49" y2="1037.76" gradientUnits="userSpaceOnUse"><stop stop-color="#F7FBFF"/><stop offset=".854" stop-color="#E4E7EB" stop-opacity=".13"/></linearGradient><linearGradient id="paint4_linear" x1="445.881" y1="590.595" x2="508.958" y2="346.01" gradientUnits="userSpaceOnUse"><stop stop-color="#fff"/><stop offset="1" stop-color="#F7FBFF"/></linearGradient><linearGradient id="paint5_linear" x1="186.091" y1="648.419" x2="242.731" y2="506.817" gradientUnits="userSpaceOnUse"><stop stop-color="#F7FBFF"/><stop offset=".854" stop-color="#B7CFF5"/></linearGradient><linearGradient id="paint6_linear" x1="669.084" y1="621.167" x2="560.949" y2="343.107" gradientUnits="userSpaceOnUse"><stop stop-color="#F7FBFF"/><stop offset=".854" stop-color="#C2DBFF"/></linearGradient><linearGradient id="paint7_linear" x1="645.301" y1="426.108" x2="602.13" y2="434.048" gradientUnits="userSpaceOnUse"><stop stop-color="#fff"/><stop offset="1" stop-color="#C2DBFF"/></linearGradient><linearGradient id="paint8_linear" x1="585.695" y1="416.097" x2="571.118" y2="449.184" gradientUnits="userSpaceOnUse"><stop stop-color="#F6FAFF"/><stop offset=".173" stop-color="#F1F7FF"/><stop offset=".364" stop-color="#E4EFFF"/><stop offset=".563" stop-color="#CEE2FF"/><stop offset=".651" stop-color="#C2DBFF"/><stop offset="1" stop-color="#C2DBFF"/></linearGradient><linearGradient id="paint9_linear" x1="794.023" y1="403.023" x2="449.379" y2="547.463" gradientUnits="userSpaceOnUse"><stop stop-color="#fff"/><stop offset="1" stop-color="#C2DBFF"/></linearGradient><linearGradient id="paint10_linear" x1="770.59" y1="347.108" x2="425.945" y2="491.548" gradientUnits="userSpaceOnUse"><stop stop-color="#fff"/><stop offset="1" stop-color="#C2DBFF"/></linearGradient><linearGradient id="paint11_linear" x1="699.893" y1="303.987" x2="905.224" y2="303.987" gradientUnits="userSpaceOnUse"><stop stop-color="#0E263E"/><stop offset=".308" stop-color="#11294B"/><stop offset="1" stop-color="#182E64"/></linearGradient><linearGradient id="paint12_linear" x1="639.76" y1="645.129" x2="36.268" y2="62.721" gradientUnits="userSpaceOnUse"><stop stop-color="#fff"/><stop offset="1" stop-color="#C2DBFF"/></linearGradient><linearGradient id="paint13_linear" x1="453.672" y1="480.173" x2="417.562" y2="385.099" gradientUnits="userSpaceOnUse"><stop stop-color="#F6FAFF"/><stop offset=".173" stop-color="#F1F7FF"/><stop offset=".364" stop-color="#E4EFFF"/><stop offset=".563" stop-color="#CEE2FF"/><stop offset=".651" stop-color="#C2DBFF"/><stop offset="1" stop-color="#C2DBFF"/></linearGradient><linearGradient id="paint14_linear" x1="437.637" y1="418.084" x2="409.008" y2="417.766" gradientUnits="userSpaceOnUse"><stop stop-color="#D4E6FC"/><stop offset=".493" stop-color="#C2DBFF"/><stop offset=".966" stop-color="#91BEFF"/></linearGradient><linearGradient id="paint15_linear" x1="389.159" y1="248.926" x2="345.514" y2="290.293" gradientUnits="userSpaceOnUse"><stop stop-color="#C2DBFF"/><stop offset=".854" stop-color="#91BEFF"/></linearGradient><linearGradient id="paint16_linear" x1="39.624" y1="600.088" x2="483.914" y2="161.284" gradientUnits="userSpaceOnUse"><stop stop-color="#fff"/><stop offset="1" stop-color="#C2DBFF"/></linearGradient><linearGradient id="paint17_linear" x1="239.345" y1="265.782" x2="244.751" y2="402.01" gradientUnits="userSpaceOnUse"><stop offset=".313" stop-color="#FCFFE8"/><stop offset="1" stop-color="#0168FF"/></linearGradient><linearGradient id="paint18_linear" x1="271.46" y1="287.571" x2="275.245" y2="382.96" gradientUnits="userSpaceOnUse"><stop offset=".313" stop-color="#FCFFE8"/><stop offset="1" stop-color="#0168FF"/></linearGradient><linearGradient id="paint19_linear" x1="301.948" y1="262.747" x2="306.229" y2="370.628" gradientUnits="userSpaceOnUse"><stop offset=".313" stop-color="#FCFFE8"/><stop offset="1" stop-color="#0168FF"/></linearGradient><linearGradient id="paint20_linear" x1="332.502" y1="224.499" x2="337.826" y2="358.669" gradientUnits="userSpaceOnUse"><stop offset=".313" stop-color="#FCFFE8"/><stop offset="1" stop-color="#0168FF"/></linearGradient><linearGradient id="paint21_linear" x1="364.474" y1="228.386" x2="369.038" y2="343.409" gradientUnits="userSpaceOnUse"><stop offset=".313" stop-color="#FCFFE8"/><stop offset="1" stop-color="#0168FF"/></linearGradient><linearGradient id="paint22_linear" x1="396.618" y1="231.028" x2="400.508" y2="329.051" gradientUnits="userSpaceOnUse"><stop offset=".313" stop-color="#FCFFE8"/><stop offset="1" stop-color="#0168FF"/></linearGradient><linearGradient id="paint23_linear" x1="427.3" y1="211.827" x2="431.415" y2="315.527" gradientUnits="userSpaceOnUse"><stop offset=".313" stop-color="#FCFFE8"/><stop offset="1" stop-color="#0168FF"/></linearGradient><linearGradient id="paint24_linear" x1="395.25" y1="527.405" x2="376.966" y2="529.538" gradientUnits="userSpaceOnUse"><stop stop-color="#D4E6FC"/><stop offset=".493" stop-color="#C2DBFF"/><stop offset=".966" stop-color="#91BEFF"/></linearGradient><linearGradient id="paint25_linear" x1="453.423" y1="351.531" x2="469.768" y2="895.593" gradientUnits="userSpaceOnUse"><stop stop-color="#fff"/><stop offset="1" stop-color="#C2DBFF"/></linearGradient></defs></svg>