<svg width="118" height="109" fill="none" xmlns="http://www.w3.org/2000/svg"><path d="M85.917 98.191c0 3.715-3.068 6.783-6.783 6.783H9.69c-3.715 0-6.783-3.068-6.783-6.783V9.69c0-3.715 3.068-6.783 6.783-6.783h55.555v10.82c0 5.33 4.36 9.852 9.852 9.852h10.82v34.399c.646-.969 1.777-1.938 3.069-2.261V21.479c0-.161-.162-.323-.323-.484L67.99.323c-.162-.161-.323-.162-.485-.323H9.85C4.522 0 0 4.36 0 9.851v88.502c0 5.329 4.36 9.851 9.851 9.851h69.445c5.33 0 9.851-4.36 9.851-9.851V73.159c-.807.484-1.776.646-3.068.646V98.19h-.162zM68.314 5.006L83.818 20.51h-8.721c-3.715 0-6.783-3.068-6.783-6.783v-8.72z" fill="#1A171B"/><path d="M116.602 36.337a4.874 4.874 0 0 0-6.944 0l-2.423 2.423-1.615-1.615c-.323-.323-.646-.485-1.13-.485-.323 0-.808.162-1.131.485l-1.776 1.776c-3.23-1.292-6.945-.646-9.367 1.938-4.684 4.845-11.79 12.274-18.734 20.188-.485.646-.485 1.614.161 2.099.323.323.646.323.97.323.484 0 .807-.162 1.13-.485 6.944-7.752 14.05-15.18 18.572-20.025 1.292-1.292 3.069-1.777 4.845-1.615-4.522 4.683-12.274 12.92-19.864 21.317-6.622 7.43-11.951 13.566-15.666 18.411-1.291 1.615-2.26 3.069-3.23 4.36-2.099 2.908-3.23 5.169-3.714 6.784-2.745.161-5.814.161-8.075-.97h-.161c.969-1.937 1.453-4.037 1.292-6.136 0-.97-.162-2.261-.808-3.392-.807-1.453-2.1-2.26-3.553-2.26a3.767 3.767 0 0 0-3.391 2.099c-.485.969-.808 1.938-.646 3.391.161 2.584 1.13 5.007 2.907 6.783-.97.808-2.423 1.454-4.522 1.615-2.907.162-5.491-.323-8.075-1.776l-.97-.485c1.777-3.068 2.423-6.621 2.423-9.851 0-1.454-.161-3.23-1.13-4.845-.97-1.777-2.907-3.069-4.684-3.069-1.776 0-3.553 1.13-4.522 2.907-.646 1.292-.969 2.907-.969 4.684a15.63 15.63 0 0 0 4.845 10.659c-.969 1.13-2.26 1.938-3.714 2.584-2.907 1.13-6.46.646-9.529.161-.807-.161-1.615.485-1.776 1.292-.162.808.484 1.615 1.292 1.777 1.776.161 3.714.484 5.652.484 1.777 0 3.553-.161 5.33-.807 1.938-.808 3.714-1.938 5.006-3.553.485.323.808.484 1.292.807 3.069 1.615 6.299 2.261 9.69 2.1 3.069-.162 5.168-1.13 6.783-2.746.162.162.323.162.485.323 3.068 1.615 6.783 1.454 9.69 1.292 0 .162.161.162.161.323.485.485 1.13.808 1.776.808 1.777 0 4.361-1.292 8.237-4.038 1.292-.969 2.745-1.938 4.36-3.23 4.845-3.714 11.144-9.044 18.411-15.665 13.082-11.79 25.517-23.902 25.517-24.063.323-.323.485-.646.485-1.131 0-.323-.162-.807-.485-1.13l-1.615-1.615 2.423-2.423c2.422-1.776 2.422-4.845.484-6.783zm-88.178 52.81c-2.1-2.26-3.392-5.168-3.553-8.236 0-1.292.161-2.423.646-3.069.484-.807 1.292-1.292 1.938-1.292.807 0 1.615.646 2.1 1.454.484.807.645 1.938.645 3.391.162 2.423-.484 5.33-1.776 7.752zm17.765.162c-.97-1.292-1.615-2.746-1.615-4.36 0-.808.161-1.293.323-1.777.161-.323.484-.646.807-.646.323 0 .646.323.808.646.323.484.323 1.13.323 1.938.161.969 0 2.584-.646 4.199zm19.541.646c-3.553 2.422-5.168 3.23-5.976 3.391.162-.807.97-2.422 3.392-5.975.646-.808 1.292-1.777 2.1-2.907l3.391 3.391c-1.13.808-2.1 1.454-2.907 2.1zm5.168-4.038l-3.876-3.876c3.391-4.36 8.075-9.851 13.727-16.15l.646.646 5.653 5.653c-6.299 5.652-11.79 10.336-16.15 13.727zm18.41-15.665l-6.46-6.46c9.368-10.336 18.735-20.187 21.965-23.417l1.615 1.615 4.845 4.845 1.615 1.615c-3.553 2.906-13.243 12.435-23.58 21.802zm25.195-29.07l-2.423 2.423-2.584-2.584 2.423-2.423c.807-.807 1.938-.807 2.584 0 .807.646.807 1.777 0 2.584zM58.785 34.4H14.373a1.447 1.447 0 0 1-1.453-1.454c0-.808.646-1.454 1.453-1.454h44.412c.808 0 1.454.646 1.454 1.454.162.807-.646 1.453-1.453 1.453zm0 12.92H14.373a1.447 1.447 0 0 1-1.453-1.454c0-.808.646-1.454 1.453-1.454h44.412c.808 0 1.454.646 1.454 1.454.162.646-.646 1.453-1.453 1.453zM39.89 60.562h-26c-.484 0-.807-.646-.807-1.454 0-.807.322-1.453.807-1.453h26c.485 0 .808.646.808 1.453.161.808-.323 1.454-.808 1.454z" fill="#1A171B"/></svg>