<?xml-stylesheet href="../css/main.css" type="text/css"?><svg version="1.1" id="offer-img" xmlns="http://www.w3.org/2000/svg" xmlns:xlink="http://www.w3.org/1999/xlink" x="0" y="0" viewBox="0 0 760.7 715.8" xml:space="preserve"><style>.st1{fill:#3486fe}.st3,.st5{enable-background:new}.st5{opacity:.2;fill:#3486fe}.st6,.st7{fill:#fff}.st7{opacity:.59;enable-background:new}.st13{fill:#efd9ce}.st14{fill:#c2dbff}.st19{fill:#95bde5}</style><g id="window" class="fliping"><path class="st1" d="M434.1 0C194.3 0 0 80.9 0 180.7V494c0-45.5 40.5-87.1 107.3-118.9 31.4-15 68.7-27.7 110.3-37.7 63.7-15.3 137.6-24 216.4-24s152.7 8.7 216.4 24c40.8 9.8 77.5 22.3 108.5 36.9l1.8.8V61.8C681.2 23.9 564.4 0 434.1 0zM107.3 299.6z"/><linearGradient id="SVGID_1_" gradientUnits="userSpaceOnUse" x1="345.541" y1="390.136" x2="677.717" y2="965.481" gradientTransform="matrix(1 0 0 -1 0 718)"><stop offset="0" stop-color="#4450b6"/><stop offset=".995" stop-color="#242d4f"/></linearGradient><path d="M434.4 0C194.9 0 .7 80.9.7 180.6v313.2c0-45.5 40.5-87.1 107.2-118.9 31.4-15 68.6-27.7 110.2-37.7 63.7-15.3 137.5-24 216.2-24s152.6 8.7 216.2 24c40.8 9.8 77.4 22.3 108.4 36.9l1.8.8V61.7C681.3 23.9 564.5 0 434.4 0zM107.9 299.5z" fill="url(#SVGID_1_)"/><g class="st3"><g class="st3"><defs><path id="SVGID_2_" d="M.4 203.9C.4 98.2 195.8 12.6 436.9 12.6c241 0 436.4 85.7 436.4 191.3v310.2c0-105.7-195.4-191.3-436.4-191.3S.5 408.5.5 514.1C.4 421 .4 296.9.4 203.9z"/></defs><clipPath id="SVGID_3_"><use xlink:href="#SVGID_2_" overflow="visible"/></clipPath><g clip-path="url(#SVGID_3_)"><path class="st5" d="M178.4 168.1c1 .7 1.5 1.8 1.4 3.4 35 17.1 85.2-32.1 72.5-71.2-1.6-4.8-10.9-28.7-42.2-24.5-1 1.6-2 2.3-3.6 2.9-26.4 8.7-36.1 31-39 40.2-2.4 7.9-9.1 35 10.9 49.2z"/><path class="st5" d="M143.4 210.5c39.7-15.8 86.1-28.5 137.1-37.1V44.1c-51 8.6-97.4 21.2-137.1 37.1v129.3zm24.1-108.9c14-24.1 38.9-35.5 42.9-31.1 44.7-6.1 65.4 41.5 35 80.9-15.9 20.6-45.2 36.3-68.4 24.9-.6.4-.8.5-1.2.6-8.9 2.4-33.2-32.3-8.3-75.3zM418 31.7v28.5c6.3-.1 12.6-.2 18.9-.2 13.4 0 26.7.3 39.8.8V32.3c-13.1-.5-26.4-.8-39.8-.8-6.4 0-12.7 0-18.9.2z"/><path class="st1" d="M405.5 80.8v9.6c10.4-.3 20.8-.5 31.4-.5 4.5 0 9 0 13.5.1v-9.6c-4.5-.1-9-.1-13.5-.1-10.6 0-21.1.1-31.4.5z"/><path class="st5" d="M412.7 190.9v101.9c8-.2 16.1-.3 24.2-.3 102.9 0 197.5 15.6 272.1 41.7V232.3c-41.3-13.3-138.1-44.6-296.3-41.4zm86.4 89.9c-.2 1.9-2 1.9-2.2 1.9-1.4-.2-2.1-.9-2.2-2.2v-74.8c.3-2.3 3.1-2.3 4.1-.9.3.4.3.8.4 1.2l-.1 74.8zm35 3c-.3 1.6-1.3 1.9-2.1 1.8-1.9-.4-2.1-1.6-2.2-2.2v-82.2c.4-2.7 3.4-1.8 4.1-.5.1.3.2.7.3 1l-.1 82.1zm34 4.2c-.2 1.9-1.8 1.8-2.1 1.7-1.3-.3-2-1.1-2.1-2.3v-64.7c.2-2.3 2.6-2 3.6-.9.5.6.6 1.1.6 1.5V288zm32.8 5.4c-.2 1.8-1.6 1.7-2 1.7-1.3-.3-1.9-1.1-2.1-2.4v-56.4c.2-2.3 2.5-1.9 3.5-.8.5.6.5 1.1.6 1.5v56.4zm31.5 6.4c-.1 1.5-1.2 1.7-1.9 1.6-1.1-.3-1.9-1.3-1.9-2.5v-16.4c.1-1.9 2-2.1 3.2-.8.7.7.7 1.5.7 1.7l-.1 16.4zm30.2 7.5c-.2 1.8-1.4 1.6-1.8 1.5-1.1-.4-1.8-1.2-1.9-2.5v-46c.2-2.2 2.3-1.8 3.2-.6.5.6.5 1.1.5 1.6v46zm28.6 8.5c-.2 1.9-1.7 1.5-1.8 1.5-1.1-.5-1.7-1.3-1.8-2.6v-61.4c.2-2 1.9-1.7 2.7-.8.7.7.7 1.6.8 1.9l.1 61.4z"/><path class="st1" d="M199.5 313.5c.1 0 .3 0 .4-.1-.1.1-.3.1-.4.1zm-22.5-3.3c6.9 3.4 13.6 4.4 22.5 3.4-8.9 1-15.6 0-22.5-3.4zm0 0zm56.6-104c-9.7-3.7-18.1-2.5-23.2-1.8.6 1.1 1.1 2.5-.1 5 45.1-4.3 56.6 42.5 29.7 75.2-6.5 8-16.7 16.4-28.6 20.8h.4c2.6.1 2.3 2.9 1.1 4.2-.5.5-.9.7-1.3.9 55.9-23 62.4-89 22-104.3zm-22.2 99.2c-5.6-.1-10.5 3.1-16.1 3.2 5.6-.1 11-1.3 16.1-3.2zm.1 5.1c0 .1 0 .1 0 0 0 .1 0 .1 0 0zm0 .1c-1.7.6-3.1 1.1-4.8 1.5 1.7-.5 3.1-.9 4.8-1.5z"/><path class="st6" d="M210.8 305.6c-7.9 2.9-19.7 5.1-31-.4-.3 2.6-1.7 4.1-2.9 4.9 15.1 7.4 38.6 2.5 36.7-3.5-.1-.5-.7-1.7-2.8-1z"/><path class="st7" d="M206.7 203.2c-53.4 17.7-63.2 90-33.7 107.4 3.2 1.9 7.8-2.8 6.7-6.9-.3-1.2-.5-1.3-2.9-3-2.3-1.7-13.9-11.1-12.1-33.7 1.3-15.7 9.5-32.2 21.4-43 8.3-7.5 16-10 20.5-11.6.4-.1 1.5-.5 2.5-1.5 3.9-3.9 1.5-8.9-2.4-7.7z"/><path class="st1" d="M177 176.4zm0 0c6.9 3.4 13.6 4.4 22.5 3.4-8.9 1-15.6 0-22.5-3.4zm23.2 3.3h.2-.2zm11.2-8.1c-5.6-.1-10.5 3.1-16.1 3.2 5.6-.1 11-1.3 16.1-3.2zm22.2-99.2c-9.7-3.7-18.1-2.5-23.2-1.8.6 1.1 1.1 2.5-.1 5 45.1-4.3 56.6 42.5 29.7 75.2-6.5 8-16.7 16.4-28.6 20.8h.4c2.6.1 2.3 2.9 1.1 4.2-.5.5-.9.7-1.3.9 55.9-22.9 62.4-88.9 22-104.3zm-22.1 104.4zm-10 2.7zm-.7.1h.2-.2zm10.7-2.8c-1.7.6-3.1 1.1-4.8 1.5 1.7-.4 3.1-.9 4.8-1.5z"/><path class="st6" d="M210.8 171.9c-7.9 2.9-19.7 5.1-31-.4-.3 2.6-1.7 4.1-2.9 4.9 15.1 7.4 38.6 2.4 36.7-3.5-.1-.6-.7-1.8-2.8-1z"/><path class="st7" d="M206.7 69.4c-53.4 17.7-63.2 90-33.7 107.4 3.2 1.9 7.8-2.8 6.7-6.9-.3-1.2-.5-1.3-2.9-3-2.3-1.7-13.9-11.1-12.1-33.7 1.3-15.7 9.5-32.2 21.4-43 8.3-7.5 16-10 20.5-11.6.4-.1 1.5-.5 2.5-1.5 3.9-3.9 1.5-8.8-2.4-7.7z"/><path class="st1" d="M68.2 143.7c-.2.4-.4.7-.6 1.1.2-.4.4-.8.6-1.1zm-.6 1.1c-.1.3-.3.5-.4.8.1-.3.3-.6.4-.8zm-.7 1.4c-.2.4-.5.9-.7 1.3.2-.5.5-.9.7-1.3zm.3-.6l-.3.6.3-.6zm1.2-2.3c-.1.1-.1.2-.2.4.1-.1.2-.3.2-.4zm1.5-2.5c-.1.1-.1.2-.2.3.1-.1.1-.2.2-.3zm-.5.9c-.3.5-.6 1-.9 1.6.2-.5.6-1.1.9-1.6zm9.2-16.9c-3.3 3.1-5.8 6-8.8 10.3 3-4.2 5.5-7.2 8.8-10.3zm-15 28.5c-.2.4-.3.7-.5 1.1.2-.4.4-.8.5-1.1zm-.4 1.1c-.3.7-.6 1.5-.9 2.2.3-.8.6-1.5.9-2.2zm.9-2.4c-.2.4-.4.8-.5 1.3.2-.5.4-.9.5-1.3zm43.2 45.8c-24.8 36.1-45 32.9-50.2 9-1.7-7.7-3.3-24.4 4.8-49.1-.8 2.1-2 2.5-2.5 1.5-.3-.6-.2-1.5.1-2.8-14.1 44.2-5.5 86.4 24.3 70.6 6.3-3.4 16-10.8 26.1-26.9-1 .1-2.1-.1-2.6-2.3zm-42.1-48.2c-.3.6-.5 1.1-.8 1.7.3-.6.5-1.1.8-1.7zm-.8 1.7c-.1.2-.2.4-.3.7.1-.2.2-.5.3-.7zm1.7-3.7c-.3.6-.6 1.2-.8 1.7.3-.5.6-1.1.8-1.7zm-.8 1.8c0 .1-.1.1-.1.2 0-.1.1-.1.1-.2zm.9-1.9c0 .1-.1.1-.1.2.1-.1.1-.2.1-.2z"/><path class="st6" d="M80.1 123.5c-13.2 11-23.5 35.4-20.1 36.2.1 0 1.1.2 1.9-2.2 2.3-6.6 5.2-12.5 8.6-17.7 3.3-4.9 6.2-8.3 10-11.5-1-1.3-.8-3.3-.4-4.8z"/><path class="st7" d="M84.8 118.1c-7.9 4.8-4.6 10.7-3.3 10.8.7.1 1.3-.3 1.7-.6 9.3-6.3 16.8-4.4 19.6-3.2 6.6 2.7 11.7 9.4 14 18.4 2.6 9.9 3.1 26.5-8.5 49.8-1.9 3.8-.9 7.4 1.9 6.9 7.8-1.5 27.2-53.5 5.6-77.9-3.9-4.5-14.7-13.6-31-4.2z"/><path class="st1" d="M82 277.5c-1.6 1.4-3.1 3-4.6 4.7 1.7-1.5 3.9-2.3 4.6-4.7zm-5.3 5.5c-1.4 1.7-3.4 4.6-5.5 8.5 0 .1-3.1 6.2-3.6 8.6 2.4-6.7 5.7-12.9 9.8-17.9-.2.2-.5.5-.7.8zm-3.5 9.1c.2-.3.3-.5.5-.8-.1.2-.3.5-.5.8zm3.3-5.2l-.1.1s.1 0 .1-.1zm.2-.2z"/><path class="st1" d="M100.1 327.5c-12.8 15.3-15 18.1-22.5 18-10.2-.2-12.1-13-12.5-18.6-.6-9.6 1.7-23.4 8.1-34.9-1.3 2.4-2.5 4.8-3.5 7.4-1.6 4.1-2.2 1.3-2.2 1.3 0-.2 0-.4.1-.6-7.7 21.7-5.9 47.8 8.1 49 6.4.6 16.5-4.5 26-20.3-.6.1-1.2 0-1.6-1.3zm-25.4-37.9c.6-.9 1.1-1.7 1.7-2.6-.6.9-1.2 1.8-1.7 2.6zm-1 1.6c.3-.5.6-1.1 1-1.6-.4.6-.7 1.1-1 1.6z"/><path class="st6" d="M82 277.5c-9.5 8.1-16.6 24-13.8 24.2.7.1 1.1-1 1.6-2.3 1.7-4.5 5.7-12.9 12.5-18.7-.7-.8-.6-2.2-.3-3.2z"/><path class="st7" d="M85.2 273.9c-5.5 3.3-3.1 7.2-2.2 7.3.5.1.8-.2 1.2-.4 6.1-4.1 10.7-3.1 13-2.2 4.3 1.8 7.6 6.2 9.1 12.2 1.7 6.6 2 17.8-5.5 33.5-1.4 2.9-.3 4.9 1.1 4.6 5.6-1.1 17-37.1 3.8-52.4-2.7-2.9-9.6-8.9-20.5-2.6z"/><path d="M689.5 251.8c-1.1-.2-1.7.3-1.8 1.5v61.4c.2 2.4 2.4 3.2 3.2 2.1.2-.3.3-.8.3-1v-61.4c-.2-2.1-1.6-2.6-1.7-2.6zm-28.8 7c-1.1-.2-1.7.3-1.8 1.5v46c.2 2.6 2.6 3.1 3.4 2 .2-.3.3-.7.3-1v-45.9c-.2-2.1-1.7-2.5-1.9-2.6zm-30.2 22.1c-1.1-.2-1.9.4-1.9 1.6V299c.1 2.1 2.4 3.2 3.4 2.1.4-.4.4-.9.4-1.2v-16.4c0-1.6-1.2-2.4-1.9-2.6zm-31.6-46.3c-1.2-.1-1.9.5-2 1.7v56.4c.3 2.6 2.9 2.9 3.7 1.8.3-.4.3-.7.3-1.1V237c-.2-2-1.9-2.3-2-2.4zM566 221.1c-1.3 0-2 .5-2.1 1.7v64.7c.3 2.5 3 2.8 3.9 1.7.3-.4.3-.8.4-1.1v-64.7c-.3-2.1-2-2.3-2.2-2.3zm-34.1-21.7c-1.3 0-2 .6-2.1 1.8v82.2c.5 2.8 3.4 2.5 4.1 1.4.2-.2.2-.6.3-.9v-82.2c-.4-2-1.7-2.3-2.3-2.3zm-35 4.4c-2 .1-2.2 1.4-2.2 1.9v74.8c.3 2.5 3.3 2.7 4.2 1.2.2-.2.2-.6.3-.9V206c-.3-2.1-2.3-2.2-2.3-2.2z" opacity=".73" fill="#fff"/><path d="M302.8 164.1c9.8-1.5 18.5-3.4 29.6-7.8 10.1-4 10.1-4 14.3-9.7-16.4 8.7-26.7 12.2-43.9 14.8v2.7zm370-49.8c-.8.4-1.2.6-2 1.1 11.8 13.4 22.5 20.9 38.2 26.7v-2.7c-15-5.5-25.1-12.6-36.2-25.1zm-265.4 12.5c-36 1.7-54.7 16.4-58.5 21.3 11-3.7 20.3-10.9 31.4-14.5 4.4-1.4 13.8-3.8 27.1-4.2 15.7-.5 24.8 1.9 28.2 2.9 10.2 2.7 18.8 8.9 28.7 12.3-.6-.7-16.8-19-56.9-17.8zm228.4-64.1c-9.9-10.3-20.6-13.4-26-14.4-23.7-2.8-37 12.7-59.7 46.2-20.9 31-40.7 60.2-83 48.1 3.3 7.4 31.6 7.4 50.2-4.8 6.4-4.2 6.4-4.2 47.9-59.7C586.4 49.8 600.7 47.5 617 53c6.4 2.2 14 7.6 19.8 14.3 12.2 14.1 20.4 31.1 32.1 45.6.6-.3 1.4-.8 2-1.1-12.7-15.6-21-34.4-35.1-49.1z" fill="#72abfe"/><path class="st7" d="M689 107.8c-4.9-.2-9.4 1-11 1.3-15.5 3.8-24.3 18.5-39 23.7-20.5 7.2-41.7-4.8-62.1 2.4-13.8 4.8-22.2 17.5-35 23.8-8 3.9-49.6 21-84.5-28.3-11-15.5-26-36.6-54.7-31.8-48.4 8.1-51.8 72.1-99.9 80.5v2.7c48-8.6 51.7-72.5 100.2-80.6 26.7-4.5 41 15.6 50.4 28.8 39.7 55.8 84.3 34.4 92.9 29.6 11.3-6.4 19.3-17.7 32-22.1 20.5-7 41.7 4.8 62.2-2.4 14.1-5 22.5-19.3 37.4-23.1 1.1-.3 2.6-.7 3.7-1 0 0 4.4-.9 8.5-.7 7.2.3 12 1.5 18.8 3.7v-2.7c-3.5-1.1-10.7-3.5-17.4-3.8-.7.1-1.7 0-2.5 0z"/><path class="st1" d="M206.7 235.5c-24.5 8-31.3 40.3-15.4 49.6 17.8 10.4 44.7-13.4 39.9-35.5-2.4-11.2-13-17.3-24.5-14.1z"/><path class="st5" d="M302.8 51c31.8-4.5 65.1-7.4 99.6-8.6V32.1c-34.5 1.2-67.9 4.1-99.6 8.6V51zm0 18.8c31.8-4.5 65.1-7.4 99.6-8.6V50.8c-34.5 1.2-67.9 4.1-99.6 8.6v10.4zm0 18.7c17.1-2.4 34.6-4.4 52.5-5.9V72.3c-17.9 1.5-35.5 3.4-52.5 5.9v10.3z"/></g></g><g class="st3"><defs><path id="SVGID_4_" d="M873.3 203.9v310.2c0 105.7-195.4 191.3-436.4 191.3S.5 619.7.5 514.1V203.9c0 105.7 195.4 191.3 436.4 191.3s436.4-85.7 436.4-191.3z"/></defs><clipPath id="SVGID_5_"><use xlink:href="#SVGID_4_" overflow="visible"/></clipPath><g clip-path="url(#SVGID_5_)"><path class="st1" d="M14.2 290.1v10.4c8.4 14.3 20.5 27.9 35.7 40.7v-10.4c-15.2-12.8-27.3-26.4-35.7-40.7zm0 18.8v10.3c8.4 14.3 20.5 27.9 35.7 40.7v-10.3c-15.2-12.8-27.3-26.5-35.7-40.7zm0 18.7v10.3c8.4 14.3 20.5 27.9 35.7 40.7v-10.3c-15.2-12.8-27.3-26.4-35.7-40.7zm0 40.1V378c14 20.6 14.4 21 35.7 40.7v-10.4c-15.2-12.7-27.3-26.4-35.7-40.6zm0 18.7v10.4c8.4 14.3 20.5 27.9 35.7 40.7v-10.4c-15.2-12.8-27.3-26.4-35.7-40.7zm7.3 29.7v10.4c8.5 11.3 8.9 11.6 28.4 29.7v-10.4c-11.2-9.4-20.8-19.4-28.4-29.7zM3.1 435.7V446c6.1 24.1 22.4 46.8 46.9 67.4V503c-24.6-20.5-40.8-43.2-46.9-67.3zm0 18.7v10.4c6.1 24.1 22.4 46.8 46.9 67.4v-10.4c-24.6-20.6-40.8-43.3-46.9-67.4zm18.4 56.5v10.4c7.6 10.3 17.1 20.2 28.4 29.7v-10.4c-11.2-9.5-20.8-19.4-28.4-29.7z"/></g></g></g><linearGradient id="SVGID_6_" gradientUnits="userSpaceOnUse" x1="0" y1="320.65" x2="108.5" y2="320.65" gradientTransform="matrix(1 0 0 -1 0 718)"><stop offset="0" stop-color="#304296"/><stop offset="1" stop-color="#2a3b84"/></linearGradient><path d="M0 182.9v310.9c0 45.2 40.9 86.5 108.5 118V301C41 269.4 0 228.1 0 182.9z" opacity=".88" fill="url(#SVGID_6_)"/></g><g id="girl" class="levitation"><path class="st13" d="M285.1 165.6c-4.7.5-12.8 3.8-16.9 2.4-4.1-1.4-7.2-5.3-11.6-6.8s-9.6 1.8-.7 4.9c8.8 3.1 16.7 20.8 11.4 21.3-5.3.6-6.5.7-7.4 3.1-.8 2.4 18.2 1.6 28 12.5l15.1-10.6s-8-6.2-10.2-10.6c-2-4.5-2.9-16.7-7.7-16.2zM253.6 305c-1.9 2-1.7 6.1-.8 7.9 1 1.8-11.5-1.7-20-4.1s-21.9 2-23 3.7c-1.1 1.6 1.3 5.9 11.4 3 0 0-5.1 4.6-7.9 8-2.7 3.4 3.6 16.2 10.2 14.1 6.6-2.1 16.3-.3 22.8.5 6.5.9 18.7.9 18.7.9l6.6-18.5c-7.9-3.2-16.1-17.5-18-15.5z"/><path id="SVGID_7_" class="st14" d="M737 658.4c-.1-.1-.2-.1-.3-.2-.6-.9-1.4-1.8-2.4-2.6-6.8-5.9-26.5-18.5-26.5-18.5l-20.7 14c11.6 13.9 5.6 30 1.3 37.5-4.4 7.5-13.4 11.2-14.4 22.2s22.8 1.3 31.1-5.6c7.8-6.5 10.6-20 20.7-27.3 2 1.7 4.7 4.1 6.5 5.7 3 2.8 13.4-7.4 12.1-9.8-1.6-3.2-4.8-12.6-7.4-15.4z"/><defs><path id="SVGID_8_" d="M737 658.4c-.1-.1-.2-.1-.3-.2-.6-.9-1.4-1.8-2.4-2.6-6.8-5.9-26.5-18.5-26.5-18.5l-20.7 14c11.6 13.9 5.6 30 1.3 37.5-4.4 7.5-13.4 11.2-14.4 22.2s22.8 1.3 31.1-5.6c7.8-6.5 10.6-20 20.7-27.3 2 1.7 4.7 4.1 6.5 5.7 3 2.8 13.4-7.4 12.1-9.8-1.6-3.2-4.8-12.6-7.4-15.4z"/></defs><clipPath id="SVGID_10_"><use xlink:href="#SVGID_8_" overflow="visible"/></clipPath><path d="M697.3 649.2c11.9 24.4 1.6 40.6-4.2 46.6s-27 13.1-27 13.1l19.5 27.5 90.5-64.7-70.1-53.2-8.7 30.7z" clip-path="url(#SVGID_10_)" fill="#91beff"/><path id="SVGID_9_" class="st13" d="M522.8 431.5c16.4 78.1 23.6 79.6 36.7 92.9 15.6 15.9 38.1 33.8 40.3 36.5 2.3 2.7 75.3 73.5 87.3 90.2 6.1 8.4 23.7-9.3 20.7-14-8.8-14-45.2-79.7-58.1-97.2-12.9-17.5-48.9-36.6-58.2-45.3-9.3-8.6-2.4-89.8-2.3-104.4.3-37.1-31.4-36.6-59.3-59.6-27.9-22.9-15.9 59-7.1 100.9z"/><defs><path id="SVGID_12_" d="M522.8 431.5c16.4 78.1 23.6 79.6 36.7 92.9 15.6 15.9 38.1 33.8 40.3 36.5 2.3 2.7 75.3 73.5 87.3 90.2 6.1 8.4 23.7-9.3 20.7-14-8.8-14-45.2-79.7-58.1-97.2-12.9-17.5-48.9-36.6-58.2-45.3-9.3-8.6-2.4-89.8-2.3-104.4.3-37.1-31.4-36.6-59.3-59.6-27.9-22.9-15.9 59-7.1 100.9z"/></defs><clipPath id="SVGID_14_"><use xlink:href="#SVGID_12_" overflow="visible"/></clipPath><path d="M646.6 371.4c-13.1-13.3-46.9-12.2-47.2 24.9-.1 12.7-36.2 64.8-39 97.1-.6 7.1 3.6 13.8 10.4 16.2 33.8 12.3 62.2 35.9 74.1 52 12.9 17.5 49.3 83.2 58.1 97.2 3 4.7 63.6-19.6 57.5-28-12.1-16.7-98.3-243.6-113.9-259.4z" clip-path="url(#SVGID_14_)" fill="#efd9ce"/><path id="SVGID_11_" d="M671.8 555.2c16.8-.1 37.8 20.6 43.1 37.9 2.1 6.7 3.6 29.9 11.7 24.2 11.6-8.1 10.1-40.4 2.5-55.6-4.8-9.7-3.7-7-.1-17 3.9-10.7.8-16.4-13.6-14.3-13.8 2-40.8 1.1-40.8 1.1L663.7 543l8.1 12.2z" fill="#f7fbff"/><defs><path id="SVGID_16_" d="M671.8 555.2c16.8-.1 37.8 20.6 43.1 37.9 2.1 6.7 3.6 29.9 11.7 24.2 11.6-8.1 10.1-40.4 2.5-55.6-4.8-9.7-3.7-7-.1-17 3.9-10.7.8-16.4-13.6-14.3-13.8 2-40.8 1.1-40.8 1.1L663.7 543l8.1 12.2z"/></defs><clipPath id="SVGID_17_"><use xlink:href="#SVGID_16_" overflow="visible"/></clipPath><g clip-path="url(#SVGID_17_)"><path class="st19" d="M720.5 560.1c.1 9.2 5.2 33.4 2.5 48.7-3.2 18.8 21.5 8.8 24.3 10.1s3.2-13.6 3.2-13.6l-3.9-56.6-26.4-3.6c-.6 6.5.3 12.1.3 15z"/></g><defs><path id="SVGID_18_" d="M671.8 555.2c16.8-.1 37.8 20.6 43.1 37.9 2.1 6.7 3.6 29.9 11.7 24.2 11.6-8.1 10.1-40.4 2.5-55.6-4.8-9.7-3.7-7-.1-17 3.9-10.7.8-16.4-13.6-14.3-13.8 2-40.8 1.1-40.8 1.1L663.7 543l8.1 12.2z"/></defs><clipPath id="SVGID_20_"><use xlink:href="#SVGID_18_" overflow="visible"/></clipPath><path d="M732.8 508.3c-13.8 2-68.7 20.2-68.7 20.2l-10.9 11.6 11.2 18.7c13-6.3 48.3 25 38.5 53.5-6.6 19.2 11.9 41.9 57.9 19.5 5.7 5.2-21.5-124.5-28-123.5z" clip-path="url(#SVGID_20_)" fill="#91beff"/><path id="SVGID_13_" class="st13" d="M575.7 328.4c52.2 29.9-42.7 207.4-27.9 203.9 14.8-3.4 21.6-11.5 63.6-9s53 7.6 63.2 8.2c-8.1 8.7-2.8 23.8-2.8 23.8-7.6-.5-86.9 12.8-113.8 16.9s-43.1 6.5-55 .9c-24.5-11.7-9.1-173.6-9.1-173.6l81.8-71.1z"/><defs><path id="SVGID_22_" d="M575.7 328.4c52.2 29.9-42.7 207.4-27.9 203.9 14.8-3.4 21.6-11.5 63.6-9s53 7.6 63.2 8.2c-8.1 8.7-2.8 23.8-2.8 23.8-7.6-.5-86.9 12.8-113.8 16.9s-43.1 6.5-55 .9c-24.5-11.7-9.1-173.6-9.1-173.6l81.8-71.1z"/></defs><clipPath id="SVGID_23_"><use xlink:href="#SVGID_22_" overflow="visible"/></clipPath><path d="M529.3 324.9c55.2 60.6 23.5 134.2 20.4 145.5-3.1 11.3-4.3 10.4-11 16.9s-20.1 13.2-21.2 16.7c-1 3.5 2.1 46.7 5.7 49.4 6.1 4.6 6.8 3.2 30.9 11.5 35.4 12.2 172.4 52.3 172.4 52.3l26.3-55.1-90.7-225.4-105.4-58.1-27.4 46.3z" clip-path="url(#SVGID_23_)" fill="#efd9ce"/><linearGradient id="SVGID_24_" gradientUnits="userSpaceOnUse" x1="287.254" y1="486.302" x2="389" y2="486.302" gradientTransform="matrix(1 0 0 -1 0 718)"><stop offset="0" stop-color="#1e2b43"/><stop offset=".995" stop-color="#243161"/></linearGradient><path id="SVGID_15_" d="M309.2 197.1c-12.9-12.9-19.5-3.7-21.8 2.1-2.2 5.9 21 27.7 33.5 45.2 12.5 17.6 25.7 29.1 32.1 28.4 6.4-.6 28.9-8.6 28.9-8.6L389 228s-23 14.2-29.7 10.2c-8.6-5.1-50.1-41.1-50.1-41.1z" fill="url(#SVGID_24_)"/><defs><path id="SVGID_25_" d="M309.2 197.1c-12.9-12.9-19.5-3.7-21.8 2.1-2.2 5.9 21 27.7 33.5 45.2 12.5 17.6 25.7 29.1 32.1 28.4 6.4-.6 28.9-8.6 28.9-8.6L389 228s-23 14.2-29.7 10.2c-8.6-5.1-50.1-41.1-50.1-41.1z"/></defs><clipPath id="SVGID_26_"><use xlink:href="#SVGID_25_" overflow="visible"/></clipPath><linearGradient id="SVGID_27_" gradientUnits="userSpaceOnUse" x1="252.4" y1="549.578" x2="460.3" y2="549.578" gradientTransform="matrix(1 0 0 -1 0 718)"><stop offset="0" stop-color="#1e2b43"/><stop offset=".995" stop-color="#243161"/></linearGradient><path d="M252.4 218l27.3-27.5c8.1 4.8 18.6 14.8 39.5 35.2 27.3 26.7 38.8 30 43.8 29.5s42.7-12.6 42.7-12.6l54.6-11.4L315 81.6 252.4 218z" clip-path="url(#SVGID_26_)" fill="url(#SVGID_27_)"/><path id="SVGID_19_" class="st13" d="M395.2 212.7s1.8-1.1 4.6-10.8c1.5-5.2-8-21.1-10.6-29.8s10.4-23.5 16.9-18.8c6.6 4.6 27.3 22.4 33.9 20.4 6.6-1.9 10.7-2.7 21.4 13.5 9.1 13.7-4.9 29-18.8 23.4s-34.3-4.1-43.7-.8l-3.7 2.9z"/><defs><path id="SVGID_28_" d="M395.2 212.7s1.8-1.1 4.6-10.8c1.5-5.2-8-21.1-10.6-29.8s10.4-23.5 16.9-18.8c6.6 4.6 27.3 22.4 33.9 20.4 6.6-1.9 10.7-2.7 21.4 13.5 9.1 13.7-4.9 29-18.8 23.4s-34.3-4.1-43.7-.8l-3.7 2.9z"/></defs><clipPath id="SVGID_29_"><use xlink:href="#SVGID_28_" overflow="visible"/></clipPath><path d="M396.2 149l-12.4 3.2-6.4 15.3 16.8 7.1c11.2 7 22.9 31.9 13 40-10.1 8.3 63.7 1.3 63.7 1.3l1.4-34.5s-24.9 6.3-37.2 4.5c-20.6-3.1-38.9-36.9-38.9-36.9z" clip-path="url(#SVGID_29_)" fill="#efd9ce"/><linearGradient id="SVGID_30_" gradientUnits="userSpaceOnUse" x1="260.487" y1="363.178" x2="641.3" y2="363.178" gradientTransform="matrix(1 0 0 -1 0 718)"><stop offset="0" stop-color="#1e2b43"/><stop offset=".995" stop-color="#243161"/></linearGradient><path id="SVGID_21_" d="M270.6 317.7c10.5 1.9 55.1-1.3 78 6 5.6 1.8 12.2-24.3 17-38.9s5-51.9 20.1-64.7c9.3-7.8 13.1-10 20.6-15.8 10-7.7 23.9-9.1 35.3-16.8 3.1-2.1-2.7-13.2.1-14.2 13.2-4.7 30.4-2.9 41.8 4.7 11.4 7.6 29.7 22.7 41.3 53.8 11.5 31 6.1 53.3 36.5 73.6 32.5 21.6 41 60.5 56.3 106.7 8.5 25.6 23.7 58.9 23.7 58.9-7.9 23-68.2-5.9-95.4 37.8-31.2 50.1-101.1 24.1-110 17.5-73.3-53.3 14.9-61.1 36.8-126.7 2.4-7.2 9.8-42 10.1-50.4 1-26.4-21.8-41.8-34.9-44.2-16.6-3.1-23.6-11.1-26-17.7-5.7-15.2-5-16.9-5-16.9-1 7.1-21.6 37.6-28.2 51.4s-12.3 22.9-13.9 26.4c-1.7 3.5-2 9.6-23.7 5.7-11.7-2.1-66.1-8.9-81-12.3-12.8-2.8-13-26.3.5-23.9z" fill="url(#SVGID_30_)"/><defs><path id="SVGID_31_" d="M270.6 317.7c10.5 1.9 55.1-1.3 78 6 5.6 1.8 12.2-24.3 17-38.9s5-51.9 20.1-64.7c9.3-7.8 13.1-10 20.6-15.8 10-7.7 23.9-9.1 35.3-16.8 3.1-2.1-2.7-13.2.1-14.2 13.2-4.7 30.4-2.9 41.8 4.7 11.4 7.6 29.7 22.7 41.3 53.8 11.5 31 6.1 53.3 36.5 73.6 32.5 21.6 41 60.5 56.3 106.7 8.5 25.6 23.7 58.9 23.7 58.9-7.9 23-68.2-5.9-95.4 37.8-31.2 50.1-101.1 24.1-110 17.5-73.3-53.3 14.9-61.1 36.8-126.7 2.4-7.2 9.8-42 10.1-50.4 1-26.4-21.8-41.8-34.9-44.2-16.6-3.1-23.6-11.1-26-17.7-5.7-15.2-5-16.9-5-16.9-1 7.1-21.6 37.6-28.2 51.4s-12.3 22.9-13.9 26.4c-1.7 3.5-2 9.6-23.7 5.7-11.7-2.1-66.1-8.9-81-12.3-12.8-2.8-13-26.3.5-23.9z"/></defs><clipPath id="SVGID_32_"><use xlink:href="#SVGID_31_" overflow="visible"/></clipPath><g clip-path="url(#SVGID_32_)"><linearGradient id="SVGID_33_" gradientUnits="userSpaceOnUse" x1="385.7" y1="497.8" x2="385.7" y2="497.8" gradientTransform="matrix(1 0 0 -1 0 718)"><stop offset="0" stop-color="#1e2b43"/><stop offset=".995" stop-color="#243161"/></linearGradient></g><defs><path id="SVGID_34_" d="M270.6 317.7c10.5 1.9 55.1-1.3 78 6 5.6 1.8 12.2-24.3 17-38.9s5-51.9 20.1-64.7c9.3-7.8 13.1-10 20.6-15.8 10-7.7 23.9-9.1 35.3-16.8 3.1-2.1-2.7-13.2.1-14.2 13.2-4.7 30.4-2.9 41.8 4.7 11.4 7.6 29.7 22.7 41.3 53.8 11.5 31 6.1 53.3 36.5 73.6 32.5 21.6 41 60.5 56.3 106.7 8.5 25.6 23.7 58.9 23.7 58.9-7.9 23-68.2-5.9-95.4 37.8-31.2 50.1-101.1 24.1-110 17.5-73.3-53.3 14.9-61.1 36.8-126.7 2.4-7.2 9.8-42 10.1-50.4 1-26.4-21.8-41.8-34.9-44.2-16.6-3.1-23.6-11.1-26-17.7-5.7-15.2-5-16.9-5-16.9-1 7.1-21.6 37.6-28.2 51.4s-12.3 22.9-13.9 26.4c-1.7 3.5-2 9.6-23.7 5.7-11.7-2.1-66.1-8.9-81-12.3-12.8-2.8-13-26.3.5-23.9z"/></defs><clipPath id="SVGID_35_"><use xlink:href="#SVGID_34_" overflow="visible"/></clipPath><linearGradient id="SVGID_36_" gradientUnits="userSpaceOnUse" x1="423.315" y1="532.8" x2="423.791" y2="532.8" gradientTransform="matrix(1 0 0 -1 0 718)"><stop offset="0" stop-color="#1e2b43"/><stop offset=".995" stop-color="#243161"/></linearGradient><path d="M423.8 185.1c-.2.1-.3.1-.5.2.2-.1.3-.1.5-.2z" clip-path="url(#SVGID_35_)" fill="url(#SVGID_36_)"/><defs><path id="SVGID_37_" d="M270.6 317.7c10.5 1.9 55.1-1.3 78 6 5.6 1.8 12.2-24.3 17-38.9s5-51.9 20.1-64.7c9.3-7.8 13.1-10 20.6-15.8 10-7.7 23.9-9.1 35.3-16.8 3.1-2.1-2.7-13.2.1-14.2 13.2-4.7 30.4-2.9 41.8 4.7 11.4 7.6 29.7 22.7 41.3 53.8 11.5 31 6.1 53.3 36.5 73.6 32.5 21.6 41 60.5 56.3 106.7 8.5 25.6 23.7 58.9 23.7 58.9-7.9 23-68.2-5.9-95.4 37.8-31.2 50.1-101.1 24.1-110 17.5-73.3-53.3 14.9-61.1 36.8-126.7 2.4-7.2 9.8-42 10.1-50.4 1-26.4-21.8-41.8-34.9-44.2-16.6-3.1-23.6-11.1-26-17.7-5.7-15.2-5-16.9-5-16.9-1 7.1-21.6 37.6-28.2 51.4s-12.3 22.9-13.9 26.4c-1.7 3.5-2 9.6-23.7 5.7-11.7-2.1-66.1-8.9-81-12.3-12.8-2.8-13-26.3.5-23.9z"/></defs><clipPath id="SVGID_38_"><use xlink:href="#SVGID_37_" overflow="visible"/></clipPath><linearGradient id="SVGID_39_" gradientUnits="userSpaceOnUse" x1="423.079" y1="532.65" x2="423.315" y2="532.65" gradientTransform="matrix(1 0 0 -1 0 718)"><stop offset="0" stop-color="#1e2b43"/><stop offset=".995" stop-color="#243161"/></linearGradient><path d="M423.3 185.3c-.1 0-.2.1-.2.1.1 0 .1-.1.2-.1z" clip-path="url(#SVGID_38_)" fill="url(#SVGID_39_)"/><defs><path id="SVGID_40_" d="M270.6 317.7c10.5 1.9 55.1-1.3 78 6 5.6 1.8 12.2-24.3 17-38.9s5-51.9 20.1-64.7c9.3-7.8 13.1-10 20.6-15.8 10-7.7 23.9-9.1 35.3-16.8 3.1-2.1-2.7-13.2.1-14.2 13.2-4.7 30.4-2.9 41.8 4.7 11.4 7.6 29.7 22.7 41.3 53.8 11.5 31 6.1 53.3 36.5 73.6 32.5 21.6 41 60.5 56.3 106.7 8.5 25.6 23.7 58.9 23.7 58.9-7.9 23-68.2-5.9-95.4 37.8-31.2 50.1-101.1 24.1-110 17.5-73.3-53.3 14.9-61.1 36.8-126.7 2.4-7.2 9.8-42 10.1-50.4 1-26.4-21.8-41.8-34.9-44.2-16.6-3.1-23.6-11.1-26-17.7-5.7-15.2-5-16.9-5-16.9-1 7.1-21.6 37.6-28.2 51.4s-12.3 22.9-13.9 26.4c-1.7 3.5-2 9.6-23.7 5.7-11.7-2.1-66.1-8.9-81-12.3-12.8-2.8-13-26.3.5-23.9z"/></defs><clipPath id="SVGID_41_"><use xlink:href="#SVGID_40_" overflow="visible"/></clipPath><linearGradient id="SVGID_42_" gradientUnits="userSpaceOnUse" x1="423.791" y1="532.95" x2="424.12" y2="532.95" gradientTransform="matrix(1 0 0 -1 0 718)"><stop offset="0" stop-color="#1e2b43"/><stop offset=".995" stop-color="#243161"/></linearGradient><path d="M424.1 185c-.1 0-.2.1-.3.1.1-.1.2-.1.3-.1z" clip-path="url(#SVGID_41_)" fill="url(#SVGID_42_)"/><defs><path id="SVGID_43_" d="M270.6 317.7c10.5 1.9 55.1-1.3 78 6 5.6 1.8 12.2-24.3 17-38.9s5-51.9 20.1-64.7c9.3-7.8 13.1-10 20.6-15.8 10-7.7 23.9-9.1 35.3-16.8 3.1-2.1-2.7-13.2.1-14.2 13.2-4.7 30.4-2.9 41.8 4.7 11.4 7.6 29.7 22.7 41.3 53.8 11.5 31 6.1 53.3 36.5 73.6 32.5 21.6 41 60.5 56.3 106.7 8.5 25.6 23.7 58.9 23.7 58.9-7.9 23-68.2-5.9-95.4 37.8-31.2 50.1-101.1 24.1-110 17.5-73.3-53.3 14.9-61.1 36.8-126.7 2.4-7.2 9.8-42 10.1-50.4 1-26.4-21.8-41.8-34.9-44.2-16.6-3.1-23.6-11.1-26-17.7-5.7-15.2-5-16.9-5-16.9-1 7.1-21.6 37.6-28.2 51.4s-12.3 22.9-13.9 26.4c-1.7 3.5-2 9.6-23.7 5.7-11.7-2.1-66.1-8.9-81-12.3-12.8-2.8-13-26.3.5-23.9z"/></defs><clipPath id="SVGID_44_"><use xlink:href="#SVGID_43_" overflow="visible"/></clipPath><linearGradient id="SVGID_45_" gradientUnits="userSpaceOnUse" x1="420.882" y1="532.15" x2="423.079" y2="532.15" gradientTransform="matrix(1 0 0 -1 0 718)"><stop offset="0" stop-color="#1e2b43"/><stop offset=".995" stop-color="#243161"/></linearGradient><path d="M423.1 185.4c-.9.4-1.6.7-2.2.9.7-.3 1.5-.6 2.2-.9z" clip-path="url(#SVGID_44_)" fill="url(#SVGID_45_)"/><defs><path id="SVGID_46_" d="M270.6 317.7c10.5 1.9 55.1-1.3 78 6 5.6 1.8 12.2-24.3 17-38.9s5-51.9 20.1-64.7c9.3-7.8 13.1-10 20.6-15.8 10-7.7 23.9-9.1 35.3-16.8 3.1-2.1-2.7-13.2.1-14.2 13.2-4.7 30.4-2.9 41.8 4.7 11.4 7.6 29.7 22.7 41.3 53.8 11.5 31 6.1 53.3 36.5 73.6 32.5 21.6 41 60.5 56.3 106.7 8.5 25.6 23.7 58.9 23.7 58.9-7.9 23-68.2-5.9-95.4 37.8-31.2 50.1-101.1 24.1-110 17.5-73.3-53.3 14.9-61.1 36.8-126.7 2.4-7.2 9.8-42 10.1-50.4 1-26.4-21.8-41.8-34.9-44.2-16.6-3.1-23.6-11.1-26-17.7-5.7-15.2-5-16.9-5-16.9-1 7.1-21.6 37.6-28.2 51.4s-12.3 22.9-13.9 26.4c-1.7 3.5-2 9.6-23.7 5.7-11.7-2.1-66.1-8.9-81-12.3-12.8-2.8-13-26.3.5-23.9z"/></defs><clipPath id="SVGID_47_"><use xlink:href="#SVGID_46_" overflow="visible"/></clipPath><linearGradient id="SVGID_48_" gradientUnits="userSpaceOnUse" x1="424.406" y1="533.15" x2="424.584" y2="533.15" gradientTransform="matrix(1 0 0 -1 0 718)"><stop offset="0" stop-color="#1e2b43"/><stop offset=".995" stop-color="#243161"/></linearGradient><path d="M424.6 184.8s-.1 0-.2.1c.1-.1.1-.1.2-.1z" clip-path="url(#SVGID_47_)" fill="url(#SVGID_48_)"/><defs><path id="SVGID_49_" d="M270.6 317.7c10.5 1.9 55.1-1.3 78 6 5.6 1.8 12.2-24.3 17-38.9s5-51.9 20.1-64.7c9.3-7.8 13.1-10 20.6-15.8 10-7.7 23.9-9.1 35.3-16.8 3.1-2.1-2.7-13.2.1-14.2 13.2-4.7 30.4-2.9 41.8 4.7 11.4 7.6 29.7 22.7 41.3 53.8 11.5 31 6.1 53.3 36.5 73.6 32.5 21.6 41 60.5 56.3 106.7 8.5 25.6 23.7 58.9 23.7 58.9-7.9 23-68.2-5.9-95.4 37.8-31.2 50.1-101.1 24.1-110 17.5-73.3-53.3 14.9-61.1 36.8-126.7 2.4-7.2 9.8-42 10.1-50.4 1-26.4-21.8-41.8-34.9-44.2-16.6-3.1-23.6-11.1-26-17.7-5.7-15.2-5-16.9-5-16.9-1 7.1-21.6 37.6-28.2 51.4s-12.3 22.9-13.9 26.4c-1.7 3.5-2 9.6-23.7 5.7-11.7-2.1-66.1-8.9-81-12.3-12.8-2.8-13-26.3.5-23.9z"/></defs><clipPath id="SVGID_51_"><use xlink:href="#SVGID_49_" overflow="visible"/></clipPath><linearGradient id="SVGID_52_" gradientUnits="userSpaceOnUse" x1="424.12" y1="533.15" x2="424.406" y2="533.15" gradientTransform="matrix(1 0 0 -1 0 718)"><stop offset="0" stop-color="#1e2b43"/><stop offset=".995" stop-color="#243161"/></linearGradient><path d="M424.4 184.8c-.1 0-.2.1-.3.1.1 0 .2 0 .3-.1z" clip-path="url(#SVGID_51_)" fill="url(#SVGID_52_)"/><defs><path id="SVGID_53_" d="M270.6 317.7c10.5 1.9 55.1-1.3 78 6 5.6 1.8 12.2-24.3 17-38.9s5-51.9 20.1-64.7c9.3-7.8 13.1-10 20.6-15.8 10-7.7 23.9-9.1 35.3-16.8 3.1-2.1-2.7-13.2.1-14.2 13.2-4.7 30.4-2.9 41.8 4.7 11.4 7.6 29.7 22.7 41.3 53.8 11.5 31 6.1 53.3 36.5 73.6 32.5 21.6 41 60.5 56.3 106.7 8.5 25.6 23.7 58.9 23.7 58.9-7.9 23-68.2-5.9-95.4 37.8-31.2 50.1-101.1 24.1-110 17.5-73.3-53.3 14.9-61.1 36.8-126.7 2.4-7.2 9.8-42 10.1-50.4 1-26.4-21.8-41.8-34.9-44.2-16.6-3.1-23.6-11.1-26-17.7-5.7-15.2-5-16.9-5-16.9-1 7.1-21.6 37.6-28.2 51.4s-12.3 22.9-13.9 26.4c-1.7 3.5-2 9.6-23.7 5.7-11.7-2.1-66.1-8.9-81-12.3-12.8-2.8-13-26.3.5-23.9z"/></defs><clipPath id="SVGID_55_"><use xlink:href="#SVGID_53_" overflow="visible"/></clipPath><linearGradient id="SVGID_56_" gradientUnits="userSpaceOnUse" x1="419.296" y1="531.125" x2="419.528" y2="531.125" gradientTransform="matrix(1 0 0 -1 0 718)"><stop offset="0" stop-color="#1e2b43"/><stop offset=".995" stop-color="#243161"/></linearGradient><path d="M419.5 186.8c-.3.2-.3.2 0 0z" clip-path="url(#SVGID_55_)" fill="url(#SVGID_56_)"/><defs><path id="SVGID_57_" d="M270.6 317.7c10.5 1.9 55.1-1.3 78 6 5.6 1.8 12.2-24.3 17-38.9s5-51.9 20.1-64.7c9.3-7.8 13.1-10 20.6-15.8 10-7.7 23.9-9.1 35.3-16.8 3.1-2.1-2.7-13.2.1-14.2 13.2-4.7 30.4-2.9 41.8 4.7 11.4 7.6 29.7 22.7 41.3 53.8 11.5 31 6.1 53.3 36.5 73.6 32.5 21.6 41 60.5 56.3 106.7 8.5 25.6 23.7 58.9 23.7 58.9-7.9 23-68.2-5.9-95.4 37.8-31.2 50.1-101.1 24.1-110 17.5-73.3-53.3 14.9-61.1 36.8-126.7 2.4-7.2 9.8-42 10.1-50.4 1-26.4-21.8-41.8-34.9-44.2-16.6-3.1-23.6-11.1-26-17.7-5.7-15.2-5-16.9-5-16.9-1 7.1-21.6 37.6-28.2 51.4s-12.3 22.9-13.9 26.4c-1.7 3.5-2 9.6-23.7 5.7-11.7-2.1-66.1-8.9-81-12.3-12.8-2.8-13-26.3.5-23.9z"/></defs><clipPath id="SVGID_58_"><use xlink:href="#SVGID_57_" overflow="visible"/></clipPath><linearGradient id="SVGID_59_" gradientUnits="userSpaceOnUse" x1="419.528" y1="531.2" x2="419.594" y2="531.2" gradientTransform="matrix(1 0 0 -1 0 718)"><stop offset="0" stop-color="#1e2b43"/><stop offset=".995" stop-color="#243161"/></linearGradient><path d="M419.6 186.8s-.1 0 0 0c-.1 0 0 0 0 0z" clip-path="url(#SVGID_58_)" fill="url(#SVGID_59_)"/><defs><path id="SVGID_60_" d="M270.6 317.7c10.5 1.9 55.1-1.3 78 6 5.6 1.8 12.2-24.3 17-38.9s5-51.9 20.1-64.7c9.3-7.8 13.1-10 20.6-15.8 10-7.7 23.9-9.1 35.3-16.8 3.1-2.1-2.7-13.2.1-14.2 13.2-4.7 30.4-2.9 41.8 4.7 11.4 7.6 29.7 22.7 41.3 53.8 11.5 31 6.1 53.3 36.5 73.6 32.5 21.6 41 60.5 56.3 106.7 8.5 25.6 23.7 58.9 23.7 58.9-7.9 23-68.2-5.9-95.4 37.8-31.2 50.1-101.1 24.1-110 17.5-73.3-53.3 14.9-61.1 36.8-126.7 2.4-7.2 9.8-42 10.1-50.4 1-26.4-21.8-41.8-34.9-44.2-16.6-3.1-23.6-11.1-26-17.7-5.7-15.2-5-16.9-5-16.9-1 7.1-21.6 37.6-28.2 51.4s-12.3 22.9-13.9 26.4c-1.7 3.5-2 9.6-23.7 5.7-11.7-2.1-66.1-8.9-81-12.3-12.8-2.8-13-26.3.5-23.9z"/></defs><clipPath id="SVGID_61_"><use xlink:href="#SVGID_60_" overflow="visible"/></clipPath><linearGradient id="SVGID_62_" gradientUnits="userSpaceOnUse" x1="420.497" y1="531.6" x2="420.882" y2="531.6" gradientTransform="matrix(1 0 0 -1 0 718)"><stop offset="0" stop-color="#1e2b43"/><stop offset=".995" stop-color="#243161"/></linearGradient><path d="M420.9 186.3c-.1.1-.3.1-.4.2.1-.1.2-.2.4-.2z" clip-path="url(#SVGID_61_)" fill="url(#SVGID_62_)"/><defs><path id="SVGID_63_" d="M270.6 317.7c10.5 1.9 55.1-1.3 78 6 5.6 1.8 12.2-24.3 17-38.9s5-51.9 20.1-64.7c9.3-7.8 13.1-10 20.6-15.8 10-7.7 23.9-9.1 35.3-16.8 3.1-2.1-2.7-13.2.1-14.2 13.2-4.7 30.4-2.9 41.8 4.7 11.4 7.6 29.7 22.7 41.3 53.8 11.5 31 6.1 53.3 36.5 73.6 32.5 21.6 41 60.5 56.3 106.7 8.5 25.6 23.7 58.9 23.7 58.9-7.9 23-68.2-5.9-95.4 37.8-31.2 50.1-101.1 24.1-110 17.5-73.3-53.3 14.9-61.1 36.8-126.7 2.4-7.2 9.8-42 10.1-50.4 1-26.4-21.8-41.8-34.9-44.2-16.6-3.1-23.6-11.1-26-17.7-5.7-15.2-5-16.9-5-16.9-1 7.1-21.6 37.6-28.2 51.4s-12.3 22.9-13.9 26.4c-1.7 3.5-2 9.6-23.7 5.7-11.7-2.1-66.1-8.9-81-12.3-12.8-2.8-13-26.3.5-23.9z"/></defs><clipPath id="SVGID_64_"><use xlink:href="#SVGID_63_" overflow="visible"/></clipPath><linearGradient id="SVGID_65_" gradientUnits="userSpaceOnUse" x1="248.916" y1="344.812" x2="707.679" y2="344.812" gradientTransform="matrix(1 0 0 -1 0 718)"><stop offset="0" stop-color="#1e2b43"/><stop offset=".995" stop-color="#243161"/></linearGradient><path d="M552 214.3c14.6-14.5-77.9-49.8-127.4-29.6l-14.1 15.8s-1.9 10.5-21.4 27.4c-10.1 8.8-15.8 48.9-17.4 54.7-1.6 5.7-4.8 51.7-17.6 59.2s-95.6-11.9-104.7-6.1c-9.1 5.8 113 59.4 113 59.4s37.2-49.7 54.6-124.6c2.1-9.3 4.5 23.8 29.8 23.9 44.1.1 52.2 11.5 57.6 25.2 10.4 26.5 35 45.4-13.8 100-28.9 32.4-53 157.6-42 147.6 10-9 74.3-12.4 97.5-58.3 22.8-45.2 4.4-135.4 53.2-35.1 24.6 50.5 94.3 26.7 106.3 9.9 17.6-24.8-81.3-113.6-117-167.8-46.1-69.7-74.9-63.8-36.6-101.6z" clip-path="url(#SVGID_64_)" fill="url(#SVGID_65_)"/><defs><path id="SVGID_66_" d="M270.6 317.7c10.5 1.9 55.1-1.3 78 6 5.6 1.8 12.2-24.3 17-38.9s5-51.9 20.1-64.7c9.3-7.8 13.1-10 20.6-15.8 10-7.7 23.9-9.1 35.3-16.8 3.1-2.1-2.7-13.2.1-14.2 13.2-4.7 30.4-2.9 41.8 4.7 11.4 7.6 29.7 22.7 41.3 53.8 11.5 31 6.1 53.3 36.5 73.6 32.5 21.6 41 60.5 56.3 106.7 8.5 25.6 23.7 58.9 23.7 58.9-7.9 23-68.2-5.9-95.4 37.8-31.2 50.1-101.1 24.1-110 17.5-73.3-53.3 14.9-61.1 36.8-126.7 2.4-7.2 9.8-42 10.1-50.4 1-26.4-21.8-41.8-34.9-44.2-16.6-3.1-23.6-11.1-26-17.7-5.7-15.2-5-16.9-5-16.9-1 7.1-21.6 37.6-28.2 51.4s-12.3 22.9-13.9 26.4c-1.7 3.5-2 9.6-23.7 5.7-11.7-2.1-66.1-8.9-81-12.3-12.8-2.8-13-26.3.5-23.9z"/></defs><clipPath id="SVGID_67_"><use xlink:href="#SVGID_66_" overflow="visible"/></clipPath><linearGradient id="SVGID_68_" gradientUnits="userSpaceOnUse" x1="419.987" y1="531.5" x2="420.497" y2="531.5" gradientTransform="matrix(1 0 0 -1 0 718)"><stop offset="0" stop-color="#1e2b43"/><stop offset=".995" stop-color="#243161"/></linearGradient><path d="M420.5 186.4c-.2.1-.4.1-.5.2.1 0 .3-.1.5-.2z" clip-path="url(#SVGID_67_)" fill="url(#SVGID_68_)"/><defs><path id="SVGID_69_" d="M270.6 317.7c10.5 1.9 55.1-1.3 78 6 5.6 1.8 12.2-24.3 17-38.9s5-51.9 20.1-64.7c9.3-7.8 13.1-10 20.6-15.8 10-7.7 23.9-9.1 35.3-16.8 3.1-2.1-2.7-13.2.1-14.2 13.2-4.7 30.4-2.9 41.8 4.7 11.4 7.6 29.7 22.7 41.3 53.8 11.5 31 6.1 53.3 36.5 73.6 32.5 21.6 41 60.5 56.3 106.7 8.5 25.6 23.7 58.9 23.7 58.9-7.9 23-68.2-5.9-95.4 37.8-31.2 50.1-101.1 24.1-110 17.5-73.3-53.3 14.9-61.1 36.8-126.7 2.4-7.2 9.8-42 10.1-50.4 1-26.4-21.8-41.8-34.9-44.2-16.6-3.1-23.6-11.1-26-17.7-5.7-15.2-5-16.9-5-16.9-1 7.1-21.6 37.6-28.2 51.4s-12.3 22.9-13.9 26.4c-1.7 3.5-2 9.6-23.7 5.7-11.7-2.1-66.1-8.9-81-12.3-12.8-2.8-13-26.3.5-23.9z"/></defs><clipPath id="SVGID_70_"><use xlink:href="#SVGID_69_" overflow="visible"/></clipPath><linearGradient id="SVGID_71_" gradientUnits="userSpaceOnUse" x1="419.686" y1="531.35" x2="419.987" y2="531.35" gradientTransform="matrix(1 0 0 -1 0 718)"><stop offset="0" stop-color="#1e2b43"/><stop offset=".995" stop-color="#243161"/></linearGradient><path d="M420 186.6c-.1 0-.2.1-.3.1.1 0 .2 0 .3-.1z" clip-path="url(#SVGID_70_)" fill="url(#SVGID_71_)"/><defs><path id="SVGID_72_" d="M270.6 317.7c10.5 1.9 55.1-1.3 78 6 5.6 1.8 12.2-24.3 17-38.9s5-51.9 20.1-64.7c9.3-7.8 13.1-10 20.6-15.8 10-7.7 23.9-9.1 35.3-16.8 3.1-2.1-2.7-13.2.1-14.2 13.2-4.7 30.4-2.9 41.8 4.7 11.4 7.6 29.7 22.7 41.3 53.8 11.5 31 6.1 53.3 36.5 73.6 32.5 21.6 41 60.5 56.3 106.7 8.5 25.6 23.7 58.9 23.7 58.9-7.9 23-68.2-5.9-95.4 37.8-31.2 50.1-101.1 24.1-110 17.5-73.3-53.3 14.9-61.1 36.8-126.7 2.4-7.2 9.8-42 10.1-50.4 1-26.4-21.8-41.8-34.9-44.2-16.6-3.1-23.6-11.1-26-17.7-5.7-15.2-5-16.9-5-16.9-1 7.1-21.6 37.6-28.2 51.4s-12.3 22.9-13.9 26.4c-1.7 3.5-2 9.6-23.7 5.7-11.7-2.1-66.1-8.9-81-12.3-12.8-2.8-13-26.3.5-23.9z"/></defs><clipPath id="SVGID_73_"><use xlink:href="#SVGID_72_" overflow="visible"/></clipPath><linearGradient id="SVGID_74_" gradientUnits="userSpaceOnUse" x1="419.594" y1="531.2" x2="419.686" y2="531.2" gradientTransform="matrix(1 0 0 -1 0 718)"><stop offset="0" stop-color="#1e2b43"/><stop offset=".995" stop-color="#243161"/></linearGradient><path d="M419.7 186.8s-.1 0 0 0c-.1 0 0 0 0 0z" clip-path="url(#SVGID_73_)" fill="url(#SVGID_74_)"/><defs><path id="SVGID_75_" d="M270.6 317.7c10.5 1.9 55.1-1.3 78 6 5.6 1.8 12.2-24.3 17-38.9s5-51.9 20.1-64.7c9.3-7.8 13.1-10 20.6-15.8 10-7.7 23.9-9.1 35.3-16.8 3.1-2.1-2.7-13.2.1-14.2 13.2-4.7 30.4-2.9 41.8 4.7 11.4 7.6 29.7 22.7 41.3 53.8 11.5 31 6.1 53.3 36.5 73.6 32.5 21.6 41 60.5 56.3 106.7 8.5 25.6 23.7 58.9 23.7 58.9-7.9 23-68.2-5.9-95.4 37.8-31.2 50.1-101.1 24.1-110 17.5-73.3-53.3 14.9-61.1 36.8-126.7 2.4-7.2 9.8-42 10.1-50.4 1-26.4-21.8-41.8-34.9-44.2-16.6-3.1-23.6-11.1-26-17.7-5.7-15.2-5-16.9-5-16.9-1 7.1-21.6 37.6-28.2 51.4s-12.3 22.9-13.9 26.4c-1.7 3.5-2 9.6-23.7 5.7-11.7-2.1-66.1-8.9-81-12.3-12.8-2.8-13-26.3.5-23.9z"/></defs><clipPath id="SVGID_76_"><use xlink:href="#SVGID_75_" overflow="visible"/></clipPath><linearGradient id="SVGID_77_" gradientUnits="userSpaceOnUse" x1="423.315" y1="532.8" x2="423.791" y2="532.8" gradientTransform="matrix(1 0 0 -1 0 718)"><stop offset="0" stop-color="#1e2b43"/><stop offset=".995" stop-color="#243161"/></linearGradient><path d="M423.8 185.1c-.2.1-.3.1-.5.2.2-.1.3-.1.5-.2z" clip-path="url(#SVGID_76_)" fill="url(#SVGID_77_)"/><defs><path id="SVGID_78_" d="M270.6 317.7c10.5 1.9 55.1-1.3 78 6 5.6 1.8 12.2-24.3 17-38.9s5-51.9 20.1-64.7c9.3-7.8 13.1-10 20.6-15.8 10-7.7 23.9-9.1 35.3-16.8 3.1-2.1-2.7-13.2.1-14.2 13.2-4.7 30.4-2.9 41.8 4.7 11.4 7.6 29.7 22.7 41.3 53.8 11.5 31 6.1 53.3 36.5 73.6 32.5 21.6 41 60.5 56.3 106.7 8.5 25.6 23.7 58.9 23.7 58.9-7.9 23-68.2-5.9-95.4 37.8-31.2 50.1-101.1 24.1-110 17.5-73.3-53.3 14.9-61.1 36.8-126.7 2.4-7.2 9.8-42 10.1-50.4 1-26.4-21.8-41.8-34.9-44.2-16.6-3.1-23.6-11.1-26-17.7-5.7-15.2-5-16.9-5-16.9-1 7.1-21.6 37.6-28.2 51.4s-12.3 22.9-13.9 26.4c-1.7 3.5-2 9.6-23.7 5.7-11.7-2.1-66.1-8.9-81-12.3-12.8-2.8-13-26.3.5-23.9z"/></defs><clipPath id="SVGID_79_"><use xlink:href="#SVGID_78_" overflow="visible"/></clipPath><linearGradient id="SVGID_80_" gradientUnits="userSpaceOnUse" x1="423.791" y1="532.95" x2="424.12" y2="532.95" gradientTransform="matrix(1 0 0 -1 0 718)"><stop offset="0" stop-color="#1e2b43"/><stop offset=".995" stop-color="#243161"/></linearGradient><path d="M424.1 185c-.1 0-.2.1-.3.1.1-.1.2-.1.3-.1z" clip-path="url(#SVGID_79_)" fill="url(#SVGID_80_)"/><defs><path id="SVGID_81_" d="M270.6 317.7c10.5 1.9 55.1-1.3 78 6 5.6 1.8 12.2-24.3 17-38.9s5-51.9 20.1-64.7c9.3-7.8 13.1-10 20.6-15.8 10-7.7 23.9-9.1 35.3-16.8 3.1-2.1-2.7-13.2.1-14.2 13.2-4.7 30.4-2.9 41.8 4.7 11.4 7.6 29.7 22.7 41.3 53.8 11.5 31 6.1 53.3 36.5 73.6 32.5 21.6 41 60.5 56.3 106.7 8.5 25.6 23.7 58.9 23.7 58.9-7.9 23-68.2-5.9-95.4 37.8-31.2 50.1-101.1 24.1-110 17.5-73.3-53.3 14.9-61.1 36.8-126.7 2.4-7.2 9.8-42 10.1-50.4 1-26.4-21.8-41.8-34.9-44.2-16.6-3.1-23.6-11.1-26-17.7-5.7-15.2-5-16.9-5-16.9-1 7.1-21.6 37.6-28.2 51.4s-12.3 22.9-13.9 26.4c-1.7 3.5-2 9.6-23.7 5.7-11.7-2.1-66.1-8.9-81-12.3-12.8-2.8-13-26.3.5-23.9z"/></defs><clipPath id="SVGID_82_"><use xlink:href="#SVGID_81_" overflow="visible"/></clipPath><linearGradient id="SVGID_83_" gradientUnits="userSpaceOnUse" x1="424.12" y1="533.15" x2="424.406" y2="533.15" gradientTransform="matrix(1 0 0 -1 0 718)"><stop offset="0" stop-color="#1e2b43"/><stop offset=".995" stop-color="#243161"/></linearGradient><path d="M424.4 184.8c-.1 0-.2.1-.3.1.1 0 .2 0 .3-.1z" clip-path="url(#SVGID_82_)" fill="url(#SVGID_83_)"/><defs><path id="SVGID_84_" d="M270.6 317.7c10.5 1.9 55.1-1.3 78 6 5.6 1.8 12.2-24.3 17-38.9s5-51.9 20.1-64.7c9.3-7.8 13.1-10 20.6-15.8 10-7.7 23.9-9.1 35.3-16.8 3.1-2.1-2.7-13.2.1-14.2 13.2-4.7 30.4-2.9 41.8 4.7 11.4 7.6 29.7 22.7 41.3 53.8 11.5 31 6.1 53.3 36.5 73.6 32.5 21.6 41 60.5 56.3 106.7 8.5 25.6 23.7 58.9 23.7 58.9-7.9 23-68.2-5.9-95.4 37.8-31.2 50.1-101.1 24.1-110 17.5-73.3-53.3 14.9-61.1 36.8-126.7 2.4-7.2 9.8-42 10.1-50.4 1-26.4-21.8-41.8-34.9-44.2-16.6-3.1-23.6-11.1-26-17.7-5.7-15.2-5-16.9-5-16.9-1 7.1-21.6 37.6-28.2 51.4s-12.3 22.9-13.9 26.4c-1.7 3.5-2 9.6-23.7 5.7-11.7-2.1-66.1-8.9-81-12.3-12.8-2.8-13-26.3.5-23.9z"/></defs><clipPath id="SVGID_85_"><use xlink:href="#SVGID_84_" overflow="visible"/></clipPath><linearGradient id="SVGID_86_" gradientUnits="userSpaceOnUse" x1="423.079" y1="532.65" x2="423.315" y2="532.65" gradientTransform="matrix(1 0 0 -1 0 718)"><stop offset="0" stop-color="#1e2b43"/><stop offset=".995" stop-color="#243161"/></linearGradient><path d="M423.3 185.3c-.1 0-.2.1-.2.1.1 0 .1-.1.2-.1z" clip-path="url(#SVGID_85_)" fill="url(#SVGID_86_)"/><defs><path id="SVGID_87_" d="M270.6 317.7c10.5 1.9 55.1-1.3 78 6 5.6 1.8 12.2-24.3 17-38.9s5-51.9 20.1-64.7c9.3-7.8 13.1-10 20.6-15.8 10-7.7 23.9-9.1 35.3-16.8 3.1-2.1-2.7-13.2.1-14.2 13.2-4.7 30.4-2.9 41.8 4.7 11.4 7.6 29.7 22.7 41.3 53.8 11.5 31 6.1 53.3 36.5 73.6 32.5 21.6 41 60.5 56.3 106.7 8.5 25.6 23.7 58.9 23.7 58.9-7.9 23-68.2-5.9-95.4 37.8-31.2 50.1-101.1 24.1-110 17.5-73.3-53.3 14.9-61.1 36.8-126.7 2.4-7.2 9.8-42 10.1-50.4 1-26.4-21.8-41.8-34.9-44.2-16.6-3.1-23.6-11.1-26-17.7-5.7-15.2-5-16.9-5-16.9-1 7.1-21.6 37.6-28.2 51.4s-12.3 22.9-13.9 26.4c-1.7 3.5-2 9.6-23.7 5.7-11.7-2.1-66.1-8.9-81-12.3-12.8-2.8-13-26.3.5-23.9z"/></defs><clipPath id="SVGID_88_"><use xlink:href="#SVGID_87_" overflow="visible"/></clipPath><linearGradient id="SVGID_89_" gradientUnits="userSpaceOnUse" x1="424.406" y1="533.15" x2="424.584" y2="533.15" gradientTransform="matrix(1 0 0 -1 0 718)"><stop offset="0" stop-color="#1e2b43"/><stop offset=".995" stop-color="#243161"/></linearGradient><path d="M424.6 184.8s-.1 0-.2.1c.1-.1.1-.1.2-.1z" clip-path="url(#SVGID_88_)" fill="url(#SVGID_89_)"/><defs><path id="SVGID_90_" d="M270.6 317.7c10.5 1.9 55.1-1.3 78 6 5.6 1.8 12.2-24.3 17-38.9s5-51.9 20.1-64.7c9.3-7.8 13.1-10 20.6-15.8 10-7.7 23.9-9.1 35.3-16.8 3.1-2.1-2.7-13.2.1-14.2 13.2-4.7 30.4-2.9 41.8 4.7 11.4 7.6 29.7 22.7 41.3 53.8 11.5 31 6.1 53.3 36.5 73.6 32.5 21.6 41 60.5 56.3 106.7 8.5 25.6 23.7 58.9 23.7 58.9-7.9 23-68.2-5.9-95.4 37.8-31.2 50.1-101.1 24.1-110 17.5-73.3-53.3 14.9-61.1 36.8-126.7 2.4-7.2 9.8-42 10.1-50.4 1-26.4-21.8-41.8-34.9-44.2-16.6-3.1-23.6-11.1-26-17.7-5.7-15.2-5-16.9-5-16.9-1 7.1-21.6 37.6-28.2 51.4s-12.3 22.9-13.9 26.4c-1.7 3.5-2 9.6-23.7 5.7-11.7-2.1-66.1-8.9-81-12.3-12.8-2.8-13-26.3.5-23.9z"/></defs><clipPath id="SVGID_91_"><use xlink:href="#SVGID_90_" overflow="visible"/></clipPath><linearGradient id="SVGID_92_" gradientUnits="userSpaceOnUse" x1="419.594" y1="531.2" x2="419.686" y2="531.2" gradientTransform="matrix(1 0 0 -1 0 718)"><stop offset="0" stop-color="#1e2b43"/><stop offset=".995" stop-color="#243161"/></linearGradient><path d="M419.7 186.8s-.1 0 0 0c-.1 0 0 0 0 0z" clip-path="url(#SVGID_91_)" fill="url(#SVGID_92_)"/><defs><path id="SVGID_93_" d="M270.6 317.7c10.5 1.9 55.1-1.3 78 6 5.6 1.8 12.2-24.3 17-38.9s5-51.9 20.1-64.7c9.3-7.8 13.1-10 20.6-15.8 10-7.7 23.9-9.1 35.3-16.8 3.1-2.1-2.7-13.2.1-14.2 13.2-4.7 30.4-2.9 41.8 4.7 11.4 7.6 29.7 22.7 41.3 53.8 11.5 31 6.1 53.3 36.5 73.6 32.5 21.6 41 60.5 56.3 106.7 8.5 25.6 23.7 58.9 23.7 58.9-7.9 23-68.2-5.9-95.4 37.8-31.2 50.1-101.1 24.1-110 17.5-73.3-53.3 14.9-61.1 36.8-126.7 2.4-7.2 9.8-42 10.1-50.4 1-26.4-21.8-41.8-34.9-44.2-16.6-3.1-23.6-11.1-26-17.7-5.7-15.2-5-16.9-5-16.9-1 7.1-21.6 37.6-28.2 51.4s-12.3 22.9-13.9 26.4c-1.7 3.5-2 9.6-23.7 5.7-11.7-2.1-66.1-8.9-81-12.3-12.8-2.8-13-26.3.5-23.9z"/></defs><clipPath id="SVGID_94_"><use xlink:href="#SVGID_93_" overflow="visible"/></clipPath><linearGradient id="SVGID_95_" gradientUnits="userSpaceOnUse" x1="419.296" y1="531.125" x2="419.528" y2="531.125" gradientTransform="matrix(1 0 0 -1 0 718)"><stop offset="0" stop-color="#1e2b43"/><stop offset=".995" stop-color="#243161"/></linearGradient><path d="M419.5 186.8c-.3.2-.3.2 0 0z" clip-path="url(#SVGID_94_)" fill="url(#SVGID_95_)"/><defs><path id="SVGID_96_" d="M270.6 317.7c10.5 1.9 55.1-1.3 78 6 5.6 1.8 12.2-24.3 17-38.9s5-51.9 20.1-64.7c9.3-7.8 13.1-10 20.6-15.8 10-7.7 23.9-9.1 35.3-16.8 3.1-2.1-2.7-13.2.1-14.2 13.2-4.7 30.4-2.9 41.8 4.7 11.4 7.6 29.7 22.7 41.3 53.8 11.5 31 6.1 53.3 36.5 73.6 32.5 21.6 41 60.5 56.3 106.7 8.5 25.6 23.7 58.9 23.7 58.9-7.9 23-68.2-5.9-95.4 37.8-31.2 50.1-101.1 24.1-110 17.5-73.3-53.3 14.9-61.1 36.8-126.7 2.4-7.2 9.8-42 10.1-50.4 1-26.4-21.8-41.8-34.9-44.2-16.6-3.1-23.6-11.1-26-17.7-5.7-15.2-5-16.9-5-16.9-1 7.1-21.6 37.6-28.2 51.4s-12.3 22.9-13.9 26.4c-1.7 3.5-2 9.6-23.7 5.7-11.7-2.1-66.1-8.9-81-12.3-12.8-2.8-13-26.3.5-23.9z"/></defs><clipPath id="SVGID_97_"><use xlink:href="#SVGID_96_" overflow="visible"/></clipPath><path d="M552 214.3c14.6-14.5-77.9-49.8-127.4-29.6l-14.1 15.8s-1.9 10.5-21.4 27.4c-10.1 8.8-15.8 48.9-17.4 54.7-1.6 5.7-4.8 51.7-17.6 59.2s-95.6-11.9-104.7-6.1c-9.1 5.8 113 59.4 113 59.4s37.2-49.7 54.6-124.6c2.1-9.3 4.5 23.8 29.8 23.9 44.1.1 52.2 11.5 57.6 25.2 10.4 26.5 35 45.4-13.8 100-28.9 32.4-53 157.6-42 147.6 10-9 74.3-12.4 97.5-58.3 22.8-45.2 53.2-35.1 53.2-35.1 24.6 50.5 94.3 26.7 106.3 9.9 17.6-24.8-81.3-113.6-117-167.8-46.1-69.7-74.9-63.8-36.6-101.6z" clip-path="url(#SVGID_97_)" fill="#23305d"/><defs><path id="SVGID_98_" d="M270.6 317.7c10.5 1.9 55.1-1.3 78 6 5.6 1.8 12.2-24.3 17-38.9s5-51.9 20.1-64.7c9.3-7.8 13.1-10 20.6-15.8 10-7.7 23.9-9.1 35.3-16.8 3.1-2.1-2.7-13.2.1-14.2 13.2-4.7 30.4-2.9 41.8 4.7 11.4 7.6 29.7 22.7 41.3 53.8 11.5 31 6.1 53.3 36.5 73.6 32.5 21.6 41 60.5 56.3 106.7 8.5 25.6 23.7 58.9 23.7 58.9-7.9 23-68.2-5.9-95.4 37.8-31.2 50.1-101.1 24.1-110 17.5-73.3-53.3 14.9-61.1 36.8-126.7 2.4-7.2 9.8-42 10.1-50.4 1-26.4-21.8-41.8-34.9-44.2-16.6-3.1-23.6-11.1-26-17.7-5.7-15.2-5-16.9-5-16.9-1 7.1-21.6 37.6-28.2 51.4s-12.3 22.9-13.9 26.4c-1.7 3.5-2 9.6-23.7 5.7-11.7-2.1-66.1-8.9-81-12.3-12.8-2.8-13-26.3.5-23.9z"/></defs><clipPath id="SVGID_99_"><use xlink:href="#SVGID_98_" overflow="visible"/></clipPath><linearGradient id="SVGID_100_" gradientUnits="userSpaceOnUse" x1="420.882" y1="532.15" x2="423.079" y2="532.15" gradientTransform="matrix(1 0 0 -1 0 718)"><stop offset="0" stop-color="#1e2b43"/><stop offset=".995" stop-color="#243161"/></linearGradient><path d="M423.1 185.4c-.9.4-1.6.7-2.2.9.7-.3 1.5-.6 2.2-.9z" clip-path="url(#SVGID_99_)" fill="url(#SVGID_100_)"/><defs><path id="SVGID_101_" d="M270.6 317.7c10.5 1.9 55.1-1.3 78 6 5.6 1.8 12.2-24.3 17-38.9s5-51.9 20.1-64.7c9.3-7.8 13.1-10 20.6-15.8 10-7.7 23.9-9.1 35.3-16.8 3.1-2.1-2.7-13.2.1-14.2 13.2-4.7 30.4-2.9 41.8 4.7 11.4 7.6 29.7 22.7 41.3 53.8 11.5 31 6.1 53.3 36.5 73.6 32.5 21.6 41 60.5 56.3 106.7 8.5 25.6 23.7 58.9 23.7 58.9-7.9 23-68.2-5.9-95.4 37.8-31.2 50.1-101.1 24.1-110 17.5-73.3-53.3 14.9-61.1 36.8-126.7 2.4-7.2 9.8-42 10.1-50.4 1-26.4-21.8-41.8-34.9-44.2-16.6-3.1-23.6-11.1-26-17.7-5.7-15.2-5-16.9-5-16.9-1 7.1-21.6 37.6-28.2 51.4s-12.3 22.9-13.9 26.4c-1.7 3.5-2 9.6-23.7 5.7-11.7-2.1-66.1-8.9-81-12.3-12.8-2.8-13-26.3.5-23.9z"/></defs><clipPath id="SVGID_102_"><use xlink:href="#SVGID_101_" overflow="visible"/></clipPath><linearGradient id="SVGID_103_" gradientUnits="userSpaceOnUse" x1="419.528" y1="531.2" x2="419.594" y2="531.2" gradientTransform="matrix(1 0 0 -1 0 718)"><stop offset="0" stop-color="#1e2b43"/><stop offset=".995" stop-color="#243161"/></linearGradient><path d="M419.6 186.8s-.1 0 0 0c-.1 0 0 0 0 0z" clip-path="url(#SVGID_102_)" fill="url(#SVGID_103_)"/><defs><path id="SVGID_104_" d="M270.6 317.7c10.5 1.9 55.1-1.3 78 6 5.6 1.8 12.2-24.3 17-38.9s5-51.9 20.1-64.7c9.3-7.8 13.1-10 20.6-15.8 10-7.7 23.9-9.1 35.3-16.8 3.1-2.1-2.7-13.2.1-14.2 13.2-4.7 30.4-2.9 41.8 4.7 11.4 7.6 29.7 22.7 41.3 53.8 11.5 31 6.1 53.3 36.5 73.6 32.5 21.6 41 60.5 56.3 106.7 8.5 25.6 23.7 58.9 23.7 58.9-7.9 23-68.2-5.9-95.4 37.8-31.2 50.1-101.1 24.1-110 17.5-73.3-53.3 14.9-61.1 36.8-126.7 2.4-7.2 9.8-42 10.1-50.4 1-26.4-21.8-41.8-34.9-44.2-16.6-3.1-23.6-11.1-26-17.7-5.7-15.2-5-16.9-5-16.9-1 7.1-21.6 37.6-28.2 51.4s-12.3 22.9-13.9 26.4c-1.7 3.5-2 9.6-23.7 5.7-11.7-2.1-66.1-8.9-81-12.3-12.8-2.8-13-26.3.5-23.9z"/></defs><clipPath id="SVGID_105_"><use xlink:href="#SVGID_104_" overflow="visible"/></clipPath><linearGradient id="SVGID_106_" gradientUnits="userSpaceOnUse" x1="419.686" y1="531.35" x2="419.987" y2="531.35" gradientTransform="matrix(1 0 0 -1 0 718)"><stop offset="0" stop-color="#1e2b43"/><stop offset=".995" stop-color="#243161"/></linearGradient><path d="M420 186.6c-.1 0-.2.1-.3.1.1 0 .2 0 .3-.1z" clip-path="url(#SVGID_105_)" fill="url(#SVGID_106_)"/><defs><path id="SVGID_107_" d="M270.6 317.7c10.5 1.9 55.1-1.3 78 6 5.6 1.8 12.2-24.3 17-38.9s5-51.9 20.1-64.7c9.3-7.8 13.1-10 20.6-15.8 10-7.7 23.9-9.1 35.3-16.8 3.1-2.1-2.7-13.2.1-14.2 13.2-4.7 30.4-2.9 41.8 4.7 11.4 7.6 29.7 22.7 41.3 53.8 11.5 31 6.1 53.3 36.5 73.6 32.5 21.6 41 60.5 56.3 106.7 8.5 25.6 23.7 58.9 23.7 58.9-7.9 23-68.2-5.9-95.4 37.8-31.2 50.1-101.1 24.1-110 17.5-73.3-53.3 14.9-61.1 36.8-126.7 2.4-7.2 9.8-42 10.1-50.4 1-26.4-21.8-41.8-34.9-44.2-16.6-3.1-23.6-11.1-26-17.7-5.7-15.2-5-16.9-5-16.9-1 7.1-21.6 37.6-28.2 51.4s-12.3 22.9-13.9 26.4c-1.7 3.5-2 9.6-23.7 5.7-11.7-2.1-66.1-8.9-81-12.3-12.8-2.8-13-26.3.5-23.9z"/></defs><clipPath id="SVGID_108_"><use xlink:href="#SVGID_107_" overflow="visible"/></clipPath><linearGradient id="SVGID_109_" gradientUnits="userSpaceOnUse" x1="420.497" y1="531.6" x2="420.882" y2="531.6" gradientTransform="matrix(1 0 0 -1 0 718)"><stop offset="0" stop-color="#1e2b43"/><stop offset=".995" stop-color="#243161"/></linearGradient><path d="M420.9 186.3c-.1.1-.3.1-.4.2.1-.1.2-.2.4-.2z" clip-path="url(#SVGID_108_)" fill="url(#SVGID_109_)"/><defs><path id="SVGID_110_" d="M270.6 317.7c10.5 1.9 55.1-1.3 78 6 5.6 1.8 12.2-24.3 17-38.9s5-51.9 20.1-64.7c9.3-7.8 13.1-10 20.6-15.8 10-7.7 23.9-9.1 35.3-16.8 3.1-2.1-2.7-13.2.1-14.2 13.2-4.7 30.4-2.9 41.8 4.7 11.4 7.6 29.7 22.7 41.3 53.8 11.5 31 6.1 53.3 36.5 73.6 32.5 21.6 41 60.5 56.3 106.7 8.5 25.6 23.7 58.9 23.7 58.9-7.9 23-68.2-5.9-95.4 37.8-31.2 50.1-101.1 24.1-110 17.5-73.3-53.3 14.9-61.1 36.8-126.7 2.4-7.2 9.8-42 10.1-50.4 1-26.4-21.8-41.8-34.9-44.2-16.6-3.1-23.6-11.1-26-17.7-5.7-15.2-5-16.9-5-16.9-1 7.1-21.6 37.6-28.2 51.4s-12.3 22.9-13.9 26.4c-1.7 3.5-2 9.6-23.7 5.7-11.7-2.1-66.1-8.9-81-12.3-12.8-2.8-13-26.3.5-23.9z"/></defs><clipPath id="SVGID_111_"><use xlink:href="#SVGID_110_" overflow="visible"/></clipPath><linearGradient id="SVGID_112_" gradientUnits="userSpaceOnUse" x1="419.987" y1="531.5" x2="420.497" y2="531.5" gradientTransform="matrix(1 0 0 -1 0 718)"><stop offset="0" stop-color="#1e2b43"/><stop offset=".995" stop-color="#243161"/></linearGradient><path d="M420.5 186.4c-.2.1-.4.1-.5.2.1 0 .3-.1.5-.2z" clip-path="url(#SVGID_111_)" fill="url(#SVGID_112_)"/><linearGradient id="SVGID_113_" gradientUnits="userSpaceOnUse" x1="333.796" y1="566.458" x2="585.243" y2="566.458" gradientTransform="matrix(1 0 0 -1 0 718)"><stop offset="0" stop-color="#e3b331"/><stop offset=".995" stop-color="#f4d53d"/></linearGradient><path id="SVGID_50_" d="M353.8 152c-18.7-6.8-21.2-15.2-19.6-25.7 1.8-11.9 15.5-42.5 46.8-44.6s27.5 2.2 45.4 2.2 44.7-11.1 55.2.6c43.7 48.7 35 14.5 70.9 26 26 8.4 43.8 40.2 24.8 49.3-32.3 15.6-11.1 34.3-25.3 54.6-11.6 16.6-31.3 11.7-76.1-15.9-16.6-10.2-40.4 2-51.7-3.5-15.2-7.5-17.8-10.2-28.8-22.8-6.1-7.1-36.8-18.5-41.6-20.2z" fill="url(#SVGID_113_)"/><linearGradient id="SVGID_114_" gradientUnits="userSpaceOnUse" x1="379.687" y1="622.659" x2="462.496" y2="622.659" gradientTransform="matrix(1 0 0 -1 0 718)"><stop offset="0" stop-color="#ebcc35"/><stop offset=".995" stop-color="#f4d53d" stop-opacity="0"/></linearGradient><path d="M462.3 79.3c2.2 3.2-14.3 32.6-42.1 32.2-27.2-.4-41-29-40.5-29.7.1-.1.2-.1 1.2-.1h1.4c.6 0 1 0 2.1-.1 1.7-.2 2.5-.2 3.5-.4 1.5-.2 4.9-.3 13.2.1 1.3 0 3.4.1 6 .4 4.1.5 5.1 1.1 9.3 1.7 3.3.4 5.9.5 7.6.5 3.4.1 5.9-.1 6.7-.2 2.7-.2 4.6-.5 6.7-.8 5.4-.9 8.2-1.3 13.3-2.1 7.5-1.3 11.3-1.9 11.6-1.5z" fill="url(#SVGID_114_)"/><path id="SVGID_54_" class="st13" d="M379.7 150.9c3.9 3.4 9.2 8.4 7.9 14.8 8.7 3.9 14 13.6 13.4 14.2-8 8.9-10.2 10.8-13.9 12.7-7.8 4.1-23.9-18.1-26.7-22.3-4.4-6.8-1.6-9.3-4.3-16.8-1.5-4.2-8.5-10.1-8.5-10.1 4.4-5.6 5.8-5.4 20.1 7.8 3.7 3.2.2-10.7 12-.3z"/><defs><path id="SVGID_115_" d="M379.7 150.9c3.9 3.4 9.2 8.4 7.9 14.8 8.7 3.9 14 13.6 13.4 14.2-8 8.9-10.2 10.8-13.9 12.7-7.8 4.1-23.9-18.1-26.7-22.3-4.4-6.8-1.6-9.3-4.3-16.8-1.5-4.2-8.5-10.1-8.5-10.1 4.4-5.6 5.8-5.4 20.1 7.8 3.7 3.2.2-10.7 12-.3z"/></defs><clipPath id="SVGID_116_"><use xlink:href="#SVGID_115_" overflow="visible"/></clipPath><path d="M354.4 106.4L336 121.1c4.2 1.7 4.8 14 11.8 22.3 8.5 10.1 17.5 7.3 16 11.6-6.5 19.3 27.5 42.9 43.2 43 74.7.3-51.3-92.3-52.6-91.6z" clip-path="url(#SVGID_116_)" fill="#efd9ce"/><path class="st13" d="M374.9 158.5c1 1.8 3.7 5.5 6.2 5.4 5.7-.2-2.3-10.7-5-12.4-2.7-1.8-5.2.1-1.2 7z"/><path class="st14" d="M726.1 531.1c-3.8-.7-10 20.5-1.8 22.7 2.9.8 7.9-.1 12 .4s8.4-12.2 5.9-13.4c-3.2-1.5-12.3-9-16.1-9.7z"/><path d="M726.1 531.1c-3.8-.7-10 20.5-1.8 22.7 2.9.8 7.9-.1 12 .4s8.4-12.2 5.9-13.4c-3.2-1.5-12.3-9-16.1-9.7z" fill="#91beff"/><path class="st19" d="M736.3 554.3c3.8.8 7.8-10.7 6.3-13-2.8-4.2-8.6 12.5-6.3 13z"/><path class="st1" d="M475.6 324.4l6.4 15.5c32.9 24.4 72.7-39.2 72.7-39.2-3.3-2.5-9.7-10-9.7-10-31.7 49.6-64.1 44.4-69.4 33.7z"/><path d="M475.6 324.4l6.4 15.5c10.6 7.9 21.9 6.6 32.4 1.2l-6.7-13.8c-16.3 7.8-29 3.4-32.1-2.9z" fill="#2848bd"/></g></svg>