<svg version="1.1" id="Layer_1" xmlns="http://www.w3.org/2000/svg" x="0" y="0" viewBox="0 0 1574.2 828.3" xml:space="preserve"><style>.st0{fill:#dfe2ec}.st1{fill:#f5f7f9}.st2{fill:#e6e7e8}.st4{fill:#fff}.st6{fill:#cdcee7}.st8{fill:#b3b5dc}.st10{fill:#2b3161}.st11,.st12{opacity:.16}.st12{fill:#191c3c;enable-background:new}.st13{fill:#edbaa8}.st14,.st15{opacity:.3}.st15{enable-background:new}.st15,.st16{fill:#191c3c}</style><path class="st0" d="M992.5 646.7H691.3c-9.5 0-18.1-5.4-21.8-14l-7.3-15.8h360.1l-7.3 15.8c-4.4 8.6-13 14-22.5 14z"/><path class="st1" d="M997.1 631.8H687.2c-8.2 0-14.5-6.3-14.5-14.5V428c0-8.2 6.3-14.5 14.5-14.5h309.9c8.1 0 14.5 6.3 14.5 14.5v189.3c0 7.7-6.4 14.5-14.5 14.5z"/><path class="st2" d="M842.1 553.4c13.3 0 24-10.7 24-24s-10.8-24-24-24-24 10.7-24 24 10.8 24 24 24z"/><linearGradient id="SVGID_1_" gradientUnits="userSpaceOnUse" x1="809.391" y1="443.356" x2="922.281" y2="443.356" gradientTransform="matrix(1 0 0 -1 0 507.664)"><stop offset="0" stop-color="#0045c1"/><stop offset="1" stop-color="#2f89f2"/></linearGradient><path d="M905.5 76.1h12.2c2.3 0 4.5-1.8 4.5-4.5V56.2c0-2.3-1.8-4.5-4.5-4.5h-9.5c-1.4 0-2.7-.9-3.6-2.3-.5-.9-.9-1.8-.9-2.7-.4-1.4-.4-3.2.9-4.1l6.8-6.8c1.8-1.8 1.8-4.5 0-6.3l-10.9-10.9c-1.8-1.8-4.5-1.8-6.3 0l-6.8 6.8c-.9.9-2.7 1.4-4.1.9-.9-.5-1.8-.9-2.7-1.4-1.4-.5-2.3-1.8-2.3-3.6v-9.1c0-2.3-1.8-4.5-4.5-4.5H858c-2.3 0-4.5 1.8-4.5 4.5v9.5c0 1.4-.9 2.7-2.3 3.6-.9.5-1.8.9-2.7 1.4-1.4.5-3.2.5-4.1-.9l-6.8-6.8c-1.8-1.8-4.5-1.8-6.3 0l-10.9 10.9c-1.8 1.8-1.8 4.5 0 6.3l6.8 6.8c.9.9 1.4 2.7.9 4.1-.4.9-.9 1.8-1.4 2.7-.4 1.4-1.8 2.3-3.6 2.3h-9.5c-2.3 0-4.5 1.8-4.5 4.5V72c0 2.3 1.8 4.5 4.5 4.5h9.5c1.4 0 2.7.9 3.6 2.3.5.9.9 1.8.9 2.7.4 1.4.4 3.2-.9 4.1l-6.8 6.8c-1.8 1.8-1.8 4.5 0 6.3l10.9 10.9c1.8 1.8 4.5 1.8 6.3 0l6.8-6.8c.9-.9 2.7-1.4 4.1-.9.9.5 1.8.9 2.7 1.4 1.4.5 2.3 1.8 2.3 3.6v9.5c0 2.3 1.8 4.5 4.5 4.5h15.4c2.3 0 4.5-1.8 4.5-4.5v-9.5c0-1.4.9-2.7 2.3-3.6.9-.5 1.8-.9 2.7-.9 1.4-.5 3.2-.5 4.1.9l6.8 6.8c1.8 1.8 4.5 1.8 6.3 0l10.9-10.9c1.8-1.8 1.8-4.5 0-6.3l-6.8-6.8c-.9-.9-1.4-2.7-.9-4.1 1.8-2.7 2.7-5.9 2.7-5.9zm-61.1-15.9c2.7-13.6 16.8-21.3 29.4-16.3 9.5 3.6 15.4 14 13.6 24.5-2.7 13.6-16.7 21.3-29.4 16.3-9.5-4.1-15.4-14.5-13.6-24.5z" fill="url(#SVGID_1_)"/><path class="st4" d="M893.3 63.9c0 15.4-12.2 27.6-27.6 27.6-15.4 0-27.6-12.2-27.6-27.6 0-15.4 12.2-27.6 27.6-27.6 15.4-.1 27.6 12.6 27.6 27.6z"/><linearGradient id="SVGID_2_" gradientUnits="userSpaceOnUse" x1="856.741" y1="443.81" x2="874.931" y2="443.81" gradientTransform="matrix(1 0 0 -1 0 507.664)"><stop offset="0" stop-color="#0045c1"/><stop offset="1" stop-color="#2f89f2"/></linearGradient><path d="M865.7 72.9c5 0 9.1-4.1 9.1-9.1s-4.1-9.1-9.1-9.1-9.1 4.1-9.1 9.1c0 5.1 4.1 9.1 9.1 9.1z" fill="url(#SVGID_2_)"/><path class="st6" d="M925 124.5h-11.3c-1.4 0-2.3-.9-2.3-2.3s.9-2.3 2.3-2.3h6.8v-7.2c0-1.4.9-2.3 2.3-2.3s2.3.9 2.3 2.3v11.8zm-115-110c-1.4 0-2.3-.9-2.3-2.3V0H819c1.4 0 2.3.9 2.3 2.3s-.9 2.3-2.3 2.3h-6.8v7.2c0 1.8-.9 2.7-2.2 2.7zM214.7 53v81.5l57.5 57.5c14.9-14.5 24-34.9 24-57.5v-.5c.1-44.8-36.6-81-81.5-81z"/><linearGradient id="SVGID_3_" gradientUnits="userSpaceOnUse" x1="120.949" y1="418.449" x2="202.489" y2="418.449" gradientTransform="matrix(1 0 0 -1 0 507.664)"><stop offset="0" stop-color="#0045c1"/><stop offset="1" stop-color="#2f89f2"/></linearGradient><path d="M145 72.5c-14.9 14.9-24 34.9-24 57.5h81.5V48.5c-22.2.4-42.6 9.5-57.5 24z" fill="url(#SVGID_3_)"/><path class="st8" d="M206.6 142.2H125c0 44.8 36.7 81.5 81.5 81.5 22.7 0 43-9.1 57.5-24l-57.4-57.5z"/><path d="M573.5 101.4v106.4c0 2.3-1.8 3.6-3.6 3.6h-22.7V254c0 1.8-2.3 2.7-3.6 1.4l-45.3-43.9H390.5c-2.3 0-3.6-1.8-3.6-3.6V101.4c0-2.3 1.8-3.6 3.6-3.6h178.9c2.3 0 4.1 1.4 4.1 3.6z" fill="#cbddff"/><path class="st4" d="M554 136.3H407.7c-2.7 0-5-2.3-5-5s2.3-5 5-5H554c2.7 0 5 2.3 5 5s-2.3 5-5 5zm0 23.6H407.7c-2.7 0-5-2.3-5-5s2.3-5 5-5H554c2.7 0 5 2.3 5 5 0 3.2-2.3 5-5 5zm0 24H438c-2.7 0-5-2.3-5-5s2.3-5 5-5h116c2.7 0 5 2.3 5 5s-2.3 5-5 5z"/><path class="st6" d="M929.1 177.1V284c0 2.3 1.8 3.6 3.6 3.6h22.7v42.6c0 1.8 2.3 2.7 3.6 1.4l45.3-43.9h107.4c2.3 0 3.6-1.8 3.6-3.6V177.5c0-2.3-1.8-3.6-3.6-3.6h-179c-2.2-.5-3.6 1.4-3.6 3.2z"/><path class="st4" d="M948.1 212.4h146.3c2.7 0 5-2.3 5-5s-2.3-5-5-5H948.1c-2.7 0-5 2.3-5 5 .5 2.7 2.8 5 5 5zm0 23.5h146.3c2.7 0 5-2.3 5-5s-2.3-5-5-5H948.1c-2.7 0-5 2.3-5 5 .5 2.8 2.8 5 5 5zm0 23.6h116c2.7 0 5-2.3 5-5s-2.3-5-5-5h-116c-2.7 0-5 2.3-5 5 .5 3.2 2.8 5 5 5z"/><path class="st10" d="M647.8 292.1l-101 26.3L526.4 528l28.1 275.8 268.6 5.9L843 536.6l-17.2-216.9-66.1-27.6H647.8z"/><g class="st11"><path class="st12" d="M554.5 526.7c6.8 1.8 17.2 3.6 11.8 0-14.5-9.1-34.4-24.9-46.2-36.2l1.8 17.7c2.3 1.8 4.1 3.6 6.3 5.4-2.3 0-4.5 1.4-5.4 3.2l.9 10c1.4.9 4.1.5 6.8 1.8h-1.8c-1.8-.5-3.6.9-4.5 2.3l.9 8.2c.5.5 1.4.9 1.8 1.8 0 0 .5 0 .5.5-.9.5-1.4 1.4-2.3 2.3L536.4 656c1.8 11.3 2.7 23.1 3.6 34.4l5.9 58.9c2.7 0 5.9-1.8 5.9-5.9 2.3-39.8-.5-78.8-8.6-117.7-5-24-5.9-45.3-5.4-69.3.5-13.1 15.4-1.8 12.7-10 0-1.4-11.3-13.6-11.8-14.9-6-12.5 3.5-8 15.8-4.8z"/></g><path class="st13" d="M591.6 600.5l-15.9-.5-28.1 27.6-55.6-30.7 24-74.7-79.8-13.2-35.8 126.8c-4.1 13.1 5.9 26.7 19.9 26.7l123.2 26.7 34.9 11.3 36.2-11.3 32.6-17.7 3.2-29.9c.5-4.1-2.7-7.3-6.8-7.3h-34.9l-22.2-10.4h5v-23.4z"/><g class="st14"><path class="st15" d="M408.6 566.5l84.3 13.6 5.9-14.9-85.6-14-4.6 15.3z"/></g><path class="st10" d="M571.2 388.1l77-96-121.4 31.2c-29.9 7.7-53.9 29.4-63.9 58.4l-61.2 167.1L514 567.4l57.2-179.3z"/><g class="st11"><path class="st12" d="M838.1 605.5l5-68.8-.5-3.6c-.9 0-1.4-.5-2.3 0-1.4.5-2.3.5-3.6.9 1.4-2.7 3.2-5 5.4-6.8l-.9-12.2c-5 .5 1.4-1.8-3.6-1.4 5-3.6-1.8-5 2.7-9.1l-.9-12.7c-10.4 10-21.8 18.6-34 26.7-4.1 2.7 5 3.2 10 2.7 6.3-.5 5.4 5.4 12.2 5-1.4 4.1-2.3 8.2-3.6 11.8-1.8 3.6.4 7.2 4.5 7.7-.9.9-3.6 9.5-4.5 10.4-4.5 4.1 2.7 3.2 8.2.9 1.4-.4 3.2-.9 4.5-1.8-1.4 1.8-2.7 3.2-4.1 5-1.4 1.4-1.4 3.6-.9 5.4-2.7 2.3-7.7 15.9-10.4 19-3.6 4.1 4.1.5 8.6-3.6 2.3-1.8 4.1-2.7 5.4-4.1-1.4 2.3-2.7 4.5-4.1 6.8-1.3 2.3 1.8 10 3.2 11.3-4.1 9.1-10.4 12.7-14.9 21.7-1.4 2.7-.5 5.4 1.8 6.8 1.8 1.3 3.6 2.3 5 3.6 1.4.9 3.6.9 5 0-3.6 2.3-6.8 48.5-8.6 58-2.3 14-4.1 27.2-3.6 41.7 0 5.4 6.8 6.3 9.5 2.7l8.6-114.6c-1.4-.9-3.2-.9-5 0 1.3.5 3.6-4 5.9-9.4z"/></g><path class="st13" d="M935 508.6l35.8 136.8c4.1 13.1-5.9 26.7-19.9 26.7l-119.6 21.7-34.9 11.3-35.8-11.3-32.6-17.7-3.2-29.9c-.5-4.1 2.7-7.3 6.8-7.3H766l22.2-10.4h-9.5l-11.8 1.8c-7.3.9-13.6-4.5-13.6-11.8l23.1-12.7 23.1-.9 28.1 27.6 52.1-25.8-24-85.1 79.3-13z"/><g class="st14"><path class="st15" d="M948.6 551.1l-85.2 14 4.5 12.2 84.7-14-4-12.2z"/></g><path class="st10" d="M795.9 388.1l-77-96 121.4 31.2c29.9 7.7 53.9 29.4 63.9 58.4l61.2 167.1L853 567.4l-57.1-179.3z"/><path class="st13" d="M690.4 404.4c-27.6 0-49.8-22.2-49.8-49.8v-86.5h99.7v86.5c-.1 27.6-22.3 49.8-49.9 49.8z"/><path class="st16" d="M777.8 183.9c-1.8 25.4-3.2 55.2-28.1 69.3-1.8.9-4.1 2.3-5.9 2.7-1.8.5-3.6.5-5.4 0-7.3-.5-15-2.7-21.3-5.9-2.3-1.4-4.5-2.7-7.3-3.2-8.2-1.8-14.9 6.3-22.2 10.9-13.1 9.1-30.8 7.7-46.2 3.6-8.6-2.3-18.6-7.2-19.9-16.3-.9-4.5.9-9.5-.9-13.6-1.4-3.2-5-5.4-7.7-7.7-6.3-5.4-5.9-15.4-6.3-23.5 0-6.3-.5-12.7-.5-19 0-3.2 0-6.3-.9-9.5-.9-3.6-2.3-7.2-2.7-10.9-.5-4.5 1.8-5.9 3.2-10 1.4-3.2.9-6.8 2.3-10 2.3-3.6 5-6.8 7.7-10.4 3.2-4.5 5.4-10 8.6-14.5 3.2-4.5 7.7-9.1 13.1-10 2.3-.5 4.1-.5 6.3-.9 6.3-1.4 10.9-6.3 15.9-10.4 4.5-4.1 10-7.2 15.8-9.5 4.1-1.4 8.6-2.7 12.7-2.3 5.9.5 11.3 3.6 17.2 3.6 2.7 0 5.4-.9 8.2-1.4 6.8-.5 12.7 4.1 19.5 4.5 17.2 1.4 36.7 17.2 35.8 35.3 0 2.3-.4 4.5.4 6.3 1.4 3.2 4.5 5 5.9 8.2 4.1 6.8-1.8 15.4-.4 23.1.4 2.3 1.4 4.5 1.8 6.8 1.8 5.6 1.3 10.1 1.3 14.7z"/><path class="st13" d="M645.1 270.4s-19.5 2.7-25.4-17.2c0 0-15.4-41.2 0-43 0 0 32.2 20.8 32.2 30.3 0 9-6.8 29.9-6.8 29.9zm101.9 0s19.5 2.7 25.4-17.2c0 0 15.4-41.2 0-43 0 0-32.2 20.8-32.2 30.3 0 9 6.8 29.9 6.8 29.9z"/><path d="M640.5 336.5c5.9 8.2 13.1 14.9 21.7 20.4 9.5 5.9 20.4 8.6 31.3 8.6 10.4 0 20.8-2.7 30.3-8.2l1.8-.9c5.4-3.2 10-6.8 14.5-10.9v-53.4h-99.7v44.4z" opacity=".3" fill="#b79d86"/><path class="st13" d="M725.7 340.6l-1.8.9c-9.1 5.4-19.5 8.2-30.3 8.2s-21.7-3.2-31.3-8.6c-2.3-1.4-14.5-8.6-24-23.1-10.4-16.3-11.8-32.6-11.8-39.9V156.7h136.4v120.5c0 25.8-14.1 50.2-37.2 63.4z"/><path class="st16" d="M774.2 130.4c-2.7-4.1-7.3-6.8-11.3-9.1-43.5-24.5-103.7-14.5-137.3 22.2-4.5 5-9.1 10.9-11.8 17.2-6.3 14.9-3.6 31.7 0 47.1l-2.3.5c4.5-.5 11.3-.5 14.9-2.7 3.2-1.8 5-5.4 5-9.1 0-.9 0-2.3.5-3.2.9-.9 2.7-.5 3.6-.5 3.6.5 7.7-1.4 10-4.1 2.3-3.2 3.2-7.2 1.8-10.9 2.3.9 5.4 0 7.2-1.8 4.5-4.5 1.8-13.1 6.3-17.7 7.2-6.3 12.2 5.4 18.1 9.1 5.4 3.2 13.1 2.7 18.1-1.4-2.7 5.4 1.3 12.2 6.8 14 5.4 1.8 11.8 0 16.8-3.6.5.9.9 2.3 1.4 3.2 22.2 15.4 54.8 24 59.8-12.2 2.3-8.4-2.2-29.7-7.6-37z"/><g class="st14"><path class="st15" d="M694.9 269c-5.9 0-10.4-4.1-11.8-9.1 0 .9-.4 1.8-.4 2.7 0 6.8 5.4 11.8 11.8 11.8 6.8 0 11.8-5.4 11.8-11.8 0-.9 0-1.8-.5-2.7-.5 5-5.5 9.1-10.9 9.1z"/></g><path class="st0" d="M878.4 715.5H500.6c-11.8 0-22.7-6.8-27.6-17.7l-9.5-19.9h451.6l-9.5 19.9c-4.6 10.9-15.5 17.7-27.2 17.7z"/><path class="st1" d="M887.4 696.5H491.5c-8.2 0-14.5-6.3-14.5-14.5V437.5c0-8.2 6.3-14.5 14.5-14.5h395.9c8.1 0 14.5 6.3 14.5 14.5V682c0 8.2-6.3 14.5-14.5 14.5z"/><path class="st2" d="M689.5 598.7c16.8 0 30.3-13.6 30.3-30.3 0-16.8-13.6-30.3-30.3-30.3-16.8 0-30.3 13.6-30.3 30.3-.1 16.7 13.5 30.3 30.3 30.3z"/><path class="st4" d="M1508.5 722.3H54.8v106h1453.7v-106z"/><path class="st0" d="M1508.5 769.9L54.8 745v-43h1453.7v67.9z"/><path class="st4" d="M1574.2 682.9H0v35.8h1574.2v-35.8z"/><linearGradient id="SVGID_4_" gradientUnits="userSpaceOnUse" x1="231.935" y1="-57.968" x2="573.95" y2="-57.968" gradientTransform="matrix(1 0 0 -1 0 507.664)"><stop offset="0" stop-color="#0045c1"/><stop offset="1" stop-color="#2f89f2"/></linearGradient><path d="M572.6 562.9L546.3 548v-30.3c0-2.3-1.8-4.1-4.1-4.1H236c-2.3 0-4.1 1.8-4.1 4.1v96c0 2.3 1.8 4.1 4.1 4.1h306.2c2.3 0 4.1-1.8 4.1-4.1v-30.8l26.3-15c1.8-1.4 1.8-4.1 0-5z" fill="url(#SVGID_4_)"/><path class="st4" d="M464.8 598.2h54.8c3.2 0 5.4-2.3 5.4-5.4V538c0-3.2-2.3-5.4-5.4-5.4h-54.8c-3.2 0-5.4 2.3-5.4 5.4v54.8c-.1 2.7 2.2 5.4 5.4 5.4zm-197.1-48h161.7c3.6 0 6.3-2.7 6.3-6.3 0-3.6-2.7-6.3-6.3-6.3H267.7c-3.6 0-6.3 2.7-6.3 6.3 0 3.6 2.7 6.3 6.3 6.3zm0 24.5h161.7c3.6 0 6.3-2.7 6.3-6.3 0-3.6-2.7-6.3-6.3-6.3H267.7c-3.6 0-6.3 2.7-6.3 6.3 0 3.1 2.7 6.3 6.3 6.3zm53.9 24h107.8c3.6 0 6.3-2.7 6.3-6.3 0-3.6-2.7-6.3-6.3-6.3H321.6c-3.6 0-6.3 2.7-6.3 6.3 0 3.6 3.2 6.3 6.3 6.3z"/><path class="st6" d="M384.6 384l-26.3-14.9v-30.3c0-2.3-1.8-4.1-4.1-4.1H48c-2.3 0-4.1 1.8-4.1 4.1v96c0 2.3 1.8 4.1 4.1 4.1h306.2c2.3 0 4.1-1.8 4.1-4.1v-30.3l26.3-14.9c1.8-1.9 1.8-4.7 0-5.6z"/><path class="st4" d="M276.8 419.4h54.8c3.2 0 5.4-2.3 5.4-5.4v-54.8c0-3.2-2.3-5.4-5.4-5.4h-54.8c-3.2 0-5.4 2.3-5.4 5.4V414c-.1 2.6 2.2 5.4 5.4 5.4zm-197.1-48h162.2c3.6 0 6.3-2.7 6.3-6.3s-2.7-6.3-6.3-6.3H79.7c-3.6 0-6.3 2.7-6.3 6.3s2.7 6.3 6.3 6.3zm0 24.4h162.2c3.6 0 6.3-2.7 6.3-6.3s-2.7-6.3-6.3-6.3H79.7c-3.6 0-6.3 2.7-6.3 6.3 0 3.1 2.7 6.3 6.3 6.3zm54.4 24h107.8c3.6 0 6.3-2.7 6.3-6.3s-2.7-6.3-6.3-6.3H134.1c-3.6 0-6.3 2.7-6.3 6.3s2.7 6.3 6.3 6.3z"/><path class="st6" d="M1272.5 349.6l38.1 37.1v187c0 8.6-7.3 15.9-15.9 15.9h-148.6c-8.6 0-15.9-7.3-15.9-15.9V365.5c0-8.6 7.3-15.9 15.9-15.9h126.4z"/><path class="st8" d="M1272.5 349.6l38.1 37.1h-30.4c-4.1 0-7.7-3.6-7.7-7.7v-29.4z"/><path class="st2" d="M1173.7 413.5h-29.9v29.9h29.9v-29.9z"/><path class="st4" d="M1296 421.2h-105.6c-2.3 0-3.6-1.8-3.6-3.6 0-2.3 1.8-3.6 3.6-3.6H1296c2.3 0 3.6 1.8 3.6 3.6.1 1.8-1.8 3.6-3.6 3.6zm-67.9 18.5h-38c-2.3 0-3.6-1.8-3.6-3.6 0-2.3 1.8-3.6 3.6-3.6h38c2.3 0 3.6 1.8 3.6 3.6s-1.4 3.6-3.6 3.6zm67.9 39.9h-105.6c-2.3 0-3.6-1.8-3.6-3.6 0-2.3 1.8-3.6 3.6-3.6H1296c2.3 0 3.6 1.8 3.6 3.6.1 2.2-1.8 3.6-3.6 3.6zm-67.9 18.6h-38c-2.3 0-3.6-1.8-3.6-3.6 0-2.3 1.8-3.6 3.6-3.6h38c2.3 0 3.6 1.8 3.6 3.6 0 1.7-1.4 3.6-3.6 3.6zm67.9 40.3h-105.6c-2.3 0-3.6-1.8-3.6-3.6 0-2.3 1.8-3.6 3.6-3.6H1296c2.3 0 3.6 1.8 3.6 3.6.1 1.7-1.8 3.6-3.6 3.6zm-67.9 18.5h-38c-2.3 0-3.6-1.8-3.6-3.6 0-2.3 1.8-3.6 3.6-3.6h38c2.3 0 3.6 1.8 3.6 3.6s-1.4 3.6-3.6 3.6z"/><path class="st2" d="M1173.7 470.5h-29.9v29.9h29.9v-29.9zm0 56.6h-29.9V557h29.9v-29.9z"/><path d="M1159.7 440.2l-15.4-15.4 5.4-5.4 10 10.4 26.3-26.7 5.4 5.4-31.7 31.7zm0 55.2l-15.4-15.4 5.4-5.4 10 10 26.3-26.3 5.4 5-31.7 32.1zm0 54.8l-15.4-15.4 5.4-5 10 10 26.3-26.7 5.4 5.4-31.7 31.7z" fill="#8184c4"/></svg>