<svg width="94" height="116" fill="none" xmlns="http://www.w3.org/2000/svg"><path d="M84.946 115.845H8.872c-4.732 0-8.372-3.822-8.372-8.372V95.279c0-19.655 13.65-34.397 31.85-34.397.363 0 .727.182.91.364 0 0 5.823 4.732 13.649 4.732 7.28 0 13.832-4.732 13.832-4.732a1.39 1.39 0 0 1 .91-.364c18.2 0 31.849 14.742 31.849 34.397v12.194c0 4.55-3.822 8.372-8.554 8.372zM31.803 63.794c-16.38.182-28.391 13.285-28.391 31.303v12.194c0 2.912 2.366 5.46 5.46 5.46h76.074c2.912 0 5.46-2.366 5.46-5.46V95.097c0-18.017-11.83-31.121-28.391-31.303-1.638 1.092-8.008 5.096-15.106 5.096-7.826 0-13.468-3.822-15.106-5.096z" fill="#222"/><path d="M54.553 94.915c-.728 0-1.274-.546-1.456-1.092l-3.458-15.47h-4.913l-3.276 15.47c-.182.728-.91 1.274-1.82 1.092-.728-.182-1.274-.91-1.092-1.82l3.458-16.743c.182-.728.728-1.274 1.456-1.274h7.28c.727 0 1.273.546 1.455 1.092l3.64 16.743c.182.728-.364 1.638-1.092 1.82 0 .182-.182.182-.182.182z" fill="#222"/><path d="M47.273 103.287c-.546 0-1.092-.364-1.274-.728-.364-.728-.182-1.638.546-2.002 9.646-5.278 19.656-35.49 19.837-35.853.182-.728 1.093-1.274 1.82-.91.728.182 1.274 1.092.91 1.82-.364 1.274-10.555 31.667-21.111 37.491-.364.182-.546.182-.728.182z" fill="#222"/><path d="M47.273 103.287c-.182 0-.546 0-.728-.182-10.556-5.824-20.748-36.217-21.112-37.491-.182-.728.182-1.638.91-1.82.728-.182 1.638.182 1.82.91.182.364 10.192 30.575 19.838 35.853.728.364.91 1.274.546 2.002-.364.546-.91.728-1.274.728zM63.107 77.08h-.364c-12.74-3.64-15.834-8.19-16.198-8.736-.364-.728-.182-1.638.546-2.002.728-.364 1.638-.182 2.002.364 0 .182 3.094 4.186 14.56 7.462.728.182 1.274 1.092 1.092 1.82-.364.546-.91 1.092-1.638 1.092z" fill="#222"/><path d="M51.095 78.171c-.182 0-.546 0-.728-.181-.728-.364-.91-1.274-.546-2.002l2.548-4.368c.364-.728 1.274-.91 2.002-.546.728.364.91 1.274.546 2.002l-2.548 4.368c-.364.545-.728.727-1.274.727zM31.076 77.08c-.728 0-1.274-.365-1.456-1.093-.182-.728.182-1.638 1.092-1.82 11.647-3.276 14.377-7.461 14.56-7.461.545-.728 1.455-.91 2.001-.364.728.364.91 1.274.364 2.002-.364.546-3.458 5.096-16.197 8.735h-.364z" fill="#222"/><path d="M43.269 78.171c-.546 0-1.092-.182-1.274-.728l-2.548-4.367c-.364-.728-.182-1.638.546-2.002.728-.364 1.638-.182 2.002.546l2.548 4.367c.364.729.181 1.639-.547 2.003-.181.181-.545.181-.727.181zm17.836-14.377c-.728 0-1.274-.364-1.456-1.092L56.737 51.6c-.182-.728.182-1.638 1.092-1.82.728-.182 1.638.182 1.82 1.092l2.912 11.102c.182.728-.182 1.638-1.092 1.82h-.364zm-28.573 0h-.364c-.728-.182-1.274-1.092-1.092-1.82l2.912-11.102c.182-.728 1.092-1.274 1.82-1.092.728.182 1.274 1.092 1.092 1.82l-2.912 11.102c-.182.728-.728 1.092-1.456 1.092z" fill="#222"/><path d="M47.091 58.698c-10.556 0-19.11-13.468-19.11-30.212v-.727c0-.91.728-1.456 1.456-1.456s1.456.727 1.456 1.456v.727c0 14.924 7.28 27.118 16.016 27.118 8.918 0 16.016-12.194 16.016-27.117v-1.638c0-.91.728-1.456 1.456-1.456.91 0 1.456.727 1.456 1.456v1.637c.182 16.744-8.372 30.212-18.746 30.212z" fill="#222"/><path d="M65.836 31.034c-.546 0-1.092-.364-1.456-.91-2.366-5.823-4.732-6.005-13.103-5.46-6.188.364-7.826-.181-13.832-3.093l-.182-.182a1.555 1.555 0 0 0-1.274 0c-2.366.91-4.914 5.642-6.006 8.553-.182.546-.91.91-1.456.91-.728 0-1.274-.546-1.456-1.091C23.613 18.294 25.07 9.922 31.44 4.645l.91 1.092-.91-1.092C35.625 1.187 40.357.277 44.725.095 52.187-.45 57.828 1.37 62.378 5.191c9.828 8.554 4.732 24.024 4.55 24.57.182.91-.364 1.273-1.092 1.273zm-9.828-9.463c4.186 0 7.098.728 9.282 3.822.728-4.732.91-12.74-4.55-17.654-3.822-3.458-8.917-4.914-15.47-4.368-4.55.364-8.19 1.092-11.647 3.822-4.55 3.822-6.006 9.828-4.368 18.018 1.274-2.366 3.276-5.278 5.824-6.37 1.274-.546 2.548-.546 3.64 0l.182.182c6.006 2.73 6.916 3.094 12.376 2.73 1.82-.182 3.276-.182 4.731-.182z" fill="#222"/></svg>