<svg version="1.1" id="_x2014_лой_x5F_1" xmlns="http://www.w3.org/2000/svg" x="0" y="0" viewBox="0 0 1220.8 517.4" xml:space="preserve"><style>.st0{fill:#dee1e2}.st2{fill:#bbcbe3}.st3{fill:#fff}.st9{fill:#233066}.st13{fill:#243166}.st19{fill:#f2dbcf}.st29{fill:#586887}.st34{fill:#e5ebf5}.st35{fill:#cbd5e5}.st37{fill:#f5f8fc}.st38{fill:#bccce3}.st42{fill:#e8f1f5}</style><path class="st0" d="M1220.8 272.3s0-.1 0 0c0-.1 0-.2-.1-.3v-.1s0-.1-.1-.1c0 0 0-.1-.1-.1l-.1-.1-.1-.1s-.1-.1-.2-.1l-.1-.1c-.1 0-.1-.1-.2-.1 0 0-.1 0-.1-.1-.1 0-.2-.1-.3-.1 0 0-.1 0-.1-.1-.2-.1-.3-.1-.5-.2-2.3-.6-4.7-1.3-7.6-1.4-1.2 0-2.5 0-3.9.3-.6.1-1.2.2-1.8.4l-.9.3c-1.3.4-2.6.9-4 1.5-1.1.5-2.2 1-3.4 1.7-2 1.1-4.2 2.5-6.5 4.2-15.1 10.9-20.1 23.1-27.3 28.2-.3.2-.6.5-.9.7-.1 0-.1.1-.2.1-.3.2-.5.4-.8.6l-.1.1c-.5.4-.9.9-1.3 1.3l-.1.1c-.2.2-.3.4-.5.6 0 0 0 .1-.1.1-.3.4-.6.9-.8 1.4v.1c-.1.2-.2.5-.3.7v.1c-.1.3-.2.5-.2.8-.1.3-.1.5-.2.8v.2c0 .3-.1.6-.1.8v.2c0 .3-.1.6-.1.9v.2c0 .3-.1.5-.1.8v.6c-.1 1.1-.2 2.3-.3 3.7-.2 1.7-.4 3.6-.7 5.8-1 6.9 4.3 13.3 2.4 18.4-2 5.1-24.8 71.3-25.5 79.2-.6 6.9-8.5 25.6-10.7 30.5h-6.3c.8-8.7 5.5-61.6 7.3-70.4 1.9-9.5 2.7-23.9 4-26.6 1.3-2.6 15.9-9.1 16.4-14 .2-1.8.5-3.6.2-5.4.2-2.9.4-8.7-12.2-13.2-5-1.8-8.4-2.6-11.3-2.9 0-1.1-.1-2-.1-2.7-.5-9.7-2.6-11.6-2.4-14.7.2-3.1 14.1-9.2 16.6-14.6 2.5-5.4-.6-8.1-.2-9.7.4-1.6 4-16.2-3.4-20.6 0 0-10.5-7.7-18.5-7.1-2.1.2-4.1-.3-6.1-.9v-40.5c0-4.4-.6-8.6-1.7-12.6.2-2.4.4-4.6.6-6.6.5-4.8 2.9-10 5.7-14.6 8 2.1 16.2 3.8 21.5-.6 3.4-2.8-2.4-19.2-6.2-20-3.8-.7-7.8 3.3-16.9 5.1-8.1 1.6-16.9 11.8-18.7 13.9-8.4-7.6-19.6-12.2-31.8-12.2l-227.5.4L892 469.9c-10.2 19.6 4.1 43.1 26.2 43.1h165c1.3 0 2.5-.1 3.8-.3.7.2 1.4.3 2.1.3h48.6c3.8 0 6.8-3.1 6.8-6.9v-.4l-8.3-51.1h-9.6c1.9-4.2 8.4-18.3 11.4-29.8 3.6-13.6 21.1-74.6 28.2-82.6 7-8 27.4-17.6 35.9-26.3s9.9-27.6 11.7-33.4c.2-.6.4-1.2.8-1.7 1.4-2.5 4-4.8 5.4-6.6.1-.1.2-.2.2-.3l.1-.1c.1-.1.1-.2.2-.3 0 0 0-.1.1-.1.1-.1.1-.2.1-.3v-.1c0-.1.1-.2.1-.3v-.1c.1-.2.1-.4.2-.6v-.1c-.2.5-.2.5-.2.4zm-101.4 116.2c.8-4.6 1.2-19.7 1.4-34.7 2.1 3.3 3.1 7.1 2.6 11.9-.8 7.5-4 34.3-6.7 56.8 1-14.8 2-29.7 2.7-34zm-10.8-117.9c7.3 10.6 7.5 20.1 6.7 27.6-.8 7.9 2.2 18.1 2.3 22.6v1.5c-3.2.1-6.2.8-10.8 1.5v-51.2c.5-.7 1.1-1.3 1.8-2zm-15.5-95.5c-.6.5-1.1 1-1.7 1.5-.1-.1-.3-.2-.4-.4.6-.4 1.3-.8 2.1-1.1zm17.6 279.8h-1c-.3-1.7-1.4-8.4-3-18.2v-36.5c.4 5.4.9 10.8 1.6 16.1 2.2 15.8 2.7 26.2 2.8 32.5-.1 2.8-.3 4.9-.4 6.1zm1.4-43.9c-3.4-13.9-4.6-54.1-4-65.9 1-.2 2-.4 3.1-.6 2.1 1.5 4 3 5.7 4.6-.2 6.1-.3 11.6-.3 14.4 0 4.4-1.6 30.3-3.2 53.6-.5-2.2-.9-4.3-1.3-6.1z"/><path fill="#e7e4f5" d="M634.3 268.4h114.4v67.1H634.3z"/><path class="st2" d="M648.5 268.4h-34.6c-9.2 0-16.7 7.5-16.7 16.7v211.5c0 9.2 7.5 16.7 16.7 16.7h34.6c9.2 0 16.7-7.5 16.7-16.7V285.1c0-9.2-7.5-16.7-16.7-16.7z"/><path class="st3" d="M640.5 272.8H610c-8.1 0-14.7 6.6-14.7 14.7v207.4c0 8.1 6.6 14.7 14.7 14.7h30.5c8.1 0 14.7-6.6 14.7-14.7V287.6c.1-8.2-6.5-14.8-14.7-14.8z"/><path class="st2" d="M1009.2 335.5H752.7l53.6-130.3c9.5-23.1 32-38.2 57-38.2l156.9-3c36.1.4 42.4 21.2 39.2 41.1-4.6 28.6-19.5 109.7-19.5 109.7-5.1 12.6-17.2 20.7-30.7 20.7z"/><path class="st3" d="M970.3 335.5H713.7l48.5-133.2c9.5-23.1 32-38.2 57-38.2h201c17.4 0 29.3 17.7 22.6 33.8L1000.9 315c-5.1 12.4-17.2 20.5-30.6 20.5z"/><path class="st2" d="M895 502.2H701.9c-9.2 0-16.7-7.5-16.7-16.7V352.2c0-9.2 7.5-16.7 16.7-16.7H895c9.2 0 16.7 7.5 16.7 16.7v133.3c0 9.2-7.5 16.7-16.7 16.7z"/><path d="M841 502.2H647.9c-9.2 0-16.7-7.5-16.7-16.7V352.2c0-9.2 7.5-16.7 16.7-16.7H841c9.2 0 16.7 7.5 16.7 16.7v133.3c0 9.2-7.5 16.7-16.7 16.7z" fill="#cad5e6"/><path class="st3" d="M832.1 498.9H647.2c-8.8 0-16-7.2-16-16v-128c0-8.8 7.2-16 16-16h184.9c8.8 0 16 7.2 16 16v128c0 8.8-7.1 16-16 16z"/><path class="st0" d="M879.9 164.1c15.8 0 29.8 10.3 34.6 25.4 11.3 36 20.1 70.3 12.2 101.6-9.7 38.7-31.7 44.4-31.7 44.4H762.5l92.9-171.4h24.5z"/><path class="st2" d="M1042.2 513.3H921.6l-.9-244.9h121.6c8.8 0 15.9 7.1 15.9 15.9l.9 212.1c0 9.3-7.6 16.9-16.9 16.9z"/><path d="M934.9 268.4h-34.6c-9.2 0-16.7 7.5-16.7 16.7l.9 211.5c0 9.2 7.5 16.7 16.7 16.7h34.6c9.2 0 16.7-7.5 16.7-16.7l-.9-211.5c0-9.2-7.5-16.7-16.7-16.7z" fill="#ccd6e7"/><path class="st3" d="M926.9 272.8h-30.5c-8.1 0-14.7 6.6-14.7 14.7l.9 207.4c0 8.1 6.6 14.7 14.7 14.7h30.5c8.1 0 14.7-6.6 14.7-14.7l-.9-207.4c0-8.1-6.6-14.7-14.7-14.7z"/><path d="M768.5 336.3c-70.1-4.7-70.6 49.8-76.9 95.1-6.3 45.3-27.3 38.8-27.3 38.8l-21-93.3s-20.6 37.9-31 32.5c-10.1-5.3 7.8-64 7.8-64l58.4-23 90 13.9z" fill="#959da8"/><path d="M1008.2 229.5c-6 1.2-14.5.7-16.2-6.7-1.7-7.4-1.7-16.1 14.5-20.8 8-2.3 14.9-16.1 14.1-26.7-.9-10.5-2.2-10.8-4.5-13.1-1.5-1.5 1.8-3.7 8.7-26.6 10.2-34.1-5-46.6-17.3-48.6s-26.5-6.5-29.2-17.4c-2.7-10.9 1.6-17.1 0-24.3-1.6-7.2-8 4.6-10.3 7.2-2.3 2.6-10.8 2-11.1-1.9-.4-4-.3-18.6-7.7-8.8-2.8 3.7-4.3 8.1-4.9 12.9v.3c0 .4-.1.7-.1 1.1v.3c0 .4-.1.8-.1 1.1v6.4c0 .4 0 .8.1 1.2v.2c.1 1 .2 2 .3 2.9v.3c0 .4.1.8.1 1.1v.4c0 .4.1.8.2 1.1v.3c.1 1 .3 1.9.4 2.9 0 .1 0 .2.1.4.1.3.1.7.2 1 0 .1 0 .3.1.4.1.3.1.7.2 1 0 .1 0 .2.1.4.1.4.2.9.2 1.3 2.1 11.6 9.1 21.4 13.3 32.1.3.7.6 1.4.8 2.1.1.4.3.8.4 1.2 0 .1.1.2.1.3.1.3.2.6.3 1 0 .1 0 .2.1.3.1.4.2.7.2 1.1 0 .1 0 .2.1.3.1.4.1.8.2 1.2 2.2 14-.4 38.7-4 38.5-8.1-.6-6.5 7.4-4 7.4h9.9c5.7 0 9-35.3 9-35.3s8.4 23.9 4.6 26.1c-3.8 2.1-3.1 9.4 0 9.2 3.1-.2 14.5.2 21.6.2 12 0 25.9 21.7 6.3 30.1-19.6 8.4-23 31.3-15.7 38.1 7.3 6.8 17.4 4.7 20.6 3.6 3.2-1 4.4-8.1-1.7-6.8zm-46.7-111.1z" fill="#dedee2"/><path d="M787.4 26.6c-14.3-8.3-14.1 25.8-6.9 39.3 14.3 26.9-3.8 17.2 5.9 28 11.3 12.5-12.4 34.8-12.4 34.8L845.9 94s-13.5-33.2-19.8-39.3c-6.4-6-38.7-28.1-38.7-28.1z" fill="#1e273b"/><path class="st9" d="M697.5 291.1c-44.8 0-71.7 10-87.8 12.6-11.2 1.8-13.9 14.8-17 20.7-5.7 10.4-44.4 155.5-59.2 164.6-14.6 8.9-23.4 16.3-12.6 19.7 8.9 2.8 18.5 5.1 26.8-3.1 8.3-8.3 13.1-12.5 22.7-18.8 11.3-7.5 0-26.1 2.4-31.1s49.4-59.1 50.2-75.7c1.1-21.9 22.6-40.7 98.4-43.4 70.3-2.7-23.9-45.5-23.9-45.5z"/><path d="M520.8 508.6c8.9 2.8 18.5 5.1 26.8-3.1 8.3-8.3 13.1-12.5 22.7-18.8 9.2-6.1 3.5-19.5 2.3-27-8.8 4.1-7.9 9.2-13.8 22.1-5.9 12.9-27.1 15.7-25.3 7.2-14.7 8.8-23.5 16.3-12.7 19.6z" fill="#373d77"/><linearGradient id="SVGID_1_" gradientUnits="userSpaceOnUse" x1="606.105" y1="430.805" x2="750.222" y2="286.688"><stop offset="0" stop-color="#233063"/><stop offset="1" stop-color="#17122d"/></linearGradient><path d="M721.4 336.4c11.1-.4 65.6.1 76.1.1 14.4 0-61.5-23.6-79.1-34l-79.3 4.9c-46.5 17.1-45.8 75.3-42.4 106 .4 3.5.8 6.6 1.3 9.3 12.3-16.4 24.6-34.4 25-42.9 1-21.9 22.6-40.7 98.4-43.4z" fill="url(#SVGID_1_)"/><linearGradient id="SVGID_2_" gradientUnits="userSpaceOnUse" x1="596.645" y1="390.406" x2="831.653" y2="390.406"><stop offset="0" stop-color="#233066"/><stop offset="1" stop-color="#17122d"/></linearGradient><path d="M699.1 268.6c-58.7 1.3-50.5-1.1-62.1 9-8.9 7.8-10.6 16.7-6.3 34.5s19.4 147.1 20.1 157.5c.7 10.4-8.2 17.4-12.7 19.5-4.5 2.1-21.4 6.3-35.1 6.5-13.7.3-3.9 18.6 12.6 17.6s46.1.3 51.7 0c10.1-.5 14.6-12.2 10.7-21.5-3.8-9.3-2.8-37.2-1.2-59 1.6-21.9 7-45.1 8.8-66.6 1.8-21.5-9-38.2-7.3-43.7 1.7-5.5 10.1 2.7 30.5 2.7 20.5 0 72.1 15 92.8 11.3 20.8-3.7 26.1-13.9 29.9-35.1l-22.8-33.8c-23.2.2-60.3 0-109.6 1.1z" fill="url(#SVGID_2_)"/><path class="st13" d="M869.1 27.9C854.5.6 821.2-2.8 806.9 1.6c-11.6 3.6-15.5.6-26.4 6.1-16.2 8.1-10.8 26.1-4.6 29.7 6.2 3.6 65.9 48.2 64.7 48.7-1 .5-19.5 119.5-19.1 134.1 62.1 10.1 72.6-12.9 78.7-47.2 6.4-36-16-52.9-10.5-72.3 10-35.4-6.2-45.8-20.6-72.8z"/><linearGradient id="SVGID_3_" gradientUnits="userSpaceOnUse" x1="738.108" y1="310.896" x2="701.825" y2="270.005"><stop offset="0" stop-color="#381c64"/><stop offset="1" stop-color="#17122d"/></linearGradient><path d="M664.2 269.2c26.5.2 48.9 15.3 62.5 16.9 13.6 1.5 11.4-16.7 11.4-16.7l-73.9-.2z" fill="url(#SVGID_3_)"/><linearGradient id="SVGID_4_" gradientUnits="userSpaceOnUse" x1="918.862" y1="161.544" x2="788.704" y2="3.742"><stop offset="0" stop-color="#233063"/><stop offset="1" stop-color="#17122d"/></linearGradient><path d="M842.9 82.3c1.4-26.8-5.8-42.6-5.8-42.6s15.5 0 38.9 44.7c9.2 17.7-10.1 24.3-4.7 46.8 5.4 22.5-28.4-48.9-28.4-48.9z" fill="url(#SVGID_4_)"/><linearGradient id="SVGID_5_" gradientUnits="userSpaceOnUse" x1="883.237" y1="120.794" x2="696.136" y2="301.476"><stop offset="0" stop-color="#fec91d"/><stop offset="1" stop-color="#f2d139"/></linearGradient><path d="M823.4 98.9c-28.3 7.3-38.7 15.4-56.9 33.8-20.6 20.9-76 63-87.5 66.8-11.5 3.8-66.8 7.7-66.8 7.7s7.7.8 9.2 7.7c1.5 6.9-2.3 6.9-2.3 6.9H702c10.7 0 60.5-38.9 60.5-38.9s-1.8 13.2 10.4 24.4c36.9 33.8 3.3 49.3-33.2 49.6-31.7.2-33.3 2.1-31.9 4.7 1.2 2.3.1 2.4-8.7 7 0 0 30.6 1.1 54.4 15 23.8 13.8 35.5 53.6 64 52.9 12.5-.3 36-6.3 41.8-18.9 1-2.2-4.2-8.5 3.6-10.8 25.8-7.6 6.1-54.3 25.8-154.6 8.6-43.7-44.6-58.7-65.3-53.3z" fill="url(#SVGID_5_)"/><path d="M769.2 247c44 20.5 40.9 25 52.2 29.6 28.9 11.8 52.3-93.8 52.3-93.8L823 236.2 769.2 247z" opacity=".09" fill="#3f3d00"/><linearGradient id="SVGID_6_" gradientUnits="userSpaceOnUse" x1="700.317" y1="227.077" x2="710.784" y2="159.039"><stop offset="0" stop-color="#f6c854"/><stop offset="1" stop-color="#e8c52e"/></linearGradient><path d="M765.3 161.5s-46.9 52-63 55.3c-16.1 3.3-59.1 4.9-59.1 4.9s55.2 2.4 63.5.4c17.6-4.3 58.6-40.9 58.6-40.9v-19.7z" fill="url(#SVGID_6_)"/><path class="st19" d="M709.9 232.3c-14.6-3-19.9-8.6-30-8.1-10 .5-17.5 21.7-15.3 29.1 2.2 7.4 9.5 5.4 15.8-2.2 6.3-7.7 8.9-2.2 12.7.9 8.6 7 11.8-1.2 20.6.4 21 3.7-3.8-20.1-3.8-20.1z"/><linearGradient id="SVGID_7_" gradientUnits="userSpaceOnUse" x1="761.786" y1="244.158" x2="622.269" y2="339.168"><stop offset=".364" stop-color="#fec91d"/><stop offset=".899" stop-color="#f2d139"/></linearGradient><path d="M862.9 123.9c-28.4-7-36 84.3-52.4 96-16.4 11.7-90 13.4-101.7 12.3 0 0 14 10.8 4.9 20.1 0 0 97.4 14.9 121.1-1.5 23.8-16.5 46.1-58.6 42.3-92.2-2.8-24.9-2.8-31.9-14.2-34.7z" fill="url(#SVGID_7_)"/><path class="st19" d="M809.8 20.7c-8-4-13 3.8-21.1 10-7.1 5.5-11.3 3.4-6.6 17 .6 1.8 8.1 8.1 8.5 10.1.8 4.4-3 5.2 2.7 11.6 17.8 19.7 23.8 19.6 28.5 13.8 0 0 27.3-15.6 19.4-29 5.8 3.1-7.7-17.3-6.7-7.4-4-7.1-9.5-18.5-24.7-26.1z"/><path class="st19" d="M839.9 116.9c21.3-15.5 33.8-5.3 33.8-5.3s-19.3-12.8-31.5-53.9c5.7 3.3 5.1-3.3 4.9-5.7-1.3-15.1-13.9-21.5-12.5-4.7 5.8 24.5-1.2 23.3-13.6 36 0 0 6.7 3.5-.7 13.9-6.6 9.3-20.6 23.5-20.8 31.7-.4 20.3 21.2 2 40.4-12z"/><path d="M839.1 145.7c-13 29.1-19 67.3-28.7 74.2-16.4 11.7-90 13.4-101.7 12.3 0 0 1.8 1.4 3.7 3.6 37.1 1.7 95.5-1.2 103.8-13.5 14-20.5 22.9-76.6 22.9-76.6z" fill="#ffdc82"/><path d="M677.3 489.3c-16-.3-40 11.1-55.6 4.3-5.9 1.1-12.6 2-18.6 2.1-13.7.3-3.9 18.6 12.6 17.6s46.1.3 51.7 0c10.1-.5 14.6-12.2 10.7-21.5-.3-.7-.5-1.6-.8-2.5z" fill="#363d77"/><path d="M738.1 262.7H611.3c-1 0-1.8.8-1.8 1.8v3c0 1 .8 1.8 1.8 1.8h126.9c1 0 1.8-.8 1.8-1.8v-3c0-1-.9-1.8-1.9-1.8z" fill="#374662"/><linearGradient id="SVGID_8_" gradientUnits="userSpaceOnUse" x1="576.415" y1="225.823" x2="698.792" y2="225.823"><stop offset="0" stop-color="#233063"/><stop offset="1" stop-color="#17122d"/></linearGradient><path d="M695.6 264.1H610c-3.5 0-6.6-2.1-7.8-5.4l-25.6-66.9c-.8-2.1.8-4.4 3-4.4h85.5c3.5 0 6.6 2.1 7.8 5.4l25.6 66.9c.9 2.2-.7 4.4-2.9 4.4z" fill="url(#SVGID_8_)"/><path class="st9" d="M945.1 164.5h-9.9c-2.6 0-4.2-8 4-7.4 4.1.3 6.9-32.3 2.7-43.8S930 91.5 927.7 79.1c-2.3-12.4-4.3-27.5 3.1-37.2 7.4-9.7 7.3 4.9 7.7 8.8.4 4 8.8 4.5 11.1 1.9 2.3-2.6 8.7-14.3 10.3-7.2 1.6 7.2-2.7 13.3 0 24.3 2.7 10.9 16.9 15.5 29.2 17.4 12.3 2 27.5 18.7 23.2 39.2-4.2 20.5-8.7 38.2-15.9 38.2-7.2 0-34.8-.2-37.9 0-3.1.2-3.8-7.1 0-9.2 3.8-2.1-4.6-26.1-4.6-26.1s-3.1 35.3-8.8 35.3z"/><linearGradient id="SVGID_9_" gradientUnits="userSpaceOnUse" x1="956.024" y1="127.082" x2="982.869" y2="127.082"><stop offset="0" stop-color="#233063"/><stop offset="1" stop-color="#17122d"/></linearGradient><path d="M958.6 155.3c14.4 0 23.6 1.5 24.3-5.7.7-7.2-26.4-22.7-15.4-39.1 2.2-3.2 11.1-6.2 8.2-9-10-9.6-27.8 7.2-15.4 28.2C967.5 142 974 149 971 151.3c-2.9 2.2-12.4 4-12.4 4z" fill="url(#SVGID_9_)"/><linearGradient id="SVGID_10_" gradientUnits="userSpaceOnUse" x1="981.076" y1="195.269" x2="1016.086" y2="195.269"><stop offset="0" stop-color="#233063"/><stop offset="1" stop-color="#17122d"/></linearGradient><path d="M996.5 164.5c12 0 19.6 21.7 0 30.1-19.6 8.4-17.4 31.2-10.1 38 7.3 6.8 17.4 4.7 20.6 3.6 3.3-1.2 4.4-8.3-1.6-7-6 1.2-14.5.7-16.2-6.7-1.7-7.4.1-17.9 11.3-21.5 11.2-3.6 16.4-15.4 15.5-25.9-.9-10.5-8.4-13.8-10.5-15.5-2-1.7 0-6.4 0-6.4l-9 11.3z" fill="url(#SVGID_10_)"/><linearGradient id="SVGID_11_" gradientUnits="userSpaceOnUse" x1="929.786" y1="60.474" x2="943.736" y2="119.089"><stop offset="0" stop-color="#233063"/><stop offset="1" stop-color="#17122d"/></linearGradient><path d="M926 54.7c-1 7.9.3 16.6 1.8 24.3 2.3 12.4 10 22.7 14.2 34.2.5 1.5 1 3.3 1.3 5.4-4.1-25.9 2.8-33.4-3.8-37.5-15.9-10-13.5-26.4-13.5-26.4z" fill="url(#SVGID_11_)"/><path class="st3" d="M938.7 71.6c1.7 4 5.5 2.4 6.8 1 1.2-1.2-1.1-2.7-3-2.9-1.9-.1-4.4.4-3.8 1.9z"/><linearGradient id="SVGID_12_" gradientUnits="userSpaceOnUse" x1="1024.044" y1="286.462" x2="1114.539" y2="286.462" gradientTransform="matrix(.9339 -.2429 .2517 .9678 7.715 292.412)"><stop offset="0" stop-color="#233063"/><stop offset="1" stop-color="#17122d"/></linearGradient><path d="M1050.7 183.9c-8.3 10.9-16.9 26.8-16.9 34.2 0 7.5 6.2 15.2 9.8 18.8s.9 38.9 1.7 54.7c.8 15.8 25.8 163.6 25.8 163.6h4.4s-26.1-157-26.5-163.1c-.4-6-.9-52-.4-54.9.5-2.8 4.7 0 13.1-6.8 8.4-6.7 8.4-26.3 9.6-38.3 1.2-12 14.8-26.8 14.8-26.8s-18-4.3-35.4 18.6z" fill="url(#SVGID_12_)"/><path class="st29" d="M1098.4 177.2c-11 9.1-35.1-8.1-42.1-.5 0 0 10-12.5 19.1-14.3 9.1-1.8 13.1-5.8 16.9-5.1 3.7.7 9.5 17.1 6.1 19.9z"/><path class="st13" d="M993.8 252.6c-8.8 1.3-16.5 11.7-3.2 19.8 13.3 8.1 12.9 19.6 24.5 22.9 11.6 3.3 20.3 11.6 26.6 11 6.3-.6 7.3.1 10.9 3.8 3.6 3.8 14.7 12.4 17.3 28.9 2.6 16.5.2 48.8 4.1 77.4 3.9 28.6 2.6 39.8 2.6 39.8h5.2s-.5-30.6-4.1-45.1-4.8-58-3.9-67.4c.8-9.3-11.7-28.5-18.6-35.4-6.9-6.9-4.5-7.4-4.2-11.9.3-4.5-.7-12.6-15.8-20.6-15.2-8.1-20.3-26.4-41.4-23.2z"/><linearGradient id="SVGID_13_" gradientUnits="userSpaceOnUse" x1="1064.746" y1="361.669" x2="1094.869" y2="361.669" gradientTransform="rotate(4.899 1133.633 367.396)"><stop offset="0" stop-color="#233063"/><stop offset="1" stop-color="#17122d"/></linearGradient><path d="M1072.9 268.7c8.6 11.4 8.9 21.5 8.1 29.5-.8 7.9 2.2 18.1 2.3 22.6.1 4.5-1.1 34.4-1.1 42.7 0 8.3-5.9 92.6-5.9 92.6h4.3s2.9-58.5 4.5-67.6c1.6-9.1 1.8-59.2 1.2-68.8-.5-9.7-2.6-11.6-2.4-14.7s14.1-9.2 16.6-14.6c2.5-5.4-.6-8.1-.2-9.7.4-1.6 4-16.2-3.4-20.6-7.4-4.3-21.6 2.6-21.6 2.6l-2.4 6z" fill="url(#SVGID_13_)"/><path class="st29" d="M1078.5 253c-9.2.7-16.3-9.2-22.5.8-3.2 5.1-2.9 23.4 5.2 25.8 8.1 2.4 17.8-22.6 35.9-19.5-.1 0-10.6-7.7-18.6-7.1zm-5.9 203.1s-2.3-28-7.6-45.5c-5.2-17.6-26.4-35.7-28.6-44-2.2-8.2-.8-18.1-21.4-25.8-20.7-7.7-36.4 6.9-57 13.4s-26.2 19.3-21 29.2c5.2 9.9 17.7-8.8 34.7-10.7 17.1-1.9 42.3 5.2 49.9.9 7.6-4.3 10.6-5 11.5-2.4.9 2.5 16.5 21.4 21.9 29.6 5.5 8.2 6.3 11.7 6.8 15.3.5 3.6 7.5 40.2 7.5 40.2h3.3z"/><linearGradient id="SVGID_14_" gradientUnits="userSpaceOnUse" x1="1065.515" y1="392.594" x2="1109.955" y2="392.594"><stop offset="0" stop-color="#233063"/><stop offset="1" stop-color="#17122d"/></linearGradient><path d="M1065.5 336.8c14.7 9.9 25 15.3 23.6 28.9-1.4 13.6-10.8 90.4-10.8 90.4h3.5s5.5-62 7.4-71.6 2.7-23.9 4-26.6c1.3-2.6 15.9-9.1 16.4-14 .5-4.9 1.6-9.6-8.3-13.9-9.8-4.2-35.8 6.8-35.8 6.8z" fill="url(#SVGID_14_)"/><path class="st13" d="M1122 326.8c1.9-13.4-.3-15.9 6.9-21s12.2-17.3 27.3-28.2 22.1-8.5 28.2-6.9c6.1 1.6-3.4 6.4-5.2 12.1-1.8 5.7-3.2 24.7-11.7 33.4s-28.8 18.3-35.9 26.3c-7 8-24.6 69-28.2 82.6-3.6 13.6-12 31-12 31h-3.8s10.5-23.7 11.2-31.7 23.5-74.1 25.5-79.2c2-5.1-3.3-11.5-2.3-18.4z"/><path class="st29" d="M1030.3 341.1c5.5-18.6.6-22.6-6.1-30.4-6.7-7.8-.2-32.9 6.1-29.3 6.3 3.6 3.2 7.9 10.2 19.6 7 11.7 6.4 28.1 6.4 28.1l-16.6 12z"/><linearGradient id="SVGID_15_" gradientUnits="userSpaceOnUse" x1="1026.847" y1="378.537" x2="1066.907" y2="378.537"><stop offset="0" stop-color="#233063"/><stop offset="1" stop-color="#17122d"/></linearGradient><path d="M1040.5 301c6.4 14.1 7 18.7-1.2 28.1-8.2 9.5-16 20.5-10.7 26.9 5.2 6.3 22.4 11.8 25.8 22.7 3.4 10.9 8.9 77.5 8.9 77.5h3.6s-6.3-57.6-6.1-62.6c.2-5-1.6-19-2.1-24.4-.4-5.4 11.3-23.5 6.8-32.3-4.4-8.8-14.2-26.5-25-35.9z" fill="url(#SVGID_15_)"/><path class="st29" d="M1087.7 340.7c-13 6.3-23.6 4.4-27.7 7.8-4.2 3.4-6.6-.9-5.2-5.5 1.3-4.6 2.5-17.5 14.8-18.9 12.3-1.4 13.6-3.9 28.1 1.2 12.6 4.5 12.4 10.3 12.2 13.2-1.6-3.1-14.9-1.3-22.2 2.2z"/><path class="st13" d="M1075.2 456.1l-19.2-41.7c-3.5-7.6.9-16.7-.7-21.8-1.5-5.1-16.4-10.3-30.8-9.8-14.4.5-18.8 6.7-20.6 9.8-1.8 3.1 1.7 3.9 4.5 2.4 2.7-1.5 12.8-2.9 25.9 5.7 13.1 8.6 14.6 4.3 16.9 12.4 2.3 8.1 13.2 27.4 16.5 34.1 3.4 6.8 3.4 8.9 3.4 8.9h4.1z"/><path class="st29" d="M1180 281.2c2.8-5 9.9-9 4.5-10.4-6.1-1.6-13.1-4-28.2 6.9s-20.1 23.1-27.3 28.2c-6 4.2-5.5 6.7-6.3 15.2 4.2-2.9 9.4-2.2 20.7-12.7 14.4-13.6 22.8-25.3 36.6-27.2z"/><path class="st3" d="M1086.8 454.9h11.7l8.3 51.2c0 4-3.2 7.3-7.2 7.3h-48.1c-4.3 0-7.7-3.5-7.7-7.8l6.2-50.7h36.8z"/><path d="M1089.8 454.9h8.7l8.3 51.6c0 3.8-3.1 6.9-6.8 6.9h-45.4c26-1.1 18.2-17.8 20.7-26.3 5.4-18.6 16.9-12.7 14.5-32.2z" fill="#ccd5e7"/><path class="st34" d="M22.8 210.8h7.9v306.5h-7.9z"/><path class="st35" d="M30.7 210.8h7.9v306.5h-7.9zm251.2 54.5h7.9v252.1h-7.9z"/><path class="st34" d="M0 260.7h122.3v12.2H0zm0 87.2h122.3v12.2H0z"/><path class="st34" d="M93.9 347.9h257v12.2h-257zm0-87.2h257v12.2h-257zM0 435.1h122.3v12.2H0z"/><path class="st34" d="M93.9 435.1h257v12.2h-257zM22.8 210.8h99.4v8H22.8zm0 298.5h99.4v8H22.8z"/><path class="st35" d="M118.3 210.8h7.9v306.5h-7.9z"/><path class="st34" d="M110.5 210.8h7.9v306.5h-7.9z"/><path class="st2" d="M292.3 347.9h-43.7l14.8-69.4h43.7z"/><path fill="#ccd5e6" d="M289.2 347.9h-43.7l14.8-69.4H304z"/><path class="st34" d="M274.2 347.9h-37.8l12.8-60.2h37.9z"/><path class="st37" d="M262 347.9h-37.9l12.9-60.2h37.8z"/><path class="st34" d="M258.1 347.9h-37.9l12.8-60.2h37.9z"/><path class="st37" d="M251.9 347.9h-37.8l12.8-60.2h37.9z"/><path class="st38" d="M249.5 347.9h-40.9l13.8-64.9h40.9z"/><path fill="#d1dae8" d="M242.9 347.9H202l13.8-64.9h40.9z"/><path fill="#bccde4" d="M238.5 347.9H202l12.4-57.9h36.4z"/><path fill="#cdd7e7" d="M232.6 347.9h-36.5l12.4-57.9h36.4z"/><path class="st42" d="M223.6 347.9h-36.5l12.4-57.9H236z"/><path class="st42" d="M208.2 347.9h-36.5l12.4-57.9h36.4z"/><path d="M216.9 174.1H202s-9.2 9.5-10.7 16c-1.9 7.7-11.6 4.1-11.8 18.2-.2 14.1 9.5 52.5 9.5 52.5h26s9.7-38.4 9.5-52.5c-.1-14.1-8.1-16-7.6-34.2z" fill="#e6edf6"/><path d="M202.4 260.7c2-12.5-10.4-25.1-8-34.3 2.6-9.7 21.5-4.2 21-18s-11.1-10.7-13.5-16.8c-2.8-7.2 3.4-9.3 5.8-17.5h-20.6c.5 18.2-7.5 20.1-7.6 34.2-.2 14.1 9.5 52.5 9.5 52.5h13.4z" fill="#f2f5f9"/><path d="M248.5 432.7V416h2.3v-2.4h-78.6c-6 0-10.8 4.8-10.8 10.8 0 6 4.8 10.8 10.8 10.8h78.6v-2.4h-2.3z" fill="#d5dfec"/><path class="st3" d="M233.6 416h-60.9c-4.6 0-8.4 3.7-8.4 8.4 0 4.6 3.7 8.4 8.4 8.4h60.9V416z"/><path d="M222.3 399.4h-72.9v1.7h1.9v10.7h-1.9v1.7h72.9c3.9 0 7-3.1 7-7s-3.1-7.1-7-7.1z" fill="#576786"/><path fill="#e6ecf6" d="M233.6 416h14.9v16.8h-14.9z"/><path d="M151.3 401.2h21.1c2.9 0 5.3 2.4 5.3 5.3s-2.4 5.3-5.3 5.3h-21.1v-10.6z" fill="#e7ecf7"/><path class="st9" d="M346.1 457.4c3.9 5.4 5.1 11.2 5.1 11.2h4.9s-4.7-16.5-4.8-19.6c-.1-3-5.2 8.4-5.2 8.4z"/><path class="st29" d="M391.6 412.4c7.9 17.4 7.2 23.6 3.8 30.5-3.4 6.9-13.2 21-14.6 25.8h7s5.7-18.2 7.9-20.3c2.2-2.1 5.7-11 3-19.6-2.7-8.6-7.1-16.4-7.1-16.4z"/><path class="st9" d="M387.9 458.2c-1.4-4.8-11.1-8.6-12.7-15.7-1.6-7.1 4.3-5 5.6-9 1.3-4 7.3.9 9.6-.9 2.2-1.8 7.8 4.8 6.1 8-1.6 3.2-8.6 17.6-8.6 17.6z"/><path class="st29" d="M332.5 431.8c-14.8.7-15.7 5.4-21.3 3.4-5.6-1.9-8.7-2.5-7 1.3 1.7 3.8 47 23.7 47 23.7l-9.7-19.6-9-8.8zm13.6-3c-1.7-7.8 2-13.4 10-15.2 7.9-1.8 13.6-4.6 11.6-7.1-1.9-2.6-4.9 2.1-9.8.9-4.9-1.3-10.3-1.9-11.2 2.8-.9 4.7-7.3 4.2-7 8.3.2 4.1 6.4 10.3 6.4 10.3z"/><path class="st9" d="M317.9 427.2c10.2 8.9 14.6 10.5 23.2 19.4s9.6 14.7 11.4 14.9c1.8.2-1.6-3.3.5-8.1 2.2-4.8 8.4-11.4 3.9-17.6-4.6-6.3-7.4-3.4-10.2-8.9-2.8-5.5-8.8 4.1-14.7.1-6-4.1-17.3-2.6-14.1.2z"/><path class="st9" d="M316.9 449c8.2 3.8 32.7 11.9 34.3 11.3 1.6-.6-12-8.8-17.9-14.6-6-5.9-12.4-2.8-17.2-6.6-4.8-3.8-11.9-2.4-11.9-2.4s8 10.1 12.7 12.3z"/><path class="st29" d="M398.1 445.1c6-18.2 12.1-15.2 15.6-21 3.5-5.8 4.2-2.9 11.3-7.6s1.3-8.4 11.7-10.1c10.4-1.7 22.7 8.5 15.5 18.9-7.2 10.4-26 5.5-26 5.5l-28.1 14.3z"/><path class="st9" d="M390.6 454.3c-1.5 4.2 10.5-12.2 23.1-13.6 12.7-1.3 34.9-8.8 38.4-15.4 0 0-4.8 5.5-12 1.1-7.3-4.4-14.1-3-19.8 1.8-5.7 4.7-12.7 4-16 6.5-3.4 2.4-12.5 16.5-13.7 19.6zm4.4-44.2c-11.5-8.3-22.1-8.3-24-14-1.9-5.8-.3-7.3-5.3-12.1s-5.3-9.1-.9-10.2c4.3-1.1 8 .7 11.6-1.7 3.6-2.4 6-6.3 11.8-5.5 5.9.8 5.1 5.7 7.6 6.4 2.5.7 5.8.8 6.5 5.4.7 4.6-1.7 9.6 1.4 15.8 3.2 6.1-8.7 15.9-8.7 15.9z"/><path class="st9" d="M388 463.3c.1 1.1 2.4-2.2 5.6-3.4 3.1-1.2 9.4-.2 11.9-2s9.1-9.1 13.9-11.1c4.9-2.1 2.6-3.4-.8-2.9-3.4.4-12.5 4.4-16.8 8.3-4.3 3.9-13.8 7.6-13.9 9.2s.1 1.9.1 1.9z"/><path class="st29" d="M372.6 406.9c5.6-1.3 4-3.4 5.2-6 1.3-2.6 6.5-3.4 9 .9 2.4 4.4 3.1 5.9 7.3 6.6 4.2.8 4.2 5.3 4.6 9.1.5 3.9-26.1-10.6-26.1-10.6z"/><path class="st9" d="M396.9 432.3c-9.2-7.4-12.8-4.7-17-12.1-4.3-7.4-9.1-2.8-9.7-9.8s7.3-3.2 8.2-6.3c.9-3.1 9.7-.7 10.9 4.7 1.2 5.5 8.8.9 10.9 5.7 2.1 4.8 2.1 12.3.3 14-1.8 1.8-2.6 4.6-3.6 3.8zm-96.5-38c10.9 15.3 34.1 29.2 37.3 36.5 3.2 7.3 7.7-10.2 1.6-15.8-6.1-5.6-5.6-3.8-6.6-8-.9-4.2-5.7-4.2-8.3-9-2.5-4.8-27.4-8.4-24-3.7z"/><path class="st38" d="M379.8 468.7h27.6s-3 32-6.2 42c-.8 2.5-4.1 6.7-8.2 6.7h-50c-4.4 0-7.1-5.4-8-8.1-3.3-9.9-5.5-40.6-5.5-40.6h50.3z"/><path class="st38" d="M382.9 468.7h24.5s-3 31.9-6.2 42c-.8 2.4-3.9 6.7-7.8 6.7h-47.1c59.8-2.5 21.9-28.4 36.6-48.7z"/></svg>