<svg version="1.1" id="Layer_1" xmlns="http://www.w3.org/2000/svg" xmlns:xlink="http://www.w3.org/1999/xlink" x="0" y="0" viewBox="0 0 80.8 75" xml:space="preserve" enable-background="new 0 0 80.8 75"><style>.st0{clip-path:url(#SVGID_2_)}.st14,.st21{opacity:.3;clip-path:url(#SVGID_33_)}.st21{clip-path:url(#SVGID_51_)}.st50{clip-path:url(#SVGID_119_)}</style><defs><path id="SVGID_1_" d="M0 0h80.8v75H0z"/></defs><clipPath id="SVGID_2_"><use xlink:href="#SVGID_1_" overflow="visible"/></clipPath><g class="st0"><defs><path id="SVGID_3_" d="M0 57l47 18 1.7-.8L3.8 53.8z"/></defs><clipPath id="SVGID_4_"><use xlink:href="#SVGID_3_" overflow="visible"/></clipPath><defs><filter id="Adobe_OpacityMaskFilter" filterUnits="userSpaceOnUse" x="0" y="53.8" width="48.7" height="21.2"><feColorMatrix values="1 0 0 0 0 0 1 0 0 0 0 0 1 0 0 0 0 0 1 0"/></filter></defs><mask maskUnits="userSpaceOnUse" x="0" y="53.8" width="48.7" height="21.2" id="SVGID_5_"><g filter="url(#Adobe_OpacityMaskFilter)"><linearGradient id="SVGID_6_" gradientUnits="userSpaceOnUse" x1="0" y1="75" x2="1" y2="75" gradientTransform="matrix(48.6825 0 0 -48.6825 0 3715.572)"><stop offset="0" stop-color="#fff"/><stop offset=".464" stop-color="#fff"/><stop offset="1" stop-color="gray"/></linearGradient><path clip-path="url(#SVGID_4_)" fill="url(#SVGID_6_)" d="M0 53.8h48.7V75H0z"/></g></mask><linearGradient id="SVGID_7_" gradientUnits="userSpaceOnUse" x1="0" y1="75" x2="1" y2="75" gradientTransform="matrix(48.6825 0 0 -48.6825 0 3715.573)"><stop offset="0" stop-color="#fff"/><stop offset=".464" stop-color="#fff"/><stop offset="1" stop-color="#b0cccc"/></linearGradient><path clip-path="url(#SVGID_4_)" mask="url(#SVGID_5_)" fill="url(#SVGID_7_)" d="M0 53.8h48.7V75H0z"/></g><g class="st0"><defs><path id="SVGID_8_" d="M71.3 61.1l-47-18 3.9-3.2L73 60.3z"/></defs><clipPath id="SVGID_9_"><use xlink:href="#SVGID_8_" overflow="visible"/></clipPath><defs><filter id="Adobe_OpacityMaskFilter_1_" filterUnits="userSpaceOnUse" x="24.3" y="39.9" width="48.7" height="21.2"><feColorMatrix values="1 0 0 0 0 0 1 0 0 0 0 0 1 0 0 0 0 0 1 0"/></filter></defs><mask maskUnits="userSpaceOnUse" x="24.3" y="39.9" width="48.7" height="21.2" id="SVGID_10_"><g filter="url(#Adobe_OpacityMaskFilter_1_)"><linearGradient id="SVGID_11_" gradientUnits="userSpaceOnUse" x1="0" y1="75" x2="1" y2="75" gradientTransform="matrix(48.6825 0 0 -48.6825 24.341 3701.693)"><stop offset="0" stop-color="#fff"/><stop offset=".464" stop-color="#fff"/><stop offset="1" stop-color="gray"/></linearGradient><path clip-path="url(#SVGID_9_)" fill="url(#SVGID_11_)" d="M24.3 39.9H73v21.2H24.3z"/></g></mask><linearGradient id="SVGID_12_" gradientUnits="userSpaceOnUse" x1="0" y1="75" x2="1" y2="75" gradientTransform="matrix(48.6825 0 0 -48.6825 24.341 3701.693)"><stop offset="0" stop-color="#fff"/><stop offset=".464" stop-color="#fff"/><stop offset="1" stop-color="#b0cccc"/></linearGradient><path clip-path="url(#SVGID_9_)" mask="url(#SVGID_10_)" fill="url(#SVGID_12_)" d="M24.3 39.9H73v21.2H24.3z"/></g><g class="st0"><defs><path id="SVGID_13_" d="M45.8 50.5v23.7c0 .2.1.4.4.6.3.2.6.2 1 .2h.1c.4 0 .7-.1 1-.2.3-.2.4-.4.4-.6V50.5h-2.9z"/></defs><clipPath id="SVGID_14_"><use xlink:href="#SVGID_13_" overflow="visible"/></clipPath><linearGradient id="SVGID_15_" gradientUnits="userSpaceOnUse" x1="0" y1="75" x2="1" y2="75" gradientTransform="rotate(180 24.341 140.722) scale(2.9159)"><stop offset="0" stop-color="#d3d5d6"/><stop offset=".276" stop-color="#d0d2d3"/><stop offset=".488" stop-color="#c6c8c9"/><stop offset=".679" stop-color="#b6b8b9"/><stop offset=".856" stop-color="#9fa1a3"/><stop offset="1" stop-color="#86888a"/></linearGradient><path clip-path="url(#SVGID_14_)" fill="url(#SVGID_15_)" d="M45.8 50.5h2.9V75h-2.9z"/></g><g class="st0"><defs><path id="SVGID_16_" d="M70 36.5v23.7c0 .2.1.4.4.6.6.3 1.5.3 2.1 0 .3-.2.4-.4.4-.6V36.5H70z"/></defs><clipPath id="SVGID_17_"><use xlink:href="#SVGID_16_" overflow="visible"/></clipPath><linearGradient id="SVGID_18_" gradientUnits="userSpaceOnUse" x1="0" y1="74.986" x2="1" y2="74.986" gradientTransform="rotate(180 36.472 133.689) scale(2.9151)"><stop offset="0" stop-color="#d3d5d6"/><stop offset=".276" stop-color="#d0d2d3"/><stop offset=".488" stop-color="#c6c8c9"/><stop offset=".679" stop-color="#b6b8b9"/><stop offset=".856" stop-color="#9fa1a3"/><stop offset="1" stop-color="#86888a"/></linearGradient><path clip-path="url(#SVGID_17_)" fill="url(#SVGID_18_)" d="M70 36.5h2.9v24.6H70z"/></g><g class="st0"><defs><path id="SVGID_19_" d="M37.3 25.2v30.2l38.6-22.3V2.9z"/></defs><clipPath id="SVGID_20_"><use xlink:href="#SVGID_19_" overflow="visible"/></clipPath><linearGradient id="SVGID_21_" gradientUnits="userSpaceOnUse" x1="0" y1="75" x2="1" y2="75" gradientTransform="matrix(38.6442 0 0 -38.6442 37.267 2927.47)"><stop offset="0" stop-color="#ffed00"/><stop offset="1" stop-color="#e3000f"/></linearGradient><path clip-path="url(#SVGID_20_)" fill="url(#SVGID_21_)" d="M37.3 2.9h38.6v52.5H37.3z"/></g><g class="st0"><defs><path id="SVGID_22_" d="M0 0h80.8v75H0z"/></defs><clipPath id="SVGID_23_"><use xlink:href="#SVGID_22_" overflow="visible"/></clipPath><g opacity=".3" clip-path="url(#SVGID_23_)"><defs><path id="SVGID_24_" d="M37.3 27.4H41v28.1h-3.7z"/></defs><clipPath id="SVGID_25_"><use xlink:href="#SVGID_24_" overflow="visible"/></clipPath><path clip-path="url(#SVGID_25_)" d="M37.3 55.4l3.7-2.1V27.4l-3.7 4.4z"/></g></g><g class="st0"><defs><path id="SVGID_26_" d="M36.3 54.9l1 .5V25.2l-1-.6z"/></defs><clipPath id="SVGID_27_"><use xlink:href="#SVGID_26_" overflow="visible"/></clipPath><linearGradient id="SVGID_28_" gradientUnits="userSpaceOnUse" x1="0" y1="75" x2="1" y2="75" gradientTransform="matrix(0 30.7771 30.7771 0 -2271.5 24.643)"><stop offset="0" stop-color="#ffed00"/><stop offset="1" stop-color="#e3000f"/></linearGradient><path clip-path="url(#SVGID_27_)" fill="url(#SVGID_28_)" d="M36.3 24.6h1v30.8h-1z"/></g><g class="st0"><defs><path id="SVGID_29_" d="M36.3 24.6l1 .6L75.9 2.9l-1-.6z"/></defs><clipPath id="SVGID_30_"><use xlink:href="#SVGID_29_" overflow="visible"/></clipPath><linearGradient id="SVGID_31_" gradientUnits="userSpaceOnUse" x1="0" y1="75" x2="1" y2="75" gradientTransform="matrix(39.613 0 0 -39.613 36.298 2984.742)"><stop offset="0" stop-color="#ffed00"/><stop offset="1" stop-color="#e3970f"/></linearGradient><path clip-path="url(#SVGID_30_)" fill="url(#SVGID_31_)" d="M36.3 2.3h39.6v22.9H36.3z"/></g><g class="st0"><defs><path id="SVGID_32_" d="M0 0h80.8v75H0z"/></defs><clipPath id="SVGID_33_"><use xlink:href="#SVGID_32_" overflow="visible"/></clipPath><g class="st14"><defs><path id="SVGID_34_" d="M41.6 20.8H43v.8h-1.4z"/></defs><clipPath id="SVGID_35_"><use xlink:href="#SVGID_34_" overflow="visible"/></clipPath><path clip-path="url(#SVGID_35_)" d="M42.9 20.8h-.2v.8h-1.1z"/></g><g class="st14"><defs><path id="SVGID_36_" d="M67.9 5.6h1.4v.8h-1.4z"/></defs><clipPath id="SVGID_37_"><use xlink:href="#SVGID_36_" overflow="visible"/></clipPath><path clip-path="url(#SVGID_37_)" d="M69.3 5.6h-.2v.8h-1.2z"/></g></g><g class="st0"><defs><path id="SVGID_38_" d="M42 27.9v30.2l38.6-22.3V5.6z"/></defs><clipPath id="SVGID_39_"><use xlink:href="#SVGID_38_" overflow="visible"/></clipPath><linearGradient id="SVGID_40_" gradientUnits="userSpaceOnUse" x1="0" y1="75" x2="1" y2="75" gradientTransform="matrix(38.6442 0 0 -38.6442 41.975 2930.189)"><stop offset="0" stop-color="#ffed00"/><stop offset="1" stop-color="#e3000f"/></linearGradient><path clip-path="url(#SVGID_39_)" fill="url(#SVGID_40_)" d="M42 5.6h38.6v52.5H42z"/></g><g class="st0"><defs><path id="SVGID_41_" d="M42.5 28.4V57L80 35.4V6.8z"/></defs><clipPath id="SVGID_42_"><use xlink:href="#SVGID_41_" overflow="visible"/></clipPath><linearGradient id="SVGID_43_" gradientUnits="userSpaceOnUse" x1="0" y1="75" x2="1" y2="75" gradientTransform="rotate(124.392 1228.124 2281.113) scale(60.1929)"><stop offset="0" stop-color="#fff"/><stop offset="1" stop-color="#d1d3d4"/></linearGradient><path clip-path="url(#SVGID_42_)" fill="url(#SVGID_43_)" d="M54.5-10.7L19.1 41 68 74.4l35.4-51.6z"/></g><g class="st0"><defs><path id="SVGID_44_" d="M41 57.6l1 .5V27.9l-1-.5z"/></defs><clipPath id="SVGID_45_"><use xlink:href="#SVGID_44_" overflow="visible"/></clipPath><linearGradient id="SVGID_46_" gradientUnits="userSpaceOnUse" x1="0" y1="75" x2="1" y2="75" gradientTransform="matrix(0 30.7771 30.7771 0 -2266.792 27.36)"><stop offset="0" stop-color="#ffed00"/><stop offset="1" stop-color="#e3000f"/></linearGradient><path clip-path="url(#SVGID_45_)" fill="url(#SVGID_46_)" d="M41 27.4h1v30.8h-1z"/></g><g class="st0"><defs><path id="SVGID_47_" d="M41 27.4l1 .5L80.6 5.6l-.9-.6z"/></defs><clipPath id="SVGID_48_"><use xlink:href="#SVGID_47_" overflow="visible"/></clipPath><linearGradient id="SVGID_49_" gradientUnits="userSpaceOnUse" x1="0" y1="75" x2="1" y2="75" gradientTransform="matrix(39.6138 0 0 -39.6138 41.006 2987.52)"><stop offset="0" stop-color="#ffed00"/><stop offset="1" stop-color="#e3970f"/></linearGradient><path clip-path="url(#SVGID_48_)" fill="url(#SVGID_49_)" d="M41 5h39.6v22.9H41z"/></g><g class="st0"><defs><path id="SVGID_50_" d="M0 0h80.8v75H0z"/></defs><clipPath id="SVGID_51_"><use xlink:href="#SVGID_50_" overflow="visible"/></clipPath><g class="st21"><defs><path id="SVGID_52_" d="M46.1 23.6h1.5v.8h-1.5z"/></defs><clipPath id="SVGID_53_"><use xlink:href="#SVGID_52_" overflow="visible"/></clipPath><path clip-path="url(#SVGID_53_)" d="M47.5 23.6h.1v.8h-1.5z"/></g><g class="st21"><defs><path id="SVGID_54_" d="M72.5 8.4H74v.8h-1.5z"/></defs><clipPath id="SVGID_55_"><use xlink:href="#SVGID_54_" overflow="visible"/></clipPath><path clip-path="url(#SVGID_55_)" d="M73.8 8.4h.2v.8h-1.5z"/></g></g><g class="st0"><defs><path id="SVGID_56_" d="M37.5 16c0 .1.1.2.2.3l2.8 1.8 1.1-.6-.5-.3-.6.4-2.8-1.6c-.2-.1-.2-.2-.2-.3v.3z"/></defs><clipPath id="SVGID_57_"><use xlink:href="#SVGID_56_" overflow="visible"/></clipPath><linearGradient id="SVGID_58_" gradientUnits="userSpaceOnUse" x1="0" y1="75" x2="1" y2="75" gradientTransform="matrix(4.1999 0 0 -4.1999 37.452 331.931)"><stop offset="0" stop-color="#ffed00"/><stop offset="1" stop-color="#e3000f"/></linearGradient><path clip-path="url(#SVGID_57_)" fill="url(#SVGID_58_)" d="M37.4 15.7h4.2v2.5h-4.2z"/></g><g class="st0"><defs><path id="SVGID_59_" d="M37.7 15.4c-.3.2-.3.5 0 .7l2.8 1.6 1.1-.7-2.8-1.6c-.2-.1-.4-.1-.6-.1-.2-.1-.4 0-.5.1"/></defs><clipPath id="SVGID_60_"><use xlink:href="#SVGID_59_" overflow="visible"/></clipPath><linearGradient id="SVGID_61_" gradientUnits="userSpaceOnUse" x1="0" y1="75" x2="1" y2="75" gradientTransform="matrix(4.2013 0 0 -4.2013 37.45 331.528)"><stop offset="0" stop-color="#ffed00"/><stop offset="1" stop-color="#e3970f"/></linearGradient><path clip-path="url(#SVGID_60_)" fill="url(#SVGID_61_)" d="M37.4 15.2h4.3v2.4h-4.3z"/></g><g class="st0"><defs><path id="SVGID_62_" d="M40.5 17.6v.6l1.2-.7V17z"/></defs><clipPath id="SVGID_63_"><use xlink:href="#SVGID_62_" overflow="visible"/></clipPath><linearGradient id="SVGID_64_" gradientUnits="userSpaceOnUse" x1="0" y1="75" x2="1" y2="75" gradientTransform="rotate(-98.13 -13.07 38.384) scale(1.2658)"><stop offset="0" stop-color="#919396"/><stop offset="1" stop-color="#363436"/></linearGradient><path clip-path="url(#SVGID_63_)" fill="url(#SVGID_64_)" d="M41.8 18.2l-.2-1.4-1.2.2.2 1.4z"/></g><g class="st0"><defs><path id="SVGID_65_" d="M41.1 17.3c-.1.1-.2.2-.2.4 0 .1 0 .1.1.1l.4.2c.6.3 1 1.1 1 1.8v1.6s0 .1.1.1c.1.1.3.1.4 0 .1 0 .1-.1.1-.1v-1.2c0-1.6-.7-2.3-1.6-2.8l-.1-.1h-.2c.1 0 .1 0 0 0"/></defs><clipPath id="SVGID_66_"><use xlink:href="#SVGID_65_" overflow="visible"/></clipPath><linearGradient id="SVGID_67_" gradientUnits="userSpaceOnUse" x1="0" y1="75.009" x2="1" y2="75.009" gradientTransform="rotate(144.149 47.28 108.289) scale(2.445)"><stop offset="0" stop-color="#d3d5d6"/><stop offset=".276" stop-color="#d0d2d3"/><stop offset=".488" stop-color="#c6c8c9"/><stop offset=".679" stop-color="#b6b8b9"/><stop offset=".856" stop-color="#9fa1a3"/><stop offset="1" stop-color="#86888a"/></linearGradient><path clip-path="url(#SVGID_66_)" fill="url(#SVGID_67_)" d="M42.3 16.3l-3.4 2.5 2.8 3.8 3.4-2.5z"/></g><g class="st0"><defs><path id="SVGID_68_" d="M0 0h80.8v75H0z"/></defs><clipPath id="SVGID_69_"><use xlink:href="#SVGID_68_" overflow="visible"/></clipPath><path d="M63.8.5c0-.1 0 0 0 0" clip-path="url(#SVGID_69_)" fill="#b0b0b0"/></g><g class="st0"><defs><path id="SVGID_70_" d="M63.8.8c0 .1.1.2.2.3L66.9 3l1.1-.7-.5-.3-.6.4L64 .8c-.2-.1-.2-.2-.2-.3v.3z"/></defs><clipPath id="SVGID_71_"><use xlink:href="#SVGID_70_" overflow="visible"/></clipPath><linearGradient id="SVGID_72_" gradientUnits="userSpaceOnUse" x1="0" y1="75" x2="1" y2="75" gradientTransform="matrix(4.1998 0 0 -4.1998 63.813 316.704)"><stop offset="0" stop-color="#ffed00"/><stop offset="1" stop-color="#e3000f"/></linearGradient><path clip-path="url(#SVGID_71_)" fill="url(#SVGID_72_)" d="M63.8.5H68V3h-4.2z"/></g><g class="st0"><defs><path id="SVGID_73_" d="M64.6 0c-.2 0-.4.1-.5.1-.3.2-.3.5 0 .6l2.8 1.6 1.1-.5L65.2.2c-.2-.1-.4-.2-.6-.2z"/></defs><clipPath id="SVGID_74_"><use xlink:href="#SVGID_73_" overflow="visible"/></clipPath><linearGradient id="SVGID_75_" gradientUnits="userSpaceOnUse" x1="0" y1="75" x2="1" y2="75" gradientTransform="matrix(4.2006 0 0 -4.2006 63.812 316.256)"><stop offset="0" stop-color="#ffed00"/><stop offset="1" stop-color="#e3970f"/></linearGradient><path clip-path="url(#SVGID_74_)" fill="url(#SVGID_75_)" d="M63.7 0H68v2.4h-4.3z"/></g><g class="st0"><defs><path id="SVGID_76_" d="M66.9 2.4V3l1.1-.7v-.5z"/></defs><clipPath id="SVGID_77_"><use xlink:href="#SVGID_76_" overflow="visible"/></clipPath><linearGradient id="SVGID_78_" gradientUnits="userSpaceOnUse" x1="0" y1="75" x2="1" y2="75" gradientTransform="rotate(-98.129 -6.49 19.344) scale(1.2659)"><stop offset="0" stop-color="#919396"/><stop offset="1" stop-color="#363436"/></linearGradient><path clip-path="url(#SVGID_77_)" fill="url(#SVGID_78_)" d="M68.2 3L68 1.6l-1.3.2.2 1.3z"/></g><g class="st0"><defs><path id="SVGID_79_" d="M67.5 2.1c-.1.1-.2.2-.2.4 0 .1 0 .1.1.1l.4.2c.6.3 1 1.1 1 1.8v1.6s0 .1.1.1c.1.1.3.1.4 0 .1 0 .1-.1.1-.1V5c0-1.6-.7-2.3-1.6-2.8l-.1-.1h-.2c.1 0 0 0 0 0"/></defs><clipPath id="SVGID_80_"><use xlink:href="#SVGID_79_" overflow="visible"/></clipPath><linearGradient id="SVGID_81_" gradientUnits="userSpaceOnUse" x1="0" y1="75.009" x2="1" y2="75.009" gradientTransform="rotate(144.149 62.926 104.951) scale(2.4452)"><stop offset="0" stop-color="#d3d5d6"/><stop offset=".276" stop-color="#d0d2d3"/><stop offset=".488" stop-color="#c6c8c9"/><stop offset=".679" stop-color="#b6b8b9"/><stop offset=".856" stop-color="#9fa1a3"/><stop offset="1" stop-color="#86888a"/></linearGradient><path clip-path="url(#SVGID_80_)" fill="url(#SVGID_81_)" d="M68.7 1.1l-3.4 2.5L68 7.4l3.4-2.5z"/></g><g class="st0"><defs><path id="SVGID_82_" d="M47.3 22.7v1.6s0 .1.1.1c.1.1.3.1.4 0 .1 0 .1-.1.1-.1v-1.6c0-.7.6-.5 1.3-.1l1 .6v-.7l-1-.6c-.3-.2-.7-.3-.9-.3-.6 0-1 .4-1 1.1"/></defs><clipPath id="SVGID_83_"><use xlink:href="#SVGID_82_" overflow="visible"/></clipPath><linearGradient id="SVGID_84_" gradientUnits="userSpaceOnUse" x1="0" y1="74.984" x2="1" y2="74.984" gradientTransform="matrix(-.9037 3.3758 -3.3758 -.9037 302.38 89.015)"><stop offset="0" stop-color="#d3d5d6"/><stop offset=".276" stop-color="#d0d2d3"/><stop offset=".488" stop-color="#c6c8c9"/><stop offset=".679" stop-color="#b6b8b9"/><stop offset=".856" stop-color="#9fa1a3"/><stop offset="1" stop-color="#86888a"/></linearGradient><path clip-path="url(#SVGID_83_)" fill="url(#SVGID_84_)" d="M47.5 20.9l-.9 3.3 3.4 1 .9-3.4z"/></g><g class="st0"><defs><path id="SVGID_85_" d="M49.3 23.2l2.9 1.5c.3.2.8.2 1.1 0 .1-.1.2-.2.2-.3v-.3c0 .1-.1.2-.2.3-.3.2-.8.2-1.1 0l-2.9-1.7v.5z"/></defs><clipPath id="SVGID_86_"><use xlink:href="#SVGID_85_" overflow="visible"/></clipPath><linearGradient id="SVGID_87_" gradientUnits="userSpaceOnUse" x1="0" y1="74.995" x2="1" y2="74.995" gradientTransform="matrix(4.2762 0 0 -4.2762 49.308 344.518)"><stop offset="0" stop-color="#ffed00"/><stop offset="1" stop-color="#e3000f"/></linearGradient><path clip-path="url(#SVGID_86_)" fill="url(#SVGID_87_)" d="M49.3 22.7h4.3v2.2h-4.3z"/></g><g class="st0"><defs><path id="SVGID_88_" d="M49.3 22.7l2.9 1.7c.3.2.8.2 1.1 0 .3-.2.3-.5 0-.7L50.4 22l-1.1.7z"/></defs><clipPath id="SVGID_89_"><use xlink:href="#SVGID_88_" overflow="visible"/></clipPath><linearGradient id="SVGID_90_" gradientUnits="userSpaceOnUse" x1="0" y1="74.995" x2="1" y2="74.995" gradientTransform="matrix(4.2766 0 0 -4.2766 49.308 344.063)"><stop offset="0" stop-color="#ffed00"/><stop offset="1" stop-color="#e3970f"/></linearGradient><path clip-path="url(#SVGID_89_)" fill="url(#SVGID_90_)" d="M49.3 22.1h4.4v2.5h-4.4z"/></g><g class="st0"><defs><path id="SVGID_91_" d="M73.7 7.5V9s0 .1.1.1c.1.1.3.1.4 0 .1 0 .1-.1.1-.1V7.5c0-.7.6-.5 1.3-.1l1 .6v-.8l-1-.6c-.3-.2-.7-.3-.9-.3-.6.1-1 .5-1 1.2"/></defs><clipPath id="SVGID_92_"><use xlink:href="#SVGID_91_" overflow="visible"/></clipPath><linearGradient id="SVGID_93_" gradientUnits="userSpaceOnUse" x1="0" y1="74.984" x2="1" y2="74.984" gradientTransform="matrix(-.9036 3.3756 -3.3756 -.9036 328.71 73.802)"><stop offset="0" stop-color="#d3d5d6"/><stop offset=".276" stop-color="#d0d2d3"/><stop offset=".488" stop-color="#c6c8c9"/><stop offset=".679" stop-color="#b6b8b9"/><stop offset=".856" stop-color="#9fa1a3"/><stop offset="1" stop-color="#86888a"/></linearGradient><path clip-path="url(#SVGID_92_)" fill="url(#SVGID_93_)" d="M73.9 5.7L73 9l3.4.9.9-3.3z"/></g><g class="st0"><defs><path id="SVGID_94_" d="M75.7 8l2.9 1.5c.3.2.8.2 1.1 0 .1-.1.2-.2.2-.3v-.3c0 .1-.1.2-.2.3-.3.2-.8.2-1.1 0l-2.9-1.7V8z"/></defs><clipPath id="SVGID_95_"><use xlink:href="#SVGID_94_" overflow="visible"/></clipPath><linearGradient id="SVGID_96_" gradientUnits="userSpaceOnUse" x1="0" y1="74.995" x2="1" y2="74.995" gradientTransform="matrix(4.2761 0 0 -4.2761 75.657 329.303)"><stop offset="0" stop-color="#ffed00"/><stop offset="1" stop-color="#e3000f"/></linearGradient><path clip-path="url(#SVGID_95_)" fill="url(#SVGID_96_)" d="M75.7 7.5H80v2.2h-4.3z"/></g><g class="st0"><defs><path id="SVGID_97_" d="M75.7 7.5l2.9 1.7c.3.2.8.2 1.1 0 .3-.2.3-.5 0-.7l-2.9-1.7-1.1.7z"/></defs><clipPath id="SVGID_98_"><use xlink:href="#SVGID_97_" overflow="visible"/></clipPath><linearGradient id="SVGID_99_" gradientUnits="userSpaceOnUse" x1="0" y1="74.995" x2="1" y2="74.995" gradientTransform="matrix(4.2757 0 0 -4.2757 75.657 328.788)"><stop offset="0" stop-color="#ffed00"/><stop offset="1" stop-color="#e3970f"/></linearGradient><path clip-path="url(#SVGID_98_)" fill="url(#SVGID_99_)" d="M75.7 6.9h4.4v2.5h-4.4z"/></g><path clip-path="url(#SVGID_2_)" fill="#fffdfd" d="M42.6 28.1v29.2l38.2-21.6V6.4z"/><g class="st0"><defs><path id="SVGID_100_" d="M74.4 23c-.8 1.5-.8 3.1 0 3.6l6.3 3.9V12l-6.3 11z"/></defs><clipPath id="SVGID_101_"><use xlink:href="#SVGID_100_" overflow="visible"/></clipPath><linearGradient id="SVGID_102_" gradientUnits="userSpaceOnUse" x1="0" y1="75" x2="1" y2="75" gradientTransform="matrix(6.9648 0 0 -6.9648 73.794 543.578)"><stop offset="0" stop-color="#00ed65"/><stop offset="1" stop-color="#00953f"/></linearGradient><path clip-path="url(#SVGID_101_)" fill="url(#SVGID_102_)" d="M73.6 12h7.2v18.5h-7.2z"/></g><g class="st0"><defs><path id="SVGID_103_" d="M75.5 15.6c-1 1.7-1 3.5 0 4.1l5.3 3.2V6.4l-5.3 9.2z"/></defs><clipPath id="SVGID_104_"><use xlink:href="#SVGID_103_" overflow="visible"/></clipPath><linearGradient id="SVGID_105_" gradientUnits="userSpaceOnUse" x1="0" y1="74.761" x2="1" y2="74.761" gradientTransform="matrix(-6.0067 2.765 0 6.0067 80.759 -435.826)"><stop offset="0" stop-color="#ffed00"/><stop offset="1" stop-color="#e3870f"/></linearGradient><path clip-path="url(#SVGID_104_)" fill="url(#SVGID_105_)" d="M80.8 23l-6.3 2.8V6.4l6.3-2.9z"/></g><g class="st0"><defs><path id="SVGID_106_" d="M0 0h80.8v75H0z"/></defs><clipPath id="SVGID_107_"><use xlink:href="#SVGID_106_" overflow="visible"/></clipPath><g clip-path="url(#SVGID_107_)"><defs><path id="SVGID_108_" d="M63.4 10.5h17.3v16.3H63.4z"/></defs><clipPath id="SVGID_109_"><use xlink:href="#SVGID_108_" overflow="visible"/></clipPath><g clip-path="url(#SVGID_109_)"><defs><path id="SVGID_110_" d="M80.8 26.8V15l-7.4-4.5-10 5.7z"/></defs><clipPath id="SVGID_111_"><use xlink:href="#SVGID_110_" overflow="visible"/></clipPath><defs><filter id="Adobe_OpacityMaskFilter_2_" filterUnits="userSpaceOnUse" x="55.3" y="3.7" width="33.6" height="29.9"><feColorMatrix values="1 0 0 0 0 0 1 0 0 0 0 0 1 0 0 0 0 0 1 0"/></filter></defs><mask maskUnits="userSpaceOnUse" x="55.3" y="3.7" width="33.6" height="29.9" id="SVGID_112_"><g filter="url(#Adobe_OpacityMaskFilter_2_)"><linearGradient id="SVGID_113_" gradientUnits="userSpaceOnUse" x1="0" y1="75.057" x2="1" y2="75.057" gradientTransform="matrix(-23.8457 -12.8691 -23.8457 34.8224 1879.702 -2585.345)"><stop offset="0"/><stop offset="1" stop-color="#fff"/></linearGradient><path clip-path="url(#SVGID_111_)" fill="url(#SVGID_113_)" d="M76.1 33.7L55.3 22.4 68.1 3.7l20.8 11.2z"/></g></mask><linearGradient id="SVGID_114_" gradientUnits="userSpaceOnUse" x1="0" y1="75.057" x2="1" y2="75.057" gradientTransform="matrix(-23.8457 -12.8691 -23.8457 34.8224 1879.702 -2585.345)"><stop offset="0" stop-color="#fffdfd"/><stop offset="1" stop-color="#fff"/></linearGradient><path clip-path="url(#SVGID_111_)" mask="url(#SVGID_112_)" fill="url(#SVGID_114_)" d="M76.1 33.7L55.3 22.4 68.1 3.7l20.8 11.2z"/></g></g><path d="M48.9 40.7l-6.3 11.1V33.3l6.3 3.9c.8.4.8 2.1 0 3.5" clip-path="url(#SVGID_107_)" fill="#ffec00"/></g><g class="st0"><defs><path id="SVGID_115_" d="M42.6 57.3l14-7.9-14-8.6z"/></defs><clipPath id="SVGID_116_"><use xlink:href="#SVGID_115_" overflow="visible"/></clipPath><linearGradient id="SVGID_117_" gradientUnits="userSpaceOnUse" x1="0" y1="74.77" x2="1" y2="74.77" gradientTransform="matrix(14.0542 -6.4694 0 -14.0542 42.556 1103.127)"><stop offset="0" stop-color="#00ed65"/><stop offset="1" stop-color="#00953f"/></linearGradient><path clip-path="url(#SVGID_116_)" fill="url(#SVGID_117_)" d="M42.6 40.8l14-6.5v23l-14 6.5z"/></g><g class="st0"><defs><path id="SVGID_118_" d="M0 0h80.8v75H0z"/></defs><clipPath id="SVGID_119_"><use xlink:href="#SVGID_118_" overflow="visible"/></clipPath><g class="st50"><defs><path id="SVGID_120_" d="M42.6 37.1h11.6v13.6H42.6z"/></defs><clipPath id="SVGID_121_"><use xlink:href="#SVGID_120_" overflow="visible"/></clipPath><g clip-path="url(#SVGID_121_)"><defs><path id="SVGID_122_" d="M54.1 50.8V37.1l-11.5 6.6z"/></defs><clipPath id="SVGID_123_"><use xlink:href="#SVGID_122_" overflow="visible"/></clipPath><radialGradient id="SVGID_124_" cx="0" cy="75" r="1" gradientTransform="matrix(6.9994 7.4751 1.2634 -4.0569 -47.601 353.553)" gradientUnits="userSpaceOnUse"><stop offset="0" stop-color="#bf2000"/><stop offset="1" stop-color="#fff"/></radialGradient><path clip-path="url(#SVGID_123_)" fill="url(#SVGID_124_)" d="M45.4 27.9l11.9 12.6-6.1 19.6-11.8-12.7z"/></g></g><g class="st50"><defs><path id="SVGID_125_" d="M42.6 37.1h17.2v14.2H42.6z"/></defs><clipPath id="SVGID_126_"><use xlink:href="#SVGID_125_" overflow="visible"/></clipPath><g clip-path="url(#SVGID_126_)"><defs><path id="SVGID_127_" d="M53.2 51.3l6.5-3.7-17.1-10.5v7.7z"/></defs><clipPath id="SVGID_128_"><use xlink:href="#SVGID_127_" overflow="visible"/></clipPath><defs><filter id="Adobe_OpacityMaskFilter_3_" filterUnits="userSpaceOnUse" x="35.4" y="30.3" width="31.4" height="27.8"><feColorMatrix values="1 0 0 0 0 0 1 0 0 0 0 0 1 0 0 0 0 0 1 0"/></filter></defs><mask maskUnits="userSpaceOnUse" x="35.4" y="30.3" width="31.4" height="27.8" id="SVGID_129_"><g filter="url(#Adobe_OpacityMaskFilter_3_)"><linearGradient id="SVGID_130_" gradientUnits="userSpaceOnUse" x1="0" y1="74.928" x2="1" y2="74.928" gradientTransform="matrix(-12.2123 -6.5908 -12.2123 17.8339 967.192 -1291.516)"><stop offset="0"/><stop offset="1" stop-color="#fff"/></linearGradient><path clip-path="url(#SVGID_128_)" fill="url(#SVGID_130_)" d="M55.1 58.1L35.4 47.5l11.8-17.2 19.7 10.6z"/></g></mask><linearGradient id="SVGID_131_" gradientUnits="userSpaceOnUse" x1="0" y1="74.928" x2="1" y2="74.928" gradientTransform="matrix(-12.2123 -6.5908 -12.2123 17.8339 967.192 -1291.517)"><stop offset="0" stop-color="#fffdfd"/><stop offset="1" stop-color="#fff"/></linearGradient><path clip-path="url(#SVGID_128_)" mask="url(#SVGID_129_)" fill="url(#SVGID_131_)" d="M55.1 58.1L35.4 47.5l11.8-17.2 19.7 10.6z"/></g></g></g><g class="st0"><defs><path id="SVGID_132_" d="M59 27.3c-.1 2.3.2 4 .9 5.1v.2s0 .1.1.1l.1.1v.1l.1.1.1.1.1.1.1.1s.1 0 .1.1h.2c.1 0 .1.1.2.1.7.3 1.5.4 2.5.2-.4-1-.7-2.3-.7-3.8l2.7-1.7.4-1.8-3 2c.1-.7.2-1.5.4-2.3l3.1-2 .9-2.2c-2.6 1.7-5.4 3.5-8.3 5.4"/></defs><clipPath id="SVGID_133_"><use xlink:href="#SVGID_132_" overflow="visible"/></clipPath><linearGradient id="SVGID_134_" gradientUnits="userSpaceOnUse" x1="0" y1="75.084" x2="1" y2="75.084" gradientTransform="matrix(8.5459 -2.7767 0 -8.5459 59.026 670.846)"><stop offset="0" stop-color="#ff5964"/><stop offset="1" stop-color="#e2000f"/></linearGradient><path clip-path="url(#SVGID_133_)" fill="url(#SVGID_134_)" d="M58.9 21.7l8.7-2.8v15l-8.7 2.8z"/></g><g class="st0"><defs><path id="SVGID_135_" d="M57.1 30.1c.4 3.9 2.5 5.5 6.2 4.7-1.3-1.5-1.9-3.9-1.2-7.9-1.6 1-3.3 2.1-5 3.2"/></defs><clipPath id="SVGID_136_"><use xlink:href="#SVGID_135_" overflow="visible"/></clipPath><linearGradient id="SVGID_137_" gradientUnits="userSpaceOnUse" x1="0" y1="75.061" x2="1" y2="75.061" gradientTransform="matrix(6.165 -2.0031 0 -6.165 57.125 494.988)"><stop offset="0" stop-color="#ffed00"/><stop offset="1" stop-color="#e3870f"/></linearGradient><path clip-path="url(#SVGID_136_)" fill="url(#SVGID_137_)" d="M57.1 26.8l6.2-2v10.8l-6.2 2z"/></g><g class="st0"><defs><path id="SVGID_138_" d="M55.7 32.8c.9 3.6 3.2 4.6 7 2.9-1.6-1.3-2.4-3.3-2-6.2-1.6 1.2-3.3 2.3-5 3.3"/></defs><clipPath id="SVGID_139_"><use xlink:href="#SVGID_138_" overflow="visible"/></clipPath><linearGradient id="SVGID_140_" gradientUnits="userSpaceOnUse" x1="0" y1="75.001" x2="1" y2="75.001" gradientTransform="matrix(7.0119 -2.2783 0 -7.0119 55.744 560.567)"><stop offset="0" stop-color="#00ed65"/><stop offset="1" stop-color="#00953f"/></linearGradient><path clip-path="url(#SVGID_139_)" fill="url(#SVGID_140_)" d="M55.7 29.6l7.1-2.3v10.2l-7.1 2.2z"/></g></svg>