<svg version="1.1" id="Слой_1" xmlns="http://www.w3.org/2000/svg" xmlns:xlink="http://www.w3.org/1999/xlink" x="0" y="0" viewBox="0 0 103.2 60.2" xml:space="preserve" enable-background="new 0 0 103.2 60.2"><style>.st33{fill:#d1d1d1}.st33,.st35,.st38,.st42{clip-path:url(#SVGID_39_)}.st35{opacity:.46}.st38{fill:#1d2122}.st42{fill:#595959}.st46{clip-path:url(#SVGID_50_);opacity:.4}</style><defs><path id="SVGID_1_" d="M35.6 0L0 16.8l77.4 43.3 25.5-19.2z"/></defs><clipPath id="SVGID_2_"><use xlink:href="#SVGID_1_" overflow="visible"/></clipPath><defs><filter id="Adobe_OpacityMaskFilter" filterUnits="userSpaceOnUse" x="-23.7" y="-40.6" width="150.3" height="141.2"><feColorMatrix values="1 0 0 0 0 0 1 0 0 0 0 0 1 0 0 0 0 0 1 0"/></filter></defs><mask maskUnits="userSpaceOnUse" x="-23.7" y="-40.6" width="150.3" height="141.2" id="SVGID_3_"><g filter="url(#Adobe_OpacityMaskFilter)"><linearGradient id="SVGID_4_" gradientUnits="userSpaceOnUse" x1="0" y1="60.158" x2="1" y2="60.158" gradientTransform="scale(72.847 -72.847) rotate(-64 -47.877 29.686)"><stop offset="0" stop-color="#fff"/><stop offset=".788" stop-color="#999"/><stop offset="1" stop-color="#999"/></linearGradient><path clip-path="url(#SVGID_2_)" fill="url(#SVGID_4_)" d="M83.1-40.6l43.5 89.1-106.8 52.1-43.5-89.1z"/></g></mask><linearGradient id="SVGID_5_" gradientUnits="userSpaceOnUse" x1="0" y1="60.158" x2="1" y2="60.158" gradientTransform="scale(72.8472 -72.8472) rotate(-64 -47.877 29.686)"><stop offset="0" stop-color="#fff"/><stop offset=".788" stop-color="#b6caca"/><stop offset="1" stop-color="#b6caca"/></linearGradient><path clip-path="url(#SVGID_2_)" mask="url(#SVGID_3_)" fill="url(#SVGID_5_)" d="M83.1-40.6l43.5 89.1-106.8 52.1-43.5-89.1z"/><defs><path id="SVGID_6_" d="M0 0h103.2v60.2H0z"/></defs><clipPath id="SVGID_7_"><use xlink:href="#SVGID_6_" overflow="visible"/></clipPath><path d="M84.8 22.2c.2-.3 1.6-1.6 1.8-1.4.4.3.2 1.7-.1 2.3-.3.5-1.7 2-1.7 1.8-.2-.4-.3-2.4 0-2.7" clip-path="url(#SVGID_7_)" fill="#dadada"/><path d="M32.8 26.9c-.8.5-.6 4.1-.1 5.6l4.7-2.7 3.1 6.8c5.5.5 14.8-20.6 15.6-21L32.8 26.9zm36.3 19.9c-.8.5-1 5.3-.4 6.6l4.3-2.6 3.7 6.9c3.4-.9 13.8-22.5 14.6-23L69.1 46.8z" clip-path="url(#SVGID_7_)" fill="#2a2a28"/><path d="M44.6 30.8c-.4-1-1-1.9-1.7-2.7-.6-.7-1.2-1.2-1.9-1.6-1.2-.7-2.4-.8-3.2-.3l-2.5 1.4c.8-.5 1.9-.4 3.2.3.7.4 1.4 1 1.9 1.6.7.8 1.3 1.7 1.7 2.7.5 1.1.8 2.3.8 3.3 0 1.4-.5 2.4-1.3 2.9L44 37c.8-.5 1.3-1.5 1.3-2.9 0-1-.3-2.2-.7-3.3" clip-path="url(#SVGID_7_)" fill="#282726"/><path d="M38.4 27.9c-2.4-1.4-4.4-.3-4.4 2.5s2 6.3 4.4 7.7c2.5 1.4 4.5.3 4.5-2.5s-2-6.3-4.5-7.7" clip-path="url(#SVGID_7_)" fill="#383736"/><g opacity=".5" clip-path="url(#SVGID_7_)"><defs><path id="SVGID_8_" d="M35.2 28.9h6.4v8.2h-6.4z"/></defs><clipPath id="SVGID_9_"><use xlink:href="#SVGID_8_" overflow="visible"/></clipPath><path d="M38.4 29.3c-1.8-1-3.2-.2-3.2 1.8s1.4 4.5 3.2 5.5c1.8 1 3.2.2 3.2-1.8s-1.4-4.4-3.2-5.5" clip-path="url(#SVGID_9_)" fill="#282726"/></g><path d="M37 29.1h.1l.8.1s.2 0 .1.1c-.6.2-1 .7-1 1.6 0 1.5 1 3.4 2.3 4.2.8.5 1.5.5 2 0 .1-.1-.1.2-.1.2l-.3.5c-.5.8-1.5 1-2.6.3-1.6-.9-2.8-3.2-2.7-4.9 0-1.3.4-2.1 1.4-2.1" clip-path="url(#SVGID_7_)" fill="#b8b8b8"/><path d="M38.5 29.4c1.7 1 3 3.3 2.9 5.3s-1.4 2.6-3.1 1.6c-1.7-1-3-3.3-2.9-5.3.1-1.8 1.4-2.6 3.1-1.6m0 .2c-1.6-.9-2.8-.2-2.9 1.5 0 1.8 1.2 4 2.7 4.9 1.6.9 2.8.2 2.9-1.5.1-1.7-1.2-3.9-2.7-4.9" clip-path="url(#SVGID_7_)" fill="#dbdbdb"/><defs><path id="SVGID_10_" d="M35.6 31.2c0 1.8 1.2 4 2.7 4.9 1.6.9 2.8.2 2.9-1.5s-1.2-4-2.7-4.9c-.5-.3-.9-.4-1.3-.4-.9-.1-1.6.6-1.6 1.9"/></defs><clipPath id="SVGID_11_"><use xlink:href="#SVGID_10_" overflow="visible"/></clipPath><path d="M39.2 29.6c1.4.9 2.5 2.9 2.5 4.5-.1 1.6-1.2 2.3-2.6 1.4-1.4-.9-2.5-2.9-2.5-4.5s1.2-2.3 2.6-1.4" clip-path="url(#SVGID_11_)" fill="#9b9b9b"/><path d="M38.9 30.5c1 .6 1.8 2.1 1.8 3.3 0 1.2-.9 1.7-2 1-1-.6-1.8-2.1-1.8-3.3.1-1.2 1-1.7 2-1" clip-path="url(#SVGID_11_)" fill="#dbdbdb"/><path d="M37 31.3c0-1.2.8-1.8 1.8-1.4.1 0 .2.1.4.2.7.4 1.2 1.1 1.6 1.9.3.6.4 1.2.4 1.8 0 1.4-1 1.9-2.2 1.1l-.2-.1c1 .6 1.9.2 1.9-1 0-.5-.1-1.1-.4-1.6-.3-.7-.8-1.3-1.4-1.7-.1-.1-.2-.1-.3-.2-.9-.4-1.6.1-1.6 1.2-.1 0 0-.2 0-.2" clip-path="url(#SVGID_11_)" fill="#b8b8b8"/><defs><path id="SVGID_12_" d="M43.5 35.3s-.1 2.7-.3 3.4l25.5 14.7v-3.6l-4.4-5.4-15.4-9.1h-5.4z"/></defs><clipPath id="SVGID_13_"><use xlink:href="#SVGID_12_" overflow="visible"/></clipPath><linearGradient id="SVGID_14_" gradientUnits="userSpaceOnUse" x1="0" y1="60.118" x2="1" y2="60.118" gradientTransform="scale(-2.8201 2.8201) rotate(59.999 28.797 20.246)"><stop offset="0" stop-color="#a8a8a8"/><stop offset=".133" stop-color="#a8a8a8"/><stop offset=".153" stop-color="#cbccce"/><stop offset="1" stop-color="#cbccce"/></linearGradient><path clip-path="url(#SVGID_13_)" fill="url(#SVGID_14_)" d="M76.6 39.8L62.4 64.4l-27-15.5 14.2-24.7z"/><defs><path id="SVGID_15_" d="M0 0h103.2v60.2H0z"/></defs><clipPath id="SVGID_16_"><use xlink:href="#SVGID_15_" overflow="visible"/></clipPath><path d="M79.9 51.2c-.4-1-1-1.9-1.7-2.7-.6-.7-1.2-1.2-1.9-1.6-1.2-.7-2.4-.8-3.2-.3L70.6 48c.8-.5 1.9-.4 3.2.3.7.4 1.4 1 1.9 1.6.7.8 1.3 1.7 1.7 2.7.5 1.1.8 2.3.8 3.3 0 1.4-.5 2.4-1.3 2.9l2.4-1.4c.8-.5 1.3-1.5 1.3-2.9 0-1-.2-2.2-.7-3.3" clip-path="url(#SVGID_16_)" fill="#282726"/><path d="M73.8 48.3c-2.5-1.4-4.5-.3-4.5 2.5s2 6.3 4.4 7.7c2.5 1.4 4.5.3 4.5-2.5s-2-6.3-4.4-7.7" clip-path="url(#SVGID_16_)" fill="#383736"/><g opacity=".5" clip-path="url(#SVGID_16_)"><defs><path id="SVGID_17_" d="M70.5 49.3h6.4v8.2h-6.4z"/></defs><clipPath id="SVGID_18_"><use xlink:href="#SVGID_17_" overflow="visible"/></clipPath><path d="M73.7 49.7c-1.8-1-3.2-.2-3.2 1.8s1.4 4.5 3.2 5.5c1.8 1 3.2.2 3.2-1.8s-1.4-4.4-3.2-5.5" clip-path="url(#SVGID_18_)" fill="#282726"/></g><path d="M72.3 49.5h.1l.8.1s.2 0 .1.1c-.6.2-1 .7-1 1.6 0 1.5 1 3.4 2.3 4.2.8.5 1.5.5 2 0 .1-.1-.1.2-.1.2l-.3.5c-.5.8-1.5 1-2.6.3-1.6-.9-2.8-3.2-2.7-4.9 0-1.3.5-2.1 1.4-2.1" clip-path="url(#SVGID_16_)" fill="#b8b8b8"/><path d="M73.8 49.8c1.7 1 3 3.3 2.9 5.3 0 1.9-1.4 2.6-3.1 1.6-1.7-1-3-3.3-2.9-5.3.1-1.8 1.5-2.6 3.1-1.6m0 .2c-1.6-.9-2.8-.2-2.9 1.5 0 1.8 1.2 4 2.7 4.9 1.6.9 2.8.2 2.9-1.5.1-1.7-1.1-3.9-2.7-4.9" clip-path="url(#SVGID_16_)" fill="#dbdbdb"/><defs><path id="SVGID_19_" d="M70.9 51.6c0 1.8 1.2 4 2.7 4.9 1.6.9 2.8.2 2.9-1.5 0-1.8-1.2-4-2.7-4.9-.5-.3-.9-.4-1.3-.4-.9-.1-1.6.6-1.6 1.9"/></defs><clipPath id="SVGID_20_"><use xlink:href="#SVGID_19_" overflow="visible"/></clipPath><path d="M74.5 50c1.4.9 2.5 2.9 2.5 4.5-.1 1.6-1.2 2.3-2.6 1.4-1.4-.9-2.5-2.9-2.5-4.5 0-1.7 1.2-2.3 2.6-1.4" clip-path="url(#SVGID_20_)" fill="#9b9b9b"/><path d="M74.2 50.9c1 .6 1.8 2.1 1.8 3.3 0 1.2-.9 1.7-1.9 1-1-.6-1.8-2.1-1.8-3.3 0-1.2.9-1.7 1.9-1" clip-path="url(#SVGID_20_)" fill="#dbdbdb"/><path d="M72.3 51.7c0-1.2.8-1.8 1.8-1.4.1 0 .2.1.4.2.7.4 1.2 1.1 1.6 1.9.3.6.4 1.2.4 1.8 0 1.4-1 1.9-2.2 1.1l-.2-.1c1 .6 1.9.2 1.9-1 0-.5-.1-1.1-.4-1.6-.3-.7-.8-1.3-1.4-1.7-.1-.1-.2-.1-.3-.2-.9-.4-1.6.1-1.6 1.2v-.2" clip-path="url(#SVGID_20_)" fill="#b8b8b8"/><defs><path id="SVGID_21_" d="M0 0h103.2v60.2H0z"/></defs><clipPath id="SVGID_22_"><use xlink:href="#SVGID_21_" overflow="visible"/></clipPath><path d="M103.2 42.6c0-.1-.1-.3-.1-.4-.1-.2-.3-.3-.3-.3-.1-1.1-.3-2-.5-2.4-.6-1.4-1.6-3.1-2.9-4.6-.5-.6-1.2-1.2-1.8-1.7l-10.8-8.4c-.2-.2-7.6-7.6-9.9-9L64.3 8.6C61.5 7 54.8 7 54.4 7.1c-.4 0-2.8-1.5-6.9-1.9-1.6-.2-10.1 4-16 8.3-1.8 1.3-1.7 7-1.7 7s-1.8.4-1.9.6c-.4.5-.1 6.3.2 6.9 1.1 2.3 4.7 4.5 4.7 4.5.2-2.8 1.3-8 6-5.3.1 0 .1.1.2.1 2.5 1.5 4.5 5 4.6 8l25.2 14.6c.1-2.9 2.3-4.1 4.8-2.6.1 0 .1.1.2.1 2.5 1.5 5.3 5.5 5.4 11.9 4.5 1.8 10 .5 14.7-1.8 4.9-2.4 8.5-5.4 9.4-7.8.1-.2.1-.5.1-.8-.2-1.2-.2-5.8-.2-6.3M75.4 19c1.1-.8 1.9-1.5 2.2-1.8 2.2 1.9 6.6 6.2 7.5 7.4L75.4 19z" clip-path="url(#SVGID_22_)" fill="#c7c7c7"/><defs><path id="SVGID_23_" d="M34 21.3s3.3 3.6 8.8 7.7c2.4 1.8 4.4 4.4 5.8 7l1.8 3.3 17.2 10-1.7-4-12.5-7.1-3-6.1c-.2-.4-.3-.9-.3-1.4 0-.5.1-1 .4-1.5l1.5-2.7 2.8-7c-2.6-1.5-5.1-2.6-5.9-2.8-2.1-.4-7.2-.4-9.9-.4h-.5c-5.2 0-6.9 2.5-4.5 5"/></defs><clipPath id="SVGID_24_"><use xlink:href="#SVGID_23_" overflow="visible"/></clipPath><linearGradient id="SVGID_25_" gradientUnits="userSpaceOnUse" x1="0" y1="60.165" x2="1" y2="60.165" gradientTransform="matrix(34.7087 0 0 -34.7087 32.941 2121.01)"><stop offset="0" stop-color="#85eb6f"/><stop offset="1" stop-color="#539347"/></linearGradient><path clip-path="url(#SVGID_24_)" fill="url(#SVGID_25_)" d="M31.6 16.3h36v33h-36z"/><defs><path id="SVGID_26_" d="M0 0h103.2v60.2H0z"/></defs><clipPath id="SVGID_27_"><use xlink:href="#SVGID_26_" overflow="visible"/></clipPath><g opacity=".6" clip-path="url(#SVGID_27_)"><defs><path id="SVGID_28_" d="M27.6 16.8h75.6v43.4H27.6z"/></defs><clipPath id="SVGID_29_"><use xlink:href="#SVGID_28_" overflow="visible"/></clipPath><g clip-path="url(#SVGID_29_)"><defs><path id="SVGID_30_" d="M103.2 44.5v4.4c0 .3 0 .5-.1.8-.8 2.4-4.5 5.4-9.4 7.8-4.7 2.3-10.2 3.6-14.7 1.8 0-6-2.5-9.9-4.9-11.6 9.5 7.2 17.6 5.3 29.1-3.2M30 16.8c-.3 1.8-.3 3.6-.3 3.6s-1.8.4-1.9.6c-.4.5-.1 6.3.2 6.9 1.1 2.3 4.7 4.6 4.7 4.6.2-2.9 1.3-8 6-5.3.1 0 .1.1.2.1 2.5 1.5 4.5 5 4.6 8l25.2 14.6c.1-2.3 1.5-3.5 3.3-3.1-1.7-1-30.4-14.7-42-30"/></defs><clipPath id="SVGID_31_"><use xlink:href="#SVGID_30_" overflow="visible"/></clipPath><linearGradient id="SVGID_32_" gradientUnits="userSpaceOnUse" x1="0" y1="60.21" x2="1" y2="60.21" gradientTransform="matrix(-10.844 0 0 10.844 88.156 -613.953)"><stop offset="0" stop-color="#fff"/><stop offset=".409" stop-color="#fff"/><stop offset="1" stop-color="#cbccce"/></linearGradient><path clip-path="url(#SVGID_31_)" fill="url(#SVGID_32_)" d="M27.4 16.8h75.8v44.3H27.4z"/></g></g><path d="M85.7 24.3c-2.7-2.8-5.2-5.1-7.7-7.2h-.1s-.1.1-.2.1c2.2 1.9 6.6 6.2 7.5 7.4L75.4 19c-2.3 1.7-6.1 4.2-11.5 6.1-.1 0-.1.1-.1.2l5.2 9.5c.3.6 1 .8 1.7.6 2.4-.6 8.1-2.6 13.7-7.6.9-.8 2.2-2.6 1.3-3.5" clip-path="url(#SVGID_27_)" fill="#c7c7c7"/><g opacity=".4" clip-path="url(#SVGID_27_)"><defs><path id="SVGID_33_" d="M51.9 27.5H67v19.9H51.9z"/></defs><clipPath id="SVGID_34_"><use xlink:href="#SVGID_33_" overflow="visible"/></clipPath><path d="M66.6 35.3l-.2.1s.5 1.9.3 2.7c-.1.8-1.1 7.7-1.2 8.9l-13.3-7.7v-6.7c0-1.2.3-2.5.8-3.6l.7-1.4-.2-.1-.7 1.4c-.6 1.1-.8 2.3-.8 3.6v7l13.6 7.8.2.1v-.2c0-.1 1.1-8.2 1.2-9.1.1-.9-.4-2.7-.4-2.8" clip-path="url(#SVGID_34_)" fill="#c7c7c7"/></g><defs><path id="SVGID_35_" d="M80 53.3s.7.4 2.6.5c8.9.3 19.1-7.3 20.6-11v-.2c0-.1-.1-.3-.1-.4-.1-.2-.3-.3-.3-.3v-.1C94.9 53.4 80 53.2 80 53.3"/></defs><clipPath id="SVGID_36_"><use xlink:href="#SVGID_35_" overflow="visible"/></clipPath><linearGradient id="SVGID_37_" gradientUnits="userSpaceOnUse" x1="0" y1="60.164" x2="1" y2="60.164" gradientTransform="scale(34.8478 -34.8478) rotate(3.822 923.948 57.845)"><stop offset="0" stop-color="#cbccce"/><stop offset=".568" stop-color="#e0e0e1"/><stop offset="1" stop-color="#eaeaea"/></linearGradient><path clip-path="url(#SVGID_36_)" fill="url(#SVGID_37_)" d="M79.2 41.9l23.9-1.6.9 13.7-23.9 1.6z"/><defs><path id="SVGID_38_" d="M0 0h103.2v60.2H0z"/></defs><clipPath id="SVGID_39_"><use xlink:href="#SVGID_38_" overflow="visible"/></clipPath><path class="st33" d="M79.1 24.6c-1.3.4-2.6 1.7-2.8 2.9-.2 1.2.6 1.8 1.9 1.3 1.3-.4 2.6-1.7 2.8-2.9.2-1.1-.6-1.7-1.9-1.3m-.1.4c.1 0 .2 0 .2-.1l-.6 1.8-1.5-.4c.6-.6 1.2-1.1 1.9-1.3m1.7 1.1c-.2 1-1.3 2.1-2.4 2.5-1.1.4-1.9-.2-1.7-1.2.1-.3.2-.6.4-.9l1.8.5.8-2.2c.8 0 1.3.5 1.1 1.3"/><path class="st33" d="M85.2 26.1c0-.4.5-.6.3-1 0-.1-.8-.6-.8-.6-6 1.9-12.3 5.8-16.1 9.4.8 2.1 1.8.6 2.6 1 .1 0 8.4-2.9 14-8.8"/><path d="M82.9 25.2c-.5 1.8-4.4 3.7-7.4 3.6 0 0 1.2-1.6 3.3-2.7 2.6-1.2 4.1-.9 4.1-.9" clip-path="url(#SVGID_39_)" fill="#e8e8e8"/><g class="st35"><defs><path id="SVGID_40_" d="M63.9 17H86v18.4H63.9z"/></defs><clipPath id="SVGID_41_"><use xlink:href="#SVGID_40_" overflow="visible"/></clipPath><path d="M77.8 17c-.6.6-5.3 5-13.8 8.1-.1 0-.1.1-.1.2l5.2 9.5c.3.6 1 .8 1.7.6 2.4-.6 8.1-2.6 13.7-7.6.9-.8 2.1-2.6 1.2-3.5-2.7-2.8-5.2-5.1-7.7-7.2-.1-.1-.2-.1-.2-.1" clip-path="url(#SVGID_41_)" fill="#3b4748"/></g><g class="st35"><defs><path id="SVGID_42_" d="M41.2 17.8h25.5v17.6H41.2z"/></defs><clipPath id="SVGID_43_"><use xlink:href="#SVGID_42_" overflow="visible"/></clipPath><path d="M66.7 35.5L41.2 20.8c.5-.8 1.8-1.6 3.2-2.3 2.2-1 4.7-.9 6.8.3 3.3 1.9 7.8 4.5 9.8 5.6.5.3 1 .7 1.3 1.3 1.2 2.4 4.1 8.7 4.4 9.8" clip-path="url(#SVGID_43_)" fill="#3b4748"/></g><path class="st38" d="M66.6 35.6L53.4 28l-12.2-7.1c-.1 0-.1-.1-.1-.2.5-.7 1.1-1.1 1.8-1.5.6-.4 1.3-.8 2-1 1.4-.5 3-.6 4.5-.3.7.2 1.4.5 2.1.9l2 1.1 2.9 1.7 3.9 2.2c.3.2.6.4 1 .6.3.2.6.5.9.8.2.3.4.7.6 1l.5 1c.7 1.3 1.3 2.7 2 4.1l.9 2.1c.3.7.6 1.4.8 2.1 0 .1 0 .2-.1.2-.2-.1-.2-.1-.3-.1zm-.2-.5c-.2-.6-.4-1.1-.7-1.7l-.9-2.1c-.6-1.4-1.3-2.7-1.9-4.1l-.5-1c-.2-.3-.3-.7-.6-.9-.2-.3-.5-.5-.8-.7-.3-.2-.6-.4-1-.6l-3.9-2.3-2.9-1.7-2-1.1c-.6-.4-1.3-.7-2-.9-1.4-.4-3-.3-4.3.3-.7.3-1.3.6-2 1-.6.4-1.2.9-1.6 1.4l-.1-.2 12.3 7 12.9 7.6z"/><path d="M34.6 26.1c-2.6-2.3-4.4-4-4.8-4.6v-1.8s-1.9 1.3-1.9 1.4c2.4 2.3 6.7 5 6.7 5" clip-path="url(#SVGID_39_)" fill="#c7c7c7"/><path d="M100.6 36.5c-.3-.5-.6-.8-1.2-1.6-.5-.6-1.2-1.2-1.8-1.7l-10.8-8.4c-.2-.2-7.6-7.6-9.9-9L64.3 8.6C61.5 7 54.8 7 54.4 7.1c-.4 0-2.8-1.5-6.9-1.9-1.6-.1-9.7 3.8-15.5 8-.2.1-.2.4 0 .6 2.3 1.6 3.8 2.5 6.6 2.5 2.6 0 8.1 0 10.3.4 2 .4 13.3 6.7 14.5 8.4 1.1 1.5 4.7 8.3 6.9 12.3 1.3 2.5 3.2 4.6 5.6 6.2 1.1.8 2.3 1.5 3.3 2 1.2.7 2.6 1 3.9 1 9.6 0 15.8-6.2 17.6-9 .2-.2.2-.7-.1-1.1m-16.2-8.7c-5.6 5-11.4 7-13.7 7.6-.7.2-1.3 0-1.7-.6l-5.2-9.5c0-.1 0-.1.1-.2 8.5-3.1 13.2-7.5 13.8-8.1h.1c2.6 2.2 5 4.5 7.7 7.2 1.1 1-.2 2.8-1.1 3.6" clip-path="url(#SVGID_39_)" fill="#eaeaea"/><g class="st35"><defs><path id="SVGID_44_" d="M38.3 7.4h22v8.3h-22z"/></defs><clipPath id="SVGID_45_"><use xlink:href="#SVGID_44_" overflow="visible"/></clipPath><path d="M60.3 7.8c-3.2.7-8.7 4-12.7 7.7-.2.1-.4.2-.6.2l-8.6-.1c-.1 0-.2-.1-.1-.2.8-1.4 11.4-7.4 15.6-8h.3c.8 0 3.8 0 6.1.4" clip-path="url(#SVGID_45_)" fill="#3b4748"/></g><path class="st38" d="M60.3 7.9s-.2 0-.5.1-.8.3-1.4.5c-.6.3-1.3.6-2.2 1-.8.4-1.7.9-2.7 1.6-1 .6-2 1.3-3 2.1-.5.4-1 .8-1.6 1.3-.3.2-.5.4-.8.7l-.4.4c-.1.1-.3.3-.5.3-.2.1-.4 0-.6 0h-8.4c-.1 0-.1-.1-.1-.2v-.1l.1-.1c0-.1.1-.2.2-.2l.4-.4c.3-.2.6-.5.9-.7.6-.4 1.3-.8 1.9-1.2 1.3-.8 2.6-1.5 3.8-2.2 2.5-1.3 5-2.4 7.2-3.1.3-.1.5-.1.8-.2.1 0 .3 0 .4-.1h1.9c.9 0 1.7.1 2.4.1l2.6.3-.4.1zm-.6-.1c-.4 0-.9-.1-1.6-.2-.7-.1-1.5-.1-2.4-.1h-1.9c-.1 0-.3 0-.4.1-.3.1-.5.1-.8.2-1.1.3-2.2.8-3.4 1.3-1.2.5-2.4 1.1-3.7 1.8-1.3.7-2.5 1.4-3.8 2.1-.6.4-1.3.8-1.9 1.2-.3.2-.6.4-.9.7-.1.1-.3.2-.4.4-.1.1-.3.3-.2.3 1.5 0 3 0 4.5.1h4.3c.2 0 .3-.1.4-.3l.5-.4c.3-.2.5-.5.8-.7.5-.4 1-.9 1.6-1.3 1-.8 2-1.5 3-2.1 1-.6 1.9-1.1 2.7-1.6.8-.4 1.6-.8 2.2-1 .6-.3 1.1-.4 1.4-.5m26.2 16.6c-.1-.2-.3-.3-.4-.4l-.8-.8c-2-2-3.7-3.6-4.9-4.7-.6-.5-1.1-1-1.4-1.3-.2 0-.3-.2-.4-.2-.1-.1-.2-.1-.2 0h-.1s-.7.7-1.9 1.6c-1.3 1-3.2 2.3-5.7 3.6-1.2.7-2.6 1.3-4.1 1.9-.4.2-.7.3-1.1.5-.2.1-.4.1-.6.2l-.3.2h-.1l-.1.1c-.1.1-.1.2-.1.3.4.7.8 1.5 1.2 2.3.8 1.5 1.7 3.1 2.6 4.7.4.8.9 1.6 1.3 2.4.2.4.7.8 1.2.8.2 0 .5 0 .7-.1.2-.1.4-.1.7-.2 3.6-1.1 6.9-2.9 9.8-4.9.4-.3.7-.5 1.1-.8.3-.3.7-.5 1-.8.6-.6 1.3-1 1.8-1.7.2-.3.5-.7.6-1 .2-.4.3-.8.3-1.2 0-.2 0-.3-.1-.5M85 27c-.5.6-1.1 1.1-1.8 1.7-.3.3-.7.5-1 .8-.3.3-.7.5-1 .8-2.8 2-6.2 3.7-9.8 4.8-.2.1-.4.1-.7.2-.2.1-.4.1-.7.1-.4 0-.8-.3-1-.7-.4-.8-.9-1.6-1.3-2.4-.9-1.6-1.7-3.2-2.6-4.7-.4-.8-.8-1.5-1.2-2.2h.1l.3-.1c.2-.1.4-.1.6-.2.4-.1.8-.3 1.1-.5 1.5-.6 2.9-1.3 4.1-1.9 2.5-1.3 4.4-2.7 5.7-3.7 1.3-1 2-1.7 2-1.7.1.1.2.2.4.3.3.3.8.7 1.4 1.2 1.2 1.1 2.9 2.7 4.9 4.6l.8.8.4.4c.1.1.2.3.2.5 0 .6-.4 1.3-.9 1.9"/><path class="st42" d="M85.7 24.3l-.4-.4c.8 4-15 11.8-16.2 10.9.3.6 1 .8 1.7.6 2.4-.6 8.1-2.6 13.7-7.6.8-.8 2.1-2.6 1.2-3.5"/><path class="st38" d="M56.4 21.9l-1.4-.8-2.1 6.3 1.4.8zm-10.1-4l-.6.1-1.6 4.5.5.3z"/><path class="st42" d="M82.9 55.3c.7 0 2 0 3.7-.4.2 0 .3.1.3.2v2.4c0 .1-.1.2-.2.2-.8.2-2.9.4-3.8.4-.1 0-.2-.1-.2-.2v-2.4c0-.1.1-.2.2-.2m19.8-10.1c0 .1-.1.2-.1.2v2.8c.1-.2.4-.7.6-1.1 0-.4.1-2.7.1-3-.2.4-.4.8-.6 1.1m-1.8 2c-2.6 2.7-6.6 5-10.3 6.5-.1 0-.1.1-.1.2v2.8c0 .1.1.2.2.2 1.6-.3 9.1-4.6 10.4-6.5.1-.1.1-.2.1-.3v-2.6c0-.3-.2-.4-.3-.3"/><defs><path id="SVGID_46_" d="M86.8 57.2c-.8.2-2.9.4-3.8.4-.1 0-.2-.1-.2-.2v.6c0 .1.1.2.2.2 1 0 3-.1 3.8-.4.1 0 .2-.1.2-.2V57c-.1.1-.1.2-.2.2m14.3-7.5c-1.3 1.9-8.8 6.1-10.4 6.5-.1 0-.2-.1-.2-.2v.6c0 .1.1.2.2.2 1.6-.3 9.1-4.6 10.4-6.5.1-.1.1-.2.1-.3v-.6c0 .1 0 .2-.1.3m1.5-2.1v.6c.1-.2.4-.7.6-1.1v-.6c-.1.4-.4 1-.6 1.1"/></defs><clipPath id="SVGID_47_"><use xlink:href="#SVGID_46_" overflow="visible"/></clipPath><linearGradient id="SVGID_48_" gradientUnits="userSpaceOnUse" x1="0" y1="60.165" x2="1" y2="60.165" gradientTransform="matrix(26.5525 0 0 -26.5525 80.606 1649.86)"><stop offset="0" stop-color="#cbccce"/><stop offset=".568" stop-color="#e0e0e1"/><stop offset="1" stop-color="#eaeaea"/></linearGradient><path clip-path="url(#SVGID_47_)" fill="url(#SVGID_48_)" d="M82.7 46.5h20.5v11.7H82.7z"/><defs><path id="SVGID_49_" d="M0 0h103.2v60.2H0z"/></defs><clipPath id="SVGID_50_"><use xlink:href="#SVGID_49_" overflow="visible"/></clipPath><path d="M64 35.8l1.3.1c.6 0 1.2-.1 1.7-.3-.2-.6-.5-1.2-.7-1.8l-1.5.7-.8 1.3z" clip-path="url(#SVGID_50_)" fill="#1d2122"/><path d="M64.7 34c-.4 0-3 .8-3 1.2.1.6 1 1.4 1.6 1.5.5.1 2.8-.6 2.8-.8.1-.5-.7-1.9-1.4-1.9" clip-path="url(#SVGID_50_)" fill="#dadada"/><g class="st46"><defs><path id="SVGID_51_" d="M53.6 31.4h1.5v2.2h-1.5z"/></defs><clipPath id="SVGID_52_"><use xlink:href="#SVGID_51_" overflow="visible"/></clipPath><path d="M54.7 33.6l-.7-.4c-.2-.1-.4-.4-.4-.7v-.8c0-.2.2-.3.4-.2l.7.4c.2.1.4.4.4.7v.8c0 .2-.2.3-.4.2" clip-path="url(#SVGID_52_)" fill="#c7c7c7"/></g><path d="M55.2 33.2l-1.7-1c-.2-.1-.3-.3-.3-.5s.1-.2.3-.1l1.7 1c.2.1.3.3.3.5.1.2-.1.2-.3.1" clip-path="url(#SVGID_50_)" fill="#dbdbdb"/><path d="M101.2 37.3c.7 1.5-.8 3.3-2.1 4.3-.4.3-.1 1.8.2 2.2.5.7 2.4-1.5 2.9-2.9.4-1.2-.9-3.6-1-3.6M90 47.1c-4.2 1.6-8.2 1.2-9.1 1-.1 0-.2 0-.3.2-.2.7.5 2.3.9 2.7.6.5 6.1.2 9.1-1.4.3-.1.4-.5.4-.8-.1-.6-.4-1.9-1-1.7" fill="#d6dce0" clip-path="url(#SVGID_50_)"/><g class="st46"><defs><path id="SVGID_53_" d="M80.6 48.1h3.6v3.1h-3.6z"/></defs><clipPath id="SVGID_54_"><use xlink:href="#SVGID_53_" overflow="visible"/></clipPath><g clip-path="url(#SVGID_54_)"><defs><path id="SVGID_55_" d="M83.5 48.2c-1.3 0-2.2-.1-2.6-.1-.1 0-.2 0-.3.2-.2.7.5 2.3.9 2.7.2.2 1.3.3 2.6.2l-.6-3"/></defs><clipPath id="SVGID_56_"><use xlink:href="#SVGID_55_" overflow="visible"/></clipPath><linearGradient id="SVGID_57_" gradientUnits="userSpaceOnUse" x1="0" y1="60.159" x2="1" y2="60.159" gradientTransform="matrix(3.5958 0 0 -3.5958 80.56 266.025)"><stop offset="0" stop-color="#eaeaea"/><stop offset="1"/></linearGradient><path clip-path="url(#SVGID_56_)" fill="url(#SVGID_57_)" d="M80.4 48.1h3.8v3.2h-3.8z"/></g></g><path d="M99.4 45.7c-.7-1.6-1.1-3.3-1.1-5.3-2 1.9-4.9 4-8.7 5.2 1.5 1 2.4 2.6 3.1 4.6 2.3-1 4.6-2.5 6.7-4.5" clip-path="url(#SVGID_50_)" fill="#464645"/><defs><path id="SVGID_58_" d="M89.6 45.7c1.5 1 2.4 2.6 3.1 4.6 2.3-1.1 4.6-2.5 6.7-4.5-.7-1.6-1.1-3.3-1.1-5.3-2 1.9-4.9 4-8.7 5.2"/></defs><clipPath id="SVGID_59_"><use xlink:href="#SVGID_58_" overflow="visible"/></clipPath><path d="M95 43.3c-1.3.8-2.8 1.7-5.3 2.6-.1-.1-.1-.2-.2-.3 2.6-.9 4.1-1.8 5.4-2.6 1.3-.8 2.4-1.7 3.4-2.5 0 .2 0 .2.1.4-1 .7-2.1 1.5-3.4 2.4m3.8-.3c0-.1 0-.2-.1-.3-.5.4-1.5 1.2-2.7 2-1.2.8-2.6 1.7-5 2.6.1.1.1.2.2.3 2.4-.9 3.8-1.9 5-2.6 1.1-.8 2.1-1.6 2.6-2m-.3-1c0-.1 0-.2-.1-.3-.8.6-1.8 1.4-3.1 2.2-1.2.8-2.7 1.7-5.2 2.6.1.1.1.2.2.3 2.5-.9 3.9-1.8 5.2-2.6 1.3-.9 2.3-1.7 3-2.2m1 3.5s-.9.8-2 1.7c-1.1.8-2.5 1.9-4.9 3 0 .1 0 .2.1.3 2.4-1.1 3.9-2.2 5-3 1.1-.8 2-1.6 2-1.6-.2-.2-.2-.2-.2-.4m-.5-1.6c0-.1 0-.2-.1-.3-.3.3-1.2 1.1-2.4 1.9-1.1.8-2.5 1.8-4.9 2.7.1.1.1.2.2.3 2.4-1 3.8-1.9 4.9-2.7 1.1-.8 2-1.6 2.3-1.9m.3 1c0-.1-.1-.2-.1-.3-.2.2-1 1-2.1 1.8s-2.5 1.8-4.9 2.8c.1.1.1.2.1.3 2.4-1 3.8-2.1 4.9-2.9 1.1-.8 2-1.6 2.1-1.7" clip-path="url(#SVGID_59_)" fill="#c7c7c7"/><defs><path id="SVGID_60_" d="M0 0h103.2v60.2H0z"/></defs><clipPath id="SVGID_61_"><use xlink:href="#SVGID_60_" overflow="visible"/></clipPath><path d="M31.7 16.4l-1.2-1.2c-.7-.3-1.2 4.1-.7 4.4.6.4 1.1.7 1.5.4.4-.4.6-1.8.8-2.7 0-.3-.2-.6-.4-.9" clip-path="url(#SVGID_61_)" fill="#eaeaea"/><g opacity=".4" clip-path="url(#SVGID_61_)"><defs><path id="SVGID_62_" d="M71.3 26h27.5v19.5H71.3z"/></defs><clipPath id="SVGID_63_"><use xlink:href="#SVGID_62_" overflow="visible"/></clipPath><g clip-path="url(#SVGID_63_)"><defs><path id="SVGID_64_" d="M98.5 38.1c-.1-.1-.1-.2-.2-.3-.4-.7-1-1.6-1.9-2.8-.2-.3-.5-.6-.7-.9-.3-.4-.7-.8-1-1.2-.4-.4-.8-.8-1.1-1.2-.8-.8-1.6-1.6-2.3-2.2-.8-.7-1.5-1.3-2.2-1.8-.6-.5-1.2-1-1.6-1.2-.3-.2-.5-.3-.6-.4h-.1s-4.1 6.5-15.6 10.2l.1.1.1.1c.1.1.3.2.4.4.4.3 1 .8 1.7 1.3.7.6 1.6 1.2 2.5 1.8.5.3.9.6 1.4 1l1.5.9 1.5.9c.5.3 1 .5 1.5.8.5.2 1 .5 1.5.7.5.2.9.4 1.3.5.4.2.8.3 1.1.4l.9.3c.5.2.8.2.8.2s7.3-1.6 11.1-6.7c.3-.2.2-.4-.1-.9"/></defs><clipPath id="SVGID_65_"><use xlink:href="#SVGID_64_" overflow="visible"/></clipPath><linearGradient id="SVGID_66_" gradientUnits="userSpaceOnUse" x1="0" y1="60.216" x2="1" y2="60.216" gradientTransform="scale(17.4363 -17.4363) rotate(-56.94 -54.78 24.935)"><stop offset="0" stop-color="#eaeaea"/><stop offset="1"/></linearGradient><path clip-path="url(#SVGID_65_)" fill="url(#SVGID_66_)" d="M90.7 13.4l17.1 26.3-28.3 18.4-17.1-26.3z"/></g></g><g opacity=".5" clip-path="url(#SVGID_61_)"><defs><path id="SVGID_67_" d="M87 26h11.9v12.8H87z"/></defs><clipPath id="SVGID_68_"><use xlink:href="#SVGID_67_" overflow="visible"/></clipPath><path d="M87 26s.9.6 2.3 1.6c.7.5 1.4 1.1 2.2 1.8.8.7 1.6 1.4 2.4 2.2.4.4.8.8 1.1 1.2.3.4.7.8 1 1.2l.9 1.2c.3.4.5.8.7 1.1.2.4.4.7.6 1 .2.3.3.6.4.8.2.4.3.7.3.7s-.1-.2-.4-.7c-.1-.2-.2-.5-.4-.8-.2-.3-.4-.6-.6-1-.2-.3-.5-.7-.8-1.1l-.9-1.2c-.3-.4-.7-.8-1-1.2-.4-.4-.8-.8-1.1-1.2-.8-.8-1.6-1.6-2.3-2.2-.8-.7-1.5-1.3-2.2-1.8-.6-.5-1.2-1-1.6-1.2-.4-.3-.6-.4-.6-.4" clip-path="url(#SVGID_68_)" fill="#fff"/></g><path d="M71.3 36.2s.2.2.6.5c.4.3 1 .8 1.7 1.3s1.6 1.2 2.5 1.8c.5.3.9.6 1.4 1l1.5.9 1.5.9c.5.3 1 .5 1.5.8.5.2 1 .5 1.5.7.5.2.9.4 1.3.5.4.2.8.3 1.1.4.3.1.7.2.9.3.5.2.8.2.8.2s-.3-.1-.8-.2c-.3-.1-.6-.1-.9-.2-.3-.1-.7-.2-1.2-.4-.4-.1-.9-.3-1.4-.5l-1.5-.6c-.5-.2-1-.5-1.6-.8-.5-.3-1-.6-1.6-.9l-1.5-.9c-.5-.3-1-.6-1.4-1-.9-.6-1.7-1.3-2.4-1.9-.7-.6-1.3-1.1-1.6-1.4-.2-.3-.4-.5-.4-.5" clip-path="url(#SVGID_61_)" fill="#c7c7c7"/><defs><path id="SVGID_69_" d="M70.2 17.9c.5 1.1 1.4 1.6 2 1.2l4.7-3L66.4 10l3.8 7.9z"/></defs><clipPath id="SVGID_70_"><use xlink:href="#SVGID_69_" overflow="visible"/></clipPath><linearGradient id="SVGID_71_" gradientUnits="userSpaceOnUse" x1="0" y1="59.98" x2="1" y2="59.98" gradientTransform="matrix(2.726 -4.6816 -3.9588 -2.3052 307.13 156.399)"><stop offset="0" stop-color="#85eb6f"/><stop offset="1" stop-color="#539347"/></linearGradient><path clip-path="url(#SVGID_70_)" fill="url(#SVGID_71_)" d="M62.3 17.1l6.8-11.7 12 7L74.3 24z"/><defs><path id="SVGID_72_" d="M67.1 16.5c.7 1.5 2.1 2.3 3 1.7l5-3.2L63 8l4.1 8.5z"/></defs><clipPath id="SVGID_73_"><use xlink:href="#SVGID_72_" overflow="visible"/></clipPath><linearGradient id="SVGID_74_" gradientUnits="userSpaceOnUse" x1="0" y1="60.227" x2="1" y2="60.227" gradientTransform="matrix(-1.002 6.3674 4.3895 2.556 -195.014 -142.248)"><stop offset="0" stop-color="#f9eb37"/><stop offset="1" stop-color="#cc8525"/></linearGradient><path clip-path="url(#SVGID_73_)" fill="url(#SVGID_74_)" d="M76.7 8.9l-2.6 16.4-12.6-7.4L64 1.5z"/><path fill="none" d="M0 0h103.2v60.2H0z"/><linearGradient id="SVGID_75_" gradientUnits="userSpaceOnUse" x1="83.189" y1="38.925" x2="91.581" y2="38.925" gradientTransform="matrix(.6463 -.7463 .9362 .8108 -5.745 69.484)"><stop offset="0" stop-color="#de5964"/><stop offset="1" stop-color="#c00116"/></linearGradient><path d="M92.9 39.4c-1 .2-2.1.3-3.2.1h-2.8c-.1 0-.1 0-.2-.1h-.6c-2.2-.8-4.6-2.1-7.3-4.2l6.7-5.2 1.1 2.1-1.6 1.2c.7.7 1.3 1.4 2 2l2.1-1.7 1.2 1.5-1.8 1.5c1.5 1.2 3 2.1 4.4 2.8" fill-rule="evenodd" clip-rule="evenodd" fill="url(#SVGID_75_)"/><linearGradient id="SVGID_76_" gradientUnits="userSpaceOnUse" x1="81.494" y1="40.024" x2="88.082" y2="40.024" gradientTransform="matrix(.6463 -.7463 .9362 .8108 -5.745 69.484)"><stop offset="0" stop-color="#f9eb37"/><stop offset="1" stop-color="#cc8525"/></linearGradient><path d="M93.2 40.1c-3.7 1-7.9.2-13.3-2.9l3.9-3.1c3.4 3.4 6.5 5.1 9.4 6" fill-rule="evenodd" clip-rule="evenodd" fill="url(#SVGID_76_)"/><linearGradient id="SVGID_77_" gradientUnits="userSpaceOnUse" x1="80.476" y1="41.296" x2="87.685" y2="41.296" gradientTransform="matrix(.6463 -.7463 .9362 .8108 -5.745 69.484)"><stop offset="0" stop-color="#85eb6f"/><stop offset="1" stop-color="#539347"/></linearGradient><path d="M93.4 40.8c-3 1.6-6.9 1.3-12.3-1.2l3.7-3.1c2.6 2.3 5.5 3.6 8.6 4.3" fill-rule="evenodd" clip-rule="evenodd" fill="url(#SVGID_77_)"/></svg>