<svg version="1.1" id="Layer_1" xmlns="http://www.w3.org/2000/svg" xmlns:xlink="http://www.w3.org/1999/xlink" x="0" y="0" viewBox="0 0 85.8 72.7" xml:space="preserve" enable-background="new 0 0 85.8 72.7"><style>.st0{clip-path:url(#SVGID_2_)}.st9{clip-path:url(#SVGID_20_)}</style><defs><path id="SVGID_1_" d="M0 0h85.8v72.7H0z"/></defs><clipPath id="SVGID_2_"><use xlink:href="#SVGID_1_" overflow="visible"/></clipPath><g class="st0"><defs><path id="SVGID_3_" d="M0 54.4l47.8 18.3 38-13.5-46.2-23z"/></defs><clipPath id="SVGID_4_"><use xlink:href="#SVGID_3_" overflow="visible"/></clipPath><defs><filter id="Adobe_OpacityMaskFilter" filterUnits="userSpaceOnUse" x="-14.4" y="2.4" width="114.5" height="104.1"><feColorMatrix values="1 0 0 0 0 0 1 0 0 0 0 0 1 0 0 0 0 0 1 0"/></filter></defs><mask maskUnits="userSpaceOnUse" x="-14.4" y="2.4" width="114.5" height="104.1" id="SVGID_5_"><g filter="url(#Adobe_OpacityMaskFilter)"><linearGradient id="SVGID_6_" gradientUnits="userSpaceOnUse" x1="0" y1="72.682" x2="1" y2="72.682" gradientTransform="scale(41.92 -41.92) rotate(-64 -58.46 35.233)"><stop offset="0"/><stop offset=".816" stop-color="gray"/><stop offset="1" stop-color="gray"/></linearGradient><path clip-path="url(#SVGID_4_)" fill="url(#SVGID_6_)" d="M69.3 2.4l30.8 63.2-83.6 40.9-30.9-63.3z"/></g></mask><linearGradient id="SVGID_7_" gradientUnits="userSpaceOnUse" x1="0" y1="72.682" x2="1" y2="72.682" gradientTransform="scale(41.92 -41.92) rotate(-64 -58.46 35.233)"><stop offset="0" stop-color="#fff"/><stop offset=".816" stop-color="#b0cccc"/><stop offset="1" stop-color="#b0cccc"/></linearGradient><path clip-path="url(#SVGID_4_)" mask="url(#SVGID_5_)" fill="url(#SVGID_7_)" d="M69.3 2.4l30.8 63.2-83.6 40.9-30.9-63.3z"/></g><g class="st0"><defs><path id="SVGID_8_" d="M79.4 0L47.3 18.4v54l32.1-19.8z"/></defs><clipPath id="SVGID_9_"><use xlink:href="#SVGID_8_" overflow="visible"/></clipPath><linearGradient id="SVGID_10_" gradientUnits="userSpaceOnUse" x1="0" y1="72.658" x2="1" y2="72.658" gradientTransform="matrix(32.1172 0 0 -32.1172 47.281 2369.746)"><stop offset="0" stop-color="#ffed00"/><stop offset="1" stop-color="#e3000f"/></linearGradient><path clip-path="url(#SVGID_9_)" fill="url(#SVGID_10_)" d="M47.3 0h32.1v72.4H47.3z"/></g><path clip-path="url(#SVGID_2_)" fill="#f2f2f2" d="M47.4 18.4v54.3l37.9-13.5V5.4z"/><g class="st0"><defs><path id="SVGID_11_" d="M47.6 18.5L85.1 5.6V59L47.6 72.4V18.5zm-.2-.1v54.3l37.9-13.5V5.4l-37.9 13z"/></defs><clipPath id="SVGID_12_"><use xlink:href="#SVGID_11_" overflow="visible"/></clipPath><linearGradient id="SVGID_13_" gradientUnits="userSpaceOnUse" x1="0" y1="72.658" x2="1" y2="72.658" gradientTransform="matrix(37.948 0 0 -37.948 47.377 2796.225)"><stop offset="0" stop-color="#ffed00"/><stop offset="1" stop-color="#e3000f"/></linearGradient><path clip-path="url(#SVGID_12_)" fill="url(#SVGID_13_)" d="M47.4 5.4h37.9v67.3H47.4z"/></g><g class="st0"><defs><path id="SVGID_14_" d="M0 0h85.8v72.7H0z"/></defs><clipPath id="SVGID_15_"><use xlink:href="#SVGID_14_" overflow="visible"/></clipPath><path d="M54.4 47.8l-6.1 14.6V31.5l6.1 10.3c.8 1.4.8 4.1 0 6" clip-path="url(#SVGID_15_)" fill="#ffec00"/></g><g class="st0"><defs><path id="SVGID_16_" d="M48.2 71.7l13.7-4.8-13.7-22.8z"/></defs><clipPath id="SVGID_17_"><use xlink:href="#SVGID_16_" overflow="visible"/></clipPath><linearGradient id="SVGID_18_" gradientUnits="userSpaceOnUse" x1="0" y1="72.658" x2="1" y2="72.658" gradientTransform="matrix(13.6454 0 0 -13.6454 48.233 1049.351)"><stop offset="0" stop-color="#00ed65"/><stop offset="1" stop-color="#00953f"/></linearGradient><path clip-path="url(#SVGID_17_)" fill="url(#SVGID_18_)" d="M48.2 44.1h13.6v27.6H48.2z"/></g><g class="st0"><defs><path id="SVGID_19_" d="M0 0h85.8v72.7H0z"/></defs><clipPath id="SVGID_20_"><use xlink:href="#SVGID_19_" overflow="visible"/></clipPath><g class="st9"><defs><path id="SVGID_21_" d="M48.2 56.8h7.4v15h-7.4z"/></defs><clipPath id="SVGID_22_"><use xlink:href="#SVGID_21_" overflow="visible"/></clipPath><g clip-path="url(#SVGID_22_)"><defs><path id="SVGID_23_" d="M48.2 56.8v14.9l7.4-2.6z"/></defs><clipPath id="SVGID_24_"><use xlink:href="#SVGID_23_" overflow="visible"/></clipPath><defs><filter id="Adobe_OpacityMaskFilter_1_" filterUnits="userSpaceOnUse" x="40.7" y="53.2" width="22.4" height="22.2"><feColorMatrix values="1 0 0 0 0 0 1 0 0 0 0 0 1 0 0 0 0 0 1 0"/></filter></defs><mask maskUnits="userSpaceOnUse" x="40.7" y="53.2" width="22.4" height="22.2" id="SVGID_25_"><g filter="url(#Adobe_OpacityMaskFilter_1_)"><linearGradient id="SVGID_26_" gradientUnits="userSpaceOnUse" x1="0" y1="72.42" x2="1" y2="72.42" gradientTransform="matrix(-9.0553 -10.5453 -9.0553 7.5652 707.643 -483.719)"><stop offset="0"/><stop offset="1" stop-color="#fff"/></linearGradient><path clip-path="url(#SVGID_24_)" fill="url(#SVGID_26_)" d="M51.3 75.3L40.7 63l11.8-9.8 10.6 12.3z"/></g></mask><linearGradient id="SVGID_27_" gradientUnits="userSpaceOnUse" x1="0" y1="72.42" x2="1" y2="72.42" gradientTransform="matrix(-9.0553 -10.5453 -9.0553 7.5652 707.643 -483.719)"><stop offset="0" stop-color="#fffdfd"/><stop offset="1" stop-color="#fff"/></linearGradient><path clip-path="url(#SVGID_24_)" mask="url(#SVGID_25_)" fill="url(#SVGID_27_)" d="M51.3 75.3L40.7 63l11.8-9.8 10.6 12.3z"/></g></g><g class="st9"><defs><path id="SVGID_28_" d="M48.2 45h11.2v22.8H48.2z"/></defs><clipPath id="SVGID_29_"><use xlink:href="#SVGID_28_" overflow="visible"/></clipPath><g clip-path="url(#SVGID_29_)"><defs><path id="SVGID_30_" d="M59.5 67.8V45l-11.3 4z"/></defs><clipPath id="SVGID_31_"><use xlink:href="#SVGID_30_" overflow="visible"/></clipPath><radialGradient id="SVGID_32_" cx="0" cy="72.658" r="1" gradientTransform="matrix(7.6679 15.2714 2.6413 -2.7348 -139.216 259.767)" gradientUnits="userSpaceOnUse"><stop offset="0" stop-color="#bf2000"/><stop offset="1" stop-color="#fff"/></radialGradient><path clip-path="url(#SVGID_31_)" fill="url(#SVGID_32_)" d="M55.6 37.4L67 60 52.1 75.4 40.7 52.8z"/></g></g></g><g class="st0"><defs><path id="SVGID_33_" d="M66.1 32.6c-.1 2.8.2 5 1.1 6.6v.3s0 .1.1.1l.1.1.1.1.1.1.1.1.1.1.1.1.1.1.1.1.1.1.1.1.2.2c.8.6 1.9 1 3.1 1.2-.5-1.4-.9-3.1-.9-5l3.3-1.1.5-2.1-3.7 1.2c.1-.8.2-1.8.5-2.7l3.9-1.3 1.1-2.4-10.2 4z"/></defs><clipPath id="SVGID_34_"><use xlink:href="#SVGID_33_" overflow="visible"/></clipPath><linearGradient id="SVGID_35_" gradientUnits="userSpaceOnUse" x1="0" y1="72.658" x2="1" y2="72.658" gradientTransform="matrix(10.5967 0 0 -10.5967 66.075 805.79)"><stop offset="0" stop-color="#ff5964"/><stop offset="1" stop-color="#e2000f"/></linearGradient><path clip-path="url(#SVGID_34_)" fill="url(#SVGID_35_)" d="M66 29.2h10.7v13.3H66z"/></g><g class="st0"><defs><path id="SVGID_36_" d="M63.7 35.3c.5 5.1 3.1 7.9 7.6 8.3-1.6-2.4-2.4-5.6-1.5-10.3-2 .7-4 1.3-6.1 2"/></defs><clipPath id="SVGID_37_"><use xlink:href="#SVGID_36_" overflow="visible"/></clipPath><linearGradient id="SVGID_38_" gradientUnits="userSpaceOnUse" x1="0" y1="72.658" x2="1" y2="72.658" gradientTransform="matrix(7.6445 0 0 -7.6445 63.719 593.88)"><stop offset="0" stop-color="#ffed00"/><stop offset="1" stop-color="#e3870f"/></linearGradient><path clip-path="url(#SVGID_37_)" fill="url(#SVGID_38_)" d="M63.7 33.3h7.6v10.3h-7.6z"/></g><g class="st0"><defs><path id="SVGID_39_" d="M62 38.2c1.2 4.8 4 7 8.7 6.5-2-2.3-3-5.1-2.5-8.5-2.1.6-4.1 1.3-6.2 2"/></defs><clipPath id="SVGID_40_"><use xlink:href="#SVGID_39_" overflow="visible"/></clipPath><linearGradient id="SVGID_41_" gradientUnits="userSpaceOnUse" x1="0" y1="72.63" x2="1" y2="72.63" gradientTransform="matrix(8.6946 0 0 -8.6946 62.006 672.18)"><stop offset="0" stop-color="#00ed65"/><stop offset="1" stop-color="#00953f"/></linearGradient><path clip-path="url(#SVGID_40_)" fill="url(#SVGID_41_)" d="M62 36.2h8.7v9.1H62z"/></g><g class="st0"><defs><path id="SVGID_42_" d="M79.9 18.3c-.7 1.1-.7 2.4 0 2.8l4.9 3V9.7l-4.9 8.6z"/></defs><clipPath id="SVGID_43_"><use xlink:href="#SVGID_42_" overflow="visible"/></clipPath><linearGradient id="SVGID_44_" gradientUnits="userSpaceOnUse" x1="0" y1="72.658" x2="1" y2="72.658" gradientTransform="matrix(5.4174 0 0 -5.4174 79.387 410.542)"><stop offset="0" stop-color="#00ed65"/><stop offset="1" stop-color="#00953f"/></linearGradient><path clip-path="url(#SVGID_43_)" fill="url(#SVGID_44_)" d="M79.2 9.7h5.6v14.4h-5.6z"/></g><g class="st0"><defs><path id="SVGID_45_" d="M80 14.9c-1 1.7-1 3.5 0 4.1l5.3 3.2V5.6L80 14.9z"/></defs><clipPath id="SVGID_46_"><use xlink:href="#SVGID_45_" overflow="visible"/></clipPath><linearGradient id="SVGID_47_" gradientUnits="userSpaceOnUse" x1="0" y1="72.418" x2="1" y2="72.418" gradientTransform="matrix(-6.0067 2.765 0 6.0067 85.325 -422.525)"><stop offset="0" stop-color="#ffed00"/><stop offset="1" stop-color="#e3870f"/></linearGradient><path clip-path="url(#SVGID_46_)" fill="url(#SVGID_47_)" d="M85.3 22.2l-6.2 2.9V5.6l6.2-2.8z"/></g></svg>