<svg xmlns="http://www.w3.org/2000/svg" xmlns:xlink="http://www.w3.org/1999/xlink" viewBox="0 0 218.2 202.6"><defs><path id="a" d="M0 0h218.2v202.6H0z"/></defs><clipPath id="b"><use xlink:href="#a" overflow="visible"/></clipPath><path d="M89.6 0C40.1 0 0 40.1 0 89.6c0 49.5 40.1 89.6 89.6 89.6v-4.4c-47.1 0-85.2-38.1-85.2-85.2S42.5 4.4 89.6 4.4s85.2 38.1 85.2 85.2h4.4C179.1 40.1 139 0 89.6 0" clip-path="url(#b)" fill="#009ee3"/><path d="M137.1 128.1c0 2.3-1.9 4.1-4.1 4.1-2.3 0-4.1-1.9-4.1-4.1s1.9-4.1 4.1-4.1c2.3 0 4.1 1.8 4.1 4.1m27 0c0 2.3-1.9 4.1-4.1 4.1-2.3 0-4.1-1.9-4.1-4.1s1.9-4.1 4.1-4.1c2.3 0 4.1 1.8 4.1 4.1m27 0c0 2.3-1.9 4.1-4.1 4.1-2.3 0-4.1-1.9-4.1-4.1s1.9-4.1 4.1-4.1c2.3 0 4.1 1.8 4.1 4.1m27.1 0c0 2.3-1.9 4.1-4.1 4.1-2.3 0-4.1-1.9-4.1-4.1s1.9-4.1 4.1-4.1c2.2 0 4.1 1.8 4.1 4.1m-81.1 23.5c0 2.3-1.9 4.1-4.1 4.1-2.3 0-4.1-1.9-4.1-4.1s1.9-4.1 4.1-4.1c2.3-.1 4.1 1.8 4.1 4.1m27 0c0 2.3-1.9 4.1-4.1 4.1-2.3 0-4.1-1.9-4.1-4.1s1.9-4.1 4.1-4.1c2.3-.1 4.1 1.8 4.1 4.1m27 0c0 2.3-1.9 4.1-4.1 4.1-2.3 0-4.1-1.9-4.1-4.1s1.9-4.1 4.1-4.1c2.3-.1 4.1 1.8 4.1 4.1m27.1 0c0 2.3-1.9 4.1-4.1 4.1-2.3 0-4.1-1.9-4.1-4.1s1.9-4.1 4.1-4.1c2.2-.1 4.1 1.8 4.1 4.1M137.1 175c0 2.3-1.9 4.1-4.1 4.1-2.3 0-4.1-1.9-4.1-4.1 0-2.3 1.9-4.1 4.1-4.1 2.3 0 4.1 1.8 4.1 4.1m27 0c0 2.3-1.9 4.1-4.1 4.1-2.3 0-4.1-1.9-4.1-4.1 0-2.3 1.9-4.1 4.1-4.1 2.3 0 4.1 1.8 4.1 4.1m27 0c0 2.3-1.9 4.1-4.1 4.1-2.3 0-4.1-1.9-4.1-4.1 0-2.3 1.9-4.1 4.1-4.1 2.3 0 4.1 1.8 4.1 4.1m27.1 0c0 2.3-1.9 4.1-4.1 4.1-2.3 0-4.1-1.9-4.1-4.1 0-2.3 1.9-4.1 4.1-4.1 2.2 0 4.1 1.8 4.1 4.1m-81.1 23.5c0 2.3-1.9 4.1-4.1 4.1-2.3 0-4.1-1.9-4.1-4.1 0-2.3 1.9-4.1 4.1-4.1 2.3-.1 4.1 1.8 4.1 4.1m27 0c0 2.3-1.9 4.1-4.1 4.1-2.3 0-4.1-1.9-4.1-4.1 0-2.3 1.9-4.1 4.1-4.1 2.3-.1 4.1 1.8 4.1 4.1m27 0c0 2.3-1.9 4.1-4.1 4.1-2.3 0-4.1-1.9-4.1-4.1 0-2.3 1.9-4.1 4.1-4.1 2.3-.1 4.1 1.8 4.1 4.1m27.1 0c0 2.3-1.9 4.1-4.1 4.1-2.3 0-4.1-1.9-4.1-4.1 0-2.3 1.9-4.1 4.1-4.1 2.2-.1 4.1 1.8 4.1 4.1" clip-path="url(#b)" fill="#ffed00"/></svg>