<svg version="1.1" id="Layer_1" xmlns="http://www.w3.org/2000/svg" xmlns:xlink="http://www.w3.org/1999/xlink" x="0" y="0" viewBox="0 0 73.1 69" xml:space="preserve"><style>.st0{clip-path:url(#SVGID_2_);fill:none;stroke:#ffed00;stroke-width:2;stroke-linecap:round;stroke-linejoin:round;stroke-miterlimit:10}</style><defs><path id="SVGID_1_" d="M0 0h73.1v69H0z"/></defs><clipPath id="SVGID_2_"><use xlink:href="#SVGID_1_" overflow="visible"/></clipPath><path class="st0" d="M20.3 37.1c1.2 2.5 4.2 4.2 7.7 4.2 4.6 0 8.3-3 8.3-6.6 0-5-3.9-6.1-8.3-6.6-5.7-.7-8.3-3-8.3-6.6s3.7-6.6 8.3-6.6c3.4 0 6.3 1.6 7.6 4M28 11v34"/><path class="st0" d="M54 35.2c.6-2.3 1-4.7 1-7.2C55 13.1 42.9 1 28 1S1 13.1 1 28s12.1 27 27 27c2.5 0 4.9-.3 7.1-1"/><path d="M71 51.2h0c0-.1-.1-.1-.1-.2 0 0-2.6-6.5-3.9-9-.1-.2-.2-.4-.4-.7-.6-1-2-1.2-3-.8-.8.3-1.2.8-1.5 1.5-.7-1.5-2.3-2.2-3.8-1.6-.9.4-1.5 1.1-1.8 2-.8-1.3-2.3-1.8-3.7-1.3-1.2.5-1.9 1.6-1.9 2.8l-3.8-9.8c-.7-1.7-2.4-2.7-3.8-2.1-1.5.6-2.1 2.4-1.4 4.1l6.6 17.1c-.8-.9-1.5-1.8-2-2.3-1.9-2.1-4.2-2.9-5.6-2-2 1.3.9 4.2 2.6 6.7 1.4 2 4.1 5.8 4.9 6.6 1.4 1.5 2.7 2.7 3.9 3.4 3.7 2.7 8 2.9 12.1 1.3 4.8-1.8 9.9-7 6.6-15.7z" clip-path="url(#SVGID_2_)" fill="none" stroke="#fff" stroke-width="2" stroke-linecap="round" stroke-linejoin="round" stroke-miterlimit="10"/></svg>