<svg version="1.1" id="Layer_1" xmlns="http://www.w3.org/2000/svg" xmlns:xlink="http://www.w3.org/1999/xlink" x="0" y="0" viewBox="0 0 82 80" xml:space="preserve"><style>.st0{clip-path:url(#SVGID_2_);fill:none;stroke:#ffed00;stroke-width:2;stroke-linecap:round;stroke-linejoin:round;stroke-miterlimit:10}</style><defs><path id="SVGID_1_" d="M0 0h82v80H0z"/></defs><clipPath id="SVGID_2_"><use xlink:href="#SVGID_1_" overflow="visible"/></clipPath><path class="st0" d="M11.4 73.5c3 .5 6.8 1.6 10 3C25.1 78.2 30.9 79 36 79c5.9 0 15-.7 15.7-8.5 2.2-1.7 3.7-5.1 2.7-7.8 1.7-2.2 2.7-5.8.7-8.2C60 46 46.9 42.6 40.4 41.8"/><path class="st0" d="M31.2 55.6c6.5-3.3 4.5-10 3.8-11.3-1-1.9-.1-3.6.5-4.7s1.8-3.3 2.3-4.4c3-6.2.2-13.3-4.4-13.1-3.1.1-3.9 2.7-4.2 4.7-.5 3.6-2 7.6-4.5 10.3-3.2 3.4-5.2 6.3-7.2 9.6-1.1 1.8-3.7 2.6-6.2 3M1 45.9h10.3v30H1zm73.1-10.7c-2 .3-4.6 1-6.7 2-2.5 1.1-6.3 1.7-9.7 1.7-3.9 0-9.9-.5-10.4-5.7-1.4-1.1-2.4-3.4-1.8-5.2-1.1-1.5-1.8-3.9-.5-5.4-3.3-5.7 4.8-7.9 9.1-8.4"/><path class="st0" d="M60.9 23.3c-4.4-2.2-3-6.6-2.5-7.5.7-1.3.1-2.4-.3-3.1-.4-.7-1.2-2.2-1.6-3-2-4.1-.1-8.8 2.9-8.7 2 .1 2.6 1.8 2.8 3.1.3 2.4 1.3 5.1 3 6.8 2.1 2.3 3.4 4.2 4.8 6.4.7 1.2 2.5 1.7 4.1 2m.1-2.4H81v20h-6.8z"/><path d="M16.3 25.5c-.4-.3-11.7-7.2-11.7-14.5 0-3.5 2.9-6.4 6.4-6.4 2.4 0 4.5 1.3 5.6 3.3 1.1-2 3.2-3.3 5.6-3.3 3.5 0 6.4 2.9 6.4 6.4 0 7.3-11.2 14.2-11.7 14.5l-.3.2-.3-.2zm6-17c1.4 0 2.5 1.1 2.5 2.5m45.5 55c-.3-.2-7.3-4.5-7.3-9.1 0-2.2 1.8-4 4-4 1.5 0 2.8.8 3.5 2.1.7-1.3 2-2.1 3.5-2.1 2.2 0 4 1.8 4 4 0 4.6-7 8.9-7.3 9.1l-.2.1-.2-.1z" stroke="#fff" clip-path="url(#SVGID_2_)" fill="none" stroke-width="2" stroke-linecap="round" stroke-linejoin="round" stroke-miterlimit="10"/></svg>