<svg xmlns="http://www.w3.org/2000/svg" xmlns:xlink="http://www.w3.org/1999/xlink" viewBox="0 0 454.4 63"><defs><path id="a" d="M0 0h454.4v63H0z"/></defs><clipPath id="b"><use xlink:href="#a" overflow="visible"/></clipPath><path d="M293.7 17.4l.6-2.2C298.2.5 288.8 0 274.6 0h-18l-14.2 53.1h12.9l5-18.6h6.2c12.4 0 23.6-3.5 27.2-17.1m-12.9-.1c-1.5 5.7-3.7 7.7-12.2 7.7h-5.9L267 9.2h5.1c9.5 0 10.7.7 9.1 6.6l-.4 1.5zm32.3 18.4h-4.7l-4.7 17.4h-12.9l13-48.7h17.5c10.5 0 20.9.3 17.2 14l-.8 3.1c-1.7 6.3-5.2 10.2-11.1 12.4l4 19.2h-14.2l-3.3-17.4zm1-21.7l-3.3 12.4h5c4.6 0 7.7-.4 9-5.3l.8-3.1c.2-.8.6-2.3 0-3-.9-1.1-4.7-1-6-1h-5.5zm35.6 39.1h-13.3l13.1-48.7h13.3zm27-29c-.4 1.9-.9 3.8-1.4 5.7l-6.2 23.3h-12.3l13-48.7H383l7.5 24.6 1.2 3.9c.4-2 .9-3.9 1.4-5.8l6.1-22.7h12.3l-13 48.7h-13.2l-7.5-24.9c-.4-1.4-.8-2.7-1.1-4.1m62.6-9.5L429 53.1h-13.3L426 14.6h-12.3l2.8-10.2h37.9l-2.8 10.2zM80.9 35.7h-4.7l-4.7 17.4H58.6l13-48.7h17.5c10.5 0 20.9.3 17.2 14l-.8 3c-1.7 6.3-5.2 10.2-11.1 12.4l4 19.2H84.3l-3.4-17.3zM82 14l-3.3 12.4h5c4.6 0 7.7-.4 9-5.3l.8-3c.2-.8.6-2.3 0-3-.9-1.1-4.7-1-6-1H82zm46 .2l-2.5 9.2h19.3l-5.2 9.5H123l-2.8 10.4h19.7l-2.6 9.8h-33.1l13.1-48.7h33l-2.6 9.8zm33.4 30.1c3.6 0 7 0 8.1-4.1l.3-1c.2-.6.4-1.4.3-2-.3-1.5-3.4-2.6-4.5-3.1l-5-2c-7.3-2.9-9.8-6.6-7.7-14.4l.4-1.6c3-11.2 11.5-12.7 21.9-12.7 4.7 0 9.6.6 14.2 1.6l.7.2-2.3 8.7-.6-.1c-4.3-.5-8.9-.7-13.2-.7-3.5 0-6.7-.2-7.8 3.8l-.2.9c-.2.6-.4 1.5-.1 2.1.5 1 3.1 2 4.1 2.3l5 2c7.9 3.2 10.6 6.3 8.2 15l-.5 1.7c-2.9 10.7-10.9 13.2-21 13.2-5.2 0-11.2-.4-16.3-1.5l-.7-.2 2.3-8.8h.6c4.6.4 9.2.7 13.8.7m59.1-10.9h-15.7l-5.2 19.7h-13.4l13-48.7h13.4l-4.8 17.9h15.7l4.8-17.9h13.3l-13.1 48.7h-13.3z" clip-path="url(#b)" fill-rule="evenodd" clip-rule="evenodd" fill="#fff"/><path d="M46.7 55.2c-5.7-2.8-10.5-6.3-14.5-10.5l-.2-.2c-.4-.4-.7-.8-1-1.2l-.2-.2c-.2-.2-.3-.4-.5-.6l-.2-.2-.3-.4-.2-.2c-.2-.2-.3-.4-.5-.6l-.2-.2c-.1-.2-.3-.4-.4-.6l-.1-.1c-.1-.2-.3-.4-.4-.6v-.3c-.1-.2-.3-.4-.4-.6v-.1l-.1-.2-.4-.4-.1-.2c-.1-.2-.3-.4-.4-.6l-.1-.2-.3-.5-.2-.3v-.1c-.1-.2-.2-.4-.4-.6l-.1-.2c-.1-.2-.2-.4-.3-.7l-.2-.3-.2-.4-.2-.4-.2-.3-.1-.2-.1-.2C20.1 23.9 18.4 13 19.1.2h49.3l-5.1 9.4h-18c-1 4.2-1.7 8.2-2.1 12h17.4l-2.4 9H42.6c0 8.9 1.6 17 4.1 24.6" clip-path="url(#b)" fill-rule="evenodd" clip-rule="evenodd" fill="#e3000f"/><path d="M43.6 59.1C22.3 50.3 10.5 33.5 8 9h28.9c-4.3 20.6-.5 36.4 6.7 50.1" clip-path="url(#b)" fill-rule="evenodd" clip-rule="evenodd" fill="#ffed00"/><path d="M40.5 63C18.8 58.6 5.4 43.9 0 19.7h28.9C26.5 34.9 31.1 49.2 40.5 63" clip-path="url(#b)" fill-rule="evenodd" clip-rule="evenodd" fill="#00963f"/></svg>