<svg version="1.1" id="Layer_1" xmlns="http://www.w3.org/2000/svg" xmlns:xlink="http://www.w3.org/1999/xlink" x="0" y="0" viewBox="0 0 77.5 69.3" xml:space="preserve"><style>.st0{clip-path:url(#SVGID_2_);fill:none;stroke:#fff;stroke-width:2;stroke-linecap:round;stroke-linejoin:round;stroke-miterlimit:10}</style><defs><path id="SVGID_1_" d="M0 0h77.5v69.3H0z"/></defs><clipPath id="SVGID_2_"><use xlink:href="#SVGID_1_" overflow="visible"/></clipPath><path class="st0" d="M3.8 59.3c5 .4 9.5 1.1 12.9 2.9.1.1.3.2.4.2.1 0 .2.1.2.1 1.5.8 3 1.6 4.6 2.4 4.6 2.2 8.3 3.3 12.8 3.5 5.5.2 15.1-4.5 22.5-8.5C71.4 52 79.4 47 75.5 43.8c-3.7-3-14.6 3.7-24 8.5"/><path class="st0" d="M21.3 52.6c6.7.5 10.9 2.4 16.8 4.4 6 2 9.8 3.3 10.8 0 1-3.5-6.1-8.8-13.6-11.8-5.4-2.2-9.2-6.5-14.2-7.1-4.1-.5-7.9.4-10.8 1.4-3.7 1.3-6.6 2-9.3 2.5m65.7-1c-.5-.6-1.6-.9-3.1-.9-4.1 0-10.4 4.3-16.1 7.9m9.9-9.5c-.5-.1-1-.1-1.7-.1-3.2.3-6.9 3.6-11.7 7.2m4.6-7.5c-.4-.1-1-.1-1.6 0-2.4.4-3.4 2.2-7.1 5.2"/><path d="M48.6 9.2v5.4c0 1.7 1.4 3.1 3.1 3.1H57c1.7 0 3.1-1.4 3.1-3.1V9.2c0-1.7-1.4-3.1-3.1-3.1h-5.4c-1.6 0-3 1.4-3 3.1zm-35-.4v5.4c0 1.7 1.4 3.1 3.1 3.1H22c1.7 0 3.1-1.4 3.1-3.1V8.8c0-1.7-1.4-3.1-3.1-3.1h-5.4c-1.6 0-3 1.4-3 3.1zm17.5-4.7v5.4c0 1.7 1.4 3.1 3.1 3.1h5.4c1.7 0 3.1-1.4 3.1-3.1V4.1c0-1.7-1.4-3.1-3.1-3.1h-5.4c-1.7 0-3.1 1.4-3.1 3.1zm12.7 28.3l7.7-9.6m-14.8-4.7V34m-7-1.6l-7.1-9.6" stroke="#ffed00" clip-path="url(#SVGID_2_)" fill="none" stroke-width="2" stroke-linecap="round" stroke-linejoin="round" stroke-miterlimit="10"/></svg>