<svg xmlns="http://www.w3.org/2000/svg" xmlns:xlink="http://www.w3.org/1999/xlink" viewBox="0 0 713.4 683.9"><defs><path id="a" d="M0 0h713.4v683.9H0z"/></defs><clipPath id="b"><use xlink:href="#a" overflow="visible"/></clipPath><path d="M497.9 249c0 137.5-111.5 249-249 249S-.1 386.5-.1 249 111.4 0 248.9 0c137.6 0 249 111.5 249 249" clip-path="url(#b)" fill="#19973f"/><defs><path id="c" d="M0 0h713.4v683.9H0z"/></defs><clipPath id="d"><use xlink:href="#c" overflow="visible"/></clipPath><path d="M236.1 85.6c-1.5 1.5-4 1.5-5.5 0s-1.5-4 0-5.5 4-1.5 5.5 0c1.6 1.5 1.6 4 0 5.5" clip-path="url(#d)" fill="#fff"/><defs><path id="e" d="M0 0h713.4v683.9H0z"/></defs><clipPath id="f"><use xlink:href="#e" overflow="visible"/></clipPath><path d="M218.7 103.1c-1.5 1.5-4 1.5-5.5 0s-1.5-4 0-5.5 4-1.5 5.5 0 1.5 3.9 0 5.5" clip-path="url(#f)" fill="#fff"/><defs><path id="g" d="M0 0h713.4v683.9H0z"/></defs><clipPath id="h"><use xlink:href="#g" overflow="visible"/></clipPath><path d="M215.7 85.6c-1.5 1.5-4 1.5-5.5 0s-1.5-4 0-5.5 4-1.5 5.5 0 1.5 4 0 5.5" clip-path="url(#h)" fill="#fff"/><defs><path id="i" d="M0 0h713.4v683.9H0z"/></defs><clipPath id="j"><use xlink:href="#i" overflow="visible"/></clipPath><path d="M198.2 103.1c-1.5 1.5-4 1.5-5.5 0s-1.5-4 0-5.5 4-1.5 5.5 0c1.6 1.5 1.6 3.9 0 5.5" clip-path="url(#j)" fill="#fff"/><defs><path id="k" d="M0 0h713.4v683.9H0z"/></defs><clipPath id="l"><use xlink:href="#k" overflow="visible"/></clipPath><path d="M195.2 85.6c-1.5 1.5-4 1.5-5.5 0s-1.5-4 0-5.5 4-1.5 5.5 0c1.6 1.5 1.6 4 0 5.5" clip-path="url(#l)" fill="#fff"/><defs><path id="m" d="M0 0h713.4v683.9H0z"/></defs><clipPath id="n"><use xlink:href="#m" overflow="visible"/></clipPath><path d="M177.8 103.1c-1.5 1.5-4 1.5-5.5 0s-1.5-4 0-5.5 4-1.5 5.5 0 1.5 3.9 0 5.5" clip-path="url(#n)" fill="#fff"/><defs><path id="o" d="M0 0h713.4v683.9H0z"/></defs><clipPath id="p"><use xlink:href="#o" overflow="visible"/></clipPath><path d="M174.8 85.6c-1.5 1.5-4 1.5-5.5 0s-1.5-4 0-5.5 4-1.5 5.5 0 1.5 4 0 5.5" clip-path="url(#p)" fill="#fff"/><defs><path id="q" d="M0 0h713.4v683.9H0z"/></defs><clipPath id="r"><use xlink:href="#q" overflow="visible"/></clipPath><path d="M157.3 103.1c-1.5 1.5-4 1.5-5.5 0s-1.5-4 0-5.5 4-1.5 5.5 0c1.6 1.5 1.6 3.9 0 5.5" clip-path="url(#r)" fill="#fff"/><defs><path id="s" d="M0 0h713.4v683.9H0z"/></defs><clipPath id="t"><use xlink:href="#s" overflow="visible"/></clipPath><path d="M154.4 85.6c-1.5 1.5-4 1.5-5.5 0s-1.5-4 0-5.5 4-1.5 5.5 0 1.5 4 0 5.5" clip-path="url(#t)" fill="#fff"/><defs><path id="u" d="M0 0h713.4v683.9H0z"/></defs><clipPath id="v"><use xlink:href="#u" overflow="visible"/></clipPath><path d="M136.9 103.1c-1.5 1.5-4 1.5-5.5 0s-1.5-4 0-5.5 4-1.5 5.5 0 1.5 3.9 0 5.5" clip-path="url(#v)" fill="#fff"/><defs><path id="w" d="M0 0h713.4v683.9H0z"/></defs><clipPath id="x"><use xlink:href="#w" overflow="visible"/></clipPath><path d="M454 150.2c2.3.1 4.1 2 4 4.3s-2 4.1-4.3 4-4.1-2-4.1-4.3c.1-2.3 1.9-4 4.2-4h.2zm-26 4.7c.2 2.3-1.5 4.3-3.8 4.5s-4.3-1.5-4.5-3.8 1.5-4.3 3.8-4.5h.4c2.1 0 3.9 1.6 4.1 3.8m-29.7 3.7c.4 2.2-1 4.4-3.3 4.9-2.2.5-4.4-1-4.9-3.2s1-4.4 3.3-4.9c.3 0 .5-.1.8-.1 1.9 0 3.7 1.4 4.1 3.3m-29.2 7.2c.7 2.2-.5 4.5-2.7 5.2s-4.5-.5-5.2-2.7.5-4.5 2.7-5.2c.4-.1.8-.2 1.3-.2 1.7 0 3.4 1.1 3.9 2.9M341 176.2c.9 2.1 0 4.6-2 5.5-2.1.9-4.6 0-5.5-2.1s0-4.5 2-5.5c.6-.3 1.1-.4 1.7-.4 1.6.1 3.1 1 3.8 2.5m-26.7 13.7c1.2 2 .5 4.5-1.4 5.7-2 1.2-4.5.5-5.7-1.4-1.2-2-.6-4.5 1.4-5.7.7-.4 1.4-.6 2.2-.6 1.3-.1 2.7.7 3.5 2m-25 16.5c1.4 1.8 1.1 4.4-.7 5.8-1.8 1.4-4.4 1.1-5.8-.7-1.4-1.8-1.1-4.4.8-5.8.7-.6 1.6-.9 2.5-.9 1.2 0 2.4.5 3.2 1.6m-23 19.3c1.6 1.6 1.6 4.3-.1 5.9-1.6 1.6-4.3 1.6-5.9-.1-1.6-1.6-1.5-4.3.1-5.9.8-.8 1.8-1.2 2.9-1.2 1.1 0 2.2.5 3 1.3m-20.6 21.8c1.8 1.4 2 4.1.6 5.8-1.5 1.8-4.1 2-5.9.6s-2-4.1-.6-5.8c.8-1 2-1.5 3.2-1.5 1-.1 1.9.3 2.7.9m-18 24c1.9 1.2 2.5 3.8 1.2 5.7-1.2 1.9-3.8 2.5-5.8 1.2-1.9-1.2-2.5-3.8-1.2-5.7.8-1.2 2.1-1.9 3.5-1.9.8 0 1.6.2 2.3.7m-15.2 25.8c2.1 1 2.9 3.5 1.9 5.6s-3.5 2.9-5.6 1.9c-2-1-2.9-3.5-1.9-5.6.7-1.5 2.2-2.3 3.7-2.3.7 0 1.3.1 1.9.4m-12.2 27.5c2.2.8 3.3 3.1 2.5 5.3-.8 2.2-3.1 3.3-5.3 2.5s-3.3-3.2-2.5-5.3c.6-1.7 2.2-2.8 3.9-2.8.5 0 1 .1 1.4.3m-8.8 28.6c2.2.5 3.6 2.8 3.1 5s-2.8 3.6-5 3.1-3.6-2.7-3.1-5c.4-1.9 2.1-3.2 4-3.2.3 0 .6.1 1 .1m-5.6 29.5c2.3.2 3.9 2.3 3.7 4.6-.3 2.3-2.3 3.9-4.6 3.7-2.3-.3-3.9-2.3-3.7-4.6.2-2.1 2-3.7 4.1-3.7h.5m2 34.1v.5c0 2.3-1.9 4.2-4.2 4.2s-4.2-1.8-4.2-4.1v-.6c0-2.3 1.9-4.2 4.2-4.2 2.4 0 4.2 1.9 4.2 4.2m1.7 30c.3 2.3-1.4 4.3-3.7 4.6-2.3.3-4.3-1.4-4.6-3.7-.3-2.3 1.4-4.3 3.7-4.6h.5c2.1 0 3.9 1.6 4.1 3.7m5.1 29.1c.5 2.2-.9 4.5-3.1 5s-4.5-.9-5-3.1.9-4.5 3.1-5c.3-.1.6-.1.9-.1 1.9 0 3.6 1.3 4.1 3.2" clip-path="url(#x)" fill="#fff"/><defs><path id="y" d="M0 0h713.4v683.9H0z"/></defs><clipPath id="z"><use xlink:href="#y" overflow="visible"/></clipPath><path d="M446.5 683.9c147.2 0 266.9-119.7 266.9-266.9 0-136.8-103.4-249.8-236.1-265.1 1.3 2.9 2.6 5.9 3.8 8.9 126.3 16.9 224 125.4 224 256.2 0 142.6-116 258.6-258.6 258.6-116.4 0-215.1-77.3-247.4-183.2-3.1-.7-6.3-1.5-9.4-2.3 31.9 111.7 134.9 193.8 256.8 193.8" clip-path="url(#z)" fill="#d0deea"/><defs><path id="A" d="M0 0h713.4v683.9H0z"/></defs><clipPath id="B"><use xlink:href="#A" overflow="visible"/></clipPath><path d="M278.3 583.8c0 1.4 1.2 2.6 2.6 2.6s2.6-1.2 2.6-2.6c0-1.4-1.2-2.6-2.6-2.6-1.5 0-2.6 1.1-2.6 2.6" clip-path="url(#B)" fill="#020202"/><defs><path id="C" d="M0 0h713.4v683.9H0z"/></defs><clipPath id="D"><use xlink:href="#C" overflow="visible"/></clipPath><path d="M278.3 560.2c0 1.4 1.2 2.6 2.6 2.6s2.6-1.2 2.6-2.6c0-1.4-1.2-2.6-2.6-2.6-1.5.1-2.6 1.2-2.6 2.6" clip-path="url(#D)" fill="#020202"/><defs><path id="E" d="M0 0h713.4v683.9H0z"/></defs><clipPath id="F"><use xlink:href="#E" overflow="visible"/></clipPath><path d="M278.3 536.7c0 1.4 1.2 2.6 2.6 2.6s2.6-1.2 2.6-2.6c0-1.4-1.2-2.6-2.6-2.6-1.5 0-2.6 1.2-2.6 2.6" clip-path="url(#F)" fill="#020202"/><defs><path id="G" d="M0 0h713.4v683.9H0z"/></defs><clipPath id="H"><use xlink:href="#G" overflow="visible"/></clipPath><path d="M278.3 513.2c0 1.4 1.2 2.6 2.6 2.6s2.6-1.2 2.6-2.6c0-1.4-1.2-2.6-2.6-2.6-1.5 0-2.6 1.2-2.6 2.6" clip-path="url(#H)" fill="#020202"/><defs><path id="I" d="M0 0h713.4v683.9H0z"/></defs><clipPath id="J"><use xlink:href="#I" overflow="visible"/></clipPath><path d="M278.3 489.7c0 1.4 1.2 2.6 2.6 2.6s2.6-1.2 2.6-2.6c0-1.4-1.2-2.6-2.6-2.6-1.5 0-2.6 1.2-2.6 2.6" clip-path="url(#J)" fill="#020202"/><defs><path id="K" d="M0 0h713.4v683.9H0z"/></defs><clipPath id="L"><use xlink:href="#K" overflow="visible"/></clipPath><path d="M278.3 466.2c0 1.4 1.2 2.6 2.6 2.6s2.6-1.2 2.6-2.6c0-1.4-1.2-2.6-2.6-2.6-1.5 0-2.6 1.2-2.6 2.6" clip-path="url(#L)" fill="#020202"/><defs><path id="M" d="M0 0h713.4v683.9H0z"/></defs><clipPath id="N"><use xlink:href="#M" overflow="visible"/></clipPath><path d="M283.5 442.7c0-1.4-1.2-2.6-2.6-2.6s-2.6 1.2-2.6 2.6 1.2 2.6 2.6 2.6 2.6-1.2 2.6-2.6" clip-path="url(#N)" fill="#020202"/><defs><path id="O" d="M0 0h713.4v683.9H0z"/></defs><clipPath id="P"><use xlink:href="#O" overflow="visible"/></clipPath><path d="M299.3 583.8c0 1.4 1.2 2.6 2.6 2.6s2.6-1.2 2.6-2.6c0-1.4-1.2-2.6-2.6-2.6s-2.6 1.1-2.6 2.6" clip-path="url(#P)" fill="#020202"/><defs><path id="Q" d="M0 0h713.4v683.9H0z"/></defs><clipPath id="R"><use xlink:href="#Q" overflow="visible"/></clipPath><path d="M299.3 560.2c0 1.4 1.2 2.6 2.6 2.6s2.6-1.2 2.6-2.6c0-1.4-1.2-2.6-2.6-2.6-1.4.1-2.6 1.2-2.6 2.6" clip-path="url(#R)" fill="#020202"/><defs><path id="S" d="M0 0h713.4v683.9H0z"/></defs><clipPath id="T"><use xlink:href="#S" overflow="visible"/></clipPath><path d="M299.3 536.7c0 1.4 1.2 2.6 2.6 2.6s2.6-1.2 2.6-2.6c0-1.4-1.2-2.6-2.6-2.6s-2.6 1.2-2.6 2.6" clip-path="url(#T)" fill="#020202"/><defs><path id="U" d="M0 0h713.4v683.9H0z"/></defs><clipPath id="V"><use xlink:href="#U" overflow="visible"/></clipPath><path d="M299.3 513.2c0 1.4 1.2 2.6 2.6 2.6s2.6-1.2 2.6-2.6c0-1.4-1.2-2.6-2.6-2.6s-2.6 1.2-2.6 2.6" clip-path="url(#V)" fill="#020202"/><defs><path id="W" d="M0 0h713.4v683.9H0z"/></defs><clipPath id="X"><use xlink:href="#W" overflow="visible"/></clipPath><path d="M299.3 489.7c0 1.4 1.2 2.6 2.6 2.6s2.6-1.2 2.6-2.6c0-1.4-1.2-2.6-2.6-2.6s-2.6 1.2-2.6 2.6" clip-path="url(#X)" fill="#020202"/><defs><path id="Y" d="M0 0h713.4v683.9H0z"/></defs><clipPath id="Z"><use xlink:href="#Y" overflow="visible"/></clipPath><path d="M299.3 466.2c0 1.4 1.2 2.6 2.6 2.6s2.6-1.2 2.6-2.6c0-1.4-1.2-2.6-2.6-2.6s-2.6 1.2-2.6 2.6" clip-path="url(#Z)" fill="#020202"/><defs><path id="aa" d="M0 0h713.4v683.9H0z"/></defs><clipPath id="ab"><use xlink:href="#aa" overflow="visible"/></clipPath><path d="M299.3 442.7c0 1.4 1.2 2.6 2.6 2.6s2.6-1.2 2.6-2.6c0-1.4-1.2-2.6-2.6-2.6s-2.6 1.2-2.6 2.6" clip-path="url(#ab)" fill="#020202"/><defs><path id="ac" d="M0 0h713.4v683.9H0z"/></defs><clipPath id="ad"><use xlink:href="#ac" overflow="visible"/></clipPath><path d="M320.3 583.8c0 1.4 1.2 2.6 2.6 2.6s2.6-1.2 2.6-2.6c0-1.4-1.2-2.6-2.6-2.6s-2.6 1.1-2.6 2.6" clip-path="url(#ad)" fill="#020202"/><defs><path id="ae" d="M0 0h713.4v683.9H0z"/></defs><clipPath id="af"><use xlink:href="#ae" overflow="visible"/></clipPath><path d="M320.3 560.2c0 1.4 1.2 2.6 2.6 2.6s2.6-1.2 2.6-2.6c0-1.4-1.2-2.6-2.6-2.6-1.4.1-2.6 1.2-2.6 2.6" clip-path="url(#af)" fill="#020202"/><defs><path id="ag" d="M0 0h713.4v683.9H0z"/></defs><clipPath id="ah"><use xlink:href="#ag" overflow="visible"/></clipPath><path d="M320.3 536.7c0 1.4 1.2 2.6 2.6 2.6s2.6-1.2 2.6-2.6c0-1.4-1.2-2.6-2.6-2.6s-2.6 1.2-2.6 2.6" clip-path="url(#ah)" fill="#020202"/><defs><path id="ai" d="M0 0h713.4v683.9H0z"/></defs><clipPath id="aj"><use xlink:href="#ai" overflow="visible"/></clipPath><path d="M320.3 513.2c0 1.4 1.2 2.6 2.6 2.6s2.6-1.2 2.6-2.6c0-1.4-1.2-2.6-2.6-2.6s-2.6 1.2-2.6 2.6" clip-path="url(#aj)" fill="#020202"/><defs><path id="ak" d="M0 0h713.4v683.9H0z"/></defs><clipPath id="al"><use xlink:href="#ak" overflow="visible"/></clipPath><path d="M320.3 489.7c0 1.4 1.2 2.6 2.6 2.6s2.6-1.2 2.6-2.6c0-1.4-1.2-2.6-2.6-2.6s-2.6 1.2-2.6 2.6" clip-path="url(#al)" fill="#020202"/><defs><path id="am" d="M0 0h713.4v683.9H0z"/></defs><clipPath id="an"><use xlink:href="#am" overflow="visible"/></clipPath><path d="M320.3 466.2c0 1.4 1.2 2.6 2.6 2.6s2.6-1.2 2.6-2.6c0-1.4-1.2-2.6-2.6-2.6s-2.6 1.2-2.6 2.6" clip-path="url(#an)" fill="#020202"/><defs><path id="ao" d="M0 0h713.4v683.9H0z"/></defs><clipPath id="ap"><use xlink:href="#ao" overflow="visible"/></clipPath><path d="M320.3 442.7c0 1.4 1.2 2.6 2.6 2.6s2.6-1.2 2.6-2.6c0-1.4-1.2-2.6-2.6-2.6s-2.6 1.2-2.6 2.6" clip-path="url(#ap)" fill="#020202"/><defs><path id="aq" d="M0 0h713.4v683.9H0z"/></defs><clipPath id="ar"><use xlink:href="#aq" overflow="visible"/></clipPath><path d="M341.3 583.8c0 1.4 1.2 2.6 2.6 2.6s2.6-1.2 2.6-2.6c0-1.4-1.2-2.6-2.6-2.6s-2.6 1.1-2.6 2.6" clip-path="url(#ar)" fill="#020202"/><defs><path id="as" d="M0 0h713.4v683.9H0z"/></defs><clipPath id="at"><use xlink:href="#as" overflow="visible"/></clipPath><path d="M341.3 560.2c0 1.4 1.2 2.6 2.6 2.6s2.6-1.2 2.6-2.6c0-1.4-1.2-2.6-2.6-2.6-1.4.1-2.6 1.2-2.6 2.6" clip-path="url(#at)" fill="#020202"/><defs><path id="au" d="M0 0h713.4v683.9H0z"/></defs><clipPath id="av"><use xlink:href="#au" overflow="visible"/></clipPath><path d="M341.3 536.7c0 1.4 1.2 2.6 2.6 2.6s2.6-1.2 2.6-2.6c0-1.4-1.2-2.6-2.6-2.6s-2.6 1.2-2.6 2.6" clip-path="url(#av)" fill="#020202"/><defs><path id="aw" d="M0 0h713.4v683.9H0z"/></defs><clipPath id="ax"><use xlink:href="#aw" overflow="visible"/></clipPath><path d="M341.3 513.2c0 1.4 1.2 2.6 2.6 2.6s2.6-1.2 2.6-2.6c0-1.4-1.2-2.6-2.6-2.6s-2.6 1.2-2.6 2.6" clip-path="url(#ax)" fill="#020202"/><defs><path id="ay" d="M0 0h713.4v683.9H0z"/></defs><clipPath id="az"><use xlink:href="#ay" overflow="visible"/></clipPath><path d="M341.3 489.7c0 1.4 1.2 2.6 2.6 2.6s2.6-1.2 2.6-2.6c0-1.4-1.2-2.6-2.6-2.6s-2.6 1.2-2.6 2.6" clip-path="url(#az)" fill="#020202"/><defs><path id="aA" d="M0 0h713.4v683.9H0z"/></defs><clipPath id="aB"><use xlink:href="#aA" overflow="visible"/></clipPath><path d="M341.3 466.2c0 1.4 1.2 2.6 2.6 2.6s2.6-1.2 2.6-2.6c0-1.4-1.2-2.6-2.6-2.6s-2.6 1.2-2.6 2.6" clip-path="url(#aB)" fill="#020202"/><defs><path id="aC" d="M0 0h713.4v683.9H0z"/></defs><clipPath id="aD"><use xlink:href="#aC" overflow="visible"/></clipPath><path d="M341.3 442.7c0 1.4 1.2 2.6 2.6 2.6s2.6-1.2 2.6-2.6c0-1.4-1.2-2.6-2.6-2.6s-2.6 1.2-2.6 2.6" clip-path="url(#aD)" fill="#020202"/><defs><path id="aE" d="M0 0h713.4v683.9H0z"/></defs><clipPath id="aF"><use xlink:href="#aE" overflow="visible"/></clipPath><path d="M362.4 583.8c0 1.4 1.2 2.6 2.6 2.6s2.6-1.2 2.6-2.6c0-1.4-1.2-2.6-2.6-2.6-1.5 0-2.6 1.1-2.6 2.6" clip-path="url(#aF)" fill="#020202"/><defs><path id="aG" d="M0 0h713.4v683.9H0z"/></defs><clipPath id="aH"><use xlink:href="#aG" overflow="visible"/></clipPath><path d="M362.4 560.2c0 1.4 1.2 2.6 2.6 2.6s2.6-1.2 2.6-2.6c0-1.4-1.2-2.6-2.6-2.6-1.5.1-2.6 1.2-2.6 2.6" clip-path="url(#aH)" fill="#020202"/><defs><path id="aI" d="M0 0h713.4v683.9H0z"/></defs><clipPath id="aJ"><use xlink:href="#aI" overflow="visible"/></clipPath><path d="M362.4 536.7c0 1.4 1.2 2.6 2.6 2.6s2.6-1.2 2.6-2.6c0-1.4-1.2-2.6-2.6-2.6-1.5 0-2.6 1.2-2.6 2.6" clip-path="url(#aJ)" fill="#020202"/><defs><path id="aK" d="M0 0h713.4v683.9H0z"/></defs><clipPath id="aL"><use xlink:href="#aK" overflow="visible"/></clipPath><path d="M362.4 513.2c0 1.4 1.2 2.6 2.6 2.6s2.6-1.2 2.6-2.6c0-1.4-1.2-2.6-2.6-2.6-1.5 0-2.6 1.2-2.6 2.6" clip-path="url(#aL)" fill="#020202"/><defs><path id="aM" d="M0 0h713.4v683.9H0z"/></defs><clipPath id="aN"><use xlink:href="#aM" overflow="visible"/></clipPath><path d="M362.4 489.7c0 1.4 1.2 2.6 2.6 2.6s2.6-1.2 2.6-2.6c0-1.4-1.2-2.6-2.6-2.6-1.5 0-2.6 1.2-2.6 2.6" clip-path="url(#aN)" fill="#020202"/><defs><path id="aO" d="M0 0h713.4v683.9H0z"/></defs><clipPath id="aP"><use xlink:href="#aO" overflow="visible"/></clipPath><path d="M362.4 466.2c0 1.4 1.2 2.6 2.6 2.6s2.6-1.2 2.6-2.6c0-1.4-1.2-2.6-2.6-2.6-1.5 0-2.6 1.2-2.6 2.6" clip-path="url(#aP)" fill="#020202"/><defs><path id="aQ" d="M0 0h713.4v683.9H0z"/></defs><clipPath id="aR"><use xlink:href="#aQ" overflow="visible"/></clipPath><path d="M362.4 442.7c0 1.4 1.2 2.6 2.6 2.6s2.6-1.2 2.6-2.6c0-1.4-1.2-2.6-2.6-2.6-1.5 0-2.6 1.2-2.6 2.6" clip-path="url(#aR)" fill="#020202"/></svg>