<?xml version="1.0" encoding="utf-8"?><svg xmlns="http://www.w3.org/2000/svg" xmlns:xlink="http://www.w3.org/1999/xlink"><symbol viewBox="0 0 30.727 30.727" id="angle" xmlns="http://www.w3.org/2000/svg"><path d="M29.994 10.183L15.363 24.812.733 10.184a2.5 2.5 0 1 1 3.536-3.536l11.095 11.093L26.461 6.647a2.5 2.5 0 1 1 3.533 3.536z"/></symbol><symbol viewBox="0 0 106 87" id="bag" xmlns="http://www.w3.org/2000/svg"><path d="M94.647 86.142H11.389A11.306 11.306 0 0 1 .035 74.788V28.654A11.306 11.306 0 0 1 11.39 17.3h83.258A11.306 11.306 0 0 1 106 28.654v46.134c-.18 6.308-5.226 11.354-11.353 11.354zM11.208 20.364c-4.685 0-8.29 3.784-8.29 8.29v46.134c0 4.686 3.785 8.29 8.29 8.29h83.259c4.685 0 8.289-3.784 8.289-8.29V28.654c0-4.686-3.784-8.29-8.29-8.29H11.209z"/><path d="M73.021 20.364H32.834c-.901 0-1.442-.72-1.442-1.442v-8.11C31.392 4.867 36.258 0 42.205 0H63.65c5.947 0 10.813 4.866 10.813 10.813v8.11c0 .9-.72 1.441-1.442 1.441zm-38.745-2.883h37.123v-6.668c0-4.325-3.604-7.75-7.929-7.75H42.025c-4.325 0-7.93 3.605-7.93 7.75v6.668h.18z"/><path d="M63.29 20.364H42.745c-.9 0-1.441-.72-1.441-1.442v-5.586a4.462 4.462 0 0 1 4.505-4.506h14.417a4.462 4.462 0 0 1 4.505 4.506v5.586c0 .721-.72 1.442-1.441 1.442zM44.187 17.3h17.661v-4.144c0-.902-.72-1.622-1.622-1.622H45.81c-.901 0-1.622.72-1.622 1.622V17.3zm17.481 32.078c-.721 0-1.262-.54-1.442-1.08-.18-.722.36-1.623 1.081-1.803l42.53-10.272c.721-.18 1.622.36 1.802 1.081.181.72-.36 1.622-1.081 1.802l-42.53 10.272h-.36zm-17.661 0h-.36L1.116 39.106c-.722-.18-1.262-1.081-1.082-1.802.18-.72.901-1.261 1.802-1.081l42.53 10.272c.721.18 1.262 1.081 1.082 1.802-.18.54-.721 1.081-1.442 1.081z"/><path d="M58.965 54.605H46.89c-2.162 0-3.784-1.803-3.784-3.785v-5.947c0-2.163 1.802-3.784 3.784-3.784h12.075c2.162 0 3.784 1.802 3.784 3.784v5.947c0 2.163-1.622 3.785-3.784 3.785zM46.89 43.972c-.54 0-.9.36-.9.901v5.947c0 .54.36.901.9.901h12.075c.54 0 .9-.36.9-.901v-5.947c0-.54-.36-.901-.9-.901H46.89z"/></symbol><symbol viewBox="0 0 25.031 15" id="caret-down" xmlns="http://www.w3.org/2000/svg"><path data-name="Фигура 903 копия" d="M1.831.51h21.331c.992 0 1.73.67 1.15 1.34-.465.54-9.843 11.28-10.645 12.2a1.718 1.718 0 0 1-2.31 0C10.768 13.39 1.343 2.61.688 1.83.208 1.25.738.51 1.831.51z" fill-rule="evenodd"/></symbol><symbol viewBox="0 0 78.37 57.484" id="check" xmlns="http://www.w3.org/2000/svg"><path d="M78.05 8.572L29.457 57.163a1.094 1.094 0 0 1-1.548 0L.32 29.573a1.094 1.094 0 0 1 0-1.548l6.704-6.704a1.095 1.095 0 0 1 1.548 0l20.113 20.112L69.798.32a1.095 1.095 0 0 1 1.548 0l6.703 6.704a1.094 1.094 0 0 1 0 1.548z"/></symbol><symbol viewBox="0 0 612 612" id="clock" xmlns="http://www.w3.org/2000/svg"><path d="M587.572 186.881c-32.266-75.225-87.096-129.934-162.949-162.285C386.711 8.427 346.992.168 305.497.168c-41.488 0-80.914 8.181-118.784 24.428-75.225 32.265-130.298 86.939-162.621 162.285C7.895 224.629 0 264.176 0 305.664c0 41.496 7.895 81.371 24.092 119.127 32.323 75.346 87.403 130.348 162.621 162.621 37.877 16.247 77.295 24.42 118.784 24.42 41.489 0 81.214-8.259 119.12-24.42C500.47 555.06 555.3 500.009 587.573 424.791 603.819 386.914 612 347.16 612 305.664c0-41.488-8.174-80.907-24.428-118.783zm-48.848 253.972c-24.021 41.195-56.929 73.876-98.375 98.039-41.195 24.021-86.332 36.135-134.845 36.135-36.47 0-71.27-7.024-104.4-21.415-33.129-14.384-61.733-33.294-85.661-57.215-23.928-23.928-42.973-52.811-57.214-85.997-14.199-33.065-21.08-68.258-21.08-104.735 0-48.52 11.921-93.428 35.807-134.509 23.971-41.231 56.886-73.947 98.039-98.04 41.146-24.092 85.99-36.142 134.502-36.142 48.52 0 93.649 12.121 134.845 36.142 41.446 24.164 74.283 56.879 98.375 98.039 24.092 41.153 36.135 85.99 36.135 134.509 0 48.521-11.964 93.735-36.128 135.189z"/><path d="M324.906 302.988V129.659c0-10.372-9.037-18.738-19.41-18.738-9.701 0-18.403 8.366-18.403 18.738v176.005c0 .336.671 1.678.671 2.678-.671 6.024 1.007 11.043 5.019 15.062L392.836 423.45c6.695 6.695 19.073 6.695 25.763 0 7.694-7.695 7.188-18.86 0-26.099l-93.693-94.363z"/></symbol><symbol viewBox="0 0 47.971 47.971" id="close" xmlns="http://www.w3.org/2000/svg"><path d="M28.228 23.986L47.092 5.122a2.998 2.998 0 0 0 0-4.242 2.998 2.998 0 0 0-4.242 0L23.986 19.744 5.121.88a2.998 2.998 0 0 0-4.242 0 2.998 2.998 0 0 0 0 4.242l18.865 18.864L.879 42.85a2.998 2.998 0 1 0 4.242 4.241l18.865-18.864L42.85 47.091c.586.586 1.354.879 2.121.879s1.535-.293 2.121-.879a2.998 2.998 0 0 0 0-4.242L28.228 23.986z"/></symbol><symbol viewBox="0 0 512 512" id="email" xmlns="http://www.w3.org/2000/svg"><path d="M467 61H45C20.218 61 0 81.196 0 106v300c0 24.72 20.128 45 45 45h422c24.72 0 45-20.128 45-45V106c0-24.72-20.128-45-45-45zm-6.214 30L256.954 294.833 51.359 91h409.427zM30 399.788V112.069l144.479 143.24L30 399.788zM51.213 421l144.57-144.57 50.657 50.222c5.864 5.814 15.327 5.795 21.167-.046L317 277.213 460.787 421H51.213zM482 399.787L338.213 256 482 112.212v287.575z"/></symbol><symbol viewBox="0 0 25 48" id="facebook" xmlns="http://www.w3.org/2000/svg"><path d="M24.8.3v7.6h-4.5c-3.5 0-4.2 1.7-4.2 4.1v5.4h8.4l-1.1 8.5h-7.3V48H7.3V25.9H0v-8.5h7.3v-6.3C7.3 4 11.8 0 18.2 0c3.1 0 5.8.2 6.6.3z" fill-rule="evenodd" clip-rule="evenodd"/></symbol><symbol viewBox="0 0 121 84" id="hat" xmlns="http://www.w3.org/2000/svg"><path d="M61.167 79.412c-34.109 0-34.49-16.768-34.49-17.53V38.633c0-.953.762-1.524 1.525-1.524.762 0 1.524.762 1.524 1.524V61.88c0 .19.572 14.292 31.441 14.292 31.06 0 31.441-14.292 31.441-14.292V38.634c0-.953.762-1.524 1.524-1.524.763 0 1.525.762 1.525 1.524v23.247c0 .763-.381 17.531-34.49 17.531z"/><path d="M60.786 53.497c-.19 0-.381 0-.572-.19L.953 27.773C.38 27.583 0 27.01 0 26.248c0-.571.381-1.143.953-1.524L59.643.143c.38-.19.762-.19 1.143 0l59.261 25.534c.572.19.953.762.953 1.524 0 .572-.381 1.143-.953 1.525l-58.69 24.58c-.19.191-.38.191-.571.191zM5.526 26.44l55.26 23.819 54.688-22.866-55.26-23.82L5.526 26.44z"/><path d="M112.806 83.414H99.277c-.572 0-1.143-.381-1.334-.762-.19-.572-.381-1.144 0-1.525l6.479-11.623v-34.49l-39.444-5.717c-.953-.19-1.525-.953-1.334-1.715.19-.953.953-1.524 1.715-1.334l40.778 5.908c.762.19 1.334.762 1.334 1.524v35.824l6.669 11.814c.191.571.191 1.143 0 1.524-.381.19-.762.572-1.334.572zm-10.861-3.24h8.193l-4.001-7.24-4.192 7.24z"/><path d="M60.595 31.965c-3.43 0-6.288-2.287-6.288-5.145 0-2.858 2.858-5.145 6.288-5.145s6.288 2.287 6.288 5.145c0 2.858-2.858 5.145-6.288 5.145zm0-7.241c-1.715 0-3.239.953-3.239 2.096 0 1.143 1.524 2.096 3.24 2.096 1.714 0 3.239-.953 3.239-2.096-.19-1.143-1.525-2.096-3.24-2.096z"/></symbol><symbol viewBox="0 0 47 47" id="instagram" xmlns="http://www.w3.org/2000/svg"><g clip-path="url(#jclip0)"><path d="M23.52 11.504a12.01 12.01 0 0 0-3.564.543 11.904 11.904 0 0 0-3.145 1.518 12.156 12.156 0 0 0-4.362 5.297 11.902 11.902 0 0 0-.948 4.672 12.057 12.057 0 0 0 .245 2.417 11.907 11.907 0 0 0 1.21 3.306 12.057 12.057 0 0 0 2.075 2.774 12.168 12.168 0 0 0 2.771 2.075 12.007 12.007 0 0 0 3.303 1.212 11.933 11.933 0 0 0 3.64.183 11.933 11.933 0 0 0 6.411-2.693 12.17 12.17 0 0 0 2.929-3.551 11.99 11.99 0 0 0 1.393-4.497 12.057 12.057 0 0 0-.48-4.794 11.932 11.932 0 0 0-1.517-3.147 12.138 12.138 0 0 0-6.395-4.772 11.863 11.863 0 0 0-3.565-.543zm0 4.152a8.09 8.09 0 0 1 1.594.16 7.832 7.832 0 0 1 6.278 7.718 8.103 8.103 0 0 1-.159 1.594 7.892 7.892 0 0 1-.786 2.171 7.837 7.837 0 0 1-6.926 4.112 8.092 8.092 0 0 1-1.594-.159 7.87 7.87 0 0 1-2.169-.787 7.798 7.798 0 0 1-2.319-1.91 7.832 7.832 0 0 1-1.749-4.212 8.103 8.103 0 0 1 .312-3.16 7.818 7.818 0 0 1 3.107-4.188 7.797 7.797 0 0 1 2.818-1.18 7.913 7.913 0 0 1 1.594-.159zM36.028 8.082a2.84 2.84 0 0 0-2.053.876 2.872 2.872 0 0 0-.705 1.239 2.91 2.91 0 0 0 .978 3.032 2.836 2.836 0 0 0 1.78.626A2.812 2.812 0 0 0 37.4 13.5a2.84 2.84 0 0 0 .87-.738 2.901 2.901 0 0 0-.944-4.367 2.837 2.837 0 0 0-1.298-.314z"/><path d="M21.241 0a223.88 223.88 0 0 0-3.521.019 97.78 97.78 0 0 0-2.81.075c-.832.036-1.568.083-2.228.145a25.144 25.144 0 0 0-1.776.226c-.266.045-.519.094-.76.147a13.436 13.436 0 0 0-1.344.37c-.21.071-.415.146-.617.227-.404.16-.799.34-1.205.542-.313.155-.602.313-.876.48a9.452 9.452 0 0 0-.789.533c-.254.192-.503.4-.757.631-.253.231-.51.485-.78.77a15.97 15.97 0 0 0-.892 1.01 10.707 10.707 0 0 0-.693.972 9.197 9.197 0 0 0-.559 1.037 14.53 14.53 0 0 0-.49 1.21 13.874 13.874 0 0 0-.574 2.084 19.06 19.06 0 0 0-.2 1.266c-.058.46-.107.963-.15 1.522a55.618 55.618 0 0 0-.105 1.859c-.029.684-.05 1.439-.068 2.276-.017.838-.029 1.758-.036 2.775a431.14 431.14 0 0 0 .019 8.232c.022 1.421.054 2.646.097 3.694.022.524.047 1.005.074 1.444.028.439.06.836.093 1.196.034.359.071.68.112.964.04.285.084.534.131.75.098.449.21.883.338 1.303.127.42.27.825.426 1.215.157.391.329.768.515 1.13.187.363.389.712.606 1.046a11.58 11.58 0 0 0 1.484 1.845 11.78 11.78 0 0 0 1.855 1.524c.312.209.62.4.932.576a11.251 11.251 0 0 0 1.946.873c.345.117.705.221 1.085.314s.782.174 1.21.245c.427.07.881.132 1.368.184a37.57 37.57 0 0 0 1.563.132c.558.036 1.154.065 1.795.088.99.036 2.488.057 4.216.065a454.298 454.298 0 0 0 10.889-.086c.765-.017 1.448-.036 2.014-.056a33.316 33.316 0 0 0 1.312-.068c.281-.023.555-.05.823-.082a18.8 18.8 0 0 0 1.533-.248 15.21 15.21 0 0 0 1.427-.371 14.515 14.515 0 0 0 1.37-.508c.225-.097.451-.2.678-.309.349-.168.629-.308.875-.445s.457-.271.668-.426c.21-.155.419-.332.66-.554.24-.222.513-.49.852-.829.297-.297.547-.556.763-.791.216-.235.398-.447.558-.65a7.106 7.106 0 0 0 .789-1.254c.18-.353.34-.68.484-.995.144-.316.27-.62.382-.928.111-.308.208-.62.293-.95.085-.33.158-.678.221-1.061.064-.383.117-.799.164-1.264.046-.465.085-.978.12-1.556.034-.577.064-1.218.092-1.937.027-.72.053-1.518.079-2.41.024-.861.043-1.762.056-2.684a247.899 247.899 0 0 0-.029-8.321c-.018-.869-.04-1.698-.067-2.47-.027-.772-.057-1.485-.092-2.12a47.66 47.66 0 0 0-.114-1.654c-.042-.46-.087-.822-.135-1.067a18.023 18.023 0 0 0-.384-1.586 15.356 15.356 0 0 0-.513-1.461 13.473 13.473 0 0 0-.641-1.338 12.12 12.12 0 0 0-.769-1.214 11.28 11.28 0 0 0-1.392-1.587 11.13 11.13 0 0 0-1.087-.903 11.748 11.748 0 0 0-1.215-.778 12.92 12.92 0 0 0-.654-.342 21.55 21.55 0 0 0-1.042-.48 10.604 10.604 0 0 0-2.092-.652c-.39-.079-.818-.146-1.301-.202a30.227 30.227 0 0 0-1.64-.14 69.347 69.347 0 0 0-2.103-.092 174.23 174.23 0 0 0-2.693-.06c-1.01-.015-2.14-.028-3.409-.04A567.8 567.8 0 0 0 21.241 0zm2.267 4.149c2.235 0 4.47.011 6.295.036.912.012 1.72.027 2.374.046.654.018 1.153.04 1.446.064.38.032.744.072 1.09.121.347.049.678.106.994.172.316.066.618.141.907.227.288.085.564.18.828.286a7.742 7.742 0 0 1 2.12 1.25 8.768 8.768 0 0 1 1.202 1.207A7.064 7.064 0 0 1 42.01 9.85c.1.298.19.615.27.954.079.338.148.699.208 1.085s.112.798.156 1.239a37.369 37.369 0 0 1 .171 2.979c.018.628.033 1.354.044 2.144.024 1.58.035 3.416.034 5.252 0 1.836-.014 3.671-.038 5.247-.013.789-.028 1.512-.046 2.139-.018.626-.04 1.155-.064 1.556a43.13 43.13 0 0 1-.146 1.873c-.028.266-.058.513-.091.744-.034.231-.07.447-.111.652a9.461 9.461 0 0 1-.304 1.14 9.63 9.63 0 0 1-.203.543c-.074.182-.155.367-.244.56a8.435 8.435 0 0 1-.51.938 7.352 7.352 0 0 1-.613.832 7 7 0 0 1-1.125 1.056 7.592 7.592 0 0 1-.891.578 8.682 8.682 0 0 1-1.01.48c-.177.072-.36.14-.549.205-.376.128-.773.24-1.191.338-.418.098-.857.18-1.318.248-.17.024-.561.048-1.121.07-.56.021-1.29.041-2.135.059a545.334 545.334 0 0 1-12.385.089c-.94-.006-1.786-.014-2.488-.027a44.392 44.392 0 0 1-1.615-.05 47.043 47.043 0 0 1-1.19-.084 28.21 28.21 0 0 1-1.036-.105 17.66 17.66 0 0 1-.905-.133c-.282-.05-.547-.105-.797-.166a9.213 9.213 0 0 1-.714-.205 7.928 7.928 0 0 1-1.272-.55 9.628 9.628 0 0 1-1.463-.976 7.43 7.43 0 0 1-.735-.696 6.786 6.786 0 0 1-.892-1.223 7.59 7.59 0 0 1-.466-.958 9.398 9.398 0 0 1-.196-.527 11.744 11.744 0 0 1-.327-1.16c-.094-.413-.175-.85-.242-1.316-.068-.466-.123-.96-.167-1.486a34.19 34.19 0 0 1-.077-1.751c-.02-.762-.033-1.682-.041-2.704-.016-2.044-.01-4.494.013-6.893.024-2.398.065-4.746.119-6.586.027-.92.057-1.712.09-2.32.017-.304.034-.563.052-.767a4.38 4.38 0 0 1 .055-.448c.062-.3.124-.579.189-.84.064-.261.13-.504.201-.733a7.73 7.73 0 0 1 .478-1.227 6.313 6.313 0 0 1 .642-1.034c.125-.166.26-.33.407-.495a11.914 11.914 0 0 1 1.103-1.085c.21-.178.42-.34.638-.49a6.94 6.94 0 0 1 1.4-.744c.253-.1.52-.19.802-.27.282-.08.58-.15.899-.213a16.29 16.29 0 0 1 1.016-.164c.36-.048.744-.089 1.154-.125.286-.024.78-.046 1.428-.065.65-.019 1.454-.034 2.363-.047a482.63 482.63 0 0 1 6.284-.038z"/></g><defs id="jdefs40"><radialGradient id="jpaint0_radial" cx="0" cy="0" r="1" gradientUnits="userSpaceOnUse" gradientTransform="matrix(97.96142 -16.47723 10.0186 59.5632 7.488 50.425)"><stop stop-color="#FED576" id="jstop10"/><stop offset=".263" stop-color="#F47133" id="jstop12"/><stop offset=".609" stop-color="#BC3081" id="jstop14"/><stop offset="1" stop-color="#4C63D2" id="jstop16"/></radialGradient><radialGradient id="jpaint1_radial" cx="0" cy="0" r="1" gradientUnits="userSpaceOnUse" gradientTransform="matrix(97.96138 -16.47749 10.01876 59.56318 7.488 50.426)"><stop stop-color="#FED576" id="jstop19"/><stop offset=".263" stop-color="#F47133" id="jstop21"/><stop offset=".609" stop-color="#BC3081" id="jstop23"/><stop offset="1" stop-color="#4C63D2" id="jstop25"/></radialGradient><radialGradient id="jpaint2_radial" cx="0" cy="0" r="1" gradientUnits="userSpaceOnUse" gradientTransform="matrix(97.96138 -16.47749 10.01875 59.56308 7.488 50.426)"><stop stop-color="#FED576" id="jstop28"/><stop offset=".263" stop-color="#F47133" id="jstop30"/><stop offset=".609" stop-color="#BC3081" id="jstop32"/><stop offset="1" stop-color="#4C63D2" id="jstop34"/></radialGradient><clipPath id="jclip0"><path id="jrect37" d="M0 0h47v47H0z"/></clipPath></defs></symbol><symbol viewBox="0 0 60.123 60.123" id="list" xmlns="http://www.w3.org/2000/svg"><path d="M57.124 51.893H16.92a3 3 0 1 1 0-6h40.203a3 3 0 0 1 .001 6zm0-18.831H16.92a3 3 0 1 1 0-6h40.203a3 3 0 0 1 .001 6zm0-18.831H16.92a3 3 0 1 1 0-6h40.203a3 3 0 0 1 .001 6z"/><circle cx="4.029" cy="11.463" r="4.029"/><circle cx="4.029" cy="30.062" r="4.029"/><circle cx="4.029" cy="48.661" r="4.029"/></symbol><symbol viewBox="0 0 53 53" id="menu" xmlns="http://www.w3.org/2000/svg"><path d="M2 13.5h49a2 2 0 0 0 0-4H2a2 2 0 0 0 0 4zm0 15h49a2 2 0 0 0 0-4H2a2 2 0 0 0 0 4zm0 15h49a2 2 0 0 0 0-4H2a2 2 0 0 0 0 4z"/></symbol><symbol viewBox="0 0 118 109" id="note" xmlns="http://www.w3.org/2000/svg"><path d="M85.917 98.191c0 3.715-3.068 6.783-6.783 6.783H9.69c-3.715 0-6.783-3.068-6.783-6.783V9.69c0-3.715 3.068-6.783 6.783-6.783h55.555v10.82c0 5.33 4.36 9.852 9.852 9.852h10.82v34.399c.646-.969 1.777-1.938 3.069-2.261V21.479c0-.161-.162-.323-.323-.484L67.99.323c-.162-.161-.323-.162-.485-.323H9.85C4.522 0 0 4.36 0 9.851v88.502c0 5.329 4.36 9.851 9.851 9.851h69.445c5.33 0 9.851-4.36 9.851-9.851V73.159c-.807.484-1.776.646-3.068.646V98.19h-.162zM68.314 5.006L83.818 20.51h-8.721c-3.715 0-6.783-3.068-6.783-6.783v-8.72z"/><path d="M116.602 36.337a4.874 4.874 0 0 0-6.944 0l-2.423 2.423-1.615-1.615c-.323-.323-.646-.485-1.13-.485-.323 0-.808.162-1.131.485l-1.776 1.776c-3.23-1.292-6.945-.646-9.367 1.938-4.684 4.845-11.79 12.274-18.734 20.188-.485.646-.485 1.614.161 2.099.323.323.646.323.97.323.484 0 .807-.162 1.13-.485 6.944-7.752 14.05-15.18 18.572-20.025 1.292-1.292 3.069-1.777 4.845-1.615-4.522 4.683-12.274 12.92-19.864 21.317-6.622 7.43-11.951 13.566-15.666 18.411-1.291 1.615-2.26 3.069-3.23 4.36-2.099 2.908-3.23 5.169-3.714 6.784-2.745.161-5.814.161-8.075-.97h-.161c.969-1.937 1.453-4.037 1.292-6.136 0-.97-.162-2.261-.808-3.392-.807-1.453-2.1-2.26-3.553-2.26a3.767 3.767 0 0 0-3.391 2.099c-.485.969-.808 1.938-.646 3.391.161 2.584 1.13 5.007 2.907 6.783-.97.808-2.423 1.454-4.522 1.615-2.907.162-5.491-.323-8.075-1.776l-.97-.485c1.777-3.068 2.423-6.621 2.423-9.851 0-1.454-.161-3.23-1.13-4.845-.97-1.777-2.907-3.069-4.684-3.069-1.776 0-3.553 1.13-4.522 2.907-.646 1.292-.969 2.907-.969 4.684a15.63 15.63 0 0 0 4.845 10.659c-.969 1.13-2.26 1.938-3.714 2.584-2.907 1.13-6.46.646-9.529.161-.807-.161-1.615.485-1.776 1.292-.162.808.484 1.615 1.292 1.777 1.776.161 3.714.484 5.652.484 1.777 0 3.553-.161 5.33-.807 1.938-.808 3.714-1.938 5.006-3.553.485.323.808.484 1.292.807 3.069 1.615 6.299 2.261 9.69 2.1 3.069-.162 5.168-1.13 6.783-2.746.162.162.323.162.485.323 3.068 1.615 6.783 1.454 9.69 1.292 0 .162.161.162.161.323.485.485 1.13.808 1.776.808 1.777 0 4.361-1.292 8.237-4.038 1.292-.969 2.745-1.938 4.36-3.23 4.845-3.714 11.144-9.044 18.411-15.665 13.082-11.79 25.517-23.902 25.517-24.063.323-.323.485-.646.485-1.131 0-.323-.162-.807-.485-1.13l-1.615-1.615 2.423-2.423c2.422-1.776 2.422-4.845.484-6.783zm-88.178 52.81c-2.1-2.26-3.392-5.168-3.553-8.236 0-1.292.161-2.423.646-3.069.484-.807 1.292-1.292 1.938-1.292.807 0 1.615.646 2.1 1.454.484.807.645 1.938.645 3.391.162 2.423-.484 5.33-1.776 7.752zm17.765.162c-.97-1.292-1.615-2.746-1.615-4.36 0-.808.161-1.293.323-1.777.161-.323.484-.646.807-.646.323 0 .646.323.808.646.323.484.323 1.13.323 1.938.161.969 0 2.584-.646 4.199zm19.541.646c-3.553 2.422-5.168 3.23-5.976 3.391.162-.807.97-2.422 3.392-5.975.646-.808 1.292-1.777 2.1-2.907l3.391 3.391c-1.13.808-2.1 1.454-2.907 2.1zm5.168-4.038l-3.876-3.876c3.391-4.36 8.075-9.851 13.727-16.15l.646.646 5.653 5.653c-6.299 5.652-11.79 10.336-16.15 13.727zm18.41-15.665l-6.46-6.46c9.368-10.336 18.735-20.187 21.965-23.417l1.615 1.615 4.845 4.845 1.615 1.615c-3.553 2.906-13.243 12.435-23.58 21.802zm25.195-29.07l-2.423 2.423-2.584-2.584 2.423-2.423c.807-.807 1.938-.807 2.584 0 .807.646.807 1.777 0 2.584zM58.785 34.4H14.373a1.447 1.447 0 0 1-1.453-1.454c0-.808.646-1.454 1.453-1.454h44.412c.808 0 1.454.646 1.454 1.454.162.807-.646 1.453-1.453 1.453zm0 12.92H14.373a1.447 1.447 0 0 1-1.453-1.454c0-.808.646-1.454 1.453-1.454h44.412c.808 0 1.454.646 1.454 1.454.162.646-.646 1.453-1.453 1.453zM39.89 60.562h-26c-.484 0-.807-.646-.807-1.454 0-.807.322-1.453.807-1.453h26c.485 0 .808.646.808 1.453.161.808-.323 1.454-.808 1.454z"/></symbol><symbol viewBox="0 0 43.937 35.69" id="quote" xmlns="http://www.w3.org/2000/svg"><path data-name="“" d="M34.856 35.7a8.949 8.949 0 0 0 9.068-9.06 8.643 8.643 0 0 0-2.621-6.59 9.043 9.043 0 0 0-6.447-2.48 8.058 8.058 0 0 0-5.243 1.84 9.431 9.431 0 0 1-.425-2.98 12.823 12.823 0 0 1 3.188-8.07 19.12 19.12 0 0 1 7.581-5.81L38.687 0a24.9 24.9 0 0 0-10.982 9.07 23.229 23.229 0 0 0-3.613 12.75 17.2 17.2 0 0 0 2.409 9.35 9.241 9.241 0 0 0 8.36 4.53zm-24.088 0a8.949 8.949 0 0 0 9.068-9.06 8.643 8.643 0 0 0-2.621-6.59 9.043 9.043 0 0 0-6.447-2.48 8.058 8.058 0 0 0-5.243 1.84 9.431 9.431 0 0 1-.425-2.98 12.823 12.823 0 0 1 3.188-8.07 19.12 19.12 0 0 1 7.581-5.81L14.594 0A24.9 24.9 0 0 0 3.612 9.07 23.229 23.229 0 0 0-.001 21.82a17.2 17.2 0 0 0 2.409 9.35 9.242 9.242 0 0 0 8.36 4.53z" fill-rule="evenodd"/></symbol><symbol viewBox="0 0 512 512" id="repeat" xmlns="http://www.w3.org/2000/svg"><path d="M69.816 256H0l93.096 93.096L186.2 256h-69.816c.224-77.016 62.6-139.4 139.616-139.632 22.672.432 44.952 6 65.16 16.296l34.896-34.896A207.988 207.988 0 0 0 256 69.832C153.296 70.112 70.104 153.296 69.816 256zm325.8 0c-.224 77.016-62.6 139.4-139.616 139.632-22.672-.432-44.952-6-65.16-16.296l-34.896 34.896A207.988 207.988 0 0 0 256 442.168c102.696-.296 185.88-83.472 186.184-186.168H512l-93.096-93.096L325.8 256h69.816z"/></symbol><symbol viewBox="0 0 32.032 35.66" id="rouble" xmlns="http://www.w3.org/2000/svg"><path data-name="₽" d="M-.006 20.73h5.3v4.22h-5.3v3.98h5.3v6.72h5.6v-6.72h13.909v-3.98H10.894v-4.22h9.222c7.489 0 11.922-4.28 11.922-10.4 0-6.01-4.433-10.34-11.922-10.34H5.294v16.76h-5.3v3.98zm10.9-3.98V5.03h8.712c4.28 0 6.827 2.14 6.827 5.86 0 3.67-2.547 5.86-6.827 5.86h-8.712z" fill-rule="evenodd"/></symbol><symbol viewBox="0 0 319.681 319.681" id="stacked-layers" xmlns="http://www.w3.org/2000/svg"><path d="M159.84 195.66L0 100.178 159.84 4.684l159.841 95.488L159.84 195.66zM23.271 100.178l136.57 81.579 136.57-81.585L159.84 18.587 23.271 100.178z"/><path d="M159.84 255.328L8.574 164.966l6.122-10.245 145.144 86.705 145.145-86.705 6.122 10.245z"/><path d="M159.84 314.997L8.574 224.635l6.122-10.245 145.144 86.704 145.145-86.704 6.122 10.245z"/></symbol><symbol viewBox="0 0 300 261.2" id="telegram" xmlns="http://www.w3.org/2000/svg"><path d="M5.299 125.244l69.126 25.8 26.756 86.047c1.712 5.511 8.45 7.548 12.924 3.891l38.532-31.412a11.496 11.496 0 0 1 14.013-.39l69.498 50.456c4.785 3.478 11.564.856 12.764-4.926l50.91-244.89c1.31-6.317-4.895-11.586-10.91-9.26L5.219 110.001c-7.001 2.7-6.94 12.612.08 15.243zm91.57 12.066l135.098-83.207c2.428-1.49 4.926 1.792 2.84 3.726L123.314 161.47a23.112 23.112 0 0 0-7.163 13.83l-3.798 28.145c-.503 3.758-5.782 4.131-6.82.494l-14.606-51.325c-1.673-5.854.765-12.107 5.943-15.303z"/></symbol><symbol viewBox="0 0 457.6 459.2" id="telephone" xmlns="http://www.w3.org/2000/svg"><path d="M345.2 459c2.2.1 4.3.2 6.5.2 23.5 0 43.1-8.5 58.5-25.2l.4-.4c5.5-6.6 11.7-12.6 18.3-18.9 4.5-4.3 9.1-8.7 13.4-13.3 20.5-21.4 20.4-48.5-.2-69.1l-57-57c-9.8-10.2-21.5-15.6-33.9-15.6-12.3 0-24.1 5.3-34.2 15.4l-33.7 33.7c-3-1.7-6.1-3.2-9.1-4.7-3.8-1.9-7.3-3.7-10.4-5.6-30.9-19.6-58.9-45.2-85.7-78.1-13.5-17-22.4-31.2-28.7-45.8 8.8-8 17-16.3 24.9-24.4 2.9-2.9 5.8-5.9 8.8-8.9 21.4-21.4 21.4-47.9 0-69.2l-28.3-28.3c-3.3-3.3-6.5-6.6-9.7-9.8-6.3-6.4-12.8-13.1-19.3-19.1C116 5.1 104.4 0 92.1 0c-12.2 0-24 5.1-34.2 14.9L22.4 50.3C9.4 63.3 2 79.1.4 97.4c-1.8 22.8 2.4 47 13.2 76.2 16.7 45.1 41.8 87 79 131.8 45.3 54 99.7 96.7 161.9 126.8 23.7 11.3 55.4 24.5 90.7 26.8zM111.5 289.7c-35.4-42.6-59.1-82.2-74.8-124.6C27 139 23.4 118.7 24.9 99.4c1.1-12.5 5.9-22.9 14.9-31.8l35.3-35.3c5.4-5.2 11.3-7.9 17.1-7.9 5.7 0 11.3 2.7 16.7 8 6.3 5.9 12.4 12.1 18.8 18.6 3.2 3.3 6.5 6.7 9.9 10l28.3 28.3c11.6 11.6 11.6 23 0 34.6-3 3-6 6-8.9 9-8.8 8.9-17 17.3-26.1 25.4l-.5.5c-8.1 8.1-6.9 15.9-4.9 21.7.1.3.2.5.3.8 7.3 17.6 17.6 34.3 33.4 54.3 28.5 35.1 58.5 62.4 91.7 83.5 4.1 2.6 8.4 4.8 12.6 6.9 3.8 1.9 7.3 3.7 10.4 5.6.4.2.7.4 1.1.6 3.2 1.6 6.3 2.4 9.5 2.4 7.9 0 12.9-5 14.5-6.7l35.5-35.5c5.4-5.4 11.2-8.2 16.9-8.2 7 0 12.7 4.4 16.4 8.2l57.2 57.2c14 14 7.6 26.6-.3 34.9-4 4.3-8.2 8.3-12.6 12.6-6.7 6.4-13.6 13.1-19.9 20.6-10.8 11.6-23.6 17-40.3 17-1.6 0-3.3-.1-4.9-.2-31.1-2-59.9-14.1-81.6-24.4-59.2-28.5-110.9-69-153.9-120.4z"/></symbol><symbol viewBox="0 0 94 116" id="user" xmlns="http://www.w3.org/2000/svg"><path d="M84.946 115.845H8.872c-4.732 0-8.372-3.822-8.372-8.372V95.279c0-19.655 13.65-34.397 31.85-34.397.363 0 .727.182.91.364 0 0 5.823 4.732 13.649 4.732 7.28 0 13.832-4.732 13.832-4.732a1.39 1.39 0 0 1 .91-.364c18.2 0 31.849 14.742 31.849 34.397v12.194c0 4.55-3.822 8.372-8.554 8.372zM31.803 63.794c-16.38.182-28.391 13.285-28.391 31.303v12.194c0 2.912 2.366 5.46 5.46 5.46h76.074c2.912 0 5.46-2.366 5.46-5.46V95.097c0-18.017-11.83-31.121-28.391-31.303-1.638 1.092-8.008 5.096-15.106 5.096-7.826 0-13.468-3.822-15.106-5.096z"/><path d="M54.553 94.915c-.728 0-1.274-.546-1.456-1.092l-3.458-15.47h-4.913l-3.276 15.47c-.182.728-.91 1.274-1.82 1.092-.728-.182-1.274-.91-1.092-1.82l3.458-16.743c.182-.728.728-1.274 1.456-1.274h7.28c.727 0 1.273.546 1.455 1.092l3.64 16.743c.182.728-.364 1.638-1.092 1.82 0 .182-.182.182-.182.182z"/><path d="M47.273 103.287c-.546 0-1.092-.364-1.274-.728-.364-.728-.182-1.638.546-2.002 9.646-5.278 19.656-35.49 19.837-35.853.182-.728 1.093-1.274 1.82-.91.728.182 1.274 1.092.91 1.82-.364 1.274-10.555 31.667-21.111 37.491-.364.182-.546.182-.728.182z"/><path d="M47.273 103.287c-.182 0-.546 0-.728-.182-10.556-5.824-20.748-36.217-21.112-37.491-.182-.728.182-1.638.91-1.82.728-.182 1.638.182 1.82.91.182.364 10.192 30.575 19.838 35.853.728.364.91 1.274.546 2.002-.364.546-.91.728-1.274.728zM63.107 77.08h-.364c-12.74-3.64-15.834-8.19-16.198-8.736-.364-.728-.182-1.638.546-2.002.728-.364 1.638-.182 2.002.364 0 .182 3.094 4.186 14.56 7.462.728.182 1.274 1.092 1.092 1.82-.364.546-.91 1.092-1.638 1.092z"/><path d="M51.095 78.171c-.182 0-.546 0-.728-.181-.728-.364-.91-1.274-.546-2.002l2.548-4.368c.364-.728 1.274-.91 2.002-.546.728.364.91 1.274.546 2.002l-2.548 4.368c-.364.545-.728.727-1.274.727zM31.076 77.08c-.728 0-1.274-.365-1.456-1.093-.182-.728.182-1.638 1.092-1.82 11.647-3.276 14.377-7.461 14.56-7.461.545-.728 1.455-.91 2.001-.364.728.364.91 1.274.364 2.002-.364.546-3.458 5.096-16.197 8.735h-.364z"/><path d="M43.269 78.171c-.546 0-1.092-.182-1.274-.728l-2.548-4.367c-.364-.728-.182-1.638.546-2.002.728-.364 1.638-.182 2.002.546l2.548 4.367c.364.729.181 1.639-.547 2.003-.181.181-.545.181-.727.181zm17.836-14.377c-.728 0-1.274-.364-1.456-1.092L56.737 51.6c-.182-.728.182-1.638 1.092-1.82.728-.182 1.638.182 1.82 1.092l2.912 11.102c.182.728-.182 1.638-1.092 1.82h-.364zm-28.573 0h-.364c-.728-.182-1.274-1.092-1.092-1.82l2.912-11.102c.182-.728 1.092-1.274 1.82-1.092.728.182 1.274 1.092 1.092 1.82l-2.912 11.102c-.182.728-.728 1.092-1.456 1.092z"/><path d="M47.091 58.698c-10.556 0-19.11-13.468-19.11-30.212v-.727c0-.91.728-1.456 1.456-1.456s1.456.727 1.456 1.456v.727c0 14.924 7.28 27.118 16.016 27.118 8.918 0 16.016-12.194 16.016-27.117v-1.638c0-.91.728-1.456 1.456-1.456.91 0 1.456.727 1.456 1.456v1.637c.182 16.744-8.372 30.212-18.746 30.212z"/><path d="M65.836 31.034c-.546 0-1.092-.364-1.456-.91-2.366-5.823-4.732-6.005-13.103-5.46-6.188.364-7.826-.181-13.832-3.093l-.182-.182a1.555 1.555 0 0 0-1.274 0c-2.366.91-4.914 5.642-6.006 8.553-.182.546-.91.91-1.456.91-.728 0-1.274-.546-1.456-1.091C23.613 18.294 25.07 9.922 31.44 4.645l.91 1.092-.91-1.092C35.625 1.187 40.357.277 44.725.095 52.187-.45 57.828 1.37 62.378 5.191c9.828 8.554 4.732 24.024 4.55 24.57.182.91-.364 1.273-1.092 1.273zm-9.828-9.463c4.186 0 7.098.728 9.282 3.822.728-4.732.91-12.74-4.55-17.654-3.822-3.458-8.917-4.914-15.47-4.368-4.55.364-8.19 1.092-11.647 3.822-4.55 3.822-6.006 9.828-4.368 18.018 1.274-2.366 3.276-5.278 5.824-6.37 1.274-.546 2.548-.546 3.64 0l.182.182c6.006 2.73 6.916 3.094 12.376 2.73 1.82-.182 3.276-.182 4.731-.182z"/></symbol><symbol viewBox="0 0 36 21" id="vk" xmlns="http://www.w3.org/2000/svg"><path d="M20.9 18.4c.1-1.4.7-3.7 2.3-2.4 1 .7 1.7 1.8 2.6 2.7.9.9 1.9 1.7 3.8 1.7 1.1 0 4.4.1 5.2-.2 2.5-.9-2-5.1-3.1-6.1-.5-.4-1-1-1.4-1.4-.5-.5-.7-1-.3-1.9l1.7-2.4c.5-.6 2.4-3.2 2.8-4 .7-1.1 2-3.1.3-3.5-1-.2-4.1 0-5.3 0-2.4 0-1.9-.2-3 2.4-.8 1.8-3.2 6-4.4 6.5-2.3.9-.5-7.6-1.5-9.1-.6-.8-3.4-.7-4.7-.7-1.5 0-3.6.1-4 1.3.1.1 0 0 .2.1s.5.1.8.3c.3.1.5.4.7.7.7 1.1.6 5.9 0 7.1-1.1 2.2-4.3-3.9-4.9-5-.8-1.6-1.1-3.1-2-3.5C6.1.8 2.4.9 1.4.9.5 1-.3 1.1.1 2.2c.2.5.6 1.3.8 1.8 1.5 3.4 3.9 7.5 6 10.3 2.4 3.2 5.9 6 10.4 6 3.2 0 3.4.2 3.6-1.9" fill-rule="evenodd" clip-rule="evenodd"/></symbol><symbol viewBox="0 0 176 124" id="youtube" xmlns="http://www.w3.org/2000/svg"><path d="M172.3 19.4c-2-7.6-8-13.6-15.6-15.7C143 0 88 0 88 0S33 0 19.2 3.7c-7.6 2-13.5 8-15.6 15.7C0 33.2 0 62 0 62s0 28.8 3.7 42.6c2 7.6 8 13.6 15.6 15.7C33 124 88 124 88 124s55 0 68.8-3.7c7.6-2 13.5-8 15.6-15.7C176 90.8 176 62 176 62s0-28.8-3.7-42.6zM70 88.2V35.8L116 62z"/></symbol></svg>