<svg width="51" height="86" fill="none" xmlns="http://www.w3.org/2000/svg"><path d="M32.687 7.806H19.322a2.8 2.8 0 0 1-2.51-1.578l-2.03-4.133h22.444l-2.03 4.133a2.8 2.8 0 0 1-2.51 1.579zm5.942 49.979h1.403c2.324 0 4.208 1.918 4.208 4.284v11.424H7.769V62.069c0-2.366 1.884-4.284 4.208-4.284h26.652zM21.796 42.077h8.416v14.28h-8.416zM13.38 29.226V40.65c-3.1 0-5.611-2.558-5.611-5.712 0-3.155 2.512-5.712 5.61-5.712zM38.629 40.65V29.225c3.099 0 5.61 2.557 5.61 5.712 0 3.154-2.511 5.711-5.61 5.711z" fill="#E7EBF4"/><path d="M16.185 24.942h19.638c1.55 0 2.806 1.279 2.806 2.856v14.28c0 1.577-1.256 2.855-2.806 2.855H16.185c-1.55 0-2.806-1.278-2.806-2.855v-14.28c0-1.577 1.257-2.856 2.806-2.856z" fill="#B2CDF8"/><path d="M16.185 24.942h15.43c1.55 0 2.806 1.279 2.806 2.856v14.28c0 1.577-1.256 2.855-2.806 2.855h-15.43c-1.55 0-2.806-1.278-2.806-2.855v-14.28c0-1.577 1.257-2.856 2.806-2.856zm7.014-5.712c1.55 0 2.805-1.278 2.805-2.856 0-1.577-1.256-2.856-2.805-2.856-1.55 0-2.806 1.279-2.806 2.856 0 1.578 1.256 2.856 2.806 2.856z" fill="#E7EBF4"/><path d="M38.629 56.357v17.135h-25.25V56.357c.005-1.575 1.258-2.851 2.806-2.856h19.639c1.547.005 2.8 1.28 2.805 2.856z" fill="#B2CDF8"/><path d="M34.42 56.357v17.135H13.38V56.357c.004-1.575 1.257-2.851 2.805-2.856h15.43c1.548.005 2.801 1.28 2.806 2.856z" fill="#E7EBF4"/><path d="M33.018 60.64v12.852H18.99V60.641c0-.789.628-1.428 1.402-1.428h11.222c.775 0 1.403.64 1.403 1.428z" fill="#E7EBF4"/><path d="M7.769 84.916h4.208a5.56 5.56 0 0 1-3.968-1.672 5.763 5.763 0 0 1-1.643-4.04V7.807c0-1.516.59-2.969 1.643-4.04a5.56 5.56 0 0 1 3.968-1.672H7.769A5.56 5.56 0 0 0 3.8 3.767a5.763 5.763 0 0 0-1.643 4.04v71.397c0 1.515.591 2.969 1.643 4.04a5.56 5.56 0 0 0 3.969 1.672z" fill="#fff"/><path fill-rule="evenodd" clip-rule="evenodd" d="M19 60l13-1 1 13-6 1h-8V60z" fill="#41A8D6"/><path d="M7.135 85.838c-2.96-.004-5.606-1.876-6.627-4.69a7.775 7.775 0 0 1-.437-2.775V7.166l.026-.57a7.14 7.14 0 0 1 1.731-4.151A7.06 7.06 0 0 1 5.667.162 9.762 9.762 0 0 1 7.763.005h34.424l1.842.007a6.804 6.804 0 0 1 2.217.414 7.101 7.101 0 0 1 3.51 2.772 7.42 7.42 0 0 1 1.182 4.273v69.703c-.008.646.018 1.143-.018 1.913-.037.766-.2 1.52-.481 2.23a7.116 7.116 0 0 1-2.86 3.451 6.72 6.72 0 0 1-2.085.874c-.697.154-1.41.22-2.123.196H7.135v-2.862h36.236c.495.026.991-.014 1.476-.12.442-.1.864-.276 1.247-.522a4.263 4.263 0 0 0 1.717-2.07c.17-.426.267-.878.287-1.336.028-.452.008-1.179.014-1.755V7.471a4.482 4.482 0 0 0-.709-2.687 4.27 4.27 0 0 0-2.106-1.663 4.01 4.01 0 0 0-1.33-.248l-1.78-.007H9.575a24.726 24.726 0 0 0-3.323.095 4.239 4.239 0 0 0-2.3 1.372A4.255 4.255 0 0 0 2.915 6.82l-.019.347v71.206a4.41 4.41 0 0 0 1.165 3.259 4.192 4.192 0 0 0 3.074 1.345v2.86z" fill="#fff"/><path d="M33.854 38.63c0-.79-.633-1.43-1.413-1.43H18.568c-.78 0-1.413.64-1.413 1.43 0 .79.632 1.43 1.413 1.43H32.44c.78 0 1.413-.64 1.413-1.43z" fill="#2059F5"/><path fill-rule="evenodd" clip-rule="evenodd" d="M5.722 61.519c.004-3.16 2.532-5.719 5.652-5.723.003-2.369 1.9-4.288 4.24-4.291h4.499a4.285 4.285 0 0 1-.26-1.43v-2.862c.004-.488.092-.972.26-1.43h-4.5c-2.34-.003-4.236-1.923-4.239-4.292v-.145c-3.29-.68-5.652-3.609-5.652-7.008s2.363-6.328 5.652-7.008v-.144c.003-2.37 1.9-4.29 4.24-4.292h9.305l2.544-2.576-2.107-1.277a4.273 4.273 0 0 1-5.57-.08 4.405 4.405 0 0 1-.847-5.574 4.287 4.287 0 0 1 5.288-1.772c1.954.796 3.055 2.903 2.605 4.986l3.637 2.205a1.44 1.44 0 0 1 .273 2.239l-1.827 1.85h6.48c2.34.002 4.237 1.922 4.24 4.29v.145c3.288.68 5.651 3.61 5.651 7.009 0 3.398-2.363 6.328-5.652 7.008v.144c-.002 2.37-1.899 4.29-4.239 4.292h-4.5c.168.458.256.942.261 1.43v2.861a4.282 4.282 0 0 1-.26 1.43h4.5c2.34.003 4.236 1.923 4.238 4.292 3.12.004 5.648 2.564 5.652 5.723v11.444c0 .79-.633 1.43-1.413 1.43H7.135c-.78 0-1.413-.64-1.413-1.43V61.519zM21.265 15.74c0 .79.633 1.43 1.413 1.43a1.424 1.424 0 0 0 1.413-1.43c0-.79-.632-1.43-1.413-1.43-.78 0-1.413.64-1.413 1.43zM8.548 61.52c.002-1.58 1.266-2.86 2.826-2.861v12.874H8.548V61.52zm11.304-1.431v11.444h11.304V60.088H19.852zm22.608 1.43v10.014h-2.826V58.658c1.56.001 2.825 1.281 2.826 2.86zm-5.652 10.014V55.796a1.424 1.424 0 0 0-1.413-1.43H15.613c-.78 0-1.412.64-1.413 1.43v15.736h2.826V60.088c.002-1.58 1.266-2.86 2.826-2.861h11.304c1.56.002 2.825 1.282 2.826 2.861v11.444h2.826zm5.652-37.194a4.296 4.296 0 0 1-2.826 4.047v-8.093a4.297 4.297 0 0 1 2.826 4.046zm-31.086-4.046a4.296 4.296 0 0 0-2.826 4.046 4.296 4.296 0 0 0 2.826 4.047v-8.093zm2.826 11.2V27.185c.001-.79.633-1.43 1.413-1.43h19.782c.78 0 1.412.64 1.413 1.43V41.49a1.424 1.424 0 0 1-1.413 1.43H15.613a1.424 1.424 0 0 1-1.413-1.43zm8.478 5.721v2.861c.001.79.633 1.43 1.413 1.43h2.826a1.424 1.424 0 0 0 1.413-1.43v-2.86a1.424 1.424 0 0 0-1.413-1.431h-2.826c-.78 0-1.412.64-1.413 1.43z" fill="#2059F5"/><path d="M19.852 34.338c.78 0 1.413-.64 1.413-1.43v-2.861c0-.79-.633-1.43-1.413-1.43s-1.413.64-1.413 1.43v2.86c0 .79.633 1.431 1.413 1.431zm11.304 0c.78 0 1.413-.64 1.413-1.43v-2.861c0-.79-.633-1.43-1.413-1.43s-1.413.64-1.413 1.43v2.86c0 .79.633 1.431 1.413 1.431z" fill="#2059F5"/><path fill-rule="evenodd" clip-rule="evenodd" d="M43.371 85.838H7.135a7.069 7.069 0 0 1-5.941-3.29 1.341 1.341 0 0 1-.226-1.18 1.32 1.32 0 0 1 .806-.881A1.636 1.636 0 0 1 3.57 81a4.243 4.243 0 0 0 3.564 1.977H43.37c.495.025.992-.015 1.476-.12a3.9 3.9 0 0 0 1.247-.523 4.263 4.263 0 0 0 1.718-2.07c.17-.426.266-.878.287-1.336.018-.292.015-.699.013-1.106 0-.222-.002-.445 0-.648V7.47a4.48 4.48 0 0 0-.709-2.687 4.27 4.27 0 0 0-2.106-1.663 4.012 4.012 0 0 0-1.33-.248l-1.78-.006h-4.505l-1.655 3.35a4.211 4.211 0 0 1-3.79 2.372H18.772a4.211 4.211 0 0 1-3.791-2.372l-1.655-3.35H9.575a24.73 24.73 0 0 0-3.323.094 4.238 4.238 0 0 0-2.3 1.372A4.252 4.252 0 0 0 2.915 6.82l-.019.347v63.338c0 .79-.632 1.43-1.413 1.43a1.42 1.42 0 0 1-1.412-1.43V7.167l.026-.57a7.138 7.138 0 0 1 1.731-4.152A7.06 7.06 0 0 1 5.667.162 9.762 9.762 0 0 1 7.763.005h34.424l1.842.007a6.81 6.81 0 0 1 2.217.414 7.102 7.102 0 0 1 3.51 2.772 7.42 7.42 0 0 1 1.182 4.273v69.703c-.003.229-.002.439 0 .65.003.383.005.766-.018 1.263-.038.766-.2 1.52-.482 2.23a7.117 7.117 0 0 1-2.86 3.451 6.718 6.718 0 0 1-2.084.874c-.697.154-1.41.22-2.123.196zM32.236 5.728a1.404 1.404 0 0 0 1.263-.791l1.023-2.07H16.487l1.022 2.07c.238.486.728.792 1.264.79h13.463z" fill="#2059F5"/><path d="M1.483 77.657a1.474 1.474 0 0 0 1.004-.415c.342-.334.493-.823.399-1.295a1.406 1.406 0 0 0-.865-1.036 1.398 1.398 0 0 0-.538-.115 1.419 1.419 0 0 0-1.304.885c-.22.535-.1 1.15.301 1.561l.212.172c.079.054.164.098.255.13.08.04.166.07.254.084.094.017.188.026.282.03zm15.543-.403c-.78 0-1.413.64-1.413 1.431 0 .79.633 1.43 1.413 1.43h16.956c.78 0 1.413-.64 1.413-1.43 0-.79-.632-1.43-1.413-1.43H17.026z" fill="#2059F5"/></svg>