<svg xmlns="http://www.w3.org/2000/svg" width="70" height="70" fill="none"><path fill-rule="evenodd" clip-rule="evenodd" d="M62.696 62.314l-1.366-5.45c.406-.333.8-.67 1.153-1.015.33-.327 3.225-3.275 3.225-5.928 0-.223.01-.49.028-.78a2.846 2.846 0 0 0 1.868-1.887c.068-.264.117-.533.146-.803a3.89 3.89 0 0 1 .075-.453 2.47 2.47 0 0 1 .474-.81c.155-.21.31-.421.452-.653.938-1.64.518-3.7-.994-4.87.145-2.408.208-8.79-2.876-11.784-3.674-3.57-10.123-1.092-11.741-.385-3.635-.565-6.525.076-8.594 1.916-3.276 2.91-3.425 7.96-3.302 10.253a3.857 3.857 0 0 0-1.343 1.957 3.757 3.757 0 0 0 .38 2.945c.149.24.313.47.492.69.18.195.322.418.42.661.04.169.065.336.088.499l.007.048c.02 1.108.688 2.108 1.72 2.579.086.034.17.065.256.094.018.291.028.56.028.783 0 2.653 2.896 5.601 3.231 5.934.349.341.742.677 1.147 1.009l-1.366 5.45c-1.498.904-6.024 3.768-7.178 6.01a1.13 1.13 0 0 0 .052 1.127c.218.34.601.549 1.014.549h28.616a1.2 1.2 0 0 0 1.014-.55 1.13 1.13 0 0 0 .052-1.126c-1.154-2.243-5.68-5.106-7.178-6.01zM46.155 31.12c1.562-1.39 3.897-1.82 6.94-1.282a.13.13 0 0 0 .031 0l.028.001c.05.014.102.024.154.03h.036c.038-.005.076-.013.114-.022a.376.376 0 0 0 .056-.011c.15-.02.293-.07.422-.145.799-.358 6.557-2.797 9.26-.173a8.869 8.869 0 0 1 2.002 5.006c-1.581.633-4.568 1.5-6.744.797a17.985 17.985 0 0 1-2.538-1.053 11.672 11.672 0 0 0-6.185-1.323c-2.297.073-4.446 1.117-5.883 2.858a8.071 8.071 0 0 1 2.307-4.683zm-.592 16.912c.072.694.113 1.381.113 1.889 0 1.159 1.311 3.085 2.546 4.308a24.752 24.752 0 0 0 1.896 1.593 25.584 25.584 0 0 1 2.134 1.81 2.51 2.51 0 0 0 1.492.788h1.544a2.555 2.555 0 0 0 1.464-.792 25.607 25.607 0 0 1 2.131-1.806 24.743 24.743 0 0 0 1.902-1.599c1.228-1.218 2.54-3.143 2.54-4.302 0-.508.04-1.196.112-1.889.073-.605.61-1.056 1.237-1.04a.643.643 0 0 0 .63-.343c.038-.16.065-.322.08-.486.028-.24.07-.48.124-.715a4.48 4.48 0 0 1 .86-1.62l.034-.046c.101-.135.204-.273.295-.423a1.49 1.49 0 0 0 .088-1.17 1.544 1.544 0 0 0-.79-.885l-.015-.012a1.146 1.146 0 0 1-.234-.174 1.219 1.219 0 0 1-.132-.104 13.049 13.049 0 0 1-.224-.385 1.181 1.181 0 0 1-.024-.162 1.099 1.099 0 0 1-.034-.295v-.009c.09-1.076.116-2.157.075-3.236-1.845.654-5.009 1.467-7.707.59-.98-.32-1.933-.713-2.85-1.177a9.347 9.347 0 0 0-5.12-1.08c-3.916 0-6.024 5.011-6.046 5.062-.005.013-.013.024-.02.035a.22.22 0 0 0-.019.03 1.08 1.08 0 0 1-.009.06.543.543 0 0 1-.135.374c-.031.067-.069.13-.113.19a1.23 1.23 0 0 1-.144.115 1.143 1.143 0 0 1-.23.172 1.553 1.553 0 0 0-.818.952c-.11.389-.057.805.148 1.156.099.155.207.305.325.447.39.442.678.961.842 1.522.06.255.106.513.14.773.095.673.125.687.329.78.111.04.23.062.348.064.307-.024.61.073.843.268a1.1 1.1 0 0 1 .392.772zm14.67 14.246a21.636 21.636 0 0 1-11.467 0l.946-3.772c.303.254.594.506.84.75a4.774 4.774 0 0 0 3.16 1.48h1.575a4.78 4.78 0 0 0 3.164-1.483c.245-.244.532-.495.836-.749l.946 3.774zm-12.735 2.05a36.815 36.815 0 0 0-4.734 3.355h23.471a36.84 36.84 0 0 0-4.733-3.356 24.079 24.079 0 0 1-14.004 0z" fill="#2059f5"/><path d="M14 21c.265 0 .52-.131.707-.366.188-.234.293-.553.293-.884v-2.5c0-.69-.448-1.25-1-1.25s-1 .56-1 1.25v2.5c0 .332.105.65.293.884.187.235.442.366.707.366zm10 0c.265 0 .52-.131.707-.366.188-.234.293-.553.293-.884v-2.5c0-.69-.448-1.25-1-1.25s-1 .56-1 1.25v2.5c0 .332.105.65.293.884.187.235.442.366.707.366z" fill="#2059f5"/><path fill-rule="evenodd" clip-rule="evenodd" d="M18.502 30c-1.73 0-3.36-.864-4.4-2.332l-.66-.936a2.435 2.435 0 0 1-.207-2.442c.37-.793 1.133-1.293 1.967-1.29h6.6c.832 0 1.593.5 1.966 1.29.372.79.292 1.736-.207 2.442l-.659.935C21.863 29.135 20.233 30 18.502 30zm3.298-4.666zm-.658.933l.658-.933h-6.598l.66.934c.624.88 1.602 1.399 2.64 1.399 1.039 0 2.017-.52 2.64-1.4z" fill="#2059f5"/><path fill-rule="evenodd" clip-rule="evenodd" d="M10.406 38.5V35H8.094c-1.915-.002-3.467-1.568-3.469-3.5v-2.451C1.933 28.494 0 26.105 0 23.333c0-2.771 1.933-5.16 4.625-5.715v-2.451c.002-1.932 1.554-3.498 3.469-3.5h7.709l3.482-2.637-1.247-2.1a3.457 3.457 0 0 1-3.662-1.62 3.525 3.525 0 0 1 .28-4.023A3.45 3.45 0 0 1 18.509.203 3.498 3.498 0 0 1 20.813 3.5a3.485 3.485 0 0 1-.802 2.21l1.794 3.024a1.173 1.173 0 0 1-.3 1.533l-1.85 1.4h9.251c1.915.002 3.467 1.568 3.469 3.5v2.451c2.692.555 4.625 2.944 4.625 5.715 0 2.772-1.933 5.161-4.625 5.716V31.5c-.002 1.932-1.554 3.498-3.469 3.5h-2.312v3.5c-.002 1.932-1.554 3.498-3.469 3.5h-9.25c-1.915-.002-3.467-1.568-3.469-3.5zm24.282-15.167a3.5 3.5 0 0 0-2.313-3.3v6.601a3.5 3.5 0 0 0 2.313-3.3zM17.343 4.667A1.161 1.161 0 0 1 16.187 3.5c0-.644.518-1.166 1.157-1.166.638 0 1.156.522 1.156 1.166 0 .644-.518 1.166-1.156 1.167zM2.313 23.333a3.5 3.5 0 0 0 2.312 3.301v-6.601a3.5 3.5 0 0 0-2.312 3.3zM24.28 38.5c0 .644-.518 1.166-1.156 1.167h-9.25a1.162 1.162 0 0 1-1.156-1.167V35H24.28v3.5zM6.937 15.167V31.5c0 .644.518 1.166 1.157 1.167h20.812c.639 0 1.156-.523 1.156-1.167V15.167c0-.644-.518-1.166-1.156-1.167H8.094c-.639 0-1.156.523-1.157 1.167zM45.141 0H66.86c1.726-.006 3.13 1.404 3.141 3.152v12.605c-.01 1.748-1.415 3.158-3.141 3.152H51.765l-7.84 6.806c-.345.3-.832.37-1.246.177A1.182 1.182 0 0 1 42 24.818V3.152C42.01 1.404 43.415-.006 45.141 0zM66.86 16.546a.8.8 0 0 0 .808-.789V3.152a.799.799 0 0 0-.808-.788H45.14a.799.799 0 0 0-.808.788v19.097l6.242-5.418c.21-.185.48-.286.758-.285H66.86z" fill="#2059f5"/><path d="M56.9 7h-8.8c-.608 0-1.1.448-1.1 1s.492 1 1.1 1h8.8c.608 0 1.1-.448 1.1-1s-.493-1-1.1-1zm6.85 0h-2.5C60.56 7 60 7.448 60 8s.56 1 1.25 1h2.5C64.44 9 65 8.552 65 8s-.56-1-1.25-1zm-7.04 4.292a.977.977 0 0 0-.16-.12.547.547 0 0 0-.17-.09.625.625 0 0 0-.19-.06.877.877 0 0 0-.57.06.747.747 0 0 0-.18.09 1.61 1.61 0 0 0-.15.12 1.133 1.133 0 0 0-.22.33c-.145.375-.06.8.22 1.088.097.089.209.16.33.21a.942.942 0 0 0 .76 0c.122-.048.234-.12.33-.21a.987.987 0 0 0 .21-1.088.93.93 0 0 0-.21-.33zM52.833 11h-4.666c-.645 0-1.167.448-1.167 1s.522 1 1.167 1h4.666c.645 0 1.167-.448 1.167-1s-.522-1-1.167-1z" fill="#2059f5"/><path fill-rule="evenodd" clip-rule="evenodd" d="M39.828 50c.474 0 .901.274 1.083.694.181.42.08.905-.255 1.226l-5.518 5.296V65c-.01 1.664-1.422 3.006-3.157 3H10.157C8.422 68.006 7.01 66.664 7 65V53c.01-1.664 1.422-3.006 3.157-3h29.67zm-7.035 6.75c0-.298.124-.584.344-.795l3.86-3.705h-26.84c-.44-.008-.803.328-.812.75v12c.009.422.372.757.812.75h21.825c.44.007.803-.328.811-.75v-8.25z" fill="#2059f5"/><path d="M19.1 64h8.8c.608 0 1.1-.448 1.1-1s-.493-1-1.1-1h-8.8c-.608 0-1.1.448-1.1 1s.492 1 1.1 1zm-6.85 0h2.5c.69 0 1.25-.448 1.25-1s-.56-1-1.25-1h-2.5c-.69 0-1.25.448-1.25 1s.56 1 1.25 1zM19 59c.13-.002.26-.029.38-.08.12-.05.233-.122.33-.21a.99.99 0 0 0 .21-1.09 1.15 1.15 0 0 0-.21-.33 1.019 1.019 0 0 0-.91-.27.644.644 0 0 0-.18.06.742.742 0 0 0-.18.09 1.583 1.583 0 0 0-.15.12c-.088.097-.16.209-.21.33A.99.99 0 0 0 19 59zm5.167 0h4.666c.645 0 1.167-.448 1.167-1s-.522-1-1.167-1h-4.666c-.645 0-1.167.448-1.167 1s.522 1 1.167 1z" fill="#2059f5"/></svg>