<svg xmlns="http://www.w3.org/2000/svg" width="262" height="132" fill="none"><rect width="262" height="132" rx="5" fill="#2059f5"/><mask id="a" maskUnits="userSpaceOnUse" x="6" y="8" width="262" height="132"><rect x="6" y="8" width="262" height="132" rx="5" fill="#fff"/></mask><g mask="url(#a)" transform="translate(-6 -8)" stroke="#fff" stroke-width="2"><rect x="55" y="28" width="9" height="9" rx="1" opacity=".2"/><rect x="34.047" y="108.406" width="5" height="42" rx="2.5" transform="rotate(51 34.047 108.406)" opacity=".087"/><rect x="34.047" y="125.406" width="5" height="42" rx="2.5" transform="rotate(51 34.047 125.406)" opacity=".087"/><rect x="283.047" y="-4.594" width="5" height="42" rx="2.5" transform="rotate(51 283.047 -4.594)" opacity=".087"/><rect x="244.047" y="92.407" width="5" height="42" rx="2.5" transform="rotate(51 244.047 92.406)" opacity=".087"/><path d="M212.5 33l5.231 3.8-1.998 6.15h-6.466l-1.998-6.15z" clip-rule="evenodd" opacity=".182"/><path d="M77.5 73l5.23 3.8-1.997 6.15h-6.466L72.27 76.8zM95 121a3 3 0 1 0 0-6 3 3 0 0 0 0 6z" clip-rule="evenodd" opacity=".285"/><rect x="203" y="93" width="3" height="14" rx="1.5" opacity=".195"/><path d="M180 65a5 5 0 1 0 0-10 5 5 0 0 0 0 10z" clip-rule="evenodd" opacity=".285"/></g></svg>