<svg width="106" height="87" fill="none" xmlns="http://www.w3.org/2000/svg"><path d="M94.647 86.142H11.389A11.306 11.306 0 0 1 .035 74.788V28.654A11.306 11.306 0 0 1 11.39 17.3h83.258A11.306 11.306 0 0 1 106 28.654v46.134c-.18 6.308-5.226 11.354-11.353 11.354zM11.208 20.364c-4.685 0-8.29 3.784-8.29 8.29v46.134c0 4.686 3.785 8.29 8.29 8.29h83.259c4.685 0 8.289-3.784 8.289-8.29V28.654c0-4.686-3.784-8.29-8.29-8.29H11.209z" fill="#222"/><path d="M73.021 20.364H32.834c-.901 0-1.442-.72-1.442-1.442v-8.11C31.392 4.867 36.258 0 42.205 0H63.65c5.947 0 10.813 4.866 10.813 10.813v8.11c0 .9-.72 1.441-1.442 1.441zm-38.745-2.883h37.123v-6.668c0-4.325-3.604-7.75-7.929-7.75H42.025c-4.325 0-7.93 3.605-7.93 7.75v6.668h.18z" fill="#222"/><path d="M63.29 20.364H42.745c-.9 0-1.441-.72-1.441-1.442v-5.586a4.462 4.462 0 0 1 4.505-4.506h14.417a4.462 4.462 0 0 1 4.505 4.506v5.586c0 .721-.72 1.442-1.441 1.442zM44.187 17.3h17.661v-4.144c0-.902-.72-1.622-1.622-1.622H45.81c-.901 0-1.622.72-1.622 1.622V17.3zm17.481 32.078c-.721 0-1.262-.54-1.442-1.08-.18-.722.36-1.623 1.081-1.803l42.53-10.272c.721-.18 1.622.36 1.802 1.081.181.72-.36 1.622-1.081 1.802l-42.53 10.272h-.36zm-17.661 0h-.36L1.116 39.106c-.722-.18-1.262-1.081-1.082-1.802.18-.72.901-1.261 1.802-1.081l42.53 10.272c.721.18 1.262 1.081 1.082 1.802-.18.54-.721 1.081-1.442 1.081z" fill="#222"/><path d="M58.965 54.605H46.89c-2.162 0-3.784-1.803-3.784-3.785v-5.947c0-2.163 1.802-3.784 3.784-3.784h12.075c2.162 0 3.784 1.802 3.784 3.784v5.947c0 2.163-1.622 3.785-3.784 3.785zM46.89 43.972c-.54 0-.9.36-.9.901v5.947c0 .54.36.901.9.901h12.075c.54 0 .9-.36.9-.901v-5.947c0-.54-.36-.901-.9-.901H46.89z" fill="#222"/></svg>