<svg xmlns="http://www.w3.org/2000/svg" width="1440" height="228.97"><path d="M-34.886 228.95h1548V8.55c-136.31 57.11-258.27 72.17-367.11 44.2-15.51-3.99-88.16-38.49-147.733-38.91-109.788-.78-170.814 93.3-267.8 64.37-17.886-5.33-47.608-17.5-84-9.13-28.824 6.64-34.979 22.41-63.738 29.31-13.89 3.33-39.72-.13-61.268 12.01-11.767 6.63-23.523 17.15-30.139 30.74-13.67 28.09-.862 62.45-3.953 63.42-5.48 1.72-33.89-106.8-90.914-116.26-24.968-4.14-40.274 13.52-66.7 13.93-43.061.67-71.57-33.1-97.83-53.8C172.655 1.69 83.059-10.39-34.883 8.55v220.4z" fill="#fff" fill-rule="evenodd"/></svg>