<svg xmlns="http://www.w3.org/2000/svg" width="1439.13" height="281.44"><path data-name="облака вектор" d="M-1 281.44h1440v-30c0-9.68-.01-24.16 0-29 .01-6.29.26-14.56 0-18-2.55-33.98-24.54-76.5-66-91-20.83-7.29-47.02-7.58-70 3-18.17 8.36-35.05 33.22-47 30-20.91-5.63-7.01-77.29-42-114-35.51-37.26-110.17-43.56-147-13-25.28 20.98-16.17 47.72-42 67-34.294 25.6-74.082-3.69-110 22-29.487 21.09-34.092 59.98-34 77 .179 33.26 21.26 61.69 18 64-3.638 2.58-37.421-38.4-64.015-60.6-34.258-28.61-73.218-47.95-89.477-51.79C681.922 122.01 648.1 155 591 148.44c-73.672-8.46-117.013-71.37-178-98-56.754-24.78-113.828-34.66-167-31-51.1 3.52-154.05 22.46-210 102-20.445 29.06-34.689 62.66-37 96-.634 9.15-.087 22.77 0 35 .069 9.66.068 19.25 0 29z" fill="#fff" fill-rule="evenodd"/></svg>