<svg width="121" height="84" fill="none" xmlns="http://www.w3.org/2000/svg"><path d="M61.167 79.412c-34.109 0-34.49-16.768-34.49-17.53V38.633c0-.953.762-1.524 1.525-1.524.762 0 1.524.762 1.524 1.524V61.88c0 .19.572 14.292 31.441 14.292 31.06 0 31.441-14.292 31.441-14.292V38.634c0-.953.762-1.524 1.524-1.524.763 0 1.525.762 1.525 1.524v23.247c0 .763-.381 17.531-34.49 17.531z" fill="#222"/><path d="M60.786 53.497c-.19 0-.381 0-.572-.19L.953 27.773C.38 27.583 0 27.01 0 26.248c0-.571.381-1.143.953-1.524L59.643.143c.38-.19.762-.19 1.143 0l59.261 25.534c.572.19.953.762.953 1.524 0 .572-.381 1.143-.953 1.525l-58.69 24.58c-.19.191-.38.191-.571.191zM5.526 26.44l55.26 23.819 54.688-22.866-55.26-23.82L5.526 26.44z" fill="#222"/><path d="M112.806 83.414H99.277c-.572 0-1.143-.381-1.334-.762-.19-.572-.381-1.144 0-1.525l6.479-11.623v-34.49l-39.444-5.717c-.953-.19-1.525-.953-1.334-1.715.19-.953.953-1.524 1.715-1.334l40.778 5.908c.762.19 1.334.762 1.334 1.524v35.824l6.669 11.814c.191.571.191 1.143 0 1.524-.381.19-.762.572-1.334.572zm-10.861-3.24h8.193l-4.001-7.24-4.192 7.24z" fill="#222"/><path d="M60.595 31.965c-3.43 0-6.288-2.287-6.288-5.145 0-2.858 2.858-5.145 6.288-5.145s6.288 2.287 6.288 5.145c0 2.858-2.858 5.145-6.288 5.145zm0-7.241c-1.715 0-3.239.953-3.239 2.096 0 1.143 1.524 2.096 3.24 2.096 1.714 0 3.239-.953 3.239-2.096-.19-1.143-1.525-2.096-3.24-2.096z" fill="#222"/></svg>