<svg width="651" height="554" fill="none" xmlns="http://www.w3.org/2000/svg"><path d="M567.7 96.5c0-6.8-5.1-12.4-11.5-12.4H95c-6.3 0-11.5 5.5-11.5 12.4v296.7h484.2V96.5z" fill="url(#paint0_linear)"/><path d="M103.2 105.3V372H548V105.3H103.2z" fill="#fff"/><path d="M548 105.3V372H103.2V105.3H548zm3.7-4H99.5V376h452.2V101.3z" fill="#DBE1F4"/><path d="M151.5 105.3h-48.3V372h48.3V105.3z" fill="#F5F7FB"/><path d="M612 409.8H39.1c-11.1 0-34.5-6.5-38.7-16.5h650.3c-4.2 9.9-27.5 16.5-38.7 16.5z" fill="url(#paint1_linear)"/><path d="M127.8 352.1c6.738 0 12.2-5.462 12.2-12.2 0-6.738-5.462-12.2-12.2-12.2-6.738 0-12.2 5.462-12.2 12.2 0 6.738 5.462 12.2 12.2 12.2zm0-39.1c6.738 0 12.2-5.462 12.2-12.2 0-6.738-5.462-12.2-12.2-12.2-6.738 0-12.2 5.462-12.2 12.2 0 6.738 5.462 12.2 12.2 12.2zm0-39.2c6.738 0 12.2-5.462 12.2-12.2 0-6.738-5.462-12.2-12.2-12.2-6.738 0-12.2 5.462-12.2 12.2 0 6.738 5.462 12.2 12.2 12.2zm0-39.1c6.738 0 12.2-5.462 12.2-12.2 0-6.738-5.462-12.2-12.2-12.2-6.738 0-12.2 5.462-12.2 12.2 0 6.738 5.462 12.2 12.2 12.2zm0-39.2c6.738 0 12.2-5.462 12.2-12.2 0-6.738-5.462-12.2-12.2-12.2-6.738 0-12.2 5.462-12.2 12.2 0 6.738 5.462 12.2 12.2 12.2zm0-39.1c6.738 0 12.2-5.462 12.2-12.2 0-6.738-5.462-12.2-12.2-12.2-6.738 0-12.2 5.462-12.2 12.2 0 6.738 5.462 12.2 12.2 12.2z" fill="#fff"/><path d="M399.3 133.1H176.8v7.4h222.5v-7.4zm-51 14.1H176.8v5.7h171.5v-5.7z" fill="#DEE3FC"/><path opacity=".4" d="M522.3 133h-46.4v17h46.4v-17z" fill="#DEE3FC"/><path opacity=".87" d="M470.6 133h-46.4v17h46.4v-17z" fill="#DEE3FC"/><path d="M402.8 179.3H296.1V230h106.7v-50.7zm-119.6 61H176.5V291h106.7v-50.7zm238.8-61H415.3V230H522v-50.7zm-119 61H296.3V291H403v-50.7zm119 0H415.3V291H522v-50.7zm-238.8 61H176.5V352h106.7v-50.7zm119.6 0H296.1V352h106.7v-50.7zm119.2 0H415.3V352H522v-50.7zm-238.8-122H176.5V230h106.7v-50.7z" fill="#F4F6FA"/><g filter="url(#filter0_d)"><path d="M430.1 164H310.9c-12 0-21.9-9.8-21.9-21.9V70.9c0-12 9.8-21.9 21.9-21.9h119.2c12 0 21.9 9.8 21.9 21.9v71.2c0 12.1-9.8 21.9-21.9 21.9z" fill="url(#paint2_linear)"/></g><g filter="url(#filter1_d)"><path d="M410.1 145H290.9c-12 0-21.9-9.8-21.9-21.9V51.9c0-12 9.8-21.9 21.9-21.9h119.2c12 0 21.9 9.8 21.9 21.9v71.2c0 12.1-9.8 21.9-21.9 21.9z" fill="url(#paint3_linear)"/></g><path d="M308.1 238H188.9c-12 0-21.9-9.8-21.9-21.9v-71.2c0-12 9.8-21.9 21.9-21.9h119.2c12 0 21.9 9.8 21.9 21.9v71.2c0 12.1-9.8 21.9-21.9 21.9z" fill="url(#paint4_linear)"/><path d="M386.7 352.3l19.5-.3v.2c-.1-1.7-.2-7.6 1.2-15.2-.9-3.4-2.3-6.7-2.3-6.9 0-.1.1-.1.1-.2 1.9.3 2.2 6.7 2.2 7.1 0-.6.1-1.3.1-1.9.2-2.9.3-5.9.4-9.1v-.2c0-.7 0-1.4.1-2.1v-.9c0-.7 0-1.3.1-2 0-1.3.1-2.5.1-3.8.1-6.3 0-12.6-.4-18.2-.4-5.5-1-10.4-2.1-13.9 0-.1 0-.1-.1-.2 0 0-1.2-.4-2.9-1.2-.8-.3-1.7-.7-2.7-1.1h-.1c-.9-.4-1.9-.8-2.8-1.3-.1 0-.1-.1-.2-.1-2.6-1.2-5.3-2.7-7.4-4.1l-18.2-.2s-1.9 1.4-8.2 4.1c-.2.1-.4.2-.7.3-1.6.7-3.4 1.4-5.5 2.2-1.1 1.7-2.7 19-3.3 36.2v.6c0 1.5-.1 2.9-.1 4.4 0 2.6 0 5.1.1 7.5 0 .8.1 1.7.1 2.5v.2c0 .6 0 1.2.1 1.8v.2c0 .5.1 1 .1 1.5v.9c.3 5.1.7 9.3.9 12.2v.7l31.7.1c.1 0 .1.1.2.2z" fill="#E6B475"/><path d="M354.9 352c.2.1 1.3.4 3 .8 5.1 1.2 16.4 3.4 29.5 2.9 4.7-.2 9.7-.8 14.7-1.9 1.4-.3 2.8-.7 4.2-1v-.7l-19.5.3c0-.1 0-.2-.1-.3l-31.8-.1z" fill="#E6B475"/><path d="M437.1 328.7c-1.9-12.2-6.5-21-6.5-21-3.6-9.2-10.5-15.2-16.5-19-6-3.7-11.2-5.2-11.2-5.2-2.4-.9-4.4-1.9-6.1-2.6-1.8-.9-3.7-1.9-5.4-2.8-.7-.4-1.4-.8-2-1.2-.7-.4-1.2-.9-1.8-1.5-1.1.8-2.3 1.2-3.5 1.4-1.4.3-2.9.2-4.3 0-2.5-.4-4.8-1.5-6.2-2.2-.7.8-1.5 1.5-2.4 2.1 0 0-.1.1-.4.3-.8.5-3.1 1.8-7.8 3.8-1.7.7-3.8 1.5-6.2 2.5l-1.8.6c-4.9 2.5-7.2 5.3-14.1 4-4.4-.9-9-2.1-13.1-5.4-17-13.8-15.8-43-15.8-43l-8.2 1.4s-2 7.5-2.7 17.9c-1 14.1.2 33.7 11.4 47.9 3.6 4.5 8.2 8.5 14 11.5 1.1.6 2.3 1.1 3.5 1.7 1.4.6 3.4 1.1 5.6 1.6 1 .2 2 .4 3 .5 6.3.9 9.7-2.3 14.9-2.3v1.2c-.4 12.9.8 24.4 1.3 31.1v.2c.9.4 1.7.7 2.5 1.1 21.5 8.9 37.2 4.9 44.4 1.9h.1c.1 0 .1-.1.2-.1s.2-.1.3-.1c.1 0 .1 0 .2-.1.1 0 .1-.1.2-.1s.2-.1.3-.1c.1 0 .2-.1.3-.2.1 0 .2-.1.3-.1.1-.1.3-.1.4-.2.1-.1.3-.1.4-.2 0 0 .1 0 .1-.1.3-.1.5-.3.7-.4.3-.2.5-.3.8-.5v-.6c1.1-5 1.8-27.8 1.8-29.3 10 19.2 5.2 41.4 1.4 53.2-1.7 5.2-3.2 8.4-3.2 8.4l5.4 3.1c6.5-3.6 16.1-16.5 16.1-16.5 7.1-9.4 9.8-19.6 10.2-29.1.4-5 0-9.5-.6-13.5z" fill="url(#paint5_linear)"/><path d="M312.1 239.6s1.7-17.7-1-18c-.9-.1-1.5-.5-.5 8.9 0 0-8.7-3.8-7.7 4l.8 6.9s5.6 2.8 8.4-1.8zm77.4 37.2c-2.2 4.1-16.6 2.9-18.2-.2 2.2-1.3 3.8-3.7 4.7-5.9l.6-1.5c.7-1.9 1-3.4 1-3.4h6.1s.3 2.6 1.5 5.4c.3.7.7 1.5 1.2 2.3v.1c.8 1.2 1.8 2.4 3.1 3.2z" fill="#E6B475"/><path d="M419.2 443.6c-1.8-22.9-12.4-87.6-13-91.4v.5c-1.4.4-2.8.7-4.2 1-5 1.1-10 1.7-14.7 1.9-13.1.6-24.4-1.6-29.5-2.9-1.7-.4-2.7-.7-2.9-.8 0 0-32.9 57.6-10 190.4h8s12.4-82.5 23.7-121.8c0 0 .3-1 .9-2.7 6 17.9 9.3 35.9 9.3 35.9-.2 7.2.7 15.9 2.3 25.1 2.5 14.8 6.7 30.6 10.2 42.8 3.6 12.4 6.6 21 6.6 21l7.9-1c1.2-8.2 7.3-73.9 5.4-98z" fill="url(#paint6_linear)"/><path d="M395 256.1c-.3 1.8-.7 3.5-1.3 5.2v.1l-.3.9c-.2.6-.5 1.3-.8 1.8-.7 1.5-1.6 2.8-2.6 3.9-.1.2-.3.3-.5.5-.3.3-.6.6-1 .8-1 .8-2.1 1.4-3.4 1.8-1 .3-2.1.5-3.3.6-.9 0-2 0-3-.2s-2-.4-2.8-.8l-.6-.3h-.1c-.2-.1-.4-.2-.7-.3-.1-.1-.2-.1-.3-.2-.1 0-.1-.1-.2-.1h-.1c-.2-.1-.4-.2-.6-.4-.2-.1-.3-.2-.4-.3-.1 0-.1-.1-.2-.1-.2-.1-.3-.3-.5-.4l-.1-.1c-.1-.1-.3-.2-.4-.4l-.3-.3c-.1-.1-.1-.1-.1-.2l-.1-.1-.3-.3c-.1-.1-.2-.2-.3-.4-.1-.1-.1-.2-.2-.3-.1-.1-.1-.2-.2-.3v-.1c-.3-.4-.5-.7-.7-1.1 0-.1-.1-.2-.1-.2-.7-1.2-1.1-2.6-1.5-4-.1-.4-.2-.8-.3-1.1v-.2c0-.1 0-.2-.1-.3v-.2c-.1-.3-.1-.6-.1-.9-.8-5.6 0-11.6.7-15.1 1.4-7.4 11.8-10.2 19.2-7.8 3.3 1.1 6 3.1 7.2 6.2.2.5.3 1 .4 1.6.3 1.9.5 3.9.6 5.9-.1-.2-.1 5.9-.6 7.2z" fill="#E6B475"/><path opacity=".5" d="M392.6 263.6l-.1.5c-1.7 3.4-4.1 5.9-7.4 7 .3.7.7 1.5 1.2 2.3-.3-.1-1.3-.6-4.4-1.7-.4-.2-.9-.3-1.5-.5-1.6-.5-2.8-1.2-3.8-2-3.3-2.5-3.5-5.6-3.5-5.6l9.7-3.5 9.8 3.5z" fill="#D4924E"/><path d="M352.8 542.3s2.6 10.7.1 11.2c-2.7.6-18.9.7-23.2-.1-.4-4 13.5-8.1 13.5-8.1l1.6-3h8zm60.9-.6s2.7 10.5.3 11c-2.7.6-12.1-.6-16.4-1.5 0-5.6 7.1-5.8 7.1-5.8l1.2-2.8 7.8-.9z" fill="#262424"/><path d="M374.4 374.3l-16.6-3.8.4-2 16.7 3.7-.5 2.1z" fill="url(#paint7_linear)"/><path d="M405.3 371.1l-16.9 2.6-.3-2.1 16.8-2.6.4 2.1z" fill="url(#paint8_linear)"/><g opacity=".5"><path opacity=".5" d="M409.7 320.4v-.1c-2.1-6.3-7.8-9.4-8-9.5 2.6 1.7 6.3 11.9 6.3 11.9 10 19.2 5.2 41.4 1.4 53.2.1.4.2.3.3-.3 1.2-5 7.7-16.2 8.3-30.2.6-13.9-8.3-25-8.3-25z" fill="url(#paint9_linear)"/><path opacity=".5" d="M344.6 312.9s-1.5 1.7-2.4 1.8c-2.3-.3-3.7 0-3.7 0s-6 .5-15.1-3.8c-9.1-4.4-20.2-28.8-20.7-38.8-.2-4.9-.9-9.8-1.6-13.4-1 14.1.2 33.7 11.4 47.9 3.6 4.5 8.2 8.5 14 11.5 1.1.6 2.3 1.1 3.5 1.7 1.4.6 3.4 1.1 5.6 1.6l1.5.3c.2 0 .4.1.6.1.3 0 .6.1.9.1 3.5.5 3.5.1 7-.5 3.1-1 5.6-1.8 7.9-1.7.1-1.6.6-11.6 2.9-15-1.5 1.8-4.9 5.9-5.7 8.8-.9 3.8-6.1-.6-6.1-.6z" fill="url(#paint10_linear)"/></g><path d="M357.2 303.7c-.1.1-.3.4-.7.8.2-.3.4-.6.7-.8z" fill="#4E519B"/><path d="M395.5 248.7c-.1-2-.3-4-.6-5.9-.1-.5-.2-1.1-.4-1.6-1.1-3.1-3.9-5.2-7.2-6.2-7.5-2.4-17.9.4-19.2 7.8 0 0-.5 6.6 5.2 10 .6-.8 1.6-1.4 2.8-1.4 1.9 0 3.5 1.5 3.5 3.5 0 1.8-1.4 3.3-3.2 3.4-.6 1.2-1.3 2.1-1.9 2.8-1.1 1-1.8 1.4-2.3 1.4-.6 0-1-.5-1.3-1-1.5-2.4-3.4-3.6-3.4-3.6.1.4.1.8.2 1.2 0 .2.1.4.1.5.1.4.2.8.3 1.1.3 1.1.7 2.2 1.2 3.2 0 .1.1.2.2.3.1.1.1.3.2.4 0 .1.1.2.1.2 0 .1.1.2.1.2.1.1.1.2.2.3.1.2.2.3.3.5v.2c.1.1.1.2.2.3.1.1.1.2.2.3.1.1.2.2.3.4l.3.3.1.1c0 .1.1.1.1.2l.3.3.4.4.1.1c.2.1.3.3.5.4l.1.1c.1.1.3.2.4.3.2.1.4.2.6.4h.1c.1 0 .1.1.2.1.1.1.2.1.3.2.2.1.4.2.7.3h.1l.6.3c-1.1-1.6-1.4-2.7-1.4-3.5 0-1.1.5-1.5.5-1.5 3 2.2 8.9 4.7 13.4 3.7.3-.3.6-.5.9-.8l.5-.5c.3-.3.5-.6.7-.9 1.1-1.4 2-3 2.7-4.9l.3-.9v-.1c.6-1.6 1-3.4 1.3-5.2.6-1.1.6-7.2.6-7.2zm-22.4 14.4v-.1.1z" fill="#262424"/><path d="M391.5 278.1c-2.3 1.7-10.3 6.4-20.6-1.1.3-.2.4-.3.4-.3.9-.6 1.7-1.3 2.4-2.1 1.4.7 3.7 1.8 6.2 2.2 1.4.2 2.9.3 4.3 0 1.2-.2 2.4-.7 3.5-1.4.5.6 1.1 1.1 1.8 1.5.6.3 1.3.7 2 1.2z" fill="#F0CA8A"/><defs><filter id="filter0_d" x="249" y="13" width="243" height="195" filterUnits="userSpaceOnUse" color-interpolation-filters="sRGB"><feFlood flood-opacity="0" result="BackgroundImageFix"/><feColorMatrix in="SourceAlpha" values="0 0 0 0 0 0 0 0 0 0 0 0 0 0 0 0 0 0 127 0"/><feOffset dy="4"/><feGaussianBlur stdDeviation="20"/><feColorMatrix values="0 0 0 0 0.905882 0 0 0 0 0.92549 0 0 0 0 0.956863 0 0 0 1 0"/><feBlend in2="BackgroundImageFix" result="effect1_dropShadow"/><feBlend in="SourceGraphic" in2="effect1_dropShadow" result="shape"/></filter><filter id="filter1_d" x="239" y="0" width="243" height="195" filterUnits="userSpaceOnUse" color-interpolation-filters="sRGB"><feFlood flood-opacity="0" result="BackgroundImageFix"/><feColorMatrix in="SourceAlpha" values="0 0 0 0 0 0 0 0 0 0 0 0 0 0 0 0 0 0 127 0"/><feOffset dx="10" dy="10"/><feGaussianBlur stdDeviation="20"/><feColorMatrix values="0 0 0 0 0.905882 0 0 0 0 0.92549 0 0 0 0 0.956863 0 0 0 1 0"/><feBlend in2="BackgroundImageFix" result="effect1_dropShadow"/><feBlend in="SourceGraphic" in2="effect1_dropShadow" result="shape"/></filter><linearGradient id="paint0_linear" x1="83.469" y1="238.693" x2="567.689" y2="238.693" gradientUnits="userSpaceOnUse"><stop stop-color="#DBE1F4"/><stop offset="1" stop-color="#E2E7F4"/></linearGradient><linearGradient id="paint1_linear" x1=".448" y1="401.5" x2="650.71" y2="401.5" gradientUnits="userSpaceOnUse"><stop stop-color="#E9ECF8"/><stop offset="1" stop-color="#F1F3FA"/></linearGradient><linearGradient id="paint2_linear" x1="289" y1="106.5" x2="452" y2="106.5" gradientUnits="userSpaceOnUse"><stop stop-color="#fff"/></linearGradient><linearGradient id="paint3_linear" x1="269" y1="109.4" x2="432" y2="109.4" gradientUnits="userSpaceOnUse"><stop stop-color="#fff"/></linearGradient><linearGradient id="paint4_linear" x1="167" y1="180.5" x2="330" y2="180.5" gradientUnits="userSpaceOnUse"><stop stop-color="#FDC01F"/><stop offset="1" stop-color="#FFD51B"/></linearGradient><linearGradient id="paint5_linear" x1="369.388" y1="387.419" x2="369.388" y2="239.289" gradientUnits="userSpaceOnUse"><stop stop-color="#687CF7"/><stop offset="1" stop-color="#A2AEF9"/></linearGradient><linearGradient id="paint6_linear" x1="378.154" y1="542.687" x2="378.154" y2="351.952" gradientUnits="userSpaceOnUse"><stop stop-color="#1A2F68"/><stop offset=".297" stop-color="#192C5C"/><stop offset=".99" stop-color="#162744"/></linearGradient><linearGradient id="paint7_linear" x1="357.754" y1="371.358" x2="374.876" y2="371.358" gradientUnits="userSpaceOnUse"><stop stop-color="#1A2F68"/><stop offset=".063" stop-color="#182F68"/><stop offset=".992" stop-color="#002A66"/></linearGradient><linearGradient id="paint8_linear" x1="388.076" y1="371.358" x2="405.269" y2="371.358" gradientUnits="userSpaceOnUse"><stop stop-color="#1A2F68"/><stop offset=".063" stop-color="#182F68"/><stop offset=".992" stop-color="#002A66"/></linearGradient><linearGradient id="paint9_linear" x1="401.709" y1="343.459" x2="418.036" y2="343.459" gradientUnits="userSpaceOnUse"><stop stop-color="#687CF7"/><stop offset="1" stop-color="#A2AEF9"/></linearGradient><linearGradient id="paint10_linear" x1="300.853" y1="290.412" x2="356.449" y2="290.412" gradientUnits="userSpaceOnUse"><stop stop-color="#687CF7"/><stop offset="1" stop-color="#A2AEF9"/></linearGradient></defs></svg>