<svg version="1.1" id="Layer_1" xmlns="http://www.w3.org/2000/svg" xmlns:xlink="http://www.w3.org/1999/xlink" x="0" y="0" viewBox="0 0 547.8 527.4" xml:space="preserve"><style>.st1{fill:#fff}.st9{fill:#172182}.st12{fill:none}.st25{opacity:.1;fill:#3632a9;enable-background:new}.st26{fill:#8080e5}.st29{fill:#e0e4f0}.st31{fill:#d1a597}.st59{fill:#edbaa8}.st71{fill:#2848bd}.st72{fill:#95bde5}</style><linearGradient id="SVGID_1_" gradientUnits="userSpaceOnUse" x1="27.358" y1="201.15" x2="387.758" y2="201.15" gradientTransform="matrix(1 0 0 -1 0 670.2)"><stop offset="0" stop-color="#fff"/><stop offset="1" stop-color="#c2dbff"/></linearGradient><path d="M259.5 410.7H43.3v34.2h58v1c-43.5 6.5-73.9 21.5-73.9 39 0 23.5 55 42.5 122.7 42.5 67.8 0 122.7-19 122.7-42.5 0-5.6-3.1-10.9-8.8-15.8h123.8v-32.7H259.5v-25.7z" fill="url(#SVGID_1_)"/><path id="SVGID_2_" class="st1" d="M273.3 405.1c.1 10.3 14.5 10.1 24.1 7.6 8.8-2.2 12.7 5.5 7.9 13.1-12.4 19.5-20.6 9.9-48.1 18.8-10.5 3.4-19.5-4.4-18.7-8.9 1.2-6.6 4.5-19.5 4.2-28.1-.4-9.4 30.6-2.5 30.6-2.5z"/><defs><path id="SVGID_3_" d="M273.3 405.1c.1 10.3 14.5 10.1 24.1 7.6 8.8-2.2 12.7 5.5 7.9 13.1-12.4 19.5-20.6 9.9-48.1 18.8-10.5 3.4-19.5-4.4-18.7-8.9 1.2-6.6 4.5-19.5 4.2-28.1-.4-9.4 30.6-2.5 30.6-2.5z"/></defs><clipPath id="SVGID_5_"><use xlink:href="#SVGID_3_" overflow="visible"/></clipPath><path d="M237 407.4c1.9 6.3 23.9 17.7 40.3-3.8l-6.5-11.1c0 .1-35.7 8.7-33.8 14.9z" clip-path="url(#SVGID_5_)" fill="#95bde5"/><defs><path id="SVGID_7_" d="M273.3 405.1c.1 10.3 14.5 10.1 24.1 7.6 8.8-2.2 12.7 5.5 7.9 13.1-12.4 19.5-20.6 9.9-48.1 18.8-10.5 3.4-19.5-4.4-18.7-8.9 1.2-6.6 4.5-19.5 4.2-28.1-.4-9.4 30.6-2.5 30.6-2.5z"/></defs><clipPath id="SVGID_8_"><use xlink:href="#SVGID_7_" overflow="visible"/></clipPath><path d="M288.6 433.1c-11-1.2-14.9.2-20.1 3.3-5.3 3.1-19.9 5.5-24.3 2.5-7-4.8-6.1-10.9-6.1-10.9l-8 15.6 17.5 9.4 60.6-11.9 10.3-15.9-13.2-10.9c5.9 4.9-5.8 20-16.7 18.8z" clip-path="url(#SVGID_8_)" fill="#91beff"/><defs><path id="SVGID_9_" d="M273.3 405.1c.1 10.3 14.5 10.1 24.1 7.6 8.8-2.2 12.7 5.5 7.9 13.1-12.4 19.5-20.6 9.9-48.1 18.8-10.5 3.4-19.5-4.4-18.7-8.9 1.2-6.6 4.5-19.5 4.2-28.1-.4-9.4 30.6-2.5 30.6-2.5z"/></defs><clipPath id="SVGID_10_"><use xlink:href="#SVGID_9_" overflow="visible"/></clipPath><path d="M237 407.4c1.9 6.3 23.9 17.7 40.3-3.8l-6.5-11.1c0 .1-35.7 8.7-33.8 14.9z" clip-path="url(#SVGID_10_)" fill="#77a9e5"/><path id="SVGID_4_" class="st1" d="M407.5 426.7c8.6 8.6 30.3 8.7 46.1 8.6 9.4-.1 10.2 7.8 6.9 10.5-14.1 11.7-39.9 14.3-66.1 22.8-9.9 3.2-14-4.7-13.3-8.9 1-6.2-.9-18-1.4-26.2-.5-8.9 22.7-11.8 27.8-6.8z"/><defs><path id="SVGID_11_" d="M407.5 426.7c8.6 8.6 30.3 8.7 46.1 8.6 9.4-.1 10.2 7.8 6.9 10.5-14.1 11.7-39.9 14.3-66.1 22.8-9.9 3.2-14-4.7-13.3-8.9 1-6.2-.9-18-1.4-26.2-.5-8.9 22.7-11.8 27.8-6.8z"/></defs><clipPath id="SVGID_12_"><use xlink:href="#SVGID_11_" overflow="visible"/></clipPath><path d="M427.6 454.6c-10.5-1.1-17.6 3.4-22.6 6.3s-17.8 3.1-21.2-.8c-3.3-3.8-3.3-7.7-3.3-7.7l-7.3 14.8 17 8.9 65.5-16.9 15.4-16.8-11.3-5.2c6.1 8.9-21.6 18.5-32.2 17.4z" clip-path="url(#SVGID_12_)" fill="#91beff"/><defs><path id="SVGID_13_" d="M407.5 426.7c8.6 8.6 30.3 8.7 46.1 8.6 9.4-.1 10.2 7.8 6.9 10.5-14.1 11.7-39.9 14.3-66.1 22.8-9.9 3.2-14-4.7-13.3-8.9 1-6.2-.9-18-1.4-26.2-.5-8.9 22.7-11.8 27.8-6.8z"/></defs><clipPath id="SVGID_14_"><use xlink:href="#SVGID_13_" overflow="visible"/></clipPath><path d="M389.3 414s-14.7 11.3-14.5 17.5c.1 3.8 5.6 11.7 14.8 11 5.8-.5 16.3-7.4 18-11.2 1.3-2.8-18.3-17.3-18.3-17.3z" clip-path="url(#SVGID_14_)" fill="#95bde5"/><defs><path id="SVGID_15_" d="M407.5 426.7c8.6 8.6 30.3 8.7 46.1 8.6 9.4-.1 10.2 7.8 6.9 10.5-14.1 11.7-39.9 14.3-66.1 22.8-9.9 3.2-14-4.7-13.3-8.9 1-6.2-.9-18-1.4-26.2-.5-8.9 22.7-11.8 27.8-6.8z"/></defs><clipPath id="SVGID_16_"><use xlink:href="#SVGID_15_" overflow="visible"/></clipPath><path d="M237 407.4c1.9 6.3 23.9 17.7 40.3-3.8l-6.5-11.1c0 .1-35.7 8.7-33.8 14.9z" clip-path="url(#SVGID_16_)" fill="#95bde5"/><defs><path id="SVGID_17_" d="M407.5 426.7c8.6 8.6 30.3 8.7 46.1 8.6 9.4-.1 10.2 7.8 6.9 10.5-14.1 11.7-39.9 14.3-66.1 22.8-9.9 3.2-14-4.7-13.3-8.9 1-6.2-.9-18-1.4-26.2-.5-8.9 22.7-11.8 27.8-6.8z"/></defs><clipPath id="SVGID_18_"><use xlink:href="#SVGID_17_" overflow="visible"/></clipPath><path d="M389.3 414s-14.7 11.3-14.5 17.5c.1 3.8 5.6 11.7 14.8 11 5.8-.5 16.3-7.4 18-11.2 1.3-2.8-18.3-17.3-18.3-17.3z" clip-path="url(#SVGID_18_)" fill="#95bde5"/><path id="SVGID_6_" class="st9" d="M89.9 343.7c37.1 4.7 131.3-60.2 134.5-39.3 7.2 46.7 11.7 22.4 17.6 97.4 1.1 13.7 34 9.6 34 1.6 0-30.4 2.2-130-1.3-144.4-2.8-11.4-13.3-21.3-25.8-22.1-9.7-.6-23.1-.9-39.5 2.9-46.7 10.9-115.4 23.7-142.3 30.9-31.1 8.4-14.4 68.2 22.8 73z"/><defs><path id="SVGID_19_" d="M89.9 343.7c37.1 4.7 131.3-60.2 134.5-39.3 7.2 46.7 11.7 22.4 17.6 97.4 1.1 13.7 34 9.6 34 1.6 0-30.4 2.2-130-1.3-144.4-2.8-11.4-13.3-21.3-25.8-22.1-9.7-.6-23.1-.9-39.5 2.9-46.7 10.9-115.4 23.7-142.3 30.9-31.1 8.4-14.4 68.2 22.8 73z"/></defs><clipPath id="SVGID_20_"><use xlink:href="#SVGID_19_" overflow="visible"/></clipPath><path d="M45.7 310.5l111.8-22.7s-3-21.7 17.2-28.7 50.5-15.7 72.1-16.6c16-.6 27.4 59 34 119.6l43.5-139.9-70.9-36.2L45.7 310.5z" opacity=".42" clip-path="url(#SVGID_20_)" fill="#c2dbff"/><linearGradient id="SVGID_22_" gradientUnits="userSpaceOnUse" x1="124.258" y1="334.851" x2="277.558" y2="334.851" gradientTransform="matrix(1 0 0 -1 0 670.2)"><stop offset="0" stop-color="#f7fbff"/><stop offset=".854" stop-color="#c2dbff"/></linearGradient><path d="M227.7 312.6l-103.4 23.5 63.9 22 84.6-13.8 4.5-11.6.3-4.6c-18.9-16.1-49.9-15.5-49.9-15.5z" fill="url(#SVGID_22_)"/><path class="st9" d="M67.1 270.7c-.6 9.9-21.6 79.2 27.6 84.8 7.1.8 14.1 5.5 23 7.6 25.5 6 65.7-2 109.5-20.5 46.2-19.6 51.4-22 58.6-17 6.2 4.3 9.2 21.6 29.4 48.6 17.7 23.5 16.7 20.4 61.7 66.7 7.7 7.9 34.7-15.8 26.6-24.4-26.2-28-37.3-58.2-69.4-114.6-15.6-27.4-21.2-42.2-61.4-35.3-45.2 7.8-76.6 13.6-108.3 21.2-66 15.8-97.3-17.1-97.3-17.1z"/><path class="st12" d="M317.3 300c-19.3-14.8-25.2-27.2-41.1-21.3-15.9 6-102.7 27.9-124.2 25.3-42.3-5.1-6.4-12.1-6.4-12.1l5.3-1.6c-56.8 8.7-83.8-19.7-83.8-19.7-.6 9.9-21.6 79.2 27.6 84.8 7.1.8 14.1 5.5 23 7.6 25.5 6 65.7-2 109.5-20.5 46.2-19.6 51.4-22 58.6-17 6.2 4.3 9.2 21.6 29.4 48.6 17.7 23.5 16.7 20.4 61.7 66.7 5.5 5.7 21.1-5 26.3-14.7-29.3-37.2-72.2-115.6-85.9-126.1z"/><path d="M152 304c21.5 2.6 108.3-19.3 124.2-25.3 15.9-6 21.8 6.4 41.1 21.3 13.7 10.5 56.6 88.8 86 126.2 2-3.8 2.5-7.4.3-9.8-26.2-28-37.3-58.2-69.4-114.6-15.6-27.4-21.2-42.2-61.4-35.3-45.2 7.8-76.6 13.6-108.3 21.2-4.7 1.1-9.2 2-13.5 2.7l-5.3 1.6c-.1 0-36 6.9 6.3 12z" opacity=".42" fill="#c2dbff"/><linearGradient id="SVGID_23_" gradientUnits="userSpaceOnUse" x1="313.794" y1="395.766" x2="288.569" y2="493.373" gradientTransform="matrix(1 0 0 -1 0 670.2)"><stop offset="0" stop-color="#fff"/><stop offset="1" stop-color="#f7fbff"/></linearGradient><path opacity=".92" fill="url(#SVGID_23_)" d="M46.8 182.6l327 119 174-63.3-326.9-119z"/><linearGradient id="SVGID_24_" gradientUnits="userSpaceOnUse" x1="221.754" y1="461.817" x2="213.146" y2="433.125" gradientTransform="matrix(1 0 0 -1 0 670.2)"><stop offset="0" stop-color="#f7fbff"/><stop offset=".854" stop-color="#c2dbff"/></linearGradient><path opacity=".7" fill="url(#SVGID_24_)" d="M46.8 191.8l327 119v-9.2l-327-119z"/><linearGradient id="SVGID_25_" gradientUnits="userSpaceOnUse" x1="478.046" y1="351.196" x2="425.063" y2="487.439" gradientTransform="matrix(1 0 0 -1 0 670.2)"><stop offset="0" stop-color="#f7fbff"/><stop offset=".854" stop-color="#c2dbff"/></linearGradient><path opacity=".7" fill="url(#SVGID_25_)" d="M373.8 310.8l174-63.3v-9.2l-174 63.3z"/><path class="st25" d="M319.1 198.8c.6-.2 1.2-.2 1.6-.1.5.2.8.6.8 1.2 0 1.1-1.1 2.5-2.4 3.1 0 0-.1 0-.1.1-.2.1-.7.3-1 .4l-40.9 14.3c-.2.1-.4.1-.6.1-.3 0-.6 0-.8-.1l-116.5-47.7c-.2-.1-.2-.2-.2-.3v-1.7c0 .1.1.2.2.3l116.3 47.7c.2.1.5.1.8.1.2 0 .4-.1.6-.1l41.8-17.1.4-.2z"/><path class="st26" d="M317 202.4l-3-1.2 2.7-1.1z"/><linearGradient id="SVGID_32_" gradientUnits="userSpaceOnUse" x1="1791.213" y1="478.2" x2="1908.513" y2="478.2" gradientTransform="matrix(1 0 0 -1 -1632.254 670.2)"><stop offset=".228" stop-color="#b986e5"/><stop offset=".46" stop-color="#b686e5"/><stop offset=".648" stop-color="#ac85e5"/><stop offset=".82" stop-color="#9b83e5"/><stop offset=".983" stop-color="#8380e5"/><stop offset="1" stop-color="#8080e5"/></linearGradient><path d="M276.3 215.5v1c-.3 0-.6 0-.8-.1l-116.3-47.6c-.2-.1-.2-.2-.2-.3v-1c0 .1.1.2.2.3l116.3 47.6c.2.1.5.2.8.1z" fill="url(#SVGID_32_)"/><path class="st26" d="M318.8 198.3c-.9.4-1.6 1.1-2 1.8-.2.4-.4.8-.4 1.1l-.1-.2c-.1-.3-.6-.4-1-.3L277 216.4c-.2.1-.4.1-.6.1v-1c.2 0 .4-.1.6-.1l41.8-17.1z"/><linearGradient id="SVGID_33_" gradientUnits="userSpaceOnUse" x1="1877.474" y1="490.616" x2="2003.513" y2="563.385" gradientTransform="matrix(1 0 0 -1 -1632.254 670.2)"><stop offset="0" stop-color="#f5f4ff"/><stop offset=".421" stop-color="#ece9f8"/><stop offset="1" stop-color="#d9d3e9"/></linearGradient><path d="M320.7 198.1c-.4-.2-1-.1-1.6.1l-.4.1-41.8 17.1c-.4.2-1 .2-1.4 0l-116.3-47.6c-.2-.1-.2-.2-.2-.3 0-.1.1-.2.2-.3l42.5-17.4c.4-.2.9-.2 1.2 0l117 47.9.8.4z" fill="url(#SVGID_33_)"/><path class="st29" d="M307.7 201.3l-6.4-2.7-6.5 2.7 6.5 2.6z"/><path class="st29" d="M307.7 201.3v.7l-6.4 2.7v-.8zm-12.9 0v.7l6.5 2.7v-.8zm4.2-3.7l-6.5-2.6-6.4 2.6 6.4 2.7z"/><path class="st29" d="M299 197.6v.8l-6.5 2.7v-.8zm-12.9 0v.8l6.4 2.7v-.8zm3.9-3.6l-6.4-2.6-6.5 2.6 6.5 2.6z"/><path class="st29" d="M290 194v.8l-6.4 2.6v-.8zm-12.9 0v.8l6.5 2.6v-.8zm3.9-3.7l-6.5-2.6-6.4 2.6 6.4 2.7z"/><path class="st29" d="M281 190.3v.8l-6.5 2.7v-.8zm-12.9 0v.8l6.4 2.7v-.8zm4.1-3.5l-6.4-2.7-6.5 2.7 6.5 2.6z"/><path class="st29" d="M272.2 186.8v.7l-6.4 2.7v-.8zm-12.9 0v.7l6.5 2.7v-.8zm4.3-3.6l-6.4-2.6-6.5 2.6 6.5 2.6z"/><path class="st29" d="M263.6 183.2v.8l-6.4 2.6v-.8zm-12.9 0v.8l6.5 2.6v-.8zm4.4-3.5l-6.5-2.6-6.4 2.6 6.4 2.7zm0 0v.8l-6.5 2.6v-.7zm-12.9 0v.8l6.4 2.6v-.7zm4.4-3.5l-6.5-2.6-6.4 2.6 6.4 2.7z"/><path class="st29" d="M246.6 176.2v.8l-6.5 2.7v-.8zm-12.9 0v.8l6.4 2.7v-.8zm4.1-3.5l-6.4-2.7-6.5 2.7 6.5 2.6z"/><path class="st29" d="M237.8 172.7v.8l-6.4 2.6v-.8zm-12.9 0v.8l6.5 2.6v-.8zm4.3-3.6l-6.5-2.6-6.4 2.6 6.4 2.7z"/><path class="st29" d="M229.2 169.1v.8l-6.5 2.7v-.8z"/><path class="st29" d="M216.3 169.1v.8l6.4 2.7v-.8zm4.2-3.5l-6.4-2.7-6.5 2.7 6.5 2.6z"/><path class="st29" d="M220.5 165.6v.7l-6.4 2.7v-.8zm-12.9 0v.7l6.5 2.7v-.8zm4.3-3.6l-6.5-2.6-6.4 2.6 6.4 2.7zm0 0v.8l-6.5 2.6v-.7zm-12.9 0v.8l6.4 2.6v-.7zm4-3.6v.8l-6.4 2.6v-.8z"/><path class="st29" d="M203 158.4l-10.1-4.2-6.5 2.6 10.2 4.2z"/><path class="st29" d="M186.4 156.8v.8l10.2 4.2v-.8zm29.9.2l-6.4-2.7-6.5 2.7 6.5 2.6z"/><path class="st29" d="M216.3 157v.7l-6.4 2.7v-.8zm-12.9 0v.7l6.5 2.7v-.8zm4.3-3.6l-6.4-2.6-6.5 2.6 6.5 2.7zm0 0v.8l-6.4 2.6v-.7zm-12.9 0v.8l6.5 2.6v-.7zM302 192.1l-6.5-2.7-6.4 2.7 6.4 2.6z"/><path class="st29" d="M302 192.1v.7l-6.5 2.7v-.8zm-12.9 0v.7l6.4 2.7v-.8zm4.3-3.6l-6.5-2.6-6.4 2.6 6.4 2.7z"/><path class="st29" d="M293.4 188.5v.8l-6.5 2.7v-.8zm-12.9 0v.8l6.4 2.7v-.8zm4.4-3.5l-6.4-2.6-6.5 2.6 6.5 2.7z"/><path class="st29" d="M284.9 185v.8l-6.4 2.7v-.8zm-12.9 0v.8l6.5 2.7v-.8zm4.3-3.5l-6.4-2.6-6.5 2.6 6.5 2.7z"/><path class="st29" d="M276.3 181.5v.8l-6.4 2.7v-.8zm-12.9 0v.8l6.5 2.7v-.8zm4.4-3.4l-6.5-2.7-6.4 2.7 6.5 2.6zm0 0v.8l-6.4 2.6v-.8z"/><path class="st29" d="M254.9 178.1v.8l6.5 2.6v-.8zm4.5-3.5l-6.5-2.6-6.4 2.6 6.4 2.7zm0 0v.8l-6.5 2.6v-.7z"/><path class="st29" d="M246.5 174.6v.8l6.4 2.6v-.7zm4.3-3.5l-6.4-2.6-6.5 2.6 6.5 2.7z"/><path class="st29" d="M250.8 171.1v.8l-6.4 2.7v-.8zm-12.9 0v.8l6.5 2.7v-.8zm4.3-3.5l-6.4-2.7-6.5 2.7 6.5 2.6z"/><path class="st29" d="M242.2 167.6v.8l-6.4 2.6v-.8z"/><path class="st29" d="M229.3 167.6v.8l6.5 2.6v-.8zm4.2-3.6l-6.4-2.6-6.5 2.6 6.5 2.6z"/><path class="st29" d="M233.5 164v.8l-6.4 2.6v-.8zm-12.9 0v.8l6.5 2.6v-.8zm4.3-3.5l-6.4-2.6-6.5 2.6 6.5 2.6z"/><path class="st29" d="M224.9 160.5v.8l-6.4 2.6v-.8zm-12.9 0v.8l6.5 2.6v-.8zm104 37.3v.8l-6.5 2.6v-.8z"/><path class="st29" d="M316 197.8l-11.8-4.8-6.5 2.6 11.8 4.8z"/><path class="st29" d="M297.7 195.6v.8l11.8 4.8v-.8zm-10.9 9.2l-1 .4-4.1-1.8v-.7zm-1-5.7l-6.5-2.7-6.4 2.7 6.4 2.6z"/><path class="st29" d="M285.8 199.1v.7l-6.5 2.7v-.8zm-12.9 0v.7l6.4 2.7v-.8zm4.2-3.6l-6.5-2.7-6.4 2.7 6.4 2.6z"/><path class="st29" d="M277.1 195.5v.8l-6.5 2.6v-.8zm-12.9 0v.8l6.4 2.6v-.8zm4.2-3.6l-6.4-2.6-6.5 2.6 6.5 2.7z"/><path class="st29" d="M268.4 191.9v.8l-6.4 2.7v-.8zm-12.9 0v.8l6.5 2.7v-.8zm4.2-3.5l-6.5-2.7-6.4 2.7 6.4 2.6z"/><path class="st29" d="M259.7 188.4v.7l-6.5 2.7v-.8z"/><path class="st29" d="M246.8 188.4v.7l6.4 2.7v-.8zm4.2-3.6l-6.5-2.7-6.4 2.7 6.4 2.6z"/><path class="st29" d="M251 184.8v.8l-6.5 2.6v-.8zm-12.9 0v.8l6.4 2.6v-.8zm4.4-3.4l-6.4-2.7-6.5 2.7 6.5 2.6z"/><path class="st29" d="M242.5 181.4v.7l-6.4 2.7v-.8zm-12.9 0v.7l6.5 2.7v-.8zm4.4-3.6l-6.5-2.6-6.4 2.6 6.4 2.7z"/><path class="st29" d="M234 177.8v.8l-6.5 2.7v-.8zm-12.9 0v.8l6.4 2.7v-.8zm4.3-3.5l-6.4-2.6-6.5 2.6 6.5 2.7z"/><path class="st29" d="M225.4 174.3v.8l-6.4 2.7v-.8zm-12.9 0v.8l6.5 2.7v-.8zm4.4-3.5l-6.4-2.6-6.5 2.6 6.5 2.7z"/><path class="st29" d="M216.9 170.8v.8l-6.4 2.7v-.8zm-12.9 0v.8l6.5 2.7v-.8zm4.5-3.4l-6.4-2.6-6.5 2.6 6.5 2.6z"/><path class="st29" d="M208.5 167.4v.8l-6.4 2.6v-.8zm-12.9 0v.8l6.5 2.6v-.8zm4.2-3.6l-6.4-2.6-6.5 2.6 6.5 2.7z"/><path class="st29" d="M199.8 163.8v.8l-6.4 2.7v-.8zm-12.9 0v.8l6.5 2.7v-.8zm4.1-3.6l-6.4-2.6-6.5 2.6 6.5 2.7z"/><path class="st29" d="M191 160.2v.8l-6.4 2.7v-.8zm-12.9 0v.8l6.5 2.7v-.8zm106.3 50.5l-6.1-2.4 7.5-3.1 1-.4-5.1-2.1 6.4-2.7 11.2 4.6zm14.9-5.3v-.8l-14.9 6.1v.8z"/><path class="st29" d="M278.3 208.3v.7l6.1 2.5v-.8zm-4.2-7.1l-6.4-2.6-6.5 2.6 6.5 2.7z"/><path class="st29" d="M274.1 201.2v.8l-6.4 2.7v-.8zm-12.9 0v.8l6.5 2.7v-.8zm21.1 3.4l-6.4-2.6-6.5 2.6 6.5 2.7zm0 0v.8l-6.4 2.6v-.7zm-12.9 0v.8l6.5 2.6v-.7zm-3.8-6.8l-6.4-2.7-6.5 2.7 6.5 2.6zm0 0v.8l-6.4 2.6v-.8zm-12.9 0v.8l6.5 2.6v-.8zm4.4-3.5l-6.4-2.7-6.5 2.7 6.5 2.6zm0 0v.8l-6.4 2.6v-.8zm-12.9 0v.8l6.5 2.6v-.8zm4.4-3.5l-6.4-2.6-6.5 2.6 6.5 2.6z"/><path class="st29" d="M248.6 190.8v.8l-6.4 2.6v-.8zm-12.9 0v.8l6.5 2.6v-.8zm4.4-3.5l-6.4-2.6-6.5 2.6 6.5 2.7zm0 0v.8l-6.4 2.6v-.7zm-12.9 0v.8l6.5 2.6v-.7zm4.4-3.5l-6.4-2.6-6.5 2.6 6.5 2.7z"/><path class="st29" d="M231.6 183.8v.8l-6.4 2.7v-.8zm-12.9 0v.8l6.5 2.7v-.8zm4.5-3.4l-6.5-2.7-6.4 2.7 6.4 2.6z"/><path class="st29" d="M223.2 180.4v.7l-6.5 2.7v-.8z"/><path class="st29" d="M210.3 180.4v.7l6.4 2.7v-.8zm4.4-3.5l-6.5-2.7-6.4 2.7 6.4 2.6z"/><path class="st29" d="M214.7 176.9v.8l-6.5 2.6v-.8z"/><path class="st29" d="M201.8 176.9v.8l6.4 2.6v-.8zm4.4-3.5l-6.5-2.6-6.4 2.6 6.4 2.6z"/><path class="st29" d="M206.2 173.4v.8l-6.5 2.6v-.8z"/><path class="st29" d="M193.3 173.4v.8l6.4 2.6v-.8zm4.4-3.5l-6.5-2.6-6.4 2.6 6.4 2.7zm0 0v.8l-6.5 2.6v-.7zm-12.9 0v.8l6.4 2.6v-.7zm4.5-3.4l-13.2-5.4-6.4 2.6 13.2 5.4zm-19.6-2.8v.8l13.2 5.4v-.8z"/><path class="st29" d="M189.3 166.5v.8l-6.4 2.6v-.8zm93.2 45l-6.4-2.7-6.5 2.7 6.5 2.6z"/><path class="st29" d="M282.5 211.5v.8l-6.4 2.6v-.8zm-12.9 0v.8l6.5 2.6v-.8zm4.4-3.5l-6.4-2.7-6.5 2.7 6.5 2.6z"/><path class="st29" d="M274 208v.8l-6.4 2.6v-.8zm-12.9 0v.8l6.5 2.6v-.8zm4.5-3.5l-6.5-2.6-6.4 2.6 6.4 2.6z"/><path class="st29" d="M265.6 204.5v.8l-6.5 2.6v-.8zm-12.9 0v.8l6.4 2.6v-.8zm4.4-3.5l-6.5-2.6-6.4 2.6 6.4 2.7z"/><path class="st29" d="M257.1 201v.8l-6.5 2.7v-.8zm-12.9 0v.8l6.4 2.7v-.8zm-4-6.8l-38.4-15.8-6.5 2.6 38.5 15.8z"/><path class="st29" d="M240.2 194.2v.7l-6.4 2.7v-.8z"/><path class="st29" d="M195.3 181v.8l38.5 15.8v-.8zm53.3 16.5l-6.5-2.6-6.4 2.6 6.4 2.7z"/><path class="st29" d="M248.6 197.5v.8l-6.5 2.7v-.8zm-12.9 0v.8l6.4 2.7v-.8zm-35.9-20l-6.5-2.6-6.4 2.6 6.4 2.7z"/><path class="st29" d="M199.8 177.5v.8l-6.5 2.7v-.8zm-12.9 0v.8l6.4 2.7v-.8zm4.3-3.4l-6.4-2.6-6.4 2.6 6.4 2.6z"/><path class="st29" d="M191.2 174.1v.8l-6.4 2.6v-.8z"/><path class="st29" d="M178.4 174.1v.8l6.4 2.6v-.8zm4.4-3.5l-6.5-2.7-6.4 2.7 6.4 2.6z"/><path class="st29" d="M182.8 170.6v.8l-6.5 2.6v-.8zm-12.9 0v.8l6.4 2.6v-.8zm4.4-3.5l-6.5-2.6-6.4 2.6 6.4 2.6z"/><path class="st29" d="M174.3 167.1v.8l-6.5 2.6v-.8zm-12.9 0v.8l6.4 2.6v-.8z"/><path class="st26" d="M321.5 199.2c0 1.2-1.2 2.6-2.6 3.1-1.4.6-2.5.1-2.5-1v-.1c0-.4.2-.8.4-1.1.4-.7 1.2-1.4 2-1.8 0 0 .1 0 .1-.1.1 0 .1 0 .2-.1.6-.2 1.2-.2 1.6-.1.5.2.8.6.8 1.2z"/><linearGradient id="SVGID_34_" gradientUnits="userSpaceOnUse" x1="1948.907" y1="469.925" x2="1953.322" y2="469.925" gradientTransform="matrix(1 0 0 -1 -1632.254 670.2)"><stop offset="0" stop-color="#f5f4ff"/><stop offset=".358" stop-color="#f2f0fd"/><stop offset=".688" stop-color="#e8e5f5"/><stop offset="1" stop-color="#d9d3e9"/></linearGradient><path d="M321.1 199.4c0 1-1 2.2-2.2 2.7s-2.2.1-2.2-.9 1-2.2 2.2-2.7c0 0 .1 0 .1-.1.5-.2 1-.2 1.4-.1.5.2.7.6.7 1.1z" fill="url(#SVGID_34_)"/><path class="st31" d="M208.4 181.8c-31.8 7-21.2 3.7-44.2 9.3-23.8 5.8-31.1 4.1-31.1 4.1s-10.5-8.5-23.3-29.6-19.7-42-34.8-42.1c-14.9-.2-14.3 19.1.2 45.6 9.1 16.5 16.8 22.4 31.4 37.7 8.7 9.2 12.7 17.9 18.3 17.3 36.2-3.7 40-6.3 88.3-28.7-.1-.1 2.8-15.2-4.8-13.6z"/><path class="st31" d="M245.7 166.1c-5.9-2.1-9.7-4.5-12.3-4.5-2.5 0-8.7.8-13 2.4s-7.1 9.4-9.6 13.6-7.1 5.2-7.1 5.2l8.1 12.5c10.3 0 27.8-3.6 30.4-8.4 2.6-4.9-1.6-3.3-5-2.1-3.4 1.3-8.2 2.4-9.3 1.3-1.1-1.1 5.5-12.9 10.6-14.8s8.4 3.7 11 2.7c2.8-.9 2.1-5.8-3.8-7.9z"/><linearGradient id="SVGID_35_" gradientUnits="userSpaceOnUse" x1="124.128" y1="423.644" x2="67.32" y2="511.697" gradientTransform="matrix(1 0 0 -1 0 670.2)"><stop offset="0" stop-color="#fff"/><stop offset="1" stop-color="#f7fbff"/></linearGradient><path id="SVGID_21_" d="M164.8 135.4c-.8-2-2.3-3.8-4.3-5-20.4-12.4-51.5-27.1-70-25.8-9.4.7-18.6 4.1-26.5 23.4-4.2 10.3-10.9 34.7-10.8 69.2 0 25.5-3.6 65.4-3.5 104.8 0 31.7 117.6 26.2 110.6-2.6-6.9-28.1-5.6-62.9-1.9-83.9 2.5-14.1 7.5-32.6 4.3-45.7-3.4-14 3.9-29.9 2.1-34.4z" fill="url(#SVGID_35_)"/><defs><path id="SVGID_36_" d="M164.8 135.4c-.8-2-2.3-3.8-4.3-5-20.4-12.4-51.5-27.1-70-25.8-9.4.7-18.6 4.1-26.5 23.4-4.2 10.3-10.9 34.7-10.8 69.2 0 25.5-3.6 65.4-3.5 104.8 0 31.7 117.6 26.2 110.6-2.6-6.9-28.1-5.6-62.9-1.9-83.9 2.5-14.1 7.5-32.6 4.3-45.7-3.4-14 3.9-29.9 2.1-34.4z"/></defs><clipPath id="SVGID_37_"><use xlink:href="#SVGID_36_" overflow="visible"/></clipPath><path d="M138.9 255.4c13.5-55.4 29-102.4 8.9-119.2C125 117 79.6 105 76.9 107.1c-23.3 18.1-15.8 50.7-30.2 84.8-17.5 41.4 32.2 59.8 24.9 88.8-7.5 29.7 67.6 52.8 67.6 52.8 16.5 7.1 83.4 19.8 83.4 18.9.1 0-92.6-60.2-83.7-97z" clip-path="url(#SVGID_37_)" fill="#d4e6fc"/><linearGradient id="SVGID_38_" gradientUnits="userSpaceOnUse" x1="346.749" y1="431.935" x2="329.872" y2="431.791" gradientTransform="matrix(1 0 0 -1 0 670.2)"><stop offset="0" stop-color="#d4e6fc"/><stop offset=".493" stop-color="#c2dbff"/><stop offset=".966" stop-color="#91beff"/></linearGradient><path d="M386.3 233c0-.3-.7 1.5-1 1.3l-31.9-11.6c-2.4-.9-5.1-.9-7.5 0L300 236.9c-1.3.9-1 1.7-1 3.8 0 .7.3 1.3 1 1.6l31.9 11.6c2.4.9 5.1.9 7.5 0l45.9-16.7c.7-.3 1-.9 1-1.5V233z" fill="url(#SVGID_38_)"/><linearGradient id="SVGID_39_" gradientUnits="userSpaceOnUse" x1="340.887" y1="492.962" x2="346.714" y2="298.977" gradientTransform="matrix(1 0 0 -1 0 670.2)"><stop offset="0" stop-color="#fff"/><stop offset="1" stop-color="#c2dbff"/></linearGradient><path d="M385.3 231.8l-31.9-11.6c-2.4-.9-5.1-.9-7.5 0L300 236.9c-1.3.5-1.3 2.4 0 2.9l31.9 11.6c2.4.9 5.1.9 7.5 0l45.9-16.7c1.4-.5 1.4-2.4 0-2.9z" fill="url(#SVGID_39_)"/><linearGradient id="SVGID_40_" gradientUnits="userSpaceOnUse" x1="351.404" y1="576.578" x2="342.247" y2="434.215" gradientTransform="matrix(1 0 0 -1 0 670.2)"><stop offset="0" stop-color="#f6faff"/><stop offset=".173" stop-color="#f1f7ff"/><stop offset=".364" stop-color="#e4efff"/><stop offset=".563" stop-color="#cee2ff"/><stop offset=".651" stop-color="#c2dbff"/><stop offset="1" stop-color="#c2dbff"/></linearGradient><path fill="url(#SVGID_40_)" d="M300.9 237.8l35.7 13.1 47.1-17.1-35.7-13.2z"/><path transform="rotate(-52.333 312.865 223.57)" fill="#91beff" d="M311.5 196.7h2.7v53.8h-2.7z"/><path class="st9" d="M158.2 128.4c-3-1.8-13.1-2.4-20.6 5-7.5 7.5-5.2 45 5.8 66.5 14.8 28.9 24.9-13.5 30.1-15.9s-5.1-43.5-6.9-47.8c-1.8-4.2-8.4-7.8-8.4-7.8z"/><path class="st25" d="M408.4 261l-46.6 14.4c-1.7.5-4.6.5-6.3 0l-65.2-20.2c-1.3-.4-1.6-1-1-1.5l.1-.1.1-.1c.1-.1.2-.1.3-.2.1 0 .1 0 .2-.1.1 0 .1 0 .2-.1l46.6-14.4c1.7-.5 4.6-.5 6.3 0l65.2 20.2c.1 0 .1 0 .2.1.1 0 .1 0 .2.1.3.1.5.3.7.4.6.6.3 1.1-1 1.5z"/><linearGradient id="SVGID_41_" gradientUnits="userSpaceOnUse" x1="288.817" y1="406.8" x2="358.758" y2="406.8" gradientTransform="matrix(1 0 0 -1 0 670.2)"><stop offset=".237" stop-color="#191246"/><stop offset=".376" stop-color="#1e1756"/><stop offset=".648" stop-color="#2a2580"/><stop offset=".885" stop-color="#3632a9"/><stop offset="1" stop-color="#453eb8"/></linearGradient><path d="M358.8 273.9v1c-1.1 0-2.3-.1-3.2-.4l-65.2-20.2c-1.4-.4-2.1-1.6-1-2.4-.5.5-.2 1 1 1.4l65.2 20.2c.9.2 2 .4 3.2.4z" fill="url(#SVGID_41_)"/><linearGradient id="SVGID_42_" gradientUnits="userSpaceOnUse" x1="358.731" y1="404" x2="409.931" y2="404" gradientTransform="matrix(1 0 0 -1 0 670.2)"><stop offset="0" stop-color="#453eb8"/><stop offset=".115" stop-color="#3632a9"/><stop offset=".351" stop-color="#2a2580"/><stop offset=".624" stop-color="#1e1756"/><stop offset=".763" stop-color="#191246"/></linearGradient><path d="M408.4 260l-46.6 14.4c-.9.3-2 .4-3.1.4v-1c1.1 0 2.3-.1 3.1-.4l46.6-14.4c1.2-.4 1.6-.9 1.1-1.4 1 .8.3 2-1.1 2.4z" fill="url(#SVGID_42_)"/><linearGradient id="SVGID_43_" gradientUnits="userSpaceOnUse" x1="341.182" y1="437.388" x2="357.478" y2="392.615" gradientTransform="matrix(1 0 0 -1 0 670.2)"><stop offset="0" stop-color="#453eb8"/><stop offset=".189" stop-color="#3632a9"/><stop offset=".484" stop-color="#2a2580"/><stop offset=".825" stop-color="#1e1756"/><stop offset="1" stop-color="#191246"/></linearGradient><path d="M408.4 259l-46.6 14.4c-1.7.5-4.6.5-6.3 0l-65.2-20.2c-1.3-.4-1.6-1-1-1.5l.1-.1.1-.1c.1-.1.2-.1.3-.2.1 0 .1 0 .2-.1.1 0 .1 0 .2-.1l46.6-14.4c1.7-.5 4.6-.5 6.3 0l65.2 20.2c.1 0 .1 0 .2.1.1 0 .1 0 .2.1.3.1.5.3.7.4.6.6.3 1.2-1 1.5z" fill="url(#SVGID_43_)"/><linearGradient id="SVGID_44_" gradientUnits="userSpaceOnUse" x1="319.519" y1="426.884" x2="323.254" y2="420.415" gradientTransform="matrix(1 0 0 -1 0 670.2)"><stop offset=".237" stop-color="#191246"/><stop offset=".376" stop-color="#1e1756"/><stop offset=".648" stop-color="#2a2580"/><stop offset=".885" stop-color="#3632a9"/><stop offset="1" stop-color="#453eb8"/></linearGradient><path d="M316.8 248c-2.6-.8-2.6-2.1 0-2.9s6.8-.8 9.3 0 2.6 2.1 0 2.9-6.7.8-9.3 0z" fill="url(#SVGID_44_)"/><linearGradient id="SVGID_45_" gradientUnits="userSpaceOnUse" x1="318.727" y1="425.9" x2="324.083" y2="421.406" gradientTransform="matrix(1 0 0 -1 0 670.2)"><stop offset="0" stop-color="#453eb8"/><stop offset=".283" stop-color="#3632a9"/><stop offset="1" stop-color="#191246"/></linearGradient><path d="M318.3 247.5c-1.7-.5-1.7-1.4.1-1.9 1.7-.5 4.5-.5 6.2 0s1.7 1.4-.1 1.9c-1.7.5-4.5.5-6.2 0z" fill="url(#SVGID_45_)"/><linearGradient id="SVGID_46_" gradientUnits="userSpaceOnUse" x1="331.138" y1="428.99" x2="333.397" y2="425.077" gradientTransform="matrix(1 0 0 -1 0 670.2)"><stop offset="0" stop-color="#191246"/><stop offset=".717" stop-color="#3632a9"/><stop offset="1" stop-color="#453eb8"/></linearGradient><path d="M329.3 245.1c-.3 0-.5 0-.7-.1l-1.9-.6c-.2-.1-.3-.2-.3-.3 0-.1.1-.2.3-.3l8-2.5c.2-.1.4-.1.7-.1.3 0 .5 0 .7.1l1.8.6c.2.1.3.2.3.3 0 .1-.1.2-.3.3l-8 2.5c-.1 0-.4.1-.6.1z" fill="url(#SVGID_46_)"/><linearGradient id="SVGID_47_" gradientUnits="userSpaceOnUse" x1="331.277" y1="428.924" x2="333.412" y2="425.225" gradientTransform="matrix(1 0 0 -1 0 670.2)"><stop offset="0" stop-color="#453eb8"/><stop offset=".283" stop-color="#3632a9"/><stop offset="1" stop-color="#191246"/></linearGradient><path d="M326.8 243.9c-.3.1-.3.3 0 .4l1.9.6c.3.1.9.1 1.3 0l8-2.5c.3-.1.3-.3 0-.4l-1.8-.6c-.3-.1-.9-.1-1.3 0l-8.1 2.5z" fill="url(#SVGID_47_)"/><linearGradient id="SVGID_48_" gradientUnits="userSpaceOnUse" x1="309.365" y1="422.243" x2="311.624" y2="418.331" gradientTransform="matrix(1 0 0 -1 0 670.2)"><stop offset="0" stop-color="#191246"/><stop offset=".717" stop-color="#3632a9"/><stop offset="1" stop-color="#453eb8"/></linearGradient><path d="M307.5 251.8c-.3 0-.5 0-.7-.1l-1.9-.6c-.2-.1-.3-.2-.3-.3s.1-.2.3-.3l8-2.5c.2-.1.4-.1.7-.1.3 0 .5 0 .7.1l1.8.6c.2.1.3.2.3.3s-.1.2-.3.3l-8 2.5c-.1.1-.3.1-.6.1z" fill="url(#SVGID_48_)"/><linearGradient id="SVGID_49_" gradientUnits="userSpaceOnUse" x1="309.459" y1="422.154" x2="311.594" y2="418.456" gradientTransform="matrix(1 0 0 -1 0 670.2)"><stop offset="0" stop-color="#453eb8"/><stop offset=".283" stop-color="#3632a9"/><stop offset="1" stop-color="#191246"/></linearGradient><path d="M305 250.7c-.3.1-.3.3 0 .4l1.9.6c.3.1.9.1 1.3 0l8-2.5c.3-.1.3-.3 0-.4l-1.8-.6c-.3-.1-.9-.1-1.3 0l-8.1 2.5z" fill="url(#SVGID_49_)"/><linearGradient id="SVGID_50_" gradientUnits="userSpaceOnUse" x1="307.358" y1="419.8" x2="310.643" y2="419.8" gradientTransform="matrix(1 0 0 -1 0 670.2)"><stop offset="0" stop-color="#191246"/><stop offset=".717" stop-color="#3632a9"/><stop offset="1" stop-color="#453eb8"/></linearGradient><path fill="url(#SVGID_50_)" d="M310.5 250.9l-3.1-1h.2l3.1.9z"/><linearGradient id="SVGID_51_" gradientUnits="userSpaceOnUse" x1="310.458" y1="420.8" x2="313.743" y2="420.8" gradientTransform="matrix(1 0 0 -1 0 670.2)"><stop offset="0" stop-color="#191246"/><stop offset=".717" stop-color="#3632a9"/><stop offset="1" stop-color="#453eb8"/></linearGradient><path fill="url(#SVGID_51_)" d="M313.6 249.9l-3.1-.9.2-.1 3.1 1z"/><linearGradient id="SVGID_53_" gradientUnits="userSpaceOnUse" x1="329.129" y1="426.6" x2="332.413" y2="426.6" gradientTransform="matrix(1 0 0 -1 0 670.2)"><stop offset="0" stop-color="#191246"/><stop offset=".717" stop-color="#3632a9"/><stop offset="1" stop-color="#453eb8"/></linearGradient><path fill="url(#SVGID_53_)" d="M332.3 244.1l-3.1-.9.1-.1 3.2 1z"/><linearGradient id="SVGID_55_" gradientUnits="userSpaceOnUse" x1="332.233" y1="427.5" x2="335.517" y2="427.5" gradientTransform="matrix(1 0 0 -1 0 670.2)"><stop offset="0" stop-color="#191246"/><stop offset=".717" stop-color="#3632a9"/><stop offset="1" stop-color="#453eb8"/></linearGradient><path fill="url(#SVGID_55_)" d="M335.4 243.2l-3.1-1h.2l3.1.9z"/><path d="M356.6 270.9c1.2.4 3.2.4 4.4 0l39.1-12.1c1.2-.4 1.2-1 0-1.4l-46.9-14.5c-1.2-.4-3.2-.4-4.4 0l-39.1 12.2c-1.2.4-1.2 1 0 1.4l46.9 14.4z" opacity=".7" fill="#cbddff"/><path class="st25" d="M342.5 248.8c-1.5-2.6-2.4-4.5-4.7-6.2-3.4-2.6-7.4-4.8-11-7.1-10.4-6.7-20.8-13.5-31.2-20.2-1.4-.9-2.8-1.9-4.2-2.8-4.1-2.4-6.6 1.5-3 4.3 5.9 4.6 12.4 8.6 18.6 12.9 7.5 5.2 15 10 22.6 15.1 2.9 2 7.4 4.7 7.4 4.7s3.9.8 6.9.9c-.4-.5-.8-1.2-1.4-1.6z"/><linearGradient id="SVGID_56_" gradientUnits="userSpaceOnUse" x1="316.015" y1="-481.299" x2="315.51" y2="-480.424" gradientTransform="scale(1 -1) rotate(-63.978 515.888 -387.029)"><stop offset="0" stop-color="#d3cfe5"/><stop offset=".526" stop-color="#f1ebf4"/><stop offset=".874" stop-color="#dcd7e9"/><stop offset="1" stop-color="#d3cfe5"/></linearGradient><path d="M344.4 248.8l-1.3-.3c0-.2.1-.5.1-.6.1-.1.2-.3.3-.3l.9 1.2z" fill="url(#SVGID_56_)"/><linearGradient id="SVGID_57_" gradientUnits="userSpaceOnUse" x1="314.652" y1="-485.165" x2="311.387" y2="-479.51" gradientTransform="scale(1 -1) rotate(-63.978 515.888 -387.029)"><stop offset="0" stop-color="#191246"/><stop offset=".601" stop-color="#3632a9"/><stop offset=".746" stop-color="#2a2580"/><stop offset=".914" stop-color="#1e1756"/><stop offset="1" stop-color="#191246"/></linearGradient><path d="M343.1 248.5s-2.2-.2-2.9-.2c-.7 0-2.6-.3-2.6-.3h-.1c.2 0 .3-.1.5-.2s.5-.3.7-.5c.5-.4.9-.9 1.3-1.4.6-.8.9-1.7 1-2.6 0-.4 0-.7-.1-.9l2.7 5.2c-.2.1-.2.2-.3.3-.1.1-.2.4-.2.6z" fill="url(#SVGID_57_)"/><linearGradient id="SVGID_58_" gradientUnits="userSpaceOnUse" x1="312.509" y1="-486.443" x2="309.123" y2="-480.578" gradientTransform="scale(1 -1) rotate(-63.978 515.888 -387.029)"><stop offset="0" stop-color="#d3cfe5"/><stop offset=".526" stop-color="#f1ebf4"/><stop offset=".874" stop-color="#dcd7e9"/><stop offset="1" stop-color="#d3cfe5"/></linearGradient><path d="M338 247.8c-.2.1-.3.1-.5.2 0 0-.1 0-.1-.1 0 0-.1-.1-.3-.2.2 0 .4-.1.5-.2.2-.1.5-.3.7-.5.5-.4.9-.9 1.3-1.4.6-.8.9-1.7 1-2.6 0-.4 0-.7-.1-.9l-.1-.2c0-.1-.1-.2-.2-.2l.4.2c.1.1.2.2.2.3l.1.2c.1.3.1.6.1.9-.1.9-.4 1.8-1 2.6-.4.5-.8 1-1.3 1.4-.2.2-.5.4-.7.5z" fill="url(#SVGID_58_)"/><linearGradient id="SVGID_59_" gradientUnits="userSpaceOnUse" x1="286.333" y1="-501.641" x2="282.915" y2="-495.72" gradientTransform="scale(1 -1) rotate(-63.978 515.888 -387.029)"><stop offset="0" stop-color="#191246"/><stop offset=".601" stop-color="#3632a9"/><stop offset=".746" stop-color="#2a2580"/><stop offset=".914" stop-color="#1e1756"/><stop offset="1" stop-color="#191246"/></linearGradient><path d="M337.6 247.5c-.2.1-.4.1-.5.2-.3-.2-.7-.5-1.2-.8-.1-.1-.3-.2-.4-.3l-2.7-1.8c-.7-.4-1.3-.8-1.7-1.1-.1-.1-.3-.2-.4-.3-.7-.5-1.5-1-2.3-1.6-.3-.2-.6-.4-1-.7-1.3-.9-2.8-2-4.5-3.1-.4-.3-.8-.5-1.2-.8-.1-.1-.3-.2-.4-.3-.4-.3-.8-.5-1.2-.8-.1-.1-.3-.2-.4-.3-.4-.3-.8-.5-1.2-.8-.1-.1-.3-.2-.4-.3-.7-.5-1.4-.9-2-1.4-.4-.3-.8-.6-1.3-.9-2.1-1.4-4.2-2.9-6.3-4.3-.1-.1-.3-.2-.4-.3-.8-.6-1.6-1.1-2.4-1.7-.7-.5-1.3-.9-2-1.4-.4-.3-.8-.5-1.1-.8-.5-.3-1-.7-1.5-1s-1-.7-1.4-1c-.2-.2-.5-.3-.7-.5s-.4-.3-.7-.5c-.2-.1-.4-.3-.6-.4-.2-.2-.4-.3-.6-.4s-.4-.3-.6-.4c-.3-.2-.7-.5-1-.7-.2-.1-.4-.3-.5-.4-.4-.2-.7-.5-1-.7-.2-.1-.3-.2-.5-.3-.4-.3-.8-.6-1.2-.8-.1-.1-.2-.2-.3-.2-.1-.1-.3-.2-.4-.3-.1-.1-.2-.2-.3-.2-.1 0-.1-.1-.2-.1l-.1-.1c-.1-.1-.2-.1-.2-.1l-.2-.1-.1-.1-.1-.1-.2-.1-.1-.1-2-1.3h-.1l-.1-.1h-.1c-.2-.2-.4-.6-.3-1.1 0-.2 0-.4.1-.6.1-.4.3-.8.6-1.2.4-.6.9-1.1 1.4-1.3.5-.2.9-.3 1.2-.1 0 0 .1 0 .1.1l2.2 1.4.6.4.2.1.2.1h.1l.1.1 45.6 29.5.6.4.2.2.1.2c.1.3.1.6.1.9-.1.9-.4 1.8-1 2.6-.4.5-.8 1-1.3 1.4-.5.2-.8.4-1 .5z" fill="url(#SVGID_59_)"/><linearGradient id="SVGID_60_" gradientUnits="userSpaceOnUse" x1="-143.786" y1="-514.675" x2="-146.292" y2="-512.921" gradientTransform="rotate(-116.022 298.628 -286.68)"><stop offset="0" stop-color="#191246"/><stop offset=".175" stop-color="#1e1756"/><stop offset=".516" stop-color="#2a2580"/><stop offset=".811" stop-color="#3632a9"/><stop offset="1" stop-color="#453eb8"/></linearGradient><path d="M289.4 209.6c-.5.3-1 .7-1.4 1.3-.3.4-.5.8-.6 1.2-.1.2-.1.4-.1.6 0 .5.1.9.3 1.1 0 0 .1.1.2.1h.1c.3.1.7.1 1.2-.1.2-.1.3-.2.5-.3.3-.3.6-.6.9-1 .4-.6.6-1.2.7-1.8 0-.6-.1-1-.4-1.2 0 0-.1 0-.1-.1-.4-.1-.8-.1-1.3.2z" fill="url(#SVGID_60_)"/><linearGradient id="SVGID_61_" gradientUnits="userSpaceOnUse" x1="304.066" y1="-490.545" x2="302.738" y2="-488.246" gradientTransform="scale(1 -1) rotate(-63.978 515.888 -387.029)"><stop offset="0" stop-color="#d3cfe5"/><stop offset=".526" stop-color="#f1ebf4"/><stop offset=".874" stop-color="#dcd7e9"/><stop offset="1" stop-color="#d3cfe5"/></linearGradient><path d="M325.7 237.6c.1-.8 1.3-.8 2.6.2l5 3.4c1.4.9 2.5 2.4 2.4 3.2-.1.8-1.3.8-2.6-.2l-5-3.4c-1.4-.9-2.5-2.3-2.4-3.2z" fill="url(#SVGID_61_)"/><linearGradient id="SVGID_62_" gradientUnits="userSpaceOnUse" x1="304.612" y1="-489.937" x2="303.612" y2="-488.205" gradientTransform="scale(1 -1) rotate(-63.978 515.888 -387.029)"><stop offset="0" stop-color="#191246"/><stop offset=".601" stop-color="#3632a9"/><stop offset=".746" stop-color="#2a2580"/><stop offset=".914" stop-color="#1e1756"/><stop offset="1" stop-color="#191246"/></linearGradient><path d="M327.5 239c0-.6.9-.6 2 .1l3.8 2.5c1.1.7 1.9 1.8 1.8 2.4 0 .6-.9.6-2-.1l-3.8-2.5c-1-.7-1.8-1.8-1.8-2.4z" fill="url(#SVGID_62_)"/><path class="st59" d="M339.4 236c-.6-1.7-11.1-7.8-18.3-11.9-1.9-1.1-10.6-1.3-14.7-1.9-11.7-1.7-17 7.4-24.9 8.3-32.7-1.1-22 1.8-47.4-2.4-24.1-4-27.6-.5-34.2-5.9-5.6-4.6-4.8-15.9-16.4-41.2-11.3-24.7-10.5-45.5-26.8-49.9-16-4.3-20.4 13.2-15.3 46 2.2 13.9 7.7 25.9 13.1 33.3 3.6 5 5.8 16.1 9.3 24.4 5.5 12.9 13.7 20.6 20 20.9 37.5 1.3 43 .9 99.3-9 1.2.3 11.3 2.9 17 3.6 6.1.8 15.3 1.5 20.7 5 5.4 3.5 14.2-6.6 12.6-10.3s-5.2-9.1-5.2-9.1c8.6 5.1 11.8 1.9 11.2.1z"/><path d="M172.7 179.4c1.4 10.3 12.1 40.5 18.4 49.9 6.3 9.5 47.8 8.9 55.7 8.9s36.4-1 42.1-1c5.8 0 28.9 11 34 11.6 3.1.3 7.5-2 10.6-4-1.7-3.7-5.1-8.9-5.1-8.9 8.5 5 11.6 1.8 11 0-.6-1.7-11.1-7.8-18.3-11.9-1.9-1.1-10.6-1.3-14.7-1.9-11.7-1.8-17 7.4-24.9 8.3-32.7-1.1-22 1.8-47.4-2.4-24.1-4-27.6-.5-34.2-5.9-5.6-4.6-4.8-15.9-16.4-41.2-11.3-24.7-10.5-45.5-26.8-49.9-1.2-.3-2.3-.5-3.4-.6 12.1 20.9 18.1 40 19.4 49z" opacity=".42" fill="#feddd3"/><path d="M156.5 500.5c-4.8 0-8.7 3.9-8.7 8.7 0 4.8 3.9 8.7 8.7 8.7 4.8 0 8.7-3.9 8.7-8.7-.1-4.8-3.9-8.7-8.7-8.7zm-103-24.3c-4.8 0-8.7 3.9-8.7 8.7s3.9 8.7 8.7 8.7 8.7-3.9 8.7-8.7-3.9-8.7-8.7-8.7zm37.2-39.4c-4.8 0-8.7 3.9-8.7 8.7s3.9 8.7 8.7 8.7 8.7-3.9 8.7-8.7c-.1-4.9-3.9-8.7-8.7-8.7zm131.6 0c-4.8 0-8.7 3.9-8.7 8.7s3.9 8.7 8.7 8.7c4.8 0 8.7-3.9 8.7-8.7-.1-4.9-3.9-8.7-8.7-8.7zm37.2 39.4c-4.8 0-8.7 3.9-8.7 8.7s3.9 8.7 8.7 8.7c4.8 0 8.7-3.9 8.7-8.7-.1-4.8-4-8.7-8.7-8.7z" fill="#97b6e6"/><linearGradient id="SVGID_63_" gradientUnits="userSpaceOnUse" x1="173.03" y1="171.693" x2="436.204" y2="225.542" gradientTransform="matrix(1 0 0 -1 0 670.2)"><stop offset="0" stop-color="#6a808d"/><stop offset="1" stop-color="#d0e1ed"/></linearGradient><path d="M260.1 477.2c-4.2 0-7.5 1.6-7.5 3.5s3.4 3.5 7.5 3.5c4.2 0 7.5-1.6 7.5-3.5.1-1.9-3.3-3.5-7.5-3.5z" fill="url(#SVGID_63_)"/><linearGradient id="SVGID_64_" gradientUnits="userSpaceOnUse" x1="69.387" y1="153.784" x2="332.559" y2="207.633" gradientTransform="matrix(1 0 0 -1 0 670.2)"><stop offset="0" stop-color="#6a808d"/><stop offset="1" stop-color="#d0e1ed"/></linearGradient><path d="M156.5 495.1c-4.2 0-7.5 1.6-7.5 3.5s3.4 3.5 7.5 3.5c4.2 0 7.5-1.6 7.5-3.5s-3.3-3.5-7.5-3.5z" fill="url(#SVGID_64_)"/><path d="M265.9 469.8c-.8-.2-1.3.2-2.2.1l-72.8-7.7 40.1-17c1.7-.7 2.5-1.6 2.5-2.4v-14.1l-6.4 3v.6c-5.8-1.1-13.4-.7-17.5 1l-48.2 20.4c-2.4 1-7.3 1-9.7 0l-48.2-20.8c-4.1-1.8-11.7-2.2-17.5-1.2v-.6l-6.4-3.3v14.5c.1.8.9 1.6 2.5 2.3l40.1 17.3-72.8 7c-1 .1-1.1-.4-1.9-.2l-.8-.1-6.4-3v14c0 .4.2.8.6 1.2 2.3 2.2 9.7 3.4 16.6 2.7l78-7.5c3.9-.4 7.9.5 7.9 1.8v25.5c0 2.3 5.9 4.1 13.2 4.2 7.3 0 13.2-1.8 13.2-4V478c0-1.3 4-2.2 7.9-1.7l78 8.2c6.9.7 14.4-.4 16.6-2.6.4-.4.6-.8.6-1.2v-14l-6.4 3-.6.1z" fill="#d4e6fc"/><g opacity=".92"><linearGradient id="SVGID_65_" gradientUnits="userSpaceOnUse" x1="155.234" y1="275.534" x2="159.213" y2="56.703" gradientTransform="matrix(1 0 0 -1 0 670.2)"><stop offset="0" stop-color="#fff"/><stop offset="1" stop-color="#f7fbff"/></linearGradient><path d="M263.7 462.7l-78-8.2c-3.9-.4-5.4-1.9-3-2.9l48.2-20.4c4.3-1.8 3-4.4-2.9-5.7-5.9-1.4-14.1-1-18.4.8l-48.2 20.4c-2.4 1-7.3 1-9.7 0l-48.2-20.8c-4.3-1.9-12.5-2.3-18.4-1-5.9 1.3-7.2 3.9-2.9 5.7l48.2 20.8c2.4 1 .9 2.5-3 2.9l-78 7.5c-6.9.7-10.7 3-8.5 5.1 2.3 2.2 9.7 3.4 16.6 2.7l78-7.5c3.9-.4 7.9.5 7.9 1.8v25.5c0 2.3 5.9 4.1 13.2 4.2 7.3 0 13.2-1.8 13.2-4v-25.5c0-1.3 4-2.2 7.9-1.7l78 8.2c6.9.7 14.4-.4 16.6-2.6 2.1-2.2-1.7-4.6-8.6-5.3z" fill="url(#SVGID_65_)"/></g><linearGradient id="SVGID_66_" gradientUnits="userSpaceOnUse" x1="133.412" y1="256.125" x2="171.555" y2="256.125" gradientTransform="matrix(1 0 0 -1 0 670.2)"><stop offset="0" stop-color="#f7fbff"/><stop offset=".854" stop-color="#c2dbff"/></linearGradient><path d="M147.8 369.4s.2 77.7 0 86.2c-.1 4.1 17.3 4.3 17.3 0v-86.2h-17.3z" fill="url(#SVGID_66_)"/><linearGradient id="SVGID_67_" gradientUnits="userSpaceOnUse" x1="68.758" y1="596.555" x2="167.459" y2="301.597" gradientTransform="matrix(1 0 0 -1 0 670.2)"><stop offset="0" stop-color="#f7fbff"/><stop offset=".854" stop-color="#c2dbff"/></linearGradient><path d="M184.4 363.4c-27.1-4.1-69.9-122-84.6-164.6-3.3-9.5-11.1-16.8-20.8-19.4l-64.2-17.2c-8.4-2.3-16.3 5.1-14.5 13.7 0 0 24.1 112.3 50.7 151.6 17.9 26.4 57.5 49.3 106 49.3 14.2 0 28.8-1.8 42.9-4.6 29.2-5.2 53.5-13.8 69.9-20.8 6.6-2.8-45.1 18-85.4 12z" fill="url(#SVGID_67_)"/><path class="st9" d="M133.9 111.9l-31.7-5.9c-6.5 2.4-10.8 2.5-10.8 8.6s11.8 11.6 21.2 11.6c9.4 0 25.3-1.3 26.1-6.1 1-4.8-4.8-8.2-4.8-8.2z"/><path d="M273.3 335.2c-9.7 5.5-18.3 9-41.5 15.3-23.3 6.3-56.4 7-68.3-7.3-21.8-26.4-34.6-113.2-49.9-149.5-5.3-12.7-19.3-17.9-38-22.9l-44.7-12c-7-1.9-10.9-2.3-17.5.1-3.9 1.4-8.8 5.3-8.8 5.3 3.6-2.2 5.8-3.1 11.9-1.5l44.7 12c18.7 5 32.2 7.9 38.1 23.3 12.6 32.9 29.6 134.2 51.1 157 17.9 18.9 57.9 15.9 81.2 9.6 35.3-9.5 42.4-15.5 42.4-15.5 1.8-1.7 3.3-3.4 3.5-5.4l-.1-15.5c0 2.5-1.4 5.5-4.1 7z" fill="#f7fbff"/><path id="SVGID_52_" class="st59" d="M97 113.7c-5.9 7.2 38.9 12.5 38.2 3.3s7.3-24.6 9-31c1.2-4.3-28.1-33-35.5 1.4-1.7 7.7-5.7 19-11.7 26.3z"/><defs><path id="SVGID_68_" d="M97 113.7c-5.9 7.2 38.9 12.5 38.2 3.3s7.3-24.6 9-31c1.2-4.3-28.1-33-35.5 1.4-1.7 7.7-5.7 19-11.7 26.3z"/></defs><clipPath id="SVGID_69_"><use xlink:href="#SVGID_68_" overflow="visible"/></clipPath><path d="M101.9 88.3c-1.9 6.1-40.2 36.1 24.1 35.1 0 0 6.9-21.2 18-19.6 7.1 1-42.1-15.5-42.1-15.5z" opacity=".18" clip-path="url(#SVGID_69_)" fill="#edbaa8"/><path class="st71" d="M168.1 22c-6.8-3.7-16.2-5-25.7-.4-4 2-9 1-12.6-.8-8.6-4.4-32.5 4.6-31.4 23 4.6 8.2 4.3 7.6 14 13.4 5.8 3.4 36.2.4 38.7 5l5.7-5.1c13.4 4.8 35.9-21.8 11.3-35.1z"/><path class="st12" d="M138 50.5c-.3-5.8 10.6-8 15.2-6.2 14.9 5.8 18.6 4.7 20.9 5.9 6.7-7.9 8.5-20.3-6-28.1-6.8-3.7-16.2-5-25.7-.4-4 2-9 1-12.6-.8-8.6-4.4-32.5 4.6-31.4 23 4.6 8.2 4.3 7.6 14 13.4 2.5 1.5 9.7 1.8 17.3 2 4.5-3.1 8.5-5.7 8.3-8.8z"/><path class="st72" d="M138 50.5c.1 3.1-3.8 5.7-8.4 8.7 9.8.3 20 .4 21.5 3l5.7-5.1c5.5 1.9 12.6-1.4 17.3-7-2.3-1.2-6-.1-20.9-5.9-4.6-1.7-15.4.5-15.2 6.3z"/><path class="st9" d="M142.3 45.1c-16.7 6.8-39.3 7.2-43.9-1.2 1.9 20.5 5.4 33.3 8.6 48.8l20.1 4.5 24-35c-2.5-5-2.4-19.7-8.8-17.1z"/><path class="st12" d="M147.3 67.8l3.8-5.6c-.3-.5-.5-1.1-.7-1.8l-3.1 7.4zm-33.6 23.7c8.4-7.2 23.6-31.8 26.6-43.1.4-1.5 1.4-2.7 2.7-3.5-.2.1-.4.1-.7.2-16.7 6.8-39.3 7.2-43.9-1.2 1.9 20.5 5.4 33.3 8.6 48.8l5 1.1c.2-.7.7-1.5 1.7-2.3z"/><path class="st72" d="M142.9 44.9c-1.3.7-2.3 2-2.7 3.5-3 11.3-18.2 35.9-26.6 43.1-1 .8-1.5 1.6-1.7 2.4l15.1 3.4 20.2-29.4 3.1-7.4c-1.7-5.9-2.3-16.8-7.4-15.6z"/><path id="SVGID_54_" class="st59" d="M136 70.1c-1.9 3.8-3.8 10.3-.8 14.8-5.6 6.9-14.5 10.7-13.9 10.9 9 4.3 18.9 8.4 22.3 8.7 7.3.6 12.5-21.5 13.3-25.7 1.2-6.6-1.7-7.7-2.1-14.2-.2-3.7 3.3-10.4 3.3-10.4-5.2-2.9-6.2-2.3-12.9 12.4-1.6 3.6-3.4-8.2-9.2 3.5z"/><path d="M139 69.4c-1.5 2.2-4.3 12.8.1 11.1 2-.7 2.8-4.4 3.1-6.1.8-6.6-1.7-7.2-3.2-5z" fill="#c4a0ae"/><path class="st71" d="M415.6 429.1c-.7-.3-1.5.1-1.8.8s.1 1.5.8 1.8c6.9 2.7 5.9 11.4 5.8 11.7-.1.8.4 1.4 1.2 1.6h.2c.7 0 1.3-.5 1.4-1.2.5-3.9-.4-11.9-7.6-14.7zm8.1-.6c-.7-.3-1.5.1-1.8.8s.1 1.5.8 1.8c6.9 2.7 5.9 11.4 5.8 11.7-.1.8.4 1.4 1.2 1.6h.2c.7 0 1.3-.5 1.4-1.2.5-3.9-.4-11.9-7.6-14.7zm9.6-.5c-.7-.3-1.5.1-1.8.8s.1 1.5.8 1.8c6.9 2.7 5.9 11.4 5.8 11.7-.1.8.4 1.4 1.2 1.6h.2c.7 0 1.3-.5 1.4-1.2.4-3.9-.5-11.9-7.6-14.7zM277 409.5c-.7-.4-1.5-.1-1.9.5-.4.7-.1 1.5.5 1.9 5.5 3.1 7.1 6 7.1 6.1.2.5.7.7 1.2.7.2 0 .4 0 .6-.2.7-.3.9-1.2.6-1.8.1-.1-1.8-3.6-8.1-7.2zm7.4.8c-.7-.4-1.5-.1-1.9.5-.4.7-.1 1.5.5 1.9 5.5 3.1 7.1 6 7.1 6.1.2.5.7.7 1.2.7.2 0 .4 0 .6-.2.7-.3.9-1.2.6-1.8 0-.2-1.8-3.7-8.1-7.2zm7.1 1.1c-.7-.4-1.5-.1-1.9.5-.4.7-.1 1.5.5 1.9 5.5 3.1 7.1 6 7.1 6.1.2.5.7.7 1.2.7.2 0 .4 0 .6-.2.7-.3.9-1.2.6-1.8.1-.1-1.8-3.6-8.1-7.2z"/><path class="st29" d="M388 95.8l-5.4 86.1c-.1 1.9-2.3 3.7-4.6 4 1.3-.3 2.2-1.3 2.3-2.9l5.4-86.1c.1-1.3-.4-2.7-1.2-3.9l2.3-1.1c.8 1.2 1.3 2.6 1.2 3.9zm-1.2-4l-2.3 1.1c-.8-1.2-2-2.3-3.3-2.9L261.9 36.8c-1.3-.6-2.5-.6-3.4-.2 1.6-1.2 4.1-1.6 5.7-.9l119.3 53.2c1.3.7 2.5 1.7 3.3 2.9z"/><linearGradient id="SVGID_70_" gradientUnits="userSpaceOnUse" x1="-306.318" y1="510.938" x2="-193.258" y2="663.469" gradientTransform="matrix(-1.0036 .04281 .0622 -.9991 31.648 703.687)"><stop offset="0"/><stop offset=".204" stop-color="#040404"/><stop offset=".401" stop-color="#0f0f0f"/><stop offset=".594" stop-color="#232323"/><stop offset=".786" stop-color="#3e3e3e"/><stop offset=".975" stop-color="#616161"/><stop offset="1" stop-color="#666"/></linearGradient><path d="M252 117.9l15.8 7 113 50.4 4.9-78.5c.1-1.3-.4-2.7-1.2-3.9-.8-1.2-2-2.3-3.3-2.9L261.9 36.8c-1.3-.6-2.5-.6-3.4-.2s-1.5 1.3-1.7 2.5v.2l-4.8 78.6z" fill="url(#SVGID_70_)"/><path class="st25" d="M303.8 153.6l28.5 12.7-11.6 7.9c-1.4.7-3 1.1-4.5 1.2s-2.9-.2-4.3-.8l-24-10.7c-2.1-1-1.5-3.8.1-4.7h.2l15.6-5.6z"/><path d="M316.4 172.3l-.1 1.6c-1.5.1-2.9-.2-4.3-.8l-24-10.7c-2.1-1-1.5-3.8.1-4.7-1.4.8-1.5 2.5-.1 3.1l23.9 10.7c1.5.6 3 .9 4.5.8zm14.6-6.6l-10.2 7c-1.4.7-3 1.1-4.5 1.2l.1-1.6c1.5-.1 3.1-.5 4.5-1.2l8.9-6 1.2.6z" fill="#cbddff"/><path class="st29" d="M329.8 165.2l-8.9 6c-2.8 1.4-6.2 1.6-8.8.4l-23.9-10.7c-1.4-.6-1.3-2.3.1-3.1h.2l14.1-4.7h.1l27.1 12.1z"/><linearGradient id="SVGID_71_" gradientUnits="userSpaceOnUse" x1="-383.997" y1="461.513" x2="-124.069" y2="615.649" gradientTransform="matrix(-1.0036 .04281 .0622 -.9991 31.648 703.687)"><stop offset="0" stop-color="#f5f4ff"/><stop offset=".355" stop-color="#edebf9"/><stop offset=".938" stop-color="#d6d2e7"/><stop offset="1" stop-color="#d3cfe5"/></linearGradient><path d="M252 117.9l-.5 7.6c-.1 1.2.3 2.4 1 3.6.8 1.4 2.1 2.6 3.5 3.2l46.5 20.7h.1l27.2 12.1 1.2.5 44.3 19.8c1 .4 1.9.6 2.7.4.1 0 .2 0 .3-.1.1 0 .2 0 .2-.1 0 0 .1 0 .1-.1 0 0 .1 0 .1-.1 0 0 .1 0 .1-.1 0 0 .1 0 .1-.1l.1-.1h.1l.1-.1c.2-.2.4-.4.5-.6 0-.1.1-.1.1-.2v-.1c0-.1.1-.1.1-.2s.1-.1.1-.2v-.1c0-.1.1-.2.1-.3v-.6l.5-7.7-113-50.4-15.6-6.7z" fill="url(#SVGID_71_)"/><linearGradient id="SVGID_72_" gradientUnits="userSpaceOnUse" x1="1871.445" y1="664.703" x2="1959.455" y2="512.266" gradientTransform="matrix(1.0036 -.04281 .0622 -.9991 -1639.97 774.994)"><stop offset="0" stop-color="#453eb8"/><stop offset=".115" stop-color="#3632a9"/><stop offset=".351" stop-color="#2a2580"/><stop offset=".624" stop-color="#1e1756"/><stop offset=".763" stop-color="#191246"/></linearGradient><path fill="url(#SVGID_72_)" d="M376.4 168.6l4.6-73.9-119.4-53.2-4.6 73.8z"/><linearGradient id="SVGID_73_" gradientUnits="userSpaceOnUse" x1="-248.533" y1="536.754" x2="-244.388" y2="529.574" gradientTransform="matrix(-1.0036 .04281 .0622 -.9991 31.648 703.687)"><stop offset="0" stop-color="#6d6ddd"/><stop offset=".148" stop-color="#7373df"/><stop offset=".344" stop-color="#8283e3"/><stop offset=".566" stop-color="#9c9feb"/><stop offset=".805" stop-color="#c0c4f6"/><stop offset=".951" stop-color="#d9dffd"/></linearGradient><path opacity=".4" fill="url(#SVGID_73_)" d="M324.3 168.9l-29.7-13.2 7.9-2.7 27.3 12.2-4.1 2.8z"/><path class="st25" d="M338.7 217.6c1.1-1.6 3.3-3.3 4.9-4.2 2-1.2 5.9-3 9.2-2.9 3.6.1 11.3 2.8 10.5 3.5-.4.6-4.3 3-6.8 4.3-2.4 1.3-7.2 3.5-8.4 4-2.6 1.4-5.2 1.2-8.6-.3-1.8-.9-1.9-2.6-.8-4.4z"/><linearGradient id="SVGID_74_" gradientUnits="userSpaceOnUse" x1="-351.647" y1="472.443" x2="-336.084" y2="472.443" gradientTransform="matrix(-.9991 .04281 -.04281 -.9991 32.37 703.687)"><stop offset="0" stop-color="#b986e5"/><stop offset=".301" stop-color="#b686e5"/><stop offset=".544" stop-color="#ac85e5"/><stop offset=".767" stop-color="#9b83e5"/><stop offset=".978" stop-color="#8380e5"/><stop offset="1" stop-color="#8080e5"/></linearGradient><path d="M363.3 212.8c-.4.6-4.3 3-6.8 4.3-2.4 1.3-7.2 3.5-8.4 4 .1-.1.2-.1.3-.2 1.7-1 3.3-3.6 7.7-5.8 4.3-2 6.9-2 7.2-2.3z" fill="url(#SVGID_74_)"/><linearGradient id="SVGID_75_" gradientUnits="userSpaceOnUse" x1="2005.297" y1="468.884" x2="2003.365" y2="479.844" gradientTransform="matrix(.9991 -.04281 -.04281 -.9991 -1631.752 774.994)"><stop offset="0" stop-color="#b9b2c5"/><stop offset=".005" stop-color="#b9b2c5"/><stop offset=".669" stop-color="#e4e2ef"/><stop offset="1" stop-color="#f5f4ff"/></linearGradient><path d="M363.3 212.8c-.3.3-2.9.3-7.2 2.4-4.4 2.1-6 4.8-7.7 5.8-.1.1-.2.1-.3.2-2.6 1.4-5.2 1.2-8.6-.3-1.9-.9-2-2.6-.8-4.3 1.1-1.6 3.3-3.3 4.9-4.2 2-1.2 5.9-3 9.2-2.9 3.6 0 11.3 2.7 10.5 3.3z" fill="url(#SVGID_75_)"/><path class="st29" d="M472.4 1.6l-44.2 19.6v.1l-2.5-1.6v-.1l44-19.6z"/><path class="st29" d="M428.2 21.3l-3.1 222-3.8-2.5 4.4-221.1z"/><linearGradient id="SVGID_76_" gradientUnits="userSpaceOnUse" x1="436.326" y1="524.779" x2="478.706" y2="524.779" gradientTransform="matrix(1.0352 .0916 .0135 -.9648 -32 586.845)"><stop offset="0" stop-color="#f5f4ff"/><stop offset=".355" stop-color="#edebf9"/><stop offset=".938" stop-color="#d6d2e7"/><stop offset="1" stop-color="#d3cfe5"/></linearGradient><path fill="url(#SVGID_76_)" d="M472.4 1.6l-3.3 222.1-44 19.6 3.1-222.1z"/><linearGradient id="SVGID_77_" gradientUnits="userSpaceOnUse" x1="461.193" y1="418.466" x2="461.193" y2="460.356" gradientTransform="matrix(1.0352 .0916 .0135 -.9648 -32 586.845)"><stop offset="0" stop-color="#453eb8"/><stop offset=".115" stop-color="#3632a9"/><stop offset=".351" stop-color="#2a2580"/><stop offset=".624" stop-color="#1e1756"/><stop offset=".763" stop-color="#191246"/></linearGradient><path fill="url(#SVGID_77_)" d="M439 197.4l25.2-11.3-.4 26.9-25.2 11.3z"/><linearGradient id="SVGID_78_" gradientUnits="userSpaceOnUse" x1="454.537" y1="428.877" x2="454.537" y2="470.757" gradientTransform="matrix(1.0352 .0916 .0135 -.9648 -32 586.845)"><stop offset="0" stop-color="#0045c1"/><stop offset="1" stop-color="#2f89f2"/></linearGradient><path fill="url(#SVGID_78_)" d="M432.2 186.7l25.2-11.3-.3 27-25.2 11.2z"/><linearGradient id="SVGID_79_" gradientUnits="userSpaceOnUse" x1="452.015" y1="478.753" x2="464.513" y2="500.4" gradientTransform="matrix(1.0352 .0916 .0135 -.9648 -32 586.845)"><stop offset="0" stop-color="#0045c1"/><stop offset="1" stop-color="#2f89f2"/></linearGradient><path d="M460.9 163.3l-11.5-7.2c1.5-2.4 2.4-5 2.4-7.5 0-1.9-.5-3.6-1.4-4.8-1-1.2-2.3-2-4-2.1-1.3-.1-2.7.2-4.2.8-5 2.2-9.1 8.4-9.2 13.8-.1 3.9 2.1 6.6 5.4 6.9 1.3.1 2.7-.2 4.2-.8 1.6-.7 3.2-1.9 4.5-3.3l11.7 7.4c.3.2.7.3 1 .3.4 0 .7 0 1-.2.6-.3 1-.9 1-1.5.1-.8-.2-1.4-.9-1.8zm-20.2-4.5c-1.1.5-1.8.5-2.2.5-1.2-.1-1.4-1.5-1.4-2.7.1-4 3.4-9 7.1-10.7 1-.5 1.8-.5 2.2-.5s.6.2.8.4c.4.5.6 1.3.6 2.3 0 4.1-3.4 9-7.1 10.7z" fill="url(#SVGID_79_)"/><linearGradient id="SVGID_80_" gradientUnits="userSpaceOnUse" x1="447.118" y1="519.897" x2="467.611" y2="555.392" gradientTransform="matrix(1.0352 .0916 .0135 -.9648 -32 586.845)"><stop offset="0" stop-color="#0045c1"/><stop offset="1" stop-color="#2f89f2"/></linearGradient><path fill="url(#SVGID_80_)" d="M436.1 115.1l.2-8.8 25.2-11.2-.1 8.4-3.1 1.4v-3.5l-7.4 3.3-.3 24.9-4.3 1.9.3-24.9-7.1 3.2-.1 3.7z"/><linearGradient id="SVGID_81_" gradientUnits="userSpaceOnUse" x1="443.155" y1="615.006" x2="472.418" y2="615.006" gradientTransform="matrix(1.0352 .0916 .0135 -.9648 -32 586.845)"><stop offset="0" stop-color="#0045c1"/><stop offset="1" stop-color="#2f89f2"/></linearGradient><path d="M447.2 51.8c-2.5 1.4-8.5 3.2-12.4.7 3-.3 3.4-2.3 4.2-6.3s5.4-3.8 7.7-2.5c3.8 2.4 3 6.7.5 8.1zm18.1-34.3c-1.9-1.4-14.1 16.5-16.5 19.5-2.2 2.8-2.8 4.5-1.3 5.6 1.4 1 4.2-1.1 5-2.3 3.9-5.7 15.1-21.1 12.8-22.8z" fill="url(#SVGID_81_)"/><linearGradient id="SVGID_82_" gradientUnits="userSpaceOnUse" x1="447.731" y1="557.058" x2="468.108" y2="592.352" gradientTransform="matrix(1.0352 .0916 .0135 -.9648 -32 586.845)"><stop offset="0" stop-color="#0045c1"/><stop offset="1" stop-color="#2f89f2"/></linearGradient><path d="M460.8 68.9l-.8-.6-1.1-.7 3.1-4.7c.3-.5.5-1.1.5-1.6 0-1.2-.6-2.4-1.8-3.1-1.7-1-3.9-.7-4.9.8l-3.2 4.7-2-1.2c-1.3-.9-3.1-.6-3.9.6l-.3.5c-.8 1.2-.4 2.9 1 3.7l1.3.8-11.2 16.5c-1.2 1.9-.6 4.4 1.5 5.7 2.1 1.3 4.8.9 6-1l11.2-16.6.5.3.8.5c1.4.9 3.1.6 3.9-.6l.3-.4c.9-1.1.5-2.7-.9-3.6zm-17.2 19.6c-.5.7-1.4 1.1-2.3 1-.5 0-.9-.2-1.3-.5-.6-.4-1-.9-1.2-1.6-.2-.6-.1-1.3.3-1.8l11.3-16.5.2.1 1.3.8 3 1.9-11.3 16.6z" fill="url(#SVGID_82_)"/></svg>