<svg width="65" height="65" fill="none" xmlns="http://www.w3.org/2000/svg"><path d="M40.78 12.97v2.794a2.097 2.097 0 0 1-1.473 2 15.161 15.161 0 0 1-2.049 4.185c-.19.283-.397.555-.617.815v5.185c0 .258.04.514.119.76l-4.26 1.707-1.626-.652-3.273-1.316c.052-.183.078-.374.076-.565v-5.12a13.909 13.909 0 0 1-2.504-5.238 2.115 2.115 0 0 1-.954-1.761V12.97c0-.593.253-1.159.694-1.554V7.373s-.715-5.457 5.961-6.218a14.97 14.97 0 0 1 1.626-.087c8.41 0 7.587 6.304 7.587 6.304v4.044c.441.395.694.96.694 1.554z" fill="#A4C2F7"/><path d="M37.53 12.97v2.794a2.097 2.097 0 0 1-1.475 2 15.164 15.164 0 0 1-2.048 4.184 9.101 9.101 0 0 1-.618.816v5.184c0 .259.04.515.12.761l-2.635 1.055-3.273-1.316c.052-.183.078-.374.076-.565v-5.12a13.908 13.908 0 0 1-2.504-5.238 2.115 2.115 0 0 1-.954-1.761V12.97c0-.593.253-1.159.694-1.554V7.372s-.715-5.456 5.961-6.217c6.677.76 5.961 6.217 5.961 6.217v4.044c.442.395.694.96.694 1.554z" fill="#E3E7F2"/><path d="M47.674 35.34v1.99a.694.694 0 0 1-.694.695H18.02a.69.69 0 0 1-.694-.696V35.2a5.612 5.612 0 0 1 2.883-4.924l4.086-2.261 6.373-.663 1.832-.196 8.02 1.087 4.098 2.076a5.61 5.61 0 0 1 3.056 5.022z" fill="#A4C2F7"/><path d="M44.423 35.34v1.989a.693.693 0 0 1-.694.696h-25.71a.69.69 0 0 1-.693-.696v-2.13a5.612 5.612 0 0 1 2.883-4.924l4.086-2.261 6.373-.663 6.601.891 4.097 2.076a5.61 5.61 0 0 1 3.057 5.022z" fill="#E3E7F2"/><path d="M36.836 38.025h-8.671l2.167-5.435.076-.065c.306.39.7.704 1.149.913a1.98 1.98 0 0 0 1.886 0c.45-.21.843-.522 1.149-.913l.076.065 2.168 5.435z" fill="#A4C2F7"/><path d="M32.5 27.155l-3.48 2.793-1.94 1.555-2.785-3.49 2.07-1.151a2.488 2.488 0 0 0 1.236-1.674l4.9 1.967z" fill="#D4E1F4"/><path d="M36.066 30.014l-.314.402-.694 1.38c-.126.26-.282.505-.466.728-.306.392-.7.704-1.149.913a1.978 1.978 0 0 1-1.886 0 3.133 3.133 0 0 1-1.149-.913 3.626 3.626 0 0 1-.466-.728l-.92-1.848 3.478-2.793 3.566 2.859z" fill="#A4C2F7"/><path d="M40.52 28.242l-2.6 3.26-1.854-1.488-3.566-2.859 4.26-1.707a2.487 2.487 0 0 0 1.268 1.522l2.493 1.272z" fill="#D4E1F4"/><path d="M18.41 62.525v1.174a.402.402 0 0 1-.39.413H1.457a.4.4 0 0 1-.39-.413v-1.25a3.337 3.337 0 0 1 1.647-2.902l3.512-2c.468-.272.753-.774.748-1.316v-1.098a8.217 8.217 0 0 1-1.42-3.076 1.273 1.273 0 0 1-.542-1.043v-1.641c0-.345.141-.675.39-.913v-2.381a3.26 3.26 0 0 1 2.71-3.522 6.443 6.443 0 0 1 1.626-.184c4.801 0 4.335 3.706 4.335 3.706v2.38c.25.239.39.569.39.913v1.642a1.239 1.239 0 0 1-.834 1.184 9.303 9.303 0 0 1-1.17 2.457 4.201 4.201 0 0 1-.359.478v1.13a1.537 1.537 0 0 0 .792 1.349l3.771 1.967a3.297 3.297 0 0 1 1.746 2.946zm22.761 0v1.174a.403.403 0 0 1-.39.413H24.219a.4.4 0 0 1-.39-.413v-1.25a3.338 3.338 0 0 1 1.648-2.902l3.511-2c.468-.272.754-.774.748-1.316v-1.098a8.216 8.216 0 0 1-1.42-3.076 1.273 1.273 0 0 1-.542-1.043v-1.641c0-.345.142-.675.39-.913v-2.381a3.26 3.26 0 0 1 2.71-3.522 6.443 6.443 0 0 1 1.626-.184c4.802 0 4.336 3.706 4.336 3.706v2.38c.248.239.39.569.39.913v1.642a1.239 1.239 0 0 1-.835 1.184 9.303 9.303 0 0 1-1.17 2.457 4.188 4.188 0 0 1-.358.478v1.13a1.534 1.534 0 0 0 .791 1.349l3.772 1.967a3.297 3.297 0 0 1 1.745 2.946zm22.761 0v1.174a.403.403 0 0 1-.39.413H46.981a.4.4 0 0 1-.39-.413v-1.25a3.337 3.337 0 0 1 1.647-2.902l3.512-2c.467-.272.753-.774.748-1.316v-1.098a8.218 8.218 0 0 1-1.42-3.076 1.273 1.273 0 0 1-.542-1.043v-1.641c0-.345.14-.675.39-.913v-2.381a3.26 3.26 0 0 1 2.71-3.522 6.443 6.443 0 0 1 1.625-.184c4.802 0 4.336 3.706 4.336 3.706v2.38c.249.239.39.569.39.913v1.642a1.239 1.239 0 0 1-.835 1.184 9.303 9.303 0 0 1-1.17 2.457 4.188 4.188 0 0 1-.358.478v1.13a1.536 1.536 0 0 0 .791 1.349l3.772 1.967a3.297 3.297 0 0 1 1.745 2.946z" fill="#A4C2F7"/><path d="M15.158 62.525v1.173a.403.403 0 0 1-.39.414H1.458a.4.4 0 0 1-.39-.414v-1.25a3.338 3.338 0 0 1 1.647-2.902l3.512-2a1.5 1.5 0 0 0 .748-1.315v-1.098a8.217 8.217 0 0 1-1.42-3.076 1.273 1.273 0 0 1-.542-1.043v-1.642c0-.345.141-.675.39-.913v-2.38a3.26 3.26 0 0 1 2.71-3.522 3.26 3.26 0 0 1 2.71 3.522v2.38c.248.238.39.568.39.913v1.642a1.239 1.239 0 0 1-.835 1.184 9.308 9.308 0 0 1-1.17 2.457 4.193 4.193 0 0 1-.358.478v1.13a1.532 1.532 0 0 0 .791 1.348l3.772 1.968a3.297 3.297 0 0 1 1.745 2.946zm22.762 0v1.173a.403.403 0 0 1-.39.414H24.22a.4.4 0 0 1-.39-.414v-1.25a3.338 3.338 0 0 1 1.647-2.902l3.511-2c.468-.27.754-.773.748-1.315v-1.098a8.216 8.216 0 0 1-1.42-3.076 1.273 1.273 0 0 1-.542-1.043v-1.642c0-.345.142-.675.39-.913v-2.38a3.26 3.26 0 0 1 2.71-3.522 3.26 3.26 0 0 1 2.71 3.522v2.38c.249.238.39.568.39.913v1.642a1.239 1.239 0 0 1-.835 1.184 9.306 9.306 0 0 1-1.17 2.457 4.197 4.197 0 0 1-.358.478v1.13a1.534 1.534 0 0 0 .791 1.348l3.772 1.968a3.297 3.297 0 0 1 1.745 2.946zm22.76 0v1.173a.403.403 0 0 1-.39.414H46.98a.4.4 0 0 1-.39-.414v-1.25a3.337 3.337 0 0 1 1.648-2.902l3.512-2c.467-.27.753-.773.748-1.315v-1.098a8.218 8.218 0 0 1-1.42-3.076 1.273 1.273 0 0 1-.542-1.043v-1.642c0-.345.14-.675.39-.913v-2.38a3.26 3.26 0 0 1 2.71-3.522 3.26 3.26 0 0 1 2.71 3.522v2.38c.248.238.39.568.39.913v1.642a1.239 1.239 0 0 1-.835 1.184 9.309 9.309 0 0 1-1.17 2.457 4.186 4.186 0 0 1-.359.478v1.13a1.533 1.533 0 0 0 .792 1.348l3.771 1.968a3.297 3.297 0 0 1 1.746 2.946z" fill="#E3E7F2"/><path d="M49.842 63.699v-1.25a3.338 3.338 0 0 1 1.648-2.902l3.511-2c.468-.272.754-.774.748-1.316v-1.098a8.216 8.216 0 0 1-1.42-3.076 1.273 1.273 0 0 1-.542-1.043v-1.641c0-.345.142-.675.39-.913v-2.381a3.26 3.26 0 0 1 2.71-3.522h.015a6.91 6.91 0 0 0-1.64-.184 6.433 6.433 0 0 0-1.627.184 3.26 3.26 0 0 0-2.71 3.522v2.38a1.27 1.27 0 0 0-.39.913v1.642c0 .416.203.805.543 1.043a8.216 8.216 0 0 0 1.42 3.076v1.098a1.503 1.503 0 0 1-.748 1.315l-3.512 2a3.338 3.338 0 0 0-1.648 2.903v1.25a.403.403 0 0 0 .39.413h3.252a.4.4 0 0 1-.39-.413zm-48.774 0a.403.403 0 0 0 .39.413H4.71a.4.4 0 0 1-.39-.413v-1.25a3.337 3.337 0 0 1 1.647-2.902l3.512-2c.467-.272.753-.774.748-1.316v-1.098a8.217 8.217 0 0 1-1.42-3.076 1.273 1.273 0 0 1-.542-1.043v-1.641c0-.345.14-.675.39-.913v-2.381a3.26 3.26 0 0 1 2.71-3.522h.015a6.91 6.91 0 0 0-1.641-.184 6.434 6.434 0 0 0-1.626.184 3.26 3.26 0 0 0-2.71 3.522v2.38c-.249.239-.39.569-.39.913v1.642c0 .416.202.805.542 1.043a8.215 8.215 0 0 0 1.42 3.076v1.098a1.503 1.503 0 0 1-.748 1.315l-3.512 2a3.338 3.338 0 0 0-1.647 2.903v1.25zm26.533-38.511a2.488 2.488 0 0 1-1.236 1.674l-2.07 1.152-4.086 2.26a5.613 5.613 0 0 0-2.883 4.925v2.13a.693.693 0 0 0 .694.696h3.251a.69.69 0 0 1-.694-.696v-2.13a5.613 5.613 0 0 1 2.883-4.924l4.087-2.261 2.07-1.152a2.489 2.489 0 0 0 1.236-1.674l.075.03v-2.454a13.909 13.909 0 0 1-2.503-5.24 2.115 2.115 0 0 1-.954-1.76V12.97c0-.593.252-1.159.694-1.554V7.373s-.712-5.435 5.936-6.214a14.97 14.97 0 0 0-3.227-.004c-6.676.761-5.961 6.218-5.961 6.218v4.043c-.441.396-.694.96-.694 1.554v2.794c.003.71.361 1.372.954 1.76a13.91 13.91 0 0 0 2.504 5.24v2.454l-.076-.03zm-.521 38.511v-1.25a3.338 3.338 0 0 1 1.648-2.902l3.512-2c.467-.272.753-.774.748-1.316v-1.098a8.216 8.216 0 0 1-1.42-3.076 1.273 1.273 0 0 1-.542-1.043v-1.641c0-.345.141-.675.39-.913v-2.381a3.26 3.26 0 0 1 2.71-3.522h.015a6.91 6.91 0 0 0-1.641-.184 6.434 6.434 0 0 0-1.626.184 3.26 3.26 0 0 0-2.71 3.522v2.38a1.27 1.27 0 0 0-.39.913v1.642c0 .416.203.805.542 1.043a8.214 8.214 0 0 0 1.42 3.076v1.098a1.503 1.503 0 0 1-.748 1.315l-3.511 2a3.338 3.338 0 0 0-1.648 2.903v1.25a.403.403 0 0 0 .39.413h3.252a.4.4 0 0 1-.39-.413z" fill="#fff"/><path fill-rule="evenodd" clip-rule="evenodd" d="M62.67 58.435l-3.763-1.96a.422.422 0 0 1-.21-.377v-.758a10.145 10.145 0 0 0 1.328-2.538 2.314 2.314 0 0 0 1.035-1.938v-1.638a2.34 2.34 0 0 0-.394-1.3v-1.928a4.413 4.413 0 0 0-1.04-3.206 5.032 5.032 0 0 0-3.293-1.545V35.75c0-1.197-.97-2.166-2.167-2.166h-5.633a6.618 6.618 0 0 0-3.436-4.319l-6.586-3.331a1.456 1.456 0 0 1-.794-1.308v-1.53c.135-.17.279-.364.434-.577a16.406 16.406 0 0 0 2.03-3.994 3.155 3.155 0 0 0 1.675-2.797v-2.785a3.175 3.175 0 0 0-.69-1.969V7.418a6.716 6.716 0 0 0-1.563-4.85C38.107.867 35.717 0 32.5 0c-3.217 0-5.608.867-7.104 2.569a6.717 6.717 0 0 0-1.563 4.849v3.556a3.176 3.176 0 0 0-.69 1.969v2.79c0 .911.39 1.78 1.075 2.383a15.239 15.239 0 0 0 2.374 4.961v1.485a1.464 1.464 0 0 1-.75 1.283l-6.15 3.394a6.657 6.657 0 0 0-3.257 4.344h-5.601c-1.197 0-2.167.97-2.167 2.167v5.497a5.031 5.031 0 0 0-3.292 1.545 4.413 4.413 0 0 0-1.042 3.205v1.933a2.345 2.345 0 0 0-.393 1.3v1.641c0 .607.236 1.19.659 1.625a9.606 9.606 0 0 0 1.31 2.826v.74a.427.427 0 0 1-.2.371l-3.515 1.995A4.396 4.396 0 0 0 0 62.26v1.247A1.486 1.486 0 0 0 1.477 65h16.547a1.486 1.486 0 0 0 1.476-1.494V62.34a4.37 4.37 0 0 0-2.329-3.9l-3.763-1.96a.422.422 0 0 1-.21-.376v-.759a10.145 10.145 0 0 0 1.328-2.538 2.314 2.314 0 0 0 1.034-1.938v-1.642c0-.463-.137-.915-.393-1.3v-1.929a4.413 4.413 0 0 0-1.041-3.205 5.032 5.032 0 0 0-3.293-1.545V35.75h5.417v1.469A1.779 1.779 0 0 0 18.023 39h13.394v2.247a5.031 5.031 0 0 0-3.293 1.545 4.413 4.413 0 0 0-1.04 3.205v1.933a2.345 2.345 0 0 0-.394 1.3v1.641c0 .607.236 1.19.659 1.625a9.607 9.607 0 0 0 1.31 2.826v.74a.427.427 0 0 1-.2.371l-3.515 1.997a4.396 4.396 0 0 0-2.194 3.83v1.246A1.486 1.486 0 0 0 24.227 65h16.546a1.486 1.486 0 0 0 1.477-1.494V62.34a4.37 4.37 0 0 0-2.33-3.9l-3.763-1.96a.422.422 0 0 1-.21-.376v-.759a10.145 10.145 0 0 0 1.328-2.538 2.314 2.314 0 0 0 1.035-1.938v-1.642c0-.463-.137-.915-.393-1.3v-1.929a4.413 4.413 0 0 0-1.041-3.205 5.031 5.031 0 0 0-3.293-1.545V39h13.393a1.779 1.779 0 0 0 1.774-1.781V35.75h5.416v5.497a5.032 5.032 0 0 0-3.292 1.545 4.413 4.413 0 0 0-1.04 3.205v1.933a2.346 2.346 0 0 0-.394 1.3v1.641c-.001.607.235 1.19.658 1.625a9.607 9.607 0 0 0 1.31 2.826v.74a.427.427 0 0 1-.2.371l-3.514 1.997a4.396 4.396 0 0 0-2.194 3.83v1.246A1.486 1.486 0 0 0 46.976 65h16.547A1.486 1.486 0 0 0 65 63.506V62.34a4.37 4.37 0 0 0-2.33-3.904zM13.01 45.807c-.006.045-.009.09-.009.136v2.374c0 .299.124.585.341.79a.16.16 0 0 1 .053.119v1.641a.146.146 0 0 1-.087.14 1.084 1.084 0 0 0-.702.712c-.234.77-.581 1.5-1.03 2.167a5.953 5.953 0 0 1-.288.387 1.083 1.083 0 0 0-.256.7V56.1a2.574 2.574 0 0 0 1.375 2.297l3.764 1.961a2.24 2.24 0 0 1 1.163 1.98v.494H2.168v-.574a2.23 2.23 0 0 1 1.098-1.95l3.515-1.996a2.59 2.59 0 0 0 1.3-2.255V54.97c0-.247-.084-.486-.239-.679a7.27 7.27 0 0 1-1.21-2.625 1.083 1.083 0 0 0-.454-.665.16.16 0 0 1-.066-.135v-1.642c0-.045.02-.088.052-.119.217-.205.339-.491.337-.79v-2.373a1.18 1.18 0 0 0-.007-.124 2.29 2.29 0 0 1 .522-1.61 3.575 3.575 0 0 1 2.735-.876 3.575 3.575 0 0 1 2.736.876c.37.447.557 1.018.523 1.598zm22.741.136c0-.045.003-.091.009-.136a2.292 2.292 0 0 0-.523-1.599 3.575 3.575 0 0 0-2.736-.875 3.576 3.576 0 0 0-2.735.876 2.291 2.291 0 0 0-.523 1.61c.005.041.008.083.008.124v2.374c.001.298-.12.584-.337.79a.162.162 0 0 0-.052.118v1.642a.16.16 0 0 0 .066.135c.231.156.393.394.453.665a7.27 7.27 0 0 0 1.211 2.625c.154.193.238.432.238.679v1.087a2.59 2.59 0 0 1-1.3 2.255l-3.514 1.996a2.228 2.228 0 0 0-1.098 1.95v.574h15.166v-.494a2.24 2.24 0 0 0-1.163-1.98l-3.764-1.96a2.574 2.574 0 0 1-1.375-2.298v-1.128c0-.256.09-.505.256-.7.086-.102.18-.233.288-.387a8.124 8.124 0 0 0 1.03-2.167c.104-.337.366-.602.702-.711a.146.146 0 0 0 .086-.141v-1.641a.161.161 0 0 0-.052-.12 1.084 1.084 0 0 1-.341-.79v-2.373zm3.092-17.417L37.748 29.9l-3.118-2.492 1.614-.65c.335.47.778.851 1.291 1.113l1.307.655zm-8.012 5.65l-1.063 2.657h5.466l-1.063-2.656c-.039.02-.077.044-.115.068a1.4 1.4 0 0 1-.155.088 3.1 3.1 0 0 1-2.799 0 1.579 1.579 0 0 1-.17-.096c-.034-.021-.067-.042-.102-.061zm3.261-2.948a2.421 2.421 0 0 1-1.098 1.138.811.811 0 0 1-.985 0 2.418 2.418 0 0 1-1.1-1.138l-.53-1.06 2.122-1.697 2.121 1.698-.53 1.06zm-8.317-14.642c.235.154.402.393.464.667v-.004a12.916 12.916 0 0 0 2.273 4.77c.16.195.247.439.247.69v1.708l3.742 1.5 3.058-1.222c-.005-.023-.005-.046-.005-.07V22.71c0-.26.095-.512.265-.709a9.66 9.66 0 0 0 .555-.723 14.365 14.365 0 0 0 1.901-3.88c.107-.337.372-.6.71-.706.418-.133.703-.52.706-.959v-2.79a1.006 1.006 0 0 0-.337-.745 1.083 1.083 0 0 1-.353-.8v-4.03a4.57 4.57 0 0 0-1.042-3.389c-1.07-1.201-2.892-1.811-5.458-1.811-2.566 0-4.408.615-5.476 1.835A4.551 4.551 0 0 0 26 7.367v4.03c0 .304-.128.595-.353.8-.213.19-.335.46-.337.746v2.793c0 .344.175.664.464.85zm1.114 11.16a3.59 3.59 0 0 0 1.292-1.22l2.191.877-3.118 2.492-1.308-1.633.943-.517zm-6.149 3.39a4.522 4.522 0 0 0-2.322 3.964v1.733h9.016l1.731-4.313a2.332 2.332 0 0 0-.073-.118c-.04-.066-.082-.13-.117-.199l-.325-.65-.889.71a1.083 1.083 0 0 1-1.522-.168l-2.217-2.769-3.282 1.81zm25.844 5.697h-9.016l-1.728-4.319c.025-.043.05-.084.077-.124.04-.063.08-.125.114-.192l.325-.65.888.71a1.083 1.083 0 0 0 1.523-.169l2.058-2.567 3.298 1.678a4.498 4.498 0 0 1 2.461 4.036v1.597zm1.084 26h15.166v-.494a2.24 2.24 0 0 0-1.163-1.98l-3.764-1.961a2.574 2.574 0 0 1-1.375-2.298v-1.127c0-.257.09-.505.256-.7.086-.102.18-.233.288-.387a8.122 8.122 0 0 0 1.03-2.167c.104-.337.366-.603.702-.711a.146.146 0 0 0 .086-.141v-1.642a.162.162 0 0 0-.052-.119 1.084 1.084 0 0 1-.341-.79v-2.373c0-.046.003-.091.009-.137a2.29 2.29 0 0 0-.524-1.597 3.575 3.575 0 0 0-2.735-.876 3.575 3.575 0 0 0-2.736.876 2.29 2.29 0 0 0-.522 1.61c.005.041.008.083.008.124v2.374c.001.298-.12.584-.337.79a.162.162 0 0 0-.052.118v1.642a.16.16 0 0 0 .066.135c.23.156.393.394.453.665a7.27 7.27 0 0 0 1.211 2.625c.154.193.238.432.238.679v1.087a2.59 2.59 0 0 1-1.3 2.255l-3.514 1.996a2.228 2.228 0 0 0-1.099 1.95v.574z" fill="#428DFF"/></svg>