<svg width="65" height="65" fill="none" xmlns="http://www.w3.org/2000/svg"><path d="M62.992 3.236v45.522H0V3.236a2.176 2.176 0 0 1 2.172-2.168H60.82a2.176 2.176 0 0 1 2.173 2.168z" fill="#A4C2F7"/><path d="M59.733 3.236v45.522H0V3.236a2.176 2.176 0 0 1 2.172-2.168h55.39a2.176 2.176 0 0 1 2.171 2.168z" fill="url(#paint0_linear)"/><path fill="#7FABFA" d="M27.152 49.842h10.861v14.09H27.152z"/><path fill="#A4C2F7" d="M27.152 49.842h7.602v14.09h-7.602z"/><path d="M62.992 45.506v6.504a2.177 2.177 0 0 1-2.173 2.167H2.172A2.177 2.177 0 0 1 0 52.01v-6.504h62.992z" fill="#7FABFA"/><path d="M59.733 45.506v6.504a2.176 2.176 0 0 1-2.172 2.167H2.172A2.177 2.177 0 0 1 0 52.01v-6.504h59.733z" fill="#A4C2F7"/><path d="M9.775 10.823h45.614c.6 0 1.086.485 1.086 1.084v22.76c0 .6-.486 1.085-1.086 1.085H9.775c-.6 0-1.086-.486-1.086-1.084V11.907c0-.599.486-1.084 1.086-1.084z" fill="#E3E7F2"/><path d="M9.775 10.823H52.13c.6 0 1.086.485 1.086 1.084v22.76c0 .6-.486 1.085-1.086 1.085H9.775c-.6 0-1.086-.486-1.086-1.084V11.907c0-.599.486-1.084 1.086-1.084z" fill="#F5F5F5"/><path d="M3.21 54.178h3.213c-1.181-.004-2.139-.972-2.142-2.168V3.236c.003-1.196.96-2.165 2.142-2.168H3.21c-1.181.003-2.138.972-2.142 2.168V52.01c.004 1.196.96 2.164 2.143 2.168zm23.568 0h3.214v9.755h-3.214z" fill="#fff"/><path d="M0 45.5V3.25h2.167V45.5H0z" fill="#fff"/><path d="M.672 37.83a.686.686 0 0 0 .195.065c.071.012.144.02.216.022a1.14 1.14 0 0 0 .77-.315 1.12 1.12 0 0 0 .227-.357 1.106 1.106 0 0 0-.227-1.18 1.118 1.118 0 0 0-.358-.228 1.086 1.086 0 0 0-.412-.087 1.14 1.14 0 0 0-.769.314 1.099 1.099 0 0 0 0 1.538l.163.13a.82.82 0 0 0 .195.098z" fill="#428DFF"/><path fill-rule="evenodd" clip-rule="evenodd" d="M3.25 0h58.5A3.25 3.25 0 0 1 65 3.25V52a3.25 3.25 0 0 1-3.25 3.25H39v3.25a1.083 1.083 0 1 1-2.167 0v-3.25h-8.666v7.583H48.75a1.083 1.083 0 1 1 0 2.167h-32.5a1.083 1.083 0 0 1 0-2.167H26V55.25H3.25A3.25 3.25 0 0 1 0 52V41.167a1.083 1.083 0 0 1 2.167 0v3.25h60.666V3.25c0-.598-.485-1.083-1.083-1.083H3.25c-.598 0-1.083.485-1.083 1.083V32.5A1.083 1.083 0 0 1 0 32.5V3.25A3.25 3.25 0 0 1 3.25 0zm0 53.083h58.5c.598 0 1.083-.485 1.083-1.083v-5.417H2.167V52c0 .598.485 1.083 1.083 1.083z" fill="#428DFF"/><path d="M56.333 36.833c.599 0 1.084-.484 1.084-1.083V11.917c0-1.197-.97-2.167-2.167-2.167H9.75c-1.197 0-2.167.97-2.167 2.167v22.75c0 1.196.97 2.166 2.167 2.166h39a1.083 1.083 0 1 0 0-2.166h-39v-22.75h45.5V35.75c0 .598.485 1.083 1.083 1.083z" fill="#428DFF"/><path d="M19.5 24.886a4.875 4.875 0 1 0-5.417-4.844 1.083 1.083 0 0 0 2.167 0 2.708 2.708 0 1 1 2.708 2.708h-.541c-.599 0-1.084.485-1.084 1.083V26a1.083 1.083 0 0 0 2.167 0v-1.114zM43.333 19.5c0-.598-.485-1.083-1.083-1.083H28.167a1.083 1.083 0 0 0 0 2.166H42.25c.598 0 1.083-.485 1.083-1.083zm6.5-1.083h-3.25a1.083 1.083 0 0 0 0 2.166h3.25a1.083 1.083 0 0 0 0-2.166zM35.75 22.75h-7.583a1.083 1.083 0 0 0 0 2.167h7.583a1.083 1.083 0 1 0 0-2.167zm14.083 0h-9.75a1.083 1.083 0 0 0 0 2.167h9.75a1.083 1.083 0 1 0 0-2.167zM35.75 27.084h-7.583a1.083 1.083 0 1 0 0 2.166h7.583a1.083 1.083 0 0 0 0-2.166zm4.333 0a1.083 1.083 0 1 0 0 2.166h4.334a1.083 1.083 0 0 0 0-2.166h-4.334zm9.75 0H48.75a1.083 1.083 0 1 0 0 2.166h1.083a1.083 1.083 0 0 0 0-2.166zm-32.185 2.48a1.099 1.099 0 0 0 0 1.538 1.083 1.083 0 1 0 0-1.538z" fill="#428DFF"/><defs><linearGradient id="paint0_linear" x1="-29.895" y1="20.247" x2="9.546" y2="81.997" gradientUnits="userSpaceOnUse"><stop stop-color="#D3DFF2"/><stop offset=".172" stop-color="#D3DFF2"/><stop offset=".2" stop-color="#D3DFF2"/><stop offset=".2" stop-color="#DAE2F2"/><stop offset=".201" stop-color="#EBEAF2"/><stop offset=".201" stop-color="#F6EFF2"/><stop offset=".202" stop-color="#FDF2F2"/><stop offset=".205" stop-color="#FFF3F2"/><stop offset=".252" stop-color="#FFF3F2"/><stop offset=".26" stop-color="#FFF3F2"/><stop offset=".26" stop-color="#D3DFF2"/><stop offset=".397" stop-color="#D3DFF2"/><stop offset=".42" stop-color="#D3DFF2"/><stop offset=".42" stop-color="#DAE2F2"/><stop offset=".421" stop-color="#EBEAF2"/><stop offset=".421" stop-color="#F6EFF2"/><stop offset=".422" stop-color="#FDF2F2"/><stop offset=".425" stop-color="#FFF3F2"/><stop offset=".489" stop-color="#FFF3F2"/><stop offset=".5" stop-color="#FFF3F2"/><stop offset=".5" stop-color="#F8F0F2"/><stop offset=".5" stop-color="#E7E8F2"/><stop offset=".5" stop-color="#DCE3F2"/><stop offset=".5" stop-color="#D5E0F2"/><stop offset=".501" stop-color="#D3DFF2"/><stop offset=".706" stop-color="#D3DFF2"/><stop offset=".74" stop-color="#D3DFF2"/><stop offset=".741" stop-color="#FFF3F2"/><stop offset=".835" stop-color="#FFF3F2"/><stop offset=".85" stop-color="#FFF3F2"/><stop offset=".851" stop-color="#D3DFF2"/></linearGradient></defs></svg>