<svg width="63" height="63" fill="none" xmlns="http://www.w3.org/2000/svg"><path d="M31.081 1.352h27.606A4.247 4.247 0 0 1 62.934 5.6v53.088a4.247 4.247 0 0 1-4.247 4.247H31.08a4.247 4.247 0 0 1-4.247-4.247V5.599a4.247 4.247 0 0 1 4.247-4.247z" fill="#E7EBF4"/><path d="M31.081 1.352h24.42A4.247 4.247 0 0 1 59.75 5.6v53.088a4.247 4.247 0 0 1-4.248 4.247h-24.42a4.247 4.247 0 0 1-4.247-4.247V5.599a4.247 4.247 0 0 1 4.247-4.247z" fill="url(#paint0_linear)"/><path d="M49.942 5.6H39.826c-.804 0-1.54-.455-1.9-1.175L36.39 1.352h16.988L51.84 4.425A2.123 2.123 0 0 1 49.942 5.6zM12.033 34.266h22.233a1.065 1.065 0 0 0 1.062-1.062V7.722a1.065 1.065 0 0 0-1.062-1.061H2.414a1.065 1.065 0 0 0-1.062 1.061v25.482c.002.586.476 1.06 1.062 1.062h3.185v6.37a1.062 1.062 0 0 0 1.911.638l4.523-7.008z" fill="#E7EBF4"/><path d="M35.328 7.722v25.482a1.065 1.065 0 0 1-1.062 1.062h-3.185a1.065 1.065 0 0 0 1.062-1.062V7.722a1.065 1.065 0 0 0-1.062-1.061h3.185c.586.001 1.06.476 1.062 1.061z" fill="#B2CDF8"/><path d="M6.558 39.413l1.08-1.954v-4.98h-2.7v6.303c0 .453.248.854.615.997.367.143.772-.005 1.004-.367z" fill="#fff"/><path d="M2.241 32.48H4.94c-.496-.002-.898-.471-.9-1.05V6.217c.002-.579.404-1.048.9-1.05H2.241c-.496.002-.898.471-.899 1.05V31.43c.001.58.403 1.049.9 1.05z" fill="#fff"/><path d="M11.613 32.55H32.07l1.53-.001v.001c0-.006-.002.012 0-.012V7.351H2.367c-.413-.001-.22.002-.266 0H2.1V32.55v-.001c-.024.002.116 0 .165.001h4.021c.028.256.008.56.014.837v5.736l.004.782c-.005.008.004.008-.007.008l-.039.014a.186.186 0 0 0 .035-.033c.018.01-.003.002.008.004l1.678 1.264a2.1 2.1 0 0 1-1.68.839 2.128 2.128 0 0 1-1.683-.84 2.165 2.165 0 0 1-.387-.903 3.46 3.46 0 0 1-.029-.416V34.65H2.089c-.082-.003-.163-.005-.244-.016a2.1 2.1 0 0 1-1.84-1.973L0 30.653V15.031l.017-7.94a2.107 2.107 0 0 1 1.976-1.837l.542-.004H33.29a4.04 4.04 0 0 1 .665.031A2.103 2.103 0 0 1 35.7 7.34v24.903c.008.222-.003.445-.032.666a2.107 2.107 0 0 1-2.062 1.741H11.613v-2.1z" fill="#fff"/><path d="M20.013 32.55a1.105 1.105 0 0 0-.746.304l-.126.158a.8.8 0 0 0-.095.189.665.665 0 0 0-.062.19 1.465 1.465 0 0 0-.021.209c.004.278.113.544.304.745A1.035 1.035 0 0 0 20.98 34a1.04 1.04 0 0 0-.966-1.45z" fill="#51A1FF"/><path fill-rule="evenodd" clip-rule="evenodd" d="M57.75 0h-27.3a5.256 5.256 0 0 0-5.25 5.25H2.535l-.542.004A2.107 2.107 0 0 0 .017 7.091L0 15.031v15.622l.004 2.008a2.1 2.1 0 0 0 2.046 1.987l.038.002H4.2v5.192c.002.139.011.278.03.416.057.326.19.635.386.903.4.526 1.021.836 1.682.84a2.08 2.08 0 0 0 1.531-.683.513.513 0 0 0 .042-.043l.023-.024a.52.52 0 0 1 .038-.04.375.375 0 0 0 .047-.05l-.006-.004c.006-.009.014-.017.021-.025.01-.01.02-.02.028-.033l4.163-6.449h3.628a1.05 1.05 0 1 0 0-2.1h-4.2v.02a1.03 1.03 0 0 0-.882.46l-4.432 6.866a8.74 8.74 0 0 0 .001-.534 18.019 18.019 0 0 1 0-.74v-6.037c-.007-.045-.065-.04-.123-.035a.274.274 0 0 1-.086 0H2.1V7.35l6.293-.001h23.433l1.774.001v25.2l-.001.05v-.05h-9.386a1.05 1.05 0 1 0 0 2.1h.987v23.1A5.256 5.256 0 0 0 30.45 63h27.3A5.256 5.256 0 0 0 63 57.75V5.25A5.256 5.256 0 0 0 57.75 0zM2.1 32.55zM50.041 3.62l.76-1.52H37.399l.76 1.52c.177.356.54.581.939.58h10.004c.398.001.762-.224.94-.58zM57.75 60.9a3.153 3.153 0 0 0 3.15-3.15V5.25a3.153 3.153 0 0 0-3.15-3.15h-4.6l-1.23 2.459A3.134 3.134 0 0 1 49.102 6.3H39.098a3.134 3.134 0 0 1-2.818-1.741L35.05 2.1h-4.6a3.153 3.153 0 0 0-3.15 3.15h5.99a4.04 4.04 0 0 1 .665.032A2.104 2.104 0 0 1 35.7 7.34v7.43a8.58 8.58 0 0 1 5.069 2.464l.181.18V15.75a1.05 1.05 0 1 1 2.1 0v4.2a.068.068 0 0 1-.004.02.076.076 0 0 0-.004.019 1.033 1.033 0 0 1-.072.363l-.002.003c-.004.01-.011.017-.015.026-.047.102-.11.196-.188.278a.994.994 0 0 1-.08.072 1.03 1.03 0 0 1-.22.148A.997.997 0 0 1 42 21h-4.2a1.05 1.05 0 1 1 0-2.1h1.666l-.182-.181A6.504 6.504 0 0 0 35.7 16.89v15.352c.008.223-.003.446-.032.666a2.107 2.107 0 0 1-2.062 1.741l-.98.001H27.3v23.1a3.153 3.153 0 0 0 3.15 3.15h27.3z" fill="#51A1FF"/><path d="M50.4 56.7H37.8a1.05 1.05 0 1 0 0 2.1h12.6a1.05 1.05 0 1 0 0-2.1z" fill="#51A1FF"/><path fill-rule="evenodd" clip-rule="evenodd" d="M51.21 36.34v.002l3.297 7.328a1.05 1.05 0 0 1-1.915.86l-3.029-6.73H38.636l-3.028 6.73a1.05 1.05 0 1 1-1.916-.86l8.492-18.873a2.1 2.1 0 0 1 3.83 0l5.195 11.544zM44.1 25.659L39.581 35.7h9.037L44.1 25.658z" fill="#51A1FF"/><path d="M10.672 28.926a1.05 1.05 0 0 0 1.454.302c2-1.347 3.913-2.818 5.727-4.405a54.534 54.534 0 0 0 3.02 2.465 57.935 57.935 0 0 0 1.626 1.198l1.073.74a1.05 1.05 0 0 0 1.156-1.753l-1.012-.7a57.66 57.66 0 0 1-3.566-2.746c-.242-.201-.49-.418-.736-.632 2.384-2.289 4.642-4.997 5.526-7.645h.26a1.05 1.05 0 1 0 0-2.1h-6.3v-2.1a1.05 1.05 0 1 0-2.1 0v2.1h-6.3a1.05 1.05 0 0 0 0 2.1h12.2a20.835 20.835 0 0 1-4.846 6.235 31.522 31.522 0 0 1-1.978-2.027 23.73 23.73 0 0 1-.943-1.12 1.05 1.05 0 0 0-1.647 1.305c.324.409.667.814 1.023 1.214a32.961 32.961 0 0 0 1.985 2.038 58.084 58.084 0 0 1-5.32 4.077 1.05 1.05 0 0 0-.302 1.454z" fill="#51A1FF"/><defs><linearGradient id="paint0_linear" x1="8.949" y1="51.64" x2="62.155" y2="66.841" gradientUnits="userSpaceOnUse"><stop stop-color="#D3DFF2"/><stop offset=".172" stop-color="#D3DFF2"/><stop offset=".2" stop-color="#D3DFF2"/><stop offset=".2" stop-color="#DAE2F2"/><stop offset=".201" stop-color="#EBEAF2"/><stop offset=".201" stop-color="#F6EFF2"/><stop offset=".202" stop-color="#FDF2F2"/><stop offset=".205" stop-color="#FFF3F2"/><stop offset=".252" stop-color="#FFF3F2"/><stop offset=".26" stop-color="#FFF3F2"/><stop offset=".26" stop-color="#D3DFF2"/><stop offset=".397" stop-color="#D3DFF2"/><stop offset=".42" stop-color="#D3DFF2"/><stop offset=".42" stop-color="#DAE2F2"/><stop offset=".421" stop-color="#EBEAF2"/><stop offset=".421" stop-color="#F6EFF2"/><stop offset=".422" stop-color="#FDF2F2"/><stop offset=".425" stop-color="#FFF3F2"/><stop offset=".489" stop-color="#FFF3F2"/><stop offset=".5" stop-color="#FFF3F2"/><stop offset=".5" stop-color="#F8F0F2"/><stop offset=".5" stop-color="#E7E8F2"/><stop offset=".5" stop-color="#DCE3F2"/><stop offset=".5" stop-color="#D5E0F2"/><stop offset=".501" stop-color="#D3DFF2"/><stop offset=".706" stop-color="#D3DFF2"/><stop offset=".74" stop-color="#D3DFF2"/><stop offset=".741" stop-color="#FFF3F2"/><stop offset=".835" stop-color="#FFF3F2"/><stop offset=".85" stop-color="#FFF3F2"/><stop offset=".851" stop-color="#D3DFF2"/></linearGradient></defs></svg>