<svg width="24" height="30" fill="none" xmlns="http://www.w3.org/2000/svg"><path d="M19.728 9.701H4.138a.62.62 0 0 0-.628.613v12.762a.62.62 0 0 0 .628.613h2.779v4.3c0 .998.829 1.807 1.85 1.807 1.023 0 1.852-.809 1.852-1.807v-4.3h2.589v4.3c0 .998.829 1.807 1.85 1.807 1.023 0 1.852-.809 1.852-1.807v-4.3h2.818a.62.62 0 0 0 .628-.613V10.314a.62.62 0 0 0-.628-.613zm-17.973 0c-.97 0-1.755.819-1.755 1.83v7.428c0 1.01.786 1.83 1.755 1.83.969 0 1.755-.82 1.755-1.83V11.53c0-1.01-.786-1.829-1.755-1.829z" fill="#AAC148"/><path d="M22.11 9.701c-.968 0-1.754.819-1.754 1.83v7.428c0 1.01.785 1.83 1.755 1.83.969 0 1.754-.82 1.754-1.83V11.53c0-1.01-.785-1.829-1.754-1.829z" fill="#AAC148"/><path fill-rule="evenodd" clip-rule="evenodd" d="M19.716 9.008c.406 0 .71-.359.626-.74-.515-2.355-2.078-4.339-4.198-5.485L17.475.48a.316.316 0 0 0-.131-.44.344.344 0 0 0-.458.127l-1.34 2.32a8.865 8.865 0 0 0-3.613-.762c-1.29 0-2.515.273-3.613.762L6.98.167A.344.344 0 0 0 6.521.04a.316.316 0 0 0-.132.438L7.72 2.782C5.6 3.928 4.037 5.912 3.523 8.267c-.084.381.219.74.625.74h15.567zm-3.138-3.433c0 .384-.324.695-.724.695-.4 0-.724-.311-.724-.695 0-.383.324-.694.724-.694.4 0 .724.31.724.694zm-7.843 0c0-.383-.324-.694-.724-.694-.4 0-.723.31-.723.694 0 .384.324.695.723.695.4 0 .724-.311.724-.695z" fill="#AAC148"/></svg>