<svg width="27" height="30" fill="none" xmlns="http://www.w3.org/2000/svg"><path d="M17.56 4.674C18.57 3.462 19.335 1.749 19.058 0c-1.65.107-3.578 1.089-4.703 2.368-1.026 1.16-1.869 2.884-1.539 4.56 1.804.052 3.665-.954 4.744-2.254z" fill="#000"/><path d="M25.307 9.957c-1.569-1.917-3.776-3.028-5.86-3.028-2.75 0-3.913 1.282-5.823 1.282-1.97 0-3.467-1.278-5.846-1.278-2.337 0-4.825 1.39-6.403 3.767-2.217 3.349-1.839 9.641 1.757 15.002 1.286 1.919 3.002 4.074 5.248 4.094 2 .02 2.563-1.248 5.272-1.263 2.708-.015 3.223 1.28 5.218 1.257 2.248-.017 4.06-2.407 5.345-4.325.92-1.375 1.265-2.068 1.98-3.62-5.201-1.926-6.035-9.125-.888-11.888z" fill="#1B546B"/><path d="M22.13 13.859c-3.954 3.06-9.542 4.972-15.745 4.972-2.223 0-4.367-.246-6.385-.701.341 2.483 1.315 5.152 3.003 7.623 1.293 1.895 3.019 4.024 5.278 4.043 2.01.02 2.577-1.232 5.301-1.247 2.723-.015 3.24 1.263 5.247 1.242 2.26-.018 4.082-2.377 5.375-4.272.926-1.357 1.272-2.042 1.991-3.575-3.556-1.293-5.08-4.99-4.065-8.085z" fill="#000"/></svg>