<svg width="72" height="72" fill="none" xmlns="http://www.w3.org/2000/svg"><path d="M35.804 40.63a3.613 3.613 0 1 0 0-7.226 3.613 3.613 0 0 0 0 7.225zm15.656-9.635a3.613 3.613 0 1 0 0-7.226 3.613 3.613 0 0 0 0 7.226zm1.204 14.452a3.613 3.613 0 1 0 0-7.226 3.613 3.613 0 0 0 0 7.226zM38.213 20.156a3.613 3.613 0 1 0 0-7.226 3.613 3.613 0 0 0 0 7.226zm7.226-10.839a3.613 3.613 0 1 0 0-7.225 3.613 3.613 0 0 0 0 7.225zm19.269 10.839a3.613 3.613 0 1 0 0-7.225 3.613 3.613 0 0 0 0 7.225zM68.32 38.22a3.613 3.613 0 1 0 0-7.225 3.613 3.613 0 0 0 0 7.226zm-6.021 16.86a3.613 3.613 0 1 0 0-7.225 3.613 3.613 0 0 0 0 7.226zm1.204 12.044a3.613 3.613 0 1 0 0-7.226 3.613 3.613 0 0 0 0 7.226zM51.46 71.94a3.613 3.613 0 1 0 0-7.225 3.613 3.613 0 0 0 0 7.226zm-3.613-12.042a3.613 3.613 0 1 0 0-7.226 3.613 3.613 0 0 0 0 7.226zm-15.656-3.613a3.613 3.613 0 1 0 0-7.226 3.613 3.613 0 0 0 0 7.226zM20.148 43.038a3.613 3.613 0 1 0 0-7.226 3.613 3.613 0 0 0 0 7.226zm2.409-15.656a3.613 3.613 0 1 0 0-7.226 3.613 3.613 0 0 0 0 7.226zm-16.86 4.817a3.613 3.613 0 1 0 0-7.226 3.613 3.613 0 0 0 0 7.226zm4.817-10.839a3.613 3.613 0 1 0 0-7.225 3.613 3.613 0 0 0 0 7.225zM24.966 9.317a3.613 3.613 0 1 0 0-7.226 3.613 3.613 0 0 0 0 7.226zM16.535 57.49a3.613 3.613 0 1 0 0-7.226 3.613 3.613 0 0 0 0 7.225zM5.697 47.855a3.613 3.613 0 1 0 0-7.226 3.613 3.613 0 0 0 0 7.226z" fill="#E7EBF4"/><path d="M5.54 46.988a3.305 3.305 0 0 0 1.73-.503c-1.07-.64-1.73-1.832-1.73-3.123 0-1.292.66-2.484 1.73-3.124a3.306 3.306 0 0 0-1.73-.503c-1.91 0-3.46 1.624-3.46 3.627 0 2.002 1.55 3.626 3.46 3.626zm0-15.716a3.305 3.305 0 0 0 1.73-.503c-1.07-.64-1.73-1.832-1.73-3.123 0-1.291.66-2.484 1.73-3.124a3.307 3.307 0 0 0-1.73-.503c-1.91 0-3.46 1.624-3.46 3.627 0 2.003 1.55 3.626 3.46 3.626zm4.612-10.88a3.305 3.305 0 0 0 1.73-.503c-1.07-.64-1.73-1.832-1.73-3.123 0-1.291.66-2.484 1.73-3.124a3.306 3.306 0 0 0-1.73-.503c-1.91 0-3.459 1.624-3.459 3.627 0 2.003 1.549 3.627 3.46 3.627z" fill="#fff"/><path fill-rule="evenodd" clip-rule="evenodd" d="M65.686 19.915l1.781 8.922a4.789 4.789 0 0 1-.267 9.57c-.093 0-.183-.012-.272-.024-.052-.007-.103-.014-.155-.019l-2.879 8.073a4.781 4.781 0 0 1-1.038 8.454l.276 2.786a4.788 4.788 0 1 1-4.587 7.557l-3.406 1.365c.033.2.054.4.061.602a4.791 4.791 0 0 1-9.27 1.714 4.79 4.79 0 0 1 1.992-5.803l-.94-3.128a.745.745 0 0 0-.084.009.668.668 0 0 1-.098.01 4.798 4.798 0 0 1-4.786-4.67l-6.576-1.523a4.765 4.765 0 0 1-8.758-.655l-6.365.49a4.794 4.794 0 0 1-9.515-.84 4.736 4.736 0 0 1 .546-2.176l-3.87-3.441a4.792 4.792 0 0 1-7.409-4.724A4.79 4.79 0 0 1 3.6 38.578v-6.34a4.789 4.789 0 0 1 1.2-9.427c.264.005.527.031.787.08l1.038-2.342a4.778 4.778 0 0 1 2.976-8.536 4.754 4.754 0 0 1 3.031 1.11l6.906-6.57A4.786 4.786 0 0 1 25.093.13a4.787 4.787 0 0 1 3.537 3.486h11.14a4.788 4.788 0 0 1 9.339 2.108l10.84 6.812a4.786 4.786 0 0 1 8.45 2.75 4.784 4.784 0 0 1-2.713 4.63zm-10.558 7.213l8.292 3.558a4.8 4.8 0 0 1 1.694-1.38l-1.78-8.921a4.754 4.754 0 0 1-2.557-.91l-6.03 4.929c.42.842.553 1.799.38 2.724zm1.306 23.603l-5.614 1.865a4.823 4.823 0 0 0-1.411-1.41l1.864-5.613c.046.003.09.009.135.015.063.009.127.018.192.018a4.746 4.746 0 0 0 2.423-.68l3.058 3.056a4.743 4.743 0 0 0-.68 2.423c0 .066.008.13.017.193.006.044.012.089.016.133zM34.93 40.794l-1.525 6.573a4.78 4.78 0 0 1 2.581 4.107l6.576 1.524a4.81 4.81 0 0 1 .762-1.086l-7.09-11.349a4.741 4.741 0 0 1-1.304.23zm-8.445 9.97l-6.365.49a4.736 4.736 0 0 0-.25-.594l12.22-10.696c.162.103.33.197.503.28L31.07 46.82a4.793 4.793 0 0 0-4.585 3.944zM9.054 45.38l3.87 3.441a4.774 4.774 0 0 1 2.64-.813l1.348-5.41a4.81 4.81 0 0 1-1.732-1.584l-5.613 1.864c.003.046.009.09.015.135.009.063.018.127.018.192a4.736 4.736 0 0 1-.546 2.175zM9.6 27.609a.41.41 0 0 0-.006-.061c-.003-.019-.006-.037-.006-.056l7.891-2.26a4.81 4.81 0 0 0 2.224 1.983l-.983 6.441a4.789 4.789 0 0 0-4.32 4.75c0 .066.008.13.017.193.006.044.012.089.016.134L8.82 40.6A4.8 4.8 0 0 0 6 38.578v-6.34a4.795 4.795 0 0 0 3.6-4.628zM20.969 8.505l-6.906 6.57c.35.87.43 1.825.228 2.74l3.71 1.855a4.764 4.764 0 0 1 3.025-1.6l1.168-8.815a4.775 4.775 0 0 1-1.225-.75zM44.4 9.614a.285.285 0 0 0 .043-.004l.04-.005 3.526 12.669a4.793 4.793 0 0 0-.432.275l-6.03-4.93a4.697 4.697 0 0 0-.78-5.188l2.063-3.103c.504.184 1.035.28 1.57.286zm5.619 26.683l-.428-5.17a4.775 4.775 0 0 1-2.51-1.265l-7.714 4.744c.148.453.227.926.233 1.402a.412.412 0 0 1-.006.061.463.463 0 0 0-.005.056l7.891 2.26a4.793 4.793 0 0 1 2.539-2.088zM18.303 48.843c-.09-.062-.189-.113-.287-.164a6.006 6.006 0 0 1-.128-.068l1.348-5.408a4.787 4.787 0 0 0 4.716-4.316l6.442-.983c.022.049.048.094.075.14.02.033.04.067.057.101L18.303 48.843zm2.674-28.351a2.4 2.4 0 1 0 2.317 4.017l.002-.003.003-.002a2.4 2.4 0 0 0-2.322-4.012zm24.857 7.32l-7.714 4.744a4.797 4.797 0 0 0-1.586-1.01l1.317-11.2a4.752 4.752 0 0 0 2.173-.872l6.03 4.93a4.52 4.52 0 0 0-.22 3.408zm-8.634-9.8a2.4 2.4 0 1 0 0-4.8 2.4 2.4 0 0 0 0 4.8zm-1.734 2.063l-1.316 11.2a4.741 4.741 0 0 0-1.773.614l-6.657-6.656c.605-.979.817-2.15.594-3.28l7.194-3.311a4.794 4.794 0 0 0 1.958 1.433zM24.023 26.93a4.743 4.743 0 0 1-1.943.631l-.983 6.441a4.824 4.824 0 0 1 2.51 2.51l6.442-.983c.067-.686.282-1.35.632-1.944l-6.658-6.655zm-4.822 9.078a2.4 2.4 0 1 1 0 4.8 2.4 2.4 0 0 1 0-4.8zm15.073 2.337c.172.04.349.061.526.062a2.4 2.4 0 1 0-1.693-4.097l-.002.002-.003.002a2.394 2.394 0 0 0 1.163 4.028h.003l.006.003zm6.56-30.348l-2.063 3.102a4.628 4.628 0 0 0-4.394.652l-6.03-4.93c.118-.26.213-.53.283-.806h11.14a4.773 4.773 0 0 0 1.064 1.982zm-7.98 5.61l-6.03-4.93a4.753 4.753 0 0 1-2.25.879l-1.167 8.815a4.797 4.797 0 0 1 1.886 1.411l7.194-3.311a4.543 4.543 0 0 1 .367-2.865zm12.511 37.041l-7.09-11.349c.248-.264.464-.556.645-.87l7.892 2.26a.444.444 0 0 1-.006.056.412.412 0 0 0-.006.062 4.792 4.792 0 0 0 2.192 4.018l-1.865 5.612a1.916 1.916 0 0 1-.134-.015 1.388 1.388 0 0 0-.193-.017 4.74 4.74 0 0 0-1.435.243zm7.931-8.146l.003-.002a2.402 2.402 0 0 0-3.401-3.395 2.402 2.402 0 0 0 3.396 3.4l.002-.003zM50.4 28.81a2.4 2.4 0 1 1 0-4.8 2.4 2.4 0 0 1 0 4.8zm15.588-13.44a2.4 2.4 0 1 0-1.918 2.594h.011a2.4 2.4 0 0 0 1.907-2.593zm-7.096-.665a4.62 4.62 0 0 0 .362 2.914l-6.03 4.93a4.758 4.758 0 0 0-2.824-.938.275.275 0 0 0-.042.004l-.04.005-3.526-12.67a4.8 4.8 0 0 0 1.26-1.058l10.84 6.812zM46.8 4.815a2.4 2.4 0 1 0-4.799 0 2.4 2.4 0 0 0 4.8 0zM24 2.415a2.4 2.4 0 1 1 .001 4.8 2.4 2.4 0 0 1 0-4.8zM12 16.813a2.4 2.4 0 1 0-4.799 0 2.4 2.4 0 0 0 4.8 0zm-3.186 4.72c.26.048.523.075.787.08a4.77 4.77 0 0 0 3.6-1.659l3.709 1.855c-.072.33-.108.666-.11 1.003 0 .02.003.041.006.061a.343.343 0 0 1 .006.056l-7.891 2.26a4.8 4.8 0 0 0-1.145-1.314l1.038-2.342zM4.801 25.21a2.4 2.4 0 1 0 0 4.8 2.4 2.4 0 0 0 0-4.8zM2.4 43.206a2.4 2.4 0 1 1 4.8 0 2.4 2.4 0 0 1-4.8 0zm10.856 10.175a2.4 2.4 0 0 0 2.344 1.822 2.388 2.388 0 0 0 1.798-3.972h-.002v-.002a2.4 2.4 0 0 0-4.14 2.152zm17.944.623a2.4 2.4 0 1 1 .527-4.737l.005.003h.004a2.376 2.376 0 0 1 1.801 2.861l-.002.006v.002a2.4 2.4 0 0 1-2.335 1.865zm13.261.674a2.382 2.382 0 1 0 .003-.01v.003l-.003.007zM50.4 69.6a2.4 2.4 0 1 1 2.218-3.313c.002.005.002.01.002.014s0 .008.002.012l.001.002.008.013A2.387 2.387 0 0 1 50.4 69.6zm0-7.198a4.784 4.784 0 0 1 3.855 1.967l3.406-1.366a4.74 4.74 0 0 1-.06-.601 4.793 4.793 0 0 1 3.143-4.487l-.276-2.786a4.79 4.79 0 0 1-3.287-2.117l-5.614 1.865c.003.045.01.09.016.134.009.063.017.127.017.192a4.785 4.785 0 0 1-2.321 4.089l.94 3.128a.794.794 0 0 0 .084-.009.668.668 0 0 1 .097-.01zm14.4 0a2.399 2.399 0 0 1-4.62.9.069.069 0 0 0-.002-.015l-.007-.01a2.397 2.397 0 1 1 4.63-.875zm-5.817-11.077a2.399 2.399 0 0 0 4.535-.298 2.399 2.399 0 0 0-4.011-2.32l-.002.002-.003.002a2.398 2.398 0 0 0-.519 2.614zm2.645-5.676a3.859 3.859 0 0 1-.155-.019c-.09-.012-.18-.024-.273-.024a4.746 4.746 0 0 0-2.423.68l-3.057-3.057c.44-.731.676-1.568.68-2.422a4.797 4.797 0 0 0-3.99-4.717l-.428-5.17a4.79 4.79 0 0 0 2.198-1.588l8.293 3.559a4.75 4.75 0 0 0-.073.717 4.797 4.797 0 0 0 2.106 3.968l-2.878 8.073zm3.185-11.796a2.4 2.4 0 1 0 1.917-2.597l-.002.002-.015.001a2.4 2.4 0 0 0-1.9 2.594z" fill="#51A1FF"/></svg>