<svg width="66" height="66" fill="none" xmlns="http://www.w3.org/2000/svg"><path d="M26.7 28.596l3.95-3.236-6.745-7.599-4.341 2.026 4.939 5.573-3.852 3.114.11.122h5.94zm16.799 16.516c3.004 0 5.44-2.465 5.44-5.506 0-3.04-2.436-5.505-5.44-5.505H6.508c-3.004 0-5.44 2.465-5.44 5.505 0 3.041 2.436 5.506 5.44 5.506h36.99z" fill="#E7EBF4"/><path d="M29.355 51.718c1.202 0 2.176.986 2.176 2.203 0 1.216-.974 2.202-2.176 2.202 1.202 0 2.176.986 2.176 2.202s-.974 2.202-2.176 2.202h10.88a3.24 3.24 0 0 1 2.309.966c.612.62.956 1.461.955 2.337v1.101H6.508v-1.1a3.32 3.32 0 0 1 .955-2.338 3.24 3.24 0 0 1 2.309-.966h10.803c-1.171-.042-2.1-1.016-2.1-2.202 0-1.187.929-2.16 2.1-2.202-1.186-.043-2.12-1.04-2.1-2.24.021-1.201.99-2.164 2.176-2.165H9.771a3.24 3.24 0 0 1-2.308-.966 3.319 3.319 0 0 1-.955-2.337V30.798a3.32 3.32 0 0 1 .955-2.337 3.24 3.24 0 0 1 2.309-.966h30.463a3.24 3.24 0 0 1 2.309.966c.612.62.956 1.46.955 2.337v17.617a3.32 3.32 0 0 1-.955 2.337 3.24 3.24 0 0 1-2.31.966H29.356z" fill="#B2CDF8"/><path d="M26.2 51.718a2.194 2.194 0 0 1 2.067 2.203 2.194 2.194 0 0 1-2.067 2.202c1.18.06 2.096 1.06 2.067 2.256-.03 1.194-.995 2.147-2.176 2.148h10.88a3.24 3.24 0 0 1 2.31.966c.611.62.955 1.461.954 2.337v1.101H6.508v-1.1a3.32 3.32 0 0 1 .955-2.338 3.24 3.24 0 0 1 2.309-.966h10.781a.038.038 0 0 1-.021-.01c-.106 0-.212-.011-.316-.034a2.339 2.339 0 0 1-.685-.264l-.13-.1a2.075 2.075 0 0 1-.632-.704 1.621 1.621 0 0 1-.152-.308 2.004 2.004 0 0 1-.109-.44 1.798 1.798 0 0 1 0-.683c.02-.15.056-.299.109-.44.04-.109.09-.212.152-.309v-.01c.06-.106.13-.206.207-.298a.84.84 0 0 1 .196-.198.419.419 0 0 1 .098-.1.885.885 0 0 1 .13-.098l.13-.1c.214-.123.445-.212.686-.264a1.09 1.09 0 0 1 .272-.033.044.044 0 0 0 .048.033.045.045 0 0 0 .04-.044.044.044 0 1 0-.087-.01.917.917 0 0 1-.251-.034 2.29 2.29 0 0 1-.707-.264l-.131-.1a2.075 2.075 0 0 1-.424-.396 2.016 2.016 0 0 1-.207-.297v-.01a1.621 1.621 0 0 1-.152-.31 2.01 2.01 0 0 1-.11-.44 1.722 1.722 0 0 1-.032-.34c.004-1.215.976-2.2 2.176-2.203H9.771a3.24 3.24 0 0 1-2.308-.966 3.319 3.319 0 0 1-.955-2.337V30.798a3.32 3.32 0 0 1 .955-2.337 3.24 3.24 0 0 1 2.309-.966H36.97a3.24 3.24 0 0 1 2.31.966c.611.62.955 1.46.954 2.337v17.617a3.32 3.32 0 0 1-.955 2.337 3.24 3.24 0 0 1-2.31.966H26.2z" fill="#E7EBF4"/><path d="M31.531 58.325c-.003 1.215-.976 2.198-2.176 2.202h-3.264c1.181 0 2.146-.954 2.175-2.148.03-1.195-.887-2.196-2.066-2.256a2.194 2.194 0 0 0 2.067-2.203 2.194 2.194 0 0 0-2.067-2.202h3.155c1.202 0 2.176.986 2.176 2.202 0 1.217-.974 2.203-2.176 2.203 1.2.003 2.172.987 2.176 2.202z" fill="#B2CDF8"/><path d="M28.267 58.325c-.003 1.214-.976 2.198-2.176 2.202h-5.538a.039.039 0 0 1-.021-.011c-.107 0-.212-.01-.316-.033a2.34 2.34 0 0 1-.685-.264l-.13-.1a2.07 2.07 0 0 1-.632-.704 1.622 1.622 0 0 1-.152-.308 2.002 2.002 0 0 1-.109-.44 1.798 1.798 0 0 1 0-.684c.02-.15.056-.298.109-.44.04-.108.09-.211.152-.308v-.011c.06-.105.13-.205.207-.297a.841.841 0 0 1 .196-.199.42.42 0 0 1 .098-.099.969.969 0 0 1 .13-.099l.13-.099a2.34 2.34 0 0 1 .686-.264c.09-.023.18-.034.272-.033a.044.044 0 0 0 .048.033.045.045 0 0 0 .04-.044.045.045 0 0 0-.04-.044.044.044 0 0 0-.048.033.917.917 0 0 1-.25-.033 2.292 2.292 0 0 1-.707-.264l-.131-.1a2.07 2.07 0 0 1-.424-.396 2.016 2.016 0 0 1-.207-.297v-.011a1.622 1.622 0 0 1-.152-.308 2.002 2.002 0 0 1-.11-.44 1.722 1.722 0 0 1-.032-.342c.004-1.215.976-2.199 2.176-2.202H26.2a2.194 2.194 0 0 1 2.067 2.202 2.194 2.194 0 0 1-2.067 2.202 2.205 2.205 0 0 1 2.067 2.202z" fill="#E7EBF4"/><path d="M43.499 63.83v1.101h-3.264v-1.1a3.319 3.319 0 0 0-.955-2.338 3.24 3.24 0 0 0-2.31-.966h3.265a3.24 3.24 0 0 1 2.309.966c.612.62.956 1.46.955 2.337z" fill="#B2CDF8"/><path d="M40.235 63.83v1.101H6.508v-1.1a3.319 3.319 0 0 1 .955-2.338 3.24 3.24 0 0 1 2.309-.966H36.97a3.24 3.24 0 0 1 2.31.966c.611.62.955 1.46.954 2.337zM15.212 31.899h2.176c1.201 0 2.176.986 2.176 2.202v2.202c0 1.216-.975 2.202-2.176 2.202h-2.176c-1.202 0-2.176-.986-2.176-2.202v-2.202c0-1.216.974-2.202 2.176-2.202zm17.407 0h2.176c1.202 0 2.176.986 2.176 2.202v2.202c0 1.216-.974 2.202-2.176 2.202h-2.176c-1.202 0-2.176-.986-2.176-2.202v-2.202c0-1.216.974-2.202 2.176-2.202zM20.651 20.888c1.803 0 3.264-1.479 3.264-3.303 0-1.824-1.461-3.303-3.264-3.303-1.802 0-3.264 1.479-3.264 3.303 0 1.824 1.462 3.303 3.264 3.303zM64.17 2.17v19.817c0 .608-.487 1.101-1.088 1.101H58.73l-4.57 7.267a1.08 1.08 0 0 1-1.214.384 1.1 1.1 0 0 1-.743-1.044v-6.607H40.234a1.095 1.095 0 0 1-1.088-1.101V2.17c0-.608.487-1.101 1.088-1.101h22.847c.601 0 1.088.493 1.088 1.1z" fill="#E7EBF4"/><path fill="#F5F5F5" d="M13.036 47.314h23.935v4.404H13.036zm23.934-2.202v2.202H13.037v-2.202c.003-1.215.975-2.199 2.176-2.202h19.583c1.2.003 2.172.987 2.176 2.202z"/><path d="M64.17 2.17v19.82a1.098 1.098 0 0 1-1.088 1.1h-3.264a1.098 1.098 0 0 0 1.088-1.1V2.17a1.098 1.098 0 0 0-1.088-1.101h3.264c.6.002 1.086.494 1.088 1.1z" fill="#B2CDF8"/><path d="M12.924 61.473H9.69a3.177 3.177 0 0 0-2.287.978 3.397 3.397 0 0 0-.946 2.365v1.114H9.69v-1.114a3.397 3.397 0 0 1 .946-2.365 3.177 3.177 0 0 1 2.288-.978zM6.457 49.216c-.001.886.34 1.737.946 2.365.606.627 1.43.979 2.288.978h3.233a3.177 3.177 0 0 1-2.288-.978 3.396 3.396 0 0 1-.945-2.365v-3.343c-2.977 0-5.39-2.495-5.39-5.572s2.413-5.572 5.39-5.572v-3.343a3.397 3.397 0 0 1 .945-2.365 3.177 3.177 0 0 1 2.288-.977H9.691a3.177 3.177 0 0 0-2.288.977 3.397 3.397 0 0 0-.946 2.365v3.343c-2.977 0-5.39 2.495-5.39 5.572s2.413 5.572 5.39 5.572v3.343z" fill="#fff"/><path d="M5.49 64.9v-.894a6.746 6.746 0 0 1 .014-.525 4.89 4.89 0 0 1 .08-.59 4.402 4.402 0 0 1 4.26-3.49h30.702c.395-.004.788.043 1.17.141a4.386 4.386 0 0 1 3.193 3.312c.076.374.11.756.103 1.138v.908h-2.196v-.908a2.898 2.898 0 0 0-.053-.668 2.198 2.198 0 0 0-.563-1.051 2.17 2.17 0 0 0-1.03-.6 2.33 2.33 0 0 0-.624-.073h-29.8l-.884.001a2.325 2.325 0 0 0-.588.086 2.209 2.209 0 0 0-1.542 1.656 3.136 3.136 0 0 0-.047.663v.894H5.49z" fill="#fff"/><path d="M13.171 61.281c.1-.105.178-.228.231-.362a1.12 1.12 0 0 0 .088-.419 1.1 1.1 0 1 0-1.877-.781l-.132.165a.84.84 0 0 0-.1.198.697.697 0 0 0-.065.198c-.012.073-.02.146-.022.22.004.291.118.57.319.78a1.131 1.131 0 0 0 1.558.001z" fill="#51A1FF"/><path fill-rule="evenodd" clip-rule="evenodd" d="M15.37 30.8h2.196a3.3 3.3 0 0 1 3.293 3.3v2.2a3.3 3.3 0 0 1-3.293 3.3H15.37a3.3 3.3 0 0 1-3.294-3.3v-2.2a3.3 3.3 0 0 1 3.294-3.3zm2.196 6.6a1.1 1.1 0 0 0 1.098-1.1v-2.2a1.1 1.1 0 0 0-1.098-1.1H15.37a1.1 1.1 0 0 0-1.098 1.1v2.2a1.1 1.1 0 0 0 1.098 1.1h2.196zm15.37-6.6h2.195a3.3 3.3 0 0 1 3.294 3.3v2.2a3.3 3.3 0 0 1-3.294 3.3h-2.195a3.3 3.3 0 0 1-3.294-3.3v-2.2a3.3 3.3 0 0 1 3.294-3.3zm2.195 6.6a1.1 1.1 0 0 0 1.098-1.1v-2.2a1.1 1.1 0 0 0-1.098-1.1h-2.195a1.1 1.1 0 0 0-1.098 1.1v2.2a1.1 1.1 0 0 0 1.098 1.1h2.195z" fill="#51A1FF"/><path fill-rule="evenodd" clip-rule="evenodd" d="M45.012 33.1v-2.3a4.4 4.4 0 0 0-4.391-4.4H30.339l1.255-.914a1.1 1.1 0 0 0 .13-1.667L25.222 17.3a4.384 4.384 0 0 0-4.468-4.1 4.385 4.385 0 0 0-4.284 4.293 4.386 4.386 0 0 0 4.093 4.476l2.492 2.489-2.7 1.941H9.88a4.4 4.4 0 0 0-4.392 4.4v2.3A6.588 6.588 0 0 0 0 39.6c0 3.22 2.32 5.967 5.49 6.5v2.3a4.4 4.4 0 0 0 4.39 4.4h7.888a3.201 3.201 0 0 0 .654 3.3 3.2 3.2 0 0 0-.654 3.3h-.984a1.099 1.099 0 0 0 0 2.2h23.762c.21-.004.42.02.625.073a2.188 2.188 0 0 1 1.645 2.127H7.684a2.37 2.37 0 0 1 .123-.72c.16-.467.472-.865.887-1.13a1.39 1.39 0 0 0 .411-1.355 1.005 1.005 0 0 0-1.598-.497 4.386 4.386 0 0 0-1.776 2.264c-.157.463-.24.948-.243 1.438v1.1A1.1 1.1 0 0 0 6.587 66h37.236a1.096 1.096 0 0 0 1.097-1.1h.092v-.909a5.217 5.217 0 0 0-.103-1.138 4.386 4.386 0 0 0-3.193-3.312 4.587 4.587 0 0 0-1.17-.141h-7.813a3.201 3.201 0 0 0-.654-3.3 3.201 3.201 0 0 0 .654-3.3h7.888a4.4 4.4 0 0 0 4.391-4.4v-2.3a6.588 6.588 0 0 0 5.49-6.5 6.586 6.586 0 0 0-5.49-6.5zM18.664 17.6c0-1.215.983-2.2 2.195-2.2 1.213 0 2.196.985 2.196 2.2 0 1.215-.983 2.2-2.196 2.2a2.2 2.2 0 0 1-2.195-2.2zm4.413 3.776l2.444 2.442a1.101 1.101 0 0 1-.135 1.672l-1.266.91h2.486l2.658-1.936-4.635-4.644a4.399 4.399 0 0 1-1.552 1.556zM2.196 39.6c.006-2 1.36-3.745 3.293-4.244v8.488A4.394 4.394 0 0 1 2.196 39.6zm12.076 6.6H36.23v-1.1a1.1 1.1 0 0 0-1.098-1.1H15.37a1.1 1.1 0 0 0-1.098 1.1v1.1zm0 2.2H36.23v2.2H14.272v-2.2zm15.37 6.6a1.1 1.1 0 0 0 0-2.2H20.86a1.099 1.099 0 0 0 0 2.2 1.099 1.099 0 0 1 0 2.2 1.099 1.099 0 0 0 0 2.2h8.783a1.099 1.099 0 0 0 0-2.2 1.099 1.099 0 1 1 0-2.2zm13.174-6.6a2.2 2.2 0 0 1-2.195 2.2h-2.196v-5.5a3.3 3.3 0 0 0-3.294-3.3H15.37a3.3 3.3 0 0 0-3.294 3.3v5.5H9.881a2.2 2.2 0 0 1-2.196-2.2V30.8a2.2 2.2 0 0 1 2.196-2.2h30.74a2.2 2.2 0 0 1 2.195 2.2v17.6zm5.49-8.8a4.377 4.377 0 0 0-3.294-4.244v8.488a4.377 4.377 0 0 0 3.294-4.244zM40.62 0h23.056a2.2 2.2 0 0 1 2.195 2.2v19.798a2.2 2.2 0 0 1-2.195 2.2h-2.691l-4.288 6.75a2.173 2.173 0 0 1-2.498.837 2.17 2.17 0 0 1-1.502-2.087v-5.5H40.621a2.2 2.2 0 0 1-2.196-2.2V2.2A2.2 2.2 0 0 1 40.62 0zm19.762 21.998h3.293v-19.8L40.62 2.2v19.798h13.175a1.097 1.097 0 0 1 1.098 1.1v6.6l4.563-7.191c.201-.317.55-.509.926-.51z" fill="#51A1FF"/><path d="M45.012 13.2c.291 0 .57-.116.776-.322l3.719-3.726 3.63 2.728c.436.33 1.048.286 1.434-.102l3.615-3.623V8.8a1.099 1.099 0 1 0 2.196 0V5.5a1.085 1.085 0 0 0-.127-.49 1.083 1.083 0 0 0-.52-.508l-.028-.017-.003-.001a1.077 1.077 0 0 0-.382-.076c-.013 0-.024-.008-.038-.008h-3.293a1.099 1.099 0 0 0 0 2.2h.643l-2.942 2.948-3.63-2.728a1.093 1.093 0 0 0-1.435.102l-4.391 4.4a1.102 1.102 0 0 0 .776 1.878zm0 6.6a1.096 1.096 0 0 0 1.098-1.1v-2.2a1.099 1.099 0 1 0-2.196 0v2.2a1.101 1.101 0 0 0 1.098 1.1z" fill="#51A1FF"/><path d="M49.404 12.1a1.096 1.096 0 0 0-1.099 1.1v5.5a1.099 1.099 0 1 0 2.196 0v-5.5a1.101 1.101 0 0 0-1.097-1.1zm4.391 2.2a1.096 1.096 0 0 0-1.098 1.1v3.3a1.099 1.099 0 1 0 2.195 0v-3.3a1.1 1.1 0 0 0-1.097-1.1zm4.391-2.2a1.097 1.097 0 0 0-1.097 1.1v5.5a1.099 1.099 0 1 0 2.195 0v-5.5a1.1 1.1 0 0 0-1.098-1.1z" fill="#51A1FF"/></svg>