<svg width="63" height="63" fill="none" xmlns="http://www.w3.org/2000/svg"><path d="M61.768 7.494v50.1a4.175 4.175 0 0 1-4.175 4.174H5.407a4.175 4.175 0 0 1-4.175-4.175V7.494h60.536z" fill="url(#paint0_linear)"/><path d="M51.33 35.675c0 10.952-8.878 19.83-19.83 19.83-.522 0-1.054-.02-1.566-.062-10.308-.821-18.256-9.427-18.256-19.768 0-10.342 7.948-18.947 18.256-19.769A19.831 19.831 0 0 1 51.33 35.674z" fill="#A4C2F7"/><path d="M29.934 55.443c10.088 0 18.266-8.85 18.266-19.768 0-10.918-8.178-19.768-18.266-19.768-10.087 0-18.265 8.85-18.265 19.768 0 10.918 8.178 19.768 18.265 19.768z" fill="#E3E7F2"/><path d="M61.768 5.407v4.175H1.232V5.407a4.175 4.175 0 0 1 4.175-4.175h52.186a4.175 4.175 0 0 1 4.175 4.175z" fill="#A4C2F7"/><path d="M58.637 5.407v4.175H1.232V5.407a4.175 4.175 0 0 1 4.175-4.175h49.055a4.175 4.175 0 0 1 4.175 4.175z" fill="#E3E7F2"/><path d="M5.407 61.768h3.131a4.175 4.175 0 0 1-4.175-4.175V5.407a4.175 4.175 0 0 1 4.175-4.175H5.407a4.175 4.175 0 0 0-4.175 4.175v52.186a4.175 4.175 0 0 0 4.175 4.175z" fill="#fff"/><path d="M0 57.75V5.25h2.096v52.5H0z" fill="#fff"/><path d="M.65 50.316c.06.03.123.052.188.063.07.012.14.019.21.021a1.1 1.1 0 0 0 .744-.304c.095-.1.17-.218.22-.347.158-.391.072-.84-.22-1.144-.1-.095-.217-.17-.346-.22a1.05 1.05 0 0 0-.398-.085 1.102 1.102 0 0 0-.744.305 1.066 1.066 0 0 0 0 1.49l.157.127c.059.04.122.071.189.094z" fill="#428DFF"/><path fill-rule="evenodd" clip-rule="evenodd" d="M57.638 63H5.24A5.251 5.251 0 0 1 0 57.75v-4.2a1.05 1.05 0 1 1 2.096 0v4.2c0 1.74 1.408 3.15 3.144 3.15h52.397a3.147 3.147 0 0 0 3.144-3.15V10.5H2.096v34.65a1.049 1.049 0 1 1-2.096 0V5.25A5.251 5.251 0 0 1 5.24 0h52.398a5.251 5.251 0 0 1 5.24 5.25v52.5a5.251 5.251 0 0 1-5.24 5.25zM2.096 5.25V8.4h58.685V5.25c0-1.74-1.407-3.15-3.143-3.15H5.24a3.147 3.147 0 0 0-3.144 3.15z" fill="#428DFF"/><path d="M7.336 4.2H6.288a1.049 1.049 0 0 0 0 2.1h1.048a1.049 1.049 0 0 0 0-2.1zm4.59.084a.958.958 0 0 0-.797 0 1.21 1.21 0 0 0-.345.22 1.066 1.066 0 0 0 0 1.491c.101.093.218.168.345.22a.986.986 0 0 0 .797 0 1.21 1.21 0 0 0 .346-.22 1.066 1.066 0 0 0 0-1.49 1.21 1.21 0 0 0-.346-.221zm3.049.22c-.092.103-.167.22-.22.347a.991.991 0 0 0 0 .798c.053.127.128.244.22.346a1.061 1.061 0 0 0 1.488 0c.093-.102.167-.219.22-.346a.882.882 0 0 0 .084-.4 1.047 1.047 0 1 0-1.792-.745zM56.59 4.2H20.96a1.049 1.049 0 0 0 0 2.1h35.63a1.049 1.049 0 0 0 0-2.1z" fill="#428DFF"/><path fill-rule="evenodd" clip-rule="evenodd" d="M16.243 50.117A20.846 20.846 0 0 0 31.448 56.7a20.845 20.845 0 0 0 15.2-6.592.987.987 0 0 0 .147-.105.944.944 0 0 0 .09-.153c7.355-7.993 7.355-20.303 0-28.296a1.014 1.014 0 0 0-.09-.153.937.937 0 0 0-.156-.118 20.846 20.846 0 0 0-15.195-6.579 20.846 20.846 0 0 0-15.195 6.58.931.931 0 0 0-.156.117.944.944 0 0 0-.09.153c-7.354 7.993-7.354 20.303 0 28.296a.944.944 0 0 0 .09.153.965.965 0 0 0 .15.114zm.765-26.565a21.25 21.25 0 0 0 4.552 2.803 37.503 37.503 0 0 0-1.098 8.295H12.63a18.815 18.815 0 0 1 4.376-11.093l.003-.005zM42.415 34.65h7.833a18.815 18.815 0 0 0-4.376-11.091 21.246 21.246 0 0 1-4.554 2.796 37.52 37.52 0 0 1 1.097 8.295zm3.457 13.193a21.25 21.25 0 0 0-4.554-2.798 37.503 37.503 0 0 0 1.097-8.295h7.833a18.815 18.815 0 0 1-4.376 11.093zm-7.113-1.538a22.208 22.208 0 0 0-6.272-1.197v9.346c2.568-.674 4.84-3.769 6.272-8.15zm-6.272-3.298V36.75h7.833a35.612 35.612 0 0 1-.984 7.515 24.19 24.19 0 0 0-6.85-1.258zm0-14.614v6.257h7.833a35.612 35.612 0 0 0-.984-7.517 24.19 24.19 0 0 1-6.85 1.26zm0-2.101v-9.345c2.568.674 4.84 3.768 6.272 8.149a22.212 22.212 0 0 1-6.272 1.196zm-8.368-1.197a22.216 22.216 0 0 0 6.272 1.197v-9.346c-2.569.674-4.84 3.768-6.272 8.149zm6.272 3.298v6.257h-7.834c.06-2.533.39-5.052.984-7.515a24.19 24.19 0 0 0 6.85 1.258zm0 14.614V36.75h-7.834c.06 2.534.39 5.053.984 7.517a24.189 24.189 0 0 1 6.85-1.26zm0 2.1v9.346c-2.569-.674-4.84-3.769-6.272-8.15a22.212 22.212 0 0 1 6.272-1.195zm-11.94 4.265a18.855 18.855 0 0 0 7.271 4.335 19.307 19.307 0 0 1-3.568-6.618 19.176 19.176 0 0 0-3.703 2.283zm22.273-2.28a19.175 19.175 0 0 1 3.702 2.283 18.856 18.856 0 0 1-7.27 4.336 19.31 19.31 0 0 0 3.568-6.622v.003zM37.155 17.7a19.31 19.31 0 0 1 3.569 6.615v-.003a19.178 19.178 0 0 0 3.702-2.277 18.856 18.856 0 0 0-7.27-4.335zm-15.001 6.615a19.181 19.181 0 0 1-3.703-2.283 18.854 18.854 0 0 1 7.271-4.335 19.306 19.306 0 0 0-3.568 6.615v.003zm-.595 20.73a37.514 37.514 0 0 1-1.097-8.294H12.63a18.815 18.815 0 0 0 4.376 11.091 21.246 21.246 0 0 1 4.555-2.796z" fill="#428DFF"/><defs><linearGradient id="paint0_linear" x1="-27.923" y1="30.501" x2="21.564" y2="92.062" gradientUnits="userSpaceOnUse"><stop stop-color="#D3DFF2"/><stop offset=".172" stop-color="#D3DFF2"/><stop offset=".2" stop-color="#D3DFF2"/><stop offset=".2" stop-color="#DAE2F2"/><stop offset=".201" stop-color="#EBEAF2"/><stop offset=".201" stop-color="#F6EFF2"/><stop offset=".202" stop-color="#FDF2F2"/><stop offset=".205" stop-color="#FFF3F2"/><stop offset=".252" stop-color="#FFF3F2"/><stop offset=".26" stop-color="#FFF3F2"/><stop offset=".26" stop-color="#D3DFF2"/><stop offset=".397" stop-color="#D3DFF2"/><stop offset=".42" stop-color="#D3DFF2"/><stop offset=".42" stop-color="#DAE2F2"/><stop offset=".421" stop-color="#EBEAF2"/><stop offset=".421" stop-color="#F6EFF2"/><stop offset=".422" stop-color="#FDF2F2"/><stop offset=".425" stop-color="#FFF3F2"/><stop offset=".489" stop-color="#FFF3F2"/><stop offset=".5" stop-color="#FFF3F2"/><stop offset=".5" stop-color="#F8F0F2"/><stop offset=".5" stop-color="#E7E8F2"/><stop offset=".5" stop-color="#DCE3F2"/><stop offset=".5" stop-color="#D5E0F2"/><stop offset=".501" stop-color="#D3DFF2"/><stop offset=".706" stop-color="#D3DFF2"/><stop offset=".74" stop-color="#D3DFF2"/><stop offset=".741" stop-color="#FFF3F2"/><stop offset=".835" stop-color="#FFF3F2"/><stop offset=".85" stop-color="#FFF3F2"/><stop offset=".851" stop-color="#D3DFF2"/></linearGradient></defs></svg>