<svg xmlns="http://www.w3.org/2000/svg" viewBox="0 0 18 24"><path d="M16.4 6.1h0c0 .2.1.4.2.6 0 .1.1.3.1.4v.3h0v1.1c0 1.2-.6 2.5-1.3 3.9-.4.6-.7 1.2-1.1 1.9 0 .1-.1.1-.1.2-.4.7-.9 1.4-1.3 2.1h0c0 .1-.1.2-.3.3h0c-.1.1-.3.3-.4.5h0c-.1.2-.2.3-.3.5-.2.3-.3.6-.5.9-.5.9-1 1.7-1.5 2.6-.3.6-.6 1.1-.9 1.6-.1-.1-.2-.3-.2-.4-1.3-2.2-2.7-4.3-4-6.5l-.9-1.5c-.4-.7-.9-1.4-1.3-2.1-.7-1.2-1.2-2.4-1.3-3.5v-.6h0v-1c.5-4.7 4.2-7 7.7-7 2.6 0 5.7 1.2 7.1 4.7h0c0 .1.1.2.1.3.1.3.1.5.2.7zM5.7 9.3h0c.7 1.7 2 2.3 3.3 2.3 2 0 3.6-1.6 3.6-3.6s-1.5-3.6-3.5-3.6c-.8 0-1.6.2-2.3.8-.8.6-1.2 1.4-1.2 2.5v.7h0v.3c0 .1 0 .4.1.6z" fill="#fcea50" stroke="#fcea50" stroke-miterlimit="10"/></svg>