<svg version="1.1" id="Слой_1" xmlns="http://www.w3.org/2000/svg" x="0" y="0" viewBox="0 0 91.1 58.3" xml:space="preserve"><style>.st0{fill:#0e7dc7}.st1{fill:#fcea50}.st2{fill:none;stroke:#fcea50;stroke-miterlimit:10}</style><path class="st0" d="M1.3 56.9c1 .2 3.3.6 5.8.5 2.1 0 6.6-.8 6.6-1.6s-4.3-1.7-6.4-1.7h-2c.1-.3.2-.5.3-.8h2c2.6 0 6-.4 6.3-1.4.2-.7-.9-1.2-4.1-1.2-2 0-4.1.3-5.3.6-.2-.3-.4-.5-.6-.8 2.2-.5 4.7-.7 6.9-.6 2.1.1 6.6.3 6.8 2 0 .6-2 1.6-5.4 1.9 3.2.2 5.7 1.2 5.4 2.1-1.1 2.7-8 2.5-10.6 2.5-2.2 0-4.7-.1-6.9-.6.4-.4.6-.6 1.2-.9zm19.8 0c1 .2 3.3.6 5.8.5 2.1 0 6.6-.8 6.6-1.6s-4.3-1.7-6.4-1.7h-2c.1-.3.2-.5.3-.8h2c2.6 0 6-.4 6.3-1.4.2-.7-.9-1.2-4.1-1.2-2 0-4.1.3-5.3.6-.2-.3-.4-.5-.6-.8 2.2-.5 4.7-.7 6.9-.6 2.1.1 6.6.3 6.8 2 0 .6-2 1.6-5.4 1.9 3.2.2 5.7 1.2 5.4 2.1-1.1 2.7-8 2.5-10.6 2.5-2.2 0-4.7-.1-6.9-.6.4-.4.7-.6 1.2-.9zm32-4.9h4.3c1.6 1.2 2.4 1.9 4 3.1.6.5 1.6 1.2 2.1 1.7h.1c.4-.5 1.3-1.4 2-2.1 1.1-1.1 1.6-1.6 2.6-2.7h4.3c1 2.1 2 4.1 3 6.2h-3.6c-.5-1.2-.7-1.8-1.2-3-.3-.7-.6-1.5-.9-2.2h-.1c-.4.6-.8 1.1-1.7 2-1.3 1.2-1.9 1.9-3.3 3.1H62l-4-3c-.7-.6-1.6-1.5-2.2-2.1h-.2c0 .7 0 1.5-.1 2.2-.1 1.2-.1 1.8-.2 2.9h-3.4c.6-2.4.8-3.6 1.2-6.1zm22.9.1c.9-.3 1.4-.4 2.3-.7 3-1 4.4-1.6 4.2-2.2-.2-.5-1.2-.9-3.2-.9-1.3 0-2.4.2-3.1.4-.4-.2-.6-.4-1-.6 1-.3 2.6-.5 4.5-.5 3.6 0 5.4.8 5.6 1.4.4 1-1.6 1.7-4.3 2.5-.4.1-.7.2-1.1.4h6.8c.1.3.2.4.3.7H76.2c-.2-.3-.2-.4-.2-.5zm11.6-16.4c.5-.2.8-.8.7-1.4-.1-.5-.5-.8-.9-.9-.7-.2-1.4.4-1.4 1.2-.7-.4-1.4-.6-2.2-.7.1-.6.1-1.3.1-2 0-3.9-1.3-7.5-3.4-10.3 1.1-.6 1.8-1.8 1.7-3.2-.1-1.6-1.4-2.8-2.9-2.9-1.5-.1-2.7.9-3.1 2.3-1.9-1.2-4.2-2-6.5-2.2-.7-1.5-1.8-2.8-3.1-3.7.4-.5.6-1.2.6-1.9-.1-1.1-1-2-2.1-2.2-1.4-.2-2.6 1-2.6 2.5v.2H62c-2 0-3.8.7-5.3 1.9-.7-2.1-2.6-3.6-4.8-3.6-.7 0-1.4.1-2 .4C49.3 4.5 45.6.9 41 .9c-4.4 0-8.1 3.4-8.8 7.9H31c-2.5 0-4.9.6-7 1.8-.5-1.8-2.2-3-4.1-2.8-1.7.2-3 1.7-3.2 3.5-.2 1.7.7 3.3 2 4-2 2.8-3.2 6.2-3.2 10 0 .6 0 1.1.1 1.6-.5-.2-1.1-.3-1.7-.3h-.1c-.1-1-.9-1.8-1.9-1.6-.7.1-1.3.7-1.4 1.5 0 .5.1.9.3 1.2-1.2 1-1.9 2.5-1.9 4.2v.6c-1.8 0-3.6.6-5 1.7-.4-.7-1.2-1.2-2-1-.8.1-1.5.9-1.6 1.7-.1 1 .4 1.8 1.1 2.2-1.1 2 .3 4.5 2.5 4.5h81.8c2.8 0 4.2-3.7 2.2-5.7-.2-.1-.3-.2-.3-.2z"/><path class="st0" d="M53.7 4.7c.8 0 1.4-.7 1.4-1.5s-.6-1.5-1.4-1.5c-.8 0-1.4.7-1.4 1.5s.6 1.5 1.4 1.5zm2 2.9c.3 0 .6-.3.6-.6s-.3-.6-.6-.6-.6.3-.6.6.3.6.6.6zm15.5 6.3c.3 0 .6-.3.6-.6 0-.4-.3-.6-.6-.6s-.6.3-.6.6c0 .4.3.6.6.6zm18 14.1c1 0 1.8-.9 1.8-1.9 0-1.1-.8-1.9-1.8-1.9s-1.8.9-1.8 1.9c0 1 .8 1.9 1.8 1.9zM29.1 6c.7 0 1.3-.6 1.3-1.4 0-.8-.6-1.4-1.3-1.4s-1.3.6-1.3 1.4c0 .8.6 1.4 1.3 1.4zM6 29.6c.3 0 .6-.3.6-.6s-.3-.7-.6-.7-.6.3-.6.6.3.7.6.7zM32.6 2.1c.3 0 .6-.3.6-.6s-.3-.6-.6-.6-.6.3-.6.6.2.6.6.6z"/><path class="st1" d="M17.7 35.4c-.3-.5-.5-1.1-.7-1.7-.1-.3-.1-.6-.2-.9v-.5c0-.2.1-.4.2-.5.1-.1.2-.3.3-.4l.1-.1v-.1c0-.2.1-.5.1-.7v-1.8c0-.6 0-1.2.1-1.8 0-.3.1-.6.1-.9 0-.2.1-.3.1-.5.1-.2.1-.4.3-.6l.3-.3c.1 0 .1-.1.2-.1h.2c.2 0 .3 0 .5-.1.3 0 .6 0 .9-.1l1.8-.1c.6 0 1.2-.1 1.7-.2.3 0 .6-.1.8-.2.1 0 .2-.1.3-.1 0 0 .1 0 .1-.1l.2-.1c1-.6 2.1-1.2 3.2-1.7 2.2-1 4.6-1.7 6.9-2.2 2.4-.5 4.8-.8 7.2-.9 2.4-.1 4.8-.1 7.2.2 2.4.4 4.8 1 7 2.2.1.1.3.1.4.2l.4.3.4.3.4.3c.5.4.9.7 1.4 1 1 .7 2 1.3 3 1.9l.2-.1c1.9.3 3.8.6 5.7 1 1.9.4 3.8.7 5.7 1.2.9.2 1.9.5 2.8.8.5.1.9.3 1.4.5s.9.5 1.2.8c.7.7 1.1 1.7 1.3 2.6.2 1 .2 1.9.1 2.9.1-1 0-1.9-.2-2.9-.2-.9-.7-1.8-1.4-2.4-.7-.6-1.6-.9-2.5-1.2-.9-.2-1.8-.4-2.8-.6-1.9-.4-3.8-.6-5.7-.9-1.9-.3-3.8-.5-5.7-.7h-.1l-.2-.1c-1-.7-2-1.3-3-2.1-.5-.4-1-.7-1.4-1.1l-.4-.3-.3-.3-.4-.2c-.1-.1-.2-.1-.4-.2-2-1.2-4.3-1.8-6.6-2.1-2.3-.4-4.7-.3-7-.2-1.2.1-2.4.2-3.5.4-1.2.2-2.3.4-3.5.6s-2.3.6-3.4 1-2.2.8-3.3 1.3-2.1 1-3.1 1.7l-.2.1c-.1 0-.2.1-.3.1-.2.1-.3.1-.5.2-.3.1-.6.1-.9.2-.6.1-1.2.1-1.8.2-.6 0-1.2.1-1.8.1h-1.3c-.1.1-.2.3-.2.6-.1.3-.1.5-.2.8-.1.6-.1 1.2-.2 1.7l-.1.9c0 .3 0 .6-.1.9s-.1.6-.3 1c0 .1-.1.2-.2.3l-.2.2c-.1.1-.2.1-.3.2-.1.1-.1.2-.2.3 0 .1-.1.2-.1.4v.8c.2.7.3 1.3.5 1.9z"/><path class="st1" d="M45.9 26.1l-.9-5 .6.6c-1.9-.1-3.9-.1-5.8.2-.5 0-.9.1-1.4.2-.2 0-.5.1-.7.2-.2.1-.5.1-.7.2-.5.2-.9.3-1.3.6-.4.2-.8.4-1.2.7-.2.1-.3.3-.5.4-.1.2-.1.2 0 .4.1.1.2.3.4.4l.6.3c.2.1.4.1.7.2.2 0 .5.1.7.1.5 0 1 .1 1.5.1 1.9.2 3.9.3 5.9.5-2 0-3.9-.1-5.9-.1-.5 0-1 0-1.5-.1h-.7c-.3 0-.5-.1-.8-.2-.2-.1-.5-.2-.7-.3-.2-.1-.5-.3-.6-.6-.1-.1-.1-.3-.1-.5s.1-.3.2-.5c.2-.3.4-.5.6-.6.4-.3.8-.6 1.3-.8.5-.2.9-.4 1.4-.6.2-.1.5-.2.7-.3.2-.1.5-.2.7-.2l1.5-.3c2-.3 4-.5 6-.5l.6.1v.5l-.6 4.9z"/><path class="st1" d="M47 26.2l-.6-5.2-.1-.6h.7c.6 0 1.3.1 1.9.1l1.8.3c1.2.2 2.4.6 3.6 1 .6.2 1.2.5 1.7.7.6.3 1.1.6 1.7.9 1.1.6 2.1 1.5 3 2.4l1 1.1-1.4-.1-10.9-.6 10.9-.6-.4 1c-.8-.8-1.7-1.6-2.7-2.2-.5-.3-1-.6-1.5-.8-.5-.3-1.1-.5-1.6-.7-1.1-.4-2.3-.7-3.4-1l-1.8-.3c-.6-.1-1.2-.1-1.8-.1l.6-.6-.7 5.3zm-27.2 9.2l4.5-.4-.4.4c.1-.3.1-.6.2-.9s.2-.6.4-.9c.3-.6.6-1.1 1.1-1.6.5-.5 1-.9 1.7-1.1s1.3-.4 2-.4c.6 0 1.3.1 2 .3.3.1.6.3.9.5.3.2.6.4.8.6.5.5.8 1.1 1.1 1.6.1.3.3.6.4.9 0 .1.1.3.1.5s.1.3.1.5l-.7-.6c1.7 0 3.3 0 5 .1 1.7 0 3.3.1 5 .1s3.3.1 5 .2c1.7.1 3.3.1 5 .2-1.7.1-3.3.1-5 .2-1.7.1-3.3.1-5 .2-1.7 0-3.3.1-5 .1-1.7 0-3.3 0-5 .1h-.5l-.1-.5c0-.1 0-.2-.1-.4 0-.1-.1-.3-.1-.4-.1-.3-.2-.5-.3-.7-.2-.5-.6-.9-.9-1.3-.2-.2-.4-.3-.6-.5-.2-.1-.4-.2-.7-.3-.5-.2-1-.3-1.5-.3-1.1 0-2.1.4-2.9 1.1-.4.4-.7.8-1 1.3-.1.2-.3.5-.4.7-.1.2-.2.5-.3.8l-.2.4h-.3l-4.3-.5zm37.2 0c0-.6.1-1.2.3-1.8.2-.6.5-1.1 1-1.6s1-.8 1.6-1c.6-.2 1.2-.3 1.9-.3.6 0 1.3 0 1.9.2.6.2 1.2.5 1.8.9.5.4.9 1 1.2 1.6.1.3.3.6.3.9 0 .2.1.3.1.5s0 .3.1.5l-.6-.6 11.6.6-11.6.6h-.4l-.2-.6v-.8c0-.3-.1-.5-.2-.8-.2-.5-.5-1-.9-1.3-.4-.4-.9-.7-1.4-.9-.5-.2-1.1-.3-1.7-.3-.6 0-1.2 0-1.7.2-.6.1-1.1.4-1.5.8-1 .8-1.5 2-1.6 3.2z"/><path class="st1" d="M24.9 35.4v.8c0 .3.1.5.2.8.1.5.4 1 .6 1.3.3.4.7.7 1.1 1 .5.2 1 .4 1.5.5s1.1.1 1.6.1c.6 0 1.1-.1 1.6-.3.5-.2 1-.5 1.4-.9.4-.4.6-.9.8-1.5 0 .6-.2 1.2-.5 1.7s-.8.9-1.4 1.2c-.6.3-1.2.4-1.8.5-.6.1-1.2.1-1.8 0-.6-.1-1.2-.2-1.8-.5-.6-.3-1.1-.7-1.6-1.2-.4-.5-.7-1.1-.9-1.8-.1-.3-.1-.6-.2-.9v-1l1.2.2z"/><path class="st1" d="M31.5 37.8c.7-1.2.6-2.6-.2-3.5-.7-.9-2-1.1-3-.7-.5.2-.9.6-1.2 1.1-.3.5-.4 1.1-.3 1.6.1.6.3 1.1.8 1.6.4.5 1 .7 1.7.9-.7.1-1.4 0-2.1-.4-.6-.4-1.1-1.1-1.3-1.8-.2-.7-.1-1.6.2-2.3.3-.7 1-1.3 1.7-1.7.4-.2.8-.3 1.2-.3.4 0 .8 0 1.2.1.8.2 1.5.7 1.9 1.4.2.3.4.7.5 1.1.1.4.1.8 0 1.1-.2.7-.6 1.4-1.1 1.8zm35.6-2.5v1c0 .3-.1.6-.2.9-.2.6-.5 1.2-.9 1.8-.4.5-1 .9-1.6 1.2-.6.3-1.2.4-1.8.5h-1.8c-.6-.1-1.2-.2-1.8-.5-.6-.3-1.1-.7-1.4-1.2-.3-.5-.5-1.1-.5-1.7.1.6.4 1.1.8 1.5.4.4.8.7 1.4.9.5.2 1.1.3 1.6.3.6 0 1.1 0 1.6-.1s1-.3 1.5-.5.8-.6 1.1-1c.3-.4.5-.9.6-1.3.1-.2.1-.5.2-.8v-.8l1.2-.2z"/><path class="st1" d="M59.3 37.8c-.6-.4-.9-1.1-1-1.8v-1.1c.1-.4.2-.7.5-1.1.4-.6 1.1-1.2 1.9-1.4.4-.1.8-.1 1.2-.1.4 0 .8.1 1.2.3.7.3 1.3.9 1.7 1.7.4.7.4 1.6.2 2.3-.2.8-.7 1.4-1.3 1.8-.6.4-1.4.6-2.1.4.7-.1 1.3-.4 1.7-.9s.7-1 .8-1.6c.1-.6 0-1.2-.3-1.6-.3-.5-.7-.9-1.2-1.1-1-.5-2.3-.2-3 .7-.9.9-1 2.3-.3 3.5zM73.7 29c.1.2.1.3.2.5 0 .1 0 .2.1.2 0 .1 0 .1.1.2.1.3.3.5.5.7.4.4.8.6 1.3.6h.9c.3 0 .7 0 1 .1.7.1 1.3.2 2 .5-.7.2-1.3.4-2 .5-.3 0-.7.1-1 .1h-1.1c-.9 0-1.7-.6-2-1.3-.2-.4-.3-.8-.2-1.2v-.3c0-.1 0-.2.1-.3 0 .1 0-.1.1-.3z"/><path class="st1" d="M60.2 34.5c-.9.7-1.1 2.2-.5 3.1 0-1.1 1.4-1.6 1.8-.5.2.4 0 1-.3 1.3 1.1-.1 1.8-1 2.1-2 .4-1.6-1.6-2.9-3.1-1.9.1 0 0 0 0 0z"/><path class="st2" d="M60.2 34.5c-.9.7-1.1 2.2-.5 3.1 0-1.1 1.4-1.6 1.8-.5.2.4 0 1-.3 1.3 1.1-.1 1.8-1 2.1-2 .4-1.6-1.6-2.9-3.1-1.9.1 0 0 0 0 0z"/><path class="st1" d="M28.2 34.3c-.9.7-1.1 2.2-.5 3.1 0-1.1 1.4-1.6 1.8-.5.2.4 0 1-.3 1.3 1.1-.1 1.8-1 2.1-2 .3-1.6-1.7-2.9-3.1-1.9z"/><path class="st2" d="M28.2 34.3c-.9.7-1.1 2.2-.5 3.1 0-1.1 1.4-1.6 1.8-.5.2.4 0 1-.3 1.3 1.1-.1 1.8-1 2.1-2 .3-1.6-1.7-2.9-3.1-1.9z"/><path class="st1" d="M35.1 27.2c-1.3-.3-2.6-1.1-2.9-2.7C31.8 22.7 34 22 34 22c-2.4.2-6.1 2.6-7.8 3.5-1.3.7-4.7.8-6 .7h-.1l15 1z"/><path class="st2" d="M35.1 27.2c-1.3-.3-2.6-1.1-2.9-2.7C31.8 22.7 34 22 34 22c-2.4.2-6.1 2.6-7.8 3.5-1.3.7-4.7.8-6 .7h-.1l15 1z"/><path class="st1" d="M57.3 27.6h-10L57.4 29s-12.9.4-13 .5L55.1 31s-13.9.5-14.2.7l13.8 1.2-19.2 1.3h19.7c2.7-7.4 10.6-3.4 10.6-3.4-2.4-2.1-5.4-3.2-8.5-3.2z"/><path class="st2" d="M57.3 27.6h-10L57.4 29s-12.9.4-13 .5L55.1 31s-13.9.5-14.2.7l13.8 1.2-19.2 1.3h19.7c2.7-7.4 10.6-3.4 10.6-3.4-2.4-2.1-5.4-3.2-8.5-3.2z"/><path d="M84.2 20l.3 1.2 1.2.3-1.2.3-.3 1.2-.2-1.2-1.2-.3 1.2-.3.2-1.2zm-18.4-.9l.4 1.6 1.6.4-1.6.4-.4 1.5-.4-1.6-1.6-.4 1.6-.4.4-1.5zm-25.7-8.2l.4 1.7 1.7.4-1.7.4-.4 1.6-.4-1.7L38 13l1.7-.4.4-1.7zM13.9 34l.4 1.5 1.5.4-1.5.4-.4 1.5-.4-1.5-1.5-.4 1.5-.4.4-1.5zm12.2-15.5l.2 1.3 1 .3-1 .3-.2 1.3-.2-1.3-1-.3 1-.3.2-1.3zm-11.5-4.4l.3 1.2 1.4.3-1.4.4-.3 1.3-.4-1.3-1.4-.3 1.4-.3.4-1.3zm29.9.9l.2 1 1 .2-1 .2-.2 1-.2-1-1-.2 1-.2.2-1zm24.6-5.3l.3 1.2 1.2.3-1.2.3-.3 1.2-.3-1.2-1.2-.3 1.2-.3.3-1.2zm18.2 7l.3 1.1 1.1.3-1.1.3-.3 1.1-.3-1.2-1.1-.3 1.1-.3.3-1zM48.9 0l.3 1.3 1.3.3-1.3.4-.3 1.3-.3-1.3-1.3-.3 1.3-.3.3-1.4z" fill="#fff"/></svg>