<svg width="68" height="68" fill="none" xmlns="http://www.w3.org/2000/svg"><g clip-path="url(#clip0)" fill="#0B94DC"><path d="M67.032 17.856l-.003-.002-4.389-.626a1.129 1.129 0 0 1-.518-2.02l3.548-2.66c.498-.374.6-1.082.225-1.58l-4.062-5.416a1.128 1.128 0 0 0-1.58-.226l-3.546 2.66a1.128 1.128 0 0 1-1.798-1.061l.627-4.39a1.128 1.128 0 0 0-.956-1.276h-.002L47.88.301a1.128 1.128 0 0 0-1.277.956l-.627 4.39a1.128 1.128 0 0 1-2.02.518l-2.66-3.548a1.128 1.128 0 0 0-1.579-.226l-3.39 2.545a21.83 21.83 0 0 0-4.615 0A21.438 21.438 0 0 0 12.809 24.16c-.03.32-.042.637-.058.953h-.338a1.129 1.129 0 0 0-1.104.903l-.78 3.708-3.123-2.154a1.128 1.128 0 0 0-1.438.13l-3.385 3.386c-.385.385-.44.99-.131 1.437l2.144 3.118-3.71.78A1.128 1.128 0 0 0 0 37.524v4.513c0 .534.374.995.896 1.105l3.709.78L2.46 47.04a1.128 1.128 0 0 0 .13 1.438l3.386 3.385c.385.385.99.44 1.438.13l3.118-2.149.78 3.709c.107.525.568.902 1.103.903h4.513a1.13 1.13 0 0 0 1.105-.896l.78-3.709 3.117 2.144a1.128 1.128 0 0 0 1.438-.131l1.752-1.758v3.216a4.499 4.499 0 0 0 2.257 3.886v6.269a4.513 4.513 0 0 0 4.513 4.513h4.513a4.513 4.513 0 0 0 4.514-4.513v-6.27a4.499 4.499 0 0 0 2.256-3.885v-4.466a5.529 5.529 0 0 1 2.61-4.606 21.655 21.655 0 0 0 2.656-2.031l-1.505-1.681a19.217 19.217 0 0 1-2.377 1.818 7.772 7.772 0 0 0-3.64 6.5v4.466a2.257 2.257 0 0 1-2.257 2.256h-9.027a2.257 2.257 0 0 1-2.256-2.256v-4.56a7.591 7.591 0 0 0-3.58-6.368c-8.942-5.62-11.637-17.424-6.017-26.367a19.124 19.124 0 0 1 16.124-8.95 1.22 1.22 0 0 0-.044.123c-.042.296.036.597.216.836l2.66 3.547c.28.362.306.861.067 1.252a1.122 1.122 0 0 1-1.129.543l-4.389-.627a1.128 1.128 0 0 0-1.277.956v.001l-.958 6.702a1.13 1.13 0 0 0 .957 1.277h.001l4.39.627a1.128 1.128 0 0 1 .517 2.02l-3.546 2.66a1.128 1.128 0 0 0-.226 1.579l4.062 5.416a1.13 1.13 0 0 0 1.58.226l3.547-2.66a1.128 1.128 0 0 1 1.793 1.062l-.626 4.39c-.089.616.34 1.188.956 1.276l6.703.958a1.128 1.128 0 0 0 1.277-.958l.626-4.389a1.128 1.128 0 0 1 2.02-.518l2.66 3.547c.375.498 1.082.6 1.58.225l5.416-4.062c.499-.374.6-1.08.226-1.58l-2.66-3.546a1.11 1.11 0 0 1-.067-1.252 1.096 1.096 0 0 1 1.128-.542l4.39.627a1.128 1.128 0 0 0 1.277-.957l.956-6.703a1.128 1.128 0 0 0-.956-1.277zM29.634 57.835h9.027v2.257h-9.027v-2.257zm0 4.513h9.027v1.129a2.257 2.257 0 0 1-2.257 2.256h-4.513a2.257 2.257 0 0 1-2.257-2.256v-1.129zM20.652 42.89c.616.504 1.26.973 1.928 1.405a5.507 5.507 0 0 1 2.274 2.887l-2.42 2.416-2.344-1.615a2.257 2.257 0 0 0-3.489 1.393l-.591 2.817h-2.682l-.591-2.813a2.257 2.257 0 0 0-3.49-1.393l-2.344 1.611-2.056-2.051 1.615-2.342a2.257 2.257 0 0 0-1.392-3.49l-2.813-.593v-2.68l2.813-.593a2.257 2.257 0 0 0 1.393-3.483l-1.616-2.35 2.056-2.05L9.25 31.58a2.257 2.257 0 0 0 3.488-1.395l.197-.938c.18 1.3.48 2.58.895 3.826a6.77 6.77 0 1 0 6.823 9.816zm-1.753-1.59a4.507 4.507 0 1 1-4.23-6.031h.042a21.37 21.37 0 0 0 4.188 6.032zm46.052-16.904l-3.272-.467a3.385 3.385 0 0 0-3.187 5.382l1.983 2.644-3.61 2.708-1.984-2.643a3.385 3.385 0 0 0-6.06 1.551l-.456 3.277-4.468-.639.468-3.272a3.385 3.385 0 0 0-5.382-3.187l-2.644 1.982-2.708-3.61 2.642-1.984a3.385 3.385 0 0 0-1.551-6.06l-3.272-.466.639-4.467 3.272.467a3.385 3.385 0 0 0 3.187-5.382l-1.99-2.646 3.612-2.708 1.983 2.644a3.385 3.385 0 0 0 6.06-1.552l.466-3.272 4.467.637-.467 3.273a3.385 3.385 0 0 0 5.382 3.186l2.644-1.982 2.708 3.61-2.644 1.984a3.385 3.385 0 0 0 1.552 6.059l3.272.467-.642 4.466z"/><path d="M48.518 10.743a9.027 9.027 0 1 0 9.027 9.027 9.037 9.037 0 0 0-9.027-9.027zm0 15.797a6.77 6.77 0 1 1 6.77-6.77 6.778 6.778 0 0 1-6.77 6.77zM35.276 49.937h-2.257v3.385h2.257v-3.385zm-6.064-11.082c-6.965-2.72-10.406-10.573-7.685-17.538a13.54 13.54 0 0 1 5.4-6.532l-1.207-1.91c-7.381 4.651-9.596 14.405-4.945 21.786a15.797 15.797 0 0 0 7.618 6.294 7.203 7.203 0 0 1 4.626 6.725h2.257a9.44 9.44 0 0 0-6.064-8.825zm34.272 3.183h-7.898v2.257h7.898v-2.257zM55.18 47.94l-1.444 1.735 6.77 5.64 1.444-1.733-6.77-5.641zm-4.107 3.125h-2.257v7.898h2.257v-7.898zM10.178 17.248l-9.026 2.257.547 2.188 9.026-2.257-.547-2.188zM4.337 6.144l-1.31 1.835 7.897 5.641 1.311-1.835-7.898-5.641zM14.88.01l-2.186.558 2.308 9.026 2.186-.559L14.88.01z"/></g><defs><clipPath id="clip0"><path fill="#fff" d="M0 0h68v68H0z"/></clipPath></defs></svg>