<svg width="68" height="68" fill="none" xmlns="http://www.w3.org/2000/svg"><path d="M52.193 50.243l-10.9-4.459a3.175 3.175 0 0 1-1.98-2.95v-.763a19.667 19.667 0 0 0 7.18-9.133h.257a5.319 5.319 0 0 0 5.313-5.313c0-.663-.138-1.292-.36-1.878l.452-.438c1.002-.945 1.64-2.169 1.793-2.478a8.282 8.282 0 0 0 .87-7.094c-.732-2.19-2.336-3.977-4.446-4.987-.343-2.262-1.601-4.29-3.517-5.638a8.886 8.886 0 0 0-6.609-1.488A8.835 8.835 0 0 0 34 1.062a8.84 8.84 0 0 0-6.247 2.562 8.91 8.91 0 0 0-6.608 1.488c-1.917 1.348-3.174 3.376-3.518 5.638-2.11 1.01-3.712 2.798-4.447 4.986a8.288 8.288 0 0 0 .87 7.095c.15.304.768 1.489 1.738 2.425l.537.396a5.304 5.304 0 0 0-.387 1.973 5.319 5.319 0 0 0 5.312 5.313h.256a19.662 19.662 0 0 0 7.181 9.133v.763c0 1.3-.776 2.457-1.98 2.95l-10.9 4.458A16.83 16.83 0 0 0 5.312 65.875v1.063h57.376v-1.063a16.83 16.83 0 0 0-10.495-15.632zm-8.722 3.481l-4.319 3.24 2.862-8.588.605.247.852 5.101zm-18.091-5.1l.605-.248 2.862 8.588-4.32-3.24.853-5.1zm3.576 8.668l2.508 7.52h-.212l-4.385-4.384 2.09-3.136zm-1.012-9.756c.237-.123.462-.261.674-.415L34 52.502l5.382-5.381c.212.154.436.292.674.415l-5.758 17.276h-.596l-5.758-17.276zm11.1 9.756l2.089 3.136-4.385 4.385h-.212l2.508-7.52zm6.438-28.764c-.076.5-.177 1.004-.309 1.535-.406.479-.984.75-1.61.75h-4.406c-.81 0-1.538-.451-1.9-1.175l-.475-.95h-5.564l-.475.95a2.115 2.115 0 0 1-1.9 1.174h-4.405c-.627 0-1.205-.27-1.611-.749a17.092 17.092 0 0 1-.31-1.535h-.002a17.719 17.719 0 0 1-.203-2.655v-2.498h23.375v2.498c0 .9-.07 1.786-.203 2.655h-.002zm.206-7.278H38.69l2.912-2.912 4.086 2.45v.462zm-23.376 0v-.461l4.086-2.452 2.912 2.913h-6.997zm7.792 0L34 18.328l3.896 2.922h-7.792zm17.086 9.518c.063-.245.116-.493.169-.74.04-.182.075-.363.108-.543a19.63 19.63 0 0 0 .346-3.612v-1.239a3.183 3.183 0 0 1 2.124 2.992c0 1.607-1.2 2.925-2.747 3.142zm-29.975-7.09c-.777-.774-1.265-1.803-1.269-1.812l-.07-.128a6.174 6.174 0 0 1-.68-5.327c.601-1.793 1.989-3.23 3.807-3.944l.623-.243.048-.668c.137-1.882 1.12-3.598 2.695-4.707a6.793 6.793 0 0 1 5.506-1.033l.629.151.423-.488A6.696 6.696 0 0 1 34 3.187c1.962 0 3.811.836 5.073 2.292l.423.488.63-.15a6.794 6.794 0 0 1 5.506 1.032c1.575 1.11 2.557 2.824 2.694 4.707l.047.668.624.243c1.818.713 3.206 2.15 3.806 3.945a6.172 6.172 0 0 1-.679 5.326l-.07.128c-.005.01-.532 1.121-1.366 1.907l-.147.142a5.3 5.3 0 0 0-2.73-1.495v-2.834l-6.54-3.923-3.12 3.122L34 15.672l-4.15 3.113-3.122-3.122-6.54 3.923v2.834a5.31 5.31 0 0 0-2.7 1.458l-.273-.2zm.848 3.947c0-1.383.89-2.552 2.125-2.992v1.239a19.814 19.814 0 0 0 .453 4.155c.053.248.106.495.17.74a3.18 3.18 0 0 1-2.748-3.142zm5.712 5.253c.217.035.438.06.663.06h4.405a4.226 4.226 0 0 0 3.681-2.126h2.953a4.226 4.226 0 0 0 3.681 2.125h4.404c.225 0 .446-.024.663-.059A17.544 17.544 0 0 1 34 42.438a17.542 17.542 0 0 1-10.226-9.56zm9.89 11.692l.335.112.336-.111a19.859 19.859 0 0 0 2.889-1.224c.076.795.325 1.543.72 2.206L34 49.498l-3.946-3.947a5.284 5.284 0 0 0 .72-2.205c.918.478 1.884.89 2.89 1.224zm-17.054 7.64l6.456-2.641-.847 5.08 3.962 2.973-2.052 3.076 4.117 4.114H18.062v-6.376h-2.125v6.376H7.476a14.704 14.704 0 0 1 9.137-12.602zm35.45 12.602v-6.376h-2.124v6.376H39.752l4.115-4.116-2.051-3.076 3.962-2.971-.847-5.081 6.456 2.641a14.705 14.705 0 0 1 9.137 12.601h-8.462v.001z" fill="#0B94DC"/><path d="M38.25 34h-2.125A2.127 2.127 0 0 1 34 36.125 2.127 2.127 0 0 1 31.875 34H29.75A4.254 4.254 0 0 0 34 38.25 4.254 4.254 0 0 0 38.25 34z" fill="#0B94DC"/></svg>