<svg width="68" height="68" fill="none" xmlns="http://www.w3.org/2000/svg"><path d="M67.659 31.677h-3.263V16.67a6.532 6.532 0 0 0-6.525-6.525h-4.419l-4.522-8.13a3.915 3.915 0 0 0-5.324-1.52l-17.355 9.65H6.866A6.532 6.532 0 0 0 .341 16.67v44.806A6.532 6.532 0 0 0 6.866 68h51.005a6.532 6.532 0 0 0 6.525-6.525V48.316h3.263V31.677zM57.87 12.754c2.01 0 3.651 1.527 3.872 3.48h-4.904l-1.934-3.48h2.966zm-12.996-9.98c.612-.343 1.436-.103 1.774.507l7.204 12.952H20.67L44.875 2.774zm16.911 58.7a3.92 3.92 0 0 1-3.915 3.916H6.866a3.92 3.92 0 0 1-3.915-3.915V16.669a3.92 3.92 0 0 1 3.915-3.915h14.692l-6.258 3.48H7.681a1.305 1.305 0 1 0 0 2.61h54.105v12.834h-9.544c-4.432 0-8.039 3.607-8.039 8.04v.56c0 4.433 3.608 8.04 8.04 8.04h9.543v13.157zm3.263-15.768H52.242a5.435 5.435 0 0 1-5.429-5.429v-.561a5.435 5.435 0 0 1 5.43-5.43h12.805v11.42zm-8.81-5.602a2.88 2.88 0 1 1-5.762 0 2.88 2.88 0 1 1 5.763 0z" fill="#0B94DC"/></svg>