<svg width="80" height="80" fill="none" xmlns="http://www.w3.org/2000/svg"><path d="M43.779 39.157c1.722 0 3.118-1.374 3.118-3.069 0-1.695-1.396-3.069-3.118-3.069s-3.119 1.374-3.119 3.07c0 1.694 1.397 3.068 3.119 3.068z" fill="#fff"/><path d="M56.252 39.157c1.723 0 3.119-1.374 3.119-3.069 0-1.695-1.396-3.069-3.119-3.069-1.722 0-3.118 1.374-3.118 3.07 0 1.694 1.396 3.068 3.118 3.068zm12.474 0c1.723 0 3.119-1.374 3.119-3.069 0-1.695-1.396-3.069-3.119-3.069-1.722 0-3.118 1.374-3.118 3.07 0 1.694 1.396 3.068 3.118 3.068z" fill="#2059F5"/><path d="M18 65.84V63h-3.648v1.622c0 1.417-.911 2.636-2.177 2.913l-.175.038.475.18c1.04 1.14 2.3 1.89 3.63 2.247C17.268 69.042 18 67.52 18 65.84z" fill="#fff"/><path d="M22.792 67.592l.208-.23c-1.137-.296-1.95-1.453-1.95-2.795V63h-3.295v2.744c0 1.624-.68 3.094-1.755 4.02 2.357.66 4.95-.063 6.792-2.172z" fill="#FFEFD5"/><path d="M8.496 7C7.67 7 7 7.672 7 8.5S7.67 10 8.496 10h.015C9.337 10 10 9.328 10 8.5S9.323 7 8.496 7zm7 0C14.67 7 14 7.672 14 8.5s.67 1.5 1.496 1.5h.015C16.337 10 17 9.328 17 8.5S16.323 7 15.496 7zm8 0C22.67 7 22 7.672 22 8.5s.67 1.5 1.496 1.5h.015C24.337 10 25 9.328 25 8.5S24.323 7 23.496 7zm37.948 0H42.556C41.697 7 41 7.672 41 8.5s.697 1.5 1.556 1.5h18.888C62.303 10 63 9.328 63 8.5S62.303 7 61.444 7zM34.44 61.44c-.28.279-.44.666-.44 1.06a1.506 1.506 0 0 0 1.5 1.5c.395 0 .781-.16 1.06-.44A1.51 1.51 0 0 0 37 62.5c0-.395-.16-.781-.44-1.06A1.512 1.512 0 0 0 35.5 61c-.395 0-.781.16-1.06.44z" fill="#fff"/><path fill-rule="evenodd" clip-rule="evenodd" d="M71.563 20.04V7.812C71.563 3.505 68.06 0 63.752 0H7.812C3.504 0 0 3.505 0 7.813v49.37c0 4.138 3.366 7.504 7.504 7.504h5.863v.254c0 .534-.38.998-.905 1.103l-5.887 1.173A7.577 7.577 0 0 0 .5 73.853l-.482 4.415A1.563 1.563 0 0 0 1.571 80h33.873a1.562 1.562 0 0 0 1.553-1.732l-.483-4.417a7.577 7.577 0 0 0-6.075-6.634l-5.889-1.173a1.127 1.127 0 0 1-.904-1.103v-1.48l-.001-.01 2.648-1.515c.029-.016.057-.034.085-.052 1.42-.938 2.352-2.608 2.494-4.468.004-.04.005-.079.005-.119V50.89c.934-.609 1.615-1.714 1.615-3.65l.003-3.511c0-.058-.003-.115-.01-.172a5.769 5.769 0 0 0-5.79-5.494H11.417c-.583 0-1.124-.309-1.475-.568a2.14 2.14 0 0 0-2.247-.19 2.132 2.132 0 0 0-1.175 1.913v5.084c0 1.727.607 3.314 1.617 4.562v8.433c0 .04.002.08.005.12.127 1.658.893 3.169 2.079 4.145H7.504a4.384 4.384 0 0 1-4.38-4.38V24.387h17.448a1.563 1.563 0 0 0 0-3.125H3.125v-4.375h65.314v3.111H43.077c-5.14 0-9.322 4.183-9.322 9.323v13.078c0 5.14 4.182 9.323 9.322 9.323h1.953v4.569a1.563 1.563 0 0 0 2.667 1.104l5.673-5.673h15.07v5.462a4.385 4.385 0 0 1-4.38 4.38H41.8a1.563 1.563 0 0 0 0 3.124h22.26c4.137 0 7.503-3.366 7.503-7.504v-5.505C76.29 51.23 80 47.24 80 42.398V29.32c0-4.842-3.71-8.832-8.437-9.28zM20.534 65.222c.062.921.42 1.774.99 2.451a6.096 6.096 0 0 1-3.016.792 6.098 6.098 0 0 1-3.017-.793c.57-.677.927-1.53.988-2.45a4.601 4.601 0 0 0 2.029.477c.69 0 1.38-.16 2.026-.477zm13.168 11.653l-.294-2.685a4.464 4.464 0 0 0-3.58-3.908l-5.172-1.03a9.189 9.189 0 0 1-6.148 2.338 9.19 9.19 0 0 1-6.15-2.339l-5.173 1.03a4.464 4.464 0 0 0-3.579 3.91l-.292 2.684h30.388zm-9.01-17.623l-5.249 3.001a1.5 1.5 0 0 0-.085.053c-.54.356-1.16.356-1.7 0a1.57 1.57 0 0 0-.084-.052l-5.234-3.002c-.59-.408-.999-1.174-1.077-2.02v-6.12a7.22 7.22 0 0 0 2.517.45h11.973v5.67c-.08.852-.481 1.618-1.061 2.02zM11.418 41.188a5.106 5.106 0 0 1-1.773-.327v3.441a4.14 4.14 0 0 0 4.135 4.136h12.446c.625 0 .899-.117.962-.187.018-.02.18-.22.18-1.01v-.002l.002-3.4a2.66 2.66 0 0 0-2.676-2.65H11.419zM3.125 13.761V7.813a4.692 4.692 0 0 1 4.687-4.688h55.94a4.692 4.692 0 0 1 4.687 4.688v5.948H3.125zm67.553 34.835a6.205 6.205 0 0 0 6.197-6.198V29.32a6.205 6.205 0 0 0-6.197-6.198h-27.6a6.204 6.204 0 0 0-6.198 6.198v13.078a6.204 6.204 0 0 0 6.197 6.198h3.516c.862 0 1.562.7 1.562 1.563v2.358l3.463-3.463c.293-.293.69-.458 1.104-.458h17.956z" fill="#fff"/><path d="M44 31c-2.757 0-5 2.019-5 4.5s2.243 4.5 5 4.5 5-2.019 5-4.5-2.243-4.5-5-4.5z" fill="#fff"/><path fill-rule="evenodd" clip-rule="evenodd" d="M44 37c-.919 0-1.667-.673-1.667-1.5S43.081 34 44 34c.92 0 1.667.673 1.667 1.5S44.919 37 44 37z" fill="#2059F5"/><path fill-rule="evenodd" clip-rule="evenodd" d="M52 35.5c0-2.481 2.019-4.5 4.5-4.5s4.5 2.019 4.5 4.5-2.019 4.5-4.5 4.5a4.505 4.505 0 0 1-4.5-4.5zm3 0c0 .827.673 1.5 1.5 1.5s1.5-.673 1.5-1.5-.673-1.5-1.5-1.5-1.5.673-1.5 1.5zm9 0c0-2.481 2.243-4.5 5-4.5s5 2.019 5 4.5-2.243 4.5-5 4.5-5-2.019-5-4.5zm3.333 0c0 .827.748 1.5 1.667 1.5s1.667-.673 1.667-1.5S69.919 34 69 34c-.92 0-1.667.673-1.667 1.5z" fill="#fff"/><path d="M25.44 21.44c-.28.279-.44.664-.44 1.06a1.504 1.504 0 0 0 1.5 1.5 1.505 1.505 0 0 0 1.5-1.5 1.505 1.505 0 0 0-1.5-1.5c-.395 0-.781.16-1.06.44z" fill="#fff"/></svg>