<svg width="94" height="94" fill="none" xmlns="http://www.w3.org/2000/svg"><path d="M66 23a2.008 2.008 0 0 1-1.414-.586A2.012 2.012 0 0 1 64 21c0-.526.214-1.042.586-1.414A2.016 2.016 0 0 1 66 19c.528 0 1.042.214 1.414.586.374.372.586.888.586 1.414a2.004 2.004 0 0 1-2 2zM44.996 6A1.998 1.998 0 0 0 43 8c0 1.104.894 2 1.996 2h.016A1.991 1.991 0 0 0 47 8c0-1.104-.902-2-2.004-2zm8 0A1.998 1.998 0 0 0 51 8c0 1.104.894 2 1.996 2h.016A1.991 1.991 0 0 0 55 8c0-1.104-.901-2-2.004-2zm9 0A1.998 1.998 0 0 0 60 8c0 1.104.894 2 1.996 2h.016A1.991 1.991 0 0 0 64 8c0-1.104-.902-2-2.004-2zm-3.582 42.414c.372-.372.586-.888.586-1.414 0-.526-.214-1.042-.586-1.414A2.017 2.017 0 0 0 57.001 45c-.528 0-1.041.214-1.415.586A2.016 2.016 0 0 0 55 47c0 .526.214 1.042.586 1.414.373.372.887.586 1.415.586.526 0 1.04-.214 1.413-.586z" fill="#fff"/><path fill-rule="evenodd" clip-rule="evenodd" d="M41.865 0h47.27C91.817 0 94 2.19 94 4.884v39.233C94 46.809 91.817 49 89.135 49H64.169a1.839 1.839 0 0 1-1.835-1.842c0-1.017.822-1.842 1.835-1.842h24.966c.658 0 1.194-.538 1.194-1.2V15.534H40.671v28.583c0 .662.535 1.2 1.194 1.2h6.596c1.014 0 1.835.824 1.835 1.841A1.839 1.839 0 0 1 48.461 49h-6.596C39.183 49 37 46.809 37 44.116V4.883C37 2.191 39.182 0 41.865 0zM40.67 4.884v6.965h49.66V4.884a1.2 1.2 0 0 0-1.195-1.2h-47.27c-.659 0-1.195.538-1.195 1.2z" fill="#fff"/><path d="M20 74c-.526 0-1.042.214-1.414.586A2.016 2.016 0 0 0 18 76c0 .526.214 1.042.586 1.414.372.374.888.586 1.414.586.526 0 1.042-.212 1.414-.586.372-.372.586-.886.586-1.414 0-.526-.214-1.042-.586-1.414A2.016 2.016 0 0 0 20 74z" fill="#fff"/><path d="M47.287 66.797c-2.765-2.765-7.265-2.766-10.03 0l-.628.628a2.239 2.239 0 0 1-3.163 0l-6.892-6.893a2.222 2.222 0 0 1-.655-1.581c0-.597.232-1.16.655-1.582l.628-.627a7.102 7.102 0 0 0 0-10.032l-9.636-9.636a7.1 7.1 0 0 0-10.03 0L5.23 39.38c-6.973 6.974-6.973 18.322 0 25.295l7.2 7.201a1.83 1.83 0 0 0 2.587-2.586l-7.2-7.2C2.81 57.081 2.324 49.242 6.354 43.682l8.964 8.965c.357.357.825.535 1.293.535a1.83 1.83 0 0 0 1.293-3.122l-9.09-9.091 1.309-1.31a3.438 3.438 0 0 1 4.857 0l9.636 9.637a3.439 3.439 0 0 1 0 4.858l-.628.627a5.856 5.856 0 0 0-1.726 4.168c0 1.575.613 3.055 1.726 4.168l6.892 6.893a5.9 5.9 0 0 0 8.335 0l.628-.628a3.438 3.438 0 0 1 4.858 0l9.636 9.636a3.413 3.413 0 0 1 1.006 2.43c0 .916-.358 1.78-1.007 2.428l-1.309 1.31-8.77-8.771a1.83 1.83 0 0 0-2.586 2.586l8.643 8.644c-5.56 4.03-13.398 3.544-18.405-1.463l-6.62-6.622a1.83 1.83 0 0 0-2.587 2.587l6.621 6.621A17.83 17.83 0 0 0 41.97 94c4.58 0 9.16-1.743 12.647-5.23l2.306-2.306A7.046 7.046 0 0 0 59 81.448a7.046 7.046 0 0 0-2.077-5.015l-9.636-9.636zM70.222 42c.982 0 1.778-.838 1.778-1.871 0-1.034-.796-1.872-1.778-1.872h-2.444V27.871C67.778 26.838 66.982 26 66 26h-2.705c-.982 0-1.778.838-1.778 1.871 0 1.034.796 1.872 1.778 1.872h.927v8.514h-2.444c-.982 0-1.778.838-1.778 1.872 0 1.033.796 1.871 1.778 1.871h8.444zM74 80h-2a2 2 0 1 0 0 4h2a2 2 0 0 0 0-4zm8.113 0a1.97 1.97 0 0 0-1.444.607c-.94.097-1.669.817-1.669 1.69 0 .94.845 1.703 1.887 1.703h1.226C83.155 84 84 83.238 84 82.298v-.596c0-.94-.845-1.702-1.887-1.702zM82 52a2 2 0 0 0-2 2v2a2 2 0 0 0 4 0v-2a2 2 0 0 0-2-2zm0 9a2 2 0 0 0-2 2v2a2 2 0 0 0 4 0v-2a2 2 0 0 0-2-2zm0 10a2 2 0 0 0-2 2v2a2 2 0 1 0 4 0v-2a2 2 0 0 0-2-2zM21 14h2a2 2 0 0 0 0-4h-2a2 2 0 0 0 0 4zm9 0h2a2 2 0 0 0 0-4h-2a2 2 0 0 0 0 4zm-18 9a2 2 0 0 0 2-2v-2a2 2 0 0 0-4 0v2a2 2 0 0 0 2 2zm0 9a2 2 0 0 0 2-2v-2a2 2 0 1 0-4 0v2a2 2 0 0 0 2 2zm0-18h2a2 2 0 0 0 0-4h-2a2 2 0 0 0 0 4z" fill="#fff"/></svg>