<svg xmlns="http://www.w3.org/2000/svg" xmlns:xlink="http://www.w3.org/1999/xlink" viewBox="0 0 1864.2 860.9"><path fill="#f1bad1" d="M1767.4 64.5l-.4 29.6 87.5-56.5z"/><path fill="#ff4c48" d="M1743.9 45.7l23.5 18.8 87.1-26.9-79.3 35.5 24.6 21.5 64.4-60.6z"/><path fill="#f00d00" d="M1775.2 73.1l-8.2 21 18.7-11.8z"/><defs><path id="a" d="M0 0h1864.2v860.9H0z"/></defs><clipPath id="b"><use xlink:href="#a" overflow="visible"/></clipPath><path d="M1418.6 857.5c-.1-1.9 1.4-3.5 3.4-3.6 1.9-.1 3.6 1.4 3.6 3.4.1 1.9-1.4 3.5-3.4 3.6h-.1c-1.9 0-3.4-1.5-3.5-3.4m-16.2 3.1c-1.9-.1-3.4-1.8-3.3-3.7.1-1.9 1.8-3.4 3.7-3.3 1.9.1 3.4 1.8 3.3 3.7-.1 1.8-1.7 3.3-3.5 3.3h-.2m35.6-4.4c-.3-1.9 1.1-3.7 3-4 1.9-.3 3.7 1.1 4 3 .3 1.9-1.1 3.7-3 4h-.5c-1.7 0-3.2-1.3-3.5-3m-55.3 2.1c-1.9-.3-3.2-2.1-2.9-4 .3-1.9 2.1-3.2 4-2.9 1.9.3 3.2 2.1 2.9 4-.3 1.7-1.8 2.9-3.5 2.9h-.5m74.5-5.4c-.5-1.9.7-3.8 2.5-4.2 1.9-.5 3.8.7 4.2 2.6.5 1.9-.7 3.8-2.5 4.2-.3.1-.6.1-.9.1-1.4-.1-2.9-1.2-3.3-2.7m-93.9 1.3c-1.9-.5-3-2.4-2.5-4.3s2.4-3 4.3-2.5 3 2.4 2.5 4.3c-.4 1.6-1.8 2.6-3.4 2.6-.3 0-.6 0-.9-.1m112.7-6.7c-.7-1.8.3-3.8 2.1-4.5 1.8-.7 3.8.3 4.5 2.1.7 1.8-.3 3.8-2.1 4.5-.4.1-.8.2-1.2.2-1.5.1-2.8-.8-3.3-2.3m-131.6 1c-1.8-.6-2.8-2.6-2.1-4.5.6-1.8 2.6-2.8 4.5-2.2 1.8.6 2.8 2.6 2.1 4.5-.5 1.4-1.8 2.3-3.3 2.3-.4.1-.8 0-1.2-.1m149.7-8.2c-.8-1.8-.1-3.8 1.7-4.7 1.7-.8 3.8-.1 4.7 1.7.8 1.7.1 3.8-1.6 4.7-.5.2-1 .3-1.5.3-1.5 0-2.7-.7-3.3-2m-168.1.9c-1.8-.8-2.6-2.8-1.8-4.6.8-1.8 2.8-2.6 4.6-1.8 1.8.8 2.6 2.8 1.8 4.6-.6 1.3-1.9 2.1-3.2 2.1-.4 0-.9-.1-1.4-.3m185.4-9.8c-1-1.7-.5-3.8 1.2-4.8s3.8-.5 4.8 1.2.5 3.8-1.2 4.8c-.6.3-1.2.5-1.8.5-1.2 0-2.4-.6-3-1.7m-203.1 1.2c-1.7-.9-2.4-3-1.4-4.7.9-1.7 3-2.4 4.7-1.5 1.7.9 2.4 3 1.4 4.7-.6 1.2-1.8 1.9-3.1 1.9-.6 0-1.1-.1-1.6-.4m-17.1-9.8c-1.6-1-2.2-3.2-1.1-4.8 1-1.6 3.2-2.1 4.8-1.1 1.6 1 2.1 3.2 1.1 4.8-.7 1.1-1.8 1.7-3 1.7-.6-.1-1.3-.3-1.8-.6m236.6-1.9c-1.1-1.6-.8-3.8.8-4.9 1.6-1.1 3.8-.8 4.9.8 1.1 1.6.8 3.8-.8 4.9-.6.4-1.3.7-2 .7-1.1 0-2.2-.5-2.9-1.5m-253.1-9c-1.6-1.1-1.9-3.3-.8-4.9 1.1-1.6 3.3-2 4.9-.8 1.6 1.1 1.9 3.3.8 4.9-.7 1-1.8 1.5-2.9 1.5-.6-.1-1.3-.3-2-.7m268.6-2.8c-1.3-1.5-1.1-3.7.3-4.9 1.4-1.3 3.7-1.1 4.9.3 1.3 1.5 1.1 3.7-.3 4.9-.7.6-1.5.9-2.3.9-1 0-1.9-.4-2.6-1.2M1259 800c-1.5-1.2-1.7-3.4-.5-4.9 1.2-1.5 3.4-1.7 4.9-.5 1.5 1.2 1.7 3.4.5 4.9-.7.9-1.7 1.3-2.7 1.3-.7-.1-1.5-.3-2.2-.8m298.5-4.2c-1.4-1.3-1.5-3.5-.2-5 1.3-1.4 3.5-1.5 4.9-.2 1.4 1.3 1.5 3.5.2 5-.7.7-1.6 1.1-2.6 1.1-.8 0-1.6-.3-2.3-.9m-313.4-8.7c-1.4-1.3-1.5-3.5-.2-4.9 1.3-1.4 3.5-1.5 4.9-.2 1.4 1.3 1.5 3.5.2 4.9-.7.8-1.6 1.1-2.6 1.1-.8 0-1.6-.3-2.3-.9m326.2-6c-1.5-1.2-1.9-3.3-.7-4.9 1.2-1.5 3.3-1.9 4.9-.7 1.5 1.2 1.9 3.3.7 4.9-.7.9-1.7 1.4-2.8 1.4-.7 0-1.5-.2-2.1-.7m-340.4-7.6c-1.4-1.4-1.3-3.6 0-5 1.4-1.4 3.6-1.3 4.9 0 1.4 1.4 1.3 3.6 0 5-.7.7-1.6 1-2.5 1-.8 0-1.7-.3-2.4-1m351.5-8.4c-1.7-1-2.2-3.1-1.2-4.8 1-1.7 3.1-2.2 4.8-1.2 1.7 1 2.2 3.1 1.2 4.8-.6 1.1-1.8 1.7-3 1.7-.6 0-1.2-.2-1.8-.5m-364.9-6c-1.3-1.5-1.1-3.7.3-4.9 1.5-1.3 3.7-1.1 4.9.3 1.3 1.5 1.1 3.7-.3 4.9-.7.6-1.5.9-2.3.9-1 0-1.9-.4-2.6-1.2m374.2-11.1c-1.8-.8-2.5-2.9-1.7-4.6.8-1.8 2.9-2.5 4.6-1.7 1.8.8 2.5 2.9 1.7 4.6-.6 1.3-1.9 2-3.2 2-.4 0-.9-.1-1.4-.3m-386.8-4c-1.2-1.5-.9-3.7.6-4.9 1.5-1.2 3.7-.9 4.9.6 1.2 1.5.9 3.7-.6 4.9-.6.5-1.4.8-2.2.8-1-.1-2-.5-2.7-1.4m394.4-13.9c-1.8-.6-2.8-2.6-2.2-4.5s2.6-2.8 4.4-2.2c1.8.6 2.8 2.6 2.2 4.4-.5 1.5-1.8 2.4-3.3 2.4-.4.1-.8 0-1.1-.1m-406.2-1.9c-1.1-1.6-.7-3.8.8-4.9 1.6-1.1 3.8-.7 4.9.9 1.1 1.6.7 3.8-.8 4.9-.6.4-1.3.6-2 .6-1.1 0-2.2-.5-2.9-1.5m-10.9-16.4c-1-1.6-.5-3.8 1.1-4.8s3.8-.5 4.8 1.1.5 3.8-1.1 4.8c-.6.4-1.2.5-1.9.5-1.1.1-2.2-.5-2.9-1.6m422.8-.3c-1.9-.5-3-2.4-2.6-4.2.5-1.9 2.4-3 4.2-2.6 1.9.5 3 2.4 2.6 4.2-.4 1.6-1.8 2.7-3.4 2.7-.2 0-.5-.1-.8-.1m-432.7-16.7c-.9-1.7-.3-3.8 1.4-4.8 1.7-.9 3.8-.3 4.8 1.4.9 1.7.3 3.8-1.4 4.8-.5.3-1.1.4-1.7.4-1.3.1-2.5-.6-3.1-1.8m436.9-2.4c-1.9-.3-3.2-2.1-2.9-4 .3-1.9 2.1-3.2 4-2.9 1.9.3 3.2 2.1 2.9 4-.3 1.7-1.8 2.9-3.4 2.9-.2.1-.4.1-.6 0m-445.8-15.1c-.8-1.8-.1-3.8 1.7-4.7s3.8-.1 4.6 1.7c.8 1.8.1 3.8-1.7 4.7-.5.2-1 .3-1.5.3-1.2 0-2.5-.8-3.1-2m448.6-4.1c-1.9-.2-3.3-1.9-3.2-3.8.2-1.9 1.9-3.3 3.8-3.2 1.9.2 3.3 1.9 3.1 3.8-.2 1.8-1.7 3.2-3.5 3.2h-.2m-456.5-14c-.7-1.8.1-3.8 1.9-4.6 1.8-.7 3.8.1 4.6 1.9.7 1.8-.1 3.8-1.9 4.6-.4.2-.9.3-1.3.3-1.4 0-2.7-.8-3.3-2.2m457.9-5.5c-1.9-.1-3.4-1.7-3.4-3.6.1-1.9 1.7-3.4 3.6-3.4 1.9.1 3.4 1.7 3.4 3.6-.1 1.9-1.6 3.4-3.5 3.4h-.1m-464.9-12.8c-.6-1.8.3-3.8 2.1-4.5 1.8-.6 3.8.3 4.5 2.1.6 1.8-.3 3.8-2.1 4.5-.4.1-.8.2-1.2.2-1.4 0-2.8-.9-3.3-2.3m461.8-10.1c0-1.9 1.5-3.5 3.5-3.5 1.9 0 3.5 1.5 3.5 3.5 0 1.9-1.5 3.5-3.5 3.5-1.9-.1-3.4-1.6-3.5-3.5m-468.1-8.5c-.6-1.8.4-3.8 2.3-4.4 1.8-.6 3.8.4 4.4 2.3.6 1.8-.4 3.8-2.3 4.4-.4.1-.7.2-1.1.2-1.5-.1-2.8-1-3.3-2.5m467.5-10.9c-.1-1.9 1.4-3.6 3.3-3.7 1.9-.1 3.6 1.4 3.7 3.3.1 1.9-1.4 3.6-3.3 3.7h-.2c-1.8.1-3.4-1.4-3.5-3.3m-473.3-7.8c-.5-1.9.5-3.8 2.4-4.3s3.8.5 4.3 2.4c.5 1.8-.5 3.8-2.4 4.3-.3.1-.7.1-1 .1-1.4 0-2.8-1-3.3-2.5m472-11.5c-.2-1.9 1.3-3.6 3.2-3.8 1.9-.2 3.6 1.3 3.8 3.2.2 1.9-1.3 3.6-3.2 3.8h-.3c-1.8 0-3.4-1.4-3.5-3.2m-477.3-7.3c-.5-1.9.6-3.8 2.4-4.3 1.9-.5 3.8.6 4.3 2.5s-.6 3.8-2.5 4.3c-.3.1-.6.1-.9.1-1.5-.1-2.9-1.1-3.3-2.6m475.3-12c-.2-1.9 1.2-3.7 3.1-3.9 1.9-.2 3.6 1.2 3.9 3.1.2 1.9-1.2 3.7-3.1 3.9h-.4c-1.7 0-3.3-1.3-3.5-3.1m-480.4-6.9c-.5-1.9.6-3.8 2.5-4.3s3.8.6 4.3 2.5-.6 3.8-2.5 4.3c-.3.1-.6.1-.9.1-1.5 0-2.9-1-3.4-2.6m478-12.3c-.3-1.9 1.1-3.7 3-4 1.9-.3 3.7 1.1 4 3 .3 1.9-1.1 3.7-3 3.9h-.5c-1.8.1-3.3-1.2-3.5-2.9m-482.9-6.6c-.5-1.9.6-3.8 2.5-4.3s3.8.6 4.3 2.5-.6 3.8-2.5 4.3c-.3.1-.6.1-.9.1-1.6 0-3-1-3.4-2.6m480.1-12.7c-.3-1.9 1-3.7 2.9-4 1.9-.3 3.7 1 4 2.9.3 1.9-1 3.7-2.9 4h-.6c-1.7.1-3.2-1.1-3.4-2.9m-485-6.1c-.5-1.9.6-3.8 2.5-4.3s3.8.6 4.3 2.5-.6 3.8-2.5 4.3c-.3.1-.6.1-.9.1-1.6 0-3-1-3.4-2.6m481.8-13c-.3-1.9 1-3.7 2.9-4 1.9-.3 3.7 1 4 2.9.3 1.9-1 3.7-2.9 4-.2 0-.4.1-.6.1-1.6-.1-3.1-1.3-3.4-3m-486.9-5.8c-.5-1.9.6-3.8 2.4-4.3 1.9-.5 3.8.6 4.3 2.4.5 1.9-.6 3.8-2.4 4.3-.3.1-.6.1-.9.1-1.6.1-3-.9-3.4-2.5m483.6-13.4c-.3-1.9.9-3.7 2.8-4.1 1.9-.4 3.7.9 4.1 2.8.4 1.9-.9 3.7-2.8 4.1-.2 0-.4.1-.6.1-1.8 0-3.2-1.2-3.5-2.9m-489-5.2c-.6-1.9.5-3.8 2.3-4.4 1.8-.6 3.8.5 4.3 2.4.6 1.8-.5 3.8-2.3 4.4-.3.1-.7.1-1 .1-1.4 0-2.8-1-3.3-2.5m485.5-14c-.4-1.9.9-3.7 2.8-4.1 1.9-.4 3.7.9 4.1 2.8.4 1.9-.9 3.7-2.8 4.1-.2 0-.4.1-.6.1-1.8 0-3.2-1.2-3.5-2.9m-491.3-4.5c-.6-1.8.4-3.8 2.2-4.4 1.8-.6 3.8.4 4.4 2.2.6 1.8-.4 3.8-2.2 4.4-.4.1-.7.2-1.1.2-1.4 0-2.8-1-3.3-2.4m487.7-14.6c-.4-1.9.9-3.7 2.8-4.1 1.9-.4 3.7.9 4.1 2.8.4 1.9-.9 3.7-2.8 4.1-.2 0-.4.1-.7.1-1.6-.1-3.1-1.2-3.4-2.9m-494-3.7c-.7-1.8.3-3.8 2.1-4.5 1.8-.7 3.8.3 4.5 2.1.7 1.8-.3 3.8-2.1 4.5-.4.1-.8.2-1.2.2-1.5 0-2.8-.9-3.3-2.3m-485.7-10.3c-1.9 0-3.5-1.6-3.4-3.6 0-1.9 1.6-3.5 3.5-3.4 1.9 0 3.5 1.6 3.4 3.5.1 2-1.5 3.5-3.5 3.5zm16.1-3.6c-.1-1.9 1.4-3.6 3.3-3.6 1.9-.1 3.6 1.4 3.7 3.3.1 1.9-1.4 3.6-3.4 3.6h-.1c-1.9 0-3.4-1.4-3.5-3.3m-35.7 2.7c-1.9-.1-3.4-1.8-3.2-3.8.1-1.9 1.8-3.4 3.8-3.2 1.9.2 3.4 1.9 3.2 3.8-.1 1.8-1.7 3.2-3.5 3.2h-.3m55.1-3.9c-.2-1.9 1.2-3.6 3.1-3.8 1.9-.2 3.6 1.2 3.8 3.1.2 1.9-1.2 3.6-3.1 3.8h-.3c-1.7 0-3.3-1.3-3.5-3.1m940.6-.4c-.3-1.9.9-3.7 2.8-4.1 1.9-.4 3.7.9 4.1 2.8.3 1.9-.9 3.7-2.8 4.1-.2 0-.4.1-.6.1-1.7 0-3.2-1.2-3.5-2.9m-1015.4 2c-1.9-.3-3.2-2.1-2.9-4 .3-1.9 2.1-3.2 4-2.9 1.9.3 3.2 2.1 2.9 4-.3 1.7-1.8 3-3.5 3-.1-.1-.3-.1-.5-.1m94.2-3.9c-.3-1.9 1-3.7 2.9-4 1.9-.3 3.7 1 4 2.9.3 1.9-1 3.7-2.9 4h-.5c-1.7.1-3.2-1.2-3.5-2.9m423.7-.6c-.8-1.8.1-3.8 1.9-4.6 1.8-.8 3.8.1 4.6 1.9.8 1.8-.1 3.8-1.9 4.6-.4.2-.9.3-1.3.3-1.4 0-2.7-.8-3.3-2.2m-537.3.5c-1.9-.5-3-2.4-2.5-4.3s2.4-3 4.3-2.5 3 2.4 2.5 4.3c-.4 1.6-1.8 2.6-3.4 2.6-.3 0-.6-.1-.9-.1m132.8-3.2c-.4-1.9.8-3.8 2.7-4.2s3.8.8 4.2 2.7c.4 1.9-.8 3.8-2.7 4.1-.3 0-.5.1-.7.1-1.7 0-3.1-1.1-3.5-2.7m19-4.4c-.5-1.9.6-3.8 2.4-4.3 1.9-.5 3.8.6 4.3 2.4.5 1.9-.6 3.8-2.4 4.3-.3.1-.6.1-.9.1-1.5 0-2.9-1-3.4-2.5m-170.7 1.5c-1.8-.7-2.7-2.7-2-4.5.7-1.8 2.7-2.7 4.5-2s2.7 2.7 2 4.5c-.5 1.4-1.9 2.2-3.3 2.2-.4 0-.8-.1-1.2-.2m189.4-7.1c-.7-1.8.3-3.8 2.1-4.5 1.8-.6 3.8.3 4.5 2.1.6 1.8-.3 3.8-2.1 4.5-.4.1-.8.2-1.2.2-1.4 0-2.8-.9-3.3-2.3m860.7-4c-.3-1.9.9-3.7 2.8-4.1 1.9-.3 3.7.9 4.1 2.8.3 1.9-.9 3.7-2.8 4.1-.2 0-.4.1-.6.1-1.7 0-3.2-1.2-3.5-2.9m-1068.1 2.3c-1.7-1-2.2-3.1-1.2-4.8 1-1.7 3.1-2.2 4.8-1.2 1.7 1 2.2 3.1 1.2 4.8-.7 1.1-1.8 1.7-3 1.7-.7 0-1.3-.1-1.8-.5m566.3-3.2c-.8-1.7-.1-3.8 1.6-4.7 1.7-.8 3.8-.1 4.7 1.6.8 1.7.1 3.8-1.6 4.7-.5.2-1 .4-1.5.4-1.4 0-2.6-.7-3.2-2m-340.7-2.1c-.8-1.8 0-3.8 1.7-4.6 1.8-.8 3.8 0 4.7 1.7.8 1.8 0 3.8-1.7 4.6-.5.2-1 .3-1.5.3-1.4 0-2.6-.8-3.2-2M495 409.6c-1.4-1.3-1.5-3.5-.2-4.9 1.3-1.4 3.5-1.5 4.9-.2 1.4 1.3 1.5 3.5.2 4.9-.7.7-1.6 1.1-2.6 1.1-.7 0-1.6-.3-2.3-.9m259.3-2.1c-1-1.6-.5-3.8 1.1-4.8s3.8-.5 4.8 1.1.5 3.8-1.1 4.8c-.6.4-1.2.5-1.8.5-1.2 0-2.3-.5-3-1.6m314.4-6.1c-.9-1.7-.3-3.8 1.3-4.8 1.7-.9 3.8-.3 4.8 1.3.9 1.7.4 3.8-1.3 4.8-.5.3-1.1.5-1.7.5-1.3 0-2.5-.7-3.1-1.8m507.4-1.3c-.3-1.9 1-3.7 2.9-4 1.9-.3 3.7 1 4 2.9.3 1.9-1 3.7-2.9 4-.2 0-.4.1-.6.1-1.7-.1-3.1-1.3-3.4-3m-806-3.9c-1.3-1.5-1.1-3.7.3-4.9 1.5-1.3 3.7-1.1 4.9.4 1.3 1.5 1.1 3.7-.3 4.9-.7.6-1.5.9-2.3.9-.9-.1-1.9-.5-2.6-1.3m-287.9-2.4c-1-1.6-.5-3.8 1.2-4.8s3.8-.5 4.8 1.2c1 1.6.5 3.8-1.2 4.8-.6.3-1.2.5-1.8.5-1.2 0-2.4-.6-3-1.7m576.5-8.9c-1.1-1.6-.6-3.8 1-4.9 1.6-1.1 3.8-.6 4.8 1 1.1 1.6.6 3.8-1 4.9-.6.4-1.3.6-1.9.6-1.2 0-2.3-.5-2.9-1.6m-273.9-1.6c-1.3-1.5-1.1-3.7.3-4.9 1.5-1.3 3.7-1.1 4.9.3 1.3 1.5 1.1 3.7-.3 4.9-.7.6-1.5.9-2.3.9-1 0-1.9-.4-2.6-1.2m788.1-2.5c-.3-1.9 1-3.7 2.9-4 1.9-.3 3.7 1 4 2.9.3 1.9-1 3.7-2.9 4h-.5c-1.7 0-3.2-1.2-3.5-2.9M474.3 375c-.5-1.9.6-3.8 2.5-4.3s3.8.6 4.3 2.5-.6 3.8-2.5 4.3c-.3.1-.6.1-.9.1-1.6 0-3-1-3.4-2.6m325.2-4.5c-1.3-1.5-1.1-3.7.4-4.9 1.5-1.3 3.7-1.1 4.9.4 1.3 1.5 1.1 3.7-.4 4.9-.7.6-1.5.9-2.3.9-.9-.1-1.9-.5-2.6-1.3m248-1.2c-1.2-1.5-.9-3.7.6-4.9 1.5-1.2 3.7-.9 4.9.6s.9 3.7-.6 4.9c-.6.5-1.4.7-2.1.7-1.1.1-2.1-.4-2.8-1.3m522.6-7.9c-.3-1.9 1.1-3.7 3-3.9 1.9-.3 3.7 1.1 3.9 3 .3 1.9-1.1 3.7-3 3.9h-.5c-1.6 0-3.1-1.2-3.4-3m-755.8-3.5c-1.2-1.5-1-3.7.5-4.9s3.7-1 4.9.5 1 3.7-.5 4.9c-.7.5-1.4.8-2.2.8-1 0-2-.5-2.7-1.3m-342.4-3c0-1.9 1.6-3.5 3.5-3.5s3.5 1.6 3.5 3.5-1.6 3.5-3.5 3.5c-2 0-3.6-1.6-3.5-3.5m563.3-.3c-1.3-1.4-1.2-3.6.2-4.9 1.4-1.3 3.7-1.2 4.9.2 1.3 1.4 1.2 3.6-.2 4.9-.7.6-1.5.9-2.3.9-.9 0-1.9-.4-2.6-1.1m-205.7-9c-1.2-1.5-.9-3.7.6-4.9 1.5-1.2 3.7-.9 4.9.6 1.2 1.5.9 3.7-.7 4.9-.6.5-1.4.7-2.1.7-1 .1-2-.4-2.7-1.3m738.2-3.6c-.2-1.9 1.2-3.7 3.1-3.9 1.9-.2 3.7 1.2 3.9 3.1.2 1.9-1.2 3.6-3.1 3.9h-.4c-1.8 0-3.3-1.3-3.5-3.1m-545.9-1.1c-1.4-1.3-1.5-3.5-.2-5 1.3-1.4 3.5-1.5 4.9-.2 1.4 1.3 1.5 3.5.2 4.9-.7.7-1.6 1.1-2.6 1.1-.8.2-1.7-.2-2.3-.8m-545.2-2c-1.9-.4-3.1-2.2-2.8-4.1.4-1.9 2.2-3.1 4.1-2.8 1.9.4 3.1 2.2 2.8 4.1-.3 1.7-1.8 2.8-3.4 2.8-.2.1-.4.1-.7 0m368.5-4.9c-1.1-1.6-.7-3.8.9-4.9 1.6-1.1 3.8-.7 4.9.9 1.1 1.6.7 3.8-.9 4.9-.6.4-1.3.6-2 .6-1.1 0-2.2-.5-2.9-1.5m162.1-5.5c-1.5-1.2-1.8-3.4-.6-4.9 1.2-1.5 3.4-1.8 4.9-.6 1.5 1.2 1.8 3.4.6 4.9-.7.9-1.7 1.4-2.8 1.4-.7-.1-1.5-.3-2.1-.8m558.7-6c-.1-1.9 1.3-3.6 3.2-3.8 1.9-.1 3.6 1.3 3.8 3.2.1 1.9-1.3 3.6-3.2 3.8h-.3c-1.8 0-3.3-1.4-3.5-3.2m-704.5.7c-1-1.7-.4-3.8 1.2-4.8 1.7-1 3.8-.5 4.8 1.2s.4 3.8-1.2 4.8c-.6.3-1.2.5-1.8.5-1.2 0-2.4-.6-3-1.7M481.2 320c-1.8-.6-2.8-2.6-2.2-4.4s2.6-2.8 4.4-2.2c1.8.6 2.8 2.6 2.2 4.4-.5 1.5-1.9 2.4-3.3 2.4-.3 0-.7-.1-1.1-.2m510.3-2.2c-1.7-1-2.2-3.1-1.2-4.8 1-1.7 3.1-2.2 4.8-1.2 1.7 1 2.2 3.1 1.2 4.8-.7 1.1-1.8 1.7-3 1.7-.7 0-1.3-.2-1.8-.5m-113.1-4.1c-.8-1.8-.1-3.8 1.6-4.7 1.8-.8 3.8-.1 4.7 1.6.8 1.8.1 3.8-1.7 4.7-.5.2-1 .3-1.5.3-1.3.1-2.5-.6-3.1-1.9m96.1-4.3c-1.8-.7-2.7-2.8-2-4.5.7-1.8 2.8-2.7 4.5-2 1.8.7 2.7 2.8 2 4.5-.5 1.4-1.9 2.2-3.3 2.2-.3 0-.8 0-1.2-.2m-78.3-3.4c-.6-1.8.4-3.8 2.2-4.4 1.8-.6 3.8.4 4.4 2.2.6 1.8-.4 3.8-2.2 4.4-.4.1-.8.2-1.1.2-1.4-.1-2.8-1-3.3-2.4m668.6-3.1c-.1-1.9 1.4-3.6 3.4-3.6 1.9-.1 3.6 1.4 3.6 3.4.1 1.9-1.4 3.6-3.4 3.6h-.1c-1.9-.1-3.4-1.6-3.5-3.4M956.5 304c-1.9-.4-3.1-2.2-2.7-4.1.4-1.9 2.2-3.1 4.1-2.7 1.9.4 3.1 2.2 2.7 4.1-.3 1.7-1.8 2.8-3.4 2.8-.3-.1-.5-.1-.7-.1m-41.5-3.4c-.3-1.9 1-3.7 2.9-4 1.9-.3 3.7.9 4 2.9.3 1.9-1 3.7-2.9 4h-.6c-1.6 0-3.1-1.2-3.4-2.9M488.5 302c-1.7-1-2.3-3.1-1.3-4.8 1-1.7 3.1-2.3 4.8-1.3 1.7 1 2.3 3.1 1.3 4.8-.6 1.1-1.8 1.8-3.1 1.8-.5-.1-1.1-.2-1.7-.5m449.3 0c-1.9 0-3.5-1.6-3.5-3.5s1.6-3.5 3.5-3.5 3.5 1.6 3.5 3.5-1.6 3.5-3.5 3.5zm630.2-15.3c-1.9 0-3.5-1.6-3.4-3.5 0-1.9 1.6-3.5 3.6-3.5 1.9 0 3.5 1.6 3.4 3.5 0 2-1.6 3.5-3.6 3.5zm-1069-1.1c-1.5-1.2-1.7-3.4-.5-4.9 1.2-1.5 3.4-1.7 4.9-.5 1.5 1.2 1.7 3.4.5 4.9-.7.8-1.7 1.3-2.7 1.3-.7 0-1.5-.3-2.2-.8m13-14.6c-1.3-1.4-1.3-3.6.1-5 1.4-1.3 3.6-1.3 5 .1 1.3 1.4 1.3 3.6-.1 5-.7.7-1.6 1-2.4 1-1 0-1.9-.4-2.6-1.1m1056.7-3.7c-1.9-.1-3.4-1.8-3.2-3.8.2-1.9 1.8-3.4 3.8-3.2 1.9.1 3.4 1.8 3.2 3.8-.1 1.8-1.7 3.2-3.5 3.2h-.3m-1042.3-9.4c-1.2-1.5-1-3.7.5-4.9 1.5-1.2 3.7-1 4.9.5 1.2 1.5 1 3.7-.5 4.9-.7.5-1.4.8-2.2.8-1 0-2-.4-2.7-1.3m1044.2-10c-1.9-.3-3.2-2.1-2.9-4 .3-1.9 2.1-3.2 4-2.9 1.9.3 3.2 2.1 2.9 4-.3 1.7-1.8 3-3.4 3-.2-.1-.4-.1-.6-.1m-1028.9-2.1c-1.2-1.5-.9-3.7.7-4.9 1.5-1.2 3.7-.9 4.9.7 1.2 1.5.9 3.7-.7 4.9-.6.5-1.4.7-2.1.7-1.1 0-2.1-.5-2.8-1.4m15.5-11.8c-1.2-1.5-.9-3.7.7-4.9 1.5-1.2 3.7-.9 4.9.7 1.2 1.5.9 3.7-.6 4.9-.6.5-1.4.7-2.1.7-1.1 0-2.2-.5-2.9-1.4m1016.9-5.3c-1.9-.5-3-2.4-2.6-4.2.5-1.9 2.4-3 4.2-2.6 1.9.5 3 2.4 2.5 4.2-.4 1.6-1.8 2.6-3.4 2.6-.1.1-.4.1-.7 0M572.6 222c-1.2-1.5-1.1-3.7.4-4.9 1.5-1.2 3.7-1 4.9.4s1 3.7-.4 4.9c-.7.5-1.5.8-2.3.8-1 .1-1.9-.4-2.6-1.2m1006.8-12c-1.8-.7-2.8-2.7-2.1-4.5.7-1.8 2.7-2.7 4.5-2.1 1.8.7 2.8 2.7 2.1 4.5-.5 1.4-1.9 2.3-3.3 2.3-.4 0-.8-.1-1.2-.2m-992.2-.9c-1.4-1.4-1.4-3.6 0-5s3.6-1.4 4.9 0c1.4 1.4 1.4 3.6 0 5-.7.7-1.6 1-2.5 1-.8.1-1.7-.3-2.4-1m13.2-14.3c-1.5-1.2-1.8-3.4-.6-4.9 1.2-1.5 3.4-1.8 4.9-.6 1.5 1.2 1.8 3.4.7 4.9-.7.9-1.7 1.4-2.8 1.4-.8 0-1.6-.3-2.2-.8m986.4-2.8c-1.7-.9-2.4-3-1.5-4.7.9-1.7 3-2.4 4.7-1.5 1.7.9 2.4 3 1.5 4.7-.6 1.2-1.8 1.9-3.1 1.9-.6-.1-1.1-.2-1.6-.4m-975.3-13.1c-1.7-.9-2.3-3.1-1.4-4.8s3.1-2.3 4.8-1.3c1.7.9 2.3 3.1 1.4 4.8-.6 1.1-1.8 1.8-3.1 1.8-.5-.1-1.1-.2-1.7-.5m984.9-3.9c-1.6-1.1-2-3.3-.9-4.9 1.1-1.6 3.3-2 4.9-.9 1.6 1.1 2 3.3.9 4.9-.7 1-1.8 1.5-2.9 1.5-.7.1-1.4-.2-2-.6m-976.3-13.6c-1.8-.6-2.8-2.6-2.1-4.5.7-1.8 2.6-2.8 4.5-2.1 1.8.6 2.8 2.6 2.1 4.5-.5 1.4-1.9 2.3-3.3 2.3-.4 0-.8-.1-1.2-.2m988-1.9c-1.4-1.3-1.5-3.5-.2-5 1.3-1.4 3.5-1.5 4.9-.2 1.4 1.3 1.5 3.5.2 4.9-.7.8-1.6 1.1-2.6 1.1-.7.2-1.6-.1-2.3-.8m13.8-13.7c-1.2-1.5-1.1-3.7.4-4.9 1.5-1.2 3.7-1 4.9.4 1.2 1.5 1 3.7-.4 4.9-.6.5-1.4.8-2.3.8-.9 0-1.9-.4-2.6-1.2m-996.4-3.1c-1.9-.3-3.2-2.1-2.9-4 .3-1.9 2.1-3.2 4-2.9 1.9.3 3.2 2.1 2.9 4-.3 1.7-1.8 3-3.5 3-.2-.1-.3-.1-.5-.1m1011.8-8.8c-1.1-1.6-.6-3.8 1-4.9 1.6-1.1 3.8-.6 4.9 1 1.1 1.6.6 3.8-1 4.8-.6.4-1.3.6-1.9.6-1.2 0-2.4-.5-3-1.5m16.6-10.1c-.9-1.7-.2-3.8 1.5-4.7 1.7-.9 3.8-.2 4.7 1.5.9 1.7.2 3.8-1.5 4.7-.5.3-1.1.4-1.6.4-1.2 0-2.5-.7-3.1-1.9M623.4 120c-.1-1.9 1.4-3.6 3.3-3.7 1.9-.1 3.6 1.4 3.7 3.3.1 1.9-1.4 3.6-3.3 3.7h-.2c-1.8 0-3.4-1.5-3.5-3.3m1048.1-4.7c-.7-1.8.1-3.8 1.9-4.6 1.8-.7 3.8.1 4.6 1.9.7 1.8-.1 3.8-1.9 4.6-.4.2-.9.3-1.3.3-1.5 0-2.8-.8-3.3-2.2m-1571.4 0c-1.9 0-3.5-1.6-3.5-3.5s1.6-3.5 3.5-3.5 3.5 1.6 3.5 3.5-1.6 3.5-3.5 3.5zm16-3.8c-.1-1.9 1.4-3.6 3.3-3.7 1.9-.1 3.6 1.4 3.7 3.3.1 1.9-1.4 3.6-3.3 3.7h-.2c-1.9.1-3.4-1.4-3.5-3.3m-35.7 3.2c-1.9-.1-3.4-1.8-3.3-3.7.1-1.9 1.8-3.4 3.7-3.3 1.9.1 3.4 1.8 3.3 3.7-.1 1.9-1.7 3.3-3.5 3.3h-.2m55.1-4.5c-.2-1.9 1.2-3.6 3.1-3.8 1.9-.2 3.6 1.2 3.8 3.1.2 1.9-1.2 3.6-3.1 3.8h-.4c-1.7.1-3.2-1.3-3.4-3.1M60.8 113c-1.9-.2-3.3-1.9-3.1-3.9.2-1.9 1.9-3.3 3.9-3.1 1.9.2 3.3 1.9 3.1 3.9-.2 1.8-1.7 3.1-3.5 3.1h-.4m94.1-5.1c-.3-1.9 1-3.7 2.9-4 1.9-.3 3.7 1 4 2.9.3 1.9-1 3.7-2.9 4h-.5c-1.8.1-3.3-1.2-3.5-2.9m1534.8.5c-.6-1.8.4-3.8 2.3-4.4 1.8-.6 3.8.4 4.4 2.2.6 1.8-.4 3.8-2.3 4.4-.4.1-.7.2-1.1.2-1.5 0-2.9-.9-3.3-2.4M41.4 110.5c-1.9-.3-3.2-2.1-3-4 .3-1.9 2-3.3 4-3 1.9.3 3.2 2 3 4-.3 1.8-1.8 3-3.5 3-.2.1-.4.1-.5 0M22 107.4c-1.9-.3-3.2-2.2-2.8-4.1.3-1.9 2.2-3.2 4.1-2.8 1.9.3 3.2 2.2 2.8 4.1-.3 1.7-1.8 2.9-3.4 2.9-.3 0-.5-.1-.7-.1m152.1-2.8c-.4-1.9.8-3.7 2.7-4.1 1.9-.4 3.7.8 4.1 2.7.4 1.9-.8 3.7-2.7 4.1-.2 0-.5.1-.7.1-1.6 0-3.1-1.1-3.4-2.8m1534.2-1.8c-.5-1.9.7-3.8 2.5-4.3 1.9-.5 3.8.6 4.3 2.5s-.6 3.8-2.5 4.3c-.3.1-.6.1-.9.1-1.6 0-3-1-3.4-2.6m-1087.7-1.4c-.5-1.9.7-3.8 2.5-4.3 1.9-.5 3.8.7 4.3 2.5.5 1.9-.7 3.8-2.5 4.3-.3.1-.6.1-.9.1-1.5.1-3-1-3.4-2.6M2.8 103.6c-1.9-.4-3.1-2.3-2.7-4.2.4-1.9 2.3-3.1 4.2-2.7 1.9.4 3.1 2.3 2.7 4.2-.3 1.6-1.8 2.8-3.4 2.8-.3 0-.6-.1-.8-.1m190.3-3.1c-.5-1.9.7-3.8 2.5-4.2 1.9-.5 3.8.7 4.2 2.6.5 1.9-.7 3.8-2.5 4.2-.3.1-.6.1-.9.1-1.5 0-2.9-1.1-3.3-2.7m1534.1-2.2c-.4-1.9.8-3.7 2.7-4.1 1.9-.4 3.7.8 4.1 2.7.4 1.9-.8 3.7-2.8 4.1-.2 0-.5.1-.7.1-1.5 0-2.9-1.1-3.3-2.8M212 95.6c-.5-1.9.5-3.8 2.4-4.3s3.8.5 4.3 2.4-.5 3.8-2.4 4.3c-.3.1-.7.1-1 .1-1.5 0-2.9-1-3.3-2.5m1534.4-.8c-.3-1.9 1-3.7 2.9-4 1.9-.3 3.7 1 4 2.9.3 1.9-1 3.7-2.9 4h-.5c-1.8 0-3.2-1.2-3.5-2.9M230.6 90c-.6-1.8.4-3.8 2.3-4.4 1.8-.6 3.8.4 4.4 2.3.6 1.8-.4 3.8-2.3 4.4-.4.1-.7.2-1.1.2-1.4-.1-2.8-1-3.3-2.5m18.5-6.2c-.6-1.8.3-3.8 2.1-4.5 1.8-.6 3.8.3 4.5 2.1.6 1.8-.3 3.8-2.1 4.5-.4.1-.8.2-1.2.2-1.4.1-2.8-.8-3.3-2.3m365.2-.1c-.8-1.8 0-3.8 1.7-4.6 1.8-.8 3.8 0 4.6 1.7.8 1.8 0 3.8-1.7 4.6-.5.2-1 .3-1.5.3-1.2 0-2.5-.7-3.1-2m-346.9-6.4c-.7-1.8.2-3.8 2-4.5 1.8-.7 3.8.2 4.5 2.1.7 1.8-.2 3.8-2.1 4.5-.4.2-.8.2-1.2.2-1.3-.1-2.6-.9-3.2-2.3m18.3-7c-.7-1.8.2-3.8 2-4.5 1.8-.7 3.8.2 4.5 2 .7 1.8-.2 3.8-2 4.5-.4.2-.9.2-1.3.2-1.4 0-2.7-.8-3.2-2.2m319.4-3.1c-1.1-1.6-.7-3.8.9-4.9 1.6-1.1 3.8-.7 4.9.9 1.1 1.6.7 3.8-.9 4.9-.6.4-1.3.6-2 .6-1.2.1-2.3-.5-2.9-1.5m-301.3-4c-.7-1.8.1-3.8 1.9-4.5 1.8-.7 3.8.1 4.6 1.9.7 1.8-.2 3.8-2 4.5-.4.2-.9.3-1.3.3-1.4 0-2.7-.9-3.2-2.2m18-7.3c-.7-1.8.1-3.8 1.9-4.6 1.8-.7 3.8.1 4.5 1.9.7 1.8-.1 3.8-1.9 4.6-.4.2-.9.3-1.3.3-1.3 0-2.6-.9-3.2-2.2m271.5-3.5c-1.3-1.4-1.2-3.6.2-5 1.4-1.3 3.6-1.2 5 .2s1.2 3.6-.2 4.9c-.7.6-1.5.9-2.4.9-1 .1-1.9-.3-2.6-1m-253.4-3.8c-.7-1.8.1-3.8 1.9-4.5 1.8-.7 3.8.2 4.6 1.9s-.1 3.8-1.9 4.5c-.4.2-.9.3-1.3.3-1.4 0-2.8-.9-3.3-2.2m18.1-7.3c-.7-1.8.2-3.8 2-4.5 1.8-.7 3.8.2 4.5 2 .7 1.8-.2 3.8-2 4.5-.4.2-.9.2-1.3.2-1.4.1-2.7-.8-3.2-2.2m221.4-1.9c-1.5-1.2-1.7-3.4-.5-4.9 1.2-1.5 3.4-1.7 4.9-.5 1.5 1.2 1.7 3.4.5 4.9-.7.8-1.7 1.3-2.7 1.3-.7 0-1.5-.3-2.2-.8m-203.3-5.1c-.7-1.8.2-3.8 2-4.5s3.8.2 4.5 2c.7 1.8-.2 3.8-2 4.5-.4.2-.8.2-1.2.2-1.4 0-2.7-.8-3.3-2.2m18.3-6.8c-.6-1.8.3-3.8 2.1-4.5 1.8-.6 3.8.3 4.5 2.1.7 1.8-.3 3.8-2.1 4.5-.4.1-.8.2-1.2.2-1.5 0-2.8-.9-3.3-2.3m169.5.9c-1.6-1-2.2-3.2-1.1-4.8 1-1.6 3.2-2.2 4.8-1.1 1.6 1 2.2 3.2 1.1 4.8-.7 1.1-1.8 1.7-3 1.7-.6-.1-1.2-.3-1.8-.6m-151.1-7.3c-.6-1.8.4-3.8 2.2-4.4 1.8-.6 3.8.4 4.4 2.2.6 1.8-.4 3.8-2.2 4.4-.4.1-.7.2-1.1.2-1.5 0-2.8-1-3.3-2.4m134.3-1.7c-1.8-.8-2.5-2.9-1.8-4.6.8-1.8 2.9-2.5 4.6-1.8 1.8.8 2.5 2.9 1.8 4.6-.6 1.3-1.9 2.1-3.2 2.1-.4.1-.9 0-1.4-.3m-115.8-4.3c-.6-1.9.5-3.8 2.4-4.4 1.8-.5 3.8.5 4.4 2.3.6 1.8-.5 3.8-2.3 4.4-.3.1-.7.1-1 .1-1.6.1-3-.9-3.5-2.4m98-2.3c-1.8-.6-2.9-2.5-2.3-4.4.6-1.8 2.5-2.9 4.4-2.3 1.8.6 2.9 2.5 2.3 4.4-.5 1.5-1.8 2.5-3.3 2.5-.4 0-.8-.1-1.1-.2M450 9.6c-.5-1.9.6-3.8 2.5-4.3s3.8.6 4.3 2.5-.6 3.8-2.5 4.3c-.3.1-.6.1-.9.1-1.6 0-3-1-3.4-2.6m60.8-1c-1.9-.3-3.2-2.1-2.9-4 .3-1.9 2.1-3.2 4-2.9 1.9.3 3.2 2.1 2.9 4-.3 1.7-1.8 3-3.5 3-.2-.1-.4-.1-.5-.1M469 5.2c-.3-1.9 1.1-3.7 3-3.9 1.9-.3 3.7 1.1 3.9 3 .3 1.9-1.1 3.7-3 3.9h-.5c-1.7 0-3.2-1.3-3.4-3M491.8 7c-1.9 0-3.5-1.6-3.5-3.5s1.6-3.5 3.6-3.5c1.9 0 3.5 1.6 3.4 3.6.1 1.9-1.5 3.4-3.5 3.4z" clip-path="url(#b)" fill="#badde8"/></svg>