<svg version="1.1" id="Layer_1" xmlns="http://www.w3.org/2000/svg" xmlns:xlink="http://www.w3.org/1999/xlink" x="0" y="0" viewBox="0 0 434.7 383.8" xml:space="preserve"><style>.st1{clip-path:url(#SVGID_4_)}</style><defs><path id="SVGID_1_" d="M0 0h434.7v383.8H0z"/></defs><clipPath id="SVGID_2_"><use xlink:href="#SVGID_1_" overflow="visible"/></clipPath><g clip-path="url(#SVGID_2_)"><defs><path id="SVGID_3_" d="M0 0h434.7v383.8H0z"/></defs><clipPath id="SVGID_4_"><use xlink:href="#SVGID_3_" overflow="visible"/></clipPath><g class="st1"><defs><path id="SVGID_5_" d="M0 232.5h225.6v112.3H0z"/></defs><clipPath id="SVGID_6_"><use xlink:href="#SVGID_5_" overflow="visible"/></clipPath><path d="M225.6 344.8c-.3-63-50.7-112.3-112.8-112.3C50.7 232.5.3 281.8 0 344.8h225.6z" clip-path="url(#SVGID_6_)" fill-rule="evenodd" clip-rule="evenodd" fill="#009ee3"/></g><g class="st1"><defs><path id="SVGID_7_" d="M293 173h141.7v122.8H293z"/></defs><clipPath id="SVGID_8_"><use xlink:href="#SVGID_7_" overflow="visible"/></clipPath><path clip-path="url(#SVGID_8_)" fill-rule="evenodd" clip-rule="evenodd" fill="#e3000f" d="M363.8 173l35.5 61.4 35.4 61.4H293l35.4-61.4z"/></g><g class="st1"><defs><path id="SVGID_9_" d="M293.3 329.8h54.3v46.6h-54.3z"/></defs><clipPath id="SVGID_10_"><use xlink:href="#SVGID_9_" overflow="visible"/></clipPath><path clip-path="url(#SVGID_10_)" fill="#ffed00" d="M320.4 376.4l13.6-23.3 13.5-23.3h-54.2l13.5 23.3z"/></g><g class="st1"><defs><path id="SVGID_11_" d="M396.5 7.6h11.3v12.8h-11.3z"/></defs><clipPath id="SVGID_12_"><use xlink:href="#SVGID_11_" overflow="visible"/></clipPath><path clip-path="url(#SVGID_12_)" fill="#ffed00" d="M396.5 7.6l.2 6.5.1 6.4 5.5-3.4 5.5-3.3-5.7-3.1z"/></g><g class="st1"><defs><path id="SVGID_13_" d="M372.9 95.6h8.8v8.4h-8.8z"/></defs><clipPath id="SVGID_14_"><use xlink:href="#SVGID_13_" overflow="visible"/></clipPath><path clip-path="url(#SVGID_14_)" fill="#009ee3" d="M372.9 104.1l4.4-.8 4.4-.8-2.9-3.5-2.9-3.4-1.5 4.3z"/></g><g class="st1"><defs><path id="SVGID_15_" d="M339.8 295.8h65.6v88h-65.6z"/></defs><clipPath id="SVGID_16_"><use xlink:href="#SVGID_15_" overflow="visible"/></clipPath><path clip-path="url(#SVGID_16_)" fill-rule="evenodd" clip-rule="evenodd" fill="#009ee3" d="M390.6 295.8l-50.8 88h14.8l50.8-88z"/></g><g class="st1"><defs><path id="SVGID_17_" d="M85.7 210.8h125v125h-125z"/></defs><clipPath id="SVGID_18_"><use xlink:href="#SVGID_17_" overflow="visible"/></clipPath><path clip-path="url(#SVGID_18_)" fill-rule="evenodd" clip-rule="evenodd" fill="#e3000f" d="M85.7 335.8h52.8l72.2-125h-52.9z"/></g><g class="st1"><defs><path id="SVGID_19_" d="M247.6 154.8h58.5v69h-58.5z"/></defs><clipPath id="SVGID_20_"><use xlink:href="#SVGID_19_" overflow="visible"/></clipPath><path clip-path="url(#SVGID_20_)" fill-rule="evenodd" clip-rule="evenodd" fill="#e3000f" d="M247.6 223.8h18.3l40.2-69h-18.3z"/></g><g class="st1"><defs><path id="SVGID_21_" d="M295 32.4h22.2v17.7H295z"/></defs><clipPath id="SVGID_22_"><use xlink:href="#SVGID_21_" overflow="visible"/></clipPath><path clip-path="url(#SVGID_22_)" fill-rule="evenodd" clip-rule="evenodd" fill="#e3000f" d="M295 48.5l5.1 1.6 17.1-16.2-5.1-1.5z"/></g><g class="st1"><defs><path id="SVGID_23_" d="M387.5 37.1h26.6v8.3h-26.6z"/></defs><clipPath id="SVGID_24_"><use xlink:href="#SVGID_23_" overflow="visible"/></clipPath><path clip-path="url(#SVGID_24_)" fill-rule="evenodd" clip-rule="evenodd" fill="#e3000f" d="M387.5 41.3l3.5 4.1 23.1-4.2-3.4-4.1z"/></g><g class="st1"><defs><path id="SVGID_25_" d="M397.4 52.1h6.9v6.2h-6.9z"/></defs><clipPath id="SVGID_26_"><use xlink:href="#SVGID_25_" overflow="visible"/></clipPath><path clip-path="url(#SVGID_26_)" fill-rule="evenodd" clip-rule="evenodd" fill="#e3000f" d="M404.3 52.4l-1.8-.3-5.1 5.8 1.7.3z"/></g><g class="st1"><defs><path id="SVGID_27_" d="M398.2 51.7h5.3v7h-5.3z"/></defs><clipPath id="SVGID_28_"><use xlink:href="#SVGID_27_" overflow="visible"/></clipPath><path clip-path="url(#SVGID_28_)" fill-rule="evenodd" clip-rule="evenodd" fill="#e3000f" d="M403.5 58.6h-1.8l-3.5-6.9 1.7.1z"/></g><g class="st1"><defs><path id="SVGID_29_" d="M317.9 55.2h31.7v16.7h-31.7z"/></defs><clipPath id="SVGID_30_"><use xlink:href="#SVGID_29_" overflow="visible"/></clipPath><path d="M337 71.8l12.6-9.6-16.9-7.1-14.8 11.3c6.3 1.9 12.7 3.7 19.1 5.4" clip-path="url(#SVGID_30_)" fill-rule="evenodd" clip-rule="evenodd" fill="#e3000f"/></g><g class="st1"><defs><path id="SVGID_31_" d="M369 32.3h11.1v5.6H369z"/></defs><clipPath id="SVGID_32_"><use xlink:href="#SVGID_31_" overflow="visible"/></clipPath><path d="M374.4 37.9l5.6-2.8-5.5-2.8-5.6 2.2c1.9 1.1 3.7 2.3 5.5 3.4" clip-path="url(#SVGID_32_)" fill-rule="evenodd" clip-rule="evenodd" fill="#e3000f"/></g><g class="st1"><defs><path id="SVGID_33_" d="M389.9 0h3.5v1.8h-3.5z"/></defs><clipPath id="SVGID_34_"><use xlink:href="#SVGID_33_" overflow="visible"/></clipPath><path d="M391.9 1.8l1.5-1.4-2-.4-1.6 1.2c.8.2 1.5.4 2.1.6" clip-path="url(#SVGID_34_)" fill-rule="evenodd" clip-rule="evenodd" fill="#e3000f"/></g><g class="st1"><defs><path id="SVGID_35_" d="M314.1 67.5h26.5v11.3h-26.5z"/></defs><clipPath id="SVGID_36_"><use xlink:href="#SVGID_35_" overflow="visible"/></clipPath><path d="M332.3 78.7l8.4-8c-6.5-1-13-2.1-19.5-3.3l-7.1 6.7c6 1.8 12.1 3.3 18.2 4.6" clip-path="url(#SVGID_36_)" fill-rule="evenodd" clip-rule="evenodd" fill="#009ee3"/></g><g class="st1"><defs><path id="SVGID_37_" d="M302.7 74.6h44.6v35.9h-44.6z"/></defs><clipPath id="SVGID_38_"><use xlink:href="#SVGID_37_" overflow="visible"/></clipPath><path d="M329.1 74.6l-26.4 33.2 18.1 2.7 26.5-33.3c-6.1-1.1-12.1-2-18.2-2.6" clip-path="url(#SVGID_38_)" fill-rule="evenodd" clip-rule="evenodd" fill="#e3000f"/></g><g class="st1"><defs><path id="SVGID_39_" d="M258.4 134.8h14.2v17h-14.2z"/></defs><clipPath id="SVGID_40_"><use xlink:href="#SVGID_39_" overflow="visible"/></clipPath><path clip-path="url(#SVGID_40_)" fill-rule="evenodd" clip-rule="evenodd" fill="#ffed00" d="M258.4 151.8h4.4l9.8-17h-4.4z"/></g><g class="st1"><defs><path id="SVGID_41_" d="M364.1 59.1h21.4v10.5h-21.4z"/></defs><clipPath id="SVGID_42_"><use xlink:href="#SVGID_41_" overflow="visible"/></clipPath><path clip-path="url(#SVGID_42_)" fill-rule="evenodd" clip-rule="evenodd" fill="#ffed00" d="M364.1 67l3.6 2.6 17.8-7.9-3.6-2.6z"/></g><g class="st1"><defs><path id="SVGID_43_" d="M370.9 198.8h41.6v50h-41.6z"/></defs><clipPath id="SVGID_44_"><use xlink:href="#SVGID_43_" overflow="visible"/></clipPath><path clip-path="url(#SVGID_44_)" fill-rule="evenodd" clip-rule="evenodd" fill="#009ee3" d="M370.9 248.8h13l28.6-50h-13z"/></g><g class="st1"><defs><path id="SVGID_45_" d="M367.4 31.4h36.2v22h-36.2z"/></defs><clipPath id="SVGID_46_"><use xlink:href="#SVGID_45_" overflow="visible"/></clipPath><path clip-path="url(#SVGID_46_)" fill-rule="evenodd" clip-rule="evenodd" fill="#009ee3" d="M367.4 49.5l6.7 3.9 29.5-17.3-5.2-4.7z"/></g><g class="st1"><defs><path id="SVGID_47_" d="M363.8 298.8h14.5v17h-14.5z"/></defs><clipPath id="SVGID_48_"><use xlink:href="#SVGID_47_" overflow="visible"/></clipPath><path clip-path="url(#SVGID_48_)" fill-rule="evenodd" clip-rule="evenodd" fill="#278e0d" d="M363.8 315.8h4.6l10-17h-4.6z"/></g><g class="st1"><defs><path id="SVGID_49_" d="M280.2 125.9h7.8v8.5h-7.8z"/></defs><clipPath id="SVGID_50_"><use xlink:href="#SVGID_49_" overflow="visible"/></clipPath><path clip-path="url(#SVGID_50_)" fill-rule="evenodd" clip-rule="evenodd" fill="#278e0d" d="M280.2 134.2l2.3.2 5.5-8.4-2.2-.1z"/></g><g class="st1"><defs><path id="SVGID_51_" d="M213.8 147.8H228v17h-14.2z"/></defs><clipPath id="SVGID_52_"><use xlink:href="#SVGID_51_" overflow="visible"/></clipPath><path clip-path="url(#SVGID_52_)" fill-rule="evenodd" clip-rule="evenodd" fill="#ffed00" d="M213.8 164.8h4.4l9.7-17h-4.4z"/></g><g class="st1"><defs><path id="SVGID_53_" d="M337 87.6h9.4v7.6H337z"/></defs><clipPath id="SVGID_54_"><use xlink:href="#SVGID_53_" overflow="visible"/></clipPath><path clip-path="url(#SVGID_54_)" fill-rule="evenodd" clip-rule="evenodd" fill="#278e0d" d="M337 94.6l2.2.6 7.2-6.9-2.2-.7z"/></g><g class="st1"><defs><path id="SVGID_55_" d="M340.6 41.2h23.2v14.7h-23.2z"/></defs><clipPath id="SVGID_56_"><use xlink:href="#SVGID_55_" overflow="visible"/></clipPath><path clip-path="url(#SVGID_56_)" fill-rule="evenodd" clip-rule="evenodd" fill="#278e0d" d="M340.6 53.7l4.6 2.2 18.7-12.4-4.6-2.3z"/></g><g class="st1"><defs><path id="SVGID_57_" d="M176.6 176.8H334v119H176.6z"/></defs><clipPath id="SVGID_58_"><use xlink:href="#SVGID_57_" overflow="visible"/></clipPath><path clip-path="url(#SVGID_58_)" fill-rule="evenodd" clip-rule="evenodd" fill="#ffed00" d="M176.6 295.8h88.5l68.8-119h-88.4z"/></g><g class="st1"><defs><path id="SVGID_59_" d="M219 215.8h117.4v119H219z"/></defs><clipPath id="SVGID_60_"><use xlink:href="#SVGID_59_" overflow="visible"/></clipPath><path clip-path="url(#SVGID_60_)" fill-rule="evenodd" clip-rule="evenodd" fill="#19973f" d="M219 334.8h48.8l68.6-119h-48.9z"/></g><g class="st1"><defs><path id="SVGID_61_" d="M329.8 130.8h51.9v34h-51.9z"/></defs><clipPath id="SVGID_62_"><use xlink:href="#SVGID_61_" overflow="visible"/></clipPath><path clip-path="url(#SVGID_62_)" fill-rule="evenodd" clip-rule="evenodd" fill="#009ee3" d="M349.6 130.8l-19.8 34h32l19.9-34z"/></g><g class="st1"><defs><path id="SVGID_63_" d="M327.1 316h6.7v6.7h-6.7z"/></defs><clipPath id="SVGID_64_"><use xlink:href="#SVGID_63_" overflow="visible"/></clipPath><path d="M333.9 319.4c0 1.9-1.5 3.4-3.4 3.4s-3.4-1.5-3.4-3.4 1.5-3.4 3.4-3.4 3.4 1.5 3.4 3.4" clip-path="url(#SVGID_64_)" fill-rule="evenodd" clip-rule="evenodd" fill="#009ee3"/></g></g></svg>