<svg version="1.1" id="Layer_1" xmlns="http://www.w3.org/2000/svg" xmlns:xlink="http://www.w3.org/1999/xlink" x="0" y="0" viewBox="0 0 124.4 105.3" xml:space="preserve"><style>.st1{clip-path:url(#SVGID_5_);fill:#fff}</style><defs><path id="SVGID_1_" d="M24 50.3c-3.5-2.4-6.2-6-7.4-10.6-.2-.6-.3-1.2-.4-1.8-.2-1.2-.3-2.4-.2-3.7 0-2.3.5-4.4 1.3-6.3 2.4-6.1 8-10.4 14-11.5 1.2-.2 2.3-.3 3.5-.3 6-.2 11.6 2.8 15.1 7.6 2.3 3.1 3.7 7 3.7 11.2 0 1.7-.3 3.4-.7 4.9-2.2 8-9.4 13.8-18 13.9h-.1c-3.9 0-7.6-1.2-10.8-3.4m38.4-36.9c.1.2.3.4.4.6-.1-.3-.3-.5-.4-.6M83.5.4c-6.8 1-12.8 3.9-18 8.7-1 .9-1.9 1.9-2.8 2.9-.3.3-.4.7-.5.9l-.1-.1C55.8 7.1 49.9 3.6 48 2.8c-1.1-.4-2.1-.8-3.2-1.1C40.9.6 37 .2 32.9.4c-7 .4-13.4 2.7-18.9 7l-1.5 1.2c-5.1 4.3-8.7 9.5-10.6 15.6-.6 1.9-1.1 3.9-1.3 6.1C0 33.8.1 37.4 0 40.9v25.8c0 3 1.5 5.5 3.8 7 .9.5 1.8.9 2.9 1.1.3 0 .5.1.8.1 1.5.1 3-.2 4.3-.9.5-.3 1-.6 1.5-1 1.4-1.2 2.5-3 2.8-5.2.1-.7.1-1.3.2-2 0-.3 0-.7.1-1 .4.2.7.4 1 .6 3.1 1.8 6.4 3.1 9.7 3.9 4.5 1.1 9.2 1.2 14 .4 6.8-1.2 12.8-4.2 17.6-8.6 6.2-5.7 10.3-13.6 11.2-22.4.1-1.1.2-2.2.2-3.3-.1-6.5 2.9-12 7.5-15.4 2.9-2.1 6.4-3.4 10.3-3.6 1.2-.1 2.5 0 3.8.2 1.7.2 3.4.7 5 1.4 2.3 1.1 4.4 2.6 6.1 4.4 3.1 3.3 5 7.8 5 12.5v32c.1 5.3 4.7 9 9.8 7.9 1.3-.3 2.5-.9 3.5-1.7 1.8-1.5 2.9-3.8 2.9-6.5V35.2c0-2.1-.2-4.2-.5-6.3-1.1-6.7-4.2-12.8-8.6-17.6-3.6-4-8.1-7.1-13.2-9.1C98 .9 94 .1 89.9 0h-.8c-1.9 0-3.8.1-5.6.4"/></defs><clipPath id="SVGID_2_"><use xlink:href="#SVGID_1_" overflow="visible"/></clipPath><linearGradient id="SVGID_3_" gradientUnits="userSpaceOnUse" x1="0" y1="105.393" x2="1" y2="105.393" gradientTransform="scale(99.5495 -99.5495) rotate(-55.923 -99.042 52.438)"><stop offset="0" stop-color="#e162a0"/><stop offset=".044" stop-color="#e162a0"/><stop offset="1" stop-color="#ab4198"/></linearGradient><path clip-path="url(#SVGID_2_)" fill="url(#SVGID_3_)" d="M85.1-57.5l74.2 109.7-120.4 81.4-74.2-109.7z"/><defs><path id="SVGID_4_" d="M0 0h124.4v105.3H0z"/></defs><clipPath id="SVGID_5_"><use xlink:href="#SVGID_4_" overflow="visible"/></clipPath><path class="st1" d="M1.8 85.8c1.3-.2 3.1-.4 5.5-.4 2.6 0 4.6.6 5.8 1.6 1.2 1 1.9 2.5 1.9 4.4 0 1.9-.6 3.4-1.7 4.5C12 97.3 9.7 98 7.2 98c-.7 0-1.3 0-1.8-.1v7.5H1.8V85.8zM5.4 95c.4.1 1 .1 1.8.1 2.7 0 4.3-1.3 4.3-3.6 0-2.2-1.5-3.4-4-3.4-1 0-1.7.1-2.1.2V95zm12.5.3c0-2 0-3.4-.1-4.7H21l.1 2.8h.1c.7-2 2.4-3.1 3.9-3.1.4 0 .6 0 .9.1v3.4c-.3-.1-.6-.1-1.1-.1-1.8 0-2.9 1.1-3.3 2.8-.1.3-.1.7-.1 1.1v7.5h-3.6v-9.8zm22.8 2.3c0 5.3-3.8 7.7-7.5 7.7-4.1 0-7.3-2.8-7.3-7.5 0-4.8 3.1-7.7 7.5-7.7 4.4.1 7.3 3.1 7.3 7.5m-10.9.2c0 2.8 1.4 4.9 3.6 4.9 2.1 0 3.6-2.1 3.6-5 0-2.3-1-4.9-3.5-4.9-2.7 0-3.7 2.6-3.7 5m26-5.8l-3.1 5.9h-4l-2.6-5.6v13h-4V85.7h4.6l4.1 9.1 4.3-9.1h4.6l-.2 19.6h-3.9zm15.4 13l-.2-1.6h-.1c-.9 1.1-2.4 1.9-4.3 1.9-2.9 0-4.6-2.1-4.6-4.3 0-3.7 3.3-5.5 8.7-5.5v-.2c0-1-.4-2.5-3-2.5-1.4 0-2.9.4-3.9 1.1l-.8-2.5c1.1-.7 3-1.3 5.3-1.3 4.7 0 6 3 6 6.1v5.3c0 1.3.1 2.6.2 3.5h-3.3zm-.5-7.1c-2.6-.1-5.1.5-5.1 2.7 0 1.4.9 2.1 2.1 2.1 1.5 0 2.5-1 2.9-2 .1-.3.1-.6.1-.8v-2zm7-2.6c0-2 0-3.4-.1-4.8h3.2l.1 2.8h.1c.7-2.1 2.5-3.2 4-3.2.4 0 .6 0 .9.1v3.5c-.3-.1-.6-.1-1.1-.1-1.8 0-3 1.2-3.3 2.8-.1.3-.1.7-.1 1.2v7.6h-3.7v-9.9zm14 1.8c.4-.6.8-1.2 1.2-1.7l3.6-4.8h4.5l-5.5 6 6.3 8.7h-4.6L93 98.8l-1.3 1.5v5H88V83.8h3.7v13.3z"/><path class="st1" d="M104.5 98.6c.1 2.6 2.1 3.7 4.4 3.7 1.7 0 2.9-.2 4-.6l.5 2.5c-1.2.5-2.9.9-5 .9-4.6 0-7.3-2.8-7.3-7.2 0-4 2.4-7.7 7-7.7s6.1 3.8 6.1 6.9c0 .7-.1 1.2-.1 1.5h-9.6zm6.3-2.5c0-1.3-.6-3.5-3-3.5-2.2 0-3.2 2-3.3 3.5h6.3zm10.1-9.8v4.2h3.5v2.8h-3.5v6.4c0 1.8.5 2.7 1.9 2.7.6 0 1.1-.1 1.4-.2l.1 2.8c-.5.2-1.5.4-2.7.4-1.3 0-2.5-.4-3.2-1.2-.8-.8-1.1-2.2-1.1-4.1v-6.8h-2.1v-2.8h2.1v-3.3l3.6-.9z"/><defs><path id="SVGID_6_" d="M34.8 53.7c-3.7 0-7.6-1.2-10.8-3.4l3 19c4.5 1.1 9.2 1.2 14 .4 6.8-1.2 12.8-4.2 17.6-8.6l-5.7-21.2c-2.2 7.9-9.5 13.8-18.1 13.8"/></defs><clipPath id="SVGID_7_"><use xlink:href="#SVGID_6_" overflow="visible"/></clipPath><linearGradient id="SVGID_8_" gradientUnits="userSpaceOnUse" x1="0" y1="105.315" x2="1" y2="105.315" gradientTransform="scale(-32.0178 32.0178) rotate(13.24 445.89 45.766)"><stop offset="0" stop-color="#813192"/><stop offset="1" stop-color="#773694"/></linearGradient><path clip-path="url(#SVGID_7_)" fill="url(#SVGID_8_)" d="M65.4 68.9l-39.6 9.3-8.6-36.7 39.6-9.4z"/><defs><path id="SVGID_9_" d="M0 0h124.4v105.3H0z"/></defs><clipPath id="SVGID_10_"><use xlink:href="#SVGID_9_" overflow="visible"/></clipPath><path d="M3.8 73.7c.9.5 1.8.9 2.9 1.1l3-3.2-5.9 2.1z" clip-path="url(#SVGID_10_)" fill="#b7307f"/><defs><path id="SVGID_11_" d="M0 48.9v17.8c0 3 1.5 5.5 3.8 7l5.9-2 2-43.3L0 48.9z"/></defs><clipPath id="SVGID_12_"><use xlink:href="#SVGID_11_" overflow="visible"/></clipPath><linearGradient id="SVGID_13_" gradientUnits="userSpaceOnUse" x1="0" y1="105.344" x2="1" y2="105.344" gradientTransform="matrix(11.7441 0 0 -11.7441 0 1288.261)"><stop offset="0" stop-color="#ce318f"/><stop offset="1" stop-color="#c93490"/></linearGradient><path clip-path="url(#SVGID_12_)" fill="url(#SVGID_13_)" d="M0 28.4h11.7v45.3H0z"/><defs><path id="SVGID_14_" d="M9.7 71.7l3.5 1.4c1.4-1.2 2.5-3 2.8-5.2.1-.7.1-1.3.2-2V41.4L9.7 71.7z"/></defs><clipPath id="SVGID_15_"><use xlink:href="#SVGID_14_" overflow="visible"/></clipPath><linearGradient id="SVGID_16_" gradientUnits="userSpaceOnUse" x1="0" y1="105.344" x2="1" y2="105.344" gradientTransform="matrix(6.4777 0 0 -6.4777 9.744 739.63)"><stop offset="0" stop-color="#ce318f"/><stop offset="1" stop-color="#c93490"/></linearGradient><path clip-path="url(#SVGID_15_)" fill="url(#SVGID_16_)" d="M9.7 41.4h6.5v31.7H9.7z"/><defs><path id="SVGID_17_" d="M0 0h124.4v105.3H0z"/></defs><clipPath id="SVGID_18_"><use xlink:href="#SVGID_17_" overflow="visible"/></clipPath><path d="M11.8 74.1c.5-.3 1-.6 1.5-1l-3.5-1.4 2 2.4z" clip-path="url(#SVGID_18_)" fill="#b72f7e"/><path d="M6.7 74.9c.3 0 .5.1.8.1 1.5.1 3-.2 4.3-.9l-2-2.4-3.1 3.2z" clip-path="url(#SVGID_18_)" fill="#ae266d"/><path d="M16.2 41.4l.4-1.7c-.1-.6-.3-1.2-.4-1.8v3.5z" clip-path="url(#SVGID_18_)"/><defs><path id="SVGID_19_" d="M11.7 28.4l-2 43.3 6.5-30.3v-3.5c-.2-1.2-.3-2.4-.2-3.7 0-2.3.5-4.4 1.3-6.3l-5.6.5z"/></defs><clipPath id="SVGID_20_"><use xlink:href="#SVGID_19_" overflow="visible"/></clipPath><linearGradient id="SVGID_21_" gradientUnits="userSpaceOnUse" x1="0" y1="105.377" x2="1" y2="105.377" gradientTransform="matrix(-5.75 43.5 43.5 5.75 -4567.49 -578.3)"><stop offset="0" stop-color="#d43b92"/><stop offset="1" stop-color="#cb4094"/></linearGradient><path clip-path="url(#SVGID_20_)" fill="url(#SVGID_21_)" d="M22.9 28.6l-5.8 44.1L4 70.9l5.9-44z"/><defs><path id="SVGID_22_" d="M1.8 24.2l9.9 4.2.7-19.8c-5 4.3-8.6 9.5-10.6 15.6"/></defs><clipPath id="SVGID_23_"><use xlink:href="#SVGID_22_" overflow="visible"/></clipPath><linearGradient id="SVGID_24_" gradientUnits="userSpaceOnUse" x1="0" y1="105.251" x2="1" y2="105.251" gradientTransform="matrix(6.5 10.25 10.25 -6.5 -1072.725 701.023)"><stop offset="0" stop-color="#e35a95"/><stop offset="1" stop-color="#da4d97"/></linearGradient><path clip-path="url(#SVGID_23_)" fill="url(#SVGID_24_)" d="M9.4 3.8l12 19L4.9 33.2l-12-18.9z"/><defs><path id="SVGID_25_" d="M.5 30.3C0 33.8.1 37.4 0 40.9v8l11.7-20.5-9.9-4.2c-.6 2-1 4-1.3 6.1"/></defs><clipPath id="SVGID_26_"><use xlink:href="#SVGID_25_" overflow="visible"/></clipPath><linearGradient id="SVGID_27_" gradientUnits="userSpaceOnUse" x1="0" y1="105.397" x2="1" y2="105.397" gradientTransform="matrix(6 14.25 14.25 -6 -1500.585 658.144)"><stop offset="0" stop-color="#d74294"/><stop offset="1" stop-color="#ce4395"/></linearGradient><path clip-path="url(#SVGID_26_)" fill="url(#SVGID_27_)" d="M10 20l10.6 25.2-18.8 7.9L-8.8 28z"/><defs><path id="SVGID_28_" d="M32.9.4c-7 .4-13.4 2.7-18.9 7l-1.5 1.2-.7 19.8 5.5-.6c2.4-6.1 8-10.4 14-11.5L44.7 1.8C41.5.9 38.3.4 35 .4h-2.1"/></defs><clipPath id="SVGID_29_"><use xlink:href="#SVGID_28_" overflow="visible"/></clipPath><linearGradient id="SVGID_30_" gradientUnits="userSpaceOnUse" x1="0" y1="105.511" x2="1" y2="105.511" gradientTransform="scale(-31 31) rotate(37.8 153.212 50.978)"><stop offset="0" stop-color="#e35d9b"/><stop offset=".088" stop-color="#e35d9b"/><stop offset="1" stop-color="#df5b98"/></linearGradient><path clip-path="url(#SVGID_29_)" fill="url(#SVGID_30_)" d="M58.3 17.9L24.1 44.4l-26-33.5 34.2-26.5z"/><defs><path id="SVGID_31_" d="M16.2 41.4v24.5c0-.3 0-.7.1-1 .4.2.7.4 1 .6 3.1 1.8 6.4 3.1 9.7 3.9l-3-19c-3.5-2.4-6.2-6-7.4-10.6l-.4 1.6z"/></defs><clipPath id="SVGID_32_"><use xlink:href="#SVGID_31_" overflow="visible"/></clipPath><linearGradient id="SVGID_33_" gradientUnits="userSpaceOnUse" x1="0" y1="105.344" x2="1" y2="105.344" gradientTransform="matrix(-10.0125 0 0 10.0125 25.89 -1000.273)"><stop offset="0" stop-color="#5a378f"/><stop offset="1" stop-color="#542f6f"/></linearGradient><path clip-path="url(#SVGID_32_)" fill="url(#SVGID_33_)" d="M16.2 39.7H27v29.6H16.2z"/><defs><path id="SVGID_34_" d="M102.8 22.5c3.1 3.3 5 7.8 5 12.5v8.4l14.9 10.2 1.3-.5V35.3c0-2.1-.2-4.2-.5-6.3-1.1-6.7-4.2-12.8-8.6-17.6l-12.1 11.1z"/></defs><clipPath id="SVGID_35_"><use xlink:href="#SVGID_34_" overflow="visible"/></clipPath><linearGradient id="SVGID_36_" gradientUnits="userSpaceOnUse" x1="0" y1="105.344" x2="1" y2="105.344" gradientTransform="matrix(21.191 0 0 -21.191 102.787 2264.887)"><stop offset="0" stop-color="#8f3895"/><stop offset="1" stop-color="#823f98"/></linearGradient><path clip-path="url(#SVGID_35_)" fill="url(#SVGID_36_)" d="M102.8 11.4H124v42.2h-21.2z"/><defs><path id="SVGID_37_" d="M107.8 54.4v3l14.9-3.7-14.9-10.2v10.9"/></defs><clipPath id="SVGID_38_"><use xlink:href="#SVGID_37_" overflow="visible"/></clipPath><linearGradient id="SVGID_39_" gradientUnits="userSpaceOnUse" x1="0" y1="105.344" x2="1" y2="105.344" gradientTransform="matrix(14.8813 0 0 -14.8813 107.759 1618.043)"><stop offset="0" stop-color="#874a9d"/><stop offset=".288" stop-color="#874a9d"/><stop offset="1" stop-color="#854e9f"/></linearGradient><path clip-path="url(#SVGID_38_)" fill="url(#SVGID_39_)" d="M107.8 43.4h14.9v13.9h-14.9z"/><defs><path id="SVGID_40_" d="M0 0h124.4v105.3H0z"/></defs><clipPath id="SVGID_41_"><use xlink:href="#SVGID_40_" overflow="visible"/></clipPath><path d="M122.6 53.7l-14.9 3.7v1.3l14.9-5z" clip-path="url(#SVGID_41_)" fill="#88499c"/><defs><path id="SVGID_42_" d="M62.6 12c-.3.3-.4.7-.5.9l-.1-.1c3.2 4.3 8.7 13.7 7.8 25.8.1-1.1.2-2.2.2-3.3 0-6.4 3-11.9 7.6-15.3L65.5 9.1c-1 .9-2 1.9-2.9 2.9"/></defs><clipPath id="SVGID_43_"><use xlink:href="#SVGID_42_" overflow="visible"/></clipPath><linearGradient id="SVGID_44_" gradientUnits="userSpaceOnUse" x1="0" y1="105.389" x2="1" y2="105.389" gradientTransform="matrix(11.75 3 3 -11.75 -255.715 1259.794)"><stop offset="0" stop-color="#5c388c"/><stop offset="1" stop-color="#763a8b"/></linearGradient><path clip-path="url(#SVGID_43_)" fill="url(#SVGID_44_)" d="M63 5.4l21.7 5.5-8 31.5-21.8-5.6z"/><defs><path id="SVGID_45_" d="M65.5 9.1L77.6 20c2.9-2.1 6.4-3.4 10.3-3.6L83.4.4c-6.7 1-12.8 3.9-17.9 8.7"/></defs><clipPath id="SVGID_46_"><use xlink:href="#SVGID_45_" overflow="visible"/></clipPath><linearGradient id="SVGID_47_" gradientUnits="userSpaceOnUse" x1="0" y1="105.384" x2="1" y2="105.384" gradientTransform="scale(15.0157 -15.0157) rotate(8.939 681.182 82.456)"><stop offset="0" stop-color="#76368c"/><stop offset=".02" stop-color="#76368c"/><stop offset="1" stop-color="#8e3694"/></linearGradient><path clip-path="url(#SVGID_46_)" fill="url(#SVGID_47_)" d="M62.5.9L87.4-3l3.5 22.6L66 23.5z"/><defs><path id="SVGID_48_" d="M83.5.4l4.5 16c1.2-.1 2.5 0 3.8.2 1.7.2 3.4.7 5 1.4l5-15.7C98 .9 94 .1 89.9 0h-.8c-1.9 0-3.8.1-5.6.4"/></defs><clipPath id="SVGID_49_"><use xlink:href="#SVGID_48_" overflow="visible"/></clipPath><linearGradient id="SVGID_50_" gradientUnits="userSpaceOnUse" x1="0" y1="105.344" x2="1" y2="105.344" gradientTransform="matrix(18.2178 0 0 -18.2178 83.462 1928.175)"><stop offset="0" stop-color="#8c2f92"/><stop offset=".098" stop-color="#8c2f92"/><stop offset="1" stop-color="#8e3493"/></linearGradient><path clip-path="url(#SVGID_49_)" fill="url(#SVGID_50_)" d="M83.5 0h18.2v18.1H83.5z"/><defs><path id="SVGID_51_" d="M96.7 18.1c2.3 1.1 4.4 2.6 6.1 4.4l12-11.1c-3.6-4-8.1-7.1-13.2-9.1l-4.9 15.8z"/></defs><clipPath id="SVGID_52_"><use xlink:href="#SVGID_51_" overflow="visible"/></clipPath><linearGradient id="SVGID_53_" gradientUnits="userSpaceOnUse" x1="0" y1="105.344" x2="1" y2="105.344" gradientTransform="matrix(18.1803 0 0 -18.1803 96.655 1927.624)"><stop offset="0" stop-color="#924098"/><stop offset=".19" stop-color="#924098"/><stop offset="1" stop-color="#913e97"/><stop offset="1" stop-color="#8e3494"/></linearGradient><path clip-path="url(#SVGID_52_)" fill="url(#SVGID_53_)" d="M96.7 2.4h18.2v20.2H96.7z"/><defs><path id="SVGID_54_" d="M121.1 73.3c1.8-1.5 2.9-3.8 2.9-6.5V54.9l-1.3-1.2-1.6 19.6z"/></defs><clipPath id="SVGID_55_"><use xlink:href="#SVGID_54_" overflow="visible"/></clipPath><linearGradient id="SVGID_56_" gradientUnits="userSpaceOnUse" x1="0" y1="105.344" x2="1" y2="105.344" gradientTransform="matrix(2.8662 0 0 -2.8662 121.111 365.41)"><stop offset="0" stop-color="#723c97"/><stop offset="1" stop-color="#663b96"/></linearGradient><path clip-path="url(#SVGID_55_)" fill="url(#SVGID_56_)" d="M121.1 53.7h2.9v19.6h-2.9z"/><defs><path id="SVGID_57_" d="M107.8 58.7v8.4c.1 5.3 4.7 9 9.8 7.9 1.3-.3 2.5-.9 3.5-1.7l1.5-19.6-14.8 5z"/></defs><clipPath id="SVGID_58_"><use xlink:href="#SVGID_57_" overflow="visible"/></clipPath><linearGradient id="SVGID_59_" gradientUnits="userSpaceOnUse" x1="0" y1="105.367" x2="1" y2="105.367" gradientTransform="matrix(13 -10.8333 -10.8333 -13 1250.09 1440.104)"><stop offset="0" stop-color="#743594"/><stop offset=".995" stop-color="#6a3694"/><stop offset="1" stop-color="#6a3694"/></linearGradient><path clip-path="url(#SVGID_58_)" fill="url(#SVGID_59_)" d="M96.7 62.8l19.8-16.5 17.2 20.6-19.9 16.5z"/><defs><path id="SVGID_60_" d="M0 0h124.4v105.3H0z"/></defs><clipPath id="SVGID_61_"><use xlink:href="#SVGID_60_" overflow="visible"/></clipPath><path d="M124 54.9v-1.7l-1.3.5 1.3 1.2z" clip-path="url(#SVGID_61_)" fill="#8250a0"/><defs><path id="SVGID_62_" d="M53.5 34.9c0 1.7-.3 3.4-.7 4.9L58.6 61c6.2-5.7 10.3-13.6 11.2-22.4.3-3.8 0-7.3-.7-10.5l-19.2-4.4c2.2 3.1 3.6 7 3.6 11.2"/></defs><clipPath id="SVGID_63_"><use xlink:href="#SVGID_62_" overflow="visible"/></clipPath><linearGradient id="SVGID_64_" gradientUnits="userSpaceOnUse" x1="0" y1="105.351" x2="1" y2="105.351" gradientTransform="scale(-32.1684 32.1684) rotate(89.406 51.896 52.12)"><stop offset="0" stop-color="#ad3f97"/><stop offset="1" stop-color="#862d91"/></linearGradient><path clip-path="url(#SVGID_63_)" fill="url(#SVGID_64_)" d="M70.5 23.7l-.4 37.5-20.6-.2.3-37.5z"/><defs><path id="SVGID_65_" d="M31.3 16.4c1.2-.2 2.3-.3 3.5-.3 6-.2 11.6 2.8 15.1 7.6L69 28.1c-1.5-7-4.8-12.3-7-15.3-6.3-5.7-12.2-9.2-14.1-10-1.1-.4-2.1-.8-3.2-1.1L31.3 16.4z"/></defs><clipPath id="SVGID_66_"><use xlink:href="#SVGID_65_" overflow="visible"/></clipPath><linearGradient id="SVGID_67_" gradientUnits="userSpaceOnUse" x1="0" y1="105.432" x2="1" y2="105.432" gradientTransform="scale(30.79 -30.79) rotate(-55.92 -98.709 51.39)"><stop offset="0" stop-color="#e162a0"/><stop offset=".044" stop-color="#e162a0"/><stop offset="1" stop-color="#ab4198"/></linearGradient><path clip-path="url(#SVGID_66_)" fill="url(#SVGID_67_)" d="M57.2-15.8l24.1 35.6-38.2 25.9L19 10z"/></svg>