<svg width="490" height="879" fill="none" xmlns="http://www.w3.org/2000/svg"><path d="M141.362 807.283l-18.611 42.753-30.342-15.407 18.516-41.943 30.437 14.597z" fill="#FCC9A7"/><path d="M132.966 847.513c0-2.568-2.308-4.234-4.617-3.288-4.523 1.847-11.967 3.423-20.872-.406-9.235-3.964-10.931-10.497-10.978-14.777 0-2.252-1.696-3.964-3.816-3.649l-67.705 9.326c-4.1.585-7.963 2.838-10.696 6.352-2.59 3.289-1.366 8.064 2.262 9.145l101.063 29.374c3.957 1.171 8.292-1.577 9.47-5.992l5.701-21.625c.094-.36.141-.72.141-1.081l.047-3.379z" fill="#1F252A"/><path d="M415.711 703.575l42.404 22.346-19.271 27.165-41.602-22.165 18.469-27.346z" fill="#FCC9A7"/><path d="M456.606 715.919c-2.686-.27-4.665 1.757-3.958 4.01 1.413 4.46 2.261 11.758-2.686 19.777-5.135 8.335-12.108 9.281-16.584 8.785-2.356-.225-4.288 1.172-4.241 3.199l2.309 65.369c.141 3.964 2.073 7.884 5.418 10.857 3.11 2.793 8.245 2.208 9.753-1.171l41.508-92.85c1.649-3.649-.754-8.064-5.183-9.641l-21.86-7.794a5.164 5.164 0 00-1.131-.27l-3.345-.271z" fill="#1F252A"/><path d="M163.781 394.256l16.349 100.283 82.64 142.045 142.289 118.305 33.169-56.089-112.841-100.644-66.197-202.188-95.409-1.712z" fill="#092330"/><path d="M298.069 388.534s16.443 29.734-9.093 77.217L209.68 610.455l-60.449 219.308-60.025-20.047 43.111-221.787 76.421-173.085-44.948-20.588 134.279-5.722z" fill="#0C2C40"/><path d="M125.193 106.38c10.46 10.947 28.222 11.713 39.624 1.757 11.449-10.002 12.25-26.986 1.838-37.933-10.46-10.947-28.175-11.713-39.671-1.757-11.45 10.046-12.25 26.986-1.791 37.933z" fill="#FCC9A7"/><path d="M102.77 120.165l24.406-28.112 19.459 18.696-22.898 26.806-20.967-17.39z" fill="#FCC9A7"/><path d="M157.848 54.346L135.468 83c-2.921 3.74-2.827 8.92.236 12.524l18.139 21.399c4.24 5.001 12.156 5.046 16.443.135l25.301-28.787c3.487-3.965 3.298-9.821-.424-13.606L174.103 53.4c-4.523-4.55-12.298-4.144-16.255.946z" fill="#1C2226"/><path d="M180.98 155.35l-88.718 42.574 48.717-71.857-32.133-26.58L7.266 232.568c-9.235 11.443-5.654 28.112 7.585 35.095 6.738 3.559 14.842 3.919 21.909.946l131.546-49.962 12.674-63.297z" fill="#F7ECE7"/><path d="M149.223 196.212s15.69 117.628 14.559 198.044c0 0 47.068 19.822 146.859-9.145l-24.689-218.723-48.057-15.453-56.916 4.415-31.756 40.862z" fill="#F7ECE7"/><path d="M197.097 143.907l1.225 7.659a1.732 1.732 0 01-.518 1.532l-12.298 12.478c-1.13 1.127-3.109.496-3.298-1.035l-1.272-9.191c-.094-.585.142-1.171.613-1.576l12.297-10.948c1.178-.991 3.062-.406 3.251 1.081z" fill="#FCF3F0"/><path d="M213.537 163.684c14.606-1.126 25.49-13.425 24.312-27.391l-3.534-40.906-52.957 4.145 10.93 56.539c1.744 7.208 6.596 8.74 21.249 7.613z" fill="#FCC9A7"/><path d="M236.095 109.714s-11.402 30.995-34.535 27.165c-21.249-3.514-20.213-37.346-20.213-37.346l54.748 10.181z" fill="#F4BE9A"/><path d="M205.244 125.617l4.711-.496c23.464-2.433 40.472-22.615 37.928-45.05l-2.874-25.59c-2.544-22.435-23.652-38.699-47.115-36.266l-4.712.496c-23.463 2.433-40.472 22.615-37.928 45.051l2.874 25.589c2.544 22.48 23.652 38.698 47.116 36.266z" fill="#FCC9A7"/><path d="M205.244 125.617l4.711-.496c23.464-2.433 40.472-22.615 37.928-45.05l-2.874-25.59c-2.544-22.435-23.652-38.699-47.115-36.266l-4.712.496c-23.463 2.433-40.472 22.615-37.928 45.051l2.874 25.589c2.544 22.48 23.652 38.698 47.116 36.266z" fill="#FCC9A7"/><path d="M246.938 71.96c-3.204-.315-16.631 9.416-20.118 5.181-4.806-5.856-9.187-16.533-2.968-27.616 1.037-1.847 1.32-4.01.66-6.037-1.225-3.649-4.523-7.884-13.616-4.82-14.559 4.91-47.305 20.678-56.775-1.892-11.967-28.428 82.17-20.499 82.17-20.499l21.437 29.644-9.188 42.258-1.602-16.219z" fill="#1C2226"/><path d="M233.843 76.24c.895 8.02 8.434 13.831 16.82 12.93 8.387-.856 14.465-8.064 13.522-16.083-.895-8.019-8.433-13.83-16.82-12.93-8.386.902-14.417 8.065-13.522 16.084z" fill="#FCC9A7"/><path d="M208.727 172.38l12.014 177.095-22.38 20.093-13.286-19.462 13.286-181.24 10.366 3.514z" fill="#0C2C40"/><path d="M190.817 160.171l1.838-2.433-.471-2.117h26.478l2.074 6.622-17.622 14.867-12.297-16.939z" fill="#0C2C40"/><path d="M236.15 133.905l-25.065 16.309c-2.827 1.847-3.204 5.722-.754 8.019l19.694 18.516c2.215 2.072 5.843 1.982 7.916-.27l19.835-21.31c1.932-2.072 1.838-5.27-.235-7.207l-14.512-13.561c-1.837-1.667-4.711-1.892-6.879-.496z" fill="#FCF3F0"/><path d="M129.949 142.331l-37.503-21.625" stroke="#EADDD8" stroke-width=".76" stroke-miterlimit="10" stroke-linecap="round" stroke-linejoin="round"/><path d="M198.269 312.172L185.124 446.56c-.518 5.045 3.11 9.64 8.34 10.631l161.181 29.464c5.937 1.081 11.544-2.884 12.203-8.605l14.747-127.719c.566-4.956-2.826-9.551-7.915-10.722l-162.784-36.086c-6.077-1.397-12.014 2.703-12.627 8.649z" fill="#AFAFAF"/><path d="M209.71 314.56l-13.146 134.387c-.471 5.046 3.11 9.641 8.34 10.632l161.182 29.463c5.936 1.082 11.543-2.883 12.202-8.604l14.748-127.72c.565-4.955-2.827-9.55-7.916-10.722l-162.783-36.131c-6.125-1.351-12.062 2.748-12.627 8.695z" fill="#D1D1D1"/><path d="M270.539 438.225c-12.957-11.353-33.122-10.497-44.995 1.892-11.873 12.389-10.978 31.671 1.979 43.024 12.956 11.352 33.122 10.497 44.995-1.893 11.873-12.434 10.978-31.67-1.979-43.023z" fill="#FCC9A7"/><path d="M294.431 420.475l-24.595 34.148-23.934-19.281 22.992-32.482 25.537 17.615z" fill="#FCC9A7"/><path d="M286.001 166.387s36.043 3.469 46.503 59.828l41.461 82.353a55.646 55.646 0 012.262 10.993l-87.211 119.791-39.341-22.301 70.532-108.122-42.828-64.829 8.622-77.713z" fill="#F7ECE7"/><path d="M262.484 400.878l39.718 20.363m-3.85-145.379l-25.396-42.258" stroke="#EADDD8" stroke-width=".76" stroke-miterlimit="10" stroke-linecap="round" stroke-linejoin="round"/><path d="M163.823 46.822c-17.998-7.794-14.229-27.886-10.13-34.238 0 0 .801 11.307 8.857 8.694 0 0-1.083-16.849 22.522-21.219 0 0-8.717 15.138 22.332 12.254 38.117-3.559 40.331 19.507 38.211 48.16l-11.685-8.02-9.046-19.957h-30.86l-30.201 14.326z" fill="#1C2226"/></svg>