<svg width="612" height="573" fill="none" xmlns="http://www.w3.org/2000/svg"><g clip-path="url(#clip0_111_100)"><path d="M363.198 273.254v292.474M575.04 273.254v292.474" stroke="#2A272D" stroke-width="1.988" stroke-miterlimit="10"/><path d="M237.95 363.581s40.649-9.203 46.769 17.224c5.286 22.677-50.003 21.809-50.003 21.809l-121.565.729s-45.796 5.279-68.433-47.472C22.081 303.119.278 164.974.278 164.974S-2.99 145.979 12.867 143.2c18.639-3.264 22.29 36.95 22.29 36.95s28.166 170.512 69.058 178.847c6.294 1.285 11.301 6.042 17.734 5.973l116.002-1.389z" fill="#FFEEE3"/><path d="M345.988 225.851l38.39-2.639c3.129-.209 6.12 1.215 7.893 3.75l21.455 32.401-18.256.868-10.293-15.801s-29.661 7.397-40.615 0l1.426-18.579z" fill="#F2C09E"/><path d="M191.354 120.871l51.289 95.187 106.58 3.403v35.006l-112.56 4.931a42.789 42.789 0 01-37.346-18.788l-51.221-91.853 43.258-27.886z" fill="#EFC375"/><path d="M349.229 219.427v35.005l-11.893.521v-35.908l11.893.382z" fill="#F7E5DA"/><path d="M293.395 501.587l6.016 42.089 30.321-1.875-4.346-43.444-31.991 3.23z" fill="#FCC9A7"/><path d="M292.624 539.405c.66-1.98 3.025-2.778 4.729-1.563 3.338 2.362 9.215 5.174 17.665 4.098 8.797-1.111 11.891-5.8 12.969-9.099.557-1.736 2.435-2.674 4.139-2.014l54.661 21.392c3.339 1.285 5.981 3.855 7.407 7.119 1.321 3.056-.869 6.494-4.242 6.564l-92.565 1.354c-3.651.069-6.572-2.952-6.433-6.598l.661-17.85c0-.312.07-.59.174-.868l.835-2.535z" fill="#1F252A"/><path d="M201.282 112.71l8.693 13.926c.556 1.319.8 4.514-1.6 5.695l-3.372 2.431-7.233-11.043 3.512-11.009z" fill="#FFEEE3"/><path d="M185.077 127.434l-2.747-1.32c-9.041-4.41-12.797-15.315-8.381-24.344l29.348-60.008 32.583 15.905-33.904 67.197c-3.616 7.466-9.423 6.216-16.899 2.57z" fill="#FCC9A7"/><path d="M260.182 69.51c-9.562 19.516-33.173 27.642-52.715 18.092-19.543-9.55-27.679-33.095-18.117-52.647 9.563-19.516 33.138-27.642 52.716-18.092 19.577 9.55 27.679 33.13 18.116 52.646z" fill="#FCC9A7"/><path d="M212.605 108.334c-9.284-4.515-13.144-15.732-8.589-25.004l16.552-33.859 39.919 19.482-13.491 27.608c-6.26 12.71-21.664 18.024-34.391 11.773z" fill="#FCC9A7"/><path d="M255.309 76.906l2.157 15.141c.173 2.397-2.365 3.96-4.591 2.883l-9.806-2.674 12.24-15.35z" fill="#FCC9A7"/><path d="M220.753 69.335s13.805.903 16.065-20.384c0 0 23.993 15.28 33.764 9.202 0 0 2.991-60.217-46.839-58.098-49.829 2.118-53.723 55.841-53.723 55.841l27.957 25.212 22.776-11.773z" fill="#1C2226"/><path d="M222.737 70.204c-2.608 5.383-9.111 7.605-14.501 4.966-5.355-2.64-7.615-9.099-4.972-14.481 2.608-5.383 9.11-7.606 14.5-4.966a10.858 10.858 0 014.973 14.481z" fill="#FCC9A7"/><path d="M192.3 62.217l-7.407 17.26s16.274 13.022 24.48-3.751l-11.822-3.334-5.251-10.175zm44.508-13.267s32.512 25.074 45.343 4.064c10.224-16.773-1.147-27.643-17.56-24.934-7.093 1.18-10.605-3.612-16.169-7.397L236.808 48.95z" fill="#1C2226"/><path d="M207.604 143.165s-.73-15.314-5.598-20.628c-4.869-5.313-30.809-19.968-30.809-19.968s-37.311 10.8-60.226 53.376c-17.839 33.164-34.634 117.1-34.634 117.1l107.656 15.593c9.285-62.717 26.671-91.298 23.611-145.473z" fill="#FFD686"/><path d="M173.01 99.618l-4.486 2.014c-1.599.729-1.947 2.883-.626 4.063l28.444 25.282c1.148 1.042 2.956.729 3.756-.591l3.199-5.521a2.461 2.461 0 00-.591-3.126L175.513 100a2.293 2.293 0 00-2.503-.382z" fill="#FFEEE3"/><path d="M334.13 231.547l38.39-2.64c3.13-.208 6.12 1.216 7.894 3.751l19.681 27.955-18.395 2.362-8.38-12.884s-29.662 7.397-40.616 0l1.426-18.544z" fill="#FCC9A7"/><path d="M169.553 127.955l57.931 97.618 109.882 3.022v31.567l-118.575 5.174a32.122 32.122 0 01-27.992-14.064l-64.503-95.431 43.257-27.886z" fill="#FFD686"/><path d="M337.371 228.595v31.532l-11.893.521v-32.053h11.893z" fill="#FFEEE3"/><path d="M76.331 273.046l211.766 30.664c16.204 2.361 28.722 15.453 30.287 31.741l15.787 180.131-47.291 3.056-22.741-156.134-132.972 3.438c-36.094 0-63.773-32.019-58.522-67.684l3.686-25.212z" fill="#54585A"/><path d="M451.663 259.398H339.971v7.223h111.692v-7.223z" fill="#2A272D"/><path d="M451.691 266.621l36.129-105.397-7.581-1.806-35.433 101.23 6.885 5.973z" fill="#2A272D"/><path d="M210.835 107.362s-10.05-5.939-10.05-18.44c0 0-6.259 13.543 6.503 25.455l3.547-7.015z" fill="#F2C09E"/><path d="M45.968 572.535c1.67 0 3.2-1.146 3.652-2.848l55.288-217.705a40.611 40.611 0 0139.398-30.631c18.082 0 34.147 12.12 39.084 29.485 19.334 68.03 64.33 216.455 64.782 217.948.591 1.98 2.712 3.126 4.694 2.5 1.982-.59 3.13-2.708 2.504-4.688-.452-1.493-45.448-149.848-64.747-217.809-5.842-20.594-24.897-34.972-46.352-34.972-22.081 0-41.275 14.933-46.7 36.291L42.283 567.847a3.762 3.762 0 002.712 4.583c.348.07.66.105.974.105z" fill="#1F252A"/><path d="M190.84 251.237l-33.208-49.069" stroke="#EFC375" stroke-width=".785" stroke-miterlimit="10" stroke-linecap="round" stroke-linejoin="round"/><path d="M611.617 266.621H322.273v13.022h289.344v-13.022z" fill="#FFEEE3"/><path d="M363.198 311.28h211.835" stroke="#2A272D" stroke-width="1.988" stroke-miterlimit="10"/><path d="M210.312 194.215l-31.817-51.223" stroke="#EFC375" stroke-width=".785" stroke-miterlimit="10" stroke-linecap="round" stroke-linejoin="round"/></g><defs><clipPath id="clip0_111_100"><path fill="#fff" d="M0 0h612v573H0z"/></clipPath></defs></svg>