<svg width="366" height="794" fill="none" xmlns="http://www.w3.org/2000/svg"><g clip-path="url(#clip0_104_145)"><path d="M117.358 354.162c10.896-6.553 25.073-3.067 31.636 7.856 6.563 10.881 3.071 25.039-7.867 31.592-10.896 6.554-25.073 3.067-31.636-7.856-6.563-10.839-3.029-24.996 7.867-31.592z" fill="#FCC9A7"/><path d="M143.476 355.801c-.757-.588-41.227-48.06-41.227-48.06l-16.533 19.997 36.515 46.17 21.245-18.107zm-34.119 370.112l-10.307 47.01-32.561-4.873 10.517-46.38 32.351 4.243zm145.97-4.201l.379 48.145-32.771 2.436-.084-47.556 32.476-3.025z" fill="#FCC9A7"/><path d="M103.168 765.277c-.673-1.974-3.071-2.814-4.796-1.554-3.366 2.437-9.297 5.293-17.88 4.285-8.918-1.05-12.115-5.755-13.209-9.116-.589-1.765-2.482-2.689-4.207-2.017L7.84 778.973c-3.366 1.344-6.058 3.949-7.447 7.268-1.346 3.108.926 6.595 4.334 6.595l93.855.672a6.407 6.407 0 006.479-6.721l-.799-18.107c0-.294-.085-.588-.169-.882l-.925-2.521zm116.439 0c.673-1.974 3.113-2.814 4.796-1.554 3.365 2.437 9.297 5.293 17.879 4.285 8.919-1.05 12.074-5.755 13.21-9.116.589-1.765 2.482-2.689 4.206-2.017l55.237 22.098c3.366 1.344 6.058 3.949 7.446 7.268 1.346 3.108-.925 6.595-4.333 6.595l-93.856.672a6.406 6.406 0 01-6.478-6.721l.799-18.107c0-.294.084-.588.168-.882l.926-2.521z" fill="#0C0C0C"/><path d="M219.19 118.148l-29.154 2.52-46.361 26.089v185.519h123.726V146.757l-48.211-28.609z" fill="#54585A"/><path d="M211.204 136.842h-8.371c-8.666 0-15.692-7.015-15.692-15.67V89.749h39.713v31.423c.043 8.655-6.983 15.67-15.65 15.67z" fill="#FCC9A7"/><path d="M187.141 105.755s6.184 12.393 20.236 12.393c14.051 0 19.477-12.646 19.477-12.646l-39.713.253z" fill="#F4BE9A"/><path d="M207.46 110.88h-1.304c-20.235 0-36.895-15.964-37.694-36.171l-.715-20.123c-.841-21.384 16.28-39.154 37.693-39.154h2.735c16.196 0 38.535 17.77 37.694 39.154l-.716 20.123c-.799 20.207-17.458 36.171-37.693 36.171z" fill="#FCC9A7"/><path d="M180.024 69.835c.463 6.806-4.669 12.687-11.484 13.15-6.816.461-12.705-4.664-13.168-11.47-.463-6.805 4.67-12.687 11.485-13.149 6.815-.42 12.705 4.705 13.167 11.469zm78.173 0c.463 6.806-4.67 12.687-11.485 13.15-6.815.461-12.705-4.664-13.167-11.47-.463-6.805 4.669-12.687 11.484-13.149 6.816-.42 12.705 4.705 13.168 11.469z" fill="#FCC9A7"/><path d="M143.679 331.393L66.735 739.861l44.215-.42 112.492-407.249-79.763-.799z" fill="#0C0C0C"/><path d="M267.411 332.276l-4.838 408.005h-46.738l-18.637-405.443 70.213-2.562z" fill="#0C0C0C"/><path d="M143.674 146.756S40.353 209.016 15.238 252.203c-4.922 8.444 1.472 19.366 10.138 23.862 9.592 4.999 21.413 1.596 26.924-7.688l95.581-55.37c.042 0-4.207-47.556-4.207-66.251z" fill="#54585A"/><path d="M165.604 31.732l2.904 30.92h4.669l.589-16.217s2.44-6.217 13.336-19.577c0 0 7.109 18.149 51.155 14.62l2.567 20.501 4.543-.504 2.398-22.014c1.599-7.435 2.146-14.367.799-21.845-2.734-15.124-15.06-23.484-50.651-12.813-2.944.882 3.071.294 0 0-10.18-1.135-37.02-1.26-32.309 26.928z" fill="#2E2A33"/><path d="M218.009 329.335l-10.012 106.958a7.834 7.834 0 006.352 8.444l122.842 23.442c4.501.882 8.793-2.311 9.297-6.848l11.232-101.665a7.893 7.893 0 00-6.058-8.528l-124.061-28.735c-4.628-1.092-9.129 2.185-9.592 6.932z" fill="#AFAFAF"/><path d="M224.829 331.225l-10.012 106.958a7.833 7.833 0 006.352 8.444l122.842 23.442c4.501.84 8.792-2.311 9.297-6.848l11.232-101.664a7.892 7.892 0 00-6.058-8.528l-124.061-28.735c-4.586-1.093-9.13 2.184-9.592 6.931z" fill="#D1D1D1"/><path d="M288.779 440.41c12.2 3.612 19.183 16.426 15.565 28.609-3.618 12.183-16.449 19.157-28.649 15.586-12.2-3.613-19.184-16.426-15.608-28.61 3.66-12.225 16.45-19.198 28.692-15.585z" fill="#FCC9A7"/><path d="M305.22 460.743c-.084-.967-4.039-65.074-4.039-65.074l-21.833 3.949 2.902 54.655 22.97 6.47z" fill="#FCC9A7"/><path d="M267.397 146.756s33.066 23.652 35.17 57.344l10.348 78.77c.589 4.621.842 9.243.674 13.906l-3.997 119.814H264.2l-.842-129.687 4.039-140.147z" fill="#54585A"/><path d="M193.531 118.148c-3.534 2.562-20.572 12.141-20.572 12.141s.463 23.946 36.558 22.013c31.762-1.68 31.552-21.131 31.552-21.131l-21.918-13.023h-25.62z" fill="#FCC9A7"/><path d="M66.15 236.659l61.757 98.557-29.28 27.685-83.213-97.002 50.736-29.24z" fill="#54585A"/><path d="M263.319 330.973v-44.111l-10.265-80.45" stroke="#424647" stroke-width=".769" stroke-miterlimit="10" stroke-linecap="round" stroke-linejoin="round"/></g><defs><clipPath id="clip0_104_145"><path fill="#fff" d="M0 0h366v794H0z"/></clipPath></defs></svg>