<svg width="544" height="884" fill="none" xmlns="http://www.w3.org/2000/svg"><path opacity=".4" d="M636.114 579.323l-122.74-.143a207.851 207.851 0 00-.573-7.024h48.146a8.777 8.777 0 006.205-14.987 8.77 8.77 0 00-6.205-2.572h-50.749c-2.472-12.076-6.4-23.364-12.442-32.931a64.917 64.917 0 00-48.612-30.006c-18.257-1.971-36.515 2.652-54.45 7.645-23.882 6.653-52.002 12.638-69.985-9.496-10.64-13.139-14.867-34.556-11.034-53.238a139.514 139.514 0 013.75-13.558l63.227.072c2.327 0 4.56-.924 6.205-2.572a8.777 8.777 0 00-6.205-14.987l-58.594-.071c.444-2.701.664-5.434.657-8.171a45.098 45.098 0 00-4.552-19.004 45.084 45.084 0 00-12.166-15.289c-9.206-7.167-19.977-9.771-30.544-11.658-23.655-4.193-48.062-5.459-71.12 2.604-21.816-23.567-52.54-31.547-79.299-20.462a51.824 51.824 0 00-19.905 14.083h52.3a8.527 8.527 0 015.822 14.439 8.519 8.519 0 01-5.822 2.606l-61.4-.071c-3.952 12.816-3.928 27.748-3.76 41.866l.059 4.778h24.682a8.822 8.822 0 016.238 2.58 8.827 8.827 0 01.008 12.474 8.804 8.804 0 01-6.234 2.589H92.591c.04 3.185.083 6.37.131 9.556l57.376.059a8.777 8.777 0 016.205 14.987 8.767 8.767 0 01-6.205 2.572l-57.125-.06c0 2.031 0 4.05.083 6.068.192 14.25.335 28.871-3.39 42.237-11.488 41.114-51.991 50.957-73.915 83.47l92.076-.023a8.78 8.78 0 010 17.558l-101.043-.119a99.332 99.332 0 00-2.185 6.522l65.137.072a8.781 8.781 0 010 17.558l-68.78-.071a117.977 117.977 0 006.532 55.961c14.843 38.797 49.388 58.53 81.903 57.921 32.514-.61 63.501-17.918 92.672-37.292 22.019-14.597 45.089-30.913 69.604-28.524 25.004 2.389 46.39 23.65 68.994 38.151 36.813 23.603 79.729 29.671 119.408 16.878 17.553-5.661 34.939-15.277 47.764-32.251 12.49-16.603 19.654-38.498 23.153-61.754h33.602a8.527 8.527 0 006.185-14.329 8.517 8.517 0 00-5.803-2.716h-32.014c.645-7.848.944-15.756.968-23.544v-1.027l122.178.143a8.766 8.766 0 006.206-2.571 8.783 8.783 0 00-2.847-14.319 8.76 8.76 0 00-3.359-.668l.012.059z" fill="url(#paint0_linear_117_63)"/><path d="M123.458 724.13L28.791 880.213a10.753 10.753 0 007.976 16.317l62.75 7.346 67.405-67.285-41.04-112.473" fill="#ECF2FA"/><path d="M35.981 906.229l58.128.071 67.419-67.285-6.687-18.323-67.98 70.57-61.52-.06 10.64 15.027z" fill="#8BBACC"/><path d="M91.085 907.387h-48.36A20.162 20.162 0 0125.15 897.11a20.182 20.182 0 01.33-20.361l93.438-154.446a3.507 3.507 0 014.215-1.482 3.51 3.51 0 014.502 2.091l41.793 114.586-64.075 63.989a20.03 20.03 0 01-14.27 5.9zm31.571-177.679L31.512 880.332a13.146 13.146 0 004.602 18.167 13.14 13.14 0 006.634 1.793h48.36a13.065 13.065 0 009.303-3.846l60.898-60.823-38.653-105.915z" fill="#274B5B"/><g opacity=".4" fill="#426270"><path opacity=".4" d="M64.58 843.124c3.128-5.064 5.313-9.352 5.576-9.233.263.12-1.564 4.647-4.776 9.747-3.212 5.101-6.377 8.791-6.58 8.612-.203-.179 2.675-4.061 5.78-9.126zm4.788 3.03c2.009-3.411 3.443-6.289 3.204-6.43-.238-.141-2.06 2.509-4.068 5.921-2.008 3.41-3.443 6.289-3.204 6.43.239.139 2.06-2.511 4.068-5.921z"/><path opacity=".4" d="M65.678 846.529c4.562 1.851 8.359 3.07 8.359 3.344 0 .275-4.048-.537-8.681-2.389-4.633-1.851-8.06-4.061-7.929-4.3.131-.239 3.666 1.517 8.251 3.345zm4.276-1.231c4.12 1.935 7.642 3.13 7.558 3.405-.083.274-3.773-.514-7.976-2.497-4.204-1.983-7.165-4.3-7.034-4.515.132-.215 3.32 1.696 7.452 3.607z"/></g><path d="M143.972 775.407L58.202 903.04l1.299.873L145.27 776.28l-1.298-.873z" fill="#274B5B"/><path opacity=".2" d="M142.348 774.335L56.579 901.968l1.298.873 85.769-127.632-1.298-.874zm3.223 2.149L59.802 904.117l1.298.873 85.77-127.633-1.299-.873z" fill="#274B5B"/><path d="M152.545 775.41l-85.77 127.633 1.299.873 85.768-127.632-1.297-.874z" fill="#274B5B"/><path opacity=".2" d="M150.931 774.334l-85.77 127.632 1.299.873 85.769-127.632-1.298-.873zm3.218 2.171L68.38 904.137l1.298.872 85.769-127.631-1.298-.873z" fill="#274B5B"/><path d="M428.954 724.477l94.941 157.337a9.999 9.999 0 01-7.427 15.098l-63.991 7.31-67.263-67.381 41.304-112.376" fill="#ECF2FA"/><path d="M515.225 906.766l-58.14-.059-67.263-67.429 6.735-18.311 67.812 70.725 61.519.072-10.663 15.002z" fill="#8BBACC"/><path d="M508.465 907.806h-48.36a20.04 20.04 0 01-14.257-5.973l-63.956-64.132 42.08-114.479a3.506 3.506 0 011.822-1.969 3.503 3.503 0 012.68-.109 3.513 3.513 0 014.215 1.493l93.079 154.602a20.18 20.18 0 01-7.136 27.825 20.177 20.177 0 01-10.167 2.742zM390.024 835.91l60.803 60.918a13.05 13.05 0 009.29 3.87h48.36a13.128 13.128 0 0011.473-6.665 13.132 13.132 0 00-.189-13.271l-90.822-150.707-38.915 105.855z" fill="#274B5B"/><path d="M416.58 775.756l-1.3.87 85.524 127.797 1.3-.87-85.524-127.797z" fill="#274B5B"/><path opacity=".2" d="M418.185 774.672l-1.3.871 85.524 127.796 1.3-.871-85.524-127.796zm-3.219 2.157l-1.299.871 85.524 127.797 1.299-.87-85.524-127.798z" fill="#274B5B"/><path d="M406.827 775.74l-1.3.871 85.524 127.796 1.3-.871-85.524-127.796z" fill="#274B5B"/><path opacity=".2" d="M408.437 774.657l-1.301.87 85.524 127.797 1.301-.871-85.524-127.796zm-3.21 2.162l-1.3.87 85.525 127.797 1.299-.87-85.524-127.797z" fill="#274B5B"/><path d="M194.459 878.708l-57.722-.06 9.851-85.931a19.234 19.234 0 016.307-12.158 19.222 19.222 0 0112.799-4.875 19.231 19.231 0 0119.105 17.081l9.66 85.943z" fill="#fff"/><path d="M163.59 778.634a22.95 22.95 0 013.391 6.128c2.722 7.167 2.328 15.11 1.922 22.779l12.132.406c.405.045.815-.007 1.194-.155.8-.395.956-1.434 1.015-2.389.418-6.737.8-13.761-1.803-19.996a11.15 11.15 0 00-2.304-3.679 12.575 12.575 0 00-6.508-2.938 40.236 40.236 0 00-8.192-.789m-9.644 31.439a37.887 37.887 0 0110.639 19.912c.034.499.246.97.597 1.326.359.217.776.318 1.194.286l16.276.18c.573 0 2.388.788 2.866.549 1.11-.513.31-1.493.501-2.699a45.16 45.16 0 00-1.039-18.228 2.771 2.771 0 00-.907-1.601 2.868 2.868 0 00-1.565-.358l-27.583-.777m3.354 25.144a28.274 28.274 0 015.302 10.169 28.273 28.273 0 01.824 11.439c7.308-1.803 15.021 1.529 22.449.335a2.091 2.091 0 001.468-.693c.171-.303.265-.644.275-.991.633-6.104.502-12.363-1.839-18.049-.394-.908 0-2.628-.86-3.177-.859-.55-3.582.179-4.585.179h-22.484" fill="#8BBACC"/><path d="M156.761 854.794c4.095 1.589 6.77 5.65 8.12 9.843 1.349 4.193 1.635 8.624 2.531 12.936a2.1 2.1 0 00.454 1.075c.561.562 1.492.359 2.257.12a34.53 34.53 0 019.719-1.47c4.036 0 8.287.622 11.941-1.051a2.692 2.692 0 001.385-1.134 3.116 3.116 0 000-1.947 1005.34 1005.34 0 00-2.83-14.585 3.065 3.065 0 00-3.188-3.022 115.982 115.982 0 00-30.198-1.421" fill="#8BBACC"/><path d="M137.135 854l-.001 1.565 56.551.058.002-1.564-56.552-.059z" fill="#274B5B"/><path opacity=".2" d="M137.135 852.445l-.001 1.565 56.551.059.002-1.564-56.552-.06z" fill="#274B5B"/><path opacity=".7" d="M137.135 855.554l-.001 1.565 56.551.06.002-1.565-56.552-.06z" fill="#fff"/><path d="M140.279 830.985l-.001 1.565 51.094.053.002-1.564-51.095-.054z" fill="#274B5B"/><path opacity=".2" d="M140.288 829.431l-.002 1.565 51.095.052.002-1.565-51.095-.052z" fill="#274B5B"/><path opacity=".7" d="M140.104 831.693v1.565h51.095v-1.565h-51.095z" fill="#fff"/><path d="M187.905 882.22H143.27a9.356 9.356 0 01-6.978-3.135 9.367 9.367 0 01-2.312-7.293l9.111-79.421a22.688 22.688 0 0137.852-14.645 22.703 22.703 0 017.32 14.645l8.932 79.445a9.35 9.35 0 01-.384 3.896 9.354 9.354 0 01-5.102 5.706 9.37 9.37 0 01-3.828.814l.024-.012zm-22.198-103.024a15.695 15.695 0 00-10.47 3.987 15.712 15.712 0 00-5.149 9.952l-9.111 79.421a2.391 2.391 0 002.054 2.592h44.886c.333.002.661-.067.966-.199a2.392 2.392 0 001.422-2.405l-8.956-79.409a15.714 15.714 0 00-5.15-9.975 15.695 15.695 0 00-10.492-3.988v.024z" fill="#274B5B"/><path d="M315.563 146.515l-73.711-.084a11.117 11.117 0 01-11.105-11.132v-11.372a209.093 209.093 0 0132.109-111.086l1.123-1.792a14.333 14.333 0 0112.074-6.771 14.325 14.325 0 0112.166 6.604l.621.955a209.083 209.083 0 0133.72 114.097v13.605a7.018 7.018 0 01-6.997 6.976z" fill="#fff"/><path d="M321.33 124.345v20.629l-91.838-.107v-20.175c15.703 6.175 32.957 15.779 49.686 13.617 5.457-.717 11.201-2.031 15.165-5.877a22.12 22.12 0 005.147-8.803c8.358-24.248-5.971-57.335-8.55-82.885a91.123 91.123 0 01.86-23.759 209.08 209.08 0 0129.53 107.36z" fill="#D3DFED"/><path d="M203.329 401.561l-73.711-.084a11.07 11.07 0 01-4.253-.852 11.07 11.07 0 01-3.604-2.414 11.11 11.11 0 01-3.248-7.867v-11.371a209.096 209.096 0 0132.109-111.087l1.122-1.791a14.335 14.335 0 0112.074-6.772 14.327 14.327 0 0112.166 6.604l.621.956a209.083 209.083 0 0133.721 114.097v13.557a7.026 7.026 0 01-6.997 7.024zm224.264 1.803l-73.712-.083a11.132 11.132 0 01-4.253-.851 11.135 11.135 0 01-6.01-6.025 11.119 11.119 0 01-.84-4.257v-11.371a209.058 209.058 0 0132.109-111.087l1.122-1.792a14.318 14.318 0 0112.073-6.771 14.338 14.338 0 0112.167 6.604l.62.956a209.073 209.073 0 0133.781 114.072v13.606a7.032 7.032 0 01-2.077 4.964 7.034 7.034 0 01-4.98 2.035z" fill="#fff"/><g opacity=".4" fill="#426270"><path opacity=".4" d="M462.112 810.551c-3.152-5.124-4.943-9.663-4.705-9.759.239-.096 2.389 4.193 5.553 9.245 3.164 5.053 5.97 8.983 5.72 9.15-.251.167-3.392-3.512-6.568-8.636zm.224 8.478c.239-.139-1.189-3.022-3.19-6.437-2.001-3.414-3.818-6.069-4.056-5.928-.239.14 1.189 3.022 3.19 6.436 2.001 3.415 3.818 6.069 4.056 5.929z"/><path opacity=".4" d="M462.303 814.349c-4.633 1.864-8.621 2.652-8.681 2.389-.06-.262 3.749-1.481 8.359-3.32 4.609-1.84 8.167-3.584 8.358-3.345.191.239-3.451 2.425-8.036 4.276zm-4.251-1.254c-4.215 1.947-7.929 2.724-7.988 2.473-.06-.251 3.439-1.458 7.57-3.381 4.132-1.923 7.308-3.834 7.475-3.583.167.251-2.842 2.532-7.057 4.491z"/></g><path d="M182.807 563.573l-.005 4.443 164.414.172.005-4.443-164.414-.172z" fill="#8BBACC"/><path d="M352.852 597.384l-171.435-.144v-39.883l171.423.191.012 39.836zm-164.401-7.167l157.392.179v-25.837l-157.38-.179-.012 25.837z" fill="#274B5B"/><path d="M356.95 397.822c-4.573.322-9.194 0-13.768 0v-20.629a209.42 209.42 0 017.595-55.591c3.773-13.629 10.639-42.213 22.437-50.491.465 2.389.8 4.778 1.05 7.084a80.668 80.668 0 01-.8 21.5l-16.514 98.127zm-163.125-.179c4.573.334 9.195 0 13.768 0v-20.629a209.397 209.397 0 00-7.463-55.603c-3.75-13.629-10.544-42.237-22.318-50.55a85.322 85.322 0 00-1.062 7.083 80.62 80.62 0 00.752 21.5l16.323 98.199z" fill="#D3DFED"/><path d="M343.97 779.542l.42-376.739 83.968.095-.431 376.979-83.957-.335z" fill="#ECF2FA"/><path d="M417.049 402.182l-.43 376.954 8.191.036.43-376.978-8.191-.012z" fill="#fff"/><path d="M347.647 402.11l-.43 376.954 8.431.024.429-376.966-8.43-.012z" fill="#8BBACC"/><path d="M352.281 406.44l-.002 2.652 73.531.077.003-2.651-73.532-.078z" fill="#8BBACC"/><path d="M386.181 684.629a23.402 23.402 0 01-16.541-6.874 23.42 23.42 0 01-6.839-16.562l.203-153.73a23.423 23.423 0 0114.47-21.615 23.407 23.407 0 0132.338 21.663l-.238 153.73a23.406 23.406 0 01-23.393 23.388z" fill="#75D9EF"/><g opacity=".4" fill="#426270"><path opacity=".4" d="M375.516 719.675c-2.543-4.121-3.953-7.812-3.714-7.908.239-.095 2.054 3.321 4.55 7.394 2.495 4.073 4.776 7.239 4.525 7.418-.25.179-2.842-2.724-5.361-6.904zm.212 6.783c.239-.14-.872-2.482-2.483-5.23-1.612-2.75-3.111-4.864-3.351-4.725-.239.141.874 2.483 2.485 5.231 1.611 2.75 3.111 4.864 3.349 4.724z"/><path opacity=".4" d="M375.728 722.768c-3.737 1.505-6.961 2.103-7.021 1.84-.06-.263 2.985-1.29 6.651-2.771 3.666-1.481 6.58-2.855 6.723-2.604.143.251-2.603 2.042-6.353 3.535zm-3.412-1.015c-3.404 1.589-6.413 2.162-6.472 1.911-.06-.251 2.734-1.266 6.054-2.807 3.319-1.541 5.898-3.046 6.054-2.807.155.239-2.221 2.138-5.636 3.703z"/></g><g opacity=".4" fill="#426270"><path opacity=".4" d="M376.999 448.946c-2.544-4.121-3.953-7.812-3.714-7.908.239-.095 2.054 3.321 4.55 7.394 2.495 4.073 4.776 7.239 4.525 7.418-.25.179-2.842-2.759-5.361-6.904zm.212 6.783c.239-.14-.873-2.482-2.483-5.231-1.611-2.748-3.111-4.863-3.35-4.722-.239.139.873 2.48 2.484 5.23 1.611 2.749 3.111 4.863 3.349 4.723z"/><path opacity=".4" d="M377.226 452.051c-3.738 1.505-6.962 2.103-7.022 1.84-.059-.263 2.986-1.29 6.652-2.771 3.665-1.482 6.579-2.855 6.722-2.604.144.25-2.663 2.042-6.352 3.535zm-3.474-1.027c-3.403 1.589-6.412 2.162-6.472 1.911-.059-.251 2.735-1.266 6.054-2.807 3.32-1.541 5.899-3.046 6.054-2.807.155.239-2.173 2.138-5.636 3.703z"/></g><path d="M400.712 419.334a1.362 1.362 0 11.002-2.721 1.362 1.362 0 01-.002 2.721zm0-1.947a.579.579 0 00-.324.1.584.584 0 10.324-.1z" fill="#274B5B"/><path opacity=".2" d="M400.715 420.457a2.529 2.529 0 01-2.331-1.572 2.53 2.53 0 01.556-2.755 2.536 2.536 0 012.758-.544 2.535 2.535 0 011.56 2.339 2.541 2.541 0 01-2.543 2.532zm0-3.511a.98.98 0 10.813 1.524.974.974 0 00.166-.545.989.989 0 00-.303-.662.985.985 0 00-.676-.27v-.047z" fill="#274B5B"/><path d="M389.407 419.323a1.36 1.36 0 01-1.335-1.627 1.368 1.368 0 011.068-1.071 1.367 1.367 0 011.399.58 1.363 1.363 0 01-1.132 2.118zm0-1.947a.582.582 0 00-.541.36.588.588 0 00.764.766.586.586 0 00-.223-1.126z" fill="#274B5B"/><path opacity=".2" d="M389.403 420.457a2.531 2.531 0 01-.477-5.017c.49-.096.999-.045 1.461.146a2.538 2.538 0 011.56 2.339 2.556 2.556 0 01-.749 1.792 2.55 2.55 0 01-1.795.74zm0-3.511a.984.984 0 00-.544.164.979.979 0 101.523.815.98.98 0 00-.979-.944v-.035z" fill="#274B5B"/><path d="M378.095 419.263a1.36 1.36 0 11.002-2.722 1.36 1.36 0 01-.002 2.722zm0-1.947a.579.579 0 00-.325.099.577.577 0 00-.249.601.582.582 0 00.161.298.576.576 0 00.638.128.573.573 0 00.261-.216.579.579 0 00.099-.325.584.584 0 00-.585-.537v-.048z" fill="#274B5B"/><path opacity=".2" d="M378.083 420.457a2.53 2.53 0 01-2.471-3.034 2.543 2.543 0 011.993-1.983 2.545 2.545 0 011.461.146 2.54 2.54 0 011.56 2.339 2.545 2.545 0 01-2.543 2.532zm0-3.511a.98.98 0 10.979.979.98.98 0 00-.967-.956l-.012-.023z" fill="#274B5B"/><path d="M398.968 370.564a1.358 1.358 0 01-1.258-.841 1.364 1.364 0 01.993-1.856 1.352 1.352 0 011.397.579 1.364 1.364 0 01-1.132 2.118zm0-1.947a.583.583 0 00-.573.7.567.567 0 00.16.298.584.584 0 10.827-.827.59.59 0 00-.414-.171z" fill="#274B5B"/><path opacity=".2" d="M398.97 371.734a2.533 2.533 0 112.544-2.532 2.545 2.545 0 01-2.544 2.532zm0-3.511a.976.976 0 00-.961 1.17.977.977 0 00.77.769.97.97 0 001.005-.415.978.978 0 00-.814-1.524z" fill="#274B5B"/><path d="M387.662 370.552a1.356 1.356 0 01-1.257-.841 1.356 1.356 0 01.295-1.484c.19-.191.432-.32.696-.372a1.361 1.361 0 11.266 2.697zm0-1.947a.586.586 0 00-.115 1.16.6.6 0 00.338-.034.573.573 0 00.263-.216.586.586 0 00-.486-.91z" fill="#274B5B"/><path opacity=".2" d="M387.649 371.723a2.537 2.537 0 01-2.33-1.572 2.54 2.54 0 01.557-2.756 2.54 2.54 0 012.757-.544c.462.193.856.518 1.134.933.277.417.425.906.425 1.406a2.545 2.545 0 01-2.543 2.533zm0-3.512a.974.974 0 00-.904.604.98.98 0 10.916-.604h-.012z" fill="#274B5B"/><path d="M376.341 370.54a1.363 1.363 0 01-.962-2.325 1.36 1.36 0 111.924 1.926c-.254.256-.6.399-.962.399zm0-1.947a.576.576 0 00-.54.361.578.578 0 00.127.637.579.579 0 00.638.128.581.581 0 00.36-.541.585.585 0 00-.585-.585z" fill="#274B5B"/><path opacity=".2" d="M376.343 371.711a2.534 2.534 0 01-1.774-4.328 2.535 2.535 0 013.891.389c.277.417.426.906.426 1.406a2.545 2.545 0 01-2.543 2.533zm0-3.512a.975.975 0 00-.905.604.977.977 0 00.714 1.336.976.976 0 001.169-.961.976.976 0 00-.967-.979h-.011z" fill="#274B5B"/><path opacity=".9" d="M405.717 439.079c0-2.771-.107-5.399-.154-7.8a495.087 495.087 0 01-.097-6.402c0-3.667.228-5.973.909-6.116.68-.143 1.682 2.043 2.589 5.698a57.488 57.488 0 011.195 6.486 75.874 75.874 0 01.262 16.113 57.544 57.544 0 01-.954 6.522c-.788 3.679-1.731 5.853-2.388 5.782-.657-.072-.979-2.389-1.11-6.092-.06-1.84-.096-4.002-.12-6.403-.024-2.401-.097-5.017-.132-7.788zm4.632 30.093c.173-3.228-.798-5.905-2.168-5.977-1.369-.074-2.619 2.483-2.793 5.71-.173 3.229.797 5.905 2.166 5.979 1.371.073 2.622-2.485 2.795-5.712z" fill="#fff"/><path opacity=".2" d="M386.37 682.682a21.088 21.088 0 01-20.98-21.095l.167-152.977a21.072 21.072 0 0121.064-21.071 21.072 21.072 0 0121.064 21.071l-.168 152.977a21.097 21.097 0 01-6.197 14.937 21.068 21.068 0 01-14.95 6.158zm.215-191.595a17.564 17.564 0 00-17.613 17.523l-.167 152.977a17.56 17.56 0 0017.553 17.559 17.56 17.56 0 0017.553-17.559l.167-152.977a17.572 17.572 0 00-17.529-17.583l.036.06z" fill="#274B5B"/><path opacity=".4" d="M360.626 517.533l-.036 29.085 46.748 55.687.024-29.086-46.736-55.686zm-.012 43.694v47.779l46.736 55.675v-47.815l-46.736-55.639z" fill="#fff"/><path d="M386.147 688.332a26.355 26.355 0 01-26.27-26.363l.167-153.717a26.342 26.342 0 017.712-18.625 26.326 26.326 0 0137.236 0 26.346 26.346 0 017.711 18.625l-.167 153.717a26.362 26.362 0 01-7.732 18.653 26.371 26.371 0 01-8.561 5.714 26.37 26.37 0 01-10.096 1.996zm.227-200.542a20.508 20.508 0 00-20.503 20.462l-.167 153.717a20.488 20.488 0 005.965 14.5 20.472 20.472 0 0028.96.067 20.494 20.494 0 006.032-14.471l.167-153.718a20.495 20.495 0 00-12.613-18.978 20.514 20.514 0 00-7.841-1.579z" fill="#274B5B"/><path d="M386.584 497.74a1.363 1.363 0 01-1.335-1.627 1.362 1.362 0 111.335 1.627zm0-1.947a.589.589 0 00-.54.361.587.587 0 00.764.766.587.587 0 00-.224-1.127z" fill="#274B5B"/><path opacity=".2" d="M386.586 498.911a2.535 2.535 0 01-1.774-4.328 2.534 2.534 0 014.318 1.795 2.545 2.545 0 01-2.544 2.533zm0-3.512a.975.975 0 00-.905.604.974.974 0 00.213 1.068.975.975 0 001.506-.148.98.98 0 00-.814-1.524z" fill="#274B5B"/><path d="M386.383 675.658a1.364 1.364 0 01-.265-2.697c.264-.053.537-.026.787.078.248.102.461.277.61.501a1.366 1.366 0 01-.168 1.719 1.361 1.361 0 01-.964.399zm0-1.947a.589.589 0 00-.54.362.583.583 0 00.427.798c.113.022.23.011.338-.033a.59.59 0 00.36-.542.572.572 0 00-.162-.428.59.59 0 00-.423-.181v.024z" fill="#274B5B"/><path opacity=".2" d="M386.386 676.829a2.53 2.53 0 01-2.331-1.572 2.53 2.53 0 01.556-2.756 2.534 2.534 0 014.318 1.795 2.538 2.538 0 01-2.543 2.533zm0-3.512a.976.976 0 00-.905.604.992.992 0 00-.057.567.982.982 0 001.335.714.99.99 0 00.44-.361.98.98 0 00-.813-1.524z" fill="#274B5B"/><path d="M318.2 780.139l.704-633.23-83.956-.095-.716 633.624 83.968-.299z" fill="#ECF2FA"/><path d="M246.269 145.655l-.716 633.588-8.192.024.717-633.612h8.191z" fill="#fff"/><path d="M315.298 145.739l-.716 633.576-6.126.036.717-633.624 6.125.012z" fill="#8BBACC"/><path d="M276.717 227.632a23.407 23.407 0 0123.38 23.436l-.167 153.718a23.397 23.397 0 01-1.791 8.957 23.391 23.391 0 01-5.081 7.59 23.383 23.383 0 01-16.556 6.841 23.405 23.405 0 01-23.356-23.436l.167-153.718a23.416 23.416 0 016.864-16.539 23.395 23.395 0 0116.54-6.849z" fill="#75D9EF"/><path d="M237.89 747.208l-.001 1.564 81.126.085.002-1.563-81.127-.086z" fill="#274B5B"/><path opacity=".2" d="M237.89 745.654l-.001 1.564 81.126.085.002-1.565-81.127-.084z" fill="#274B5B"/><path opacity=".7" d="M237.89 748.775l-.001 1.564 81.126.085.002-1.565-81.127-.084z" fill="#fff"/><path d="M237.881 736.303l-.001 1.565 81.126.085.001-1.565-81.126-.085z" fill="#274B5B"/><path opacity=".2" d="M237.89 734.724l-.001 1.565 81.126.086.002-1.565-81.127-.086z" fill="#274B5B"/><path opacity=".7" d="M237.89 737.857l-.001 1.565 81.126.085.002-1.565-81.127-.085z" fill="#fff"/><path d="M343.968 747.34l-.001 1.565 81.126.085.001-1.565-81.126-.085z" fill="#274B5B"/><path opacity=".2" d="M343.968 745.785l-.001 1.565 81.126.084.001-1.564-81.126-.085z" fill="#274B5B"/><path opacity=".7" d="M343.978 748.894l-.003 1.565 81.126.085.003-1.565-81.126-.085z" fill="#fff"/><path d="M343.968 736.411l-.001 1.564 81.125.085.002-1.565-81.126-.084z" fill="#274B5B"/><path opacity=".2" d="M343.978 734.857l-.003 1.564 81.126.085.003-1.565-81.126-.084z" fill="#274B5B"/><path opacity=".7" d="M343.968 737.965l-.001 1.564 81.126.085.001-1.565-81.126-.084z" fill="#fff"/><path d="M342.023 385.305l-.001 1.565 86.201.089.001-1.565-86.201-.089z" fill="#274B5B"/><path opacity=".2" d="M342.023 383.739l-.001 1.565 86.201.089.001-1.564-86.201-.09z" fill="#274B5B"/><path opacity=".7" d="M342.023 386.859l-.001 1.565 86.201.09.001-1.564-86.201-.091z" fill="#fff"/><path d="M342.032 378.274l-.001 1.565 86.2.09.002-1.565-86.201-.09z" fill="#274B5B"/><path opacity=".2" d="M342.032 376.719l-.001 1.565 86.2.091.002-1.565-86.201-.091z" fill="#274B5B"/><path opacity=".7" d="M342.032 379.828l-.001 1.565 86.2.091.002-1.565-86.201-.091z" fill="#fff"/><path d="M233.51 128.868l-.001 1.565 86.201.09.001-1.564-86.201-.091z" fill="#274B5B"/><path opacity=".2" d="M233.496 127.29l-.001 1.565 86.201.089.001-1.565-86.201-.089z" fill="#274B5B"/><path opacity=".7" d="M233.496 130.422l-.001 1.565 86.201.09.001-1.564-86.201-.091z" fill="#fff"/><path d="M233.51 121.837l-.001 1.565 86.201.089.001-1.564-86.201-.09z" fill="#274B5B"/><path opacity=".2" d="M233.51 120.283l-.001 1.565 86.201.089.001-1.564-86.201-.09z" fill="#274B5B"/><path opacity=".7" d="M233.51 123.391l-.001 1.565 86.201.091.001-1.565-86.201-.091z" fill="#fff"/><path d="M121.673 385.042l-.002 1.565 86.2.089.003-1.564-86.201-.09z" fill="#274B5B"/><path opacity=".2" d="M121.687 383.487l-.002 1.565 86.201.09.002-1.564-86.201-.091z" fill="#274B5B"/><path opacity=".7" d="M121.673 386.608l-.002 1.565 86.2.091.003-1.565-86.201-.091z" fill="#fff"/><path d="M121.673 378.022l-.002 1.565 86.2.091.003-1.565-86.201-.091z" fill="#274B5B"/><path opacity=".2" d="M121.687 376.468l-.002 1.565 86.201.091.002-1.565-86.201-.091z" fill="#274B5B"/><path opacity=".7" d="M121.687 379.589l-.002 1.565 86.201.09.002-1.565-86.201-.09z" fill="#fff"/><g opacity=".4" fill="#426270"><path opacity=".4" d="M285.384 191.965c2.508-4.061 4.299-7.501 4.573-7.382.275.12-1.194 3.787-3.725 7.908-2.532 4.121-5.183 7.071-5.386 6.892-.203-.179 2.007-3.333 4.538-7.418zm3.944 2.61c1.617-2.746 2.735-5.085 2.496-5.226-.239-.141-1.744 1.971-3.36 4.716-1.617 2.745-2.735 5.085-2.496 5.226.239.14 1.743-1.971 3.36-4.716z"/><path opacity=".4" d="M286.342 194.7c3.665 1.482 6.722 2.509 6.651 2.784-.072.274-3.284-.347-7.022-1.852-3.737-1.505-6.483-3.309-6.34-3.583.143-.275 3.045 1.158 6.711 2.651zm3.461-1.003c3.308 1.565 6.126 2.544 6.042 2.819-.083.275-3.068-.323-6.46-1.923-3.391-1.601-5.779-3.524-5.624-3.715.156-.191 2.723 1.278 6.042 2.819z"/></g><path d="M262.558 162.844c-.269 0-.533-.08-.756-.23a1.364 1.364 0 01.491-2.468 1.36 1.36 0 011.626 1.336 1.36 1.36 0 01-1.361 1.362zm0-1.947a.58.58 0 00-.325.099.577.577 0 00-.248.601.573.573 0 00.16.299.583.583 0 00.954-.638.582.582 0 00-.317-.317.592.592 0 00-.224-.044z" fill="#274B5B"/><path opacity=".2" d="M262.555 164.014a2.528 2.528 0 01-2.33-1.572 2.53 2.53 0 011.853-3.445 2.542 2.542 0 011.46.146 2.54 2.54 0 011.561 2.339 2.542 2.542 0 01-2.544 2.532zm0-3.512a.983.983 0 00-.905.605.988.988 0 00-.056.566c.038.19.132.364.269.502a.976.976 0 001.506-.148.982.982 0 00-.814-1.525z" fill="#274B5B"/><path d="M273.865 162.856a1.362 1.362 0 11.003-2.723 1.362 1.362 0 01-.003 2.723zm0-1.947a.576.576 0 00-.325.099.57.57 0 00-.216.262.593.593 0 00-.034.338.587.587 0 001.16-.114.58.58 0 00-.172-.413.582.582 0 00-.413-.172z" fill="#274B5B"/><path opacity=".2" d="M273.866 164.026a2.531 2.531 0 01-1.773-4.327 2.526 2.526 0 012.757-.544 2.534 2.534 0 011.559 2.339 2.547 2.547 0 01-.748 1.792 2.548 2.548 0 01-1.795.74zm0-3.512a.977.977 0 00-.96 1.171.977.977 0 00.769.769.979.979 0 10.191-1.94z" fill="#274B5B"/><path d="M285.185 162.867a1.365 1.365 0 01-1.258-.84 1.361 1.361 0 111.258.84zm0-1.947a.58.58 0 00-.325.1.593.593 0 00-.249.6.587.587 0 00.798.427.585.585 0 00-.224-1.127z" fill="#274B5B"/><path opacity=".2" d="M285.173 164.038a2.534 2.534 0 01-2.331-1.572 2.538 2.538 0 01.556-2.756 2.537 2.537 0 013.892.39c.278.417.426.905.426 1.406a2.548 2.548 0 01-2.543 2.532zm0-3.512a.986.986 0 00-.906.605.979.979 0 10.917-.605h-.011z" fill="#274B5B"/><path d="M267.143 114.085a1.356 1.356 0 01-1.257-.841 1.356 1.356 0 01.295-1.484 1.356 1.356 0 012.094.207 1.365 1.365 0 01-.17 1.719 1.361 1.361 0 01-.962.399zm0-1.947a.579.579 0 00-.325.099.576.576 0 00-.249.6.574.574 0 00.161.3.59.59 0 00.638.127.586.586 0 00.36-.541.579.579 0 00-.358-.551.572.572 0 00-.227-.046v.012z" fill="#274B5B"/><path opacity=".2" d="M267.14 115.255a2.531 2.531 0 11.983-4.87 2.53 2.53 0 011.56 2.338 2.54 2.54 0 01-2.543 2.532zm0-3.511a.975.975 0 00-.904.604.98.98 0 10.904-.604z" fill="#274B5B"/><path d="M278.45 114.097a1.36 1.36 0 01-1.335-1.628 1.355 1.355 0 011.069-1.069 1.359 1.359 0 011.627 1.335 1.36 1.36 0 01-1.361 1.362zm0-1.947a.585.585 0 10.585.585.595.595 0 00-.358-.552.59.59 0 00-.227-.045v.012z" fill="#274B5B"/><path opacity=".2" d="M278.451 115.267a2.523 2.523 0 01-2.33-1.571 2.54 2.54 0 01.556-2.756 2.532 2.532 0 014.317 1.795 2.543 2.543 0 01-2.543 2.532zm0-3.511a.977.977 0 00-.96 1.17.98.98 0 00.769.77.98.98 0 10.191-1.94z" fill="#274B5B"/><path d="M289.757 114.109a1.36 1.36 0 01-1.259-.841 1.367 1.367 0 01.295-1.484 1.366 1.366 0 011.484-.295 1.363 1.363 0 01-.52 2.62zm0-1.947a.589.589 0 00-.541.361.593.593 0 00-.034.338.587.587 0 001.16-.114.587.587 0 00-.573-.585h-.012z" fill="#274B5B"/><path opacity=".2" d="M289.758 115.279a2.531 2.531 0 112.543-2.532 2.537 2.537 0 01-.75 1.791 2.538 2.538 0 01-1.793.741zm0-3.511a.983.983 0 00-.905.604.979.979 0 10.917-.604h-.012z" fill="#274B5B"/><path d="M264.923 768.374a1.364 1.364 0 01-1.335-1.627 1.359 1.359 0 011.069-1.07 1.361 1.361 0 11.266 2.697zm0-1.947a.586.586 0 00-.574.7.588.588 0 00.798.426.576.576 0 00.262-.216.587.587 0 00-.486-.91z" fill="#274B5B"/><path opacity=".2" d="M264.92 769.544a2.529 2.529 0 01-2.33-1.572 2.53 2.53 0 014.447-2.366c.278.417.426.906.426 1.406a2.55 2.55 0 01-.748 1.792 2.55 2.55 0 01-1.795.74zm0-3.511a.985.985 0 00-.545.164.987.987 0 00-.415 1.006.977.977 0 001.774.354.98.98 0 00-.814-1.524z" fill="#274B5B"/><path d="M276.229 768.386a1.36 1.36 0 11.002-2.722 1.36 1.36 0 01-.002 2.722zm0-1.947a.58.58 0 00-.54.362.583.583 0 00.426.797.583.583 0 00.699-.574.588.588 0 00-.573-.585h-.012z" fill="#274B5B"/><path opacity=".2" d="M276.231 769.556a2.534 2.534 0 01-2.469-3.034 2.532 2.532 0 015.013.502 2.544 2.544 0 01-2.544 2.532zm0-3.512a.983.983 0 00-.905.605.988.988 0 00-.056.566c.038.19.132.364.269.502a.97.97 0 00.501.267c.19.039.387.019.565-.055a.984.984 0 00.606-.905.978.978 0 00-.968-.98h-.012z" fill="#274B5B"/><path d="M287.55 768.398c-.27 0-.533-.08-.756-.23a1.349 1.349 0 01-.501-.611 1.359 1.359 0 011.778-1.779 1.361 1.361 0 01-.521 2.62zm0-1.947a.579.579 0 00-.325.099.573.573 0 00-.216.261.59.59 0 00.127.638.583.583 0 00.9-.088.586.586 0 00-.486-.91z" fill="#274B5B"/><path opacity=".2" d="M287.537 769.568a2.536 2.536 0 01-1.403-.432 2.537 2.537 0 01-1.066-2.602 2.53 2.53 0 011.991-1.983 2.534 2.534 0 013.021 2.485 2.547 2.547 0 01-.748 1.792 2.546 2.546 0 01-1.795.74zm0-3.512a.982.982 0 00-.96 1.171.98.98 0 001.774.354.983.983 0 00-.117-1.233.98.98 0 00-.685-.292h-.012z" fill="#274B5B"/><path opacity=".9" d="M252.134 189.504c.052-2.691.243-5.378.573-8.05.273-2.184.672-4.35 1.194-6.486.907-3.656 1.934-5.806 2.603-5.698.669.107.895 2.461.895 6.128 0 1.839 0 4.001-.095 6.402l-.167 7.8c0 2.771-.084 5.399-.12 7.8a372.922 372.922 0 01-.131 6.402c-.131 3.667-.43 5.973-1.122 6.08-.693.108-1.612-2.102-2.389-5.781a57.55 57.55 0 01-.943-6.522 77.735 77.735 0 01-.298-8.075zm3.087 35.863c1.37-.07 2.345-2.744 2.179-5.973-.166-3.228-1.411-5.787-2.782-5.717-1.369.071-2.345 2.745-2.179 5.972.167 3.229 1.413 5.789 2.782 5.718z" fill="#fff"/><path opacity=".2" d="M276.299 426.215a21.084 21.084 0 01-14.88-6.196 21.096 21.096 0 01-6.159-14.899l.167-152.977a21.075 21.075 0 016.168-14.899 21.059 21.059 0 0129.789 0 21.076 21.076 0 016.17 14.899l-.227 153.025a21.101 21.101 0 01-6.172 14.864 21.087 21.087 0 01-14.856 6.183zm.215-191.595a17.564 17.564 0 00-17.577 17.535l-.167 152.977a17.56 17.56 0 0017.553 17.559 17.556 17.556 0 0017.553-17.559l.167-152.977a17.573 17.573 0 00-17.529-17.583v.048z" fill="#274B5B"/><path opacity=".4" d="M302.428 261.125l-.036 29.098-46.867 55.579.035-29.097 46.868-55.58zm-.05 43.707v47.779l-46.868 55.567v-47.815l46.868-55.531z" fill="#fff"/><path d="M276.514 431.876a26.348 26.348 0 01-18.58-7.75 26.371 26.371 0 01-7.69-18.612l.168-153.717a26.338 26.338 0 017.712-18.625 26.325 26.325 0 0137.235 0 26.342 26.342 0 017.712 18.625l-.167 153.717a26.366 26.366 0 01-16.294 24.367 26.35 26.35 0 01-10.096 1.995zm.227-200.541a20.5 20.5 0 00-20.502 20.462l-.167 153.717a20.502 20.502 0 0020.454 20.51 20.506 20.506 0 0020.503-20.462l.167-153.718a20.507 20.507 0 00-20.455-20.509z" fill="#274B5B"/><path d="M276.514 241.285c-.27 0-.532-.08-.757-.229a1.363 1.363 0 01.491-2.468 1.36 1.36 0 011.229 2.298 1.36 1.36 0 01-.963.399zm0-1.947a.592.592 0 00-.541.361.587.587 0 00.764.766.582.582 0 00.263-.217.586.586 0 00-.486-.91z" fill="#274B5B"/><path opacity=".2" d="M276.501 242.48a2.532 2.532 0 112.543-2.533 2.543 2.543 0 01-2.543 2.533zm0-3.512a.974.974 0 00-.904.604.98.98 0 101.883.375.979.979 0 00-.967-1.051l-.012.072z" fill="#274B5B"/><path d="M276.314 419.191a1.366 1.366 0 01-1.259-.841 1.355 1.355 0 01-.076-.786 1.36 1.36 0 111.335 1.627zm0-1.947a.597.597 0 00-.326.098.593.593 0 00-.249.602.591.591 0 00.46.459.587.587 0 10.115-1.159z" fill="#274B5B"/><path opacity=".2" d="M276.315 420.362a2.532 2.532 0 112.543-2.533 2.547 2.547 0 01-.748 1.792 2.55 2.55 0 01-1.795.741zm0-3.512a.98.98 0 00-.905.604.983.983 0 00.714 1.336.975.975 0 001.17-.961.978.978 0 00-.979-.955v-.024z" fill="#274B5B"/><path d="M282.142 580.112a4.836 4.836 0 00-.718-.538 8.833 8.833 0 00-1.265-.669 11.159 11.159 0 00-1.624-.549 7.071 7.071 0 00-1.778-.227 3.975 3.975 0 00-2.389.585c-.256.192-.46.443-.595.733a1.94 1.94 0 00-.182.927c-.012.366.092.727.299 1.028.23.299.524.544.859.716.453.238.929.426 1.423.562.573.167 1.233.346 1.982.537.9.238 1.79.521 2.663.848a7.166 7.166 0 012.028 1.135c.544.44.979.994 1.279 1.625.331.751.486 1.568.454 2.389a5.8 5.8 0 01-.61 2.735 5.076 5.076 0 01-1.635 1.839 7.113 7.113 0 01-2.388 1.028c-.92.218-1.862.326-2.807.322a15.04 15.04 0 01-4.453-.681 13.717 13.717 0 01-3.942-1.923l1.721-3.344c.282.254.59.479.919.669.503.303 1.026.574 1.565.812.642.289 1.309.521 1.994.693a9.078 9.078 0 002.256.286c2.141 0 3.213-.684 3.213-2.054a1.694 1.694 0 00-.371-1.099 3.117 3.117 0 00-1.04-.777 10.045 10.045 0 00-1.634-.621l-2.138-.621a18.222 18.222 0 01-2.497-.86 6.568 6.568 0 01-1.755-1.099 4.125 4.125 0 01-1.05-1.469 5.073 5.073 0 01-.347-1.983 6.22 6.22 0 01.561-2.699 5.46 5.46 0 011.565-1.971 7.103 7.103 0 012.388-1.195 9.66 9.66 0 012.843-.382c1.33-.014 2.653.213 3.904.669 1.089.397 2.128.921 3.093 1.565l-1.791 3.058zm-11.799 41.747v-20.008h8.478a5.687 5.687 0 012.556.585c.76.377 1.442.895 2.006 1.529a7.196 7.196 0 011.325 2.138c.311.759.472 1.57.478 2.389a6.932 6.932 0 01-.442 2.485 6.83 6.83 0 01-1.266 2.126 6.24 6.24 0 01-1.97 1.493 5.71 5.71 0 01-2.531.562H274.2v6.701h-3.857zm3.917-10.118h4.514c.346.004.687-.074.998-.224.311-.152.582-.374.793-.648a3.58 3.58 0 00.716-2.388 3.877 3.877 0 00-.227-1.362 3.307 3.307 0 00-.597-1.027 2.385 2.385 0 00-.86-.634 2.537 2.537 0 00-1.003-.215h-4.37l.036 6.498zm.821 17.105h3.415l7.583 20.02h-3.976l-1.851-5.041h-6.986l-1.838 4.981h-3.953l7.606-19.96zm4.466 12.292l-2.758-7.86-2.878 7.86h5.636zm-11.652 24.558c.009-1.224.236-2.438.669-3.583a9.71 9.71 0 015.039-5.459 9.549 9.549 0 014.167-.872 9.094 9.094 0 014.777 1.194 7.753 7.753 0 012.997 3.166l-2.985 2.054a5.138 5.138 0 00-.956-1.421 4.751 4.751 0 00-1.194-.92 5.45 5.45 0 00-1.349-.49 6.454 6.454 0 00-1.385-.155 5.234 5.234 0 00-2.555.585 5.6 5.6 0 00-1.804 1.541 6.75 6.75 0 00-1.086 2.138 8.04 8.04 0 00-.37 2.389c-.005.87.136 1.734.418 2.557a6.75 6.75 0 001.194 2.162 5.968 5.968 0 001.862 1.493c.738.38 1.559.572 2.389.561a6.253 6.253 0 001.409-.167 5.332 5.332 0 001.397-.538c.44-.255.843-.573 1.194-.943.389-.403.697-.878.907-1.398l3.177 1.828a5.993 5.993 0 01-1.374 1.983 8.815 8.815 0 01-2.006 1.445c-.756.398-1.558.699-2.388.896-.813.203-1.646.307-2.484.31a8.495 8.495 0 01-3.904-.908 10.183 10.183 0 01-3.057-2.388 10.901 10.901 0 01-1.994-3.297 10.283 10.283 0 01-.705-3.763zm16.3 33.744v3.405H270.26v-20.008h13.648v3.404h-9.779v4.778h8.43v3.154h-8.43v5.208l10.066.059z" fill="#274B5B"/><path d="M207.15 779.387l.418-376.739-83.956-.096-.43 376.978 83.968-.143z" fill="#ECF2FA"/><path d="M134.921 401.871l-.418 376.955-8.191.011.417-376.978 8.192.012z" fill="#fff"/><path d="M204.322 401.943l-.418 376.954-7.379.012.418-376.966h7.379z" fill="#8BBACC"/><path d="M126.091 406.189l-.003 2.652 73.532.078.003-2.652-73.532-.078z" fill="#8BBACC"/><path d="M165.381 483.836a23.407 23.407 0 0123.38 23.436l-.167 153.718a23.408 23.408 0 01-6.854 16.59 23.397 23.397 0 01-16.586 6.858 23.41 23.41 0 01-16.542-6.875 23.41 23.41 0 01-6.838-16.561l.167-153.718a23.446 23.446 0 011.775-8.979 23.435 23.435 0 015.08-7.611 23.397 23.397 0 0116.585-6.858z" fill="#75D9EF"/><g opacity=".4" fill="#426270"><path opacity=".4" d="M174.889 718.922c2.508-4.061 4.299-7.501 4.574-7.382.274.12-1.194 3.787-3.726 7.908-2.531 4.121-5.182 7.047-5.385 6.88-.203-.167 2.042-3.333 4.537-7.406zm3.996 2.57c1.617-2.745 2.734-5.085 2.495-5.225-.238-.141-1.743 1.97-3.36 4.716-1.617 2.745-2.734 5.083-2.495 5.224.237.141 1.742-1.97 3.36-4.715z"/><path opacity=".4" d="M175.879 721.622c3.666 1.481 6.723 2.508 6.651 2.783-.071.275-3.283-.347-7.021-1.852-3.737-1.505-6.484-3.308-6.341-3.583.144-.275 3.045 1.183 6.711 2.652zm3.452-.992c3.308 1.565 6.126 2.545 6.042 2.819-.083.275-3.069-.322-6.46-1.923-3.391-1.6-5.779-3.523-5.624-3.715.155-.191 2.747 1.267 6.042 2.819z"/></g><g opacity=".4" fill="#426270"><path opacity=".4" d="M174.013 448.181c2.507-4.061 4.299-7.501 4.573-7.382.275.12-1.194 3.787-3.725 7.908-2.532 4.121-5.183 7.071-5.374 6.892-.191-.179 2.03-3.333 4.526-7.418zm3.989 2.548c1.617-2.745 2.734-5.085 2.495-5.226-.239-.14-1.742 1.972-3.359 4.717-1.617 2.745-2.733 5.085-2.496 5.226.239.141 1.744-1.971 3.36-4.717z"/><path opacity=".4" d="M174.993 450.917c3.666 1.481 6.723 2.508 6.651 2.783-.071.274-3.283-.347-7.021-1.852-3.737-1.505-6.484-3.308-6.341-3.583.144-.275 3.045 1.158 6.711 2.652zm3.476-1.004c3.308 1.565 6.126 2.544 6.042 2.819-.083.275-3.069-.322-6.46-1.923s-5.779-3.524-5.624-3.715c.155-.191 2.723 1.278 6.042 2.819z"/></g><path d="M151.195 419.06a1.36 1.36 0 11.002-2.722 1.36 1.36 0 01-.002 2.722zm0-1.947a.583.583 0 00-.573.7.587.587 0 00.46.46c.113.022.23.01.338-.034a.576.576 0 00.262-.216.578.578 0 00.098-.325.58.58 0 00-.573-.597l-.012.012z" fill="#274B5B"/><path opacity=".2" d="M151.197 420.23a2.534 2.534 0 01-2.469-3.034 2.532 2.532 0 015.013.502 2.547 2.547 0 01-2.544 2.532zm0-3.511a.983.983 0 00-.692 1.672c.137.137.312.23.501.267.19.039.387.02.566-.055a.998.998 0 00.44-.36.978.978 0 00-.803-1.524h-.012z" fill="#274B5B"/><path d="M162.516 419.072a1.356 1.356 0 01-1.257-.841 1.356 1.356 0 01.295-1.484 1.356 1.356 0 012.094.207 1.363 1.363 0 01-1.132 2.118zm0-1.947a.579.579 0 00-.325.099.583.583 0 00-.089.9.59.59 0 00.299.161.591.591 0 00.601-.25.612.612 0 00.059-.553.593.593 0 00-.545-.369v.012z" fill="#274B5B"/><path opacity=".2" d="M162.503 420.242a2.536 2.536 0 01-1.403-.432 2.537 2.537 0 01-1.066-2.602c.099-.489.341-.94.696-1.292a2.526 2.526 0 013.891.388c.277.417.425.906.425 1.406a2.545 2.545 0 01-.748 1.792 2.546 2.546 0 01-1.795.74zm0-3.511a.981.981 0 00-.904.604.98.98 0 001.718.92.98.98 0 00-.802-1.524h-.012z" fill="#274B5B"/><path d="M173.823 419.084a1.36 1.36 0 01-1.335-1.627 1.363 1.363 0 012.467-.491 1.363 1.363 0 01-1.132 2.118zm0-1.947a.584.584 0 10.585.585.595.595 0 00-.358-.552.593.593 0 00-.227-.045v.012z" fill="#274B5B"/><path opacity=".2" d="M173.824 420.254a2.531 2.531 0 01-1.774-4.327 2.533 2.533 0 012.758-.544 2.531 2.531 0 01.811 4.131 2.55 2.55 0 01-1.795.74zm0-3.512a.985.985 0 00-.905.605.979.979 0 10.905-.605z" fill="#274B5B"/><path d="M153.071 370.289a1.356 1.356 0 01-1.257-.841 1.356 1.356 0 01.295-1.483 1.353 1.353 0 011.483-.295 1.36 1.36 0 01.441 2.22 1.357 1.357 0 01-.962.399zm0-1.947a.586.586 0 00-.115 1.16.591.591 0 00.601-.25.584.584 0 00-.486-.91z" fill="#274B5B"/><path opacity=".2" d="M153.072 371.484a2.532 2.532 0 112.544-2.533 2.553 2.553 0 01-.749 1.792 2.55 2.55 0 01-1.795.741zm0-3.512a.977.977 0 00-.96 1.17.975.975 0 00.769.77.979.979 0 001.17-.961.982.982 0 00-.26-.739.978.978 0 00-.719-.312v.072z" fill="#274B5B"/><path d="M164.378 370.289a1.366 1.366 0 01-1.259-.841 1.363 1.363 0 01.993-1.856c.263-.053.537-.026.786.078a1.356 1.356 0 01.442 2.22 1.359 1.359 0 01-.962.399zm0-1.947a.592.592 0 00-.541.361.587.587 0 00.426.799.591.591 0 00.601-.25.584.584 0 00-.486-.91z" fill="#274B5B"/><path opacity=".2" d="M164.379 371.484a2.532 2.532 0 112.543-2.533 2.544 2.544 0 01-2.543 2.533zm0-3.512a.977.977 0 00-.96 1.17.972.972 0 00.769.77.979.979 0 001.17-.961.98.98 0 00-.979-1.051v.072z" fill="#274B5B"/><path d="M175.688 370.289a1.351 1.351 0 01-1.257-.841 1.364 1.364 0 01.295-1.483 1.364 1.364 0 011.483-.295 1.363 1.363 0 01-.521 2.619zm0-1.947a.589.589 0 00-.541.361.587.587 0 00.766.765.581.581 0 00.36-.541.588.588 0 00-.17-.414.592.592 0 00-.415-.171z" fill="#274B5B"/><path opacity=".2" d="M175.686 371.484a2.538 2.538 0 01-2.331-1.572 2.54 2.54 0 01-.14-1.462 2.535 2.535 0 014.588-.905c.277.417.426.906.426 1.406a2.545 2.545 0 01-2.543 2.533zm0-3.512a.978.978 0 00-.191 1.94.976.976 0 001.17-.961.978.978 0 00-.967-.979h-.012zm-10.745 314.459a21.084 21.084 0 01-14.88-6.196 21.096 21.096 0 01-6.159-14.899l.167-152.977c0-2.767.544-5.506 1.602-8.064a21.065 21.065 0 0127.522-11.402 21.061 21.061 0 0111.399 11.402 21.097 21.097 0 011.604 8.064l-.167 152.977a21.095 21.095 0 01-21.088 21.095zm.215-191.595a17.57 17.57 0 00-17.565 17.535l-.167 152.977a17.557 17.557 0 0017.553 17.559 17.553 17.553 0 0017.553-17.559l.167-152.941a17.573 17.573 0 00-17.529-17.583l-.012.012z" fill="#274B5B"/><path opacity=".4" d="M191.077 517.342l-.023 29.085-46.868 55.579.036-29.085 46.855-55.579zm-.023 43.694v47.779l-46.868 55.567v-47.815l46.868-55.531z" fill="#fff"/><path d="M165.166 688.081a26.351 26.351 0 01-18.58-7.751 26.364 26.364 0 01-7.69-18.611l.167-153.718a26.341 26.341 0 017.713-18.625 26.323 26.323 0 0137.235 0 26.347 26.347 0 017.711 18.625l-.191 153.741a26.353 26.353 0 01-26.365 26.339zm.227-200.542a20.496 20.496 0 00-14.481 5.991 20.517 20.517 0 00-6.022 14.471l-.167 153.741a20.48 20.48 0 0020.479 20.486c5.432 0 10.64-2.159 14.48-6a20.487 20.487 0 005.998-14.486l.167-153.717a20.511 20.511 0 00-5.996-14.47 20.496 20.496 0 00-14.458-6.016z" fill="#274B5B"/><path d="M165.156 497.489a1.363 1.363 0 01-1.335-1.627c.053-.265.182-.507.373-.697a1.357 1.357 0 012.094.207 1.36 1.36 0 01-1.132 2.117zm0-1.947a.586.586 0 10.224 1.127.582.582 0 00.361-.541.601.601 0 00-.044-.225.606.606 0 00-.128-.19.593.593 0 00-.413-.171z" fill="#274B5B"/><path opacity=".2" d="M165.153 498.66a2.529 2.529 0 01-2.33-1.572 2.53 2.53 0 013.314-3.299 2.534 2.534 0 011.559 2.339 2.54 2.54 0 01-2.543 2.532zm0-3.512a.975.975 0 00-.96 1.171.975.975 0 00.769.769.979.979 0 10.191-1.94z" fill="#274B5B"/><path d="M164.951 675.407a1.363 1.363 0 01-.963-2.324 1.359 1.359 0 012.095.206 1.366 1.366 0 01-.17 1.719 1.357 1.357 0 01-.962.399zm0-1.947a.586.586 0 10.224 1.127.58.58 0 00.262-.217.583.583 0 00.099-.324.58.58 0 00-.358-.552.59.59 0 00-.227-.046v.012z" fill="#274B5B"/><path opacity=".2" d="M164.952 676.578a2.537 2.537 0 01-2.33-1.572 2.53 2.53 0 01.557-2.756 2.536 2.536 0 012.757-.543 2.534 2.534 0 01-.011 4.681 2.54 2.54 0 01-.973.19zm0-3.512a.974.974 0 00-.904.605.98.98 0 10.904-.605z" fill="#274B5B"/><path d="M204.503 405.455l-73.711-.084a14.653 14.653 0 01-14.616-14.656v-11.372a212.345 212.345 0 0132.67-112.974l1.123-1.791a17.905 17.905 0 0130.162-.215l.621.955a212.096 212.096 0 0134.295 116.008v13.605a10.57 10.57 0 01-.806 4.032 10.527 10.527 0 01-9.738 6.492zm-39.405-142.227h-.096a10.835 10.835 0 00-9.122 5.088l-1.123 1.792a205.318 205.318 0 00-31.583 109.247v11.372a7.622 7.622 0 007.606 7.62l73.711.084a3.51 3.51 0 003.51-3.512v-13.593a205.087 205.087 0 00-33.159-112.186l-.621-.955a10.837 10.837 0 00-3.908-3.633 10.838 10.838 0 00-5.167-1.324h-.048z" fill="#274B5B"/><path d="M406.507 704.494a3.117 3.117 0 10-6.234-.008 3.117 3.117 0 006.234.008zm4.64 10.761a4.872 4.872 0 10-9.743 0 4.873 4.873 0 004.872 4.874 4.873 4.873 0 004.871-4.874z" fill="#fff"/><path d="M269.197 45.337a3.118 3.118 0 00-5.47-2.99 3.116 3.116 0 105.47 2.99zm-1.064 12.532a4.875 4.875 0 00-1.94-6.614 4.874 4.874 0 00-4.672 8.553 4.872 4.872 0 006.612-1.94z" fill="#D3DFED"/><path d="M151.066 706.156a3.117 3.117 0 10-6.233-.008 3.117 3.117 0 106.233.008zm-1.722 10.748a4.873 4.873 0 10-4.872 4.873 4.873 4.873 0 004.872-4.873zm11.789-199.706a3.117 3.117 0 10-6.234 0 3.117 3.117 0 006.234 0zm-1.564 11.479a4.873 4.873 0 10-9.744 0 4.873 4.873 0 004.872 4.874 4.873 4.873 0 004.872-4.874zm144.484 350.162l-57.722-.059 9.851-85.931a19.226 19.226 0 0131.918-12.141 19.235 19.235 0 016.293 12.188l9.66 85.943z" fill="#fff"/><path d="M273.171 778.802a22.985 22.985 0 013.391 6.127c2.723 7.167 2.329 15.11 1.923 22.779l12.131.406c.404.045.815-.008 1.195-.155.8-.394.955-1.434 1.015-2.389.417-6.737.8-13.761-1.804-19.996a11.123 11.123 0 00-2.304-3.679 12.575 12.575 0 00-6.508-2.938 40.375 40.375 0 00-8.191-.789m-9.637 31.403a37.903 37.903 0 0110.64 19.912c.034.5.246.97.597 1.326a2.01 2.01 0 001.194.287l16.275.179c.573 0 2.388.788 2.866.55 1.11-.514.31-1.494.501-2.7a45.18 45.18 0 00-1.038-18.228 2.756 2.756 0 00-.908-1.6 2.857 2.857 0 00-1.564-.359l-27.584-.776m3.308 25.132a28.238 28.238 0 015.302 10.168 28.278 28.278 0 01.824 11.44c7.308-1.804 15.021 1.529 22.449.334a2.1 2.1 0 001.468-.693 2.14 2.14 0 00.275-.991c.633-6.104.502-12.363-1.839-18.049-.394-.907 0-2.627-.86-3.177-.859-.549-3.582.179-4.585.179h-22.437" fill="#8BBACC"/><path d="M266.355 854.914c4.097 1.589 6.772 5.65 8.121 9.842 1.349 4.193 1.635 8.625 2.53 12.937.047.394.204.767.455 1.075.561.561 1.493.358 2.257.119a34.519 34.519 0 019.72-1.469c4.036 0 8.287.621 11.941-1.051a2.714 2.714 0 001.385-1.135 3.144 3.144 0 000-1.947c-.908-4.865-1.852-9.727-2.831-14.585a3.06 3.06 0 00-.958-2.183 3.058 3.058 0 00-2.231-.839 115.976 115.976 0 00-30.197-1.421" fill="#8BBACC"/><path d="M246.724 854.12l-.001 1.564 56.552.06.001-1.565-56.552-.059z" fill="#274B5B"/><path opacity=".2" d="M246.739 852.552l-.002 1.565 56.552.06.001-1.565-56.551-.06z" fill="#274B5B"/><path opacity=".7" d="M246.724 855.674l-.001 1.564 56.552.06.001-1.565-56.552-.059z" fill="#fff"/><path d="M249.878 831.104l-.001 1.565 51.095.054.001-1.565-51.095-.054z" fill="#274B5B"/><path opacity=".2" d="M249.878 829.538l-.001 1.565 51.095.054.001-1.565-51.095-.054z" fill="#274B5B"/><path opacity=".7" d="M249.864 832.67l-.002 1.565 51.095.054.001-1.565-51.094-.054z" fill="#fff"/><path d="M297.497 882.339h-44.635a9.36 9.36 0 01-9.266-10.487l9.111-79.421a16.11 16.11 0 018.036-12.662c3.689-2.126 8.585-3.201 14.568-3.189 5.982.012 10.878 1.099 14.555 3.225a16.114 16.114 0 018.013 12.673l8.92 79.493a9.373 9.373 0 01-5.486 9.602 9.374 9.374 0 01-3.828.814l.012-.048zm-22.198-98.76c-13.016 0-15.153 5.495-15.607 9.628l-9.111 79.421a2.388 2.388 0 002.054 2.592h44.898a2.386 2.386 0 001.769-.774c.225-.245.395-.534.503-.849.106-.316.146-.65.116-.981l-8.932-79.445c-1.015-8.648-9.409-9.663-15.643-9.663l-.047.071z" fill="#274B5B"/><path d="M414.828 878.959l-57.723-.06 9.852-85.931a19.23 19.23 0 0119.105-17.033 19.223 19.223 0 0119.105 17.081l9.661 85.943z" fill="#fff"/><path d="M383.935 778.885a22.941 22.941 0 013.392 6.128c2.722 7.167 2.328 15.11 1.922 22.779l12.132.406a2.52 2.52 0 001.194-.156c.8-.394.955-1.433 1.015-2.389.418-6.736.8-13.76-1.803-19.995a11.083 11.083 0 00-2.305-3.679 12.574 12.574 0 00-6.507-2.939 40.312 40.312 0 00-8.192-.788m-9.635 31.439a37.887 37.887 0 0110.639 19.912c.034.499.246.97.598 1.326.358.217.776.317 1.194.286l16.275.18c.573 0 2.388.788 2.866.549 1.11-.514.31-1.493.501-2.7a45.17 45.17 0 00-.991-18.191 2.76 2.76 0 00-.907-1.601 2.86 2.86 0 00-1.565-.358l-27.583-.777m3.32 25.096a28.276 28.276 0 015.303 10.169 28.272 28.272 0 01.823 11.439c7.308-1.803 15.021 1.529 22.448.335a2.092 2.092 0 001.47-.693c.171-.303.265-.644.275-.991.633-6.104.501-12.363-1.839-18.049-.394-.908 0-2.628-.86-3.177-.86-.55-3.582.179-4.585.179h-22.486" fill="#8BBACC"/><path d="M377.13 855.045c4.096 1.589 6.771 5.65 8.12 9.843 1.349 4.192 1.636 8.624 2.532 12.936.046.394.204.767.453 1.075.562.561 1.493.358 2.257.12a34.541 34.541 0 019.72-1.47c4.036 0 8.287.621 11.941-1.051a2.693 2.693 0 001.385-1.135 3.13 3.13 0 000-1.947 506.732 506.732 0 00-2.77-14.584 3.07 3.07 0 00-3.188-3.022 115.992 115.992 0 00-30.199-1.422" fill="#8BBACC"/><path d="M357.485 854.251l-.001 1.565 56.552.059.001-1.564-56.552-.06z" fill="#274B5B"/><path opacity=".2" d="M357.485 852.685l-.001 1.565 56.552.058.001-1.564-56.552-.059z" fill="#274B5B"/><path opacity=".7" d="M357.485 855.805l-.001 1.565 56.552.059.001-1.564-56.552-.06z" fill="#fff"/><path d="M360.624 831.236l-.001 1.564 51.095.054.001-1.565-51.095-.053z" fill="#274B5B"/><path opacity=".2" d="M360.639 829.67l-.001 1.565 51.093.053.003-1.565-51.095-.053z" fill="#274B5B"/><path opacity=".7" d="M360.624 832.791l-.001 1.565 51.095.052.001-1.565-51.095-.052z" fill="#fff"/><path d="M408.27 882.459h-44.635a9.372 9.372 0 01-6.978-3.135 9.37 9.37 0 01-2.312-7.293l9.111-79.421a16.114 16.114 0 018.036-12.662c3.69-2.126 8.585-3.201 14.568-3.189h3.51v.502a26.49 26.49 0 0110.986 2.866 15.46 15.46 0 015.652 5.219 15.475 15.475 0 012.432 7.3l8.932 79.444a9.376 9.376 0 01-2.325 7.295 9.37 9.37 0 01-6.989 3.121l.012-.047zm-25.709-98.593c-9.899.896-11.678 5.746-12.096 9.484l-9.111 79.421a2.391 2.391 0 002.054 2.592h44.898c.332.002.661-.067.966-.199a2.412 2.412 0 001.306-1.424c.106-.315.146-.65.116-.981l-8.932-79.444c-.49-4.313-2.699-9.258-15.595-9.282h-3.51l-.096-.167z" fill="#274B5B"/><path d="M253.38 488.926l-.054 51.208a7.751 7.751 0 007.743 7.759l31.309.033a7.75 7.75 0 007.757-7.743l.053-51.208a7.75 7.75 0 00-7.741-7.76l-31.309-.034a7.753 7.753 0 00-7.758 7.745z" fill="#2974B7"/><path d="M269.738 507.711a1.566 1.566 0 00-1.563-1.568 1.564 1.564 0 101.563 1.568z" fill="#fff"/><path d="M271.319 494.461a1.564 1.564 0 10-3.129-.003 1.565 1.565 0 103.129.003z" fill="#EF7752"/><path d="M290.811 499.543a1.564 1.564 0 10-3.127-.005 1.564 1.564 0 003.127.005zm-26.955 35.478a1.565 1.565 0 10-3.13-.004 1.565 1.565 0 003.13.004zm9.077-.957a3.51 3.51 0 10-7.021 0 3.51 3.51 0 107.021 0zm5.761-17.553a2.532 2.532 0 10-5.064-.004 2.532 2.532 0 005.064.004z" fill="#fff"/><path d="M421.252 783.376l-70.595-.274c-5.779 0-10.137-3.249-10.137-7.49l.417-376.428 90.978.107-.418 376.632a6.41 6.41 0 01-1.97 4.515 11.94 11.94 0 01-8.275 2.938zm-73.771-8.158a5.398 5.398 0 003.14.836l70.595.275a5.352 5.352 0 003.164-.824l.418-369.238-76.923-.084-.394 369.035zm-221.913-29.302l-.003 1.565 81.126.085.003-1.565-81.126-.085z" fill="#274B5B"/><path opacity=".2" d="M125.576 744.362l-.001 1.565 81.126.085.001-1.565-81.126-.085z" fill="#274B5B"/><path opacity=".7" d="M125.568 747.472l-.003 1.564 81.126.085.003-1.565-81.126-.084z" fill="#fff"/><path d="M125.576 734.988l-.001 1.565 81.126.085.001-1.565-81.126-.085z" fill="#274B5B"/><path opacity=".2" d="M125.568 733.433l-.003 1.565 81.126.084.003-1.564-81.126-.085z" fill="#274B5B"/><path opacity=".7" d="M125.568 736.566l-.003 1.565 81.126.084.003-1.564-81.126-.085z" fill="#fff"/><path d="M129.86 783.054a11.78 11.78 0 01-8.215-2.974 6.397 6.397 0 01-1.97-4.515l.43-376.608 90.977.107-.418 376.429c0 4.252-4.37 7.465-10.15 7.477l-70.594.12-.06-.036zm-3.152-7.836c.942.6 2.048.892 3.164.836l70.595-.119a5.33 5.33 0 003.14-.824l.418-369.095-76.935-.084-.382 369.286zm294.446-369.513l-69.818-.083a14.434 14.434 0 01-10.197-4.243 14.445 14.445 0 01-4.216-10.21v-9.7a212.081 212.081 0 0134.629-115.936l.62-.955a17.916 17.916 0 0123.734-5.83 17.915 17.915 0 016.429 6.116l1.123 1.792a212.337 212.337 0 0132.383 113.058v11.371a14.679 14.679 0 01-1.128 5.606 14.676 14.676 0 01-7.949 7.913 14.668 14.668 0 01-5.61 1.101zm-34.032-142.226a10.834 10.834 0 00-9.122 4.933l-.621.955a205.08 205.08 0 00-33.435 112.102v9.7a7.416 7.416 0 007.404 7.417l69.818.084a7.619 7.619 0 007.618-7.609V379.69a205.323 205.323 0 00-31.333-109.319l-1.122-1.792a10.823 10.823 0 00-9.135-5.1h-.072zM314.344 149.25l-74.797-.083a12.052 12.052 0 01-12.013-12.041v-13.975a212.333 212.333 0 0132.67-112.998l1.123-1.792A17.903 17.903 0 01276.35.002a17.908 17.908 0 0115.139 8.144l.621.956a212.085 212.085 0 0134.294 116.008v12.1a12.085 12.085 0 01-.921 4.612 12.06 12.06 0 01-6.527 6.516c-1.463.604-3.03.914-4.612.912zM276.468 7.024h-.096a10.831 10.831 0 00-9.123 5.088l-1.122 1.792a205.32 205.32 0 00-31.584 109.247v13.975a5.019 5.019 0 005.004 5.017l74.809.084a5.015 5.015 0 005.015-5.005v-12.1a205.093 205.093 0 00-33.159-112.186l-.621-.955a10.835 10.835 0 00-9.123-4.957z" fill="#274B5B"/><path d="M239.095 150.004l-.003 2.652 73.532.076.003-2.651-73.532-.077z" fill="#8BBACC"/><path d="M240.907 783.341a10.184 10.184 0 01-9.402-6.301 10.175 10.175 0 01-.772-3.9l.705-630.423 90.977.107-.704 630.101a10.211 10.211 0 01-10.15 10.177l-70.595.251-.059-.012zm-2.448-633.589l-.705 623.4a3.17 3.17 0 003.165 3.165l70.594-.251a3.173 3.173 0 003.152-3.165l.705-623.077-76.911-.072z" fill="#274B5B"/><path d="M227.498 779.984l-.02 19.506a4.682 4.682 0 004.676 4.687l87.67.092a4.68 4.68 0 004.685-4.677l.021-19.506a4.683 4.683 0 00-4.676-4.688l-87.67-.092a4.683 4.683 0 00-4.686 4.678z" fill="#fff"/><path d="M324.616 782.875v16.388a4.679 4.679 0 01-4.682 4.682l-87.706-.059a4.682 4.682 0 01-4.681-4.683v-2.21a336.254 336.254 0 0068.148-3.822c10.102-1.66 20.992-4.348 28.921-10.296z" fill="#ECF2FA"/><path d="M319.204 809.5l-87.67-.096a8.182 8.182 0 01-5.789-2.408 8.194 8.194 0 01-2.39-5.798v-19.506a8.19 8.19 0 018.203-8.182l87.67.096a8.188 8.188 0 018.179 8.206v19.505a8.202 8.202 0 01-5.067 7.564c-.995.41-2.06.62-3.136.619zm-87.646-28.966a1.192 1.192 0 00-1.194 1.194v19.506c0 .316.125.621.35.844.223.225.528.35.844.35l87.67.096a1.198 1.198 0 001.194-1.195v-19.505a1.198 1.198 0 00-1.194-1.195l-87.67-.095z" fill="#274B5B"/><path d="M264.074 792.861a1.362 1.362 0 110-2.723 1.362 1.362 0 010 2.723zm0-1.947a.584.584 0 00-.114 1.159.576.576 0 00.6-.249.579.579 0 00.099-.325.594.594 0 00-.167-.422.579.579 0 00-.418-.175v.012z" fill="#274B5B"/><path opacity=".2" d="M264.061 794.031a2.536 2.536 0 01-1.403-.432 2.537 2.537 0 01-1.066-2.602 2.53 2.53 0 011.992-1.983 2.534 2.534 0 013.021 2.485 2.552 2.552 0 01-.749 1.792 2.548 2.548 0 01-1.795.74zm0-3.512a.982.982 0 00-.96 1.171.978.978 0 001.335.714.994.994 0 00.44-.36.98.98 0 00-.803-1.525h-.012z" fill="#274B5B"/><path d="M275.38 792.873a1.358 1.358 0 01-1.258-.841 1.364 1.364 0 01.993-1.857 1.36 1.36 0 011.228 2.299 1.362 1.362 0 01-.963.399zm0-1.947a.583.583 0 00-.573.7.58.58 0 00.797.426.58.58 0 00.361-.541.576.576 0 00-.166-.422.593.593 0 00-.419-.175v.012z" fill="#274B5B"/><path opacity=".2" d="M275.382 794.043a2.534 2.534 0 01-1.774-4.327 2.536 2.536 0 012.757-.544c.462.192.857.517 1.134.933.279.417.427.905.427 1.406a2.544 2.544 0 01-2.544 2.532zm0-3.512a.985.985 0 00-.905.605.98.98 0 10.905-.605z" fill="#274B5B"/><path d="M286.687 792.884a1.363 1.363 0 01-.963-2.324 1.367 1.367 0 011.483-.295 1.354 1.354 0 01.841 1.258c0 .361-.143.707-.399.962-.254.256-.6.399-.962.399zm0-1.947a.582.582 0 00-.325.1.58.58 0 00-.088.899.578.578 0 00.637.128.596.596 0 00.263-.216.594.594 0 00.098-.325.572.572 0 00-.167-.422.579.579 0 00-.418-.175v.011z" fill="#274B5B"/><path opacity=".2" d="M286.688 794.055a2.53 2.53 0 01-2.47-3.034 2.539 2.539 0 013.454-1.837 2.534 2.534 0 011.559 2.339 2.547 2.547 0 01-.748 1.792 2.546 2.546 0 01-1.795.74zm0-3.512a.98.98 0 10.375 1.885.975.975 0 00.604-.905.981.981 0 00-.979-.98z" fill="#274B5B"/><path d="M302.303 778.112l-.026 25.753 1.564.002.026-25.753-1.564-.002z" fill="#274B5B"/><path opacity=".2" d="M303.871 778.1l-.028 25.753 1.565.002.027-25.753-1.564-.002zm-3.122.012l-.026 25.753 1.564.002.027-25.753-1.565-.002z" fill="#274B5B"/><path d="M308.148 778.112l-.027 25.753 1.564.002.027-25.753-1.564-.002z" fill="#274B5B"/><path opacity=".2" d="M309.729 778.112l-.027 25.753 1.564.002.027-25.753-1.564-.002zm-3.134 0l-.028 25.753 1.564.002.028-25.753-1.564-.002z" fill="#274B5B"/><path d="M337.877 780.104l-.02 19.505a4.682 4.682 0 004.676 4.688l87.669.092a4.683 4.683 0 004.686-4.678l.021-19.506a4.682 4.682 0 00-4.676-4.687l-87.67-.092a4.682 4.682 0 00-4.686 4.678z" fill="#fff"/><path d="M434.981 782.994v16.388a4.68 4.68 0 01-4.681 4.683l-87.669-.096a4.678 4.678 0 01-4.681-4.682v-2.21a336.31 336.31 0 0068.146-3.822c10.078-1.613 20.969-4.312 28.885-10.261z" fill="#ECF2FA"/><path d="M429.572 809.619l-87.67-.095a8.189 8.189 0 01-7.559-5.07 8.191 8.191 0 01-.62-3.136v-19.506a8.204 8.204 0 015.068-7.564 8.208 8.208 0 013.135-.619l87.67.096a8.182 8.182 0 015.789 2.408 8.198 8.198 0 012.39 5.798v19.506a8.19 8.19 0 01-8.203 8.182zm-87.646-28.966a1.192 1.192 0 00-1.194 1.194v19.506a1.196 1.196 0 001.194 1.195l87.67.095a1.19 1.19 0 001.194-1.194v-19.506a1.192 1.192 0 00-1.194-1.194l-87.67-.096z" fill="#274B5B"/><path d="M374.442 792.98a1.364 1.364 0 01-.265-2.697c.264-.053.538-.026.787.078.248.102.461.277.61.501.151.224.23.488.23.756a1.361 1.361 0 01-1.362 1.362zm0-1.947a.583.583 0 00-.539.361.579.579 0 00.126.638.584.584 0 10.828-.827.587.587 0 00-.415-.172z" fill="#274B5B"/><path opacity=".2" d="M374.445 794.151a2.53 2.53 0 01-2.331-1.572 2.53 2.53 0 011.853-3.445 2.53 2.53 0 012.271 4.276 2.542 2.542 0 01-1.793.741zm0-3.512a.976.976 0 00-.905.604.982.982 0 001.279 1.281.986.986 0 00.605-.906.978.978 0 00-.979-.979z" fill="#274B5B"/><path d="M385.764 792.992a1.36 1.36 0 11-.001-2.721 1.36 1.36 0 01.001 2.721zm0-1.947a.584.584 0 00-.541.361.595.595 0 00-.034.339.595.595 0 00.16.299.596.596 0 00.3.161.592.592 0 00.601-.25.584.584 0 00-.486-.91z" fill="#274B5B"/><path opacity=".2" d="M385.75 794.163a2.532 2.532 0 112.119-3.939c.277.417.425.906.425 1.406a2.543 2.543 0 01-2.544 2.533zm0-3.512a.974.974 0 00-.904.604.988.988 0 00-.056.566c.039.19.132.365.269.502a.972.972 0 001.066.213c.179-.076.332-.201.44-.361a.985.985 0 00-.117-1.233.98.98 0 00-.686-.291h-.012z" fill="#274B5B"/><path d="M397.07 793.004c-.27 0-.532-.08-.757-.229a1.363 1.363 0 011.278-2.391 1.368 1.368 0 01.841 1.258 1.365 1.365 0 01-1.362 1.362zm0-1.947a.588.588 0 00-.574.7.588.588 0 00.798.426.576.576 0 00.262-.216.59.59 0 00-.072-.739.587.587 0 00-.414-.171z" fill="#274B5B"/><path opacity=".2" d="M397.071 794.175a2.535 2.535 0 01-1.774-4.328 2.535 2.535 0 013.892.389c.278.417.426.906.426 1.406a2.545 2.545 0 01-2.544 2.533zm0-3.512a.977.977 0 00-.96 1.17.975.975 0 00.769.77.979.979 0 10.191-1.94z" fill="#274B5B"/><path d="M412.668 778.232l-.028 25.753 1.564.002.028-25.753-1.564-.002z" fill="#274B5B"/><path opacity=".2" d="M414.234 778.232l-.026 25.753 1.564.002.026-25.753-1.564-.002zm-3.12 0l-.026 25.753 1.564.002.026-25.753-1.564-.002z" fill="#274B5B"/><path d="M418.526 778.232l-.027 25.753 1.565.002.026-25.753-1.564-.002z" fill="#274B5B"/><path opacity=".2" d="M420.079 778.244l-.027 25.753 1.564.002.027-25.753-1.564-.002zm-3.107-.012l-.026 25.753 1.564.002.026-25.754-1.564-.001z" fill="#274B5B"/><path d="M116.738 779.865l-.02 19.505a4.68 4.68 0 004.675 4.688l87.67.092a4.683 4.683 0 004.686-4.678l.02-19.506a4.68 4.68 0 00-4.676-4.687l-87.67-.092a4.682 4.682 0 00-4.685 4.678z" fill="#fff"/><path d="M213.837 782.755v16.389a4.682 4.682 0 01-4.681 4.682l-87.67-.096a4.68 4.68 0 01-4.68-4.682v-2.21a336.23 336.23 0 0068.146-3.822c10.078-1.625 20.968-4.312 28.885-10.261z" fill="#ECF2FA"/><path d="M208.429 809.38l-87.67-.095a8.168 8.168 0 01-3.134-.629 8.177 8.177 0 01-4.426-4.441 8.19 8.19 0 01-.619-3.136v-19.506a8.187 8.187 0 012.407-5.791 8.2 8.2 0 015.796-2.391l87.67.095a8.185 8.185 0 017.561 5.07c.409.995.62 2.06.618 3.136v19.506a8.19 8.19 0 01-8.203 8.182zm-87.646-28.966a1.193 1.193 0 00-1.194 1.195v19.505a1.193 1.193 0 001.194 1.195l87.67.095a1.191 1.191 0 001.194-1.194v-19.506a1.193 1.193 0 00-1.194-1.194l-87.67-.096z" fill="#274B5B"/><path d="M153.299 792.729a1.363 1.363 0 01-1.335-1.627 1.363 1.363 0 012.467-.491 1.359 1.359 0 01-1.132 2.118zm0-1.947a.589.589 0 00-.541.361.587.587 0 00.766.766.59.59 0 00.36-.541.588.588 0 00-.157-.438.587.587 0 00-.428-.184v.036z" fill="#274B5B"/><path opacity=".2" d="M153.297 793.9a2.532 2.532 0 112.543-2.532 2.549 2.549 0 01-2.543 2.532zm0-3.512a.976.976 0 00-.905.604.992.992 0 00-.057.567.988.988 0 00.771.769.972.972 0 001.004-.416.98.98 0 00-.813-1.524z" fill="#274B5B"/><path d="M164.606 792.741a1.36 1.36 0 11-.001-2.721 1.36 1.36 0 01.001 2.721zm0-1.947a.586.586 0 10.223 1.127.584.584 0 00.362-.542.601.601 0 00-.149-.44.6.6 0 00-.424-.193l-.012.048z" fill="#274B5B"/><path opacity=".2" d="M164.607 793.912a2.532 2.532 0 112.543-2.533 2.543 2.543 0 01-2.543 2.533zm0-3.512a.975.975 0 00-.96 1.171.99.99 0 00.267.501.986.986 0 001.068.213.988.988 0 00.604-.906.977.977 0 00-.967-.979h-.012z" fill="#274B5B"/><path d="M175.926 792.753a1.365 1.365 0 01-1.258-.841 1.363 1.363 0 01.993-1.856 1.357 1.357 0 011.626 1.335 1.362 1.362 0 01-1.361 1.362zm0-1.947a.596.596 0 00-.325.098.593.593 0 00-.248.602.57.57 0 00.16.299.583.583 0 00.954-.638.609.609 0 00-.127-.19.609.609 0 00-.19-.127.612.612 0 00-.224-.044z" fill="#274B5B"/><path opacity=".2" d="M175.914 793.924a2.532 2.532 0 112.543-2.533 2.547 2.547 0 01-.748 1.792 2.55 2.55 0 01-1.795.741zm0-3.512a.983.983 0 00-.905.604.983.983 0 00.714 1.336.979.979 0 10.203-1.94h-.012z" fill="#274B5B"/><path d="M191.542 777.981l-.026 25.753 1.564.001.026-25.753-1.564-.001z" fill="#274B5B"/><path opacity=".2" d="M193.11 777.993l-.028 25.753 1.565.001.027-25.753-1.564-.001zm-3.13-.012l-.027 25.753 1.564.001.027-25.753-1.564-.001z" fill="#274B5B"/><path d="M197.401 777.981l-.027 25.753 1.564.001.028-25.753-1.565-.001z" fill="#274B5B"/><path opacity=".2" d="M198.954 777.993l-.027 25.753 1.565.001.026-25.753-1.564-.001zm-3.12 0l-.028 25.753 1.564.001.028-25.753-1.564-.001z" fill="#274B5B"/><defs><linearGradient id="paint0_linear_117_63" x1="-.393" y1="535.689" x2="644.437" y2="535.689" gradientUnits="userSpaceOnUse"><stop stop-color="#C3F6EE"/><stop offset=".38" stop-color="#C6EBFD"/></linearGradient></defs></svg>