<svg width="1440" height="427" fill="none" xmlns="http://www.w3.org/2000/svg"><g clip-path="url(#clip0_150_58)"><path d="M1393.5 388.063c-15.61-4.416-38.69-6.95-57.99-2.4a57.902 57.902 0 00-4.11-14.054c-9.86-22.848-31.75-37.421-55.14-43.853-65.39-17.952-122.21 28.282-176.1 57.6-32.64 17.722-71.21 33.043-108.941 24.96-24.691-5.338-48.249-23.923-57.869-47.808 16.647-2.573 32.448-9.12 41.242-22.675 10.906-16.819 1.133-47.213-22.637-41.357-25.421 6.259-30.624 38.976-23.904 60.499a132.76 132.76 0 01-46.617-2.784c-72.5-16.934-119.386-78.509-163.604-133.421-20.236-25.19-40.953-52.512-68.524-70.099-10.714-6.835-26.247-13.305-41.165-14.515a57.414 57.414 0 00-9.715-16.57c-20.679-23.961-54.778-27.456-84.288-22.829-31.661 4.973-61.229 18.874-87.36 37.133-58.138 40.685-97.287 101.088-142.503 154.522-22.656 26.765-48.672 55.046-84.48 62.746-22.656 4.876-48.441-.48-61.785-17.684 9.081-16.953 12.883-36.249 7.833-55.43a1.91 1.91 0 00-.968-1.112 1.92 1.92 0 00-1.47-.098c-19.565 8.045-21.6 31.508-14.208 49.037a46.913 46.913 0 004.377 8.064c-12.288 21.12-33.504 37.939-55.315 46.733A141.459 141.459 0 010 389.887v3.61c47.405 8.889 98.669-4.282 129.274-44.333a103.122 103.122 0 006.758-10.042c12.864 15.956 34.925 21.543 55.68 19.2 32.045-3.59 57.946-24.211 79.238-47.04 24.73-26.4 46.138-55.718 68.89-83.731 43.238-53.453 95.136-107.827 165.005-123.091 33.408-7.315 75.878-5.319 96 26.88a52.222 52.222 0 013.513 6.758c-12.211-.211-23.673 3.437-31.411 13.728-11.52 15.36 0 44.429 21.658 35.079 18.182-7.872 20.275-27.36 15.014-44.429a72.483 72.483 0 0114.208 2.515c16.723 4.896 31.277 15.36 43.968 26.88 26.208 24.115 47.213 53.76 69.677 81.255 41.011 50.246 91.469 101.587 159.36 109.44a143.604 143.604 0 0032.64.153c9.216 23.463 30.72 42.048 54.566 49.383 31.812 9.772 66.742.48 96.092-12.749 32.43-14.362 61.29-35.482 92.99-51.379 29.53-14.842 62.05-24.96 95.21-18.164 27.59 5.645 55.09 23.04 62.48 51.84.43 1.67.77 3.362 1.02 5.069-15.88 4.666-28.5 14.65-30.93 33.159-.11.496-.01 1.012.27 1.437.28.424.71.722 1.2.828 10.93 3.744 22.81-1.536 28.8-11.097a34.395 34.395 0 004.75-21.312 79.424 79.424 0 016.47-1.594c19.01-3.84 38.8-.211 56.96 5.76a160.779 160.779 0 0140.65 20.294v-4.627a164.98 164.98 0 00-46.5-21.504zm-1257.756-55.91a44.17 44.17 0 01-6.528-20.122c-.998-11.635 2.976-23.04 13.555-28.55a70.252 70.252 0 01-7.027 48.672zm460.512-150.682c-17.549 11.866-30.317-11.808-21.216-26.131 6.547-10.31 18.797-13.44 30.854-13.171 4.666 13.958 3.456 30.451-9.638 39.302zm335.635 176.871a61.768 61.768 0 01-2.477-10.407c-2.246-15.667 2.688-34.425 16.973-43.085 18.605-11.308 33.427 9.14 27.994 26.535-5.434 17.395-25.959 24.249-41.952 26.88l-.538.077zm394.999 52.147a21.386 21.386 0 01-21.92 8.352c2.67-14.4 14.13-23.251 27.24-27.955a29.632 29.632 0 01-5.32 19.603z" fill="#FBE8D3" fill-opacity=".5"/><path d="M583.398 411.873c8.941-5.328 22.822-10.731 35.535-11.115a37.33 37.33 0 01.213-9.392c2.322-15.798 13.466-28.463 26.89-36.333 37.545-21.984 80.43-2.766 118.697 6.454 23.17 5.562 49.618 8.652 71.656-2.622 14.415-7.408 25.929-22.837 27.924-39.236-10.744 1.169-21.623-.264-29.323-7.204-9.552-8.612-8.542-29.07 7.16-29.388 16.793-.342 25.45 19.068 24.86 33.522a85.159 85.159 0 0028.427-9.466c42.116-22.533 60.948-68.476 79.232-109.848 8.358-18.971 16.66-39.343 30.821-54.82 5.51-6.015 14.06-12.604 23.1-15.831a36.946 36.946 0 013.27-11.881c8.84-18.283 29.39-26.11 48.45-28.143 20.44-2.176 41.07 1.529 60.3 8.505 42.78 15.559 77.08 46.491 113.97 72.096 18.48 12.824 39.3 26.031 62.77 24.856 14.85-.74 29.94-8.341 35.35-21.218-8.44-8.998-14-20.325-14.05-33.05a1.24 1.24 0 01.41-.85c.12-.107.26-.189.42-.241.15-.053.31-.074.48-.064 13.46 1.737 18.61 15.939 16.94 28.03a30.414 30.414 0 01-1.37 5.724c11.12 11.048 27.06 17.948 42.04 19.776a90.72 90.72 0 0049.69-8.522l.6 2.237c-27.9 13.381-61.85 13.731-87.47-6.007a65.94 65.94 0 01-5.85-5.101c-5.33 12.024-18.07 19.149-31.32 21.144-20.46 3.096-39.93-5.382-56.92-15.993-19.71-12.254-37.84-26.868-56.59-40.45-35.67-25.946-76.86-51.024-122.7-48.882-21.92 1.014-47.9 9.304-55.03 32.599a33.794 33.794 0 00-1.05 4.772c7.53-2.159 15.24-1.802 21.74 3.291 9.69 7.606 7.38 27.533-7.59 25.335-12.58-1.859-17.11-13.589-16.68-25.04a46.543 46.543 0 00-8.39 3.918c-9.55 5.811-16.83 14.712-22.786 23.959-12.237 19.296-20.331 41.155-29.687 61.924-17.071 37.948-39.815 78.143-80.584 94.283a92.153 92.153 0 01-20.202 5.515c-1.815 16.07-12.055 31.158-25.615 39.663-18.093 11.339-41.279 11.38-61.669 8.056-22.481-3.515-43.871-11.811-66.155-16.399-20.765-4.295-42.601-5.164-62.021 4.554-16.16 8.079-30.31 23.425-30.109 42.5.01 1.106.08 2.211.211 3.31 10.615.255 20.09 4.347 24.674 15.412a1.232 1.232 0 01-.54 1.65c-6.148 4.134-14.39 2.836-19.69-2.095a22.05 22.05 0 01-6.478-12.42 51.371 51.371 0 00-4.274.087c-12.417.777-24.082 6.312-34.346 13.029a103.072 103.072 0 00-21.819 19.326l-.769-2.868a105.79 105.79 0 0125.247-21.048zm770.162-243.499a28.28 28.28 0 00.7-13.553c-1.31-7.377-5.67-13.784-13.14-15.442a45.058 45.058 0 0012.44 28.995zm-310.41-16.91c12.85 4.439 16.83-12.352 8.81-19.717-5.77-5.302-13.88-5.208-21.31-3.039-.57 9.425 2.92 19.445 12.5 22.756zm-178.625 165.34c.134-2.288.07-4.583-.193-6.86-1.21-10.082-7.382-20.887-17.673-23.881-13.407-3.919-19.197 11.214-12.941 21.092 6.255 9.877 20.113 10.717 30.461 9.691l.346-.042zm-236.127 97.907a13.736 13.736 0 0014.975 1.535c-4.045-8.481-12.618-12.063-21.526-12.8a19.043 19.043 0 006.551 11.265z" fill="#FF7069"/></g><defs><clipPath id="clip0_150_58"><path fill="#fff" d="M0 0h1440v427H0z"/></clipPath></defs></svg>