<?xml version="1.0" encoding="utf-8"?><svg xmlns="http://www.w3.org/2000/svg" xmlns:xlink="http://www.w3.org/1999/xlink"><symbol viewBox="0 0 26.4 14.6" id="icon-angle" xmlns="http://www.w3.org/2000/svg"><path d="M1.4 0L0 1.4l12.5 12.5.7.7.7-.7L26.4 1.4 25 0 13.2 11.8 1.4 0z"/></symbol><symbol viewBox="0 0 14 14" id="icon-close" xmlns="http://www.w3.org/2000/svg"><path d="M12.6 0L7 5.6 1.4 0 0 1.4 5.6 7 0 12.6 1.4 14 7 8.4l5.6 5.6 1.4-1.4L8.4 7 14 1.4 12.6 0z"/></symbol><symbol viewBox="0 0 25.8 19.5" id="icon-gmail" xmlns="http://www.w3.org/2000/svg"><path d="M21.6.6L20 1.9l-7 5.2-7-5.3L4.2.6C3.8.3 3.4.1 2.9 0c-.5-.1-1 0-1.5.3S.6.9.3 1.3c-.2.5-.3 1-.3 1.5v15c0 .5.2.9.5 1.2.3.3.8.5 1.2.5h4.1v-10l7 5.3 7-5.3v10h4.1c.5 0 .9-.2 1.2-.5.3-.3.5-.8.5-1.2v-15c0-.5-.1-1-.3-1.4-.3-.4-.6-.8-1.1-1-.2-.3-.7-.4-1.2-.3-.5 0-1 .2-1.4.5z"/></symbol><symbol viewBox="0 0 16 12" id="icon-menu" xmlns="http://www.w3.org/2000/svg"><path d="M0 0h16v2H0V0zm0 5h16v2H0V5zm0 5h16v2H0v-2z"/></symbol><symbol viewBox="0 0 21.8 21.3" id="icon-phone" xmlns="http://www.w3.org/2000/svg"><path d="M9 12.4c1.3 1.4 2.9 2.4 4.7 3.1l2.4-1.9c.1 0 .2-.1.2-.1s.2 0 .2.1l4.5 2.9c.2.1.3.2.4.4.1.2.2.4.2.6 0 .2 0 .4-.1.6-.1.2-.2.4-.3.5l-2.1 2.1c-.3.3-.7.5-1.1.6-.4.1-.8.1-1.2.1-4.1-.9-7.9-2.8-11-5.8-3-2.9-5-6.7-5.9-10.8.1-.5.1-.9.2-1.3s.3-.8.6-1L2.9.4c.1-.1.3-.2.5-.3.2-.1.4-.1.6-.1.2 0 .4.1.5.2.2.1.3.2.4.4l3 4.4c.1.1.1.2.1.2 0 .1 0 .2-.1.2l-2 2.4c.7 1.8 1.8 3.4 3.1 4.6z"/></symbol><symbol viewBox="0 0 23.4 19.6" id="icon-tg" xmlns="http://www.w3.org/2000/svg"><path d="M21.8.1l-20.7 8C-.3 8.7-.3 9.5.8 9.8l5.3 1.7 12.3-7.8c.6-.4 1.1-.2.7.2l-10 9-.4 5.5c.5 0 .8-.2 1.1-.5l2.6-2.5 5.4 4c1 .5 1.7.3 1.9-.9l3.5-16.6c.4-1.5-.5-2.2-1.4-1.8z"/></symbol><symbol viewBox="0 0 32 18.3" id="icon-vk" xmlns="http://www.w3.org/2000/svg"><path d="M28.5 12.8s2.6 2.6 3.2 3.7v.1c.3.4.3.8.2 1-.2.4-.9.6-1.2.6h-4.6c-.3 0-1-.1-1.8-.6-.6-.4-1.2-1.1-1.8-1.8-.9-1-1.7-1.9-2.4-1.9h-.3c-.6.2-1.3 1-1.3 3.3 0 .7-.6 1.1-.9 1.1h-2.1c-.7 0-4.4-.2-7.7-3.7C3.8 10.3.1 1.8.1 1.7-.1 1.1.3.8.9.8h4.6c.6 0 .8.4 1 .7.1.5.7 2 1.7 3.7 1.6 2.8 2.6 4 3.4 4 .1 0 .3 0 .4-.1 1-.6.8-4.2.8-5 0-.1 0-1.6-.5-2.4-.4-.5-1-.7-1.4-.8.1-.2.3-.4.6-.5.7-.4 2-.4 3.2-.4h.7c1.4 0 1.7.1 2.2.2 1 .2 1 .9.9 3.1 0 .6-.1 1.3-.1 2.2v.6c0 1.1-.1 2.4.7 2.9.1.1.2.1.3.1.3 0 1.1 0 3.4-3.9 1-1.7 1.8-3.7 1.8-3.9 0-.1.2-.3.3-.4.1-.1.2-.1.4-.1h5.4c.6 0 1 .1 1.1.3.1.4 0 1.5-2.5 4.8-.4.6-.8 1-1.1 1.5-2.1 3-2.1 3.2.3 5.4z" fill-rule="evenodd" clip-rule="evenodd"/></symbol></svg>